<svg width="251" height="257" viewBox="0 0 251 257" fill="none" xmlns="http://www.w3.org/2000/svg">
<path d="M19.2043 206L0 218.151L45.3054 256.576L250.541 241.991L234.864 230.118C234.864 230.118 28.7687 209.874 19.2043 206Z" fill="#569916"/>
<path d="M156.916 234.74L107.945 216.339L122.836 110.841L156.916 234.74Z" fill="#2062B2"/>
<path d="M49.7619 38.5732L3.03906 209.735L35.9678 243.377L75.348 55.9275L49.7619 38.5732Z" fill="#A5CBF9"/>
<path d="M74.2304 61.9187L49.7617 38.5734L128.757 32.9326L159.659 55.8184" fill="#70A5F2"/>
<path d="M159.658 55.8184L74.2296 61.9186L35.9668 243.377L110.636 238.045L112.881 211.076L146.074 208.706L156.916 234.741L231.544 229.412L159.658 55.8184ZM115.468 172.763L124.646 138.335L138.623 171.11L115.468 172.763Z" fill="#4680DA"/>
<path d="M98.9956 108.431C107.628 107.572 113.778 98.351 112.732 87.835C111.686 77.319 103.84 69.4904 95.207 70.3492C86.5743 71.2081 80.4243 80.4292 81.4705 90.9451C82.5167 101.461 90.363 109.29 98.9956 108.431Z" fill="white"/>
<path d="M158.908 90.9269C160.7 80.5124 155.223 70.877 146.673 69.4058C138.124 67.9345 129.741 75.1844 127.948 85.5989C126.156 96.0134 131.634 105.649 140.183 107.12C148.732 108.591 157.115 101.341 158.908 90.9269Z" fill="white"/>
<path d="M103.736 103.379C108.007 102.954 111.05 98.3917 110.532 93.1889C110.015 87.9861 106.133 84.1129 101.862 84.5378C97.5911 84.9627 94.5485 89.5248 95.0661 94.7276C95.5837 99.9304 99.4656 103.804 103.736 103.379Z" fill="black"/>
<path d="M152.924 95.6478C154.01 90.5334 151.487 85.6647 147.288 84.7733C143.09 83.8819 138.806 87.3053 137.72 92.4197C136.634 97.5341 139.157 102.403 143.356 103.294C147.554 104.186 151.838 100.762 152.924 95.6478Z" fill="black"/>
<path d="M86.5999 69.0781C86.8539 68.7714 87.1417 68.4895 87.4309 68.2168C87.7489 67.9171 88.0812 67.6337 88.4224 67.3607C88.5114 67.2894 88.5304 67.2778 88.4206 67.361C88.4683 67.3249 88.5157 67.2885 88.5637 67.2528C88.6793 67.1662 88.7964 67.0809 88.9144 66.9977C89.1385 66.84 89.3666 66.688 89.5993 66.5428C90.1282 66.2123 90.6789 65.916 91.2488 65.6616C91.2925 65.6421 91.5313 65.5421 91.3441 65.6188C91.4154 65.5898 91.4866 65.5604 91.5585 65.5326C91.7159 65.4708 91.8749 65.4124 92.0351 65.3574C92.3644 65.2443 92.6983 65.1459 93.0368 65.0633C93.2104 65.0208 93.385 64.9826 93.5608 64.949C93.6431 64.9331 93.7253 64.9184 93.8076 64.9046C93.8491 64.8976 93.8907 64.8911 93.9323 64.8844C93.9497 64.8817 94.1225 64.8566 94.02 64.8707C93.9354 64.8823 94.1558 64.8551 94.1946 64.8511C94.2946 64.8404 94.3949 64.8312 94.4955 64.8236C94.685 64.8092 94.8746 64.8001 95.0648 64.7961C95.4577 64.7878 95.8512 64.8025 96.2425 64.8395C96.3355 64.8484 96.4284 64.8584 96.5214 64.8698C96.6296 64.8832 96.5321 64.871 96.5119 64.8682C96.559 64.8749 96.6064 64.882 96.6535 64.8899C96.8776 64.9269 97.1005 64.9685 97.3218 65.0187C99.5232 65.5158 101.465 66.7143 103.171 68.2171C103.543 68.5442 104.103 68.5831 104.469 68.2171C104.802 67.8835 104.842 67.2488 104.469 66.9198C102.76 65.4155 100.828 64.1476 98.6387 63.471C96.9262 62.9417 95.1269 62.8393 93.3621 63.1291C90.7706 63.5544 88.3808 64.9107 86.4375 66.6431C86.0397 66.9978 85.6444 67.3702 85.3038 67.7817C84.988 68.163 84.9305 68.7053 85.3038 69.079C85.6279 69.4034 86.2825 69.4615 86.5999 69.0781Z" fill="black"/>
<path d="M135.176 66.1072C135.253 66.0317 135.334 65.9599 135.415 65.8886C135.507 65.8088 135.599 65.7309 135.692 65.6538C135.751 65.6061 135.81 65.5593 135.868 65.5119C135.9 65.4862 135.933 65.4615 135.965 65.4358C135.719 65.6336 135.897 65.4875 135.954 65.4456C136.738 64.8628 137.566 64.3449 138.445 63.9172C138.575 63.8539 138.706 63.7927 138.838 63.7334C138.906 63.7031 138.973 63.6738 139.041 63.6441C138.835 63.734 139.067 63.6334 139.099 63.6212C139.412 63.4974 139.726 63.3809 140.047 63.2794C140.356 63.1815 140.668 63.0956 140.983 63.0229C141.145 62.9855 141.308 62.9513 141.472 62.921C141.555 62.9057 141.638 62.8911 141.721 62.8776C141.756 62.8721 142.102 62.8259 141.899 62.8501C143.486 62.6615 144.795 62.7868 146.266 63.2833C148.357 63.989 150.214 65.4685 151.737 67.1247C152.073 67.4895 152.694 67.4647 153.035 67.1247C153.398 66.7615 153.371 66.1932 153.035 65.8275C150.326 62.8834 146.665 60.6983 142.548 60.9551C139.926 61.1187 137.397 62.146 135.278 63.6765C134.794 64.0257 134.306 64.3917 133.878 64.8096C133.033 65.637 134.331 66.9337 135.176 66.1072Z" fill="black"/>
<path d="M136.848 117.187C134.64 116.167 133.234 116.463 133.234 116.463C120.716 116.498 118.105 124.088 117.652 125.969C113.477 124.812 109.874 121.968 107.369 118.033C106.261 116.306 104.871 114.219 106.078 112.195C107.316 110.121 109.896 110.515 111.778 111.545C111.778 111.545 120.992 116.594 131.066 111.324C131.066 111.324 137.221 106.764 137.235 114.332C137.237 115.35 137.104 116.299 136.848 117.187Z" fill="black"/>
<path d="M119.776 130.298C120.57 130.619 121.436 130.805 122.278 130.938C124.141 131.233 126.062 131.195 127.889 130.7C129.192 130.347 130.421 129.759 131.521 128.978C131.879 128.723 131.535 128.127 131.173 128.384C128.149 130.532 124.275 130.911 120.76 129.899C120.49 129.822 120.219 129.74 119.959 129.634C119.549 129.469 119.37 130.134 119.776 130.298Z" fill="black"/>
<path d="M122.245 85.4112C122.153 87.8802 122.06 90.3494 121.968 92.8183C121.955 93.1726 121.941 93.527 121.928 93.8814C122.153 93.5866 122.377 93.2919 122.602 92.9968C121.118 93.224 119.625 93.7 118.284 94.3669C117.275 94.8683 116.304 95.563 115.697 96.5303C114.98 97.6741 115.034 99.021 115.562 100.225C116.503 102.376 118.601 103.964 120.452 105.287C120.855 105.575 121.473 105.358 121.707 104.958C121.976 104.497 121.782 103.992 121.378 103.703C120.449 103.039 119.554 102.328 118.748 101.518C118.596 101.365 118.447 101.209 118.303 101.049C118.226 100.963 118.15 100.876 118.076 100.788C118.034 100.738 117.876 100.542 117.916 100.594C117.791 100.434 117.505 100.011 117.35 99.7224C117.28 99.593 117.218 99.4606 117.157 99.3267C117.229 99.4854 117.186 99.3983 117.153 99.2998C117.125 99.2203 117.098 99.1411 117.075 99.0601C117.04 98.9412 117.022 98.8195 116.991 98.6999C116.958 98.5712 117.005 98.9289 116.991 98.6957C116.987 98.6311 116.982 98.5672 116.98 98.5027C116.978 98.3875 117.001 98.2676 116.995 98.1535C116.994 98.1312 116.949 98.381 116.992 98.1958C117.005 98.1377 117.016 98.0792 117.031 98.0215C117.058 97.9148 117.108 97.8133 117.134 97.7072C117.139 97.687 117.034 97.9077 117.121 97.7454C117.153 97.6873 117.181 97.6277 117.214 97.5702C117.265 97.48 117.323 97.3947 117.381 97.3085C117.469 97.1767 117.442 97.254 117.358 97.3329C117.406 97.288 117.446 97.2262 117.49 97.177C117.645 97.0024 117.817 96.8477 117.993 96.6955C118.149 96.5606 118 96.6875 117.994 96.6909C118.041 96.6606 118.084 96.6236 118.13 96.5909C118.236 96.5154 118.344 96.4432 118.453 96.3738C118.663 96.2417 118.879 96.1204 119.099 96.0072C119.32 95.8935 119.549 95.7975 119.774 95.6914C119.489 95.8253 119.857 95.6589 119.941 95.6265C120.053 95.5828 120.167 95.5406 120.28 95.5C120.704 95.3477 121.135 95.2153 121.571 95.0988C122.071 94.9655 122.578 94.8444 123.09 94.7662C123.493 94.7044 123.749 94.251 123.763 93.8817C123.856 91.4128 123.948 88.9435 124.04 86.4746C124.054 86.1202 124.067 85.7659 124.08 85.4115C124.124 84.2304 122.289 84.2323 122.245 85.4112Z" fill="black"/>
<path d="M136.847 117.187C135.407 122.231 130.168 125.213 125.054 126.222C122.474 126.732 119.975 126.61 117.65 125.968C118.104 124.088 120.714 116.498 133.233 116.463C133.233 116.463 134.639 116.167 136.847 117.187Z" fill="#FF7BAC"/>
<path d="M152.59 110.899C152.549 112.003 150.599 112.826 148.234 112.737C145.87 112.649 143.987 111.682 144.028 110.579C144.069 109.475 146.019 108.653 148.384 108.741C150.748 108.83 152.631 109.796 152.59 110.899Z" fill="#FF7BAC"/>
<path d="M102.804 112.472C102.846 111.369 100.963 110.403 98.5983 110.314C96.2341 110.226 94.284 111.049 94.2427 112.152C94.2014 113.255 96.0846 114.222 98.4488 114.31C100.813 114.399 102.763 113.576 102.804 112.472Z" fill="#FF7BAC"/>
<path d="M163.239 79.2939C162.744 79.534 162.188 79.6266 161.633 79.6587C161.076 79.689 160.512 79.6547 159.953 79.5856C159.606 79.5419 159.25 79.4817 158.906 79.4098C158.771 79.0231 158.61 78.6442 158.458 78.2642C158.27 77.845 158.07 77.431 157.856 77.0241C157.938 76.9324 158.019 76.84 158.101 76.7443C158.326 76.4811 158.537 76.2093 158.741 75.9338C159.147 75.3801 159.509 74.7982 159.824 74.1959C160.145 73.5973 160.393 72.9604 160.591 72.3199C160.793 71.6784 160.887 71.0113 160.938 70.3582C160.754 70.992 160.535 71.6038 160.221 72.1688C159.911 72.7332 159.564 73.2707 159.155 73.7599C158.753 74.2522 158.316 74.712 157.849 75.1345C157.614 75.3446 157.375 75.5485 157.129 75.7396C157.123 75.7442 157.116 75.7491 157.111 75.7537C157.058 75.6733 157.009 75.5907 156.954 75.5115C155.773 73.7819 154.239 72.2884 152.458 71.2354C150.677 70.1998 148.697 69.4926 146.68 69.4082C148.617 69.9209 150.395 70.8394 151.922 72.0248C153.456 73.2053 154.712 74.683 155.668 76.3227C156.148 77.1436 156.533 78.0159 156.878 78.9011C157.027 79.3542 157.2 79.7966 157.321 80.2601C157.385 80.49 157.457 80.7172 157.514 80.949L157.673 81.6488C158.09 83.5169 158.269 85.4471 158.293 87.3865L158.293 87.4348L158.301 87.499C158.32 87.6717 158.34 87.913 158.348 88.1288C158.358 88.3505 158.362 88.5752 158.361 88.8003C158.358 89.2506 158.343 89.7034 158.308 90.1559C158.248 91.0622 158.104 91.9629 157.918 92.8538C157.534 94.6333 156.909 96.3651 156.028 97.9721C155.815 98.3784 155.573 98.7673 155.333 99.1605C155.072 99.5381 154.826 99.9298 154.541 100.293C153.995 101.039 153.377 101.734 152.726 102.404C151.416 103.739 149.912 104.901 148.309 105.957C150.103 105.269 151.796 104.293 153.342 103.092C154.105 102.482 154.839 101.821 155.496 101.084C156.167 100.359 156.772 99.5693 157.308 98.7325C158.388 97.0628 159.186 95.2026 159.673 93.2663C159.922 92.2989 160.09 91.311 160.184 90.314C160.236 89.8159 160.256 89.3139 160.263 88.8103C160.266 88.5581 160.263 88.3056 160.254 88.0503C160.245 87.8105 160.232 87.5904 160.205 87.3229C160.182 85.2841 159.962 83.2298 159.452 81.2259L159.346 80.8306C159.545 80.8184 159.744 80.8034 159.946 80.7836C160.56 80.72 161.172 80.6178 161.772 80.4451C162.367 80.2711 162.962 80.0268 163.457 79.6278C163.702 79.427 163.914 79.1833 164.057 78.9078C164.202 78.6326 164.274 78.3318 164.286 78.0373C164.137 78.6176 163.731 79.0591 163.239 79.2939Z" fill="black"/>
<path d="M76.8424 80.5723C77.3371 80.8123 77.8927 80.9049 78.4479 80.937C79.005 80.9673 79.5688 80.933 80.1277 80.8639C80.4753 80.8202 80.8315 80.76 81.1752 80.6881C81.3103 80.3014 81.4711 79.9225 81.6234 79.5425C81.8108 79.1233 82.0114 78.7093 82.2251 78.3024C82.1425 78.2106 82.0615 78.1183 81.9802 78.0226C81.7552 77.7594 81.5436 77.4876 81.3393 77.2121C80.9339 76.6584 80.5713 76.0765 80.2564 75.4742C79.9351 74.8756 79.6874 74.2387 79.4902 73.5981C79.2881 72.9567 79.1945 72.2895 79.1432 71.6365C79.3263 72.2703 79.5455 72.8821 79.8598 73.4471C80.1702 74.0115 80.5169 74.549 80.9257 75.0382C81.328 75.5305 81.7653 75.9903 82.2321 76.4129C82.4669 76.6229 82.7057 76.8269 82.9522 77.0179C82.958 77.0225 82.9644 77.0274 82.9702 77.032C83.0228 76.9516 83.0717 76.8691 83.1264 76.7899C84.3075 75.0603 85.8415 73.567 87.6231 72.5137C89.404 71.4781 91.3835 70.7709 93.4011 70.6865C91.4642 71.1993 89.6859 72.1177 88.159 73.3031C86.6251 74.4839 85.3691 75.9613 84.4127 77.601C83.9333 78.4219 83.5478 79.2942 83.2032 80.1794C83.0537 80.6325 82.8806 81.0749 82.7602 81.5381C82.6963 81.768 82.6238 81.9952 82.5666 82.227L82.4082 82.9268C81.9909 84.7949 81.812 86.7251 81.7882 88.6645L81.7876 88.7128L81.7802 88.7767C81.7607 88.9494 81.7414 89.191 81.7335 89.4065C81.7234 89.6282 81.7191 89.8529 81.7197 90.0779C81.7228 90.5283 81.7383 90.9811 81.7726 91.4336C81.8328 92.3398 81.9768 93.2406 82.1627 94.1316C82.5474 95.911 83.1717 97.6428 84.0529 99.2498C84.2657 99.6561 84.5084 100.045 84.7481 100.438C85.0092 100.816 85.2548 101.207 85.5397 101.571C86.0858 102.317 86.7043 103.012 87.3549 103.682C88.6654 105.016 90.1693 106.179 91.7717 107.235C89.9785 106.547 88.285 105.571 86.7395 104.37C85.9763 103.76 85.2419 103.099 84.5849 102.363C83.914 101.638 83.3087 100.848 82.773 100.011C81.6931 98.3411 80.8951 96.4812 80.408 94.5446C80.1589 93.5772 79.991 92.5894 79.8971 91.5923C79.8449 91.0942 79.825 90.5922 79.8179 90.0887C79.8152 89.8364 79.8179 89.5838 79.8274 89.3285C79.836 89.0888 79.8488 88.8687 79.876 88.6012C79.8993 86.5625 80.1194 84.5081 80.6291 82.5043L80.7349 82.1089C80.5358 82.0967 80.3368 82.0817 80.1353 82.0618C79.5214 81.9983 78.9087 81.8962 78.3094 81.7234C77.7138 81.5494 77.1185 81.3051 76.6238 80.9061C76.3795 80.7052 76.1673 80.4616 76.0239 80.1861C75.879 79.9109 75.8075 79.6101 75.7949 79.3156C75.9441 79.8963 76.3499 80.3378 76.8424 80.5723Z" fill="black"/>
<path d="M66.9985 138.334C61.2376 162.348 55.4767 186.361 49.7161 210.374C48.4849 215.506 47.3946 220.671 46.1538 225.803C45.5053 228.484 44.2099 231.831 46.5693 234.085C49.1165 236.519 55.724 235.556 58.8998 235.478C64.5412 235.339 70.163 234.74 75.8092 234.74C75.8092 234.74 57.1824 236.984 57.1824 221.007" fill="#70A5F2"/>
<path d="M35.8828 252.268C38.1875 250.393 40.14 248.075 42.4154 246.146C45.9444 243.153 50.2734 241.112 54.8279 240.295C55.2574 240.218 55.8279 239.852 55.5671 239.502C55.4714 239.373 55.2978 239.336 55.1397 239.31C49.5687 238.377 43.7124 239.229 38.6385 241.712C38.4104 241.823 38.1243 241.935 37.9197 241.784C37.7213 241.637 37.7353 241.341 37.7745 241.097C38.7724 234.862 43.0722 229.253 48.834 226.67C49.2712 226.474 49.7607 225.871 49.3397 225.642C49.2214 225.578 49.077 225.595 48.9437 225.614C42.0562 226.631 35.6991 230.805 32.0295 236.722C31.883 236.959 31.6614 237.233 31.3917 237.165C31.1388 237.101 31.0603 236.787 31.0266 236.529C30.5582 232.915 29.8752 229.299 28.5042 225.923C27.6814 223.897 26.6037 221.963 25.2321 220.256C24.5264 219.377 23.7281 218.443 22.8149 217.772C21.6763 216.935 21.3779 217.712 21.6148 218.941C22.8745 225.473 23.4747 232.134 23.4034 238.786C23.3982 239.267 23.2371 239.908 22.7565 239.902C22.4623 239.899 22.2498 239.63 22.0811 239.39C20.3637 236.938 18.3794 234.624 15.908 232.936C13.4367 231.247 10.43 230.219 7.45075 230.508C7.31775 230.52 7.17742 230.539 7.07193 230.621C6.7295 230.886 7.0597 231.42 7.38563 231.705C12.0828 235.819 16.9476 240.552 17.9024 246.722C17.9416 246.976 17.9593 247.274 17.7709 247.448C17.5013 247.697 17.0729 247.49 16.7653 247.289C12.886 244.756 7.78799 244.194 3.45005 245.821C3.25834 245.892 3.04126 246 3.00518 246.201C2.95474 246.482 3.2825 246.667 3.55309 246.758C7.88736 248.223 12.8276 249.401 15.336 253.226C16.1618 254.486 16.7654 256.065 18.1476 256.663C18.8117 256.95 19.5593 256.957 20.283 256.945C25.163 256.868 30.2149 256.116 34.2945 253.437C34.846 253.075 35.3728 252.683 35.8828 252.268Z" fill="#ACCE1C"/>
<path d="M80.5471 10.6641C80.5471 10.6641 74.2539 6.73066 79.8319 3.01216C79.8319 3.01216 85.2669 0.00849266 87.0549 5.65809C87.0549 5.65809 89.844 3.51267 93.7058 4.94295C93.7058 4.94295 94.3494 -2.78053 101.787 1.08136C101.787 1.08136 108.223 4.39413 101.787 9.38852C101.787 9.38852 106.006 14.526 101.859 19.103C101.859 19.103 116.734 19.8182 116.734 23.537C116.734 23.537 118.807 27.3989 112.157 27.6848L107.294 28.2568L109.511 34.6216H114.23C114.23 34.6216 117.592 27.327 118.808 35.4798C118.808 35.4798 122.169 47.1367 112.872 46.5644L105.913 46.5849L101.215 47.7803C101.215 47.7803 104.719 52.1427 87.6276 51.2845C87.6276 51.2845 76.4354 52.3228 77.526 35.0334C77.526 35.0334 77.7941 24.9315 81.656 20.4976C81.656 20.4976 77.5792 16.0633 80.5471 10.6641Z" fill="#709535"/>
<path d="M82.477 7.80352C83.3854 7.80352 84.1219 7.06706 84.1219 6.15859C84.1219 5.25013 83.3854 4.51367 82.477 4.51367C81.5685 4.51367 80.832 5.25013 80.832 6.15859C80.832 7.06706 81.5685 7.80352 82.477 7.80352Z" fill="#42210B"/>
<path d="M98.7113 6.15899C99.6198 6.15899 100.356 5.42253 100.356 4.51406C100.356 3.6056 99.6198 2.86914 98.7113 2.86914C97.8029 2.86914 97.0664 3.6056 97.0664 4.51406C97.0664 5.42253 97.8029 6.15899 98.7113 6.15899Z" fill="#42210B"/>
<path d="M97.0027 10.2047C96.6804 9.80692 96.4144 9.32355 96.2897 8.78941C96.2579 8.65274 96.2426 8.51514 96.2264 8.37572C96.2212 8.33078 96.22 8.29104 96.22 8.27116C96.22 8.27667 96.2197 8.28371 96.2194 8.29318C96.2377 7.73061 95.5131 7.57254 95.4948 8.13878C95.4837 8.47663 95.5308 8.80745 95.6186 9.12542C92.1159 10.386 88.4812 11.2987 84.8364 11.8823C84.3744 11.9563 84.4722 12.8357 84.9364 12.7614C88.6561 12.1658 92.3669 11.2287 95.9402 9.93932C96.1172 10.2836 96.3328 10.6022 96.5615 10.8844C96.8975 11.2987 97.335 10.6147 97.0027 10.2047Z" fill="#42210B"/>
<path d="M105.202 27.3345C105.085 27.3165 104.969 27.2899 104.854 27.2535C103.822 26.9288 102.875 26.006 101.806 25.6284C97.777 24.2036 94.4474 26.1378 92.6545 29.8829C91.1951 32.9312 91.5376 37.6853 93.4228 40.4104C97.0037 45.5861 106.364 46.5397 111.766 44.1054C115.088 42.6081 115.98 40.0866 116.637 36.7109C117.673 31.389 116.294 25.4465 109.721 26.2968C108.193 26.4973 106.638 27.5565 105.202 27.3345Z" fill="#E13636"/>
<path d="M106.012 27.4127C106.012 27.4127 106.875 21.3124 115.68 22.1844C115.68 22.1844 112.016 30.8994 106.012 27.4127Z" fill="#AEB91D"/>
<path d="M106.011 27.4125C105.966 26.9404 106.045 26.524 106.158 26.1341C106.274 25.7437 106.448 25.3915 106.65 25.0585C107.065 24.4024 107.637 23.867 108.306 23.4692C108.969 23.0669 109.762 22.8357 110.571 22.8149C110.776 22.8183 110.98 22.8275 111.182 22.8504C111.386 22.8773 111.593 22.9357 111.791 22.9929C111.891 23.0271 111.989 23.0574 112.086 23.0962C112.185 23.1424 112.281 23.1898 112.377 23.2464C112.567 23.3518 112.75 23.4815 112.921 23.6356C112.26 24.3146 111.761 24.7035 111.281 25.1148C110.807 25.511 110.344 25.8076 109.85 26.1075C109.355 26.3977 108.825 26.6548 108.213 26.8783C107.59 27.0978 106.928 27.2978 106.011 27.4125Z" fill="#929606"/>
<path d="M105.273 27.3029C105.273 27.3029 105.945 21.1788 97.1973 19.8457C97.1973 19.8457 98.5921 29.1964 105.273 27.3029Z" fill="#AEB91D"/>
<path d="M105.273 27.303C104.412 26.9651 103.821 26.6077 103.271 26.2411C102.733 25.873 102.284 25.493 101.876 25.0894C101.471 24.6766 101.096 24.2749 100.734 23.7734C100.371 23.2564 99.9841 22.7562 99.5117 21.9347C99.7153 21.8277 99.9248 21.7476 100.135 21.6919C100.241 21.6607 100.347 21.6387 100.453 21.6182C100.557 21.6048 100.659 21.5996 100.765 21.5913C100.972 21.5849 101.187 21.5797 101.391 21.6038C101.592 21.6317 101.792 21.6733 101.992 21.7206C102.77 21.9411 103.482 22.3609 104.025 22.9149C104.574 23.4659 104.997 24.126 105.236 24.8643C105.35 25.237 105.431 25.6211 105.447 26.0283C105.46 26.4334 105.433 26.8566 105.273 27.303Z" fill="#929606"/>
<path d="M105.52 29.4429C106.044 28.0676 106.306 26.5355 106.352 25.071C106.391 23.8205 106.247 22.5461 105.789 21.3748C105.455 20.5206 104.861 19.5354 104.131 18.9667C103.183 18.2278 101.936 19.2052 102.568 20.3231C102.903 20.9153 103.568 21.2207 103.978 21.7466C104.795 22.7932 105.055 24.2311 105.136 25.5235C105.174 26.1182 105.166 26.7156 105.127 27.31C105.095 27.8001 104.691 29.0274 104.862 29.4435C104.862 29.4435 105.236 30.3543 105.52 29.4429Z" fill="#603813"/>
<path d="M108.195 28.646C108.068 28.6536 107.945 28.6946 107.825 28.731C107.705 28.768 107.587 28.8096 107.469 28.8481C107.235 28.9276 107.003 29.0037 106.773 29.0701C106.312 29.2043 105.854 29.2997 105.398 29.3287C104.941 29.3541 104.486 29.3211 104.033 29.1997C103.578 29.0887 103.134 28.8799 102.666 28.646C102.707 28.7078 102.751 28.7652 102.794 28.8255L102.861 28.9132C102.884 28.9417 102.908 28.9673 102.932 28.9946C102.979 29.0487 103.028 29.1006 103.077 29.1538C103.127 29.2034 103.179 29.2499 103.231 29.2985L103.31 29.3688L103.391 29.433C103.446 29.4749 103.501 29.5183 103.558 29.5568C103.672 29.6314 103.787 29.7057 103.908 29.7635C104.387 30.0103 104.912 30.1062 105.426 30.0751C105.941 30.0417 106.443 29.8794 106.908 29.6281C107.141 29.5012 107.365 29.3535 107.578 29.185C107.685 29.1006 107.789 29.0126 107.89 28.9203C107.992 28.8304 108.088 28.7301 108.195 28.646Z" fill="#603813"/>
<path d="M85.1621 27.2404C88.9745 26.7041 98.4783 26.1174 99.4286 31.4126C100.237 35.9156 92.1298 37.4517 89.2802 37.9871C87.9166 38.2433 86.541 38.4359 85.1621 38.59" fill="#709535"/>
<path d="M85.1621 27.2402C85.8393 27.0268 86.5297 26.8608 87.2262 26.7189C87.9227 26.5737 88.6271 26.4682 89.3374 26.3863C90.7579 26.2294 92.2032 26.1897 93.6671 26.3395C94.3984 26.4184 95.1356 26.5428 95.8694 26.7559C96.6038 26.9635 97.3361 27.2634 98.031 27.701C98.7235 28.1357 99.3681 28.7433 99.8313 29.4985C99.9447 29.6871 100.039 29.8889 100.135 30.0873C100.209 30.2934 100.296 30.4989 100.353 30.7086C100.462 31.1232 100.557 31.5656 100.549 32.0352C100.564 32.9736 100.187 33.9153 99.6591 34.613C99.1149 35.3034 98.4692 35.8265 97.802 36.2283C97.1318 36.63 96.4454 36.9483 95.7486 37.2036C95.0543 37.4647 94.3517 37.6671 93.6478 37.8359C92.2402 38.1725 90.8206 38.3719 89.4141 38.4969C87.997 38.6229 86.5792 38.6654 85.1621 38.5899C86.5279 38.2034 87.8848 37.8561 89.2197 37.4632C90.5659 37.0773 91.8889 36.6912 93.1647 36.2237C94.4342 35.758 95.674 35.222 96.7025 34.5216C97.2156 34.1743 97.6546 33.7771 97.9613 33.3539C98.2585 32.9286 98.4212 32.5 98.4092 32.03C98.4218 31.7977 98.3683 31.5479 98.3068 31.2856C98.2744 31.1578 98.2209 31.04 98.183 30.915C98.1252 30.7997 98.0723 30.6823 98.0121 30.568C97.7598 30.1164 97.3761 29.7247 96.9062 29.3847C95.9568 28.7047 94.6941 28.2852 93.4005 27.9951C92.098 27.7049 90.7347 27.5426 89.3567 27.4325C87.9759 27.32 86.5796 27.2778 85.1621 27.2402Z" fill="#526D1D"/>
<path d="M101.216 47.7802C101.216 47.7802 100.227 34.6279 93.4248 40.4108C93.4209 40.4142 91.6561 41.5861 91.7518 45.7559" fill="#709535"/>
<path d="M101.215 47.78C100.617 46.1645 100.086 44.592 99.4336 43.1403C99.104 42.4218 98.7435 41.7357 98.3271 41.1652C98.1091 40.8989 97.9012 40.6249 97.6633 40.454C97.4343 40.2684 97.2096 40.1266 96.9754 40.077C96.8644 40.0241 96.7387 40.0367 96.6195 40.007C96.488 40.0263 96.3663 39.9963 96.2226 40.0397L96.0104 40.0719C95.9374 40.0923 95.8624 40.1205 95.7875 40.1431C95.7126 40.17 95.6374 40.1825 95.561 40.2192C95.4848 40.2565 95.4072 40.2908 95.3289 40.3244C95.1715 40.3825 95.0155 40.4745 94.8587 40.5662C94.7798 40.6106 94.7021 40.6571 94.6208 40.6992L94.3854 40.8552L93.9084 41.1729C93.8103 41.2358 93.687 41.3416 93.5776 41.4609C93.3507 41.6981 93.1434 41.9965 92.96 42.3203C92.7723 42.6426 92.6123 42.9975 92.468 43.3675C92.176 44.1102 91.9694 44.9158 91.7508 45.756C91.5052 44.9253 91.3976 44.0524 91.438 43.155C91.4468 42.9306 91.4808 42.7065 91.5055 42.479C91.5487 42.2537 91.5853 42.0259 91.6529 41.7999C91.7755 41.3471 91.9519 40.8937 92.2247 40.4598C92.3622 40.2421 92.5169 40.0324 92.7304 39.8172C92.8915 39.6643 93.0676 39.5108 93.2373 39.3579L93.4969 39.1289L93.7846 38.9195C93.976 38.7798 94.1686 38.6407 94.3921 38.5239C94.5 38.4624 94.6086 38.4015 94.7186 38.3438C94.8281 38.2851 94.9568 38.2435 95.0761 38.1939C95.1984 38.1472 95.3182 38.0976 95.4439 38.0558L95.8456 37.9604C96.107 37.887 96.4103 37.898 96.6944 37.8809C96.8408 37.8903 96.9891 37.9096 97.1362 37.9273C97.2848 37.9399 97.4282 37.9766 97.5703 38.0227C98.1494 38.182 98.6484 38.5055 99.048 38.8626C99.458 39.2252 99.7494 39.6343 100.014 40.0468C100.509 40.8805 100.812 41.7437 101.022 42.6056C101.417 44.3309 101.497 46.0688 101.215 47.78Z" fill="#526D1D"/>
<path d="M82.1204 6.12269C82.1204 6.33977 81.9443 6.51588 81.7272 6.51588C81.5101 6.51588 81.334 6.33977 81.334 6.12269C81.334 5.9053 81.5101 5.72949 81.7272 5.72949C81.9443 5.72949 82.1204 5.90561 82.1204 6.12269Z" fill="white"/>
<path d="M98.8547 4.12073C98.8547 4.33812 98.6786 4.51393 98.4616 4.51393C98.2445 4.51393 98.0684 4.33781 98.0684 4.12073C98.0684 3.90365 98.2445 3.72754 98.4616 3.72754C98.6786 3.72754 98.8547 3.90365 98.8547 4.12073Z" fill="white"/>
<path d="M141.395 240.932C141.676 240.944 143.005 242.586 143.338 242.808C145.295 244.119 146.817 243.538 148.89 243.638C150.361 255.337 133.428 254.543 126.064 254.774C122.724 254.879 108.102 255.24 108.89 248.811C108.892 248.796 110.012 239.758 141.395 240.932Z" fill="#FEDCC0"/>
<path d="M143.08 235.687C143.12 236.842 142.686 238.164 142.365 239.236C141.574 241.88 140.244 244.398 138.313 246.388C135.296 249.498 130.592 250.687 126.424 251.259C122.348 251.818 118.13 251.594 114.152 250.531C112.327 250.043 110.482 249.491 108.822 248.571C107.292 247.724 105.861 246.487 105.403 244.736C104.758 242.279 104.822 239.19 106.073 236.931C106.2 236.702 106.512 236.663 106.689 236.855C107.325 237.546 108.859 238.908 111.078 238.894C111.313 238.892 111.495 238.683 111.455 238.451C111.348 237.832 111.085 236.7 110.538 236.219C110.338 236.042 110.343 235.731 110.573 235.595C111.692 234.932 114.428 233.904 118.329 236.374C118.576 236.53 118.902 236.36 118.909 236.066C118.929 235.301 118.837 234.047 118.137 233.266C117.912 233.014 118.095 232.615 118.432 232.633C119.603 232.694 121.209 232.907 122.13 233.58C122.37 233.755 122.714 233.626 122.742 233.331C122.803 232.699 122.706 231.781 121.836 231.146C121.582 230.961 121.651 230.564 121.954 230.478C123.847 229.94 128.408 229.115 130.669 232.773C130.844 233.055 131.273 232.991 131.355 232.669C131.514 232.053 131.657 231.243 131.509 230.685C131.441 230.431 131.626 230.186 131.888 230.198C132.878 230.244 134.73 230.667 135.382 233.091C135.459 233.378 135.811 233.476 136.02 233.265C136.501 232.781 137.148 231.973 137.097 231.157C137.077 230.831 137.432 230.63 137.699 230.819C138.44 231.346 139.343 232.456 139.139 234.694C139.12 234.908 139.29 235.09 139.505 235.098C140.163 235.122 141.448 235.029 142.066 234.025C142.556 233.23 143.011 235.018 143.053 235.35C143.067 235.461 143.076 235.573 143.08 235.687Z" fill="#543C23"/>
<path d="M150.757 243.935C150.726 244.771 149.854 245.417 148.809 245.378C147.764 245.339 146.942 244.63 146.974 243.794C147.005 242.958 147.877 242.312 148.922 242.351C149.967 242.39 150.789 243.099 150.757 243.935Z" fill="#5B462B"/>
<path d="M143.51 245.18C143.495 245.598 143.143 245.924 142.725 245.909C142.307 245.893 141.981 245.542 141.997 245.124C142.012 244.706 142.364 244.379 142.782 244.395C143.2 244.411 143.526 244.762 143.51 245.18Z" fill="#5B462B"/>
<path d="M138.245 254.267C138.202 255.417 137.744 256.333 137.221 256.313C136.699 256.293 136.31 255.346 136.353 254.196C136.396 253.047 136.854 252.131 137.377 252.15C137.899 252.17 138.288 253.118 138.245 254.267Z" fill="#FEDCC0"/>
<path d="M135.218 254.154C135.175 255.303 134.716 256.219 134.194 256.2C133.671 256.18 133.283 255.232 133.325 254.083C133.369 252.934 133.827 252.018 134.349 252.037C134.872 252.057 135.261 253.004 135.218 254.154Z" fill="#FEDCC0"/>
<path d="M123.458 254.472C123.415 255.622 122.957 256.537 122.434 256.518C121.912 256.498 121.523 255.551 121.566 254.401C121.609 253.251 122.067 252.336 122.59 252.355C123.112 252.375 123.501 253.323 123.458 254.472Z" fill="#FEDCC0"/>
<path d="M120.43 254.359C120.387 255.508 119.929 256.424 119.406 256.405C118.884 256.385 118.495 255.438 118.538 254.288C118.582 253.139 119.04 252.223 119.562 252.242C120.085 252.262 120.473 253.209 120.43 254.359Z" fill="#FEDCC0"/>
<path d="M138.931 239.435C138.963 240.238 138.646 241.155 138.412 241.899C137.836 243.735 136.863 245.481 135.449 246.86C133.24 249.015 129.789 249.834 126.731 250.226C123.74 250.608 120.644 250.446 117.723 249.702C116.383 249.36 115.027 248.974 113.807 248.333C112.683 247.742 111.632 246.881 111.292 245.664C110.816 243.957 110.858 241.812 111.773 240.244C111.866 240.086 112.095 240.059 112.225 240.193C112.692 240.674 113.821 241.622 115.449 241.615C115.622 241.614 115.755 241.469 115.726 241.308C115.646 240.878 115.451 240.092 115.049 239.756C114.902 239.633 114.906 239.417 115.074 239.323C115.894 238.864 117.901 238.155 120.767 239.875C120.949 239.985 121.188 239.867 121.193 239.663C121.206 239.131 121.137 238.26 120.622 237.716C120.456 237.542 120.59 237.265 120.837 237.277C121.697 237.322 122.876 237.472 123.553 237.941C123.729 238.063 123.981 237.974 124.002 237.769C124.045 237.33 123.973 236.693 123.334 236.25C123.146 236.121 123.197 235.846 123.419 235.786C124.808 235.415 128.154 234.849 129.819 237.393C129.947 237.589 130.262 237.545 130.322 237.322C130.438 236.894 130.541 236.332 130.432 235.944C130.382 235.768 130.517 235.598 130.709 235.606C131.436 235.64 132.796 235.936 133.278 237.621C133.336 237.82 133.593 237.889 133.746 237.743C134.099 237.408 134.572 236.847 134.534 236.28C134.519 236.054 134.779 235.915 134.975 236.047C135.519 236.414 136.184 237.186 136.038 238.74C136.024 238.888 136.149 239.015 136.306 239.021C136.79 239.039 137.732 238.976 138.184 238.28C138.543 237.728 138.88 238.971 138.911 239.201C138.922 239.278 138.928 239.356 138.931 239.435Z" fill="#5B462B"/>
</svg>
