<svg width="147" height="85" viewBox="0 0 147 85" fill="none" xmlns="http://www.w3.org/2000/svg">
<path d="M35.5775 17.155C33.9682 18.4564 17.0642 18.134 16.2817 1.86914C17.1916 1.55178 18.1648 1.3487 19.0419 1.22204C20.6258 0.992027 21.896 1.00003 21.896 1.00003C21.896 1.00003 23.1705 14.5724 33.3604 16.0871C35.4159 16.3928 35.9852 16.8245 35.5775 17.155Z" fill="#733C4D" stroke="#272727"/>
<path opacity="0.2" d="M35.555 16.9248L35.5775 17.1548C33.9682 18.4563 17.0642 18.1339 16.2817 1.86902C17.1916 1.55166 18.1648 1.34858 19.0419 1.22192C19.3309 5.66063 21.4272 17.3295 35.555 16.9248Z" fill="#2D2B39" stroke="#272727"/>
<path d="M20.9072 10.7573C20.9072 10.7573 16.6701 21.5928 2.02197 13.5582C13.2745 0.515808 20.9072 10.7573 20.9072 10.7573Z" fill="#009D98" stroke="#272727"/>
<path opacity="0.2" d="M20.9072 10.7573C20.9072 10.7573 16.6701 21.5928 2.02197 13.5583C8.11009 10.9211 20.9072 10.7573 20.9072 10.7573Z" fill="#2D2B39" stroke="#272727"/>
<path opacity="0.2" d="M14.4105 9.56091C14.4855 10.0043 14.187 10.4243 13.7444 10.4986C13.301 10.5736 12.8817 10.2751 12.806 9.83245C12.731 9.3891 13.0295 8.96905 13.4721 8.8948C13.9154 8.81908 14.3348 9.11756 14.4105 9.56091Z" fill="#2D2B39" stroke="#272727"/>
<path opacity="0.2" d="M9.62287 13.8532C9.69786 14.2965 9.39938 14.7166 8.95676 14.7916C8.51341 14.8666 8.09335 14.5681 8.01837 14.1255C7.94339 13.6821 8.24187 13.2628 8.68449 13.1871C9.12784 13.1121 9.54789 13.4106 9.62287 13.8532Z" fill="#2D2B39" stroke="#272727"/>
<path opacity="0.2" d="M12.5716 8.22175C12.6291 8.56318 12.3991 8.88714 12.0577 8.94537C11.7162 9.00361 11.3923 8.77357 11.334 8.43141C11.2765 8.08998 11.5058 7.76603 11.848 7.70779C12.1902 7.65027 12.5141 7.88032 12.5716 8.22175Z" fill="#2D2B39" stroke="#272727"/>
<path opacity="0.2" d="M17.2721 13.0446C17.6186 13.0446 17.8996 12.7637 17.8996 12.4171C17.8996 12.0705 17.6186 11.7896 17.2721 11.7896C16.9255 11.7896 16.6445 12.0705 16.6445 12.4171C16.6445 12.7637 16.9255 13.0446 17.2721 13.0446Z" fill="#2D2B39" stroke="#272727"/>
<path opacity="0.2" d="M16.6629 13.8664C16.6971 14.0702 16.5602 14.2638 16.3564 14.2981C16.1525 14.3323 15.9589 14.1954 15.9247 13.9916C15.8905 13.7877 16.0273 13.5941 16.2312 13.5599C16.435 13.5249 16.6279 13.6625 16.6629 13.8664Z" fill="#2D2B39" stroke="#272727"/>
<path d="M84.2783 76.0533C83.7593 74.0371 82.5641 70.8925 80.922 67.0449C73.2347 48.961 55.8015 15.4778 52.9089 12.3952C49.407 8.65745 41.4991 8.67128 35.2043 11.8347C30.465 14.2222 25.5043 48.3758 23.8724 70.0394C23.341 77.1444 23.1685 82.905 23.4684 85.7642C24.2167 92.7214 28.1794 104.099 35.7022 102.825C43.3189 101.536 47.2619 96.7489 46.6017 91.3137C46.4728 90.2291 46.2123 88.8934 45.9211 87.5351C45.1757 84.1846 44.1749 80.7337 44.1749 80.7337L62.4057 77.6256C62.4057 77.6256 62.1088 82.929 62.3934 86.9514C62.429 87.4442 62.4749 87.9144 62.5288 88.3562C62.6139 89.0594 62.7959 89.7727 63.0856 90.4751C64.4504 93.8162 68.2129 96.7518 75.4336 95.5835C80.4911 94.7544 83.3167 90.949 84.4224 86.3836C85.2304 83.0506 85.1248 79.3179 84.2783 76.0533ZM42.8647 68.08C42.8647 68.08 43.3822 45.8879 46.8353 45.3026C50.2819 44.7189 58.6425 65.4079 58.6425 65.4079L42.8647 68.08Z" fill="#ED4A4C" stroke="#272727"/>
<path d="M40.9312 34.2289C41.17 35.6398 40.22 36.9778 38.8091 37.2166C37.3983 37.4554 36.0602 36.5053 35.8214 35.0945C35.5826 33.6836 36.5327 32.3456 37.9435 32.1068C39.3544 31.868 40.6924 32.8181 40.9312 34.2289Z" fill="#2A243A" stroke="#272727"/>
<path d="M55.1397 31.8224C55.3785 33.2333 54.4284 34.5713 53.0176 34.8101C51.6067 35.0489 50.2687 34.0989 50.0299 32.688C49.7911 31.2771 50.7412 29.9391 52.152 29.7003C53.5636 29.4615 54.9009 30.4116 55.1397 31.8224Z" fill="#2A243A" stroke="#272727"/>
<path d="M36.5235 39.8707C36.3932 40.6882 35.2939 41.1927 34.068 40.9969C32.8421 40.8018 31.9532 39.9806 32.0835 39.163C32.2138 38.3455 33.3131 37.841 34.539 38.0368C35.765 38.2327 36.6538 39.0531 36.5235 39.8707Z" fill="white" stroke="#272727"/>
<path d="M55.9973 36.5728C56.3897 37.3015 57.5938 37.4158 58.6873 36.8276C59.7807 36.2394 60.3493 35.1714 59.9576 34.4427C59.5652 33.714 58.3611 33.5997 57.2677 34.1879C56.1742 34.7761 55.6057 35.8433 55.9973 36.5728Z" fill="white" stroke="#272727"/>
<path d="M42.7515 36.5484C42.7515 36.5484 43.9672 38.4034 45.8993 38.0758C47.8314 37.7489 48.3541 35.5991 48.3541 35.5991" stroke="#272727" stroke-miterlimit="10" stroke-linecap="round" stroke-linejoin="round"/>
<path d="M38.5543 33.765C38.6475 34.3139 38.2776 34.8344 37.7287 34.9276C37.1798 35.0208 36.6593 34.6509 36.5661 34.102C36.4729 33.5531 36.8428 33.0326 37.3917 32.9394C37.9413 32.8462 38.4618 33.2161 38.5543 33.765Z" fill="white" stroke="#272727"/>
<path d="M52.71 31.368C52.8032 31.9169 52.4334 32.4374 51.8845 32.5306C51.3356 32.6238 50.8151 32.254 50.7219 31.7051C50.6287 31.1561 50.9985 30.6356 51.5474 30.5424C52.0963 30.4493 52.6169 30.8191 52.71 31.368Z" fill="white" stroke="#272727"/>
<path opacity="0.1" d="M45.9185 87.5382C46.2133 88.8935 46.4717 90.227 46.602 91.3159C47.2608 96.7482 43.317 101.533 35.704 102.823C28.1812 104.096 24.2178 92.7215 23.4702 85.7635C23.1659 82.9073 23.3392 77.1438 23.8735 70.0388C24.8132 80.1231 27.098 92.3263 32.6912 93.6772C38.9882 95.2029 43.5201 90.8028 45.9185 87.5382Z" fill="#2D2B39" stroke="#272727"/>
<path d="M44.5537 13.905C42.8897 17.6442 50.4278 20.2319 52.0918 16.4927C53.7558 12.7535 46.2177 10.1658 44.5537 13.905Z" fill="white" stroke="#272727"/>
<path d="M51.8703 18.8619C50.3634 20.0733 52.9711 22.7894 54.478 21.578C55.9849 20.3666 53.3773 17.6505 51.8703 18.8619Z" fill="white" stroke="#272727"/>
<path opacity="0.1" d="M30.163 82.29C31.3358 82.2958 32.4882 81.5183 32.8689 80.4089C33.0123 79.9917 33.0509 79.5404 32.9963 79.1028C32.7473 77.1059 30.5932 75.8392 28.696 76.4165C26.9474 76.9494 26.6606 79.2149 27.4592 80.6491C27.9943 81.6108 29.0535 82.2849 30.163 82.29Z" fill="#2D2B39" stroke="#272727"/>
<path opacity="0.1" d="M26.2673 74.0448C26.5628 74.4256 27.0411 74.617 27.5114 74.7204C27.8339 74.7917 28.1841 74.8267 28.4826 74.6855C28.8073 74.5326 29.0118 74.1919 29.0868 73.841C29.1618 73.4901 29.1239 73.1261 29.0773 72.7701C29.0162 72.3086 28.9019 71.7902 28.5022 71.5507C26.8009 70.533 25.0552 72.484 26.2673 74.0448Z" fill="#2D2B39" stroke="#272727"/>
<path opacity="0.1" d="M38.7187 85.8673C38.6699 86.0412 38.6393 86.2145 38.6298 86.3819C38.592 87.0583 38.6022 87.8481 39.1365 88.2645C39.4838 88.5354 39.9562 88.5623 40.3967 88.5776C41.3234 88.6103 42.0369 88.2107 42.735 87.6246C43.1783 87.2526 43.6181 86.8508 43.8743 86.3324C44.1306 85.8134 44.167 85.148 43.8219 84.6835C43.6748 84.4855 43.4717 84.3377 43.265 84.2045C42.6855 83.8311 42.0274 83.5413 41.3387 83.5348C40.1695 83.5224 39.0419 84.7192 38.7187 85.8673Z" fill="#2D2B39" stroke="#272727"/>
<path opacity="0.1" d="M64.9218 48.436C65.0172 49.0104 65.1788 49.6103 65.6018 50.0107C66.2016 50.58 67.1262 50.5793 67.9525 50.5436C68.3274 50.5276 68.7212 50.5057 69.0401 50.307C69.4448 50.0544 69.6407 49.5666 69.7222 49.0963C69.8795 48.1812 69.688 47.2108 69.1959 46.4246C68.8202 45.8247 68.2436 45.318 67.5506 45.1739C65.5755 44.764 64.6525 46.8126 64.9218 48.436Z" fill="#2D2B39" stroke="#272727"/>
<path opacity="0.1" d="M60.6106 46.0971C60.6507 46.59 60.9492 47.0435 61.3568 47.3231C61.8359 47.6514 62.4736 47.7475 63.0188 47.5466C63.5641 47.3464 63.9944 46.8448 64.0817 46.2704C64.1152 46.0491 64.1006 45.8227 64.0657 45.6021C64.0337 45.399 63.9842 45.1966 63.8961 45.0102C63.6515 44.4933 63.1047 44.1403 62.534 44.1046C61.4915 44.0391 60.5262 45.0444 60.6106 46.0971Z" fill="#2D2B39" stroke="#272727"/>
<path d="M90.9853 31.3908L86.4785 40.8639C86.4785 40.8639 81.3551 51.6281 77.156 53.1942C76.7594 53.34 76.3724 53.4034 75.9966 53.372C71.6562 52.986 72.8973 48.7014 71.3234 46.2436C69.7432 43.7855 66.1187 48.2636 64.4448 42.6364C62.7704 37.0155 69.5131 25.3957 78.0493 21.9184C83.5173 19.6856 87.2957 24.2183 89.2955 27.7489C90.4171 29.7277 90.9853 31.3908 90.9853 31.3908Z" fill="#4F98F0" stroke="#272727"/>
<g opacity="0.1">
<path d="M89.5711 31.4876C89.5711 31.4876 85.3992 22.3799 80.0445 23.9044C74.0588 25.6075 68.9205 36.0276 70.0499 39.8263C71.1793 43.625 73.629 40.6013 74.6939 42.2624C75.7588 43.9235 74.9188 46.8153 77.8534 47.0762C80.788 47.337 84.9334 38.6278 84.9334 38.6278" fill="#2D2B39"/>
<path d="M89.5711 31.4876C89.5711 31.4876 85.3992 22.3799 80.0445 23.9044C74.0588 25.6075 68.9205 36.0276 70.0499 39.8263C71.1793 43.625 73.629 40.6013 74.6939 42.2624C75.7588 43.9235 74.9188 46.8153 77.8534 47.0762C80.788 47.337 84.9334 38.6278 84.9334 38.6278" stroke="#272727"/>
</g>
<path opacity="0.2" d="M89.2951 27.7487C90.4174 29.7277 90.9857 31.3907 90.9857 31.3907L86.4788 40.8639C86.4788 40.8639 81.3554 51.628 77.1563 53.1941C77.1096 46.7568 77.5859 31.5756 82.9158 29.1011C84.3861 28.414 86.612 27.9768 89.2951 27.7487Z" fill="#2D2B39" stroke="#272727"/>
<path opacity="0.2" d="M77.7877 26.7163C76.6349 27.2963 76.7728 29.8082 78.4639 29.4432C80.1555 29.079 79.6538 25.7778 77.7877 26.7163Z" fill="#2D2B39" stroke="#272727"/>
<path opacity="0.2" d="M74.6321 31.1336C74.9923 32.9788 77.0778 31.5527 76.8051 30.4023C76.5324 29.2519 74.3965 29.9281 74.6321 31.1336Z" fill="#2D2B39" stroke="#272727"/>
<path d="M119.098 32.442C119.202 35.3611 122.664 38.1715 119.315 40.9641C115.961 43.7563 103.572 36.659 103.572 36.659L94.4726 31.4436C94.4726 31.4436 93.9943 29.7789 93.7905 27.5417C93.4149 23.4963 93.9127 17.5675 99.7058 16.2796C108.704 14.279 120.865 19.9859 122.692 25.5611C123.826 29.0142 122.136 29.708 120.706 30.4325C119.83 30.8763 119.056 31.3311 119.098 32.442Z" fill="#4F98F0" stroke="#272727"/>
<g opacity="0.1">
<path d="M95.69 30.7138C95.69 30.7138 93.9298 20.852 99.199 19.0537C105.089 17.0435 115.248 22.6789 116.484 26.4446C117.72 30.2103 113.984 29.1208 114.056 31.0928C114.127 33.0647 116.464 34.9627 114.202 36.8487C111.939 38.7354 103.57 33.9394 103.57 33.9394" fill="#2D2B39"/>
<path d="M95.69 30.7138C95.69 30.7138 93.9298 20.852 99.199 19.0537C105.089 17.0435 115.248 22.6789 116.484 26.4446C117.72 30.2103 113.984 29.1208 114.056 31.0928C114.127 33.0647 116.464 34.9627 114.202 36.8487C111.939 38.7354 103.57 33.9394 103.57 33.9394" stroke="#272727"/>
</g>
<path opacity="0.2" d="M119.315 40.9647C115.961 43.7569 103.572 36.6596 103.572 36.6596L94.4725 31.4442C94.4725 31.4442 93.9942 29.7795 93.7904 27.5423C102.448 27.4373 113.554 28.7482 120.706 30.4331C119.83 30.8762 119.055 31.331 119.097 32.4418C119.202 35.3617 122.663 38.1713 119.315 40.9647Z" fill="#2D2B39" stroke="#272727"/>
<path opacity="0.2" d="M102.656 20.0791C103.934 19.899 105.252 22.042 103.654 22.706C102.056 23.3693 100.587 20.3704 102.656 20.0791Z" fill="#2D2B39" stroke="#272727"/>
<path opacity="0.2" d="M107.766 21.9115C108.521 23.633 105.994 23.6491 105.563 22.5485C105.132 21.448 107.272 20.7866 107.766 21.9115Z" fill="#2D2B39" stroke="#272727"/>
<path d="M122.972 112.33C119.729 114.351 82.2674 113.553 78.5845 107.727C77.4791 105.981 77.2734 98.6114 77.6208 89.0689C78.4257 66.7232 81.1474 32.3974 83.5025 30.5473C88.5747 26.5565 122.58 32.3144 124.216 34.2392C125.853 36.1633 124.246 48.2964 122.126 49.2605C120.406 50.0403 109.307 47.5208 104.362 46.9732C104.274 46.9562 104.185 46.9462 104.095 46.9415C103.066 46.8387 102.34 46.8296 102.084 46.9793C101.815 47.1336 101.477 47.7048 101.12 48.5501C100.304 50.4409 99.379 53.6822 98.8234 56.5234C98.2941 59.2521 98.1153 61.6236 98.7184 62.0744C99.7768 62.856 106.661 63.1707 111.47 64.166C113.535 64.5915 115.213 65.1439 115.893 65.9127C116.075 66.1207 116.237 66.3779 116.369 66.6705C116.808 67.6293 116.981 68.9946 116.965 70.4849C116.95 72.3483 116.643 74.3957 116.174 76.0641C115.707 77.7262 115.091 79.0166 114.462 79.3794C113.586 79.8799 110.343 79.3473 106.961 78.7465C102.884 78.0313 98.5944 77.2134 97.9599 78.007C97.8244 78.1709 97.7167 78.4863 97.6273 78.9128C96.9264 82.219 97.3877 92.3146 97.5221 93.1922C97.6742 94.1879 123.795 95.8137 125.331 97.72C126.009 98.5661 126.262 101.149 126.047 103.934C125.775 107.414 124.778 111.207 122.972 112.33Z" fill="#4F98F0" stroke="#272727"/>
<path opacity="0.2" d="M104.362 46.9731C104.273 46.9561 104.185 46.9461 104.095 46.9414L104.611 46.6617C104.519 46.7345 104.436 46.8341 104.362 46.9731Z" fill="#2D2B39" stroke="#272727"/>
<path d="M88.0631 40.2589C88.0979 38.9434 89.1929 37.9051 90.5083 37.94C91.8238 37.9748 92.8621 39.0698 92.8272 40.3853" stroke="#272727" stroke-miterlimit="10" stroke-linecap="round" stroke-linejoin="round"/>
<path d="M101.31 40.6119C101.344 39.2964 102.439 38.2582 103.755 38.293C105.07 38.3278 106.109 39.4228 106.074 40.7383" stroke="#272727" stroke-miterlimit="10" stroke-linecap="round" stroke-linejoin="round"/>
<path d="M87.8474 44.6932C87.5844 45.4074 86.503 45.6671 85.4318 45.2737C84.3601 44.8795 83.7042 43.9811 83.9672 43.2669C84.2302 42.5526 85.3116 42.293 86.3835 42.6865C87.4546 43.0799 88.1104 43.979 87.8474 44.6932Z" fill="white" stroke="#272727"/>
<path d="M106.004 45.177C106.228 45.9044 107.295 46.2213 108.386 45.8848C109.476 45.5483 110.179 44.6861 109.955 43.9587C109.731 43.2313 108.665 42.9144 107.574 43.2509C106.483 43.5874 105.78 44.4496 106.004 45.177Z" fill="white" stroke="#272727"/>
<path d="M99.2804 42.9408C99.2804 42.9408 98.4268 44.7866 96.6257 44.7389C94.8246 44.6911 94.0564 42.8018 94.0564 42.8018L99.2804 42.9408Z" fill="white" stroke="#272727"/>
<path opacity="0.2" d="M116.173 76.0636C115.706 77.7259 115.091 79.0143 114.46 79.3781C112.524 80.4897 99.1122 76.5582 97.9585 78.0087C97.9585 78.0087 98.2848 74.1883 101.064 73.6828C103.143 73.3037 110.732 77.2854 116.173 76.0636Z" fill="#2D2B39" stroke="#272727"/>
<path opacity="0.2" d="M79.8225 81.9407C79.6774 82.4479 79.5947 83.0033 79.7877 83.4938C80.1069 84.3054 81.0455 84.6634 81.8963 84.8559C82.5995 85.0146 83.3457 85.1205 84.031 84.8967C84.7826 84.651 85.3759 84.0113 85.6428 83.2669C85.9099 82.5219 85.8677 81.6857 85.6063 80.9391C85.2901 80.0349 84.6102 79.217 83.6953 78.9312C81.6257 78.2842 80.3003 80.2689 79.8225 81.9407Z" fill="#2D2B39" stroke="#272727"/>
<path opacity="0.2" d="M81.29 57.7402C81.2141 58.0227 81.1778 58.3191 81.2212 58.6087C81.3308 59.3411 81.9552 59.9261 82.6637 60.1418C83.4335 60.3761 84.3301 60.2064 84.9162 59.6552C85.5023 59.104 85.7226 58.1754 85.3856 57.4442C85.1564 56.9479 84.7178 56.5857 84.2911 56.2431C82.9875 55.1973 81.6425 56.4241 81.29 57.7402Z" fill="#2D2B39" stroke="#272727"/>
<path opacity="0.2" d="M84.1845 61.944C84.0471 62.4077 84.2981 62.9394 84.6756 63.112C85.0531 63.2846 85.5074 63.142 85.8328 62.8321C85.9796 62.6919 86.1097 62.5116 86.1561 62.2968C86.212 62.0361 86.1342 61.758 85.995 61.5539C85.8558 61.3498 85.6611 61.2102 85.4612 61.0956C84.8791 60.7635 84.3857 61.2617 84.1845 61.944Z" fill="#2D2B39" stroke="#272727"/>
<path opacity="0.2" d="M116.368 66.671C111.854 75.0052 102.777 80.225 95.0069 74.9171C86.3329 68.9869 89.3193 49.5562 89.3193 49.5562L98.8222 56.5239C98.2928 59.2526 98.1141 61.6241 98.7171 62.0749C99.7756 62.8565 106.659 63.1713 111.468 64.1665C113.534 64.592 115.211 65.1444 115.892 65.9132C116.073 66.1212 116.235 66.3784 116.368 66.671Z" fill="#2D2B39" stroke="#272727"/>
<path d="M89.26 47.7818C89.26 47.7818 89.2872 52.3586 90.2713 58.7436C91.2014 64.7756 92.2163 69.4717 97.206 72.9623C102.195 76.4527 111.102 72.7424 116.06 64.8022C118.869 60.3027 114.963 62.3769 114.963 62.3769C114.963 62.3769 115.637 58.5837 113.812 59.9049C111.986 61.2267 108.775 66.4235 104.708 66.7273C100.641 67.0311 101.838 51.65 103.739 46.544C97.2691 44.566 89.26 47.7818 89.26 47.7818Z" fill="#4F98F0" stroke="#272727"/>
<path opacity="0.2" d="M94.1854 51.6201C94.3015 52.74 100.872 52.6213 100.775 51.209C100.679 49.7968 94.0272 50.0918 94.1854 51.6201Z" fill="#2D2B39" stroke="#272727"/>
<path opacity="0.2" d="M94.6442 56.6238C94.7978 57.9754 99.7896 57.314 99.7674 56.4877C99.7351 55.2508 94.4905 55.2722 94.6442 56.6238Z" fill="#2D2B39" stroke="#272727"/>
<path opacity="0.2" d="M95.6406 61.904C95.7396 62.8709 99.8914 62.3723 99.8638 61.3543C99.8375 60.3372 95.4922 60.4511 95.6406 61.904Z" fill="#2D2B39" stroke="#272727"/>
<path opacity="0.2" d="M97.613 66.5843C97.8675 67.3732 101.243 66.2171 101.04 65.3735C100.835 64.529 97.2302 65.3983 97.613 66.5843Z" fill="#2D2B39" stroke="#272727"/>
<path opacity="0.2" d="M101.314 70.0412C101.827 70.6913 103.842 68.8783 103.345 68.1664C102.847 67.4551 100.544 69.0637 101.314 70.0412Z" fill="#2D2B39" stroke="#272727"/>
<path d="M165 53.6746C165 53.6746 155.841 57.4394 146.597 55.3237C137.347 53.2086 132.802 42.3843 132.802 42.3843C132.802 42.3843 140.05 39.259 150.06 41.3233C160.148 43.4028 165 53.6746 165 53.6746Z" fill="#007A85" stroke="#272727"/>
<path opacity="0.2" d="M165 53.6746C165 53.6746 155.841 57.4393 146.597 55.3237C137.347 53.2086 132.802 42.3843 132.802 42.3843C132.802 42.3843 152.408 49.7503 165 53.6746Z" fill="#2D2B39" stroke="#272727"/>
<path d="M151.053 47.1979C144.915 43.2767 122.368 43.6755 114.027 50.5078C108.741 54.8426 106.544 65.3462 106.797 76.6067C107.133 91.7821 111.932 108.327 119.612 112.989C128.761 118.54 149.904 116.325 158.29 109.532C160.825 107.483 162.581 102.975 163.528 97.2491C166.244 80.8346 162.32 54.4145 151.053 47.1979ZM142.54 95.4791C140.271 98.2529 134.357 98.9175 131.717 96.4467C127.846 92.8221 125.979 74.0081 129.34 69.8503C131.591 67.0561 137.927 67.1787 139.7 68.9241C144.101 73.2501 145.195 92.2311 142.54 95.4791Z" fill="#FFA000" stroke="#272727"/>
<path d="M125.938 60.1207C125.831 58.9748 126.674 57.9598 127.82 57.8529C128.965 57.746 129.98 58.5888 130.087 59.7347" stroke="#272727" stroke-miterlimit="10" stroke-linecap="round" stroke-linejoin="round"/>
<path d="M137.475 59.0468C137.369 57.9009 138.211 56.8858 139.357 56.7789C140.503 56.672 141.518 57.5148 141.624 58.6601" stroke="#272727" stroke-miterlimit="10" stroke-linecap="round" stroke-linejoin="round"/>
<path d="M126.214 63.9928C126.06 64.6405 125.148 64.9787 124.176 64.748C123.205 64.5173 122.542 63.8059 122.696 63.1582C122.85 62.5105 123.761 62.1724 124.733 62.4031C125.704 62.6338 126.367 63.3451 126.214 63.9928Z" fill="white" stroke="#272727"/>
<path d="M142.027 62.5206C142.297 63.1286 143.256 63.2927 144.168 62.8868C145.08 62.4809 145.601 61.6592 145.33 61.0512C145.059 60.4432 144.1 60.2791 143.188 60.685C142.277 61.0909 141.757 61.9126 142.027 62.5206Z" fill="white" stroke="#272727"/>
<path d="M135.956 61.2805C135.956 61.2805 135.408 62.9719 133.839 63.1179C132.27 63.2639 131.406 61.7039 131.406 61.7039L135.956 61.2805Z" fill="white" stroke="#272727"/>
<g opacity="0.58">
<path opacity="0.2" d="M163.53 97.2486C162.58 102.974 160.822 107.48 158.291 109.532C149.902 116.324 128.759 118.538 119.612 112.989C111.93 108.326 107.133 91.7798 106.794 76.6062C107.323 77.7735 108.091 78.8288 109.218 79.6632C110.377 80.5158 111.823 81.0589 113.056 81.8432C116.362 83.9437 117.75 87.5239 118.283 90.9798C118.822 94.4351 118.686 97.9961 119.734 101.356C120.6 104.126 122.602 106.921 125.947 107.672C128.284 108.194 130.823 107.622 133.232 107.895C135.641 108.172 137.792 109.28 140.2 109.544C144.469 110.012 148.548 107.805 152.015 105.572C156.039 102.977 159.882 100.196 163.53 97.2486Z" fill="#862B39" stroke="#272727"/>
<path opacity="0.2" d="M109.161 77.7936C109.234 77.9875 109.342 78.1761 109.518 78.3157C109.773 78.5172 110.139 78.592 110.493 78.6317C111.175 78.7082 111.957 78.6521 112.447 78.2351C112.828 77.9115 112.95 77.4239 112.859 76.9899C112.768 76.556 112.489 76.1682 112.162 75.8259C111.821 75.4697 111.344 75.1269 110.785 75.1788C109.295 75.3172 108.791 76.8083 109.161 77.7936Z" fill="#862B39" stroke="#272727"/>
<path opacity="0.2" d="M113.584 80.5306C114.014 80.7993 114.667 80.9085 115.184 80.6988C115.496 80.5721 115.746 80.3548 115.937 80.1142C116.191 79.7959 116.351 79.3789 116.143 79.0518C115.768 78.4649 114.717 78.1915 113.975 78.4438C113.032 78.7639 112.822 80.0552 113.584 80.5306Z" fill="#862B39" stroke="#272727"/>
</g>
<path d="M130.72 47.1593C130.72 47.1593 127.774 47.1943 127.309 47.6072C126.845 48.0195 128.657 48.9707 128.657 48.9707C128.657 48.9707 126.096 50.8692 126.428 51.4578C126.759 52.0464 131.116 50.6222 131.116 50.6222C131.116 50.6222 132.369 53.0912 133.641 52.9773C134.913 52.8634 135.349 49.7281 135.349 49.7281C135.349 49.7281 138.868 50.3465 139.443 49.3054C140.019 48.2647 136.299 47.7935 136.299 47.7935C136.299 47.7935 139.004 46.1047 138.181 45.6217C137.358 45.1388 133.967 46.6413 133.967 46.6413C133.967 46.6413 133.093 45.1738 132.052 45.2667C131.01 45.3595 130.72 47.1593 130.72 47.1593Z" fill="#009D98" stroke="#272727"/>
<path d="M135.201 47.8981C135.297 48.4939 134.292 49.1696 132.956 49.4067C131.62 49.6438 130.46 49.3535 130.364 48.7578C130.268 48.1621 131.274 47.4864 132.609 47.2493C133.944 47.0115 135.105 47.3018 135.201 47.8981Z" fill="#007A85" stroke="#272727"/>
<path opacity="0.12" d="M115.429 51.9552C115.377 52.0936 115.35 52.2706 115.489 52.3535C115.564 52.3985 115.665 52.3991 115.759 52.3973C116.089 52.392 116.423 52.3815 116.744 52.3085C117.064 52.2355 117.375 52.093 117.573 51.8693C117.77 51.6457 117.835 51.3338 117.68 51.0984C117.598 50.974 117.464 50.8788 117.318 50.8035C116.395 50.3252 115.662 51.339 115.429 51.9552Z" fill="#862B39" stroke="#272727"/>
<path opacity="0.12" d="M114.303 54.6816C114.601 54.9479 115.053 55.0583 115.495 55.1004C115.617 55.112 115.746 55.1185 115.86 55.077C116.011 55.0227 116.105 54.8983 116.185 54.7803C116.358 54.5257 116.517 54.2342 116.435 53.9574C116.355 53.6899 116.067 53.5036 115.767 53.3868C115.484 53.277 115.163 53.2104 114.85 53.2612C114.062 53.3897 113.797 54.2278 114.303 54.6816Z" fill="#862B39" stroke="#272727"/>
<path opacity="0.12" d="M117.404 53.4709C117.395 53.5392 117.398 53.6122 117.44 53.6706C117.497 53.7489 117.611 53.7828 117.718 53.8061C118.033 53.8739 118.365 53.8955 118.693 53.8698C118.792 53.8622 118.894 53.8493 118.984 53.8119C119.078 53.7734 119.155 53.7103 119.219 53.6426C119.354 53.5007 119.444 53.3243 119.436 53.1473C119.428 52.9703 119.31 52.7957 119.117 52.7239C118.964 52.6672 118.787 52.6772 118.618 52.6883C118.023 52.7268 117.472 52.9137 117.404 53.4709Z" fill="#862B39" stroke="#272727"/>
<path opacity="0.12" d="M110.003 60.6065C110.295 61.1596 111.371 61.225 111.941 60.9032C112.339 60.6784 112.528 60.2713 112.599 59.8817C112.632 59.7013 112.644 59.5138 112.576 59.3433C112.45 59.0296 112.06 58.8252 111.657 58.8036C111.255 58.7814 110.851 58.9198 110.523 59.1254C110.254 59.2954 110.126 59.5488 110.014 59.8064C109.899 60.0669 109.872 60.3595 110.003 60.6065Z" fill="#862B39" stroke="#272727"/>
<path d="M131.743 48.4208C131.743 48.4208 130.687 40.5256 133.492 37.9965C135.887 37.3723 136.812 38.4812 136.812 38.4812L134.15 48.2059" fill="#007A85"/>
<path d="M131.743 48.4208C131.743 48.4208 130.687 40.5256 133.492 37.9965C135.887 37.3723 136.812 38.4812 136.812 38.4812L134.15 48.2059" stroke="#272727"/>
</svg>
