<svg width="66" height="70" viewBox="0 0 66 70" fill="none" xmlns="http://www.w3.org/2000/svg">
<path d="M27.7358 22.7785C16.0008 22.1935 11.6638 24.6785 9.13377 27.7035C6.34777 31.0335 6.19277 35.0975 6.68477 39.2125C7.69577 47.6695 11.6178 56.0625 17.6268 62.1445C22.9738 67.5565 31.5788 71.2765 38.8938 67.5635C40.8178 66.5865 42.6678 65.3925 44.7508 64.7715C47.0978 64.0715 49.5948 64.3105 51.9668 63.7175C65.7488 60.2765 66.5528 38.7805 63.7788 27.8985C62.3128 22.1475 59.1858 16.7095 54.4568 13.1235C49.5338 9.39052 42.3458 7.98852 37.1508 11.3315C33.0648 13.9605 30.7768 22.9305 27.7358 22.7785Z" fill="#DF3943"/>
<path d="M27.57 18.1416C26.095 17.6576 24.807 16.7066 23.734 15.5846C22.661 14.4626 21.785 13.1696 20.936 11.8706C19.009 8.92159 15.643 6.8126 12.165 6.2506C8.43397 5.6476 4.42796 6.6866 0.938965 5.2356C1.17196 8.2506 1.52297 11.4396 3.45797 13.7636C5.39297 16.0876 8.31397 17.6596 11.338 17.6326C13.251 17.6156 15.097 16.9866 16.966 16.5806C18.835 16.1746 20.874 16.0106 22.586 16.8636C24.44 17.7866 25.895 19.4926 27.916 19.9426C27.925 19.3596 27.746 18.6966 27.57 18.1416Z" fill="#77D168"/>
<path d="M27.7358 22.7785C16.0008 22.1935 11.6638 24.6785 9.13377 27.7035C6.34777 31.0335 6.19277 35.0975 6.68477 39.2125C7.69577 47.6695 11.6178 56.0625 17.6268 62.1445C22.9738 67.5565 31.5788 71.2765 38.8938 67.5635C40.8178 66.5865 42.6678 65.3925 44.7508 64.7715C47.0978 64.0715 49.5948 64.3105 51.9668 63.7175C65.7488 60.2765 66.5528 38.7805 63.7788 27.8985C62.3128 22.1475 59.1858 16.7095 54.4568 13.1235C49.5338 9.39052 42.3458 7.98852 37.1508 11.3315C33.0648 13.9605 30.7768 22.9305 27.7358 22.7785Z" stroke="#130081" stroke-width="0.75" stroke-miterlimit="10" stroke-linecap="round" stroke-linejoin="round"/>
<path d="M27.57 18.1416C26.095 17.6576 24.807 16.7066 23.734 15.5846C22.661 14.4626 21.785 13.1696 20.936 11.8706C19.009 8.92159 15.643 6.8126 12.165 6.2506C8.43397 5.6476 4.42796 6.6866 0.938965 5.2356C1.17196 8.2506 1.52297 11.4396 3.45797 13.7636C5.39297 16.0876 8.31397 17.6596 11.338 17.6326C13.251 17.6156 15.097 16.9866 16.966 16.5806C18.835 16.1746 20.874 16.0106 22.586 16.8636C24.44 17.7866 25.895 19.4926 27.916 19.9426C27.925 19.3596 27.746 18.6966 27.57 18.1416Z" stroke="#130081" stroke-width="0.75" stroke-miterlimit="10" stroke-linecap="round" stroke-linejoin="round"/>
<path d="M33.9981 28.9605C31.6961 24.8565 29.6641 20.3615 29.7521 15.6565C29.8391 10.9515 30.7461 6.34253 32.4631 1.96053C31.5731 1.41353 29.6881 0.918526 28.6431 0.940526C26.2411 4.96653 25.6861 9.89753 26.3301 14.5415C26.9741 19.1845 28.7381 23.5975 30.7221 27.8445C31.1441 28.7485 31.3951 29.4565 31.3951 29.4565C33.4471 29.4705 34.0871 29.1185 33.9981 28.9605Z" fill="#B3713E"/>
<path d="M33.9981 28.9605C31.4661 24.1985 29.6641 20.3615 29.7521 15.6565C29.8391 10.9515 30.7461 6.34253 32.4631 1.96053C31.5731 1.41353 29.6881 0.918526 28.6431 0.940526C26.2411 4.96653 25.6861 9.89753 26.3301 14.5415C26.9741 19.1845 29.4111 25.2095 31.3951 29.4565C32.1691 29.5695 33.9981 28.9605 33.9981 28.9605Z" stroke="#130081" stroke-width="0.75" stroke-miterlimit="10" stroke-linecap="round" stroke-linejoin="round"/>
<path d="M27.916 28.0265C29.205 29.3925 31.327 29.7335 33.141 29.2475C34.955 28.7615 36.503 27.5715 37.829 26.2405" stroke="#130081" stroke-width="0.75" stroke-miterlimit="10" stroke-linecap="round" stroke-linejoin="round"/>
<path d="M28.293 1.55859C29.129 2.16959 30.418 2.83959 31.398 3.17259" stroke="#130081" stroke-width="0.75" stroke-miterlimit="10" stroke-linecap="round" stroke-linejoin="round"/>
<path d="M2.22803 6.72156C5.48203 13.7406 14.04 12.0496 20.316 14.6666" stroke="#130081" stroke-width="0.75" stroke-miterlimit="10" stroke-linecap="round" stroke-linejoin="round"/>
</svg>
