<svg width="140" height="38" viewBox="0 0 140 38" fill="none" xmlns="http://www.w3.org/2000/svg">
<rect x="9" y="6" width="131" height="26" rx="13" fill="#FF8BD2"/>
<path d="M41.07 22L43.78 15.14H45.03L47.75 22H46.72L46.05 20.3H42.71L42.05 22H41.07ZM43.02 19.49H45.73L44.9 17.34C44.88 17.28 44.85 17.1967 44.81 17.09C44.77 16.9833 44.7267 16.8667 44.68 16.74C44.6333 16.6067 44.5867 16.4733 44.54 16.34C44.4933 16.2 44.45 16.0733 44.41 15.96H44.35C44.3033 16.0933 44.25 16.2467 44.19 16.42C44.13 16.5933 44.07 16.7633 44.01 16.93C43.95 17.09 43.9 17.2267 43.86 17.34L43.02 19.49ZM48.3064 22V16.74H49.0164L49.0964 17.61H49.1664C49.2197 17.4433 49.2931 17.2867 49.3864 17.14C49.4797 16.9867 49.6064 16.8633 49.7664 16.77C49.9264 16.67 50.1231 16.62 50.3564 16.62C50.4564 16.62 50.5464 16.63 50.6264 16.65C50.7131 16.6633 50.7764 16.68 50.8164 16.7V17.51H50.4864C50.2597 17.51 50.0631 17.55 49.8964 17.63C49.7364 17.7033 49.6031 17.81 49.4964 17.95C49.3897 18.09 49.3097 18.2567 49.2564 18.45C49.2097 18.6433 49.1864 18.85 49.1864 19.07V22H48.3064ZM53.3291 22.12C52.8224 22.12 52.3957 22.0233 52.0491 21.83C51.7091 21.63 51.4491 21.3267 51.2691 20.92C51.0957 20.5067 51.0091 19.99 51.0091 19.37C51.0091 18.75 51.0957 18.2367 51.2691 17.83C51.4491 17.4233 51.7124 17.12 52.0591 16.92C52.4124 16.72 52.8457 16.62 53.3591 16.62C53.7191 16.62 54.0291 16.6667 54.2891 16.76C54.5557 16.8533 54.7757 16.99 54.9491 17.17C55.1224 17.35 55.2491 17.5667 55.3291 17.82C55.4157 18.0733 55.4591 18.3633 55.4591 18.69H54.5691C54.5691 18.3833 54.5257 18.1333 54.4391 17.94C54.3591 17.74 54.2291 17.5933 54.0491 17.5C53.8691 17.4 53.6324 17.35 53.3391 17.35C53.0457 17.35 52.7924 17.4167 52.5791 17.55C52.3657 17.6767 52.2024 17.88 52.0891 18.16C51.9757 18.44 51.9191 18.81 51.9191 19.27V19.48C51.9191 19.9133 51.9724 20.2733 52.0791 20.56C52.1924 20.8467 52.3557 21.0567 52.5691 21.19C52.7824 21.3233 53.0424 21.39 53.3491 21.39C53.6491 21.39 53.8891 21.3367 54.0691 21.23C54.2557 21.1233 54.3891 20.97 54.4691 20.77C54.5557 20.57 54.5991 20.33 54.5991 20.05H55.4591C55.4591 20.3433 55.4157 20.6167 55.3291 20.87C55.2491 21.1233 55.1224 21.3433 54.9491 21.53C54.7757 21.7167 54.5557 21.8633 54.2891 21.97C54.0224 22.07 53.7024 22.12 53.3291 22.12ZM56.3146 22V14.77H57.1946V17.4H57.2646C57.3979 17.22 57.5479 17.0733 57.7146 16.96C57.8813 16.8467 58.0646 16.7633 58.2646 16.71C58.4713 16.65 58.6946 16.62 58.9346 16.62C59.2679 16.62 59.5579 16.6767 59.8046 16.79C60.0579 16.9033 60.2546 17.0867 60.3946 17.34C60.5413 17.5933 60.6146 17.9367 60.6146 18.37V22H59.7346V18.49C59.7346 18.27 59.7046 18.09 59.6446 17.95C59.5913 17.81 59.5146 17.7 59.4146 17.62C59.3213 17.54 59.2046 17.4833 59.0646 17.45C58.9313 17.4167 58.7813 17.4 58.6146 17.4C58.3679 17.4 58.1346 17.46 57.9146 17.58C57.6946 17.6933 57.5179 17.8633 57.3846 18.09C57.2579 18.31 57.1946 18.5833 57.1946 18.91V22H56.3146ZM61.7494 15.75V14.77H62.6294V15.75H61.7494ZM61.7494 22V16.74H62.6294V22H61.7494ZM65.0255 22.12C64.7521 22.12 64.5388 22.07 64.3855 21.97C64.2321 21.8633 64.1221 21.7267 64.0555 21.56C63.9888 21.3867 63.9555 21.2033 63.9555 21.01V17.48H63.2755V16.74H63.9755L64.1355 15.27H64.8355V16.74H65.8255V17.48H64.8355V20.88C64.8355 21.0467 64.8655 21.1733 64.9255 21.26C64.9855 21.34 65.0988 21.38 65.2655 21.38H65.8255V21.96C65.7588 21.9933 65.6788 22.02 65.5855 22.04C65.4921 22.06 65.3955 22.0767 65.2955 22.09C65.2021 22.11 65.1121 22.12 65.0255 22.12ZM68.6642 22.12C68.1442 22.12 67.7042 22.0233 67.3442 21.83C66.9909 21.63 66.7209 21.3267 66.5342 20.92C66.3542 20.5133 66.2642 19.9967 66.2642 19.37C66.2642 18.7367 66.3542 18.22 66.5342 17.82C66.7209 17.4133 66.9942 17.1133 67.3542 16.92C67.7142 16.72 68.1642 16.62 68.7042 16.62C69.1976 16.62 69.6109 16.7167 69.9442 16.91C70.2776 17.0967 70.5276 17.38 70.6942 17.76C70.8676 18.1333 70.9542 18.6033 70.9542 19.17V19.59H67.1742C67.1876 20.01 67.2476 20.3567 67.3542 20.63C67.4676 20.8967 67.6342 21.0933 67.8542 21.22C68.0742 21.34 68.3509 21.4 68.6842 21.4C68.9109 21.4 69.1076 21.3733 69.2742 21.32C69.4476 21.26 69.5909 21.1767 69.7042 21.07C69.8242 20.9633 69.9142 20.8367 69.9742 20.69C70.0342 20.5433 70.0676 20.3833 70.0742 20.21H70.9342C70.9276 20.49 70.8742 20.75 70.7742 20.99C70.6742 21.2233 70.5276 21.4233 70.3342 21.59C70.1409 21.7567 69.9042 21.8867 69.6242 21.98C69.3442 22.0733 69.0242 22.12 68.6642 22.12ZM67.1942 18.93H70.0442C70.0442 18.6367 70.0109 18.39 69.9442 18.19C69.8776 17.99 69.7809 17.8267 69.6542 17.7C69.5342 17.5733 69.3909 17.4833 69.2242 17.43C69.0642 17.37 68.8809 17.34 68.6742 17.34C68.3676 17.34 68.1076 17.3967 67.8942 17.51C67.6809 17.6233 67.5176 17.7967 67.4042 18.03C67.2909 18.2633 67.2209 18.5633 67.1942 18.93ZM73.8427 22.12C73.3361 22.12 72.9094 22.0233 72.5627 21.83C72.2227 21.63 71.9627 21.3267 71.7827 20.92C71.6094 20.5067 71.5227 19.99 71.5227 19.37C71.5227 18.75 71.6094 18.2367 71.7827 17.83C71.9627 17.4233 72.2261 17.12 72.5727 16.92C72.9261 16.72 73.3594 16.62 73.8727 16.62C74.2327 16.62 74.5427 16.6667 74.8027 16.76C75.0694 16.8533 75.2894 16.99 75.4627 17.17C75.6361 17.35 75.7627 17.5667 75.8427 17.82C75.9294 18.0733 75.9727 18.3633 75.9727 18.69H75.0827C75.0827 18.3833 75.0394 18.1333 74.9527 17.94C74.8727 17.74 74.7427 17.5933 74.5627 17.5C74.3827 17.4 74.1461 17.35 73.8527 17.35C73.5594 17.35 73.3061 17.4167 73.0927 17.55C72.8794 17.6767 72.7161 17.88 72.6027 18.16C72.4894 18.44 72.4327 18.81 72.4327 19.27V19.48C72.4327 19.9133 72.4861 20.2733 72.5927 20.56C72.7061 20.8467 72.8694 21.0567 73.0827 21.19C73.2961 21.3233 73.5561 21.39 73.8627 21.39C74.1627 21.39 74.4027 21.3367 74.5827 21.23C74.7694 21.1233 74.9027 20.97 74.9827 20.77C75.0694 20.57 75.1127 20.33 75.1127 20.05H75.9727C75.9727 20.3433 75.9294 20.6167 75.8427 20.87C75.7627 21.1233 75.6361 21.3433 75.4627 21.53C75.2894 21.7167 75.0694 21.8633 74.8027 21.97C74.5361 22.07 74.2161 22.12 73.8427 22.12ZM78.0583 22.12C77.7849 22.12 77.5716 22.07 77.4183 21.97C77.2649 21.8633 77.1549 21.7267 77.0883 21.56C77.0216 21.3867 76.9883 21.2033 76.9883 21.01V17.48H76.3083V16.74H77.0083L77.1683 15.27H77.8683V16.74H78.8583V17.48H77.8683V20.88C77.8683 21.0467 77.8983 21.1733 77.9583 21.26C78.0183 21.34 78.1316 21.38 78.2983 21.38H78.8583V21.96C78.7916 21.9933 78.7116 22.02 78.6183 22.04C78.5249 22.06 78.4283 22.0767 78.3283 22.09C78.2349 22.11 78.1449 22.12 78.0583 22.12ZM81.697 22.12C81.177 22.12 80.737 22.0233 80.377 21.83C80.0237 21.63 79.7537 21.3267 79.567 20.92C79.387 20.5133 79.297 19.9967 79.297 19.37C79.297 18.7367 79.387 18.22 79.567 17.82C79.7537 17.4133 80.027 17.1133 80.387 16.92C80.747 16.72 81.197 16.62 81.737 16.62C82.2304 16.62 82.6437 16.7167 82.977 16.91C83.3104 17.0967 83.5604 17.38 83.727 17.76C83.9004 18.1333 83.987 18.6033 83.987 19.17V19.59H80.207C80.2204 20.01 80.2804 20.3567 80.387 20.63C80.5004 20.8967 80.667 21.0933 80.887 21.22C81.107 21.34 81.3837 21.4 81.717 21.4C81.9437 21.4 82.1404 21.3733 82.307 21.32C82.4804 21.26 82.6237 21.1767 82.737 21.07C82.857 20.9633 82.947 20.8367 83.007 20.69C83.067 20.5433 83.1004 20.3833 83.107 20.21H83.967C83.9604 20.49 83.907 20.75 83.807 20.99C83.707 21.2233 83.5604 21.4233 83.367 21.59C83.1737 21.7567 82.937 21.8867 82.657 21.98C82.377 22.0733 82.057 22.12 81.697 22.12ZM80.227 18.93H83.077C83.077 18.6367 83.0437 18.39 82.977 18.19C82.9104 17.99 82.8137 17.8267 82.687 17.7C82.567 17.5733 82.4237 17.4833 82.257 17.43C82.097 17.37 81.9137 17.34 81.707 17.34C81.4004 17.34 81.1404 17.3967 80.927 17.51C80.7137 17.6233 80.5504 17.7967 80.437 18.03C80.3237 18.2633 80.2537 18.5633 80.227 18.93ZM88.5554 22.12C88.1221 22.12 87.7487 22.0233 87.4354 21.83C87.1287 21.6367 86.8887 21.3367 86.7154 20.93C86.5487 20.5167 86.4654 19.9833 86.4654 19.33C86.4654 18.71 86.5521 18.2 86.7254 17.8C86.8987 17.4 87.1387 17.1033 87.4454 16.91C87.7521 16.7167 88.1087 16.62 88.5154 16.62C88.7487 16.62 88.9654 16.6467 89.1654 16.7C89.3654 16.7533 89.5421 16.8367 89.6954 16.95C89.8554 17.0633 89.9954 17.2133 90.1154 17.4H90.1754V14.77H91.0554V22H90.3454L90.2654 21.25H90.1954C90.0154 21.5433 89.7821 21.7633 89.4954 21.91C89.2087 22.05 88.8954 22.12 88.5554 22.12ZM88.7654 21.35C89.0987 21.35 89.3687 21.2767 89.5754 21.13C89.7821 20.9833 89.9321 20.77 90.0254 20.49C90.1254 20.21 90.1754 19.8633 90.1754 19.45V19.29C90.1754 18.93 90.1387 18.6267 90.0654 18.38C89.9921 18.1333 89.8921 17.9367 89.7654 17.79C89.6387 17.6433 89.4921 17.54 89.3254 17.48C89.1587 17.42 88.9821 17.39 88.7954 17.39C88.4687 17.39 88.2021 17.4567 87.9954 17.59C87.7887 17.7167 87.6354 17.92 87.5354 18.2C87.4354 18.4733 87.3854 18.83 87.3854 19.27V19.48C87.3854 19.9333 87.4387 20.3 87.5454 20.58C87.6521 20.8533 87.8054 21.05 88.0054 21.17C88.2121 21.29 88.4654 21.35 88.7654 21.35ZM94.3392 22.12C93.8192 22.12 93.3792 22.0233 93.0192 21.83C92.6659 21.63 92.3959 21.3267 92.2092 20.92C92.0292 20.5133 91.9392 19.9967 91.9392 19.37C91.9392 18.7367 92.0292 18.22 92.2092 17.82C92.3959 17.4133 92.6692 17.1133 93.0292 16.92C93.3892 16.72 93.8392 16.62 94.3792 16.62C94.8726 16.62 95.2859 16.7167 95.6192 16.91C95.9526 17.0967 96.2026 17.38 96.3692 17.76C96.5426 18.1333 96.6292 18.6033 96.6292 19.17V19.59H92.8492C92.8626 20.01 92.9226 20.3567 93.0292 20.63C93.1426 20.8967 93.3092 21.0933 93.5292 21.22C93.7492 21.34 94.0259 21.4 94.3592 21.4C94.5859 21.4 94.7826 21.3733 94.9492 21.32C95.1226 21.26 95.2659 21.1767 95.3792 21.07C95.4992 20.9633 95.5892 20.8367 95.6492 20.69C95.7092 20.5433 95.7426 20.3833 95.7492 20.21H96.6092C96.6026 20.49 96.5492 20.75 96.4492 20.99C96.3492 21.2233 96.2026 21.4233 96.0092 21.59C95.8159 21.7567 95.5792 21.8867 95.2992 21.98C95.0192 22.0733 94.6992 22.12 94.3392 22.12ZM92.8692 18.93H95.7192C95.7192 18.6367 95.6859 18.39 95.6192 18.19C95.5526 17.99 95.4559 17.8267 95.3292 17.7C95.2092 17.5733 95.0659 17.4833 94.8992 17.43C94.7392 17.37 94.5559 17.34 94.3492 17.34C94.0426 17.34 93.7826 17.3967 93.5692 17.51C93.3559 17.6233 93.1926 17.7967 93.0792 18.03C92.9659 18.2633 92.8959 18.5633 92.8692 18.93ZM99.4076 23.73V16.74H100.108L100.198 17.49H100.268C100.448 17.1967 100.678 16.98 100.958 16.84C101.238 16.6933 101.554 16.62 101.908 16.62C102.348 16.62 102.721 16.7167 103.028 16.91C103.334 17.1033 103.571 17.4067 103.738 17.82C103.904 18.2267 103.988 18.7567 103.988 19.41C103.988 20.0233 103.901 20.5333 103.728 20.94C103.561 21.34 103.324 21.6367 103.018 21.83C102.711 22.0233 102.354 22.12 101.948 22.12C101.721 22.12 101.508 22.0933 101.308 22.04C101.108 21.9867 100.928 21.9033 100.768 21.79C100.608 21.67 100.468 21.52 100.348 21.34H100.288V23.73H99.4076ZM101.668 21.35C101.994 21.35 102.261 21.2867 102.468 21.16C102.674 21.0267 102.828 20.8233 102.928 20.55C103.028 20.27 103.078 19.9133 103.078 19.48V19.27C103.078 18.81 103.024 18.4433 102.918 18.17C102.811 17.89 102.654 17.69 102.448 17.57C102.248 17.45 101.998 17.39 101.698 17.39C101.371 17.39 101.101 17.4633 100.888 17.61C100.681 17.75 100.528 17.9633 100.428 18.25C100.334 18.5367 100.288 18.8867 100.288 19.3V19.45C100.288 19.8167 100.321 20.1233 100.388 20.37C100.461 20.61 100.561 20.8033 100.688 20.95C100.821 21.0967 100.971 21.2 101.138 21.26C101.304 21.32 101.481 21.35 101.668 21.35ZM104.881 22V14.77H105.761V17.4H105.831C105.965 17.22 106.115 17.0733 106.281 16.96C106.448 16.8467 106.631 16.7633 106.831 16.71C107.038 16.65 107.261 16.62 107.501 16.62C107.835 16.62 108.125 16.6767 108.371 16.79C108.625 16.9033 108.821 17.0867 108.961 17.34C109.108 17.5933 109.181 17.9367 109.181 18.37V22H108.301V18.49C108.301 18.27 108.271 18.09 108.211 17.95C108.158 17.81 108.081 17.7 107.981 17.62C107.888 17.54 107.771 17.4833 107.631 17.45C107.498 17.4167 107.348 17.4 107.181 17.4C106.935 17.4 106.701 17.46 106.481 17.58C106.261 17.6933 106.085 17.8633 105.951 18.09C105.825 18.31 105.761 18.5833 105.761 18.91V22H104.881ZM110.316 22V16.74H111.026L111.106 17.61H111.176C111.23 17.4433 111.303 17.2867 111.396 17.14C111.49 16.9867 111.616 16.8633 111.776 16.77C111.936 16.67 112.133 16.62 112.366 16.62C112.466 16.62 112.556 16.63 112.636 16.65C112.723 16.6633 112.786 16.68 112.826 16.7V17.51H112.496C112.27 17.51 112.073 17.55 111.906 17.63C111.746 17.7033 111.613 17.81 111.506 17.95C111.4 18.09 111.32 18.2567 111.266 18.45C111.22 18.6433 111.196 18.85 111.196 19.07V22H110.316ZM114.659 22.12C114.465 22.12 114.272 22.0967 114.079 22.05C113.885 22.0033 113.705 21.9267 113.539 21.82C113.372 21.7133 113.239 21.5667 113.139 21.38C113.039 21.1867 112.989 20.9467 112.989 20.66C112.989 20.3 113.075 20.0033 113.249 19.77C113.422 19.5367 113.662 19.3567 113.969 19.23C114.282 19.0967 114.652 19.0067 115.079 18.96C115.505 18.9067 115.969 18.88 116.469 18.88V18.28C116.469 18.0867 116.435 17.92 116.369 17.78C116.302 17.64 116.182 17.5333 116.009 17.46C115.842 17.38 115.602 17.34 115.289 17.34C114.989 17.34 114.749 17.38 114.569 17.46C114.395 17.5333 114.272 17.63 114.199 17.75C114.132 17.87 114.099 18.0033 114.099 18.15V18.3H113.249C113.242 18.2667 113.239 18.2333 113.239 18.2C113.239 18.1667 113.239 18.1267 113.239 18.08C113.239 17.76 113.325 17.4933 113.499 17.28C113.679 17.06 113.929 16.8967 114.249 16.79C114.569 16.6767 114.935 16.62 115.349 16.62C115.789 16.62 116.155 16.6833 116.449 16.81C116.749 16.9367 116.972 17.1167 117.119 17.35C117.272 17.5833 117.349 17.8633 117.349 18.19V21.04C117.349 21.1667 117.379 21.2567 117.439 21.31C117.499 21.3567 117.572 21.38 117.659 21.38H118.049V21.96C117.955 22 117.852 22.0333 117.739 22.06C117.625 22.0933 117.495 22.11 117.349 22.11C117.175 22.11 117.032 22.0733 116.919 22C116.805 21.9333 116.719 21.84 116.659 21.72C116.599 21.5933 116.559 21.4533 116.539 21.3H116.469C116.349 21.4667 116.195 21.6133 116.009 21.74C115.829 21.86 115.625 21.9533 115.399 22.02C115.172 22.0867 114.925 22.12 114.659 22.12ZM114.879 21.38C115.092 21.38 115.292 21.3467 115.479 21.28C115.672 21.2133 115.842 21.12 115.989 21C116.135 20.8733 116.252 20.7233 116.339 20.55C116.425 20.3767 116.469 20.1867 116.469 19.98V19.54C115.929 19.54 115.469 19.57 115.089 19.63C114.709 19.69 114.415 19.7967 114.209 19.95C114.009 20.1033 113.909 20.32 113.909 20.6C113.909 20.78 113.949 20.9267 114.029 21.04C114.109 21.1533 114.222 21.24 114.369 21.3C114.515 21.3533 114.685 21.38 114.879 21.38ZM120.428 22.12C120.068 22.12 119.751 22.0833 119.478 22.01C119.205 21.9367 118.978 21.83 118.798 21.69C118.618 21.55 118.481 21.3833 118.388 21.19C118.295 20.9967 118.248 20.7767 118.248 20.53C118.248 20.4967 118.248 20.4667 118.248 20.44C118.248 20.4067 118.251 20.38 118.258 20.36H119.128C119.121 20.3867 119.118 20.41 119.118 20.43C119.118 20.45 119.118 20.47 119.118 20.49C119.125 20.7233 119.185 20.9067 119.298 21.04C119.418 21.1733 119.581 21.2667 119.788 21.32C119.995 21.3733 120.225 21.4 120.478 21.4C120.698 21.4 120.901 21.3733 121.088 21.32C121.275 21.26 121.421 21.1733 121.528 21.06C121.641 20.94 121.698 20.79 121.698 20.61C121.698 20.39 121.625 20.2233 121.478 20.11C121.338 19.99 121.151 19.8967 120.918 19.83C120.685 19.7633 120.441 19.6933 120.188 19.62C119.975 19.56 119.761 19.4933 119.548 19.42C119.335 19.3467 119.141 19.2567 118.968 19.15C118.801 19.0433 118.665 18.9067 118.558 18.74C118.458 18.5667 118.408 18.35 118.408 18.09C118.408 17.8567 118.455 17.65 118.548 17.47C118.648 17.29 118.788 17.1367 118.968 17.01C119.148 16.8833 119.365 16.79 119.618 16.73C119.878 16.6633 120.165 16.63 120.478 16.63C120.811 16.63 121.101 16.6667 121.348 16.74C121.601 16.8133 121.811 16.9167 121.978 17.05C122.145 17.1833 122.268 17.3367 122.348 17.51C122.428 17.6767 122.468 17.8567 122.468 18.05C122.468 18.09 122.468 18.13 122.468 18.17C122.468 18.2033 122.465 18.23 122.458 18.25H121.598V18.14C121.598 18.0067 121.561 17.88 121.488 17.76C121.421 17.6333 121.301 17.5333 121.128 17.46C120.961 17.38 120.728 17.34 120.428 17.34C120.235 17.34 120.068 17.3567 119.928 17.39C119.788 17.4167 119.671 17.4633 119.578 17.53C119.485 17.59 119.415 17.6633 119.368 17.75C119.321 17.83 119.298 17.9233 119.298 18.03C119.298 18.2033 119.355 18.3367 119.468 18.43C119.581 18.5233 119.731 18.6 119.918 18.66C120.111 18.72 120.318 18.7867 120.538 18.86C120.771 18.9267 121.008 18.9967 121.248 19.07C121.495 19.1367 121.718 19.2233 121.918 19.33C122.125 19.4367 122.288 19.5833 122.408 19.77C122.535 19.95 122.598 20.19 122.598 20.49C122.598 20.77 122.545 21.0133 122.438 21.22C122.331 21.4267 122.178 21.5967 121.978 21.73C121.785 21.8633 121.555 21.96 121.288 22.02C121.028 22.0867 120.741 22.12 120.428 22.12ZM125.586 22.12C125.066 22.12 124.626 22.0233 124.266 21.83C123.912 21.63 123.642 21.3267 123.456 20.92C123.276 20.5133 123.186 19.9967 123.186 19.37C123.186 18.7367 123.276 18.22 123.456 17.82C123.642 17.4133 123.916 17.1133 124.276 16.92C124.636 16.72 125.086 16.62 125.626 16.62C126.119 16.62 126.532 16.7167 126.866 16.91C127.199 17.0967 127.449 17.38 127.616 17.76C127.789 18.1333 127.876 18.6033 127.876 19.17V19.59H124.096C124.109 20.01 124.169 20.3567 124.276 20.63C124.389 20.8967 124.556 21.0933 124.776 21.22C124.996 21.34 125.272 21.4 125.606 21.4C125.832 21.4 126.029 21.3733 126.196 21.32C126.369 21.26 126.512 21.1767 126.626 21.07C126.746 20.9633 126.836 20.8367 126.896 20.69C126.956 20.5433 126.989 20.3833 126.996 20.21H127.856C127.849 20.49 127.796 20.75 127.696 20.99C127.596 21.2233 127.449 21.4233 127.256 21.59C127.062 21.7567 126.826 21.8867 126.546 21.98C126.266 22.0733 125.946 22.12 125.586 22.12ZM124.116 18.93H126.966C126.966 18.6367 126.932 18.39 126.866 18.19C126.799 17.99 126.702 17.8267 126.576 17.7C126.456 17.5733 126.312 17.4833 126.146 17.43C125.986 17.37 125.802 17.34 125.596 17.34C125.289 17.34 125.029 17.3967 124.816 17.51C124.602 17.6233 124.439 17.7967 124.326 18.03C124.212 18.2633 124.142 18.5633 124.116 18.93ZM130.604 22.12C130.244 22.12 129.928 22.0833 129.654 22.01C129.381 21.9367 129.154 21.83 128.974 21.69C128.794 21.55 128.658 21.3833 128.564 21.19C128.471 20.9967 128.424 20.7767 128.424 20.53C128.424 20.4967 128.424 20.4667 128.424 20.44C128.424 20.4067 128.428 20.38 128.434 20.36H129.304C129.298 20.3867 129.294 20.41 129.294 20.43C129.294 20.45 129.294 20.47 129.294 20.49C129.301 20.7233 129.361 20.9067 129.474 21.04C129.594 21.1733 129.758 21.2667 129.964 21.32C130.171 21.3733 130.401 21.4 130.654 21.4C130.874 21.4 131.078 21.3733 131.264 21.32C131.451 21.26 131.598 21.1733 131.704 21.06C131.818 20.94 131.874 20.79 131.874 20.61C131.874 20.39 131.801 20.2233 131.654 20.11C131.514 19.99 131.328 19.8967 131.094 19.83C130.861 19.7633 130.618 19.6933 130.364 19.62C130.151 19.56 129.938 19.4933 129.724 19.42C129.511 19.3467 129.318 19.2567 129.144 19.15C128.978 19.0433 128.841 18.9067 128.734 18.74C128.634 18.5667 128.584 18.35 128.584 18.09C128.584 17.8567 128.631 17.65 128.724 17.47C128.824 17.29 128.964 17.1367 129.144 17.01C129.324 16.8833 129.541 16.79 129.794 16.73C130.054 16.6633 130.341 16.63 130.654 16.63C130.988 16.63 131.278 16.6667 131.524 16.74C131.778 16.8133 131.988 16.9167 132.154 17.05C132.321 17.1833 132.444 17.3367 132.524 17.51C132.604 17.6767 132.644 17.8567 132.644 18.05C132.644 18.09 132.644 18.13 132.644 18.17C132.644 18.2033 132.641 18.23 132.634 18.25H131.774V18.14C131.774 18.0067 131.738 17.88 131.664 17.76C131.598 17.6333 131.478 17.5333 131.304 17.46C131.138 17.38 130.904 17.34 130.604 17.34C130.411 17.34 130.244 17.3567 130.104 17.39C129.964 17.4167 129.848 17.4633 129.754 17.53C129.661 17.59 129.591 17.6633 129.544 17.75C129.498 17.83 129.474 17.9233 129.474 18.03C129.474 18.2033 129.531 18.3367 129.644 18.43C129.758 18.5233 129.908 18.6 130.094 18.66C130.288 18.72 130.494 18.7867 130.714 18.86C130.948 18.9267 131.184 18.9967 131.424 19.07C131.671 19.1367 131.894 19.2233 132.094 19.33C132.301 19.4367 132.464 19.5833 132.584 19.77C132.711 19.95 132.774 20.19 132.774 20.49C132.774 20.77 132.721 21.0133 132.614 21.22C132.508 21.4267 132.354 21.5967 132.154 21.73C131.961 21.8633 131.731 21.96 131.464 22.02C131.204 22.0867 130.918 22.12 130.604 22.12Z" fill="white"/>
<path d="M14.6658 3.15958C15.7674 2.22199 16.3182 1.7532 16.8925 1.47778C17.5502 1.16325 18.27 1 18.999 1C19.7281 1 20.4479 1.16325 21.1056 1.47778C21.6818 1.75124 22.2326 2.22004 23.3322 3.15958C23.7717 3.53462 23.9905 3.72018 24.2248 3.87645C24.7616 4.2362 25.3644 4.48584 25.9984 4.6109C26.2738 4.66559 26.5609 4.68903 27.1351 4.73591C28.5785 4.8492 29.2993 4.9078 29.9009 5.12071C30.588 5.36321 31.2122 5.75643 31.7276 6.27153C32.243 6.78663 32.6366 7.41056 32.8795 8.09757C33.0924 8.70114 33.1491 9.42192 33.2643 10.8635C33.3092 11.4377 33.3327 11.7249 33.3873 12.0022C33.5124 12.6351 33.7624 13.2387 34.1218 13.7739C34.278 14.0083 34.4655 14.2271 34.8386 14.6666C35.7761 15.7682 36.2469 16.3191 36.5223 16.8934C36.8368 17.5511 37 18.2709 37 19C37 19.7291 36.8368 20.4489 36.5223 21.1067C36.2488 21.6809 35.7781 22.2318 34.8386 23.3334C34.5824 23.6167 34.343 23.9148 34.1218 24.2261C33.7623 24.7623 33.5126 25.3645 33.3873 25.9978C33.3327 26.2751 33.3092 26.5623 33.2643 27.1365C33.1491 28.5781 33.0924 29.3008 32.8795 29.9024C32.6366 30.5894 32.243 31.2134 31.7276 31.7285C31.2122 32.2436 30.588 32.6368 29.9009 32.8793C29.2993 33.0942 28.5785 33.1508 27.1351 33.2641C26.5609 33.311 26.2757 33.3344 25.9984 33.3891C25.3644 33.5142 24.7616 33.7638 24.2248 34.1236C23.9142 34.3449 23.6168 34.5843 23.3342 34.8404C22.2326 35.778 21.6818 36.2468 21.1075 36.5222C20.4498 36.8367 19.73 37 19.001 37C18.2719 37 17.5522 36.8367 16.8944 36.5222C16.3182 36.2488 15.7674 35.78 14.6678 34.8404C14.3845 34.5842 14.0865 34.3449 13.7752 34.1236C13.2384 33.7638 12.6356 33.5142 12.0016 33.3891C11.6255 33.3253 11.2459 33.2835 10.8649 33.2641C9.42146 33.1508 8.70072 33.0922 8.09914 32.8793C7.412 32.6368 6.78785 32.2436 6.27244 31.7285C5.75703 31.2134 5.36343 30.5894 5.12049 29.9024C4.90759 29.3008 4.85095 28.5781 4.73571 27.1365C4.717 26.7549 4.67591 26.3746 4.61265 25.9978C4.48736 25.3645 4.23774 24.7623 3.87825 24.2261C3.72199 23.9917 3.53448 23.7729 3.16142 23.3334C2.22388 22.2318 1.75315 21.6809 1.47775 21.1067C1.16324 20.4489 1 19.7291 1 19C1 18.2709 1.16324 17.5511 1.47775 16.8934C1.75315 16.3191 2.22192 15.7682 3.16142 14.6666C3.53448 14.2271 3.72199 14.0083 3.87825 13.7739C4.23774 13.2377 4.48736 12.6355 4.61265 12.0022C4.66734 11.7249 4.69078 11.4377 4.73571 10.8635C4.85095 9.42192 4.90759 8.70114 5.12049 8.09757C5.36363 7.41036 5.75753 6.7863 6.2733 6.27119C6.78906 5.75607 7.4136 5.36297 8.10109 5.12071C8.70268 4.9078 9.42341 4.8492 10.8668 4.73591C11.4411 4.68903 11.7262 4.66559 12.0036 4.6109C12.6375 4.48584 13.2404 4.2362 13.7771 3.87645C14.0115 3.72018 14.2283 3.53462 14.6658 3.15958Z" fill="#FF8BD2" stroke="#DE53A8"/>
<path d="M12.6279 28.2417C12.4013 28.2417 12.2154 28.0705 12.1955 27.8435C12.144 27.2822 12.0173 25.723 11.9531 23.3968C11.9477 23.3889 11.9443 23.3814 11.94 23.3726C11.8466 23.3152 11.7571 23.2575 11.6707 23.1978C9.54617 21.7438 8.56838 18.9086 9.23818 16.1432C9.95818 13.1712 12.4029 11.1437 15.7777 10.7201C16.4409 10.6369 17.1401 10.5948 17.856 10.5948C22.1102 10.5948 25.7349 11.9544 27.5523 14.2317C27.9196 14.6849 28.2214 15.1907 28.4485 15.7341C29.2062 17.5549 29.1359 19.6448 28.256 21.4684C27.3737 23.2973 25.7765 24.6568 23.8741 25.1984C23.122 25.4132 22.0304 25.5315 20.8007 25.5315C19.3897 25.5315 17.9105 25.3809 16.523 25.0957C16.5225 25.0962 16.5011 25.0996 16.5006 25.0998C15.126 26.2893 13.5286 27.6225 12.9056 28.1406C12.8251 28.2071 12.7292 28.2417 12.6279 28.2417Z" fill="#00D4FC"/>
<g opacity="0.25">
<path d="M23.8186 25.0028C22.3293 25.4277 19.4027 25.4794 16.5643 24.8963C16.4949 24.8816 16.4219 24.8981 16.3678 24.946C15.0056 26.1248 13.4462 27.4269 12.7759 27.9843C12.6308 28.1035 12.415 28.0139 12.3985 27.826C12.3343 27.1257 12.2176 25.5961 12.1566 23.3916C12.1557 23.3547 12.145 23.3167 12.1238 23.2851C12.1292 23.2808 12.1369 23.2767 12.1423 23.2724C13.3153 22.5094 14.7869 22.3595 16.1817 22.4464C17.5792 22.5309 18.9584 22.8317 20.3552 22.8771C21.7543 22.9253 23.2277 22.6897 24.3301 21.8308C25.3868 21.0086 25.9741 19.7219 26.3361 18.4327C26.7004 17.1463 26.8791 15.808 27.3243 14.5449C27.3456 14.4836 27.3693 14.4223 27.3933 14.3588C27.7479 14.7966 28.0387 15.2814 28.2607 15.8126C29.8077 19.5302 27.6816 23.9029 23.8186 25.0028Z" fill="#332FBA"/>
</g>
<path opacity="0.75" d="M10.3641 17.4843C10.9663 13.6023 15.5353 10.9204 20.2252 12.6641C20.4175 12.7356 20.5154 12.9493 20.4439 13.1413C20.3469 13.4022 20.0543 13.39 20.0794 13.3828C18.2115 13.3111 16.4674 13.3457 14.7673 14.0815C12.0624 15.2678 10.9052 17.8945 11.0099 17.7041C10.9177 17.8717 10.7072 17.933 10.5396 17.8407C10.4084 17.7688 10.3426 17.6239 10.3641 17.4843Z" fill="white"/>
<path d="M17.8564 10.7984C21.3133 10.7984 25.3481 11.7956 27.3933 14.3586C27.7478 14.7964 28.0387 15.2812 28.2607 15.8124C29.8077 19.5302 27.6818 23.9029 23.8186 25.0028C23.0943 25.2095 22.0299 25.328 20.8013 25.328C19.5036 25.328 18.0224 25.1959 16.5643 24.8963C16.548 24.8929 16.5315 24.8911 16.515 24.8911C16.4616 24.8911 16.4092 24.9094 16.3678 24.9461C15.0056 26.1249 13.4462 27.4269 12.7759 27.9844C12.7307 28.0214 12.6787 28.0384 12.628 28.0384C12.5157 28.0384 12.4098 27.9556 12.3985 27.8261C12.3343 27.1257 12.2176 25.5962 12.1566 23.3916C12.1557 23.3548 12.145 23.3168 12.1238 23.2851C12.1077 23.2514 12.0792 23.2214 12.0471 23.2008C11.9578 23.1447 11.8705 23.0886 11.7862 23.0305C7.59865 20.1647 8.32816 11.8603 15.8031 10.9221C16.4476 10.8414 17.1396 10.7984 17.8564 10.7984ZM17.8566 10.3914C17.1319 10.3914 16.4239 10.4341 15.7525 10.5182C12.2902 10.9528 9.78105 13.0375 9.04047 16.0953C8.35077 18.9425 9.3618 21.8646 11.5564 23.3663C11.6199 23.41 11.6853 23.4529 11.7522 23.4957C11.8176 25.7771 11.942 27.3064 11.9931 27.8629C12.022 28.1942 12.2949 28.4452 12.6278 28.4452C12.7748 28.4452 12.9188 28.3932 13.0339 28.2989C13.6483 27.7881 15.2037 26.4901 16.5668 25.3122C17.9451 25.5892 19.4061 25.735 20.8013 25.735C22.0491 25.735 23.1603 25.6141 23.9303 25.3943C25.8884 24.8368 27.5319 23.4382 28.4396 21.557C29.3448 19.681 29.4165 17.5303 28.6365 15.6561C28.4018 15.0947 28.09 14.5723 27.7096 14.1026C25.856 11.7796 22.1719 10.3914 17.8566 10.3914Z" fill="#0A1640"/>
<path d="M12.8739 17.9297C12.7965 18.6459 13.3144 19.289 14.0305 19.3663C14.7467 19.4436 15.3898 18.9258 15.4671 18.2096C15.5445 17.4935 15.0266 16.8504 14.3105 16.773C13.5941 16.6957 12.951 17.2135 12.8739 17.9297Z" fill="#0A1640"/>
<path d="M17.6529 18.4452C17.5756 19.1614 18.0934 19.8045 18.8096 19.8818C19.5257 19.9591 20.1688 19.4413 20.2462 18.7251C20.3235 18.009 19.8057 17.3659 19.0895 17.2885C18.3734 17.2112 17.7302 17.7293 17.6529 18.4452Z" fill="#0A1640"/>
<path d="M22.4317 18.9611C22.3544 19.6772 22.8722 20.3203 23.5884 20.3977C24.3045 20.475 24.9477 19.9572 25.025 19.241C25.1023 18.5249 24.5845 17.8817 23.8683 17.8044C23.1522 17.7271 22.5091 18.2449 22.4317 18.9611Z" fill="#0A1640"/>
</svg>
