<svg width="48" height="48" viewBox="0 0 48 48" fill="none" xmlns="http://www.w3.org/2000/svg">
<path d="M48 24C48 10.7452 37.2548 4.09801e-06 24 4.67739e-06C10.7452 5.25678e-06 -1.62846e-06 10.7452 -1.04907e-06 24C-4.69686e-07 37.2548 10.7452 48 24 48C37.2548 48 48 37.2548 48 24Z" fill="#9D63E7"/>
<path d="M45.568 24.0006C45.568 12.0883 35.9111 2.43143 23.9988 2.43143C12.0865 2.43144 2.42969 12.0883 2.42969 24.0006C2.42969 35.9129 12.0865 45.5697 23.9988 45.5697C35.9111 45.5697 45.568 35.9129 45.568 24.0006Z" fill="#F6E1DA"/>
<mask id="mask0_2_1606" style="mask-type:alpha" maskUnits="userSpaceOnUse" x="2" y="2" width="44" height="44">
<path d="M45.568 24.0007C45.5679 12.0884 35.9111 2.43156 23.9988 2.43156C12.0865 2.43156 2.42968 12.0884 2.42968 24.0007C2.42969 35.913 12.0865 45.5698 23.9988 45.5698C35.9111 45.5698 45.568 35.913 45.568 24.0007Z" fill="#F6E1DA"/>
</mask>
<g mask="url(#mask0_2_1606)">
<path d="M24.3773 64.8798C34.0195 64.8798 41.8361 58.8219 41.8361 51.349C41.8361 43.8761 34.0195 37.8181 24.3773 37.8181C14.735 37.8181 6.91846 43.8761 6.91846 51.349C6.91846 58.8219 14.735 64.8798 24.3773 64.8798Z" fill="#E06EA1"/>
<path d="M9.91662 29.2236C12.3257 35.5691 20.432 38.3767 28.0226 35.4948C35.6132 32.6129 40.233 26.2375 37.8239 19.8924C35.4148 13.5469 27.3085 10.7393 19.7179 13.6212C12.1276 16.5028 7.50788 22.8782 9.91662 29.2236Z" fill="#2C3C52"/>
<path d="M28.7756 35.4921L27.7058 39.4211C27.7058 39.4211 24.4124 41.0484 20.9768 39.4211L19.9785 36.8652L28.7756 35.4921Z" fill="#8D7472"/>
<path d="M20.4596 38.097L19.978 36.8648L28.6004 35.9592L27.8406 38.9353C25.2851 39.2693 22.8038 38.9217 20.4596 38.097Z" fill="#816169"/>
<path d="M10.8216 29.1948C13.3388 35.8247 21.0929 39.0306 28.1413 36.3544C35.1897 33.6782 39.3007 27.2885 36.7835 20.6585C34.2664 14.0282 26.5119 10.8227 19.4638 13.4989C12.4158 16.1751 8.30441 22.5648 10.8216 29.1948Z" fill="#8D7472"/>
<path d="M30.5748 10.6606C30.5748 10.6606 34.4515 19.0887 36.6842 20.9842C36.8624 21.1355 37.3401 20.4577 37.5046 20.4354C38.0514 20.3611 38.3865 19.7997 38.2163 19.2753C34.2067 6.91009 23.6673 9.72227 22.0713 10.2275C21.9319 10.2718 21.7861 10.2774 21.6421 10.2519C18.3205 9.66194 9.5991 11.3702 8.14437 15.0886C6.1694 20.1376 8.15727 23.0261 9.59247 26.7996C9.59247 26.7996 15.8748 23.0328 17.6984 13.9829" fill="#2C3C52"/>
<path d="M16.6191 17.1814C21.741 15.3766 26.0278 19.261 31.1682 17.8802C36.3082 16.4994 39.4512 12.1132 37.4721 8.53949C35.6394 5.23009 32.6114 7.28909 32.6114 7.28909C33.2962 5.32075 30.7919 2.8611 28.4404 4.96369C28.4404 4.96369 27.8305 2.13792 24.3956 3.24117C20.9606 4.34407 20.8557 9.4663 20.1179 9.37634C15.8973 8.86028 14.3275 11.0162 14.3275 11.0162C14.3275 11.0162 7.26625 10.9827 7.4134 17.3892C7.55497 23.561 13.6769 18.218 16.6191 17.1814Z" fill="#2C3C52"/>
<path d="M29.1457 18.5497C29.1457 18.5497 33.0412 19.5292 32.7692 20.8186C32.4973 22.1077 27.3935 20.8741 26.6372 20.0389C25.8809 19.2038 27.0602 17.6825 29.1457 18.5497Z" fill="#2C3C52"/>
<path d="M17.0871 20.6696C17.0871 20.6696 13.7198 22.8593 14.3952 23.9908C15.0706 25.1223 19.4986 22.3 19.9428 21.2648C20.3874 20.2295 18.7789 19.173 17.0871 20.6696Z" fill="#2C3C52"/>
<path d="M25.9745 25.2713C26.5003 26.9171 28.2608 27.8247 29.9066 27.2986C31.5524 26.7724 32.4601 25.0122 31.9339 23.3664C31.4081 21.7206 29.6475 20.813 28.0017 21.3391C26.3563 21.865 25.4486 23.6255 25.9745 25.2713Z" fill="white"/>
<path d="M26.9588 23.8904C26.6404 25.955 28.9634 27.1528 30.4603 25.6956C30.7208 25.4421 30.8941 25.106 30.9495 24.7465C31.2679 22.6819 28.9449 21.4845 27.448 22.9417C27.1875 23.1952 27.0142 23.5313 26.9588 23.8904Z" fill="#2C3C52"/>
<path d="M28.0114 28.5134C28.2747 29.2066 29.606 29.557 30.8975 29.0667C32.1894 28.5765 32.7424 27.6169 32.4792 26.9237C32.2159 26.2305 31.1657 25.8797 29.8738 26.37C28.5822 26.8606 27.7482 27.8202 28.0114 28.5134Z" fill="#816169"/>
<path d="M21.9209 26.0931C22.0775 27.8139 20.8096 29.3356 19.0888 29.4921C17.3681 29.6487 15.8464 28.3809 15.6898 26.6601C15.5333 24.9393 16.8011 23.4176 18.5219 23.2614C20.2427 23.1045 21.7643 24.3723 21.9209 26.0931Z" fill="white"/>
<path d="M20.4764 25.2051C21.5737 26.9827 19.9007 28.9904 17.9543 28.2313C17.6158 28.0992 17.3253 27.8572 17.1342 27.5479C16.0369 25.7706 17.7099 23.7629 19.6563 24.5216C19.9949 24.6538 20.2857 24.8958 20.4764 25.2051Z" fill="#2C3C52"/>
<path d="M21.3079 29.8726C21.3355 30.6135 20.2458 31.4549 18.865 31.5065C17.4842 31.5578 16.6013 30.8897 16.5734 30.1487C16.5459 29.4078 17.3768 28.6755 18.7576 28.6239C20.1384 28.5723 21.2804 29.1316 21.3079 29.8726Z" fill="#816169"/>
<path d="M36.4077 21.4033C36.4077 21.4033 37.6619 19.3087 39.7767 20.1243C41.8915 20.9396 42.393 24.7016 40.2503 25.6127C38.1076 26.5238 36.4879 24.4495 36.4879 24.4495L36.4077 21.4033Z" fill="#8D7472"/>
<path d="M37.8311 21.9445C37.8311 21.9445 38.7084 20.7519 39.8726 21.2007C41.0369 21.6495 41.3127 23.7203 40.1331 24.2217C38.9538 24.7232 38.0622 23.5812 38.0622 23.5812L37.8311 21.9445Z" fill="#816169"/>
<path d="M11.1208 26.4387C11.1208 26.4387 9.15387 24.9931 7.51922 26.5636C5.88492 28.1341 6.87903 31.7967 9.20722 31.8075C11.5354 31.818 12.2258 29.2785 12.2258 29.2785L11.1208 26.4387Z" fill="#8D7472"/>
<path d="M10.3726 27.5098C10.3726 27.5098 9.29337 26.7165 8.39654 27.5781C7.49972 28.4401 8.04542 30.4496 9.32266 30.4555C10.5999 30.4614 10.9789 29.0677 10.9789 29.0677L10.3726 27.5098Z" fill="#816169"/>
<path d="M21.7466 27.0499C23.6142 26.142 26.2694 26.2093 26.2694 26.2093C26.2694 26.2093 26.3956 26.8913 26.237 27.6322C24.7851 27.3763 23.2477 27.5803 22.0573 28.293C21.7679 27.6769 21.7466 27.0499 21.7466 27.0499Z" fill="#2C3C52"/>
<path d="M26.2369 27.6322C26.0754 28.3854 25.6197 29.1996 24.4348 29.4199C23.0582 29.6759 22.3852 28.9911 22.0571 28.293C23.2476 27.5799 24.7846 27.3763 26.2369 27.6322Z" fill="#EA6868"/>
</g>
<path d="M39.1208 35.6166L37.7013 36.0187C37.345 36.1194 37.073 36.4503 37.0036 36.8667L36.7477 38.4019C36.6982 38.6987 36.2755 38.7091 36.2114 38.4152L35.9059 37.0145C35.8003 36.5288 35.4607 36.1557 35.036 36.0577L33.7033 35.7505C33.4093 35.6829 33.3989 35.2676 33.6893 35.1853L35.006 34.8125C35.4251 34.694 35.7452 34.3049 35.8268 33.8149L36.0625 32.4C36.112 32.1032 36.5346 32.0928 36.5988 32.3867L36.9311 33.9115C37.0203 34.3216 37.307 34.6365 37.6658 34.7191L39.1069 35.051C39.4008 35.1194 39.4113 35.5343 39.1208 35.6166Z" fill="#E8CC31"/>
<path d="M7.15955 23.6157L6.10756 23.9135C5.8436 23.9881 5.64206 24.2332 5.59045 24.5418L5.40077 25.6796C5.36416 25.8996 5.05069 25.9073 5.00326 25.6893L4.77696 24.6513C4.69851 24.2914 4.44711 24.0149 4.13224 23.9424L3.14475 23.7147C2.92682 23.6645 2.91915 23.357 3.13429 23.2959L4.10992 23.0198C4.42061 22.9319 4.65771 22.6435 4.71804 22.2806L4.89273 21.232C4.92934 21.012 5.24281 21.0044 5.29023 21.2223L5.53641 22.352C5.60266 22.6561 5.81501 22.8894 6.08071 22.9507L7.14874 23.1969C7.36737 23.2471 7.37504 23.555 7.15955 23.6157Z" fill="#E8CC31"/>
<path d="M42.1748 30.7695L41.6619 30.9142C41.4282 30.9801 41.2466 31.2088 41.1964 31.5003L41.1162 31.9644C41.0579 32.3016 40.6102 32.304 40.5485 31.9676L40.4788 31.5892C40.4156 31.2465 40.1991 30.9794 39.9229 30.9047L39.4766 30.7841C39.1743 30.7022 39.1719 30.2401 39.4731 30.1551L39.9184 30.0292C40.1932 29.9514 40.4069 29.6826 40.4662 29.3395L40.5318 28.9598C40.59 28.6226 41.0377 28.6201 41.0994 28.9566L41.1852 29.4225C41.2385 29.7119 41.4213 29.9371 41.6545 30.0002L42.1713 30.1401C42.4736 30.2224 42.476 30.684 42.1748 30.7695Z" fill="#E8CC31"/>
<path d="M11.5473 35.7082L11.0344 35.8529C10.8008 35.9188 10.6191 36.1475 10.5689 36.439L10.4887 36.9031C10.4305 37.2403 9.98277 37.2428 9.92105 36.9063L9.85132 36.5279C9.7882 36.1852 9.57167 35.9181 9.29551 35.8435L8.84918 35.7228C8.54687 35.6409 8.54443 35.1789 8.8457 35.0938L9.29097 34.9679C9.56574 34.8902 9.77949 34.6213 9.83876 34.2782L9.90432 33.8985C9.96255 33.5613 10.4103 33.5589 10.472 33.8953L10.5578 34.3612C10.6111 34.6506 10.7938 34.8759 11.0271 34.939L11.5438 35.0788C11.8462 35.1611 11.8486 35.6231 11.5473 35.7082Z" fill="#E8CC31"/>
<path d="M41.9058 16.545L41.2698 16.7246C40.98 16.8066 40.7551 17.0897 40.6927 17.4516L40.5933 18.027C40.5211 18.445 39.966 18.4482 39.8893 18.0308L39.8032 17.5618C39.7251 17.1368 39.4562 16.8059 39.1142 16.7131L38.5612 16.5635C38.1863 16.4621 38.1832 15.8895 38.557 15.7839L39.1089 15.628C39.4496 15.5318 39.7146 15.1984 39.7882 14.773L39.8694 14.3023C39.9416 13.8842 40.4967 13.8811 40.5734 14.2984L40.6798 14.8759C40.7457 15.2347 40.9727 15.514 41.2614 15.5924L41.9019 15.7657C42.2764 15.8668 42.2796 16.4394 41.9058 16.545Z" fill="#E8CC31"/>
</svg>
