<svg width="48" height="48" viewBox="0 0 48 48" fill="none" xmlns="http://www.w3.org/2000/svg">
<path d="M24 48C37.2548 48 48 37.2548 48 24C48 10.7452 37.2548 0 24 0C10.7452 0 0 10.7452 0 24C0 37.2548 10.7452 48 24 48Z" fill="#DB950F"/>
<path d="M45.5666 24.0024C45.5666 12.0902 35.9098 2.43343 23.9976 2.43343C12.0854 2.43343 2.42871 12.0902 2.42871 24.0024C2.42871 35.9146 12.0855 45.5713 23.9976 45.5713C35.9098 45.5713 45.5666 35.9145 45.5666 24.0024Z" fill="#EFC825"/>
<mask id="mask0_2_1569" style="mask-type:alpha" maskUnits="userSpaceOnUse" x="2" y="2" width="44" height="44">
<path d="M45.5666 24.0024C45.5666 12.0902 35.9098 2.43343 23.9976 2.43343C12.0854 2.43343 2.42871 12.0902 2.42871 24.0024C2.42871 35.9146 12.0855 45.5713 23.9976 45.5713C35.9098 45.5713 45.5666 35.9146 45.5666 24.0024Z" fill="#EFC825"/>
</mask>
<g mask="url(#mask0_2_1569)">
<path d="M9.12171 18.5002C9.12171 18.5002 7.70919 32.2663 6.85352 37.0509C6.85352 37.0509 7.614 37.8118 10.5768 38.3934L11.7787 35.2291L12.2159 39.1193C12.2159 39.1193 27.9532 39.8924 34.711 37.96C41.4689 36.0275 40.5463 35.5485 40.5463 35.5485L40.0592 32.5867L41.5822 35.3162C41.615 35.197 44.7831 32.2551 44.5952 32.4298C43.9725 33.0083 39.4734 17.5929 37.7512 14.2393" fill="#E06EA1"/>
<path d="M24.7703 59.7403C33.7717 59.7403 41.0689 54.1401 41.0689 47.2319C41.0689 40.3237 33.7717 34.7235 24.7703 34.7235C15.7688 34.7235 8.47168 40.3237 8.47168 47.2319C8.47168 54.1401 15.7688 59.7403 24.7703 59.7403Z" fill="#C2B3D7"/>
<path d="M29.7811 31.1606L28.5409 35.7148C28.5409 35.7148 24.7235 37.6012 20.7408 35.7148L19.5835 32.7524L29.7811 31.1606Z" fill="#F2AB8F"/>
<path d="M20.1414 34.1806L19.5835 32.7524L29.5782 31.7025L28.6974 35.1521C25.735 35.5394 22.8583 35.1364 20.1414 34.1806Z" fill="#E88D6D"/>
<path d="M37.8808 21.9797C37.3316 29.0151 30.8238 34.245 23.3448 33.6613C15.8659 33.0776 10.1527 28.1259 10.7015 21.0909C11.2507 14.0554 17.7585 8.82552 25.2375 9.40922C32.7164 9.99292 38.4296 14.9442 37.8808 21.9797Z" fill="#F2AB8F"/>
<path d="M21.8356 7.05317C20.1699 7.01726 9.31955 7.28017 8.9496 20.2094C8.9339 20.7582 9.41091 21.2004 9.95346 21.1184C10.117 21.0937 10.6895 21.5295 10.8907 21.4127C17.2546 17.7167 17.7961 12.6266 17.7961 12.6266C17.8529 12.8044 22.0898 16.6099 26.7664 16.2417C29.2155 15.7532 29.3299 13.4386 29.3299 13.4386C33.4458 18.8764 36.2067 19.5574 37.6279 18.5329C38.3643 18.0022 37.9958 17.9792 38.0617 17.1389C38.3765 13.1342 35.525 9.77257 33.1686 8.07517C29.945 5.75327 25.2593 5.46352 22.2523 6.95624C22.1219 7.02109 21.9814 7.05631 21.8356 7.05317Z" fill="#E06EA1"/>
<path d="M22.0453 8.46092C22.0453 8.46092 18.8922 5.75512 19.9274 5.28963C20.9627 4.82413 22.0935 7.84932 22.0935 7.84932C22.0935 7.84932 22.256 4.17418 23.1475 4.03924C24.0391 3.90395 23.6608 7.90511 22.0453 8.46092Z" fill="#E06EA1"/>
<path d="M18.1932 16.8388C18.1932 16.8388 14.5645 18.5142 15.068 19.7248C15.5715 20.9355 20.3348 18.7889 20.9206 17.8332C21.5061 16.8771 20.073 15.6068 18.1932 16.8388Z" fill="#E06EA1"/>
<path d="M29.9461 16.4579C29.9461 16.4579 33.774 17.6068 33.4455 18.8764C33.1171 20.1456 28.0995 18.6895 27.3854 17.8251C26.6716 16.9611 27.9119 15.5022 29.9461 16.4579Z" fill="#E06EA1"/>
<path d="M28.0606 23.2842C27.7813 21.8912 28.464 20.5794 29.5861 20.3545C30.7081 20.1293 31.8441 21.0763 32.1234 22.4693" stroke="#2E3E52" stroke-width="1.1891" stroke-miterlimit="10" stroke-linecap="round"/>
<path d="M22.3135 22.4718C22.2716 24.1905 20.8445 25.5497 19.1258 25.5078C17.4071 25.466 16.048 24.0388 16.0898 22.3201C16.1317 20.6015 17.5588 19.2423 19.2775 19.2841C20.9962 19.326 22.3557 20.7532 22.3135 22.4718Z" fill="white"/>
<path d="M20.9874 21.4288C21.8693 23.311 19.9857 25.1046 18.1488 24.1318C17.8291 23.9627 17.5696 23.69 17.4162 23.3626C16.5347 21.4804 18.418 19.6871 20.2549 20.6596C20.5746 20.8287 20.834 21.1014 20.9874 21.4288Z" fill="#2C3C52"/>
<path d="M21.2757 26.1374C21.2181 26.8731 20.0452 27.5799 18.6745 27.4732C17.3038 27.3662 16.5074 26.605 16.5649 25.8693C16.6225 25.1335 17.5273 24.5049 18.898 24.6119C20.2683 24.7186 21.3328 25.4017 21.2757 26.1374Z" fill="#E88D6D"/>
<path d="M28.6277 25.5081C28.7658 26.233 30.0099 26.8063 31.3603 26.5489C32.7108 26.2912 33.4183 25.4467 33.2802 24.7218C33.1421 23.9969 32.1735 23.4718 30.8227 23.7295C29.4722 23.9868 28.4896 24.7832 28.6277 25.5081Z" fill="#E88D6D"/>
<path d="M11.269 21.6966C11.269 21.6966 9.48552 20.0474 7.69398 21.4177C5.90244 22.788 6.47637 26.5203 8.77699 26.7909C11.0776 27.0615 12.0442 24.6277 12.0442 24.6277L11.269 21.6966Z" fill="#F2AB8F"/>
<path d="M10.0614 22.6116C10.0614 22.6116 8.89016 21.7183 7.90408 22.4725C6.918 23.2267 7.23391 25.2815 8.50033 25.4304C9.76676 25.5793 10.2988 24.2396 10.2988 24.2396L10.0614 22.6116Z" fill="#E88D6D"/>
<path d="M36.8238 19.4316C36.8238 19.4316 38.298 17.5009 40.2978 18.5431C42.2978 19.5857 42.3728 23.3612 40.1527 24.0227C37.9326 24.6842 36.563 22.4522 36.563 22.4522L36.8238 19.4316Z" fill="#F2AB8F"/>
<path d="M37.8383 20.245C37.8383 20.245 38.6472 19.1857 39.7445 19.7575C40.8418 20.3297 40.8833 22.4013 39.665 22.7642C38.4467 23.1272 37.6953 21.9023 37.6953 21.9023L37.8383 20.245Z" fill="#E88D6D"/>
<path d="M24.0706 25.6992C23.2111 25.5594 22.6089 25.1849 22.5611 25.1546C22.2149 24.9342 22.1019 24.415 22.308 23.9949C22.5141 23.5754 22.9607 23.4133 23.3059 23.6312C23.3781 23.6755 24.8771 24.5796 26.2276 23.5304C26.5717 23.263 27.0205 23.3627 27.2293 23.755C27.4382 24.1465 27.328 24.6811 26.9832 24.9489C25.9507 25.7519 24.8928 25.8328 24.0706 25.6992Z" fill="white"/>
<path opacity="0.43" d="M27.2979 23.9294C27.2808 23.8694 27.2592 23.8109 27.2299 23.7554C27.224 23.7439 27.216 23.7355 27.2093 23.7247C25.1444 25.4821 22.7674 24.3876 22.2601 24.1194C22.2343 24.1968 22.2179 24.2753 22.2109 24.3541C22.4718 24.4877 23.0548 24.7516 23.8016 24.873C24.8038 25.0358 26.0984 24.9389 27.2979 23.9294Z" fill="#8BBCFC"/>
<path d="M31.502 21.1397L32.5968 20.4702" stroke="#2E3E52" stroke-width="1.1891" stroke-miterlimit="10" stroke-linecap="round"/>
<path d="M31.9731 22.158L33.1029 21.6957" stroke="#2E3E52" stroke-width="1.1891" stroke-miterlimit="10" stroke-linecap="round"/>
</g>
</svg>
