<svg width="48" height="48" viewBox="0 0 48 48" fill="none" xmlns="http://www.w3.org/2000/svg">
<path d="M24 48C37.2548 48 48 37.2548 48 24C48 10.7452 37.2548 0 24 0C10.7452 0 0 10.7452 0 24C0 37.2548 10.7452 48 24 48Z" fill="#DE53A8"/>
<path d="M45.5676 23.9984C45.5676 12.0859 35.9106 2.42896 23.9982 2.42896C12.0857 2.42896 2.42871 12.0859 2.42871 23.9984C2.42871 35.9109 12.0857 45.5679 23.9982 45.5679C35.9107 45.5679 45.5676 35.9109 45.5676 23.9984Z" fill="#C2B3D7"/>
<mask id="mask0_2_1644" style="mask-type:alpha" maskUnits="userSpaceOnUse" x="2" y="2" width="44" height="44">
<path d="M45.8127 23.9742C45.8127 12.0618 36.1558 2.40478 24.2433 2.40478C12.3308 2.40478 2.67382 12.0618 2.67383 23.9742C2.67383 35.8867 12.3308 45.5437 24.2433 45.5437C36.1558 45.5437 45.8127 35.8867 45.8127 23.9742Z" fill="#C2B3D7"/>
</mask>
<g mask="url(#mask0_2_1644)">
<path d="M24.2455 56.6562C33.4565 56.6562 40.9235 52.122 40.9235 46.5287C40.9235 40.9354 33.4565 36.4011 24.2455 36.4011C15.0344 36.4011 7.56738 40.9354 7.56738 46.5287C7.56738 52.122 15.0344 56.6562 24.2455 56.6562Z" fill="#7CCABF"/>
</g>
<path d="M29.6583 34.1146L28.6868 38.2835C28.6868 38.2835 25.3611 40.0995 21.7846 38.4941L20.6782 35.8354L29.6583 34.1146Z" fill="#816169"/>
<path d="M21.2117 37.1168L20.6782 35.835L29.4933 34.6118L28.8096 37.7678C26.1993 38.1998 23.6427 37.9114 21.2117 37.1168Z" fill="#816169"/>
<path d="M10.5278 27.7208C12.6429 34.2782 20.7167 37.5429 28.5611 35.0129C36.4055 32.4828 41.4182 26.2574 39.303 19.7C37.1879 13.1426 29.1141 9.87788 21.2697 12.4079C13.4254 14.938 8.41267 21.1634 10.5278 27.7208Z" fill="#2C3C52"/>
<path d="M17.3872 31.7018C17.3872 31.7018 19.8322 35.3703 15.7038 36.4606C15.7038 36.4606 14.6166 39.1525 11.4634 37.3655C11.4634 37.3655 8.41523 38.3114 7.76563 35.0408C7.76563 35.0408 4.8984 32.8699 7.31269 31.2391C7.31269 31.2391 7.33361 28.3833 11.3529 27.9761" fill="#2C3C52"/>
<path d="M17.2291 34.2713C20.4406 34.2713 23.0441 32.0167 23.0441 29.2355C23.0441 26.4544 20.4406 24.1998 17.2291 24.1998C14.0175 24.1998 11.4141 26.4544 11.4141 29.2355C11.4141 32.0167 14.0175 34.2713 17.2291 34.2713Z" fill="#EFC825"/>
<path d="M34.785 25.3854C34.785 25.3854 37.8995 22.2654 39.7824 26.0974C39.7824 26.0974 43.7309 26.1191 42.4969 30.2757C42.4969 30.2757 43.2068 34.3264 39.9557 34.1601C39.9557 34.1601 38.3929 37.399 36.3178 35.3536C36.3178 35.3536 33.5141 35.8962 32.3223 32.0362" fill="#2C3C52"/>
<path d="M37.6651 30.5612C39.549 27.9602 39.2502 24.5291 36.9978 22.8977C34.7453 21.2663 31.3922 22.0523 29.5083 24.6533C27.6244 27.2544 27.9231 30.6854 30.1756 32.3169C32.428 33.9483 35.7812 33.1623 37.6651 30.5612Z" fill="#EFC825"/>
<path d="M11.4468 27.7383C13.6568 34.5903 21.353 38.24 28.637 35.8905C35.921 33.5411 40.4187 27.2749 38.2088 20.4232C35.9988 13.5712 28.3026 9.92151 21.0186 12.2706C13.7349 14.62 9.23686 20.8863 11.4468 27.7383Z" fill="#8D7472"/>
<path d="M30.5734 18.6582C30.5734 18.6582 34.4724 19.8521 34.13 21.1454C33.7876 22.4387 28.6769 20.9243 27.9534 20.0387C27.2299 19.1527 28.5036 17.6714 30.5734 18.6582Z" fill="#2C3C52"/>
<path d="M18.1078 20.583C18.1078 20.583 14.5808 22.6294 15.2074 23.8115C15.8336 24.9935 20.4687 22.3606 20.9726 21.334C21.4764 20.3068 19.9 19.1527 18.1078 20.583Z" fill="#2C3C52"/>
<path d="M27.0121 25.309C27.4605 27.0047 29.1987 28.0155 30.894 27.5675C32.5896 27.1191 33.6005 25.3809 33.1524 23.6856C32.704 21.9899 30.9658 20.9787 29.2705 21.4271C27.5749 21.8755 26.5637 23.6134 27.0121 25.309Z" fill="white"/>
<path d="M28.081 23.9603C27.6514 26.037 29.945 27.3711 31.5378 25.9708C31.815 25.727 32.0079 25.3955 32.0828 25.0339C32.5121 22.9571 30.2188 21.6234 28.626 23.0233C28.3488 23.2671 28.1559 23.599 28.081 23.9603Z" fill="#2C3C52"/>
<path d="M28.9094 28.7014C29.1406 29.418 30.4722 29.842 31.807 29.4113C33.1421 28.9807 33.752 28.0368 33.5211 27.3203C33.2899 26.6037 32.2432 26.194 30.9084 26.6246C29.5733 27.0549 28.6782 27.9849 28.9094 28.7014Z" fill="#816169"/>
<path d="M22.8593 25.9332C22.9293 27.6857 21.5653 29.1631 19.8128 29.2331C18.0603 29.3032 16.5829 27.9392 16.5128 26.1867C16.4428 24.4342 17.8068 22.9568 19.5593 22.8867C21.3121 22.817 22.7895 24.1807 22.8593 25.9332Z" fill="white"/>
<path d="M21.4413 24.9586C22.4623 26.8174 20.6623 28.7666 18.7282 27.8966C18.3917 27.7453 18.1096 27.4848 17.9318 27.1612C16.9108 25.3027 18.7108 23.3532 20.6449 24.2232C20.9817 24.3745 21.2638 24.635 21.4413 24.9586Z" fill="#2C3C52"/>
<path d="M22.0434 29.7335C22.0333 30.4863 20.8851 31.283 19.4823 31.2639C18.0799 31.2447 17.219 30.5219 17.2291 29.769C17.2392 29.0162 18.1193 28.3168 19.522 28.336C20.9248 28.3551 22.0535 28.9807 22.0434 29.7335Z" fill="#816169"/>
<path d="M37.7886 21.1586C37.7886 21.1586 39.168 19.1 41.2702 20.0355C43.3724 20.9714 43.6862 24.8111 41.4672 25.6243C39.2478 26.4374 37.7129 24.2508 37.7129 24.2508L37.7886 21.1586Z" fill="#8D7472"/>
<path d="M39.2041 21.781C39.2041 21.781 40.155 20.6171 41.3122 21.1321C42.4695 21.6471 42.6421 23.7608 41.4207 24.2086C40.1992 24.6563 39.354 23.4526 39.354 23.4526L39.2041 21.781Z" fill="#816169"/>
<path d="M11.8926 24.9596C11.8926 24.9596 9.97274 23.3923 8.23489 24.9003C6.4967 26.4084 7.31576 30.1728 9.67566 30.3039C12.0356 30.4347 12.8665 27.8955 12.8665 27.8955L11.8926 24.9596Z" fill="#8D7472"/>
<path d="M11.0782 26.0068C11.0782 26.0068 10.0248 25.147 9.07115 25.9744C8.11749 26.8018 8.56695 28.8674 9.86162 28.9393C11.1566 29.0111 11.6124 27.6178 11.6124 27.6178L11.0782 26.0068Z" fill="#816169"/>
<path d="M23.6528 27.428C23.6528 27.428 25.3171 28.4067 26.5804 26.9154" stroke="#2C3C52" stroke-width="1.5995" stroke-miterlimit="10" stroke-linecap="round"/>
<path d="M14.8265 11.2992C14.8265 11.2992 12.0939 10.038 12.4091 8.67148C12.7243 7.30499 14.6316 10.039 14.6316 10.039C14.6316 10.039 13.3551 6.98978 14.8269 6.35936C16.2983 5.72859 16.8238 11.2995 16.8238 11.2995" fill="#2C3C52"/>
<path d="M16.6638 14.3505C16.6638 14.3505 20.5101 19.668 24.2602 15.8164C24.2602 15.8164 27.6052 19.3639 30.8486 16.1204C30.8486 16.1204 33.6071 20.9759 38.208 20.4232L39.3025 19.6997C39.3025 19.6997 41.6941 15.7149 36.5245 12.8766C36.5245 12.8766 37.4635 6.51452 25.7805 7.30185C25.7805 7.30185 21.658 2.0496 14.6309 10.0387C14.6309 10.0387 5.78968 13.1594 8.65064 19.0599C8.65064 19.0599 4.24849 23.8546 8.23361 24.9003L11.8913 24.9596C11.8913 24.9596 14.428 23.5199 13.9214 19.7694C13.9214 19.7694 15.9598 19.9797 16.6638 14.3505Z" fill="#2C3C52"/>
<path d="M41.4228 14.7019L40.0033 15.104C39.647 15.2047 39.375 15.5356 39.3056 15.952L39.0497 17.4872C39.0002 17.7839 38.5775 17.7944 38.5134 17.5005L38.2083 16.0998C38.1023 15.6141 37.763 15.241 37.3383 15.143L36.0056 14.8358C35.7114 14.7682 35.7012 14.3529 35.9917 14.2706L37.3083 13.8979C37.7275 13.7789 38.0475 13.3902 38.1291 12.9003L38.3648 11.4853C38.4144 11.1886 38.837 11.1781 38.9011 11.472L39.2334 12.9969C39.3227 13.4069 39.6093 13.7218 39.9681 13.8044L41.4092 14.1363C41.7028 14.2047 41.7129 14.6196 41.4228 14.7019Z" fill="#E8CC31"/>
<path d="M6.81586 19.7792L6.30295 19.9239C6.06933 19.9898 5.88766 20.2186 5.83745 20.5101L5.75725 20.9741C5.69902 21.3113 5.25131 21.3138 5.1896 20.9773L5.11986 20.599C5.05675 20.2562 4.84021 19.9891 4.56405 19.9145L4.11774 19.7938C3.81543 19.7119 3.81299 19.2499 4.11425 19.1648L4.55952 19.0389C4.83429 18.9612 5.04803 18.6923 5.10731 18.3492L5.17286 17.9695C5.23109 17.6323 5.6788 17.6299 5.74087 17.9664L5.82664 18.4322C5.87999 18.7216 6.0627 18.9469 6.29597 19.01L6.81272 19.1498C7.11469 19.2321 7.11713 19.6941 6.81586 19.7792Z" fill="#E8CC31"/>
<path d="M35.5005 9.88169L34.8645 10.0613C34.5747 10.1432 34.3498 10.4263 34.2874 10.7883L34.188 11.3636C34.1158 11.7817 33.5607 11.7848 33.484 11.3674L33.3979 10.8985C33.3198 10.4734 33.051 10.1425 32.7089 10.0498L32.1559 9.90017C31.781 9.79871 31.7779 9.22582 32.1517 9.12052L32.7037 8.96465C33.0443 8.86841 33.3093 8.53507 33.3829 8.10967L33.4641 7.63894C33.5363 7.22087 34.0914 7.21774 34.1681 7.63511L34.2741 8.21254C34.34 8.57134 34.567 8.85063 34.8557 8.92908L35.4963 9.10238C35.8711 9.2035 35.8743 9.77604 35.5005 9.88169Z" fill="#E8CC31"/>
</svg>
