<svg width="48" height="48" viewBox="0 0 48 48" fill="none" xmlns="http://www.w3.org/2000/svg">
<path d="M24 48C37.2548 48 48 37.2548 48 24C48 10.7452 37.2548 0 24 0C10.7452 0 0 10.7452 0 24C0 37.2548 10.7452 48 24 48Z" fill="#0B9FD9"/>
<path d="M45.5778 23.9937C45.5778 12.0806 35.9203 2.42304 24.0072 2.42304C12.094 2.42304 2.43652 12.0806 2.43652 23.9937C2.43652 35.9068 12.094 45.5643 24.0072 45.5643C35.9203 45.5643 45.5778 35.9068 45.5778 23.9937Z" fill="#C2B3D7"/>
<mask id="mask0_2_1530" style="mask-type:alpha" maskUnits="userSpaceOnUse" x="2" y="2" width="44" height="44">
<path d="M45.5778 23.9937C45.5778 12.0806 35.9203 2.42304 24.0072 2.42304C12.094 2.42304 2.43652 12.0806 2.43652 23.9937C2.43652 35.9068 12.094 45.5643 24.0072 45.5643C35.9203 45.5643 45.5778 35.9068 45.5778 23.9937Z" fill="#C2B3D7"/>
</mask>
<g mask="url(#mask0_2_1530)">
<path d="M24.5356 58.7549C34.3774 58.7549 42.3558 53.9101 42.3558 47.9338C42.3558 41.9574 34.3774 37.1127 24.5356 37.1127C14.6937 37.1127 6.71533 41.9574 6.71533 47.9338C6.71533 53.9101 14.6937 58.7549 24.5356 58.7549Z" fill="#EA6868"/>
</g>
<path d="M19.083 34.8655L20.256 39.2861C20.256 39.2861 23.867 41.1171 27.6342 39.2861L28.729 36.4105L19.083 34.8655Z" fill="#F2AB8F"/>
<path d="M28.2014 37.7968L28.7293 36.4104L19.2754 35.3912L20.1087 38.7397C22.9101 39.1155 25.6309 38.7243 28.2014 37.7968Z" fill="#E88D6D"/>
<path d="M39.306 27.4141C37.2606 34.4861 28.7446 38.2355 20.2849 35.7888C11.8251 33.3424 6.26876 26.8572 8.31414 19.7852C10.3592 12.7131 18.8755 8.96373 27.3353 11.4101C35.7951 13.8572 41.351 20.3424 39.306 27.4141Z" fill="#2C3C52"/>
<path d="M38.3256 27.4628C36.1885 34.8521 28.0882 39.0008 20.233 36.7291C12.3775 34.4574 7.36999 27.9119 9.50709 20.5225C11.6442 13.1332 19.7445 8.98455 27.5997 11.2562C35.4548 13.5276 40.4623 20.0731 38.3256 27.4628Z" fill="#F2AB8F"/>
<path d="M28.7057 6.52781C19.7937 3.95033 10.6037 8.65724 8.17896 17.0407C8.06389 17.4385 7.57573 20.1433 7.49658 20.5366C7.49658 20.5366 9.04893 20.7301 9.50641 20.5226C12.0033 19.3908 13.3782 15.7244 13.3782 15.7244L15.8211 16.1721L17.0446 13.5092L17.4446 16.4699L20.9088 17.1048L22.315 14.0441L22.7749 17.4469L29.1367 18.6129L30.1831 16.3356L30.5251 18.8671L32.6539 19.2573L34.4604 15.3251L35.0511 19.6966L37.1338 20.0784C37.1338 20.0784 37.8008 23.8951 38.8144 24.5088C39.2259 24.7578 40.7242 24.2797 40.7242 24.2797C42.2521 13.8146 36.8405 8.88039 28.7057 6.52781Z" fill="#2C3C52"/>
<path d="M17.5782 17.5696C17.5782 17.5696 13.4532 18.9716 13.8609 20.3416C14.2685 21.7116 19.6773 19.9277 20.4214 18.9584C21.1651 17.9887 19.7564 16.4482 17.5782 17.5696Z" fill="#2C3C52"/>
<path d="M30.9532 19.2189C30.9532 19.2189 34.7863 21.2894 34.1559 22.5722C33.5255 23.855 28.4898 21.1942 27.9183 20.1139C27.3464 19.0337 28.9922 17.7499 30.9532 19.2189Z" fill="#2C3C52"/>
<path d="M21.5981 24.5562C21.1745 26.3815 19.3512 27.5179 17.5258 27.0942C15.7005 26.6706 14.5641 24.8473 14.9874 23.0219C15.4111 21.1966 17.2343 20.0602 19.0597 20.4839C20.8854 20.9075 22.0218 22.7308 21.5981 24.5562Z" fill="white"/>
<path d="M20.4124 23.1506C20.9385 25.3543 18.5326 26.854 16.786 25.4104C16.482 25.1594 16.2651 24.811 16.1737 24.4278C15.6476 22.2241 18.0535 20.7248 19.8001 22.168C20.1038 22.4191 20.321 22.767 20.4124 23.1506Z" fill="#2C3C52"/>
<path d="M19.6822 28.2407C19.4587 29.0134 18.0504 29.5096 16.6106 29.0933C15.1709 28.6769 14.4885 27.6884 14.7121 26.9157C14.9356 26.143 16.0402 25.6713 17.4799 26.0876C18.9196 26.5043 19.9057 27.468 19.6822 28.2407Z" fill="#E88D6D"/>
<path d="M26.0529 25.0876C26.0351 26.9614 27.54 28.4946 29.4139 28.5124C31.2877 28.5301 32.8209 27.0252 32.8387 25.1514C32.8561 23.2775 31.3515 21.7444 29.4777 21.7266C27.6038 21.7088 26.0703 23.2137 26.0529 25.0876Z" fill="white"/>
<path d="M27.5361 24.0005C26.5064 26.0187 28.4922 28.0421 30.5292 27.0497C30.8838 26.8771 31.1763 26.5898 31.3556 26.2387C32.3852 24.2205 30.3995 22.1974 28.3624 23.1894C28.0082 23.362 27.7153 23.6494 27.5361 24.0005Z" fill="#2C3C52"/>
<path d="M27.0486 29.1195C27.0842 29.9232 28.3363 30.7364 29.8336 30.6705C31.3308 30.6046 32.2266 29.8043 32.191 29.0006C32.1555 28.1969 31.1931 27.479 29.6955 27.5449C28.1982 27.6111 27.0134 28.3161 27.0486 29.1195Z" fill="#E88D6D"/>
<path d="M9.97854 21.2943C9.97854 21.2943 8.4384 19.1404 6.2239 20.2085C4.0094 21.2765 3.79914 25.3875 6.19566 26.1835C8.59217 26.9796 10.1602 24.5946 10.1602 24.5946L9.97854 21.2943Z" fill="#F2AB8F"/>
<path d="M8.48753 22.0049C8.48753 22.0049 7.43415 20.7929 6.21515 21.3808C4.99614 21.9687 4.88038 24.2316 6.19945 24.6699C7.51853 25.1082 8.38187 23.7951 8.38187 23.7951L8.48753 22.0049Z" fill="#E88D6D"/>
<path d="M37.7592 24.5095C37.7592 24.5095 39.7582 22.7734 41.6638 24.3272C43.569 25.8809 42.8169 29.9281 40.3011 30.1446C37.785 30.3612 36.8149 27.6766 36.8149 27.6766L37.7592 24.5095Z" fill="#F2AB8F"/>
<path d="M38.6625 25.6016C38.6625 25.6016 39.7595 24.649 40.8049 25.5016C41.8502 26.3541 41.4377 28.5749 40.0569 28.6938C38.6765 28.8127 38.144 27.3395 38.144 27.3395L38.6625 25.6016Z" fill="#E88D6D"/>
<path d="M25.2544 26.7097C25.2544 26.7097 23.5089 27.8091 22.1113 26.2578" stroke="#2C3C52" stroke-width="1.709" stroke-miterlimit="10" stroke-linecap="round"/>
<path d="M13.5333 35.8305L12.1138 36.2325C11.7575 36.3333 11.4855 36.6642 11.4161 37.0805L11.1605 38.6158C11.111 38.9125 10.6884 38.9229 10.6242 38.629L10.3191 37.2283C10.2131 36.7426 9.87385 36.3695 9.44916 36.2715L8.11648 35.9644C7.82219 35.8967 7.81208 35.4814 8.10253 35.3991L9.41917 35.0264C9.83829 34.9078 10.1584 34.5187 10.24 34.0288L10.4757 32.6138C10.5252 32.3171 10.9478 32.3066 11.012 32.6006L11.3443 34.1254C11.4335 34.5354 11.7201 34.8507 12.0789 34.9333L13.5201 35.2652C13.8136 35.3329 13.8238 35.7482 13.5333 35.8305Z" fill="#E8CC31"/>
<path d="M8.59116 29.642L7.53917 29.9398C7.27522 30.0144 7.07368 30.2595 7.02207 30.5681L6.83239 31.7059C6.79577 31.9259 6.4823 31.9336 6.43488 31.7157L6.20859 30.6776C6.13013 30.3178 5.87873 30.0413 5.56387 29.9687L4.57639 29.741C4.35846 29.6908 4.35079 29.3833 4.56593 29.3223L5.54156 29.0461C5.85223 28.9583 6.08934 28.6699 6.14966 28.3069L6.32435 27.2584C6.36096 27.0384 6.67443 27.0307 6.72185 27.2487L6.96803 28.3784C7.03428 28.6824 7.24662 28.9157 7.51232 28.9771L8.58035 29.2233C8.79862 29.2735 8.8063 29.581 8.59116 29.642Z" fill="#E8CC31"/>
<path d="M39.5961 35.0589L39.0832 35.2036C38.8496 35.2695 38.6679 35.4982 38.6177 35.7897L38.5375 36.2538C38.4793 36.591 38.0316 36.5934 37.9695 36.257L37.9001 35.8786C37.837 35.5359 37.6205 35.2688 37.3443 35.1942L36.898 35.0735C36.5957 34.9916 36.5933 34.5296 36.8945 34.4445L37.3398 34.3186C37.6146 34.2409 37.8283 33.972 37.8876 33.6289L37.9531 33.2492C38.0114 32.912 38.4591 32.9096 38.5211 33.2461L38.6069 33.7119C38.6603 34.0013 38.843 34.2266 39.0762 34.2897L39.593 34.4295C39.895 34.5118 39.8974 34.9738 39.5961 35.0589Z" fill="#E8CC31"/>
<path d="M13.2241 10.4762L12.7111 10.6209C12.4775 10.6868 12.2959 10.9156 12.2457 11.2071L12.1655 11.6712C12.1072 12.0084 11.6595 12.0108 11.5974 11.6743L11.5281 11.296C11.465 10.9532 11.2484 10.6861 10.9723 10.6115L10.5259 10.4909C10.2236 10.4089 10.2212 9.94727 10.5225 9.86184L10.9677 9.73597C11.2425 9.65821 11.4562 9.38938 11.5155 9.04627L11.5811 8.66655C11.6393 8.32937 12.087 8.32693 12.1491 8.66341L12.2348 9.12925C12.2882 9.41866 12.4709 9.64391 12.7042 9.70702L13.2209 9.84685C13.5229 9.92914 13.5253 10.3908 13.2241 10.4762Z" fill="#E8CC31"/>
<path d="M43.4482 20.4873L42.8122 20.6669C42.5225 20.7488 42.2976 21.0319 42.2351 21.3939L42.1358 21.9692C42.0636 22.3873 41.5085 22.3904 41.4318 21.973L41.3456 21.5041C41.2675 21.079 40.9987 20.7481 40.6567 20.6553L40.1036 20.5058C39.7288 20.4043 39.7257 19.8314 40.0994 19.7261L40.6514 19.5702C40.9921 19.474 41.2571 19.1407 41.3307 18.7153L41.4119 18.2445C41.4841 17.8265 42.0392 17.8233 42.1159 18.2407L42.2222 18.8181C42.2881 19.1769 42.5151 19.4562 42.8039 19.5347L43.4444 19.708C43.8189 19.8091 43.822 20.382 43.4482 20.4873Z" fill="#E8CC31"/>
</svg>
