<svg width="181" height="319" viewBox="0 0 181 319" fill="none" xmlns="http://www.w3.org/2000/svg">
<path d="M11.0558 312.311C13.7761 313.103 139.404 331.806 163.728 300.135L129.72 283L0 288.968L11.0558 312.311Z" fill="#569916"/>
<path d="M0.0101743 119.611C-0.718116 116.057 37.8837 102.587 41.4274 101.186C79.7464 86.0344 119.199 83.7278 152.667 111.194C183.716 136.676 189.868 176.922 165.484 209.432C165.484 209.432 218.318 262.124 123.516 291.586L47.047 290.821C47.047 290.821 0.0985354 119.934 0.0101743 119.611Z" fill="#D33131"/>
<path d="M119.546 208.644C125.919 209.217 136.445 201.665 140.888 197.956C163.213 179.325 157.147 141.702 133.904 127.254C96.7273 104.144 40.1851 113.318 0.0117188 119.619V294.518C0.0117188 294.518 162.305 321.304 159.154 248.823C159.154 248.823 163.438 212.586 119.546 208.644ZM66.9774 254.083V228.991C89.0368 221.113 92.0075 241.537 92.0075 241.537C90.2509 260.386 66.9774 254.083 66.9774 254.083Z" fill="#FF6462"/>
<path d="M44.1954 173.045C53.6481 171.844 60.1253 161.536 58.6627 150.021C57.2001 138.506 48.3515 130.144 38.8988 131.345C29.4461 132.545 22.9689 142.853 24.4315 154.369C25.8941 165.884 34.7427 174.246 44.1954 173.045Z" fill="white"/>
<path d="M109.499 152.044C111.156 140.554 104.854 130.137 95.4223 128.776C85.9905 127.416 77.0008 135.627 75.3432 147.117C73.6856 158.606 79.9877 169.023 89.4194 170.384C98.8512 171.745 107.841 163.534 109.499 152.044Z" fill="white"/>
<path d="M48.0317 160.789C52.7084 160.195 55.913 155.095 55.1894 149.398C54.4657 143.701 50.0879 139.564 45.4112 140.158C40.7346 140.752 37.53 145.852 38.2536 151.549C38.9772 157.246 43.3551 161.383 48.0317 160.789Z" fill="black"/>
<path d="M106.976 150.334C108.015 144.685 105.099 139.415 100.462 138.561C95.8258 137.708 91.2244 141.595 90.1849 147.243C89.1454 152.892 92.0614 158.162 96.6981 159.016C101.335 159.869 105.936 155.982 106.976 150.334Z" fill="black"/>
<path d="M29.3415 130.173C29.6127 129.826 29.9224 129.506 30.2343 129.197C30.573 128.86 30.9268 128.538 31.2934 128.231C31.3964 128.145 31.5004 128.06 31.6055 127.977C31.66 127.933 31.7147 127.891 31.7694 127.848C31.6089 127.973 31.7544 127.86 31.8269 127.806C32.0764 127.619 32.3314 127.44 32.5913 127.268C33.1707 126.885 33.7755 126.54 34.4028 126.242C34.5606 126.167 34.7202 126.095 34.8807 126.026C34.7321 126.09 34.8777 126.027 34.9425 126.002C35.0495 125.959 35.1571 125.917 35.2654 125.877C35.6222 125.745 35.9851 125.628 36.3526 125.528C37.8795 125.116 39.5369 125.044 41.058 125.342C43.5224 125.825 45.7048 127.08 47.6384 128.693C48.0184 129.01 48.5629 129.066 48.9356 128.693C49.2619 128.367 49.3178 127.715 48.9356 127.396C47.0119 125.791 44.8456 124.441 42.4107 123.776C40.5438 123.265 38.5937 123.198 36.6956 123.566C33.8922 124.11 31.3224 125.647 29.2593 127.588C28.8318 127.99 28.4074 128.412 28.0448 128.875C27.7397 129.265 27.6648 129.792 28.0448 130.172C28.3619 130.49 29.0345 130.565 29.3415 130.173Z" fill="black"/>
<path d="M82.5908 125.461C82.8931 125.149 83.2304 124.866 83.5685 124.594C83.6471 124.531 83.7269 124.469 83.8064 124.406C83.586 124.579 83.8636 124.364 83.9458 124.304C84.1592 124.146 84.3767 123.994 84.5974 123.847C85.0915 123.517 85.603 123.214 86.1298 122.939C86.4334 122.781 86.7422 122.634 87.0553 122.496C87.1186 122.468 87.2644 122.409 87.1158 122.469C87.199 122.435 87.2822 122.401 87.3659 122.369C87.5362 122.302 87.7078 122.239 87.8805 122.179C88.5941 121.93 89.3285 121.741 90.0749 121.622C90.1281 121.613 90.3283 121.584 90.1712 121.605C90.2715 121.592 90.3723 121.58 90.4729 121.57C90.6772 121.548 90.8823 121.532 91.0875 121.522C91.4951 121.501 91.9039 121.502 92.3111 121.525C92.5135 121.537 92.7153 121.555 92.9171 121.577C92.9642 121.581 93.0113 121.587 93.0584 121.593C92.9186 121.575 93.0782 121.596 93.0987 121.6C93.2103 121.617 93.3216 121.635 93.4329 121.655C93.8933 121.739 94.3483 121.851 94.795 121.99C97.1382 122.717 99.2036 124.264 100.934 126.046C101.758 126.894 103.055 125.597 102.232 124.749C99.18 121.606 95.1062 119.303 90.6038 119.722C87.7502 119.988 85.0401 121.173 82.7733 122.906C82.2612 123.297 81.7438 123.7 81.2941 124.164C80.4719 125.013 81.7674 126.311 82.5908 125.461Z" fill="black"/>
<path d="M69.1418 147.06C69.114 149.775 69.0862 152.489 69.0587 155.203C69.0547 155.592 69.0507 155.981 69.0468 156.37C69.2712 156.075 69.4956 155.78 69.7203 155.485C68.1133 155.776 66.4907 156.334 65.0503 157.097C63.9717 157.668 62.9162 158.446 62.2858 159.514C61.541 160.776 61.6309 162.212 62.2307 163.508C62.6588 164.434 63.3427 165.25 64.0557 165.968C65.1494 167.071 66.4131 168.007 67.6981 168.873C68.109 169.15 68.7144 168.952 68.9532 168.544C69.2174 168.093 69.0361 167.567 68.6242 167.289C67.5822 166.587 66.572 165.838 65.6597 164.971C65.3038 164.633 64.9632 164.278 64.6501 163.9C64.6159 163.859 64.5828 163.817 64.5486 163.776C64.4593 163.667 64.6305 163.886 64.5483 163.777C64.4881 163.697 64.4288 163.616 64.3716 163.534C64.2578 163.372 64.1502 163.206 64.0508 163.035C63.9652 162.887 63.8888 162.736 63.8148 162.582C63.7167 162.378 63.8261 162.637 63.7906 162.528C63.7644 162.447 63.7313 162.368 63.7053 162.287C63.6619 162.151 63.6252 162.013 63.5977 161.873C63.5907 161.837 63.5598 161.59 63.5776 161.769C63.5947 161.942 63.5739 161.69 63.5718 161.646C63.5656 161.52 63.5724 161.395 63.5769 161.269C63.5846 161.05 63.5427 161.398 63.5711 161.285C63.5876 161.22 63.595 161.151 63.6103 161.085C63.6375 160.969 63.6745 160.856 63.7127 160.743C63.7647 160.59 63.7549 160.679 63.6953 160.776C63.7332 160.714 63.7586 160.641 63.7928 160.576C63.8487 160.47 63.9108 160.367 63.9775 160.268C64.0111 160.217 64.049 160.17 64.082 160.119C64.1505 160.015 63.9286 160.296 64.0952 160.107C64.2673 159.912 64.4446 159.726 64.6409 159.555C64.7149 159.491 65.0522 159.262 64.7941 159.423C64.9118 159.35 65.0201 159.258 65.1356 159.18C65.3643 159.026 65.601 158.884 65.8428 158.752C66.0783 158.623 66.3186 158.503 66.5626 158.39C66.683 158.335 66.8069 158.285 66.9267 158.229C66.6399 158.364 67.0689 158.173 67.1606 158.137C67.6205 157.959 68.0882 157.801 68.5612 157.661C69.1021 157.501 69.6521 157.354 70.2077 157.254C70.6018 157.182 70.8773 156.746 70.8813 156.369C70.9091 153.655 70.9369 150.94 70.9644 148.225C70.9684 147.837 70.9724 147.448 70.9763 147.059C70.9883 145.879 69.1538 145.878 69.1418 147.06Z" fill="black"/>
<path d="M103.131 174.169C103.119 175.382 101.002 176.343 98.4036 176.317C95.8047 176.29 93.7082 175.285 93.7208 174.073C93.7333 172.86 95.85 171.899 98.4485 171.925C101.047 171.952 103.144 172.956 103.131 174.169Z" fill="#FF7BAC"/>
<path d="M48.5103 177.375C48.4977 178.588 46.3811 179.549 43.7825 179.523C41.184 179.496 39.0871 178.492 39.0997 177.279C39.1119 176.066 41.2289 175.105 43.8274 175.131C46.4263 175.158 48.5228 176.162 48.5103 177.375Z" fill="#FF7BAC"/>
<path d="M113.88 139.147C113.344 139.425 112.737 139.544 112.128 139.595C111.517 139.645 110.897 139.624 110.281 139.565C109.898 139.527 109.505 139.472 109.126 139.403C108.966 138.983 108.778 138.571 108.599 138.159C108.381 137.704 108.148 137.255 107.902 136.815C107.989 136.712 108.076 136.608 108.162 136.5C108.402 136.205 108.626 135.9 108.841 135.591C109.27 134.971 109.651 134.321 109.979 133.65C110.314 132.983 110.567 132.277 110.764 131.567C110.967 130.857 111.05 130.122 111.087 129.403C110.904 130.104 110.682 130.783 110.354 131.413C110.03 132.042 109.665 132.642 109.231 133.192C108.804 133.745 108.337 134.262 107.837 134.74C107.586 134.978 107.33 135.209 107.064 135.426C107.058 135.431 107.051 135.437 107.045 135.442C106.985 135.356 106.928 135.266 106.866 135.181C105.518 133.317 103.789 131.723 101.801 130.62C99.8146 129.536 97.6202 128.818 95.4023 128.786C97.5444 129.291 99.5244 130.247 101.237 131.502C102.956 132.753 104.379 134.337 105.479 136.11C106.03 136.997 106.479 137.943 106.884 138.905C107.061 139.398 107.265 139.879 107.411 140.384C107.488 140.635 107.574 140.882 107.644 141.134L107.838 141.899C108.352 143.937 108.606 146.052 108.69 148.18L108.693 148.233L108.702 148.303C108.729 148.492 108.757 148.757 108.772 148.993C108.79 149.236 108.801 149.483 108.808 149.73C108.817 150.225 108.814 150.723 108.79 151.22C108.751 152.217 108.62 153.211 108.442 154.194C108.073 156.16 107.439 158.08 106.52 159.871C106.298 160.323 106.043 160.758 105.792 161.197C105.517 161.619 105.258 162.056 104.956 162.464C104.379 163.3 103.721 164.081 103.026 164.836C101.627 166.34 100.01 167.661 98.2825 168.869C100.231 168.061 102.062 166.938 103.723 165.573C104.543 164.88 105.329 164.133 106.029 163.305C106.743 162.489 107.385 161.603 107.948 160.668C109.084 158.803 109.905 156.736 110.382 154.595C110.626 153.526 110.781 152.436 110.855 151.338C110.897 150.79 110.904 150.238 110.897 149.685C110.892 149.408 110.881 149.131 110.863 148.851C110.847 148.588 110.826 148.347 110.788 148.054C110.702 145.816 110.399 143.567 109.78 141.382L109.652 140.951C109.87 140.931 110.088 140.909 110.309 140.881C110.981 140.793 111.651 140.663 112.303 140.455C112.952 140.246 113.598 139.96 114.13 139.507C114.392 139.28 114.618 139.006 114.767 138.699C114.918 138.392 114.988 138.06 114.993 137.736C114.846 138.378 114.414 138.875 113.88 139.147Z" fill="black"/>
<path d="M19.0525 143.13C19.6028 143.378 20.2155 143.463 20.8261 143.482C21.4388 143.499 22.0567 143.444 22.6685 143.352C23.0492 143.293 23.4384 143.216 23.8136 143.127C23.9502 142.698 24.1156 142.278 24.2716 141.856C24.4648 141.39 24.6727 140.929 24.895 140.476C24.8017 140.378 24.71 140.278 24.618 140.176C24.363 139.894 24.1224 139.601 23.89 139.305C23.4283 138.709 23.0131 138.081 22.649 137.429C22.2784 136.781 21.9873 136.089 21.7516 135.391C21.5107 134.693 21.3878 133.964 21.3122 133.248C21.5321 133.938 21.7913 134.603 22.1534 135.215C22.5108 135.825 22.9079 136.405 23.3711 136.93C23.8276 137.459 24.3217 137.95 24.847 138.401C25.1108 138.624 25.3793 138.841 25.6557 139.044C25.6624 139.048 25.6694 139.053 25.6762 139.058C25.7315 138.968 25.7829 138.876 25.8404 138.788C27.0857 136.853 28.7254 135.168 30.6501 133.958C32.5747 132.768 34.7272 131.932 36.9399 131.779C34.8284 132.4 32.9034 133.462 31.2619 134.809C29.6127 136.151 28.2778 137.811 27.2768 139.64C26.775 140.556 26.3776 141.525 26.0256 142.507C25.8749 143.009 25.6982 143.5 25.5799 144.013C25.5166 144.267 25.4438 144.518 25.3882 144.775L25.2353 145.548C24.8329 147.612 24.6941 149.736 24.7256 151.867L24.7265 151.92L24.7204 151.99C24.7039 152.181 24.6901 152.446 24.688 152.684C24.6834 152.927 24.6855 153.174 24.6929 153.421C24.71 153.916 24.7403 154.413 24.7913 154.908C24.8846 155.902 25.0696 156.887 25.3001 157.859C25.7755 159.802 26.5127 161.685 27.5284 163.423C27.7742 163.863 28.0524 164.283 28.3273 164.707C28.6251 165.114 28.9067 165.537 29.2302 165.927C29.8521 166.73 30.5519 167.475 31.2863 168.191C32.7649 169.617 34.4511 170.849 36.2419 171.961C34.2524 171.259 32.3635 170.237 30.6308 168.966C29.7744 168.318 28.9486 167.615 28.205 166.825C27.4471 166.049 26.7585 165.2 26.1452 164.297C24.9093 162.496 23.9777 160.477 23.3852 158.365C23.0825 157.31 22.8688 156.231 22.7361 155.139C22.6636 154.594 22.6269 154.043 22.6043 153.49C22.5939 153.213 22.5893 152.936 22.5924 152.655C22.5945 152.392 22.6022 152.15 22.6239 151.855C22.5887 149.616 22.7688 147.353 23.2687 145.138L23.373 144.701C23.1541 144.693 22.9348 144.683 22.7132 144.667C22.0372 144.616 21.3615 144.522 20.6983 144.35C20.0394 144.177 19.3784 143.927 18.8231 143.503C18.5489 143.289 18.3086 143.028 18.1429 142.73C17.9753 142.432 17.8882 142.104 17.8652 141.781C18.0459 142.414 18.5046 142.887 19.0525 143.13Z" fill="black"/>
<path d="M69.514 190.931C73.3198 190.931 76.4049 187.747 76.4049 183.821C76.4049 179.894 73.3198 176.711 69.514 176.711C65.7082 176.711 62.623 179.894 62.623 183.821C62.623 187.747 65.7082 190.931 69.514 190.931Z" fill="black"/>
<path d="M7.79999 197.803C10.3839 215.957 7.84309 236.497 7.84309 254.885C7.84309 265.623 7.84309 276.359 7.84309 287.097C7.84309 287.097 30.4106 293.791 53.7168 288.375C46.4162 286.374 39.0138 284.655 31.8883 282.062C24.909 279.522 19.0815 276.833 17.2158 269.17C14.6659 258.694 14.4176 247.293 12.9803 236.545C11.251 223.615 9.52197 210.685 7.79297 197.755C7.79541 197.77 7.79754 197.787 7.79999 197.803Z" fill="#FC9595"/>
<mask id="mask0_6_490" style="mask-type:luminance" maskUnits="userSpaceOnUse" x="59" y="45" width="79" height="55">
<path d="M137.35 51.1821L63.7637 45.1274L59.8211 93.044L133.407 99.0987L137.35 51.1821Z" fill="white"/>
</mask>
<g mask="url(#mask0_6_490)">
<path d="M93.0621 62.8612C93.1624 62.6457 93.2587 62.4323 93.351 62.2247C94.559 59.5069 96.2324 56.9967 98.276 54.836C99.1404 53.9221 100.105 53.0486 101.289 52.6239C103.288 51.9069 105.582 52.6254 107.238 53.9542C108.894 55.283 110.029 57.1407 111.073 58.9898C111.756 60.2003 112.442 61.4578 113.525 62.3289C114.312 62.9624 115.262 63.3519 116.142 63.8482C117.538 64.6349 118.941 65.8982 119.938 67.3071C120.945 68.7319 121.185 71.653 122.242 72.7512C123.256 73.8042 126.282 73.9574 127.724 74.6441C129.851 75.6574 131.78 77.0895 133.345 78.8518C133.978 79.5642 134.571 80.3698 134.726 81.31C134.852 82.0729 134.676 82.8528 134.445 83.5906C133.205 87.5503 130.266 90.946 126.525 92.7416C130.312 93.6677 132.078 98.4872 130.905 102.205C129.733 105.924 126.495 108.607 123.144 110.599C120.774 112.007 118.267 113.182 115.669 114.107C111.184 115.701 107.202 114.562 108.668 120.407C109.635 124.26 111.879 127.951 111.292 132.059C110.809 135.432 108.372 138.295 105.424 140.003C102.476 141.711 99.056 142.412 95.6747 142.829C90.5623 143.461 84.4012 143.007 81.6984 138.622C79.4808 135.024 80.6215 130.422 80.664 126.195C80.672 125.421 80.606 124.564 80.0547 124.021C79.604 123.576 78.9347 123.451 78.3055 123.384C74.7264 123.003 71.1293 123.818 67.53 123.803C63.4982 123.787 59.4754 122.705 55.9795 120.696C52.6756 118.798 49.7407 115.898 48.7709 112.213C47.8949 108.885 48.7076 105.353 49.8007 102.09C50.5394 99.8839 51.4487 97.6556 53.092 96.0091C54.7351 94.363 57.2774 93.4222 59.4507 94.2514C61.2485 94.9372 62.9029 96.7536 64.7248 96.1348C65.6607 95.8168 66.2695 94.9198 66.6978 94.0291C68.6995 89.8676 68.1862 84.9298 66.9442 80.4821C65.7023 76.0343 63.7785 71.7637 63.0325 67.2065C62.4424 63.603 62.4427 57.5571 65.6258 54.9806C68.5408 52.6211 74.0789 51.9216 77.5246 53.0327C81.1248 54.1936 84.0688 57.2128 85.1384 60.8411C85.8407 63.2241 86.4154 66.469 88.8889 66.7017C90.9154 66.8925 92.1626 64.7911 93.0621 62.8612Z" fill="#F0AD20"/>
</g>
<mask id="mask1_6_490" style="mask-type:luminance" maskUnits="userSpaceOnUse" x="59" y="45" width="79" height="55">
<path d="M137.35 51.1821L63.7637 45.1274L59.8211 93.044L133.407 99.0987L137.35 51.1821Z" fill="white"/>
</mask>
<g mask="url(#mask1_6_490)">
<path d="M85.8877 109.8C92.8597 109.8 98.5117 104.148 98.5117 97.1758C98.5117 90.2037 92.8597 84.5518 85.8877 84.5518C78.9156 84.5518 73.2637 90.2037 73.2637 97.1758C73.2637 104.148 78.9156 109.8 85.8877 109.8Z" fill="#F9D179"/>
</g>
<mask id="mask2_6_490" style="mask-type:luminance" maskUnits="userSpaceOnUse" x="59" y="45" width="79" height="55">
<path d="M137.35 51.1821L63.7637 45.1274L59.8211 93.044L133.407 99.0987L137.35 51.1821Z" fill="white"/>
</mask>
<g mask="url(#mask2_6_490)">
<path d="M127.942 93.3155C127.942 93.3155 124.438 90.4968 105.626 93.3396C105.626 93.3396 102.418 93.8074 102.229 96.5506" fill="#F0AD20"/>
<path d="M127.942 93.3154C127.672 93.2032 127.388 93.15 127.109 93.098C126.826 93.054 126.551 93.0014 126.265 92.9849C125.981 92.9632 125.703 92.929 125.418 92.9241C125.134 92.9118 124.856 92.8867 124.571 92.8919C123.444 92.8562 122.31 92.9023 121.184 92.9381C118.925 93.0295 116.665 93.2179 114.398 93.3796L110.992 93.6505C110.423 93.6967 109.854 93.7389 109.283 93.7719L107.569 93.8985C106.995 93.9312 106.422 93.9679 105.846 93.9896C105.358 94.0046 104.831 94.1211 104.346 94.2978C103.858 94.4785 103.403 94.7396 103.026 95.112C102.652 95.4847 102.379 95.984 102.228 96.5508C102.157 95.9711 102.264 95.3385 102.573 94.7824C102.872 94.2189 103.354 93.7603 103.884 93.4111C104.149 93.2329 104.433 93.0873 104.725 92.9595C105.013 92.8332 105.329 92.7226 105.649 92.6562C106.213 92.5183 106.779 92.3957 107.344 92.2691C107.912 92.1548 108.478 92.0239 109.049 91.9267C109.62 91.827 110.194 91.7371 110.768 91.6509C111.913 91.4623 113.073 91.3614 114.23 91.2486C116.55 91.0718 118.892 91.0251 121.234 91.2498C122.404 91.3773 123.573 91.5347 124.723 91.8454C125.009 91.9129 125.295 92.0068 125.577 92.0967C125.86 92.1835 126.141 92.2896 126.415 92.4073C126.958 92.6422 127.515 92.899 127.942 93.3154Z" fill="#CC8609"/>
</g>
<mask id="mask3_6_490" style="mask-type:luminance" maskUnits="userSpaceOnUse" x="48" y="37" width="86" height="88">
<path d="M98.0288 37.9135L48.0059 92.2207L83.3686 124.794L133.392 70.4865L98.0288 37.9135Z" fill="white"/>
</mask>
<g mask="url(#mask3_6_490)">
<path d="M110.418 89.7006C112.722 86.7455 111.768 82.1502 108.288 79.4365C104.808 76.7229 100.119 76.9186 97.8146 79.8736C95.5105 82.8286 96.4638 87.424 99.9441 90.1376C103.424 92.8513 108.113 92.6556 110.418 89.7006Z" fill="white"/>
</g>
<mask id="mask4_6_490" style="mask-type:luminance" maskUnits="userSpaceOnUse" x="59" y="45" width="79" height="55">
<path d="M137.35 51.1821L63.7637 45.1274L59.8211 93.044L133.407 99.0987L137.35 51.1821Z" fill="white"/>
</mask>
<g mask="url(#mask4_6_490)">
<path d="M110.763 82.8759C109.854 84.1001 107.707 84.0457 105.968 82.7546C104.228 81.4634 103.554 79.424 104.463 78.2001C105.372 76.9759 107.519 77.0303 109.258 78.3215C110.998 79.6124 111.671 81.6517 110.763 82.8759Z" fill="#42210B"/>
<path d="M104.511 75.4268C103.85 76.1593 102.78 76.2709 102.121 75.6759C101.461 75.081 101.463 74.0053 102.124 73.2728C102.784 72.5402 103.855 72.4286 104.514 73.0233C105.173 73.6186 105.172 74.6945 104.511 75.4268Z" fill="#42210B"/>
<path d="M113.566 81.651C113.396 81.618 113.363 81.3883 113.517 81.3101C113.653 81.2407 113.795 81.1829 113.94 81.1321C114.233 81.033 114.543 80.9716 114.869 80.9612C115.194 80.9517 115.537 80.9951 115.878 81.1257C116.218 81.2532 116.555 81.4877 116.793 81.8057C117.033 82.1221 117.161 82.4979 117.203 82.8498L117.223 83.1027C117.224 83.1091 117.224 83.1155 117.224 83.1219C117.223 83.2036 117.218 83.2849 117.213 83.3656C117.207 83.5319 117.169 83.6863 117.14 83.8426C117.14 83.8478 117.138 83.853 117.137 83.8579C117.118 83.9322 117.094 84.0052 117.072 84.0783C117.048 84.1532 117.028 84.2296 116.995 84.3C116.933 84.4424 116.876 84.5858 116.798 84.7185C116.72 84.8509 116.646 84.9833 116.553 85.1062C116.552 85.1075 116.551 85.1087 116.55 85.1099C116.449 85.2459 116.232 85.1753 116.225 85.0062C116.204 84.5611 116.206 84.1477 116.172 83.7612C116.138 83.5096 116.12 83.265 116.051 83.062C115.989 82.8565 115.91 82.6872 115.807 82.5496C115.703 82.4117 115.571 82.2955 115.394 82.1888C115.217 82.0833 114.999 81.9968 114.76 81.9225C114.398 81.8118 113.999 81.7351 113.566 81.651Z" fill="#42210B"/>
<path d="M100.648 80.6801C100.673 80.4563 100.989 80.4322 101.054 80.648C101.055 80.6508 101.056 80.6532 101.057 80.656C101.134 80.9177 101.24 81.1663 101.348 81.4063C101.573 81.8854 101.859 82.3217 102.181 82.7256C102.259 82.828 102.335 82.9304 102.427 83.024C102.512 83.1179 102.594 83.2142 102.676 83.3086C102.68 83.3126 102.683 83.3163 102.687 83.3203C102.777 83.4108 102.87 83.4973 102.958 83.589C103.047 83.6816 103.136 83.7752 103.238 83.8584C103.437 84.0284 103.615 84.213 103.834 84.3726L104.145 84.6249L104.226 84.6915L104.293 84.7444L104.443 84.8557C105.277 85.4522 106.198 85.9644 107.166 86.2698C107.652 86.4227 108.155 86.5205 108.677 86.5358C108.945 86.5486 109.216 86.5331 109.493 86.4955C109.716 86.4652 109.824 86.7666 109.629 86.8791C109.624 86.8816 109.62 86.884 109.616 86.8862C109.492 86.9693 109.356 87.0259 109.222 87.0941C109.217 87.0965 109.212 87.099 109.206 87.1008C109.068 87.1553 108.928 87.2155 108.783 87.2558C108.193 87.439 107.557 87.4772 106.941 87.4124C106.632 87.3815 106.328 87.3216 106.031 87.2412C105.733 87.1647 105.444 87.0608 105.162 86.9452C104.599 86.707 104.068 86.4153 103.572 86.0527C103.51 86.0072 103.448 85.9601 103.385 85.9112L103.287 85.8329L103.207 85.7638L102.873 85.4727C102.651 85.2838 102.441 85.0587 102.236 84.8389C102.131 84.7316 102.037 84.6108 101.943 84.4913C101.849 84.3745 101.759 84.2555 101.67 84.1354C101.667 84.1314 101.664 84.1274 101.662 84.1231C101.498 83.866 101.326 83.619 101.196 83.3407C100.919 82.7956 100.717 82.2046 100.65 81.5968C100.641 81.443 100.622 81.2935 100.623 81.1415C100.627 80.9889 100.626 80.8397 100.648 80.6893C100.648 80.6862 100.648 80.6832 100.648 80.6801Z" fill="#42210B"/>
<path d="M107.278 82.0876L106.199 81.3491L103.574 85.1861L104.653 85.9245L107.278 82.0876Z" fill="#42210B"/>
</g>
<mask id="mask5_6_490" style="mask-type:luminance" maskUnits="userSpaceOnUse" x="59" y="45" width="79" height="55">
<path d="M137.35 51.1821L63.7637 45.1274L59.8211 93.044L133.407 99.0987L137.35 51.1821Z" fill="white"/>
</mask>
<g mask="url(#mask5_6_490)">
<path d="M106.174 62.3115C105.815 60.7387 105.177 58.4276 104.192 56.458C103.399 54.8708 101.266 54.5862 100.089 55.9134C98.6856 57.4948 97.0526 59.9808 96.475 63.388C96.235 64.804 97.2369 66.1327 98.6651 66.2819C100.18 66.4403 102.32 66.3021 104.82 65.1155C105.873 64.6159 106.433 63.448 106.174 62.3115Z" fill="#EF7745"/>
</g>
<mask id="mask6_6_490" style="mask-type:luminance" maskUnits="userSpaceOnUse" x="59" y="45" width="79" height="55">
<path d="M137.35 51.1821L63.7637 45.1274L59.8211 93.044L133.407 99.0987L137.35 51.1821Z" fill="white"/>
</mask>
<g mask="url(#mask6_6_490)">
<path d="M124.397 80.1015C125.981 79.7967 128.354 79.4503 130.553 79.5582C132.325 79.6454 133.445 81.4832 132.704 83.0954C131.821 85.0164 130.203 87.5123 127.317 89.4128C126.117 90.2025 124.498 89.8203 123.786 88.5732C123.031 87.2502 122.295 85.2354 122.375 82.4693C122.409 81.3041 123.253 80.3217 124.397 80.1015Z" fill="#EF7745"/>
</g>
<mask id="mask7_6_490" style="mask-type:luminance" maskUnits="userSpaceOnUse" x="59" y="45" width="79" height="55">
<path d="M137.35 51.1821L63.7637 45.1274L59.8211 93.044L133.407 99.0987L137.35 51.1821Z" fill="white"/>
</mask>
<g mask="url(#mask7_6_490)">
<path d="M117.564 71.6955C117.265 71.9823 116.967 72.2566 116.676 72.5164C117.638 73.7339 118.095 74.7985 117.735 75.1664C117.358 75.5537 116.183 75.052 114.858 74.0122C113.116 75.3149 111.74 75.9344 111.295 75.4981C110.85 75.0627 111.433 73.6777 112.69 71.9108C111.569 70.5771 111.009 69.3709 111.396 68.9753C111.764 68.5983 112.881 69.0597 114.157 70.0371C114.401 69.751 114.658 69.4602 114.923 69.1667C113.366 67.4285 112.49 65.8949 112.891 65.4836C113.292 65.0749 114.842 65.912 116.615 67.423C117.26 66.7993 117.896 66.2287 118.505 65.7246C119.314 66.4143 120.122 67.2007 120.875 68.0849C120.382 68.705 119.826 69.3538 119.216 70.0142C120.584 71.6065 121.323 72.9705 120.949 73.3539C120.575 73.7385 119.192 73.0283 117.564 71.6955Z" fill="#42210B"/>
</g>
<mask id="mask8_6_490" style="mask-type:luminance" maskUnits="userSpaceOnUse" x="54" y="0" width="60" height="82">
<path d="M66.365 0.496257L54.2969 73.3359L101.727 81.1943L113.795 8.35457L66.365 0.496257Z" fill="white"/>
</mask>
<g mask="url(#mask8_6_490)">
<path d="M80.5958 64.8822C80.8321 62.0102 78.2197 59.4513 74.761 59.1668C71.3022 58.8822 68.3067 60.9797 68.0704 63.8516C67.8341 66.7236 70.4465 69.2825 73.9052 69.567C77.364 69.8516 80.3595 67.7542 80.5958 64.8822Z" fill="#F9D179"/>
</g>
<mask id="mask9_6_490" style="mask-type:luminance" maskUnits="userSpaceOnUse" x="59" y="45" width="79" height="55">
<path d="M137.35 51.1821L63.7637 45.1274L59.8211 93.044L133.407 99.0987L137.35 51.1821Z" fill="white"/>
</mask>
<g mask="url(#mask9_6_490)">
<path d="M68.6827 59.2787C68.6142 60.1125 67.8825 60.7329 67.0488 60.6644C66.215 60.5959 65.5946 59.8642 65.6634 59.0305C65.7319 58.1967 66.4636 57.5763 67.2973 57.6448C68.1308 57.7133 68.7512 58.445 68.6827 59.2787Z" fill="#F9D179"/>
</g>
<mask id="mask10_6_490" style="mask-type:luminance" maskUnits="userSpaceOnUse" x="59" y="45" width="79" height="55">
<path d="M137.35 51.1821L63.7637 45.1274L59.8211 93.044L133.407 99.0987L137.35 51.1821Z" fill="white"/>
</mask>
<g mask="url(#mask10_6_490)">
<path d="M73.9739 56.5618C73.9055 57.3955 73.1738 58.0159 72.34 57.9474C71.5063 57.8786 70.8859 57.1473 70.9544 56.3132C71.0229 55.4794 71.7545 54.859 72.5883 54.9275C73.4224 54.9963 74.0424 55.728 73.9739 56.5618Z" fill="#F9D179"/>
</g>
<mask id="mask11_6_490" style="mask-type:luminance" maskUnits="userSpaceOnUse" x="59" y="45" width="79" height="55">
<path d="M137.35 51.1821L63.7637 45.1274L59.8211 93.044L133.407 99.0987L137.35 51.1821Z" fill="white"/>
</mask>
<g mask="url(#mask11_6_490)">
<path d="M80.4327 57.4311C80.3642 58.2649 79.6325 58.8852 78.7988 58.8168C77.965 58.7483 77.3446 58.0166 77.4134 57.1825C77.4822 56.3485 78.2136 55.7284 79.0473 55.7972C79.8811 55.8657 80.5012 56.5973 80.4327 57.4311Z" fill="#F9D179"/>
</g>
</svg>
