<svg width="390" height="328" viewBox="0 0 390 328" fill="none" xmlns="http://www.w3.org/2000/svg">
<path d="M158.26 179.373C123.945 177.24 88.1981 175.334 56.5056 188.61C35.3525 197.471 17.0161 212.756 -5.08336 218.913C-13.9589 221.387 -23.6744 222.515 -30.8187 228.313C-47.4252 241.793 -39.203 268.954 -47.7125 288.535C-50.0672 293.954 -53.7089 298.721 -56.3392 304.012C-63.4334 318.285 -62.3559 336.26 -53.6068 349.591C-45.1526 362.473 -30.5871 370.398 -15.564 373.996C-0.540943 377.595 15.1087 377.338 30.5557 376.965C72.5777 375.95 114.64 374.226 156.625 376.26C214.743 379.075 272.921 389.077 330.802 383.161C340.471 382.172 350.626 380.518 358.145 374.383C365.682 368.233 369.304 358.63 375.089 350.82C384.943 337.517 400.583 329.97 413.488 319.572C430.807 305.618 443.416 285.964 448.854 264.448C451.875 252.492 452.464 238.942 445.563 228.707C439.693 220.003 429.553 215.317 419.825 211.311C355.74 184.922 286.948 169.921 217.655 167.226C196.621 166.408 173.923 167.226 157.081 179.802" fill="#8DD44F"/>
<path d="M325.966 259.829C325.966 267.347 259.263 273.438 176.982 273.438C146.73 273.438 116.993 283.583 53.4639 273.438C39.1417 273.438 7.56066 254.618 68.6422 249.554C95.0985 247.36 138.403 246.221 176.982 246.221C259.263 246.221 325.966 252.315 325.966 259.829Z" fill="#80BF49"/>
<path d="M184.003 252.789C183.409 252.57 182.797 252.377 182.172 252.214C187.755 251.46 193.456 251.924 198.804 253.562C192.642 247.635 183.959 244.406 174.981 244.7C182.618 242.285 187.307 235.312 186.176 228.049C184.338 216.246 167.951 209.032 154.466 220.94C159.75 227.09 160.064 235.795 154.902 242.307C152.4 246.1 153.157 250.964 156.72 253.983C168.035 255.162 178.422 260.225 185.745 268.13C185.871 262.875 182.265 258.135 176.799 256.376C182.76 256.363 188.575 258.051 193.424 261.194C191.611 257.362 188.214 254.355 184.003 252.789Z" fill="#25784E"/>
<path d="M147.717 113.12C156.731 124.352 170.608 131.743 186.139 133.574C201.67 135.408 217.508 131.53 229.99 122.831L225.883 113.506C204.719 119.753 181.478 114.586 165.906 100.171L147.717 113.12Z" fill="#25784E"/>
<path d="M220.875 122.789C222.097 128.113 227.503 131.932 233.474 131.38C233.52 131.374 233.566 131.371 233.612 131.364C238.212 130.907 242.575 128.785 245.363 125.652C240.152 126.811 234.846 126.572 230.347 124.979C237.341 124.261 243.659 120.269 246.201 114.965C240.868 119.006 233.445 120.615 227.12 119.107C231.731 114.984 237.641 111.864 244.082 110.153C240.502 108.006 235.607 107.398 230.782 108.505C229.625 108.773 228.502 109.128 227.429 109.566C222.289 111.665 219.494 116.767 220.642 121.771L220.875 122.789Z" fill="#25784E"/>
<path d="M147.717 113.12C156.731 124.352 170.608 131.743 186.139 133.574C201.67 135.408 217.508 131.53 229.99 122.831L225.883 113.506C204.719 119.753 181.478 114.586 165.906 100.171L147.717 113.12Z" fill="#25784E"/>
<path d="M220.875 122.789C222.097 128.113 227.503 131.932 233.474 131.38C233.52 131.374 233.566 131.371 233.612 131.364C238.212 130.907 242.575 128.785 245.363 125.652C240.152 126.811 234.846 126.572 230.347 124.979C237.341 124.261 243.659 120.269 246.201 114.965C240.868 119.006 233.445 120.615 227.12 119.107C231.731 114.984 237.641 111.864 244.082 110.153C240.502 108.006 235.607 107.398 230.782 108.505C229.625 108.773 228.502 109.128 227.429 109.566C222.289 111.665 219.494 116.767 220.642 121.771L220.875 122.789Z" fill="#25784E"/>
<path d="M125.189 200.434C122.939 202.51 119.304 205.399 116.224 207.433C112.817 205.938 108.768 203.682 106.247 202.004C103.602 203.526 99.4327 205.54 95.9854 206.852C93.1423 204.652 89.8631 201.583 87.8853 199.403C84.9648 200.32 80.4446 201.391 76.7975 201.939C74.6151 199.181 72.2364 195.486 70.8776 192.94C67.8171 193.204 63.1571 193.273 59.4699 193.012C58.0512 189.845 56.6728 185.71 55.9935 182.912C52.9418 182.491 48.3795 181.502 44.844 180.399C44.26 176.962 43.9553 172.558 43.999 169.627C39.5565 168.106 32.1901 163.526 29.8607 161.901C29.2112 160.66 28.5863 159.403 28 158.124C28.6825 181.988 41.7909 204.152 63.3422 217.881C83.7894 230.906 109.538 234.832 133.48 228.794V202.713C130.445 202.086 127.296 201.296 125.189 200.434Z" fill="#216D44"/>
<path d="M118.048 221.365C118.048 221.365 111.357 213.4 107.935 209.134L114.735 200.699L108.031 192.346L114.832 183.911L108.128 175.558L114.929 167.123L108.225 158.77L115.024 150.346L108.322 141.986L115.12 133.561L108.418 125.198C111.89 120.893 118.048 112.866 118.048 112.866V221.365Z" fill="#25784E"/>
<path d="M173.495 111.936V216.341C173.495 225.937 164.831 233.791 154.243 233.791H135.824C125.236 233.791 116.572 225.937 116.572 216.341V111.936C116.572 102.339 125.236 94.4853 135.824 94.4853H154.243C164.831 94.4853 173.495 102.339 173.495 111.936Z" fill="#2C885B"/>
<path d="M173.495 120.21V216.341C173.495 219.321 172.66 222.141 171.185 224.615C170.559 225.66 169.804 226.649 168.954 227.566C165.425 231.363 160.13 233.791 154.242 233.791H137.349V137.657C137.349 134.677 138.183 131.857 139.675 129.383C140.3 128.338 141.054 127.349 141.905 126.432C145.434 122.623 150.729 120.21 156.601 120.21H173.495Z" fill="#8BC156"/>
<path d="M173.495 126.432V129.383H139.675C140.301 128.338 141.055 127.349 141.905 126.432H173.495Z" fill="#2C885B"/>
<path d="M173.495 142.792V145.743H137.349V142.792H173.495Z" fill="#2C885B"/>
<path d="M173.495 159.149V162.116H137.349V159.149H173.495Z" fill="#2C885B"/>
<path d="M173.495 175.522V178.476H137.349V175.522H173.495Z" fill="#2C885B"/>
<path d="M173.495 191.882V194.849H137.349V191.882H173.495Z" fill="#2C885B"/>
<path d="M173.495 208.255V211.206H137.349V208.255H173.495Z" fill="#2C885B"/>
<path d="M171.185 224.615C170.559 225.66 169.804 226.649 168.954 227.566H137.349V224.615H171.185Z" fill="#2C885B"/>
<path d="M105.264 252.789C105.858 252.57 106.47 252.377 107.095 252.214C101.512 251.46 95.8106 251.924 90.4629 253.562C96.625 247.635 105.307 244.406 114.286 244.7C106.649 242.285 101.96 235.312 103.091 228.049C104.928 216.246 121.316 209.032 134.801 220.94C129.517 227.09 129.203 235.795 134.365 242.307C136.867 246.1 136.11 250.964 132.547 253.983C121.232 255.162 110.845 260.225 103.522 268.13C103.396 262.875 107.002 258.135 112.468 256.376C106.506 256.363 100.692 258.051 95.8433 261.194C97.6559 257.362 101.053 254.355 105.264 252.789Z" fill="#2C885B"/>
<path d="M123.02 92.974C100.106 84.572 104.362 50.8496 128.577 48.3264L219.741 46.962L221.671 31.457C222.221 27.0373 226.25 23.9005 230.67 24.4521L232.747 24.71C237.167 25.2583 240.304 29.2896 239.754 33.7093L238.139 46.6878L241.211 46.6421L243.158 31.0033C243.708 26.5836 247.737 23.4467 252.157 23.9984L254.234 24.2562C258.654 24.8046 261.791 28.8359 261.241 33.2556L259.609 46.3646L262.923 46.3157C274.67 61.2297 270.583 83.4719 253.311 92.9838C227.661 100.651 206.608 102.039 191.709 101.774C160.747 101.229 123.02 92.974 123.02 92.974Z" fill="#2C885B"/>
<path d="M252.69 41.0016C253.204 36.8724 254.357 33.3601 255.643 31.5583C255.246 30.5431 254.718 29.9164 254.08 29.8348C252.147 29.5965 249.958 34.4014 249.19 40.5674C248.422 46.7368 249.367 51.9301 251.3 52.1716C251.938 52.25 252.603 51.7701 253.237 50.8823C252.433 48.8193 252.176 45.1341 252.69 41.0016Z" fill="#171717"/>
<path d="M231.203 41.4552C231.717 37.326 232.87 33.8137 234.156 32.0119C233.759 30.9967 233.232 30.3667 232.593 30.2884C230.66 30.0468 228.471 34.8517 227.703 41.021C226.935 47.1871 227.88 52.3837 229.813 52.6252C230.451 52.7036 231.117 52.2238 231.751 51.3359C230.946 49.2729 230.689 45.5876 231.203 41.4552Z" fill="#171717"/>
<path d="M154.23 51.4208H119.667V17.2806C119.667 7.73614 127.404 -7.62939e-06 136.948 -7.62939e-06C146.493 -7.62939e-06 154.23 7.73614 154.23 17.2806V51.4208Z" fill="#2C885B"/>
<path d="M150.877 31.7052C150.877 34.4275 150.161 36.967 148.895 39.1475C146.529 43.3518 142.145 46.1655 137.155 46.1655C136.073 46.1655 135.046 46.035 134.037 45.7901C127.965 44.3082 123.453 38.5534 123.453 31.7052C123.453 23.7079 129.58 17.235 137.155 17.235C144.731 17.235 150.877 23.7079 150.877 31.7052Z" fill="white"/>
<path d="M148.895 39.1475C146.529 43.3518 142.145 46.1655 137.155 46.1655C136.073 46.1655 135.046 46.035 134.037 45.7901C133.065 44.3702 132.496 42.6174 132.496 40.7339C132.496 35.9225 136.202 32.0153 140.769 32.0153C144.823 32.0153 148.198 35.0836 148.895 39.1475Z" fill="#171717"/>
<path d="M192.458 51.4208H157.894V17.2806C157.894 7.73614 165.631 -7.62939e-06 175.176 -7.62939e-06C184.72 -7.62939e-06 192.458 7.73614 192.458 17.2806V51.4208Z" fill="#2C885B"/>
<path d="M189.105 31.7052C189.105 34.4275 188.39 36.967 187.124 39.1475C184.758 43.3518 180.374 46.1655 175.384 46.1655C174.302 46.1655 173.274 46.035 172.266 45.7901C166.194 44.3082 161.681 38.5534 161.681 31.7052C161.681 23.7079 167.808 17.235 175.384 17.235C182.96 17.235 189.105 23.7079 189.105 31.7052Z" fill="white"/>
<path d="M187.124 39.1475C184.758 43.3518 180.374 46.1655 175.384 46.1655C174.302 46.1655 173.274 46.035 172.266 45.7901C171.293 44.3702 170.725 42.6174 170.725 40.7339C170.725 35.9225 174.43 32.0153 178.998 32.0153C183.052 32.0153 186.427 35.0836 187.124 39.1475Z" fill="#171717"/>
<path d="M226.778 73.4051C226.778 69.7068 225.742 66.2272 223.946 63.1295C219.534 70.7416 210.401 75.9871 199.819 75.9871C189.236 75.9871 180.104 70.7416 175.691 63.1295C173.895 66.2272 172.859 69.7068 172.859 73.4051C172.859 80.9422 177.079 87.6174 183.581 91.8413C188.101 88.9035 193.713 87.1441 199.819 87.1441C205.924 87.1441 211.536 88.9035 216.056 91.8413C222.558 87.6174 226.778 80.9422 226.778 73.4051Z" fill="#171717"/>
<path d="M183.582 91.8413C188.101 94.7758 193.713 96.5385 199.819 96.5385C205.924 96.5385 211.536 94.7758 216.056 91.8413C211.536 88.9035 205.924 87.1441 199.819 87.1441C193.713 87.1441 188.101 88.9035 183.582 91.8413Z" fill="#EC1C26"/>
<path d="M325.965 159.149C325.965 203.268 290.199 239.033 246.081 239.033C201.962 239.033 166.197 203.268 166.197 159.149C166.197 115.03 201.962 79.2677 246.081 79.2677C290.199 79.2677 325.965 115.03 325.965 159.149Z" fill="#F7B727"/>
<path d="M316.644 156.25C317.869 182.067 296.07 204.11 291.836 202.177C288.567 200.682 297.31 185.612 296.935 157.768C296.584 131.674 288.539 117.73 291.836 116.15C295.979 114.165 315.537 132.915 316.644 156.25Z" fill="#F9E03C"/>
<path d="M241.117 164.623L246.111 152.722L251.12 164.623H241.117ZM290.775 193.093C290.775 193.093 257.954 115.115 257.939 115.082C257.041 112.961 255.546 110.777 253.169 109.207C250.896 107.712 248.398 107.144 246.081 107.144C243.987 107.144 241.774 107.624 239.726 108.818C237.558 110.075 235.998 111.818 234.986 113.649C234.846 113.901 234.731 114.155 234.612 114.41C234.463 114.664 234.328 114.948 234.208 115.219C234.208 115.219 201.162 193.975 201.118 194.095C200.519 195.561 200.295 197.04 200.295 198.417C200.295 200.017 200.594 201.645 201.252 203.215C201.925 204.861 202.927 206.251 204.063 207.387C205.2 208.523 206.59 209.512 208.235 210.201C209.805 210.857 211.435 211.157 213.035 211.157C215.248 211.157 217.625 210.632 219.823 209.241C221.229 208.36 222.35 207.253 223.218 206.072C223.876 205.353 224.429 204.518 224.803 203.591L230.41 190.103H261.812C264.159 195.665 267.598 203.77 267.613 203.783C268.48 205.804 269.916 207.717 272.024 209.124C274.387 210.677 276.944 211.157 279.127 211.157C282.476 211.157 285.676 209.93 288.158 207.449C289.295 206.313 290.252 204.936 290.91 203.366C291.583 201.707 291.867 200.033 291.867 198.417C291.867 196.488 291.433 194.738 290.775 193.093Z" fill="#EF2F90"/>
<path d="M123.005 113.121C126.542 126.634 136.202 138.304 149.751 145.423C163.301 152.542 179.565 154.497 194.782 150.838L194.961 140.798C172.776 139.166 153.53 126.272 145.297 107.532L123.005 113.121Z" fill="#2C885B"/>
<path d="M186.391 147.61C185.253 152.95 188.616 158.362 194.36 159.942C194.404 159.952 194.449 159.965 194.493 159.978C198.933 161.163 203.861 160.729 207.766 158.813C202.466 158.059 197.672 155.986 194.197 152.944C200.956 154.726 208.484 153.251 213.086 149.245C206.447 151.109 198.914 149.999 193.72 146.396C199.728 144.205 206.507 143.393 213.179 144.065C210.789 140.834 206.531 138.562 201.609 137.896C200.428 137.736 199.24 137.674 198.064 137.703C192.429 137.844 187.679 141.574 186.609 146.592L186.391 147.61Z" fill="#2C885B"/>
<path d="M257.699 282.085C254.646 282.085 252.172 279.611 252.172 276.559C252.172 273.503 254.646 271.029 257.699 271.029C260.751 271.029 263.225 273.503 263.225 276.559C263.225 279.611 260.751 282.085 257.699 282.085ZM282.363 266.443C282.134 266.671 281.405 263.926 277.399 263.257C272.474 262.408 266.015 266.077 262.837 269.795C264.632 265.235 265.03 258.955 262.382 255.136C260.38 252.341 257.772 252.332 257.618 252.175C257.618 252.345 256.84 252.106 255.136 253.105C248.853 256.794 251.25 268.855 252.696 270.34C248.33 266.694 240.642 264.494 238.139 269.501L238.089 269.576C237.09 274.375 241.864 277.479 246.697 278.468C241.391 282.842 237.439 290.382 242.326 295.298C249.319 298.794 256.217 290.686 257.975 282.816L257.994 282.888C259.091 287.673 263.429 293.617 268.248 293.617C270.033 293.617 271.102 292.814 271.257 292.814C271.257 292.661 272.886 291.384 272.886 288.705C272.886 284.814 269.568 280.825 266.046 278.576C272.389 279.199 282.045 275.481 282.588 268.875C282.707 267.425 282.363 266.661 282.363 266.443Z" fill="#F576A7"/>
<path d="M257.698 271.029C254.646 271.029 252.171 273.503 252.171 276.558C252.171 279.61 254.646 282.085 257.698 282.085C260.751 282.085 263.225 279.61 263.225 276.558C263.225 273.503 260.751 271.029 257.698 271.029Z" fill="#F7E027"/>
<path d="M92.9963 87.34C89.1606 83.5045 83.7267 90.232 81.0086 94.9945C82.1677 89.7424 82.4308 82.7538 77.5394 82.7538C72.648 82.7538 72.9111 89.7424 74.0699 94.9945C71.3522 90.232 65.9179 83.5045 62.0822 87.34C56.9773 92.4451 70.5795 100.384 73.3662 100.981C74.3402 101.187 75.0433 100.997 75.3906 100.651C75.5257 100.514 75.6357 100.325 75.7092 100.087C75.7666 100.198 75.8225 100.296 75.8747 100.374C76.4162 101.213 77.0482 101.575 77.5394 101.575C78.0304 101.575 78.6626 101.213 79.2038 100.374C79.2564 100.296 79.3119 100.198 79.3693 100.087C79.4428 100.325 79.5531 100.514 79.6879 100.651C80.0352 100.997 80.7383 101.187 81.7124 100.981C84.4993 100.384 98.1012 92.4451 92.9963 87.34Z" fill="#56B9AA"/>
<path d="M360.086 232.322C352.197 224.433 341.027 238.263 335.437 248.059C337.82 237.258 338.36 222.886 328.304 222.886C318.246 222.886 318.787 237.258 321.17 248.059C315.582 238.263 304.409 224.433 296.522 232.322C286.026 242.817 313.993 259.134 319.723 260.362C321.726 260.793 323.172 260.398 323.885 259.686C324.163 259.405 324.39 259.017 324.541 258.527C324.659 258.752 324.773 258.955 324.881 259.121C325.994 260.838 327.294 261.583 328.304 261.583C329.313 261.583 330.613 260.838 331.726 259.121C331.834 258.955 331.948 258.752 332.066 258.527C332.218 259.017 332.444 259.405 332.722 259.686C333.435 260.398 334.881 260.793 336.884 260.362C342.613 259.134 370.581 242.817 360.086 232.322Z" fill="#56B9AA"/>
</svg>
