<svg width="116" height="171" viewBox="0 0 116 171" fill="none" xmlns="http://www.w3.org/2000/svg">
<path d="M84.2252 89.5216C84.2252 89.5216 84.2169 102.885 84.1971 103.259H30.8958C30.8773 102.885 30.8682 102.515 30.8682 102.142C30.8682 102.142 30.8773 88.8318 30.8958 88.4877C30.9236 87.7333 30.998 86.9889 31.1099 86.2544C31.8169 81.303 34.1437 76.8727 37.5317 73.5128C37.9784 73.0761 38.4438 72.6476 38.9278 72.2473C41.6366 69.9759 44.884 68.3282 48.459 67.5292C50.0504 67.1652 51.7163 66.98 53.4186 66.98H61.6835C63.3858 66.98 65.0534 67.1652 66.6448 67.5292C70.2181 68.3282 73.4573 69.9759 76.1654 72.2473C76.6484 72.6476 77.115 73.0761 77.5616 73.5128C80.9497 76.8727 83.2756 81.303 83.9837 86.2544C84.0945 86.9889 84.169 87.7333 84.1971 88.4877C84.2169 88.8318 84.2252 89.1759 84.2252 89.5216Z" fill="#8E443F"/>
<path d="M75.6334 103.259H39.4668C39.6157 97.1348 42.4644 91.745 46.7722 88.4877C49.5184 86.3933 52.8601 85.1658 56.4715 85.1658H58.6204C62.2318 85.1658 65.5735 86.3933 68.3279 88.4877C72.6275 91.7549 75.4845 97.1348 75.6334 103.259Z" fill="#F3664F"/>
<path d="M38.0487 73.5445C30.0509 73.25 22.4804 69.5708 17.3029 63.3373C18.2618 61.7194 17.5698 59.3505 15.6238 57.8765C13.5647 56.3165 10.9056 56.3578 9.68434 57.9708C9.10732 58.7318 8.96785 59.7078 9.1844 60.6904C8.18039 60.7467 7.2783 61.1454 6.70128 61.9064C6.12459 62.669 5.98512 63.6451 6.20167 64.6277C5.19751 64.684 4.29557 65.0826 3.71855 65.8436C2.49717 67.4566 3.17627 70.0274 5.23556 71.5874C6.8596 72.8182 8.84692 73.0366 10.2175 72.2888C16.3228 81.9682 27.1403 87.305 38.169 86.6764C42.9957 86.4001 45.8676 81.1593 43.4804 76.9557L43.2886 76.6165C42.2166 74.7289 40.2181 73.6239 38.0487 73.5445Z" fill="#8E443F"/>
<path d="M77.0431 73.5445C85.0417 73.25 92.6118 69.5708 97.7898 63.3373C96.8303 61.7194 97.5218 59.3505 99.469 57.8765C101.527 56.3165 104.187 56.3578 105.408 57.9708C105.985 58.7318 106.124 59.7078 105.908 60.6904C106.912 60.7467 107.813 61.1454 108.391 61.9064C108.968 62.669 109.107 63.6451 108.89 64.6277C109.894 64.684 110.796 65.0826 111.373 65.8436C112.594 67.4566 111.916 70.0274 109.856 71.5874C108.232 72.8182 106.245 73.0366 104.875 72.2888C98.7692 81.9682 87.9517 87.305 76.924 86.6764C72.0967 86.4001 69.2248 81.1593 71.612 76.9557L71.8039 76.6165C72.8743 74.7289 74.8743 73.6239 77.0431 73.5445Z" fill="#8E443F"/>
<path d="M93.1965 16.1811C94.0981 11.0908 91.529 5.711 87.37 2.69519C83.6644 -0.0129166 78.4913 -0.944298 74.4333 1.13187C71.7616 2.51818 69.8906 5.4033 69.5829 8.34467C69.472 9.38689 69.5465 10.3927 69.8542 11.3969H45.2363C46.4092 7.58203 44.2586 3.00289 40.6572 1.13187C36.5993 -0.944298 31.4341 -0.0129166 27.7485 2.69519C23.5604 5.711 20.9912 11.0908 21.8943 16.1811C22.5178 19.6899 24.9467 22.8083 28.102 24.3717C26.1565 27.3875 24.705 30.6812 23.7647 34.1156C19.9674 48.207 25.3561 64.6343 38.9261 72.2474C43.5986 74.8712 49.2381 76.4544 55.8091 76.5288C56.6097 76.5288 57.4088 76.509 58.2012 76.5007C65.2287 76.4329 71.2405 75.0201 76.1637 72.2474C86.2534 66.588 91.8284 56.0071 92.4322 45.1448C92.6473 41.469 92.2933 37.7269 91.3255 34.1156C90.4222 30.6812 88.9333 27.3875 87.0259 24.3717C90.1427 22.8083 92.5728 19.6899 93.1965 16.1811ZM87.2675 12.9883C87.2575 12.8494 87.2476 12.7187 87.2211 12.5797C87.2013 12.449 87.1831 12.3183 87.155 12.1794C87.1268 12.0487 87.1004 11.918 87.0623 11.7889C86.9779 11.4631 86.8621 11.1487 86.7265 10.8294C86.6487 10.6442 86.5644 10.4556 86.4668 10.2719C86.3427 10.0354 86.1971 9.79716 86.0383 9.57384C85.9175 9.4051 85.7968 9.238 85.6661 9.08911C85.5271 8.93029 85.3964 8.77314 85.2475 8.62425C84.9597 8.33475 84.652 8.06509 84.3162 7.82356C83.7686 7.41329 83.135 7.08739 82.4733 6.85579C82.3062 6.79954 82.1391 6.75322 81.9621 6.7069C81.6262 6.62253 81.2822 6.56629 80.9381 6.5299C80.7611 6.51997 80.594 6.5117 80.417 6.5117C79.5881 6.5117 78.7792 6.68871 78.043 7.06093C76.4615 7.87981 75.4557 9.75083 75.6707 11.463C75.717 11.8998 75.8477 12.3183 76.0611 12.7187L81.8876 18.9273C82.0928 18.9356 82.2979 18.9273 82.5014 18.8893C82.6701 18.881 82.8372 18.8529 83.0043 18.8148C83.1251 18.7867 83.2458 18.7569 83.3583 18.7222C83.6164 18.6428 83.8794 18.5452 84.1309 18.4145C84.336 18.3119 84.5412 18.1911 84.7264 18.0704C85.0805 17.847 85.4064 17.5774 85.7041 17.2614C85.9175 17.0381 86.1227 16.7949 86.2997 16.5352C86.3824 16.4144 86.4668 16.2837 86.5412 16.1447C86.6256 16.0141 86.6901 15.8734 86.7546 15.7345C86.8208 15.5955 86.882 15.4549 86.9416 15.306C87.0574 15.0165 87.1467 14.7204 87.2013 14.4127C87.2857 13.9379 87.3038 13.4631 87.2675 12.9883ZM38.9447 8.98656C38.9447 8.98656 38.9356 8.98656 38.9356 8.97828C38.7584 8.61433 38.5256 8.28843 38.2558 7.99065C38.2467 7.99065 38.2467 7.99065 38.2467 7.98238C38.1817 7.90794 38.1072 7.84177 38.0326 7.76732C37.744 7.48774 37.4182 7.24621 37.0556 7.06093H37.046C36.3107 6.68871 35.5009 6.5117 34.682 6.5117C34.5051 6.5117 34.3376 6.51997 34.1607 6.5299C33.8168 6.56629 33.4813 6.62253 33.1465 6.7069C32.9787 6.74329 32.8126 6.79292 32.6437 6.85579C31.9777 7.10062 31.3409 7.41329 30.7734 7.82356C28.7255 9.32236 27.4786 11.918 27.9253 14.4127C28.0179 14.9719 28.2138 15.5111 28.4742 16.0041C28.4833 16.0323 28.4929 16.0505 28.5114 16.0703C28.6047 16.2275 28.6978 16.3863 28.8001 16.5352C28.9768 16.7949 29.1814 17.0381 29.3958 17.2614C29.5071 17.3822 29.619 17.4848 29.7308 17.5774C29.9634 17.7825 30.2016 17.9744 30.4565 18.1365C30.714 18.3003 30.9874 18.4343 31.2663 18.5551C31.5644 18.6758 31.8622 18.7685 32.1694 18.8347C32.5043 18.8992 32.8487 18.9356 33.2024 18.9273V18.9174L39.0282 12.7187C39.1766 12.4589 39.2792 12.1794 39.3453 11.8899C39.3354 11.8816 39.3354 11.8816 39.3453 11.8717C39.5869 10.9221 39.4099 9.87988 38.9447 8.98656Z" fill="#8E443F"/>
<path d="M30.7628 7.81838C32.563 6.50982 35.0817 6.04331 37.0598 7.06402C39.038 8.08473 40.1145 10.7763 39.0173 12.7135L33.2019 18.9139C30.6789 19.0015 28.3606 16.8956 27.9127 14.4108C27.4649 11.9277 28.721 9.3023 30.7628 7.81838Z" fill="#F3664F"/>
<path d="M81.9 18.9139L76.0834 12.7135C74.9866 10.7763 76.0652 8.08473 78.0421 7.06402C80.0207 6.04331 82.5385 6.50982 84.3384 7.81838C86.3798 9.3023 87.6355 11.9277 87.1888 14.4108C86.7405 16.8956 84.4228 19.0015 81.9 18.9139Z" fill="#F3664F"/>
<path d="M37.5566 55.5173C37.5566 62.97 46.5073 69.0132 57.5498 69.0132C68.5924 69.0132 77.5438 62.97 77.5438 55.5173C77.5438 48.0646 68.5924 42.0214 57.5498 42.0214C46.5073 42.0214 37.5566 48.0646 37.5566 55.5173Z" fill="#F0C42E"/>
<path d="M47.7969 44.3011C47.7969 47.9373 52.1626 50.8853 57.549 50.8853C62.9355 50.8853 67.3012 47.9373 67.3012 44.3011C67.3012 40.6666 62.9355 37.7186 57.549 37.7186C52.1626 37.7186 47.7969 40.6666 47.7969 44.3011Z" fill="#1A181A"/>
<path d="M49.7702 49.9669C51.3253 52.91 54.2203 54.8935 57.5455 54.8935C60.8707 54.8935 63.7674 52.91 65.3224 49.9669C66.0884 51.4178 66.535 53.0969 66.535 54.8935C66.535 57.3766 65.6913 59.6381 64.31 61.3701C62.6623 59.3039 60.247 57.992 57.5455 57.992C54.8457 57.992 52.4304 59.3039 50.7827 61.3701C49.4013 59.6381 48.5576 57.3766 48.5576 54.8935C48.5576 53.0969 49.0026 51.4178 49.7702 49.9669Z" fill="#171717"/>
<path d="M57.546 57.9923C60.2475 57.9923 62.6628 59.3042 64.3105 61.3704C62.6628 63.4367 60.2475 64.7485 57.546 64.7485C54.8462 64.7485 52.4309 63.4367 50.7832 61.3704C52.4309 59.3042 54.8462 57.9923 57.546 57.9923Z" fill="#EE2E32"/>
<path d="M63.0697 23.0613C66.949 19.1803 73.2404 19.1803 77.1198 23.0613C80.9991 26.9407 80.9991 33.2304 77.1198 37.1098C73.2404 40.9891 66.949 40.9891 63.0697 37.1098C59.1903 33.2304 59.1903 26.9407 63.0697 23.0613Z" fill="white"/>
<path d="M61.4893 30.0855C61.4893 33.3941 64.1709 36.0774 67.4795 36.0774C70.7898 36.0774 73.4714 33.3941 73.4714 30.0855C73.4714 26.7768 70.7898 24.0935 67.4795 24.0935C64.1709 24.0935 61.4893 26.7768 61.4893 30.0855Z" fill="#171717"/>
<path d="M53.9848 30.0856C53.9848 35.5713 49.5364 40.0198 44.0507 40.0198C38.564 40.0198 34.1162 35.5713 34.1162 30.0856C34.1162 24.5983 38.564 20.1515 44.0507 20.1515C49.5364 20.1515 53.9848 24.5983 53.9848 30.0856Z" fill="white"/>
<path d="M52.6567 30.0855C52.6567 33.3941 49.9734 36.0774 46.6648 36.0774C43.3561 36.0774 40.6729 33.3941 40.6729 30.0855C40.6729 26.7768 43.3561 24.0935 46.6648 24.0935C49.9734 24.0935 52.6567 26.7768 52.6567 30.0855Z" fill="#171717"/>
<path d="M76.7158 43.3464C76.7158 45.5482 79.4388 47.3333 82.8004 47.3333C86.1603 47.3333 88.8833 45.5482 88.8833 43.3464C88.8833 41.1428 86.1603 39.3578 82.8004 39.3578C79.4388 39.3578 76.7158 41.1428 76.7158 43.3464Z" fill="#DA533D"/>
<path d="M26.209 43.3464C26.209 45.5482 28.933 47.3333 32.2934 47.3333C35.6536 47.3333 38.3778 45.5482 38.3778 43.3464C38.3778 41.1428 35.6536 39.3578 32.2934 39.3578C28.933 39.3578 26.209 41.1428 26.209 43.3464Z" fill="#DA533D"/>
<path d="M114.399 123.877C113.936 122.035 113.246 120.315 112.382 118.715C113.873 107.754 105.924 96.3257 93.1825 95.9767C85.3361 78.1449 61.863 74.555 48.8998 88.6365C43.2967 86.9623 37.4369 87.2403 32.1658 89.1345C22.4949 91.2751 14.5555 99.4954 13.7551 110.181C4.62529 113.254 -0.118942 121.792 0.308697 130.175C0.107864 131.377 0 132.61 0 133.869C0 142.312 4.51081 149.196 10.8607 153.002C16.1231 169.731 38.2861 176.237 51.7072 162.852C61.2443 166.894 71.8931 165.42 79.8686 159.706C89.1658 160.865 98.2579 156.409 103.363 148.963C111.785 144.339 117.058 134.454 114.399 123.877Z" fill="white"/>
<path d="M57.7832 114.751C57.6641 115.039 57.4838 115.309 57.2506 115.541C56.7973 115.992 56.1868 116.26 55.5119 116.26H52.6847V111.368H55.5119C55.8527 111.368 56.162 111.436 56.4399 111.552C56.7311 111.673 57.0007 111.853 57.229 112.083C57.674 112.531 57.9569 113.152 57.9569 113.878C57.9569 114.191 57.8957 114.482 57.7832 114.751ZM61.158 137.482C60.4186 138.213 59.426 138.651 58.311 138.651H52.6847V130.453H58.311C59.3978 130.453 60.3904 130.886 61.1415 131.629C61.9157 132.393 62.3971 133.45 62.4103 134.486C62.3955 135.693 61.9107 136.739 61.158 137.482ZM73.1683 124.062C72.371 122.945 71.4495 121.923 70.4288 121.013C70.4437 120.982 70.4586 120.95 70.4751 120.917C71.4942 118.796 72.0864 116.407 72.0864 113.878C72.0864 109.274 70.222 105.099 67.2128 102.089C64.2202 99.0967 60.0761 97.2405 55.5119 97.2405H45.5877C43.5992 97.2405 41.8473 98.0793 40.6214 99.3068C39.3956 100.533 38.5557 102.283 38.5557 104.273V145.748C38.5557 147.578 39.2599 149.307 40.4775 150.599C41.1078 151.267 41.8836 151.828 42.7819 152.215C43.6306 152.581 44.562 152.781 45.5248 152.781H58.311C63.3335 152.781 67.906 150.738 71.2047 147.439C74.4918 144.152 76.5382 139.593 76.5382 134.552C76.5382 130.633 75.2792 127.013 73.1683 124.062Z" fill="#75C4D9"/>
</svg>
