<svg width="99" height="138" viewBox="0 0 99 138" fill="none" xmlns="http://www.w3.org/2000/svg">
<path d="M41.103 137.038C62.8015 137.038 80.3915 134.506 80.3915 131.382C80.3915 128.258 62.8015 125.726 41.103 125.726C19.4045 125.726 1.81445 128.258 1.81445 131.382C1.81445 134.506 19.4045 137.038 41.103 137.038Z" fill="#569916"/>
<path d="M31.0309 30.8475C31.8906 28.7911 29.6529 26.2644 29.3517 24.2541C28.894 21.1991 29.2175 18.0682 30.3518 15.1899C30.3518 15.1899 22.2764 8.32499 29.3202 3.61893C29.3202 3.61893 35.3159 -0.440824 38.0967 5.94532C38.0967 5.94532 42.8617 3.58558 46.8722 5.16293C46.8722 5.16293 48.2417 -1.38985 56.3966 0.26914C56.3966 0.26914 64.2769 1.95258 59.898 11.7411C59.6928 12.2 61.9676 16.4117 62.1547 17.0944C62.8283 19.5539 62.8255 22.0478 62.4678 24.5556C62.2391 26.1604 61.2937 28.3481 62.8674 29.583C64.5393 30.8952 68.6849 30.2483 70.6738 30.2978C76.1638 30.4345 79.2787 28.899 82.1656 24.3101C85.3674 19.2206 93.607 15.8665 97.5309 22.0448C101.017 27.5342 96.6599 34.5691 93.2786 38.8942C90.6452 42.2626 87.0154 44.4506 83.1042 46.0435C81.0949 46.8617 79.0213 47.4839 76.9728 48.192C74.3171 49.1102 75.0347 51.6965 75.8378 53.7248C80.8808 66.4607 81.8828 81.3674 78.0484 94.6143C76.1213 101.272 71.614 107.702 72.312 114.803C72.5966 117.698 74.831 120.246 74.8989 122.995C75.0313 128.35 66.4551 129.893 62.0807 129.146C53.9833 127.762 53.3724 117.746 53.843 111.24C54.0674 108.135 54.0573 105.02 53.9472 101.911C53.8751 99.8756 54.3517 96.2943 53.3516 94.4241C51.8235 91.5665 40.4323 90.7175 39.2344 94.2706C38.2419 97.214 40.498 100.161 39.1998 103.161C37.8897 106.189 34.6625 107.868 31.5616 108.428C27.7006 109.125 20.249 109.384 17.4382 106.247C15.4224 103.997 17.0166 101.133 18.5264 99.069C20.1279 96.8792 22.38 95.777 22.2941 92.9947C22.1633 88.7647 20.5336 84.6958 20.6205 80.4349C20.6587 78.561 20.9534 76.5397 22.2929 75.1183C24.3377 72.9487 28.2446 73.961 29.8427 71.272C32.008 67.6281 29.7993 61.0417 29.1071 57.2412C28.4507 53.6371 24.5823 52.5272 21.7505 50.8532C18.4298 48.8906 15.1788 46.7953 12.0821 44.4931C7.45283 41.0513 -1.11177 34.7972 0.119779 27.9916C1.03549 22.9318 5.17686 20.4176 10.181 20.1825C15.1072 19.951 16.5873 24.2144 18.6906 27.7662C20.0588 30.0774 22.2015 31.9476 24.8823 32.4906C26.4615 32.8104 29.2049 33.0153 30.483 31.6716C30.7334 31.408 30.9119 31.1325 31.0309 30.8475Z" fill="#925833"/>
<path d="M47.4494 20.7486C47.2672 22.2522 45.3871 23.2612 43.2506 23.0022C41.114 22.7432 39.5293 21.3142 39.7115 19.8108C39.8938 18.3072 41.7738 17.2982 43.9104 17.5571C46.0469 17.8161 47.6316 19.2449 47.4494 20.7486Z" fill="#42210B"/>
<path d="M49.2676 18.3129C49.105 18.368 48.9634 18.186 49.0576 18.0426C49.141 17.9158 49.2352 17.7959 49.3352 17.6812C49.5397 17.4513 49.777 17.2459 50.0531 17.0768C50.3288 16.9089 50.6465 16.7775 51.0055 16.7221C51.3617 16.6649 51.7674 16.7019 52.1291 16.8594C52.4926 17.0144 52.788 17.2758 52.9974 17.5583L53.1387 17.7672C53.1423 17.7724 53.1457 17.7779 53.1488 17.7834C53.1882 17.854 53.2236 17.9271 53.2594 17.9992C53.3365 18.1454 53.3793 18.2976 53.4316 18.4465C53.4334 18.4514 53.4349 18.4563 53.4361 18.4615C53.456 18.5352 53.4716 18.6101 53.4881 18.6838C53.504 18.7602 53.5251 18.8358 53.5306 18.9131C53.5475 19.0666 53.5686 19.2185 53.5673 19.3708C53.5646 19.5237 53.5661 19.6744 53.5465 19.8261C53.5462 19.8276 53.5462 19.8291 53.5459 19.8307C53.5257 19.9976 53.3038 20.0434 53.2139 19.9013C52.9772 19.527 52.7751 19.1696 52.5562 18.8526C52.4033 18.6523 52.2667 18.4502 52.108 18.3083C51.9533 18.1613 51.8019 18.054 51.6448 17.9861C51.4876 17.9176 51.3161 17.8827 51.1106 17.8782C50.9064 17.8739 50.6759 17.9063 50.4325 17.9601C50.0653 18.0423 49.6825 18.1726 49.2676 18.3129Z" fill="#42210B"/>
<path d="M37.639 23.828C37.5503 23.6226 37.8111 23.4464 37.9735 23.6005C37.9753 23.6024 37.9775 23.6042 37.9793 23.6061C38.1747 23.7938 38.3887 23.9561 38.6 24.1105C39.0295 24.4135 39.4912 24.6496 39.9676 24.8398C40.0853 24.8899 40.2015 24.9406 40.3268 24.9764C40.4467 25.0155 40.5644 25.0584 40.6821 25.0996C40.687 25.1015 40.6919 25.103 40.6971 25.1042C40.8188 25.1385 40.9426 25.1669 41.0628 25.203C41.186 25.2388 41.3083 25.276 41.4373 25.2977C41.6929 25.3464 41.9369 25.4185 42.205 25.4485L42.5976 25.513L42.7 25.5307L42.7841 25.5433L42.9688 25.5656C43.9821 25.6701 45.0286 25.6598 46.0146 25.447C46.509 25.3399 46.9912 25.1773 47.4498 24.9333C47.6877 24.8125 47.9139 24.6658 48.1344 24.4973C48.312 24.3616 48.553 24.5689 48.4398 24.7618C48.4374 24.7658 48.435 24.77 48.4325 24.774C48.3662 24.9067 48.2769 25.0226 48.1943 25.1476C48.1913 25.1522 48.1879 25.1568 48.1845 25.1611C48.0922 25.276 48.0008 25.3968 47.8956 25.5032C47.4764 25.9511 46.9456 26.2975 46.3825 26.5446C46.1002 26.6702 45.8086 26.7678 45.5129 26.8442C45.2179 26.9252 44.9173 26.9772 44.6168 27.0164C44.0142 27.0873 43.4118 27.0971 42.8055 27.028C42.7294 27.0191 42.6526 27.009 42.5747 26.9977L42.4518 26.9778L42.3481 26.958L41.917 26.8705C41.6321 26.817 41.3407 26.7256 41.0554 26.6366C40.9117 26.596 40.7714 26.5379 40.6311 26.481C40.4929 26.4263 40.3562 26.3679 40.2207 26.308C40.2162 26.3058 40.2119 26.3037 40.2076 26.3015C39.9395 26.1603 39.6695 26.0315 39.4212 25.8548C38.914 25.5206 38.4489 25.1097 38.0915 24.6184C38.008 24.49 37.9182 24.3704 37.8448 24.2383C37.7729 24.105 37.6983 23.9766 37.6439 23.836C37.6415 23.8338 37.6402 23.8308 37.639 23.828Z" fill="#42210B"/>
<path d="M44.0603 21.752L42.7656 21.6455L42.3869 26.2487L43.6815 26.3552L44.0603 21.752Z" fill="#42210B"/>
<path d="M33.7085 16.8954C33.57 16.9966 33.3802 16.8657 33.4273 16.7006C33.4688 16.5544 33.5226 16.4119 33.5835 16.2722C33.7095 15.9915 33.8742 15.7243 34.0867 15.48C34.2995 15.237 34.5628 15.0162 34.8887 14.8557C35.2113 14.6943 35.6094 14.6074 36.0016 14.649C36.3948 14.6875 36.755 14.8484 37.04 15.055L37.2375 15.2116C37.2424 15.2156 37.2472 15.2198 37.2521 15.2241C37.3111 15.2798 37.3668 15.3385 37.4224 15.3966C37.5398 15.5128 37.6264 15.6451 37.7209 15.7717C37.7239 15.776 37.727 15.7803 37.7297 15.7846C37.7707 15.8488 37.8083 15.9154 37.8462 15.9808C37.8844 16.049 37.9269 16.1145 37.9557 16.1866C38.0177 16.3279 38.0835 16.4664 38.1281 16.6122C38.1715 16.759 38.2183 16.9021 38.2449 17.0528C38.2452 17.0543 38.2455 17.0558 38.2458 17.0574C38.2767 17.2228 38.0786 17.3332 37.9502 17.2246C37.612 16.9388 37.3118 16.6584 37.0079 16.4221C36.8018 16.2768 36.611 16.1252 36.4168 16.0374C36.2251 15.9439 36.0484 15.8867 35.8784 15.8692C35.7081 15.8512 35.5339 15.8695 35.3366 15.9267C35.1404 15.9842 34.9303 16.0842 34.7144 16.2083C34.3879 16.3979 34.062 16.637 33.7085 16.8954Z" fill="#42210B"/>
<path opacity="0.3" d="M51.1023 83.8888C57.5495 83.314 61.9524 73.6115 60.9366 62.2177C59.9208 50.8239 53.8708 42.0534 47.4236 42.6282C40.9765 43.203 36.5735 52.9054 37.5893 64.2993C38.6052 75.6931 44.6551 84.4636 51.1023 83.8888Z" fill="#F4BE80"/>
<path d="M77.0791 81.0249C77.3482 81.4263 77.4766 81.8195 77.5625 82.21C77.646 82.6004 77.6671 82.9869 77.6454 83.3709C77.6222 83.7546 77.5546 84.1359 77.4249 84.5135C77.2929 84.8908 77.1177 85.2653 76.8 85.6313C76.5291 85.2296 76.4001 84.8366 76.3145 84.4462C76.2313 84.0561 76.2102 83.6693 76.2334 83.2856C76.2582 82.9019 76.3258 82.5206 76.4557 82.1433C76.5887 81.7657 76.7636 81.3912 77.0791 81.0249Z" fill="#42210B"/>
<path d="M73.2217 83.0474C73.4908 83.4488 73.6192 83.842 73.7051 84.2324C73.7886 84.6229 73.8097 85.0093 73.788 85.3934C73.7647 85.7771 73.6972 86.1584 73.5675 86.536C73.4354 86.9132 73.2603 87.2878 72.9426 87.6538C72.6717 87.252 72.5427 86.8591 72.4571 86.4687C72.3739 86.0786 72.3528 85.6918 72.376 85.3081C72.4011 84.9244 72.4684 84.5431 72.5983 84.1658C72.731 83.7882 72.9059 83.4133 73.2217 83.0474Z" fill="#42210B"/>
<path d="M75.8018 87.2612C76.0709 87.6627 76.1993 88.0559 76.2852 88.4463C76.3686 88.8368 76.3897 89.2232 76.368 89.6073C76.3448 89.991 76.2772 90.3722 76.1476 90.7498C76.0155 91.1271 75.8403 91.5017 75.5226 91.8676C75.2517 91.4659 75.1227 91.073 75.0371 90.6826C74.9539 90.2921 74.9329 89.9057 74.9561 89.5219C74.9812 89.1382 75.0484 88.757 75.1784 88.3797C75.3114 88.0021 75.4863 87.6275 75.8018 87.2612Z" fill="#42210B"/>
<path d="M72.1358 66.3296C72.4048 66.731 72.5332 67.1242 72.6191 67.5147C72.7026 67.9051 72.7237 68.2916 72.702 68.6756C72.6788 69.0593 72.6112 69.4406 72.4816 69.8182C72.3495 70.1955 72.1743 70.57 71.8566 70.936C71.5857 70.5342 71.4567 70.1413 71.3711 69.7509C71.288 69.3608 71.2669 68.974 71.2901 68.5903C71.3152 68.2066 71.3824 67.8253 71.5123 67.448C71.6453 67.0704 71.8203 66.6959 72.1358 66.3296Z" fill="#42210B"/>
<path d="M29.44 77.2026C29.5693 77.6686 29.5675 78.082 29.5262 78.4797C29.4828 78.8766 29.381 79.2499 29.2397 79.6076C29.0969 79.9647 28.9129 80.3053 28.671 80.6227C28.427 80.9395 28.1427 81.2397 27.7263 81.4874C27.5954 81.0208 27.5966 80.6071 27.6382 80.2097C27.6819 79.8131 27.7838 79.4395 27.9265 79.0824C28.0709 78.7259 28.2549 78.3853 28.4971 78.0679C28.7414 77.7514 29.0251 77.4509 29.44 77.2026Z" fill="#42210B"/>
<path d="M25.1431 77.9087C25.2724 78.3747 25.2706 78.788 25.2294 79.1858C25.1859 79.5827 25.0841 79.956 24.9429 80.3137C24.8001 80.6708 24.616 81.0114 24.3742 81.3288C24.1302 81.6455 23.8458 81.9458 23.4294 82.1934C23.2985 81.7269 23.2998 81.3132 23.3413 80.9157C23.3851 80.5192 23.4869 80.1456 23.6294 79.7884C23.7737 79.4319 23.9577 79.0913 24.1999 78.774C24.4445 78.4578 24.7282 78.157 25.1431 77.9087Z" fill="#42210B"/>
<path d="M71.5003 127.624C71.1071 127.116 70.7775 126.66 70.4644 126.188C70.1559 125.717 69.8609 125.248 69.5906 124.762C69.3224 124.274 69.0619 123.778 68.8375 123.249C68.7241 122.985 68.6125 122.717 68.5217 122.431C68.4244 122.149 68.3343 121.858 68.2832 121.532C68.5786 121.67 68.836 121.842 69.0849 122.023C69.324 122.212 69.5505 122.414 69.7609 122.629C70.1727 123.066 70.5381 123.545 70.8258 124.072C71.1172 124.597 71.3489 125.16 71.4865 125.758C71.5516 126.058 71.5999 126.363 71.6091 126.677C71.6171 126.989 71.603 127.31 71.5003 127.624Z" fill="#42210B"/>
<path d="M74.4057 124.918C74.0165 124.678 73.7526 124.415 73.5211 124.139C73.2918 123.865 73.1133 123.576 72.9644 123.274C72.817 122.971 72.6975 122.661 72.6198 122.317C72.5406 121.973 72.4843 121.617 72.5039 121.156C72.9512 121.257 73.2915 121.485 73.5744 121.747C73.8541 122.011 74.0727 122.32 74.2345 122.652C74.3947 122.985 74.5057 123.34 74.5457 123.717C74.583 124.094 74.5714 124.49 74.4057 124.918Z" fill="#42210B"/>
<path d="M22.0005 108.48C21.8439 108.189 21.773 107.875 21.7262 107.567C21.6798 107.257 21.6733 106.948 21.6843 106.641C21.714 106.029 21.8424 105.433 22.0363 104.865C22.2261 104.295 22.501 103.759 22.8291 103.256C22.9978 103.007 23.1852 102.769 23.3873 102.54C23.6001 102.318 23.8227 102.103 24.0893 101.916C24.0967 102.245 24.0594 102.547 24.0138 102.842C23.975 103.14 23.9126 103.423 23.8478 103.704C23.7206 104.264 23.5518 104.798 23.3742 105.325C23.1938 105.851 22.9868 106.366 22.7664 106.883C22.5417 107.403 22.2977 107.911 22.0005 108.48Z" fill="#42210B"/>
<path d="M18.6611 106.331C18.422 105.938 18.3407 105.551 18.3104 105.173C18.2832 104.795 18.3297 104.426 18.4284 104.07C18.5287 103.714 18.6892 103.372 18.9179 103.062C19.1503 102.755 19.4447 102.469 19.8673 102.292C19.9682 102.742 19.9758 103.102 19.9587 103.455C19.9428 103.806 19.8801 104.133 19.7887 104.457C19.6958 104.781 19.571 105.096 19.394 105.407C19.2148 105.72 19.0014 106.026 18.6611 106.331Z" fill="#42210B"/>
</svg>
