<svg width="158" height="237" viewBox="0 0 158 237" fill="none" xmlns="http://www.w3.org/2000/svg">
<path d="M158 216C158 227.596 122.632 237 79.0007 237C35.3696 237 0 227.596 0 216C0 204.399 35.3696 195 79.0007 195C122.632 195 158 204.399 158 216Z" fill="#FFD0CD"/>
<path d="M75.4422 212.94H54.499V170.937H75.4422V212.94Z" fill="#8E443F"/>
<path d="M75.9511 220.649C76.808 219.136 77.2916 217.488 77.2916 215.754C77.2916 208.525 69.0704 202.666 58.9317 202.666C48.7924 202.666 40.5723 208.525 40.5723 215.754C40.5723 217.488 41.0556 219.136 41.9125 220.649H75.9511Z" fill="#8E443F"/>
<path d="M114.672 210.149L130.139 196.028L101.815 165.01L86.3486 179.13L114.672 210.149Z" fill="#8E443F"/>
<path d="M119.494 216.184C117.842 215.647 116.371 214.753 115.203 213.475C110.331 208.135 112.449 198.268 119.938 191.43C127.426 184.592 137.446 183.378 142.319 188.715C143.487 189.993 144.245 191.537 144.633 193.234L119.494 216.184Z" fill="#8E443F"/>
<path d="M78.5002 123.386C98.9304 123.386 115.489 143.612 115.489 168.565C115.489 169.275 115.472 169.982 115.446 170.686C122.819 162.773 127.288 152.473 127.288 141.2C127.288 116.248 105.443 96.0214 78.5002 96.0214C51.5556 96.0214 29.7129 116.248 29.7129 141.2C29.7129 152.473 34.1813 162.773 41.5541 170.686C41.5275 169.982 41.5102 169.275 41.5102 168.565C41.5102 143.612 58.0701 123.386 78.5002 123.386Z" fill="#8E443F"/>
<path d="M78.4998 186.379C93.2709 186.379 106.498 180.29 115.446 170.686C115.471 169.982 115.488 169.275 115.488 168.565C115.488 143.613 98.9299 123.386 78.4998 123.386C58.0696 123.386 41.5098 143.613 41.5098 168.565C41.5098 169.275 41.527 169.982 41.5536 170.686C50.5003 180.29 63.7286 186.379 78.4998 186.379Z" fill="#F3664F"/>
<path d="M55.725 100.215C42.6728 100.775 30.1627 94.9043 22.2526 84.5167C23.6991 82.2967 22.8654 78.9199 20.2121 76.7282C17.4049 74.4091 13.6574 74.3102 11.8418 76.5076C10.9838 77.5455 10.7292 78.9114 10.9758 80.3085C9.55841 80.3283 8.26428 80.8374 7.40652 81.8753C6.54876 82.9132 6.29453 84.2792 6.54086 85.6763C5.12342 85.6961 3.82927 86.2051 2.97152 87.243C1.1556 89.4405 1.95907 93.1 4.76651 95.4218C6.98034 97.2488 9.76657 97.6758 11.7414 96.7058C22.1123 114.797 44.0034 123.134 63.9324 116.205L55.725 100.215Z" fill="#8E443F"/>
<path d="M101.274 100.215C114.326 100.775 126.838 94.9043 134.748 84.5167C133.3 82.2967 134.134 78.9199 136.787 76.7282C139.595 74.4091 143.342 74.3102 145.158 76.5076C146.015 77.5455 146.269 78.9114 146.023 80.3085C147.44 80.3283 148.735 80.8374 149.592 81.8753C150.452 82.9132 150.704 84.2792 150.458 85.6763C151.877 85.6961 153.17 86.2051 154.027 87.243C155.845 89.4405 155.042 93.1 152.234 95.4218C150.019 97.2488 147.234 97.6758 145.26 96.7058C134.886 114.797 112.997 123.134 93.0674 116.205L101.274 100.215Z" fill="#8E443F"/>
<path d="M127.844 22.8785C129.12 15.6726 125.491 8.07346 119.561 3.80871C114.363 -0.0148697 107.058 -1.33842 101.325 1.6028C96.2262 4.24989 93.186 10.7206 94.8517 16.1138H60.0464C60.4876 14.6912 60.5838 13.2687 60.4367 11.7981C59.9955 7.63228 57.3484 3.56266 53.5752 1.6028C47.8384 -1.33842 40.534 -0.0148697 35.2888 3.80871C29.4058 8.07346 25.7779 15.6726 27.0525 22.8785C27.9355 27.8305 31.3673 32.2423 35.7789 34.4482C33.0826 38.713 30.9748 43.3708 29.7002 48.2238C28.3274 53.3229 27.8379 58.6171 28.1314 63.8123C29.4058 86.6576 46.2216 108.621 76.5172 108.131C77.6456 108.179 78.774 108.179 79.8996 108.179C116.178 107.738 132.403 74.9889 125.197 48.2238C123.874 43.3708 121.815 38.713 119.069 34.4482C123.531 32.2423 126.962 27.8305 127.844 22.8785ZM48.4787 9.98526C45.684 8.56274 42.1033 9.20187 39.603 11.0628C36.7107 13.1725 34.8968 16.849 35.5337 20.3785C36.1717 23.8599 39.4557 26.8492 43.0343 26.7502L51.2706 17.9746C52.7898 15.2314 51.2728 11.4078 48.4787 9.98526ZM115.296 11.0628C112.745 9.20187 109.216 8.56274 106.421 9.98526C103.627 11.4078 102.109 15.2314 103.627 17.9746L111.863 26.7502C115.443 26.8492 118.726 23.8599 119.315 20.3785C119.951 16.849 118.186 13.1725 115.296 11.0628Z" fill="#8E443F"/>
<path d="M115.311 11.0514C112.766 9.20184 109.205 8.54286 106.411 9.98519C103.614 11.4275 102.093 15.2341 103.643 17.9717L111.864 26.736C115.43 26.8604 118.708 23.8825 119.341 20.37C119.972 16.8603 118.199 13.1499 115.311 11.0514Z" fill="#F3664F"/>
<path d="M43.027 26.736L51.2471 17.9717C52.7978 15.2341 51.274 11.4275 48.4782 9.98519C45.6817 8.54286 42.124 9.20184 39.5796 11.0514C36.6935 13.1499 34.9178 16.8603 35.5507 20.37C36.1836 23.8825 39.4608 26.8604 43.027 26.736Z" fill="#F3664F"/>
<path d="M105.706 78.4731C105.706 89.0106 93.053 97.5486 77.4448 97.5486C61.8366 97.5486 49.1846 89.0106 49.1846 78.4731C49.1846 67.9385 61.8366 59.3977 77.4448 59.3977C93.053 59.3977 105.706 67.9385 105.706 78.4731Z" fill="#F0C42E"/>
<path d="M91.2322 62.6216C91.2322 67.7603 85.0585 71.926 77.4452 71.926C69.832 71.926 63.6611 67.7603 63.6611 62.6216C63.6611 57.483 69.832 53.3143 77.4452 53.3143C85.0585 53.3143 91.2322 57.483 91.2322 62.6216Z" fill="#1A181A"/>
<path d="M88.4407 70.6279C86.2433 74.7881 82.1482 77.5935 77.4479 77.5935C72.7476 77.5935 68.6554 74.7881 66.458 70.6279C65.3748 72.6783 64.7441 75.0539 64.7441 77.5935C64.7441 81.1031 65.9347 84.2989 67.889 86.748C70.2165 83.8266 73.6328 81.9742 77.4479 81.9742C81.2658 81.9742 84.6793 83.8266 87.0097 86.748C88.9611 84.2989 90.1545 81.1031 90.1545 77.5935C90.1545 75.0539 89.5238 72.6783 88.4407 70.6279Z" fill="#171717"/>
<path d="M77.4476 81.9742C73.6325 81.9742 70.2162 83.8267 67.8887 86.7481C70.2162 89.6695 73.6325 91.5219 77.4476 91.5219C81.2655 91.5219 84.6791 89.6695 87.0094 86.7481C84.6791 83.8267 81.2655 81.9742 77.4476 81.9742Z" fill="#EE2E32"/>
<path d="M73.7542 42.5253C73.7542 50.2799 67.4674 56.5668 59.7128 56.5668C51.9568 56.5668 45.6699 50.2799 45.6699 42.5253C45.6699 34.7707 51.9568 28.4839 59.7128 28.4839C67.4674 28.4839 73.7542 34.7707 73.7542 42.5253Z" fill="white"/>
<path d="M71.8763 42.5252C71.8763 47.2029 68.0838 50.9954 63.4062 50.9954C58.7285 50.9954 54.9375 47.2029 54.9375 42.5252C54.9375 37.8476 58.7285 34.0551 63.4062 34.0551C68.0838 34.0551 71.8763 37.8476 71.8763 42.5252Z" fill="#171717"/>
<path d="M82.4824 42.5253C82.4824 50.2799 88.7693 56.5668 96.5239 56.5668C104.281 56.5668 110.568 50.2799 110.568 42.5253C110.568 34.7707 104.281 28.4839 96.5239 28.4839C88.7693 28.4839 82.4824 34.7707 82.4824 42.5253Z" fill="white"/>
<path d="M84.3594 42.5252C84.3594 47.2029 88.1518 50.9954 92.8295 50.9954C97.5072 50.9954 101.3 47.2029 101.3 42.5252C101.3 37.8476 97.5072 34.0551 92.8295 34.0551C88.1518 34.0551 84.3594 37.8476 84.3594 42.5252Z" fill="#171717"/>
<path d="M50.354 61.2698C50.354 64.3836 46.5036 66.9062 41.7536 66.9062C37.0038 66.9062 33.1533 64.3836 33.1533 61.2698C33.1533 58.1561 37.0038 55.6334 41.7536 55.6334C46.5036 55.6334 50.354 58.1561 50.354 61.2698Z" fill="#DA533D"/>
<path d="M121.744 61.2698C121.744 64.3836 117.895 66.9062 113.144 66.9062C108.396 66.9062 104.544 64.3836 104.544 61.2698C104.544 58.1561 108.396 55.6334 113.144 55.6334C117.895 55.6334 121.744 58.1561 121.744 61.2698Z" fill="#DA533D"/>
</svg>
