<svg width="56" height="42" viewBox="0 0 56 42" fill="none" xmlns="http://www.w3.org/2000/svg">
<path d="M39.4749 22.2751C40.1042 20.3715 41.6711 19.0916 43.471 18.3303C44.8882 17.7308 46.4313 17.4446 47.9545 17.2828C49.2325 17.1471 53.5301 16.1607 54.0887 17.7201C54.566 19.0525 53.5656 20.2526 53.8854 21.5174C54.2431 22.93 56.0795 23.0691 54.5452 24.8223C53.8744 25.5891 52.8774 26.0168 52.0644 26.6143C50.4516 27.7993 48.5899 28.66 46.6952 29.2868C46.4288 29.3749 46.1537 29.4473 45.8684 29.5005C41.7261 30.2689 38.1526 26.2752 39.4749 22.2751Z" fill="#EA6078"/>
<path d="M18.9719 20.7371C19.5418 19.0292 20.1616 17.3549 20.8672 15.7442C23.6321 9.43238 28.7739 7.83607 34.9273 6.51922C33.8447 5.66924 32.9537 4.62542 32.858 3.17649C32.7834 2.04706 33.3157 0.788593 34.38 0.402739C34.894 0.216539 35.4703 0.254453 35.9892 0.426588C37.0425 0.775752 37.8607 1.64376 38.3859 2.62124C38.9256 3.62562 39.0824 4.79145 39.5735 5.7784C40.8273 5.16171 42.1907 3.19758 43.8044 4.14417C46.04 5.45705 42.0292 8.0874 41.1762 8.85269C42.2454 9.5073 43.148 10.3784 44.0251 11.2681C46.077 13.349 47.3489 16.0494 47.474 18.9851C47.9898 31.0799 35.995 40.045 24.7187 39.4745C22.82 39.3785 20.9391 39.0764 19.0908 38.6362C16.9518 38.1265 15.5558 37.3111 13.3611 37.8874C11.7336 38.3148 10.1333 38.9337 8.53306 39.4528C6.01706 40.2692 3.50138 41.0855 0.985384 41.9018L0.447266 32.2002C2.70552 32.5707 4.96377 32.9413 7.22202 33.3119C8.83759 33.577 10.4532 33.842 12.069 34.1071C15.2629 34.6312 15.2381 33.2361 16.0945 30.3464C17.0448 27.141 17.9128 23.9101 18.9719 20.7371Z" fill="#EF9DB6"/>
<path d="M29.1857 18.7506C28.539 16.2113 26.6128 14.3995 24.3356 13.2425C22.5424 12.3317 20.5569 11.8174 18.5854 11.4677C16.9313 11.1742 11.4184 9.49561 10.5476 11.4778C9.80342 13.1716 10.9986 14.8275 10.466 16.4477C9.87067 18.2568 7.46383 18.2706 9.30413 20.6964C10.1089 21.7573 11.3695 22.4061 12.3751 23.2594C14.3698 24.9518 16.7185 26.2435 19.1315 27.2342C19.4705 27.3733 19.8228 27.4931 20.19 27.5882C25.521 28.9677 30.5447 24.0868 29.1857 18.7506Z" fill="#EA6078"/>
<path d="M39.9006 15.3349C40.3186 16.7517 39.7303 18.1735 38.5868 18.5107C37.4433 18.848 36.1775 17.9729 35.7596 16.5564C35.3416 15.1395 35.9299 13.7178 37.0734 13.3803C38.2169 13.0433 39.4826 13.9184 39.9006 15.3349Z" fill="#42210B"/>
<path d="M0.608121 34.5709L0.572266 35.0352L6.20857 35.4705L6.24443 35.0062L0.608121 34.5709Z" fill="#EA6078"/>
<path d="M5.08926 38.1472L0.794922 38.9375L0.879206 39.3955L5.17354 38.6052L5.08926 38.1472Z" fill="#EA6078"/>
<path d="M45.3831 16.7158L51.406 17.4429L46.1187 20.7141C46.1187 20.7141 43.6578 19.6168 45.3831 16.7158Z" fill="#FDD02F"/>
<path d="M31.6206 36.0353C31.4164 36.4737 31.1461 36.7874 30.8563 37.0635C30.5652 37.3375 30.2451 37.5555 29.9051 37.7362C29.5642 37.915 29.2028 38.0551 28.8123 38.1394C28.421 38.222 28.0091 38.266 27.5312 38.1838C27.7349 37.7435 28.0045 37.4295 28.2947 37.154C28.5858 36.8804 28.9059 36.6624 29.2468 36.4832C29.5883 36.3056 29.9497 36.1658 30.3402 36.0818C30.7321 35.9989 31.1437 35.9546 31.6206 36.0353Z" fill="#EA6078"/>
<path d="M42.2202 28.9718C42.016 29.4103 41.7457 29.724 41.4559 30C41.1648 30.274 40.8447 30.492 40.5047 30.6727C40.1638 30.8516 39.8024 30.9913 39.4119 31.076C39.0206 31.1585 38.6087 31.2025 38.1309 31.1203C38.3345 30.68 38.6042 30.366 38.8943 30.0906C39.1854 29.8169 39.5055 29.5986 39.8464 29.4198C40.1879 29.2421 40.5493 29.1024 40.9401 29.0183C41.3317 28.9354 41.743 28.8911 42.2202 28.9718Z" fill="#EA6078"/>
<path d="M34.3005 31.1534C34.0938 31.591 33.8217 31.9031 33.5303 32.1774C33.2377 32.4495 32.9164 32.666 32.5755 32.8445C32.2337 33.0216 31.8717 33.1592 31.4806 33.2417C31.0887 33.3221 30.6768 33.3637 30.1992 33.2787C30.4053 32.8396 30.6768 32.5272 30.9685 32.2532C31.2611 31.9814 31.5824 31.7649 31.9243 31.5876C32.2667 31.4121 32.629 31.2742 33.02 31.1923C33.4123 31.1122 33.8239 31.07 34.3005 31.1534Z" fill="#EA6078"/>
<path d="M38.5148 32.9259C38.3103 33.3647 38.0403 33.6781 37.7505 33.9541C37.4594 34.2281 37.1393 34.4461 36.7993 34.6268C36.4584 34.8057 36.097 34.9454 35.7069 35.0301C35.3152 35.1126 34.9037 35.1567 34.4258 35.0744C34.6294 34.6341 34.8991 34.3201 35.1892 34.0447C35.4803 33.771 35.8004 33.553 36.1413 33.3739C36.4828 33.1962 36.8442 33.0565 37.235 32.9724C37.6263 32.8895 38.0379 32.8452 38.5148 32.9259Z" fill="#EA6078"/>
</svg>
