<svg width="63" height="73" viewBox="0 0 63 73" fill="none" xmlns="http://www.w3.org/2000/svg">
<path d="M39.624 19.2346C44.1367 16.1973 50.5509 11.9683 52.7543 10.9524C51.8305 10.9922 50.9363 11.1578 50.2312 11.4486C48.7408 12.0622 44.6094 14.4022 40.8452 16.7067C40.5369 17.5835 40.1292 18.4319 39.624 19.2346Z" fill="#F14533"/>
<path d="M14.8409 17.2535C15.6587 19.7242 17.2122 21.7957 19.2735 23.2445C20.7205 23.392 22.0356 23.5377 23.0659 23.6558C20.2213 22.1534 18.0776 19.6399 17.0467 16.5237C15.3636 11.4378 17.1316 6.03637 21.0547 2.83646C12.6147 7.04801 13.8202 14.1692 14.8409 17.2535Z" fill="#F14533"/>
<path d="M60.0623 62.1084C58.2341 63.5217 55.9916 63.8734 54.3489 63.0002C51.3977 61.434 47.3017 54.1315 46.4942 52.652C45.8017 52.9549 45.1249 53.2078 44.4776 53.4246C46.1251 55.9188 49.938 61.5635 51.9161 63.4308C53.76 65.1704 56.5498 64.5538 58.381 63.4964C59.153 63.0502 59.89 62.4517 60.4501 61.7694C60.3236 61.8838 60.2008 62.0012 60.0623 62.1084Z" fill="#F14533"/>
<path d="M32.4425 71.2624C32.3763 71.2624 32.31 71.2612 32.2432 71.2588C29.7888 71.1727 27.7155 69.5324 26.9628 67.0791C25.5043 62.328 23.7364 39.7311 23.5346 37.1039C21.8504 36.6492 10.52 33.5487 5.74544 31.0659C2.75387 29.5105 2.03368 27.318 2.35704 25.7849C2.53468 24.9431 3.02305 24.2253 3.72096 23.6737C2.18062 24.297 1.00337 25.5435 0.689042 27.0338C0.3163 28.8006 1.24664 30.409 3.24162 31.4465C8.3209 34.087 20.9881 37.4573 21.1151 37.4917C21.241 37.5248 21.3319 37.6338 21.3416 37.7632C21.3608 38.0149 23.2649 62.9477 24.7613 67.8222C25.5862 70.5097 28.411 71.7983 30.8444 71.8844C32.3275 71.9362 33.5788 71.5605 34.4188 70.8734C33.8167 71.1209 33.1501 71.2624 32.4425 71.2624Z" fill="#F14533"/>
<path d="M46.502 51.9801C46.6501 51.9162 46.8217 51.9728 46.8976 52.1149C46.944 52.2017 51.5813 60.8397 54.6349 62.4608C56.0452 63.2081 58.0757 62.8739 59.6883 61.6256C61.2611 60.4092 61.9729 58.7334 61.5935 57.1436C60.6975 53.3837 45.7156 30.8139 45.5644 30.5863C45.4813 30.4616 45.5018 30.2942 45.612 30.1925C45.7246 30.0895 56.8906 19.7888 58.8856 15.6477C59.5335 14.3013 59.4534 13.1403 58.6519 12.2912C57.5024 11.0736 55.0142 10.6708 53.2204 11.4103C51.0158 12.3183 42.2074 18.2208 38.5221 20.7167C38.3962 20.8017 38.2264 20.7812 38.1241 20.668C38.0223 20.5548 38.0193 20.3838 38.1174 20.2669C40.8133 17.0568 41.6407 12.7772 40.3304 8.81792C39.3272 5.78541 37.2027 3.32557 34.3491 1.8912C31.4954 0.456238 28.2533 0.220184 25.2214 1.22279C22.1889 2.22661 19.729 4.35046 18.2947 7.20412C16.8597 10.0584 16.6225 13.2999 17.6263 16.3318C18.8246 19.9532 21.6018 22.719 25.2461 23.9215C25.3955 23.9703 25.4828 24.125 25.4484 24.278C25.4141 24.4315 25.2702 24.5375 25.113 24.514C23.8557 24.3587 13.5809 23.1079 8.32763 23.1079C7.82 23.1079 7.35995 23.1194 6.9583 23.1447C4.85313 23.2784 3.28206 24.3647 2.95569 25.9116C2.60161 27.5875 3.77885 29.3555 6.02794 30.5249C11.1066 33.1654 23.7738 36.5363 23.9015 36.5694C24.0273 36.6031 24.1176 36.7121 24.1279 36.8416C24.1466 37.0933 26.0512 62.026 27.5476 66.9006C28.3671 69.5706 30.5223 70.5876 32.2656 70.649C34.1214 70.6984 35.7148 69.7464 36.3175 68.185C37.7567 64.4515 38.7804 54.3472 38.7907 54.2454C38.8057 54.0973 38.9255 53.9817 39.0737 53.9714C39.1092 53.969 42.674 53.7101 46.502 51.9801Z" fill="#F8A049"/>
<path d="M50.2319 11.4487C50.937 11.1579 51.8312 10.9922 52.7549 10.9525C50.5516 11.9684 44.1373 16.1974 39.6247 19.2347C40.1299 18.432 40.5376 17.5836 40.8459 16.7068C44.61 14.4023 48.7415 12.0623 50.2319 11.4487ZM17.0464 16.5238C18.0773 19.64 20.2211 22.1534 23.0657 23.6558C22.0354 23.5378 20.7203 23.3921 19.2732 23.2445C17.212 21.7957 15.6584 19.7243 14.8407 17.2536C13.82 14.1693 12.6145 7.04807 21.0545 2.83651C17.1313 6.03642 15.3634 11.4379 17.0464 16.5238ZM24.762 67.8224C23.2656 62.9478 21.3616 38.0151 21.3423 37.7634C21.3327 37.6339 21.2417 37.5249 21.1159 37.4918C20.9888 37.4575 8.32164 34.0871 3.24236 31.4466C1.24738 30.4091 0.317036 28.8007 0.689777 27.034C1.00411 25.5436 2.18135 24.2971 3.72169 23.6739C3.02378 24.2255 2.53542 24.9432 2.35778 25.7851C2.03441 27.3182 2.75461 29.5107 5.74617 31.0661C10.5208 33.5488 21.8511 36.6494 23.5354 37.104C23.7371 39.7313 25.5051 62.3282 26.9635 67.0793C27.7162 69.5325 29.7895 71.1728 32.2439 71.2589C32.3108 71.2613 32.377 71.2625 32.4432 71.2625C33.1508 71.2625 33.8174 71.121 34.4196 70.8735C33.5795 71.5606 32.3282 71.9364 30.8451 71.8846C28.4117 71.7985 25.587 70.5098 24.762 67.8224ZM39.0737 53.9713C38.9256 53.9816 38.8057 54.0972 38.7907 54.2453C38.7804 54.3471 37.7568 64.4514 36.3176 68.1849C35.7148 69.7463 34.1215 70.6983 32.2656 70.6489C30.5223 70.5875 28.3672 69.5705 27.5476 66.9004C26.0512 62.0259 24.1466 37.0932 24.1279 36.8415C24.1177 36.712 24.0274 36.603 23.9015 36.5693C23.7738 36.5362 11.1067 33.1653 6.02798 30.5248C3.77889 29.3553 2.60165 27.5874 2.95572 25.9115C3.2821 24.3646 4.85317 23.2783 6.95834 23.1446C7.35999 23.1193 7.82004 23.1078 8.32767 23.1078C13.581 23.1078 23.8557 24.3585 25.1131 24.5139C25.2702 24.5374 25.4141 24.4314 25.4485 24.2779C25.4828 24.1249 25.3955 23.9702 25.2462 23.9214C21.6018 22.7189 18.8246 19.9531 17.6263 16.3317C16.6225 13.2998 16.8598 10.0583 18.2947 7.20401C19.7291 4.35034 22.1889 2.22649 25.2215 1.22269C28.2534 0.220078 31.4954 0.456131 34.3491 1.8911C37.2028 3.32545 39.3272 5.78529 40.3304 8.81781C41.6407 12.7771 40.8134 17.0567 38.1175 20.2668C38.0193 20.3837 38.0223 20.5546 38.1241 20.6679C38.2265 20.7811 38.3963 20.8015 38.5221 20.7166C42.2074 18.2207 51.0159 12.3182 53.2204 11.4102C55.0143 10.6707 57.5024 11.0735 58.652 12.2911C59.4534 13.1402 59.5335 14.3012 58.8856 15.6476C56.8906 19.7887 45.7246 30.0894 45.612 30.1924C45.5018 30.2941 45.4814 30.4615 45.5645 30.5861C45.7156 30.8138 60.6975 53.3836 61.5935 57.1435C61.9729 58.7333 61.2612 60.4091 59.6883 61.6255C58.0757 62.8738 56.0452 63.208 54.6349 62.4607C51.5813 60.8396 46.944 52.2015 46.8977 52.1148C46.8218 51.9727 46.6502 51.9161 46.502 51.98C42.6741 53.71 39.1092 53.9689 39.0737 53.9713ZM58.381 63.4964C56.5498 64.5538 53.76 65.1704 51.9161 63.4308C49.938 61.5634 46.1251 55.9187 44.4775 53.4246C45.1249 53.2078 45.8017 52.9549 46.4942 52.652C47.3017 54.1315 51.3977 61.434 54.3489 63.0002C55.9916 63.8734 58.2341 63.5217 60.0622 62.1084C60.2007 62.0012 60.3236 61.8838 60.45 61.7694C59.89 62.4516 59.153 63.0502 58.381 63.4964ZM62.1879 57.0014C61.3039 53.2957 47.8605 32.9442 46.2172 30.4651C47.7624 29.0326 57.5133 19.9037 59.4354 15.9119C60.1923 14.3409 60.0719 12.9065 59.0958 11.872C58.1178 10.8357 56.3728 10.3178 54.7054 10.4509C53.0885 10.198 51.2706 10.3606 49.9994 10.8838C48.5675 11.474 44.7425 13.6279 41.1157 15.8288C41.7467 13.5003 41.6985 11.0079 40.9103 8.62572C39.8553 5.43845 37.6225 2.85336 34.6231 1.34553C31.6237 -0.162903 28.216 -0.411591 25.0294 0.642799C24.8427 0.704826 24.6675 0.784302 24.4856 0.854149C24.2911 0.907745 24.0978 0.951111 23.9021 1.01554C15.3929 3.83248 11.7889 9.97398 14.2608 17.4457C15.0111 19.7116 16.3509 21.6584 18.1189 23.1295C14.0928 22.7375 9.39892 22.378 6.91979 22.5352C6.67592 22.5508 6.44348 22.5852 6.21345 22.6237C5.96295 22.6261 5.72449 22.634 5.50109 22.6478C2.85215 22.8164 0.577779 24.6078 0.0924321 26.9075C-0.335106 28.9326 0.737346 30.8325 2.96055 31.988C7.73573 34.4707 19.0655 37.5713 20.7498 38.0259C20.9515 40.6532 22.7195 63.2501 24.1779 68.0012C25.0914 70.9759 28.1739 72.4018 30.8234 72.4946C30.9234 72.4982 31.0215 72.5 31.1191 72.5C33.4386 72.5 35.2469 71.5191 35.8931 69.901C36.3182 69.4807 36.6644 68.9821 36.8872 68.4047C38.2445 64.8838 39.202 56.1873 39.3724 54.5578C40.0065 54.4946 41.7305 54.2736 43.8724 53.6178C45.4741 56.053 49.4075 61.9013 51.4976 63.8746C53.5853 65.8467 56.675 65.1873 58.6863 64.0245C60.4542 63.0032 62.056 61.2262 62.0663 59.3457C62.3149 58.5755 62.3722 57.7752 62.1879 57.0014Z" fill="#040606"/>
<path d="M24.1279 36.8413C24.1466 37.093 26.0512 62.0258 27.5476 66.9003C28.3671 69.5703 30.5223 70.5874 32.2656 70.6488C32.8701 70.6644 33.4416 70.5645 33.9655 70.382C32.5269 69.1861 30.951 67.4615 30.2369 65.2485C28.7616 60.6745 27.5813 34.2629 27.5813 34.2629C27.5813 34.2629 13.711 31.0166 8.54681 28.803C5.73891 27.5999 4.11486 26.2245 3.21161 25.2177C3.10021 25.4381 3.00687 25.6663 2.95569 25.9114C2.60161 27.5872 3.77885 29.3552 6.02794 30.5246C11.1066 33.1651 23.7738 36.536 23.9015 36.5692C24.0273 36.6029 24.1176 36.7119 24.1279 36.8413Z" fill="#F46C42"/>
<path d="M25.2463 23.9213C25.3011 23.9394 25.3439 23.9743 25.3794 24.0159C28.1168 24.3567 30.6803 24.229 30.6803 24.229C30.6803 24.229 24.9253 22.9013 21.2365 14.3433C19.1325 9.46209 20.1971 5.63952 21.4996 3.25374C20.1773 4.31355 19.0789 5.64495 18.2949 7.20396C16.8599 10.0582 16.6227 13.2997 17.6265 16.3316C18.8248 19.953 21.602 22.7188 25.2463 23.9213Z" fill="#F46C42"/>
<path d="M49.1234 47.3951C45.4345 50.3463 39.0732 53.9713 39.0732 53.9713C39.1088 53.9689 42.6736 53.71 46.5016 51.98C46.6497 51.9161 46.8213 51.9727 46.8972 52.1149C46.9436 52.2016 51.5809 60.8397 54.6345 62.4607C55.442 62.8888 56.4536 62.9509 57.4731 62.7003C51.9084 57.591 49.1234 47.3951 49.1234 47.3951Z" fill="#F46C42"/>
<path d="M43.5168 27.918L45.6117 30.1924C45.7243 30.0894 56.8903 19.7887 58.8853 15.6476C59.3755 14.6294 59.4471 13.7177 59.1075 12.9662C54.5876 19.7532 43.5168 27.918 43.5168 27.918Z" fill="#F46C42"/>
<path d="M53.2202 11.4103C51.76 12.0118 47.4033 14.8041 43.5566 17.3464C47.5996 15.452 52.8475 13.0132 53.9928 12.5724C54.8117 12.2575 56.6008 12.1323 58.4832 12.1479C57.277 11.0502 54.937 10.7021 53.2202 11.4103Z" fill="white"/>
<path d="M39.1337 18.8594C40.9986 15.8636 41.4574 12.2229 40.3302 8.81762C39.327 5.78511 37.2025 3.32527 34.3489 1.89091C31.4952 0.455946 28.2531 0.219891 25.2212 1.2225C24.6636 1.40676 24.1331 1.64162 23.617 1.89935C26.2581 1.64885 30.6732 1.61873 34.6638 3.42402C40.3278 5.98624 40.6903 15.4469 39.1337 18.8594Z" fill="white"/>
<path d="M59.6881 61.6253C61.2609 60.4089 61.9727 58.7331 61.5933 57.1434C60.6973 53.3835 45.7154 30.8136 45.5642 30.586C45.5642 30.586 58.1242 52.5591 59.4526 55.8054C60.1776 57.5788 59.3623 60.2753 58.4723 62.3582C58.892 62.1667 59.3021 61.924 59.6881 61.6253Z" fill="white"/>
</svg>
