<svg width="79" height="57" viewBox="0 0 79 57" fill="none" xmlns="http://www.w3.org/2000/svg">
<path d="M50.1899 59.3691C55.1011 57.3595 60.6732 54.8463 66.7218 53.0546C73.0265 51.187 78.8832 50.3454 84.3155 49.338C85.5092 49.1168 86.2516 47.9189 85.9172 46.7523L73.7544 4.35653C73.4415 3.26577 72.3037 2.63516 71.2129 2.94814L36.833 12.8111L50.1899 59.3691Z" fill="#6B7FFF"/>
<path d="M50.1883 59.3691C44.9585 60.2689 38.9016 61.0918 32.8233 62.7792C26.4873 64.5378 21.0755 66.9294 15.9346 68.9549C14.8052 69.3997 13.5407 68.7779 13.2059 67.6112L1.04311 25.2155C0.730131 24.1248 1.36074 22.987 2.4515 22.674L36.8314 12.811L50.1883 59.3691Z" fill="#6B7FFF"/>
<path d="M74.1344 4.24717C73.7613 2.94823 72.3986 2.19513 71.1029 2.56772L36.7234 12.4307L2.34355 22.2931C1.0446 22.6662 0.291036 24.0262 0.663627 25.3251L12.8264 67.7204C13.2246 69.1087 14.7341 69.8544 16.0805 69.323C23.007 66.5938 30.0527 63.6149 37.4016 62.0276C39.4867 61.5768 41.5853 61.1823 43.6806 60.7841C53.96 58.8317 46.6325 60.9592 55.9938 57.3004C66.8754 53.0477 68.2726 52.7101 84.3867 49.7275C85.0653 49.6017 85.6623 49.1933 86.0251 48.6074C87.1075 46.8595 86.3349 47.8319 74.1344 4.24717ZM44.023 59.9151C40.9817 60.4879 37.7881 61.1339 37.2348 61.2536C29.8105 62.8571 22.7359 65.8509 15.7908 68.5862C14.8654 68.9509 13.8552 68.4329 13.5883 67.5019L1.42557 25.1067C1.17314 24.2274 1.68359 23.3066 2.56244 23.0546L36.5614 13.3011C36.6568 13.6341 36.8133 14.1804 37.0201 14.9009C38.4993 20.0571 49.6477 58.9165 49.6626 58.9687C48.8452 59.0343 47.2403 59.3087 44.023 59.9151ZM84.2428 48.9488C76.8603 50.3176 69.3005 51.5294 62.1723 54.0994C61.6367 54.2927 58.582 55.4398 55.7069 56.5627C52.6568 57.755 51.1506 58.373 50.4231 58.7498C49.2164 54.5446 38.7634 18.1057 37.3219 13.0822L71.3208 3.32874C72.1983 3.07863 73.1209 3.58629 73.3724 4.4656L85.5352 46.8613C85.8062 47.8049 85.2082 48.7704 84.2428 48.9488Z" fill="#0A1640"/>
<path d="M75.8909 48.4089L62.1162 0.394043C65.9972 2.54482 70.377 1.36744 70.377 1.36744L83.5439 47.2637C82.5365 47.2408 81.3731 47.2818 80.0923 47.4486C78.4543 47.6628 77.0403 48.0289 75.8909 48.4089Z" fill="white"/>
<path d="M75.8902 48.409C75.8902 48.409 62.959 49.4583 49.2202 55.9903L36.1553 10.4499C36.1553 10.4499 44.8888 3.97237 61.9986 0.435551C62.0392 0.427167 62.0797 0.418784 62.1202 0.4104L75.8902 48.409Z" fill="white"/>
<path d="M75.8909 48.4089L62.1162 0.394043C65.9972 2.54482 70.377 1.36744 70.377 1.36744L83.5439 47.2637C82.5365 47.2408 81.3731 47.2818 80.0923 47.4486C78.4543 47.6628 77.0403 48.0289 75.8909 48.4089Z" fill="white"/>
<path d="M75.8902 48.409C72.8452 48.7424 69.5082 49.2776 65.9518 50.1131C59.3314 51.6682 53.7225 53.8474 49.2202 55.9903L36.1553 10.4499C36.1553 10.4499 44.8888 3.97237 61.9986 0.435551C62.0392 0.427167 62.0797 0.418784 62.1202 0.4104L75.8902 48.409Z" fill="white"/>
<path d="M22.5861 63.7009L8.81145 15.6855C6.66067 19.5665 2.32324 20.8902 2.32324 20.8902L15.4901 66.7864C16.3322 66.2331 17.3405 65.6509 18.5151 65.1135C20.0171 64.4265 21.4101 63.9878 22.5861 63.7009Z" fill="white"/>
<path d="M22.5869 63.7009C22.5869 63.7009 34.1079 57.7352 49.2197 55.9901L36.1548 10.4497C36.1548 10.4497 25.3157 9.58715 8.93284 15.659C8.89418 15.6734 8.85553 15.6879 8.81641 15.7023L22.5869 63.7009Z" fill="white"/>
<path d="M22.5861 63.7009L8.81145 15.6855C6.66067 19.5665 2.32324 20.8902 2.32324 20.8902L15.4901 66.7864C16.3322 66.2331 17.3405 65.6509 18.5151 65.1135C20.0171 64.4265 21.4101 63.9878 22.5861 63.7009Z" fill="white"/>
<path d="M22.5869 63.7009C25.3455 62.3693 28.4585 61.0541 31.917 59.8772C38.355 57.6863 44.2661 56.5602 49.2197 55.9901L36.1548 10.4497C36.1548 10.4497 25.3157 9.58715 8.93284 15.659C8.89418 15.6734 8.85553 15.6879 8.81641 15.7023L22.5869 63.7009Z" fill="white"/>
<path d="M47.3525 43.0873L46.346 41.4098C46.1606 41.101 46.2608 40.7004 46.5696 40.5155L47.4079 40.0125C57.0771 34.2043 69.5202 32.3525 69.4648 32.3716C69.8202 32.3129 70.1555 32.5528 70.2147 32.9082L70.5346 34.8382C70.6874 35.7603 69.3763 35.6262 69.0331 35.7482C56.8959 37.7612 47.828 43.5624 48.2462 43.3114C47.9379 43.4963 47.5374 43.3961 47.3525 43.0873Z" fill="#FFCE00"/>
<path d="M48.515 47.2249L47.5392 45.5306C47.3595 45.2185 47.4671 44.8203 47.7786 44.6405L48.6258 44.1525C52.8328 41.7269 59.2004 39.5137 58.9559 39.6027C59.294 39.4792 59.6685 39.6534 59.7914 39.992L60.4612 41.8298C60.5846 42.1679 60.4104 42.5424 60.0718 42.6654L59.1529 43.0002C49.7878 46.4136 49.1768 48.3739 48.515 47.2249Z" fill="#FFCE00"/>
<path d="M46.3456 38.7551L45.3335 37.0822C45.1472 36.7743 45.2455 36.3733 45.5538 36.187L46.3898 35.6808C56.1266 29.7929 68.0783 28.1489 68.0313 28.1647C68.3867 28.1065 68.722 28.3473 68.7802 28.7026L69.0969 30.6336C69.1551 30.9889 68.9143 31.3243 68.559 31.3825C68.5124 31.3988 57.1889 32.9641 48.0772 38.4705L47.2403 38.9759C46.9319 39.1617 46.5319 39.063 46.3456 38.7551Z" fill="#FFCE00"/>
<path d="M44.9381 34.5419L43.8898 32.8918C43.6969 32.5882 43.7864 32.1853 44.0905 31.992L44.9148 31.4681C54.741 25.2174 67.0379 23.6618 66.9899 23.6781C67.3457 23.6232 67.6787 23.8677 67.7332 24.2235L68.0304 26.1568C68.0853 26.5126 67.8408 26.8456 67.485 26.9001C67.4384 26.9164 55.8816 28.3663 46.6628 34.2192L45.837 34.7427C45.5333 34.936 45.1309 34.8456 44.9381 34.5419Z" fill="#FFCE00"/>
<path d="M65.7339 2.73769C66.3129 4.50843 66.8545 6.28941 67.4162 8.06481L69.0379 13.4092C70.1133 16.9739 71.137 20.5536 72.1891 24.1249C73.1946 27.7097 74.2253 31.2875 75.2071 34.8788L76.669 40.2692C77.1352 42.0721 77.6215 43.8694 78.0704 45.6769C78.1091 45.8334 78.0136 45.9922 77.8571 46.0309C77.7076 46.0682 77.5562 45.982 77.5087 45.8381C76.9308 44.0673 76.3905 42.2859 75.8298 40.51L74.2118 35.1643C73.1406 31.5981 72.1178 28.0185 71.0699 24.4458C70.0686 20.8596 69.0388 17.2818 68.0612 13.6891L66.6035 8.29768C66.1382 6.49434 65.6534 4.69705 65.2053 2.88906C65.169 2.74188 65.2589 2.59285 65.4061 2.55605C65.5476 2.52159 65.6897 2.60216 65.7339 2.73769Z" fill="#A8AFC2"/>
<path d="M68.9058 4.27513C69.4433 5.90289 69.9444 7.54136 70.4651 9.17424L71.9643 14.0906C72.9578 17.3698 73.8995 20.6635 74.8696 23.9493C75.7932 27.2486 76.7414 30.5405 77.6422 33.8463L78.9812 38.8083C79.4064 40.4682 79.8516 42.1229 80.2596 43.7875C80.2983 43.9444 80.2019 44.1023 80.0454 44.141C79.8963 44.1773 79.7459 44.0916 79.6979 43.9486C79.1609 42.3204 78.6612 40.6819 78.1424 39.0486L76.6473 34.1313C75.6581 30.8511 74.7169 27.5569 73.7514 24.2698C72.832 20.9695 71.8847 17.6772 70.9881 14.37L69.6533 9.40664C69.2291 7.74628 68.7852 6.09151 68.3781 4.42603C68.3418 4.27839 68.4322 4.12982 68.5798 4.09396C68.7195 4.05996 68.8611 4.14053 68.9058 4.27513Z" fill="#A8AFC2"/>
<path d="M7.51421 19.4396C8.09313 21.2103 8.63478 22.9913 9.19646 24.7667L10.8182 30.1111C11.8936 33.6758 12.9172 37.2555 13.9694 40.8268C14.9749 44.4116 16.0051 47.9889 16.9873 51.5807L18.4493 56.9712C18.9155 58.774 19.4017 60.5713 19.8507 62.3788C19.8894 62.5353 19.7939 62.6942 19.6374 62.7328C19.4879 62.7701 19.3365 62.6839 19.289 62.54C18.711 60.7693 18.1708 58.9873 17.6105 57.2115L15.9925 51.8657C14.9213 48.2996 13.8986 44.7199 12.8506 41.1472C11.8498 37.561 10.82 33.9832 9.84197 30.3905L8.38374 24.9991C7.91847 23.1958 7.43364 21.3985 6.9856 19.5905C6.94927 19.4433 7.03916 19.2943 7.18633 19.2575C7.32745 19.2235 7.46997 19.3045 7.51421 19.4396Z" fill="#A8AFC2"/>
<path d="M5.64049 22.425C6.17842 24.0528 6.67909 25.6912 7.19979 27.3241L8.699 32.2404C9.69242 35.5197 10.6341 38.8134 11.6043 42.0992C12.5278 45.3985 13.4761 48.6903 14.3768 51.9961L15.7158 56.9581C16.141 58.618 16.5863 60.2728 16.9943 61.9378C17.0329 62.0948 16.937 62.2526 16.78 62.2913C16.631 62.3276 16.4806 62.2419 16.4326 62.0989C15.8961 60.4707 15.3963 58.8323 14.877 57.1989L13.382 52.2816C12.3928 49.0014 11.452 45.7073 10.486 42.4201C9.56667 39.1199 8.61889 35.8276 7.72281 32.5203L6.38754 27.557C5.96325 25.8966 5.5194 24.2418 5.11235 22.5764C5.07648 22.4292 5.16684 22.2802 5.31401 22.2443C5.4542 22.2098 5.59532 22.2904 5.64049 22.425Z" fill="#A8AFC2"/>
<path d="M83.9233 47.1546L70.7564 1.25837C70.6963 1.05111 70.4806 0.930489 70.2734 0.984981C70.231 0.996624 65.9951 2.09158 62.3069 0.0474485C62.1914 -0.0163577 62.0545 -0.0140287 61.9385 0.0437229L61.918 0.047914C45.9837 3.34115 37.1547 9.26349 36.0388 10.0459C34.677 9.97421 24.0521 9.63375 8.79309 15.2883L8.77679 15.2943C8.64545 15.3046 8.52995 15.3777 8.46567 15.4937C6.42108 19.1828 2.24946 20.4985 2.20754 20.5115C2.00169 20.5749 1.88386 20.7919 1.943 20.9992L15.1099 66.8954C15.1448 67.0165 15.2352 67.1138 15.3526 67.1576C15.3977 67.1739 15.4438 67.1823 15.4904 67.1823C15.5668 67.1823 15.6422 67.1604 15.7079 67.1171C16.6534 66.4958 17.6538 65.943 18.6803 65.474C19.9624 64.8871 21.3084 64.42 22.6805 64.0856C22.6959 64.0819 22.708 64.0712 22.7224 64.0656C22.7345 64.0614 22.7476 64.0628 22.7592 64.0572C24.3609 63.2827 26.004 62.5533 27.6415 61.8901C39.8485 56.9435 48.8322 56.6091 49.3887 56.3483C56.216 53.117 63.367 50.8311 70.6432 49.5536C72.3911 49.2472 74.1702 48.9943 75.9321 48.8028C75.9414 48.8019 75.9493 48.7954 75.9587 48.794C75.9768 48.7907 75.9959 48.7912 76.0136 48.7851C77.3545 48.3418 78.7433 48.0241 80.1419 47.842C81.2606 47.6962 82.4045 47.6371 83.533 47.6599C83.5362 47.6599 83.5395 47.6599 83.5423 47.6599C83.6648 47.6599 83.7807 47.6036 83.8557 47.5062C83.9326 47.4056 83.9577 47.2757 83.9233 47.1546ZM18.351 64.7535C17.4498 65.1656 16.5686 65.6398 15.7247 66.1665L2.80788 21.1412C3.83856 20.7561 6.76852 19.4646 8.67852 16.6566L22.0937 63.4173C20.8105 63.7549 19.554 64.2034 18.351 64.7535ZM27.3439 61.1556C25.834 61.7676 24.3204 62.4346 22.8379 63.1401L9.29842 15.9459C23.8639 10.589 34.0836 10.7543 35.8511 10.8298C37.2935 15.8565 47.1741 50.2974 48.7106 55.6525C41.3021 56.5611 34.1153 58.412 27.3439 61.1556ZM70.5067 48.774C63.3101 50.037 56.2356 52.2773 49.4721 55.4345L36.6131 10.6113C38.0722 9.60813 46.6488 4.0528 61.8398 0.873203L67.7882 21.607L75.3793 48.0679C73.7539 48.2537 72.1168 48.4908 70.5067 48.774ZM80.0395 47.0563C78.7275 47.2272 77.4239 47.5132 76.158 47.9072L62.7424 1.14659C65.8512 2.5154 69.0196 2.05711 70.0983 1.83682L83.0151 46.8621C82.0202 46.863 81.0217 46.9282 80.0395 47.0563Z" fill="#0A1640"/>
<path d="M69.1584 34.0754C69.123 33.8597 68.9185 33.7153 68.7033 33.7493C57.153 35.6654 48.1345 41.0172 48.0446 41.0712C47.5965 41.3395 48.0008 42.019 48.4521 41.7498C48.5401 41.6972 57.4371 36.4213 68.8328 34.5308C69.0485 34.4945 69.1942 34.291 69.1584 34.0754Z" fill="#0A1640"/>
<path d="M67.9273 29.7843C67.8919 29.5682 67.6884 29.4238 67.4723 29.4578C55.9145 31.3529 46.9071 36.7476 46.8172 36.8021C46.3701 37.0727 46.78 37.7494 47.2275 37.4797C47.3156 37.4262 56.1916 32.1102 67.6003 30.2393C67.8164 30.2035 67.9627 30.0004 67.9273 29.7843Z" fill="#0A1640"/>
<path d="M61.3369 6.8189C61.3071 6.6028 61.1091 6.4505 60.8903 6.48124C49.237 8.09922 40.3754 14.0546 40.2874 14.1147C40.1067 14.2381 40.0601 14.484 40.1826 14.6647C40.2594 14.7774 40.3838 14.838 40.5105 14.838C40.5868 14.838 40.6646 14.8161 40.7326 14.77C40.8197 14.7108 49.5365 8.85744 60.9997 7.26601C61.2163 7.23574 61.3672 7.03547 61.3369 6.8189Z" fill="#0A1640"/>
<path d="M62.6738 11.4719C62.644 11.2553 62.447 11.1016 62.2272 11.1342C50.5739 12.7522 41.7123 18.7081 41.6243 18.7677C41.4436 18.8911 41.397 19.137 41.5195 19.3182C41.5963 19.4305 41.7207 19.491 41.8474 19.491C41.9238 19.491 42.0015 19.4691 42.07 19.423C42.1566 19.3638 50.8641 13.5118 62.3366 11.919C62.5527 11.8883 62.7036 11.6885 62.6738 11.4719Z" fill="#0A1640"/>
<path d="M64.0073 16.1247C63.978 15.9081 63.7763 15.7526 63.5607 15.787C51.9079 17.405 43.0463 23.3609 42.9583 23.4205C42.7776 23.5439 42.731 23.7898 42.8535 23.971C42.9303 24.0832 43.0547 24.1438 43.1814 24.1438C43.2577 24.1438 43.3355 24.1219 43.4035 24.0758C43.4901 24.0166 52.1976 18.1646 63.6697 16.5718C63.8862 16.541 64.0371 16.3412 64.0073 16.1247Z" fill="#0A1640"/>
<path d="M65.3433 20.7775C65.3135 20.5614 65.1132 20.4086 64.8966 20.4398C53.2434 22.0578 44.3822 28.0137 44.2942 28.0733C44.1135 28.1967 44.0669 28.4426 44.1894 28.6238C44.2663 28.736 44.3906 28.7966 44.5173 28.7966C44.5937 28.7966 44.6715 28.7747 44.7395 28.7286C44.8261 28.6694 53.5335 22.8174 65.0056 21.2246C65.2222 21.1943 65.3731 20.9941 65.3433 20.7775Z" fill="#0A1640"/>
<path d="M66.6624 25.378C66.6293 25.1614 66.4267 25.0138 66.2111 25.0469C54.6142 26.8278 45.6664 32.4526 45.577 32.5089C45.3926 32.6263 45.3381 32.8708 45.4555 33.0557C45.5304 33.1745 45.659 33.2397 45.7899 33.2397C45.8625 33.2397 45.9361 33.2196 46.0018 33.1773C46.0893 33.1218 54.8969 27.5856 66.3308 25.8293C66.5474 25.7962 66.6955 25.5941 66.6624 25.378Z" fill="#0A1640"/>
<path d="M70.3761 38.3157C70.3383 38.1001 70.1325 37.9567 69.9182 37.9939C58.3991 39.9999 49.3331 45.1696 49.2427 45.2213C48.7881 45.4835 49.1863 46.1695 49.6381 45.9073C49.7271 45.8561 58.6786 40.7548 70.0542 38.7736C70.2689 38.7363 70.4133 38.5309 70.3761 38.3157Z" fill="#0A1640"/>
<path d="M71.1089 42.1479C59.5898 44.1538 50.5237 49.324 50.4329 49.3761C49.9788 49.6379 50.3766 50.3244 50.8283 50.0622C50.9173 50.0109 59.8688 44.9092 71.2445 42.928C71.4601 42.8907 71.604 42.6853 71.5668 42.4706C71.5295 42.254 71.3204 42.1111 71.1089 42.1479Z" fill="#0A1640"/>
<path d="M42.3091 42.7166C42.2043 42.7184 31.72 42.9615 20.9112 47.4606C20.709 47.5449 20.6136 47.7768 20.6974 47.978C20.7612 48.1303 20.9079 48.222 21.063 48.222C21.1138 48.222 21.1655 48.2123 21.2148 48.1918C31.8798 43.7533 42.2201 43.5102 42.3235 43.5078C42.8288 43.4985 42.8554 42.7282 42.3091 42.7166Z" fill="#0A1640"/>
<path d="M39.8578 34.9412C40.0753 34.9412 40.2523 34.7661 40.2537 34.5481C40.2555 34.3297 40.0795 34.1508 39.8611 34.1494C39.7479 34.1527 29.1873 34.1219 18.4087 38.7598C18.2075 38.8459 18.1148 39.0788 18.2014 39.28C18.2661 39.4295 18.4119 39.5199 18.5652 39.5199C18.6173 39.5199 18.6709 39.5096 18.7216 39.4877C29.1477 35.0013 39.372 34.9407 39.8392 34.9407C39.8513 34.9412 39.8545 34.9407 39.8578 34.9412Z" fill="#0A1640"/>
<path d="M43.4921 46.8711C43.3877 46.8748 32.9603 47.2977 22.1296 51.7036C21.9274 51.786 21.8296 52.017 21.9121 52.2192C21.9745 52.3729 22.1226 52.466 22.2786 52.466C22.3284 52.466 22.3792 52.4567 22.4276 52.4367C33.1233 48.0857 43.4176 47.6661 43.52 47.6624C44.0235 47.6433 44.0384 46.8832 43.4921 46.8711Z" fill="#0A1640"/>
<path d="M41.273 38.8932C41.2697 38.6767 41.0932 38.5034 40.8771 38.5034C40.8752 38.5034 40.8734 38.5034 40.871 38.5034C40.7686 38.5048 30.4832 38.7023 19.8974 43.131C19.6958 43.2158 19.6007 43.4472 19.685 43.6489C19.7488 43.8007 19.8956 43.8925 20.0502 43.8925C20.1009 43.8925 20.1531 43.8827 20.2029 43.8613C30.642 39.4941 40.7816 39.2966 40.8827 39.2947C41.1016 39.2915 41.2762 39.1117 41.273 38.8932Z" fill="#0A1640"/>
<path d="M37.2332 25.8457C37.4581 25.8499 37.6356 25.6837 37.6439 25.4652C37.6523 25.2468 37.4819 25.0633 37.2639 25.0545C37.1559 25.0489 26.4844 24.6986 15.7477 29.5046C15.5484 29.5935 15.4589 29.8278 15.5484 30.0276C15.614 30.1743 15.7584 30.2619 15.9093 30.2619C15.9633 30.2619 16.0183 30.2507 16.0714 30.2269C26.6343 25.4992 37.1232 25.8434 37.2332 25.8457Z" fill="#0A1640"/>
<path d="M38.5671 30.4985C38.7786 30.5046 38.9695 30.336 38.9779 30.118C38.9863 29.8996 38.8159 29.7161 38.5979 29.7072C38.4912 29.7035 27.8184 29.3514 17.0817 34.1574C16.8824 34.2463 16.7929 34.4806 16.8824 34.6804C16.948 34.8271 17.0924 34.9146 17.2433 34.9146C17.2973 34.9146 17.3523 34.9035 17.4054 34.8797C27.9683 30.152 38.4572 30.4948 38.5671 30.4985Z" fill="#0A1640"/>
<path d="M44.6994 51.0254C40.9572 51.0254 31.206 52.6504 23.322 55.8574C23.1194 55.9399 23.0221 56.1709 23.1045 56.373C23.1669 56.5267 23.315 56.6198 23.4711 56.6198C23.5204 56.6198 23.5717 56.6101 23.6201 56.59C34.3158 52.2396 44.6105 51.8199 44.7129 51.8162C45.2285 51.7971 45.2127 51.0254 44.6994 51.0254Z" fill="#0A1640"/>
<path d="M17.5461 23.9902C17.3901 24.0349 17.1656 24.1746 15.426 24.8317L15.3916 24.7442C14.8797 23.2534 14.6511 22.7508 14.0898 21.3871C14.2137 21.2763 14.7205 21.0653 14.9557 21.063C15.2612 21.9186 15.6855 22.8565 15.9998 23.7033L16.0017 23.7084C16.1261 23.6143 17.2406 23.2762 17.405 23.1891C17.418 23.2235 17.4339 23.2627 17.4418 23.2985C17.4613 23.3642 17.4846 23.4397 17.5116 23.4909C17.7226 23.9492 17.6965 23.931 17.5461 23.9902Z" fill="#0A1640"/>
<path d="M20.0082 22.4249C20.0953 22.6335 20.1745 22.8729 20.1801 23.0918C19.4335 23.3331 18.6548 23.6456 17.9301 23.8239C17.5482 22.668 17.115 21.5786 16.8086 20.4143C17.6451 20.0938 19.0581 19.6053 19.0679 19.6351C19.1834 19.8568 19.2244 20.1083 19.3017 20.3425L19.3036 20.3472C18.869 20.5959 18.3562 20.6821 17.8872 20.8814L17.8709 20.8865L17.8672 20.8935C17.9371 21.0859 17.9566 21.3117 18.0656 21.4748L18.0726 21.478C18.2971 21.4207 18.5258 21.3392 18.7521 21.2703L18.7535 21.2754C18.8662 21.4869 18.9072 21.7221 18.9934 21.9643C18.7871 22.0933 18.4075 22.158 18.3488 22.2376C18.3744 22.4449 18.4853 22.7066 18.5546 22.8608L18.5616 22.8636C19.0437 22.7043 19.5117 22.5944 20.0059 22.4142L20.0082 22.4249Z" fill="#0A1640"/>
<path d="M22.2118 19.9648C21.9612 20.077 21.6548 20.1828 21.3753 20.1888C21.3632 19.7948 20.6017 19.8563 20.6446 20.2531C20.6404 20.3029 20.6641 20.3453 20.6823 20.3896C20.788 20.5349 20.9422 20.5307 21.1038 20.5083C21.5099 20.4403 21.9165 20.547 22.2127 20.7761C22.5578 21.0076 22.6826 21.4417 22.6002 21.8399C22.5359 22.3042 22.1457 22.6069 21.685 22.7169C21.0297 22.8803 20.2184 22.6945 20.0866 22.0397L20.0829 22.0243L20.0787 22.0089C20.3307 21.9018 20.68 21.8441 20.9291 21.7705C21.0749 22.1929 21.8904 21.9805 21.6725 21.5339C21.5388 21.2223 21.0866 21.2973 20.7596 21.3271C20.6027 21.3429 20.462 21.3108 20.3339 21.2591C19.4863 20.8544 19.5738 19.84 20.2128 19.3761C20.5375 19.1404 21.0675 19.044 21.4643 19.0929C21.8662 19.1623 22.1852 19.4287 22.2178 19.9643L22.2118 19.9648Z" fill="#0A1640"/>
<path d="M25.1483 19.3197C24.8917 19.4184 24.5806 19.5074 24.3007 19.499C24.31 19.1045 23.5462 19.1259 23.5676 19.5237C23.5606 19.5735 23.582 19.6173 23.5974 19.6625C23.6952 19.8129 23.8498 19.8171 24.0119 19.8031C24.4218 19.757 24.8214 19.8846 25.105 20.1291C25.4366 20.3792 25.5381 20.8189 25.4347 21.2124C25.3453 21.6726 24.9397 21.9544 24.4739 22.0396C23.8107 22.1677 23.011 21.9385 22.9146 21.2776L22.9114 21.2623L22.9076 21.2469C23.1652 21.1533 23.5168 21.1142 23.7697 21.0541C23.8927 21.484 24.7184 21.3149 24.5247 20.8575C24.4083 20.539 23.9528 20.5897 23.6244 20.6023C23.4665 20.6098 23.3282 20.5702 23.2029 20.5115C22.379 20.0621 22.5206 19.0537 23.1838 18.6248C23.5206 18.4068 24.0552 18.3388 24.4483 18.4087C24.846 18.4995 25.1502 18.7827 25.1539 19.3187L25.1483 19.3197Z" fill="#0A1640"/>
<path d="M28.0252 18.5462C28.0704 18.7148 28.0983 18.8852 28.1207 19.0575C28.1579 19.4287 28.2353 19.7617 28.2655 20.1241L28.2762 20.2978C28.2986 20.5442 28.2772 20.8078 28.1733 21.0318C28.069 21.219 27.8622 21.3485 27.6372 21.443C27.4356 21.5339 27.2209 21.58 26.9955 21.6005C26.6778 21.6252 26.3653 21.6121 26.1837 21.3597C26.0477 21.2065 25.9918 21.008 25.9531 20.8069C25.8423 20.2722 25.7082 19.7357 25.6593 19.1851C25.6141 18.8736 25.6229 18.5317 25.8171 18.2504C25.8511 18.2076 25.8861 18.1698 25.9331 18.1358C26.3984 17.8317 27.1072 17.7274 27.5958 17.9621C27.7183 18.0324 27.8161 18.1284 27.8813 18.2397C27.9498 18.3352 27.9907 18.4404 28.0252 18.5462ZM27.409 19.2522C27.4081 19.2466 27.3629 19.079 27.3382 18.9602C27.2898 18.7716 27.1594 18.6169 26.9698 18.568C26.8068 18.5359 26.6434 18.6104 26.5372 18.7129C26.4212 18.8275 26.3495 18.9616 26.3271 19.1139C26.3076 19.3882 26.3499 19.6844 26.4147 19.9718C26.4943 20.2088 26.5311 20.4687 26.642 20.6848C26.8348 20.9354 27.3191 20.8888 27.5138 20.6126C27.6289 20.4184 27.5716 20.4273 27.5506 20.1227C27.5338 19.982 27.5208 19.867 27.5185 19.8512L27.478 19.6025L27.409 19.2522Z" fill="#0A1640"/>
<path d="M30.4667 21.0594C30.1561 20.5713 29.8375 20.1158 29.6098 19.6925L29.5353 19.5425C29.498 19.4675 29.4603 19.3925 29.443 19.3948C29.4202 19.3972 29.4859 20.14 29.552 20.7241C29.5702 20.8857 29.5874 21.037 29.6065 21.1563C29.5232 21.187 29.443 21.201 29.3573 21.2112C29.1738 21.2317 28.981 21.2215 28.8027 21.242L28.7617 20.8768C28.6872 20.2141 28.6066 19.6477 28.533 18.9957C28.479 18.5155 28.437 18.04 28.4277 17.592C28.5004 17.5678 28.5917 17.5524 28.6834 17.5421C28.7812 17.5314 29.1622 17.5095 29.1655 17.5407C29.3033 17.7839 29.3587 17.8146 29.5297 18.0908C29.5865 18.1849 30.0918 18.91 30.1095 18.9077C30.1305 18.8895 30.1309 18.7363 30.1174 18.6161C30.0862 18.3399 30.0434 18.1122 30.015 17.8621C29.9987 17.7159 29.988 17.5692 29.9745 17.3964C30.1039 17.3605 30.2399 17.3344 30.3838 17.3186C30.5273 17.3023 30.6549 17.2986 30.7662 17.3074L30.9553 18.9869C30.994 19.2784 31.0275 19.5811 31.0615 19.8783C31.0843 20.0818 31.0992 20.2648 31.1206 20.4577C31.1365 20.5988 31.1574 20.7338 31.1733 20.8745L31.1844 20.9788C31.1681 20.9858 31.1304 21.0114 30.9981 21.0263C30.8421 21.0431 30.6214 21.0417 30.4667 21.0594Z" fill="#0A1640"/>
<path d="M34.1783 20.8031C33.9878 20.811 33.7675 20.7989 33.6111 20.7896V20.784L33.5906 20.275C33.5636 19.5983 33.6059 18.9346 33.5789 18.2574C33.5775 18.2206 33.5766 18.1996 33.5696 18.1628C33.4937 18.1503 33.4602 18.4563 33.333 18.4619C33.2641 18.4646 32.6293 18.3589 32.627 18.2956C32.6405 18.0585 33.2338 17.1415 33.2785 17.0972C33.4574 17.0851 33.6241 17.0726 33.8034 17.0656C34.0051 17.0572 34.2016 17.0544 34.4103 17.0623C34.4452 17.3604 34.4624 17.6487 34.4745 17.9426C34.5067 18.745 34.4741 19.5242 34.5062 20.3271C34.5109 20.4482 34.516 20.5735 34.5267 20.6941C34.53 20.7789 34.3227 20.7975 34.1783 20.8031Z" fill="#0A1640"/>
</svg>
