<svg width="192" height="283" viewBox="0 0 192 283" fill="none" xmlns="http://www.w3.org/2000/svg">
<path d="M140.187 149.004C140.187 149.004 140.173 171.246 140.14 171.869H51.4229C51.3921 171.246 51.377 170.63 51.377 170.01C51.377 170.01 51.3921 147.855 51.4229 147.283C51.4692 146.027 51.5931 144.788 51.7793 143.565C52.9561 135.324 56.8289 127.95 62.4681 122.358C63.2115 121.631 63.9861 120.918 64.7918 120.251C69.3004 116.471 74.7055 113.728 80.6558 112.398C83.3047 111.793 86.0775 111.484 88.9108 111.484H102.667C105.501 111.484 108.276 111.793 110.925 112.398C116.873 113.728 122.264 116.471 126.772 120.251C127.576 120.918 128.352 121.631 129.096 122.358C134.735 127.95 138.606 135.324 139.785 143.565C139.969 144.788 140.093 146.027 140.14 147.283C140.173 147.855 140.187 148.428 140.187 149.004Z" fill="#8E443F"/>
<path d="M125.888 171.869H65.6905C65.9383 161.675 70.6798 152.704 77.85 147.283C82.4208 143.797 87.9829 141.754 93.9938 141.754H97.5706C103.581 141.754 109.144 143.797 113.728 147.283C120.885 152.721 125.64 161.675 125.888 171.869Z" fill="#F3664F"/>
<path d="M63.3294 122.41C50.0175 121.92 37.4169 115.796 28.7993 105.421C30.3952 102.728 29.2434 98.7853 26.0045 96.3319C22.5772 93.7354 18.1512 93.8042 16.1186 96.4889C15.1581 97.7555 14.926 99.3801 15.2864 101.016C13.6153 101.109 12.1139 101.773 11.1534 103.039C10.1936 104.309 9.96143 105.933 10.3219 107.569C8.65048 107.663 7.14927 108.326 6.18885 109.593C4.15593 112.277 5.28625 116.556 8.71382 119.153C11.4169 121.202 14.7247 121.565 17.006 120.32C27.1678 136.431 45.173 145.314 63.5295 144.268C71.5635 143.808 76.3435 135.085 72.3702 128.088L72.0508 127.524C70.2665 124.382 66.9403 122.543 63.3294 122.41Z" fill="#8E443F"/>
<path d="M128.234 122.41C141.547 121.92 154.147 115.796 162.765 105.421C161.168 102.728 162.319 98.7853 165.56 96.3319C168.986 93.7354 173.413 93.8042 175.445 96.4889C176.406 97.7555 176.638 99.3801 176.277 101.016C177.948 101.109 179.449 101.773 180.41 103.039C181.371 104.309 181.602 105.933 181.241 107.569C182.913 107.663 184.413 108.326 185.374 109.593C187.407 112.277 186.278 116.556 182.85 119.153C180.146 121.202 176.839 121.565 174.559 120.32C164.396 136.431 146.39 145.314 128.035 144.268C120.001 143.808 115.221 135.085 119.194 128.088L119.513 127.524C121.295 124.382 124.624 122.543 128.234 122.41Z" fill="#8E443F"/>
<path d="M155.122 26.9325C156.622 18.4599 152.346 9.50553 145.424 4.48589C139.256 -0.0215988 130.646 -1.57182 123.891 1.88383C119.445 4.19127 116.33 8.99339 115.818 13.8891C115.634 15.6238 115.758 17.298 116.27 18.9693H75.2948C77.247 12.6198 73.6675 4.99805 67.6731 1.88383C60.919 -1.57182 52.3218 -0.0215988 46.1872 4.48589C39.2164 9.50553 34.9402 18.4599 36.4434 26.9325C37.4812 32.7727 41.5239 37.9631 46.7756 40.5651C43.5375 45.5848 41.1216 51.067 39.5565 56.7833C33.2361 80.2376 42.2054 107.58 64.7918 120.252C72.5688 124.619 81.9556 127.254 92.8925 127.378C94.2252 127.378 95.5551 127.345 96.874 127.331C108.571 127.218 118.577 124.866 126.772 120.252C143.565 110.832 152.845 93.2204 153.85 75.1409C154.208 69.0226 153.618 62.7942 152.007 56.7833C150.504 51.067 148.026 45.5848 144.851 40.5651C150.039 37.9631 154.084 32.7727 155.122 26.9325ZM145.253 21.6182C145.237 21.3869 145.22 21.1694 145.176 20.9381C145.143 20.7206 145.113 20.5031 145.066 20.2718C145.019 20.0542 144.975 19.8367 144.912 19.6219C144.771 19.0795 144.579 18.5563 144.353 18.0249C144.223 17.7165 144.083 17.4026 143.92 17.097C143.714 16.7032 143.472 16.3067 143.207 15.935C143.006 15.6541 142.805 15.376 142.588 15.1282C142.356 14.8639 142.139 14.6023 141.891 14.3545C141.412 13.8726 140.9 13.4238 140.341 13.0218C139.429 12.3389 138.375 11.7965 137.273 11.411C136.995 11.3173 136.717 11.2402 136.423 11.1631C135.864 11.0227 135.291 10.9291 134.718 10.8685C134.424 10.852 134.146 10.8382 133.851 10.8382C132.471 10.8382 131.125 11.1329 129.9 11.7524C127.267 13.1154 125.593 16.2296 125.951 19.0795C126.028 19.8064 126.246 20.5031 126.601 21.1694L136.299 31.5033C136.64 31.5171 136.982 31.5033 137.32 31.44C137.601 31.4262 137.879 31.3794 138.157 31.3161C138.358 31.2693 138.559 31.2197 138.747 31.1619C139.176 31.0297 139.614 30.8672 140.033 30.6497C140.374 30.479 140.715 30.278 141.024 30.077C141.613 29.7053 142.155 29.2564 142.651 28.7305C143.006 28.3588 143.348 27.954 143.642 27.5218C143.78 27.3207 143.92 27.1032 144.044 26.8719C144.185 26.6544 144.292 26.4203 144.4 26.189C144.51 25.9577 144.612 25.7237 144.711 25.4759C144.903 24.994 145.052 24.5012 145.143 23.989C145.283 23.1987 145.314 22.4085 145.253 21.6182ZM64.8227 14.9575C64.8227 14.9575 64.8075 14.9575 64.8075 14.9437C64.5126 14.338 64.1252 13.7955 63.6761 13.2999C63.661 13.2999 63.661 13.2999 63.661 13.2861C63.5528 13.1622 63.4288 13.0521 63.3046 12.9282C62.8242 12.4628 62.282 12.0608 61.6784 11.7524H61.6625C60.4385 11.1329 59.0907 10.8382 57.7277 10.8382C57.4333 10.8382 57.1544 10.852 56.8601 10.8685C56.2876 10.9291 55.7292 11.0227 55.1719 11.1631C54.8927 11.2237 54.6162 11.3063 54.3351 11.411C53.2265 11.8185 52.1667 12.3389 51.222 13.0218C47.8134 15.5164 45.7381 19.8367 46.4816 23.989C46.6358 24.9197 46.9618 25.8173 47.3952 26.6379C47.4103 26.6847 47.4263 26.715 47.4571 26.748C47.6124 27.0096 47.7674 27.2739 47.9376 27.5218C48.2317 27.954 48.5723 28.3588 48.9291 28.7305C49.1144 28.9315 49.3006 29.1023 49.4867 29.2565C49.8739 29.5979 50.2704 29.9173 50.6947 30.1871C51.1231 30.4597 51.5783 30.6828 52.0425 30.8838C52.5387 31.0848 53.0343 31.239 53.5457 31.3491C54.103 31.4565 54.6763 31.5171 55.265 31.5033V31.4868L64.9617 21.1694C65.2087 20.7371 65.3794 20.2718 65.4896 19.7899C65.4731 19.7761 65.4731 19.7761 65.4896 19.7596C65.8916 18.1791 65.597 16.4444 64.8227 14.9575Z" fill="#8E443F"/>
<path d="M51.1993 13.0134C54.1956 10.8354 58.3878 10.0589 61.6802 11.7578C64.9729 13.4567 66.7646 17.9367 64.9384 21.1611L55.2591 31.4812C51.0597 31.6271 47.2009 28.1219 46.4555 23.9861C45.7101 19.8531 47.8009 15.4833 51.1993 13.0134Z" fill="#F3664F"/>
<path d="M136.315 31.4812L126.634 21.1611C124.808 17.9367 126.604 13.4567 129.894 11.7578C133.187 10.0589 137.378 10.8354 140.374 13.0134C143.772 15.4833 145.862 19.8531 145.118 23.9861C144.372 28.1219 140.514 31.6271 136.315 31.4812Z" fill="#F3664F"/>
<path d="M62.5089 92.4053C62.5089 104.81 77.4068 114.868 95.7864 114.868C114.166 114.868 129.065 104.81 129.065 92.4053C129.065 80.0007 114.166 69.9422 95.7864 69.9422C77.4068 69.9422 62.5089 80.0007 62.5089 92.4053Z" fill="#F0C42E"/>
<path d="M79.5543 73.7366C79.5543 79.7888 86.8208 84.6956 95.7862 84.6956C104.752 84.6956 112.018 79.7888 112.018 73.7366C112.018 67.6871 104.752 62.7804 95.7862 62.7804C86.8208 62.7804 79.5543 67.6871 79.5543 73.7366Z" fill="#1A181A"/>
<path d="M82.8391 83.1673C85.4274 88.0658 90.2461 91.3672 95.7806 91.3672C101.315 91.3672 106.137 88.0658 108.725 83.1673C110 85.5821 110.743 88.3769 110.743 91.3672C110.743 95.5003 109.339 99.2643 107.04 102.147C104.297 98.7081 100.277 96.5245 95.7806 96.5245C91.2869 96.5245 87.2668 98.7081 84.5243 102.147C82.2251 99.2643 80.8208 95.5003 80.8208 91.3672C80.8208 88.3769 81.5615 85.5821 82.8391 83.1673Z" fill="#171717"/>
<path d="M95.7807 96.5247C100.277 96.5247 104.297 98.7082 107.04 102.147C104.297 105.586 100.277 107.77 95.7807 107.77C91.287 107.77 87.2668 105.586 84.5244 102.147C87.2668 98.7082 91.287 96.5247 95.7807 96.5247Z" fill="#EE2E32"/>
<path d="M104.975 38.3843C111.432 31.9246 121.903 31.9246 128.36 38.3843C134.817 44.8413 134.817 55.3102 128.36 61.7671C121.903 68.2241 111.432 68.2241 104.975 61.7671C98.518 55.3102 98.518 44.8413 104.975 38.3843Z" fill="white"/>
<path d="M102.345 50.0756C102.345 55.5826 106.808 60.0488 112.315 60.0488C117.825 60.0488 122.289 55.5826 122.289 50.0756C122.289 44.5686 117.825 40.1024 112.315 40.1024C106.808 40.1024 102.345 44.5686 102.345 50.0756Z" fill="#171717"/>
<path d="M89.8552 50.0758C89.8552 59.2064 82.451 66.6106 73.3204 66.6106C64.1881 66.6106 56.785 59.2064 56.785 50.0758C56.785 40.9424 64.1881 33.541 73.3204 33.541C82.451 33.541 89.8552 40.9424 89.8552 50.0758Z" fill="white"/>
<path d="M87.644 50.0756C87.644 55.5826 83.1778 60.0488 77.6708 60.0488C72.1637 60.0488 67.6976 55.5826 67.6976 50.0756C67.6976 44.5686 72.1637 40.1024 77.6708 40.1024C83.1778 40.1024 87.644 44.5686 87.644 50.0756Z" fill="#171717"/>
<path d="M127.688 72.1477C127.688 75.8127 132.221 78.7837 137.816 78.7837C143.408 78.7837 147.94 75.8127 147.94 72.1477C147.94 68.4801 143.408 65.509 137.816 65.509C132.221 65.509 127.688 68.4801 127.688 72.1477Z" fill="#DA533D"/>
<path d="M43.6223 72.1477C43.6223 75.8127 48.1562 78.7837 53.7494 78.7837C59.3423 78.7837 63.8765 75.8127 63.8765 72.1477C63.8765 68.4801 59.3423 65.509 53.7494 65.509C48.1562 65.509 43.6223 68.4801 43.6223 72.1477Z" fill="#DA533D"/>
<path d="M190.411 206.18C189.64 203.115 188.491 200.252 187.054 197.589C189.535 179.344 176.304 160.323 155.097 159.742C142.037 130.062 102.967 124.087 81.3909 147.525C72.0648 144.738 62.3116 145.201 53.5381 148.354C37.4414 151.917 24.2267 165.599 22.8946 183.384C7.69852 188.5 -0.197973 202.71 0.513809 216.662C0.179533 218.664 0 220.716 0 222.811C0 236.865 7.50798 248.322 18.077 254.658C26.836 282.502 63.725 293.331 86.0636 271.053C101.938 277.779 119.662 275.326 132.937 265.815C148.411 267.746 163.545 260.328 172.042 247.934C186.06 240.238 194.835 223.786 190.411 206.18Z" fill="#8DD44F"/>
<path d="M96.1747 190.992C95.9764 191.471 95.6763 191.92 95.2881 192.305C94.5336 193.057 93.5176 193.503 92.3941 193.503H87.6884V185.361H92.3941C92.9613 185.361 93.4763 185.474 93.9389 185.667C94.4235 185.868 94.8723 186.168 95.2523 186.551C95.993 187.297 96.4638 188.329 96.4638 189.538C96.4638 190.058 96.3619 190.543 96.1747 190.992ZM101.792 228.825C100.561 230.042 98.9089 230.772 97.0531 230.772H87.6884V217.125H97.0531C98.8621 217.125 100.514 217.847 101.764 219.083C103.053 220.355 103.854 222.115 103.876 223.839C103.851 225.849 103.045 227.589 101.792 228.825ZM121.782 206.489C120.455 204.63 118.921 202.928 117.223 201.414C117.247 201.362 117.272 201.309 117.3 201.254C118.996 197.724 119.982 193.748 119.982 189.538C119.982 181.875 116.878 174.925 111.87 169.917C106.889 164.935 99.9911 161.846 92.3941 161.846H75.8759C72.5661 161.846 69.6502 163.242 67.6098 165.285C65.5695 167.326 64.1715 170.239 64.1715 173.551V242.584C64.1715 245.63 65.3437 248.507 67.3703 250.658C68.4193 251.77 69.7107 252.704 71.2059 253.348C72.6184 253.956 74.1687 254.29 75.7712 254.29H97.0531C105.413 254.29 113.023 250.889 118.514 245.398C123.985 239.927 127.391 232.339 127.391 223.949C127.391 217.426 125.296 211.401 121.782 206.489Z" fill="white"/>
</svg>
