<svg width="50" height="88" viewBox="0 0 50 88" fill="none" xmlns="http://www.w3.org/2000/svg">
<path d="M32.7045 55.9603C37.1621 55.7608 49.995 58.0595 45.3575 65.0649C41.9995 70.1372 36.0249 66.8934 32.4951 63.8113C31.577 63.0099 30.7088 62.151 29.8721 61.2649" fill="#F5B9BB"/>
<path d="M32.7041 55.9601C34.2777 55.7819 35.8749 55.8774 37.4528 56.0671C39.0304 56.2755 40.6006 56.6178 42.1189 57.183C42.878 57.4634 43.6261 57.8036 44.3273 58.2554C45.025 58.7046 45.7015 59.252 46.2045 59.9941C46.7138 60.7255 46.9777 61.6777 46.9001 62.5835C46.8302 63.4939 46.4781 64.3157 46.0515 65.0395C45.6222 65.7654 45.0758 66.432 44.4036 66.9844C43.7314 67.5317 42.9164 67.9337 42.0639 68.1127C41.2089 68.2896 40.338 68.27 39.5145 68.1187C38.6855 67.9789 37.9038 67.6984 37.1604 67.3626C35.6728 66.6878 34.3468 65.7565 33.1379 64.7164C31.9372 63.6602 30.8614 62.4965 29.8721 61.2643C31.0477 62.3167 32.227 63.3639 33.4938 64.2671C34.7534 65.1767 36.1008 65.9653 37.5142 66.5228C38.9225 67.0569 40.4425 67.3809 41.821 67.0339C42.5029 66.866 43.1406 66.5548 43.6824 66.1004C44.222 65.6465 44.6845 65.0736 45.0489 64.4423C45.4266 63.8226 45.7088 63.1551 45.765 62.4893C45.8277 61.8235 45.6491 61.1786 45.2859 60.601C44.9253 60.0192 44.3729 59.5252 43.7651 59.1053C43.1526 58.6867 42.4787 58.3309 41.7783 58.0231C40.3717 57.4187 38.8773 56.9622 37.3548 56.628C35.8309 56.2874 34.2799 56.0394 32.7041 55.9601Z" fill="#DB8289"/>
<path d="M11.287 72.2373C11.5444 73.2859 12.3858 74.1141 13.3423 74.6132C14.6863 75.3144 16.1926 75.6123 17.722 75.7973C18.5429 78.2836 19.3835 82.0353 19.4704 82.6176C19.6209 83.6197 19.4329 84.5758 20.0109 85.5029C20.8907 86.9167 22.3945 87.1805 23.9533 87.071C25.6105 86.9551 29.7148 86.0591 30.8298 84.6214C32.271 82.7621 31.9359 81.026 29.9402 79.8858C28.7919 79.2298 28.2323 79.5133 27.4378 78.3594C27.0848 77.8454 26.9088 77.186 26.743 76.5428C28.3154 76.5321 29.8861 76.4115 31.4394 76.1656C33.3485 77.79 35.5215 79.9251 35.8655 80.3138C36.5359 81.0725 36.8987 81.9766 37.8876 82.4403C38.9813 82.9531 40.0205 82.7809 40.9847 82.2873C40.9314 82.1437 40.8926 82.0022 40.8875 81.9608C40.8504 81.682 40.925 81.3994 41.0247 81.1428C41.2647 80.526 41.7148 79.9881 42.1603 79.509C43.1325 78.4634 44.4394 77.0922 45.8242 76.7312C45.8528 76.7235 46.0544 76.6834 46.256 76.6626C46.3822 76.3612 46.4619 76.0756 46.4841 75.8143C46.6823 73.47 45.4568 72.1964 43.1615 72.3255C41.9548 72.3929 41.5865 72.8519 40.5431 72.5203C40.5307 71.3179 40.1254 69.7851 40.0363 69.0835C39.6769 66.2515 39.2426 63.4298 38.7916 60.6111C38.4574 58.5191 37.27 56.1436 38.5061 54.1564C40.3376 51.2119 44.4019 50.2913 46.5668 47.487C56.5865 34.5091 42.7958 19.6409 29.3158 19.0058C29.3158 19.0058 38.3603 0.86485 25.4694 0C25.4694 0 15.6926 0.032393 22.9486 19.4453L19.5322 19.967C19.5322 19.967 19.8408 1.46073 10.3974 3.00202C10.3974 3.00202 -0.536208 5.178 14.2532 22.05C13.6108 21.3173 7.36425 26.2012 6.88856 26.627C1.63339 31.3196 -1.44112 39.7272 0.675186 46.6537C1.74378 50.1481 4.14566 52.9753 7.27089 54.8239C8.81432 55.7374 10.492 56.4104 12.2162 56.8968C13.3585 57.219 14.52 57.4394 15.6816 57.678C16.6385 57.875 17.0127 58.3307 16.5907 59.3238C15.1879 62.6264 13.7839 65.8142 12.0103 68.9233C11.4362 69.93 11.009 71.1116 11.287 72.2373Z" fill="#F5B9BB"/>
<path d="M5.09896 69.3244C6.087 72.1969 9.21645 73.7241 12.0889 72.736C14.9614 71.748 16.4886 68.6185 15.5006 65.7461C14.5125 62.8736 11.383 61.3464 8.51058 62.3344C5.63812 63.3224 4.11093 66.4519 5.09896 69.3244Z" fill="#F5B9BB"/>
<path d="M38.5062 54.1558C38.4546 54.9226 38.4572 55.5926 38.4734 56.2555C38.49 56.9149 38.5411 57.5542 38.6004 58.1987C38.672 58.8423 38.7547 59.4902 38.8463 60.1628C38.8817 60.5017 38.9508 60.8375 38.9742 61.1969C39.0177 61.5498 39.065 61.9087 39.0599 62.306C38.7628 62.0604 38.5045 61.7821 38.2671 61.488C38.0548 61.182 37.8387 60.8691 37.6789 60.5294C37.3472 59.8546 37.1333 59.1159 37.0527 58.3551C36.9828 57.5938 37.0412 56.8117 37.268 56.0743C37.4998 55.3454 37.8766 54.6293 38.5062 54.1558Z" fill="#DB8289"/>
<path d="M40.9847 82.2869C41.3509 82.1015 41.7047 81.8692 42.0478 81.6105C43.1837 80.7554 45.5132 78.446 46.2557 76.6618C46.0545 76.6822 45.8529 76.7223 45.8239 76.7304C44.439 77.0914 43.1322 78.4626 42.1599 79.5082C41.7145 79.9873 41.2648 80.5252 41.0244 81.142C40.9246 81.399 40.85 81.6816 40.8871 81.96C40.8927 82.0022 40.9314 82.1437 40.9847 82.2869Z" fill="#F9D9DB"/>
<path d="M31.1082 83.9535C30.7856 83.8286 30.5072 83.7101 30.2336 83.5792C29.9625 83.448 29.6982 83.3133 29.442 83.1641C29.1867 83.0136 28.9331 82.8572 28.6888 82.6756C28.5665 82.5852 28.4438 82.4923 28.327 82.3857C28.208 82.2826 28.0904 82.1735 27.9834 82.0371C28.165 82.0179 28.3359 82.026 28.5051 82.04C28.6714 82.0605 28.8346 82.0903 28.9932 82.1313C29.3073 82.2182 29.6091 82.3376 29.8844 82.5008C30.1606 82.662 30.4169 82.8576 30.6351 83.0955C30.7425 83.2161 30.8431 83.3435 30.9258 83.4859C31.0072 83.6274 31.0805 83.78 31.1082 83.9535Z" fill="#DB8289"/>
<path d="M31.5673 82.2397C31.2856 82.2257 31.0644 82.1622 30.8577 82.0825C30.6518 82.0023 30.4693 81.8996 30.2993 81.7811C30.1296 81.6614 29.9723 81.5292 29.8283 81.3668C29.6829 81.2048 29.5465 81.0292 29.4199 80.7743C29.6914 80.695 29.9434 80.7172 30.174 80.7743C30.4041 80.834 30.6138 80.9355 30.8001 81.0667C30.986 81.1989 31.1514 81.3574 31.2856 81.5492C31.4178 81.7415 31.529 81.9584 31.5673 82.2397Z" fill="#EA7A82"/>
<path d="M44.845 75.2049C44.5223 75.08 44.244 74.9615 43.9703 74.8307C43.6992 74.6994 43.435 74.5647 43.1788 74.4155C42.9235 74.265 42.6698 74.1086 42.4256 73.927C42.3029 73.8367 42.1805 73.7437 42.0637 73.6372C41.9448 73.534 41.8272 73.4249 41.7202 73.2885C41.9014 73.2693 42.0727 73.277 42.2419 73.2915C42.4082 73.3119 42.5714 73.3418 42.7299 73.3827C43.0445 73.4697 43.3459 73.589 43.6212 73.7527C43.8975 73.9138 44.1536 74.1094 44.3719 74.3473C44.4793 74.4679 44.5799 74.5954 44.663 74.7377C44.7444 74.8788 44.8177 75.0314 44.845 75.2049Z" fill="#DB8289"/>
<path d="M45.6098 73.7902C45.328 73.7765 45.1068 73.7126 44.9001 73.6329C44.6942 73.5527 44.5117 73.45 44.3417 73.3315C44.172 73.2117 44.0148 73.0796 43.8703 72.9172C43.7249 72.7552 43.5885 72.5796 43.4619 72.3247C43.7334 72.2455 43.9854 72.2676 44.216 72.3247C44.4461 72.3844 44.6558 72.4859 44.8421 72.6172C45.028 72.7493 45.1933 72.9078 45.3276 73.0996C45.4601 73.2923 45.5714 73.5093 45.6098 73.7902Z" fill="#DB8289"/>
<path d="M25.4913 45.7631C29.2249 45.3022 31.9343 42.3587 31.5431 39.1884C31.1518 36.0181 27.8079 33.8216 24.0743 34.2824C20.3406 34.7432 17.6312 37.6868 18.0225 40.8571C18.4138 44.0274 21.7577 46.2239 25.4913 45.7631Z" fill="white"/>
<path d="M24.333 37.6725C26.1707 37.4899 27.5563 36.2936 27.4278 35.0005C27.2993 33.7074 25.7053 32.8072 23.8676 32.9898C22.0299 33.1725 20.6442 34.3688 20.7727 35.6619C20.9013 36.955 22.4953 37.8552 24.333 37.6725Z" fill="#42210B"/>
<path d="M28.5858 32.9824C28.7482 33.8076 29.4822 34.3579 30.2247 34.2113C30.9673 34.0651 31.4374 33.2774 31.275 32.4526C31.1126 31.6274 30.3786 31.0771 29.6361 31.2237C28.8936 31.3699 28.4234 32.1576 28.5858 32.9824Z" fill="#42210B"/>
<path d="M19.2387 33.5694C19.3772 33.6197 19.5021 33.4662 19.4237 33.3413C19.3546 33.2309 19.2762 33.1265 19.1922 33.0259C19.0209 32.8251 18.8214 32.6444 18.5873 32.4939C18.3538 32.3447 18.084 32.2262 17.7771 32.1721C17.4727 32.1167 17.1236 32.1406 16.8108 32.2693C16.4962 32.3955 16.2379 32.6141 16.0529 32.8528L15.9281 33.0293C15.9246 33.0336 15.9217 33.0383 15.9191 33.0429C15.8837 33.103 15.8522 33.1648 15.8202 33.2258C15.7516 33.3498 15.7119 33.4794 15.6642 33.6064C15.6625 33.6107 15.6612 33.6149 15.6599 33.6192C15.6416 33.6819 15.6267 33.7458 15.6113 33.8089C15.5964 33.8746 15.5768 33.9385 15.5709 34.0045C15.5538 34.1358 15.5325 34.2658 15.5312 34.3967C15.5308 34.5279 15.5265 34.6571 15.5406 34.7876C15.5406 34.7889 15.541 34.7901 15.541 34.7914C15.5555 34.935 15.7448 34.9785 15.8245 34.8579C16.0346 34.5412 16.2145 34.2381 16.408 33.9704C16.5431 33.8012 16.6638 33.6307 16.8027 33.5118C16.9383 33.3886 17.0699 33.2991 17.2059 33.2441C17.3419 33.1883 17.4898 33.1619 17.6658 33.1614C17.841 33.1614 18.0384 33.1934 18.246 33.2441C18.5597 33.3225 18.8853 33.4411 19.2387 33.5694Z" fill="#42210B"/>
<path d="M29.1093 38.5155C29.189 38.3408 28.9686 38.1852 28.8267 38.3143C28.825 38.316 28.8233 38.3173 28.8216 38.319C28.6507 38.4763 28.464 38.6119 28.2798 38.7402C27.9056 38.9921 27.5053 39.186 27.0931 39.3403C26.9913 39.3808 26.8907 39.4226 26.7824 39.4507C26.6788 39.4823 26.5774 39.5168 26.4755 39.5496C26.4713 39.5509 26.467 39.5521 26.4627 39.5534C26.3579 39.5803 26.2509 39.6024 26.1473 39.6314C26.0408 39.66 25.9355 39.6894 25.8243 39.7056C25.6043 39.7427 25.3933 39.7998 25.1627 39.8207L24.8247 39.8688L24.7365 39.8821L24.664 39.891L24.5055 39.9068C23.6346 39.9775 22.737 39.9494 21.8951 39.7486C21.4731 39.6476 21.0627 39.4993 20.6735 39.2815C20.4719 39.1737 20.2805 39.0432 20.0943 38.8949C19.9442 38.7751 19.7337 38.9486 19.8274 39.1161C19.8296 39.1195 19.8312 39.1234 19.8334 39.1268C19.8879 39.2418 19.9621 39.3429 20.0307 39.4515C20.0333 39.4554 20.0359 39.4593 20.0388 39.4631C20.116 39.5633 20.1923 39.6685 20.2805 39.7619C20.6318 40.154 21.0806 40.4609 21.5593 40.683C21.7988 40.7959 22.0473 40.885 22.2996 40.9562C22.5515 41.0312 22.8081 41.0815 23.0652 41.1203C23.5809 41.1923 24.0971 41.212 24.6188 41.1638C24.6845 41.1578 24.7501 41.1506 24.8174 41.1421L24.9232 41.1275L25.0122 41.1122L25.3835 41.0453C25.629 41.0048 25.8805 40.9315 26.1269 40.8607C26.2509 40.8283 26.3724 40.781 26.4934 40.735C26.6132 40.6906 26.7313 40.6429 26.8485 40.5939C26.8523 40.5922 26.8562 40.5905 26.86 40.5888C27.0927 40.4724 27.3263 40.3672 27.5429 40.2201C27.9844 39.943 28.3907 39.599 28.7065 39.1843C28.7807 39.0756 28.86 38.975 28.9252 38.8629C28.9891 38.7495 29.0556 38.6413 29.1051 38.5215C29.1072 38.5206 29.1085 38.5181 29.1093 38.5155Z" fill="#42210B"/>
<path d="M23.8591 40.5718L24.9717 40.5043L24.7319 36.5487L23.6193 36.6161L23.8591 40.5718Z" fill="#42210B"/>
<path d="M25.2766 19.1836C25.2766 19.1836 22.0631 2.84648 27.8191 3.59753C27.8191 3.59753 33.8884 3.33026 28.2884 19.0139C28.2884 19.0139 27.2182 19.9755 25.2766 19.1836Z" fill="#DB8289"/>
<path d="M17.5305 20.3656C17.5305 20.3656 14.4394 4.02891 9.81464 6.89626C9.81464 6.89626 4.56032 8.93965 14.91 21.3451C14.91 21.3451 16.1623 21.8318 17.5305 20.3656Z" fill="#DB8289"/>
<path d="M14.7428 63.5428C14.242 64.5215 13.7053 65.4409 13.2092 66.3744C12.696 67.3083 12.2489 68.214 11.9522 69.1641C11.8141 69.6377 11.716 70.1151 11.6734 70.5929C11.6427 71.0703 11.6789 71.5434 11.7864 72.0106C11.9995 72.9513 12.5983 73.8051 13.343 74.6128C12.3298 74.2147 11.3853 73.4219 10.9177 72.3064C10.6862 71.7557 10.575 71.1534 10.5669 70.5579C10.5724 69.9629 10.6756 69.3811 10.8358 68.8244C11.1785 67.7217 11.7766 66.7294 12.4428 65.8752C13.1163 65.0104 13.8682 64.2103 14.7428 63.5428Z" fill="#DB8289"/>
<path d="M27.8539 58.7476C32.3115 58.5481 45.1444 60.8469 40.5069 67.8522C37.149 72.9245 31.1743 69.6808 27.6446 66.5986C26.7264 65.7972 25.8582 64.9384 25.0215 64.0522" fill="#F5B9BB"/>
<path d="M27.8535 58.7472C29.4272 58.5687 31.0243 58.6645 32.6023 58.8542C34.1798 59.0627 35.75 59.405 37.2683 59.9697C38.0274 60.2502 38.7755 60.5903 39.4767 61.0422C40.1744 61.4914 40.8509 62.0387 41.3539 62.7808C41.8633 63.5122 42.1271 64.4645 42.0495 65.3707C41.9796 66.2811 41.6275 67.1029 41.2009 67.8267C40.7721 68.5526 40.2252 69.2197 39.553 69.7716C38.8808 70.3189 38.0658 70.7209 37.2134 70.8999C36.3579 71.0768 35.4875 71.0572 34.6635 70.9059C33.8345 70.7661 33.0528 70.4856 32.3098 70.1501C30.8222 69.4749 29.4962 68.544 28.2874 67.504C27.0866 66.4478 26.0108 65.2841 25.0215 64.0518C26.1971 65.1042 27.3765 66.1515 28.6433 67.0547C29.9028 67.9644 31.2502 68.7529 32.6636 69.3104C34.0719 69.8445 35.5919 70.1684 36.9704 69.8215C37.6524 69.6535 38.29 69.3428 38.8318 68.8884C39.3714 68.4345 39.8339 67.8616 40.1983 67.2304C40.576 66.6106 40.8582 65.9431 40.9144 65.2773C40.9771 64.6115 40.7985 63.9666 40.4353 63.3891C40.0747 62.8072 39.5223 62.3132 38.9145 61.8934C38.302 61.4748 37.6281 61.1189 36.9278 60.8111C35.5211 60.2067 34.0267 59.7502 32.5042 59.416C30.9808 59.0746 29.4297 58.8265 27.8535 58.7472Z" fill="#DB8289"/>
<path d="M46.6526 39.7619C46.7127 40.0453 46.6961 40.293 46.6569 40.5295C46.616 40.7653 46.5413 40.9852 46.4433 41.194C46.3444 41.4025 46.2216 41.5994 46.0652 41.7805C45.9075 41.9608 45.7259 42.1301 45.4676 42.2627C45.4067 41.9788 45.4229 41.7311 45.4625 41.4946C45.5035 41.2589 45.578 41.0389 45.6769 40.8304C45.7766 40.6224 45.8994 40.4255 46.0559 40.2444C46.214 40.0645 46.3952 39.8949 46.6526 39.7619Z" fill="#DB8289"/>
<path d="M48.0823 42.6629C48.1424 42.9464 48.1257 43.194 48.0865 43.4306C48.0456 43.6663 47.971 43.8862 47.873 44.0951C47.7741 44.3035 47.6514 44.5004 47.4949 44.6816C47.3372 44.8619 47.1556 45.0311 46.8973 45.1641C46.8364 44.8802 46.8526 44.6326 46.8922 44.396C46.9331 44.1603 47.0077 43.9403 47.1066 43.7319C47.2064 43.5239 47.3291 43.327 47.4856 43.1463C47.6437 42.9656 47.8249 42.7959 48.0823 42.6629Z" fill="#DB8289"/>
<path d="M49.0672 37.8898C49.1273 38.1733 49.1106 38.4209 49.0714 38.6575C49.0305 38.8932 48.9559 39.1131 48.8579 39.322C48.759 39.5304 48.6362 39.7273 48.4798 39.9085C48.3221 40.0888 48.1405 40.258 47.8822 40.391C47.8212 40.1071 47.8374 39.8595 47.8771 39.6229C47.918 39.3872 47.9926 39.1672 48.0915 38.9588C48.1912 38.7508 48.314 38.5539 48.4708 38.3732C48.6285 38.192 48.8097 38.0228 49.0672 37.8898Z" fill="#DB8289"/>
<path d="M44.9075 43.7728C44.9676 44.0563 44.9509 44.3039 44.9113 44.5405C44.8704 44.7762 44.7958 44.9961 44.6982 45.205C44.5993 45.4134 44.4766 45.6103 44.3201 45.7915C44.1624 45.9718 43.9808 46.141 43.7225 46.274C43.6616 45.9902 43.6777 45.7425 43.7174 45.5059C43.7583 45.2702 43.8329 45.0502 43.9318 44.8418C44.0316 44.6338 44.1543 44.4369 44.3112 44.2562C44.4689 44.075 44.65 43.9058 44.9075 43.7728Z" fill="#DB8289"/>
</svg>
