<svg width="135" height="205" viewBox="0 0 135 205" fill="none" xmlns="http://www.w3.org/2000/svg">
<path d="M77.6075 201.144C113.406 201.144 142.426 197.448 142.426 192.889C142.426 188.33 113.406 184.634 77.6075 184.634C41.8093 184.634 12.7891 188.33 12.7891 192.889C12.7891 197.448 41.8093 201.144 77.6075 201.144Z" fill="#569916"/>
<path d="M121.075 82.9637L160.433 67.6898L178.953 24.7894C178.953 24.7894 118.556 -28.1431 48.0254 25.9635L121.075 82.9637Z" fill="#F9DD64"/>
<path d="M104.976 76.9739C96.3305 80.9587 72.5899 95.3771 82.7285 107.297C85.7077 110.799 90.4917 112.179 95.0602 112.698C107.983 114.168 122.161 109.355 129.27 98.4646C126.391 109.533 123.511 120.602 120.632 131.671C107.537 135.455 94.4407 139.237 81.3449 143.019L42.2539 127.827V86.4805C42.2539 86.4805 55.5215 81.2271 61.0837 76.9739C66.6458 72.7206 80.6775 55.6639 104.976 76.9739Z" fill="#C6A105"/>
<path d="M121.075 82.9637C124.547 82.04 124.901 77.1444 127.835 71.1848C135.064 56.4976 145.124 43.3703 151.79 28.3814C153.609 24.27 115.996 16.9956 112.529 16.33C90.9607 12.1902 67.0683 14.0754 48.0251 25.9635C18.8137 44.1992 -1.77806 74.0362 0.163744 109.696C2.02147 143.81 25.6148 175.76 57.6712 187.574C89.7276 199.388 128.413 190.389 151.963 165.639C142.055 151.031 132.147 136.423 122.24 121.814C110.344 130.282 95.3643 138.18 81.7674 132.856C72.0768 129.061 65.7717 119.011 64.3735 108.698C62.7707 96.8755 67.7312 83.6596 78.3015 78.1264C83.6992 75.3007 90.0248 74.6602 96.0914 75.2225C102.509 75.8172 108.461 79.2577 114.587 81.7933C117.59 83.0358 119.61 83.3532 121.075 82.9637Z" fill="#F9D10B"/>
<path d="M129.269 98.4644L160.432 139.017L151.962 165.639L122.238 121.814L129.269 98.4644Z" fill="#F9DD64"/>
<path d="M52.949 58.0985C62.1856 55.9796 67.5809 45.1403 64.9996 33.8883C62.4183 22.6363 52.838 15.2324 43.6014 17.3513C34.3647 19.4703 28.9695 30.3096 31.5507 41.5616C34.132 52.8136 43.7123 60.2175 52.949 58.0985Z" fill="white"/>
<path d="M115.453 30.9121C115.962 19.3796 108.7 9.69184 99.233 9.27393C89.7661 8.85602 81.6789 17.8662 81.1698 29.3988C80.6607 40.9313 87.9225 50.6191 97.3894 51.037C106.856 51.4549 114.944 42.4447 115.453 30.9121Z" fill="white"/>
<path d="M44.9126 47.9257C49.4824 46.8774 52.1517 41.5147 50.8746 35.9479C49.5975 30.3811 44.8578 26.7181 40.288 27.7664C35.7182 28.8147 33.0489 34.1774 34.326 39.7442C35.603 45.3111 40.3428 48.974 44.9126 47.9257Z" fill="black"/>
<path d="M101.87 28.3042C102.343 22.6123 98.9389 17.6834 94.2665 17.2952C89.594 16.907 85.4229 21.2065 84.95 26.8985C84.4771 32.5904 87.8815 37.5193 92.554 37.9075C97.2264 38.2957 101.398 33.9962 101.87 28.3042Z" fill="black"/>
<path d="M34.0921 17.0219C34.156 16.9213 34.2251 16.8235 34.2942 16.7265C34.374 16.6146 34.459 16.5067 34.5394 16.3954C34.6177 16.2875 34.3822 16.5941 34.485 16.466C34.5137 16.4303 34.5419 16.3936 34.5706 16.3575C34.633 16.2789 34.6963 16.2013 34.7602 16.1239C35.4518 15.2889 36.2256 14.5199 37.0676 13.8366C37.1245 13.7904 37.1817 13.7455 37.2388 13.6996C37.4165 13.5575 37.1205 13.7855 37.3052 13.6486C37.4449 13.5449 37.5844 13.4416 37.7265 13.3416C38.0127 13.1407 38.3059 12.9502 38.6059 12.7711C38.9189 12.5843 39.2393 12.4097 39.5668 12.2495C39.7298 12.1697 39.8955 12.0963 40.0606 12.0205C40.2156 11.9492 40.0737 12.0141 40.0441 12.0263C40.0896 12.0073 40.1352 11.9884 40.1808 11.9703C40.2731 11.9336 40.3654 11.8972 40.4581 11.8627C41.2237 11.5765 42.0143 11.3769 42.8221 11.2527C42.9649 11.2307 42.6753 11.2695 42.8197 11.253C42.8603 11.2484 42.9007 11.2432 42.9413 11.2387C43.0505 11.2264 43.1599 11.2157 43.2694 11.2069C43.4926 11.1885 43.7164 11.1769 43.9402 11.1717C44.3921 11.1616 44.8446 11.179 45.2947 11.2225C45.336 11.2264 45.7038 11.2686 45.5485 11.2481C45.687 11.2665 45.8249 11.2891 45.9625 11.313C46.23 11.3594 46.4959 11.4148 46.7601 11.4781C47.3401 11.6175 47.9101 11.7967 48.4674 12.0089C49.7008 12.4782 50.948 13.1893 52.0811 13.9583C52.4911 14.2365 53.098 14.0363 53.3361 13.6293C53.6009 13.1768 53.4181 12.6534 53.0071 12.3742C49.3883 9.91815 44.9571 8.54594 40.6507 9.8628C37.9393 10.692 35.5371 12.4253 33.6916 14.5572C33.2706 15.0437 32.8532 15.5515 32.508 16.0961C31.8742 17.0962 33.461 18.0174 34.0921 17.0219Z" fill="black"/>
<path d="M86.1795 7.30332C86.4519 6.95966 86.7629 6.6423 87.0754 6.33564C87.4117 6.00543 87.7627 5.68989 88.1259 5.38934C88.2299 5.30342 88.3354 5.21995 88.4405 5.13556C88.6017 5.00623 88.3375 5.21109 88.4683 5.11356C88.5344 5.06464 88.5995 5.0145 88.6656 4.96558C88.9175 4.77968 89.1746 4.60082 89.437 4.4299C90.0118 4.05536 90.611 3.71842 91.2323 3.42766C91.3115 3.39066 91.391 3.3549 91.4705 3.31883C91.5344 3.29009 91.6778 3.22923 91.5292 3.2913C91.7181 3.21211 91.9095 3.13751 92.1022 3.06749C92.4489 2.94122 92.8014 2.83023 93.1582 2.73545C93.541 2.63364 93.929 2.55109 94.3204 2.48871C94.3739 2.48015 94.624 2.44683 94.4506 2.46792C94.5491 2.45569 94.6475 2.4447 94.7459 2.43491C94.9606 2.41351 95.1759 2.39852 95.3911 2.38966C95.8222 2.37192 96.2545 2.37957 96.685 2.41198C96.8611 2.42512 97.1711 2.45753 97.2552 2.46945C97.3439 2.48199 97.704 2.54406 97.8878 2.58166C100.318 3.08003 102.472 4.34032 104.377 5.94825C104.755 6.26745 105.303 6.31942 105.674 5.94825C106.002 5.62048 106.054 4.972 105.674 4.65097C103.78 3.05191 101.646 1.70569 99.2438 1.02449C97.3864 0.497991 95.4418 0.416968 93.5459 0.768883C90.7453 1.28835 88.1742 2.80486 86.104 4.7274C85.6744 5.1264 85.2479 5.54528 84.8829 6.00604C84.5756 6.39373 84.5043 6.9245 84.8829 7.30332C85.2015 7.62252 85.8701 7.69376 86.1795 7.30332Z" fill="black"/>
<path d="M75.0456 29.8405C75.2859 32.5344 75.526 35.2284 75.7663 37.9223C75.8002 38.3026 75.8342 38.6827 75.8681 39.063C76.0925 38.7683 76.3172 38.4732 76.5417 38.1785C74.9768 38.6258 73.4053 39.3202 72.0521 40.2227C71.0511 40.8902 70.0592 41.7362 69.5351 42.8448C68.9172 44.1525 69.0515 45.5715 69.7785 46.8101C70.2977 47.6946 71.0385 48.4489 71.8258 49.097C73.0182 50.0788 74.3335 50.8912 75.6914 51.6222C76.7309 52.1817 77.6582 50.5986 76.6172 50.0381C75.4816 49.4266 74.354 48.7672 73.335 47.9722C73.2616 47.9147 73.0048 47.7031 72.8647 47.5818C72.6831 47.424 72.5061 47.2613 72.3352 47.092C72.1893 46.9476 72.0478 46.7987 71.9126 46.6443C71.8536 46.5771 71.7964 46.508 71.7393 46.4392C71.7209 46.4172 71.6228 46.2915 71.6965 46.3872C71.7744 46.4884 71.6408 46.3099 71.639 46.3077C71.4451 46.0325 71.2819 45.7482 71.1354 45.4458C71.0908 45.3538 71.1715 45.5333 71.1703 45.5305C71.1571 45.4947 71.1415 45.4599 71.129 45.4238C71.1049 45.3535 71.0795 45.2841 71.0584 45.2128C71.0174 45.0768 70.9935 44.9389 70.9627 44.8007C70.9287 44.6496 70.9709 45.0315 70.9672 44.8184C70.9663 44.7609 70.959 44.7031 70.9575 44.6454C70.9541 44.5176 70.9807 44.3852 70.9737 44.2592C70.9883 44.5151 70.9523 44.3778 70.9767 44.2684C70.9887 44.2146 70.9994 44.1608 71.0131 44.1073C71.0458 43.9785 71.107 43.8547 71.137 43.7263C71.1088 43.8461 71.0587 43.8923 71.1296 43.7498C71.1544 43.7 71.1782 43.6498 71.2045 43.6006C71.2647 43.4869 71.3314 43.3765 71.4027 43.2695C71.4384 43.2157 71.4812 43.164 71.5148 43.109C71.5943 42.9787 71.3806 43.2655 71.5072 43.1182C71.5946 43.0163 71.6796 42.913 71.7717 42.8148C71.9545 42.6198 72.1505 42.4379 72.3554 42.266C72.4092 42.2208 72.4648 42.178 72.5186 42.1327C72.6385 42.0315 72.3446 42.2593 72.5217 42.1303C72.6366 42.0465 72.7507 41.9624 72.8678 41.882C73.3175 41.5738 73.7908 41.3008 74.2761 41.0525C74.5048 40.9354 74.7365 40.8241 74.9704 40.7177C75.0704 40.6722 75.1707 40.6282 75.2713 40.5841C75.3985 40.5285 75.4122 40.526 75.2603 40.5881C75.3144 40.5661 75.3679 40.5432 75.4217 40.5211C75.9473 40.3065 76.4835 40.1044 77.0299 39.9482C77.3892 39.8454 77.7389 39.462 77.7032 39.0636C77.4629 36.3697 77.2229 33.6758 76.9825 30.9818C76.9486 30.6015 76.9147 30.2214 76.8807 29.8411C76.8367 29.3476 76.4906 28.9238 75.9635 28.9238C75.5009 28.9232 75.0016 29.3442 75.0456 29.8405Z" fill="black"/>
<path d="M111.36 53.412C111.467 54.6133 109.467 55.7733 106.892 56.0029C104.318 56.2326 102.144 55.4447 102.037 54.2434C101.93 53.0421 103.93 51.8821 106.505 51.6525C109.079 51.4232 111.253 52.2108 111.36 53.412Z" fill="#FF7BAC"/>
<path d="M57.6232 61.962C57.7302 63.1632 55.7303 64.3232 53.1559 64.5529C50.5816 64.7825 48.408 63.9946 48.301 62.7933C48.194 61.592 50.1938 60.432 52.7682 60.2024C55.3423 59.9728 57.5159 60.7607 57.6232 61.962Z" fill="#FF7BAC"/>
<path d="M118.549 17.6962C118.045 18.0243 117.456 18.2013 116.859 18.3123C116.26 18.4218 115.644 18.4621 115.029 18.4643C114.646 18.4649 114.251 18.4484 113.869 18.4178C113.67 18.0173 113.443 17.629 113.226 17.2379C112.965 16.8093 112.691 16.3885 112.404 15.9767C112.48 15.866 112.555 15.755 112.63 15.6398C112.838 15.3236 113.03 15.0002 113.213 14.673C113.576 14.0172 113.889 13.3369 114.148 12.6404C114.413 11.9473 114.594 11.2233 114.72 10.5017C114.85 9.7789 114.86 9.04296 114.826 8.32812C114.715 9.04021 114.561 9.73334 114.299 10.3889C114.04 11.0432 113.738 11.6733 113.362 12.26C112.994 12.8492 112.583 13.4072 112.136 13.9297C111.91 14.1899 111.68 14.4434 111.439 14.6846C111.433 14.6904 111.427 14.6965 111.421 14.7024C111.353 14.6226 111.288 14.5397 111.218 14.4614C109.7 12.7495 107.833 11.3425 105.757 10.446C103.685 9.56885 101.442 9.07507 99.2441 9.26127C101.414 9.5502 103.467 10.3011 105.285 11.3752C107.11 12.4435 108.674 13.8716 109.936 15.5172C110.569 16.3409 111.107 17.233 111.602 18.1451C111.827 18.6156 112.075 19.0712 112.269 19.5567C112.37 19.7973 112.48 20.0331 112.574 20.2767L112.842 21.0136C113.551 22.9805 114.011 25.0476 114.303 27.146L114.311 27.1983L114.328 27.2667C114.373 27.4511 114.427 27.7104 114.465 27.9427C114.506 28.1815 114.542 28.4246 114.572 28.6686C114.631 29.1572 114.676 29.65 114.702 30.145C114.761 31.1354 114.729 32.1312 114.65 33.1224C114.478 35.1037 114.04 37.0663 113.306 38.9292C113.131 39.3988 112.922 39.8538 112.716 40.3127C112.485 40.7579 112.273 41.2159 112.014 41.6491C111.525 42.5327 110.951 43.3711 110.338 44.1865C109.101 45.8131 107.632 47.2795 106.041 48.6449C107.889 47.6528 109.59 46.3613 111.1 44.8478C111.843 44.0813 112.548 43.2644 113.158 42.3752C113.786 41.4974 114.333 40.5579 114.798 39.5774C115.739 37.6193 116.348 35.4938 116.609 33.3282C116.746 32.2455 116.792 31.1519 116.756 30.0585C116.744 29.5115 116.697 28.9649 116.635 28.4179C116.603 28.1442 116.565 27.8709 116.52 27.5957C116.478 27.3371 116.434 27.1004 116.368 26.8142C116.062 24.6083 115.54 22.4121 114.713 20.311L114.543 19.8973C114.757 19.8566 114.971 19.8129 115.187 19.7637C115.843 19.6102 116.493 19.4154 117.119 19.1458C117.74 18.8752 118.352 18.5288 118.833 18.028C119.07 17.7767 119.267 17.4834 119.384 17.1651C119.503 16.8472 119.539 16.5112 119.512 16.1904C119.429 16.8398 119.05 17.3743 118.549 17.6962Z" fill="black"/>
<path d="M25.0993 30.9717C25.6686 31.1638 26.2832 31.1876 26.8892 31.146C27.497 31.1023 28.1033 30.9873 28.6995 30.8354C29.0704 30.7403 29.448 30.6259 29.8106 30.5006C29.9039 30.0631 30.0259 29.6301 30.1387 29.1972C30.2839 28.7172 30.4444 28.2411 30.6199 27.7706C30.5181 27.6825 30.4175 27.5938 30.3163 27.5012C30.0359 27.2471 29.7693 26.9817 29.5103 26.7108C28.9945 26.1666 28.5219 25.586 28.0975 24.9766C27.667 24.3719 27.3111 23.716 27.009 23.0489C26.7017 22.3818 26.5085 21.6715 26.363 20.9711C26.6486 21.6327 26.9705 22.2656 27.3888 22.8346C27.8028 23.4036 28.2525 23.938 28.7628 24.4122C29.2667 24.8904 29.8039 25.3282 30.368 25.722C30.6514 25.9174 30.9382 26.1055 31.2314 26.2785C31.2384 26.2828 31.2458 26.2871 31.2531 26.291C31.2993 26.1969 31.3409 26.1006 31.3889 26.007C32.4309 23.9701 33.8874 22.1405 35.6733 20.7543C37.461 19.387 39.5086 18.3483 41.6834 17.979C39.655 18.8012 37.8545 20.0413 36.3628 21.5361C34.8631 23.0266 33.7049 24.8005 32.8944 26.7093C32.4877 27.6648 32.1899 28.6633 31.9383 29.6699C31.8386 30.1814 31.712 30.6846 31.6454 31.2035C31.6078 31.4615 31.5607 31.7175 31.5307 31.9767L31.4555 32.757C31.2605 34.8388 31.3323 36.9552 31.5729 39.06L31.579 39.1126L31.58 39.1829C31.5824 39.3728 31.5949 39.6369 31.616 39.872C31.6356 40.1136 31.6619 40.3579 31.6937 40.6016C31.7591 41.0892 31.838 41.5778 31.9374 42.0637C32.1272 43.0372 32.4073 43.9938 32.7314 44.9334C33.3933 46.8088 34.3081 48.5996 35.484 50.2198C35.7708 50.6307 36.0873 51.019 36.401 51.4119C36.7358 51.7852 37.0559 52.1756 37.4148 52.5306C38.1092 53.2638 38.8751 53.9318 39.6725 54.5684C41.2761 55.8342 43.066 56.8869 44.9478 57.8112C42.91 57.3125 40.9401 56.4873 39.1001 55.3991C38.189 54.8427 37.3023 54.2278 36.4887 53.5197C35.6623 52.8266 34.8973 52.0536 34.2017 51.2205C32.8017 49.56 31.6808 47.6539 30.8865 45.6222C30.4832 44.6081 30.1652 43.5606 29.9265 42.4932C29.8011 41.9606 29.7106 41.4194 29.6339 40.8746C29.5963 40.6019 29.5644 40.3273 29.5397 40.0497C29.5158 39.7886 29.4997 39.5483 29.4923 39.255C29.237 37.0427 29.1927 34.7859 29.4691 32.5445L29.5293 32.1015C29.3119 32.1155 29.0942 32.1268 28.8729 32.133C28.1987 32.1486 27.5209 32.1223 26.8476 32.0174C26.1783 31.9107 25.4995 31.7282 24.9085 31.3634C24.6159 31.1793 24.3527 30.9445 24.1592 30.6657C23.9641 30.3874 23.8454 30.071 23.791 29.7539C24.0329 30.3627 24.5334 30.7852 25.0993 30.9717Z" fill="black"/>
<path d="M91.4349 57.887C91.4153 57.8771 91.4035 57.8712 91.4004 57.8696C91.4063 57.8727 91.4119 57.8756 91.4178 57.8787C91.4228 57.8815 91.4284 57.8839 91.4349 57.887Z" fill="black"/>
<path d="M92.7399 58.113C92.6023 58.1194 92.4651 58.1206 92.3275 58.1133C92.2685 58.1102 92.2039 58.0995 92.1428 58.0971C92.1303 58.0949 92.1177 58.0931 92.1052 58.0906C91.9817 58.0671 91.8594 58.0374 91.7386 58.0017C91.6796 57.9842 91.6209 57.965 91.5628 57.9445C91.5276 57.932 91.471 57.9054 91.4334 57.8867C91.4573 57.8989 91.4903 57.9161 91.5466 57.9454C91.5028 57.9228 91.4601 57.9005 91.4166 57.8785C91.402 57.8708 91.3955 57.8677 91.3995 57.8696C91.2234 57.7797 91.0485 57.6907 90.8819 57.5788C90.8369 57.5486 90.7929 57.5168 90.7486 57.4853C90.6645 57.4156 90.5807 57.3461 90.5003 57.2722C90.3285 57.1141 90.1671 56.9453 90.0151 56.7686C89.9809 56.7289 89.9472 56.6888 89.9142 56.6485C89.9038 56.6359 89.8845 56.6111 89.8671 56.5891C89.8665 56.5882 89.8656 56.5873 89.865 56.5864C89.828 56.5362 89.7916 56.4858 89.7558 56.4347C89.5605 56.1559 89.384 55.8639 89.2272 55.5618C89.1709 55.4533 89.118 55.3432 89.0673 55.2322C89.0119 55.1117 89.0438 55.1855 89.0801 55.2695C88.9823 55.0442 88.8597 54.8555 88.6344 54.7238C88.4099 54.5923 88.0791 54.5367 87.8275 54.6183C87.3349 54.7776 86.8809 55.361 87.0961 55.9064C87.3071 56.4412 87.5764 56.9508 87.9011 57.4257C88.0843 57.6932 88.2846 57.9543 88.4989 58.2044C85.5986 60.976 82.0687 62.7704 78.1815 63.6525C77.7238 63.7565 77.2636 63.8479 76.801 63.9271C76.602 63.9613 76.4026 63.9931 76.203 64.0228C76.1708 64.0276 75.9932 64.0524 75.9455 64.0594C75.8941 64.0659 75.744 64.0848 75.7012 64.0897C74.8999 64.1854 74.0942 64.2466 73.2876 64.2744C72.0414 64.3172 70.7909 64.282 69.5499 64.1597C69.3215 64.1371 69.0937 64.1099 68.8659 64.0824C68.8455 64.0796 68.825 64.0769 68.8048 64.0738C68.7247 64.0619 68.6446 64.05 68.5648 64.0375C68.4171 64.0139 68.2694 63.9901 68.123 63.9595C67.5699 63.8445 66.9914 64.1212 66.8348 64.6908C66.6921 65.21 67.01 65.8631 67.5662 65.9789C69.2778 66.3351 71.0838 66.4125 72.8254 66.3807C76.6824 66.3098 80.5241 65.5008 84.013 63.8369C86.263 62.7637 88.3222 61.3004 90.1047 59.5585C90.2001 59.6121 90.2958 59.6649 90.3951 59.7114C91.1329 60.0566 91.9205 60.2449 92.7393 60.2073C93.2857 60.1823 93.8125 59.7435 93.7865 59.1602C93.7626 58.6141 93.326 58.0861 92.7399 58.113Z" fill="black"/>
<path d="M11.9711 82.9634C11.9711 82.9634 -0.995058 130.095 34.3695 164.836C34.3695 164.836 45.8262 175.873 55.5434 178.139C55.5434 178.139 11.4054 141.457 11.9711 82.9634Z" fill="#FCE790"/>
<path d="M101.725 108.825C104.923 108.682 114.128 110.331 110.801 115.356C108.392 118.994 104.107 116.667 101.575 114.456C100.916 113.882 100.294 113.266 99.6934 112.63" fill="#F5B9BB"/>
<path d="M101.725 108.825C102.854 108.697 103.999 108.765 105.131 108.901C106.263 109.051 107.389 109.296 108.478 109.702C109.023 109.903 109.559 110.147 110.062 110.471C110.563 110.793 111.048 111.186 111.409 111.718C111.774 112.243 111.963 112.926 111.908 113.576C111.858 114.229 111.605 114.818 111.299 115.337C110.991 115.858 110.599 116.336 110.117 116.732C109.635 117.125 109.05 117.413 108.439 117.542C107.825 117.669 107.201 117.655 106.61 117.546C106.015 117.446 105.455 117.245 104.921 117.004C103.854 116.52 102.903 115.852 102.036 115.106C101.175 114.348 100.403 113.513 99.6934 112.629C100.537 113.384 101.383 114.135 102.291 114.783C103.195 115.436 104.161 116.001 105.175 116.401C106.185 116.784 107.276 117.017 108.264 116.768C108.754 116.647 109.211 116.424 109.6 116.098C109.987 115.773 110.318 115.362 110.58 114.909C110.851 114.464 111.053 113.986 111.093 113.508C111.138 113.03 111.01 112.568 110.75 112.154C110.491 111.736 110.095 111.382 109.659 111.081C109.22 110.78 108.736 110.525 108.234 110.304C107.225 109.871 106.153 109.543 105.061 109.304C103.968 109.059 102.855 108.881 101.725 108.825Z" fill="#DB8289"/>
<path d="M86.3618 120.5C86.5465 121.252 87.1501 121.847 87.8361 122.205C88.8002 122.708 89.8807 122.921 90.9777 123.054C91.5666 124.837 92.1695 127.529 92.2319 127.946C92.3398 128.665 92.205 129.351 92.6196 130.016C93.2506 131.03 94.3293 131.219 95.4474 131.141C96.6362 131.057 99.5802 130.415 100.38 129.384C101.414 128.05 101.173 126.805 99.7419 125.987C98.9183 125.516 98.5168 125.719 97.9469 124.892C97.6937 124.523 97.5675 124.05 97.4485 123.589C98.5764 123.581 99.7031 123.494 100.817 123.318C102.187 124.483 103.745 126.015 103.992 126.294C104.473 126.838 104.733 127.486 105.443 127.819C106.227 128.187 106.973 128.063 107.664 127.709C107.626 127.606 107.598 127.505 107.594 127.475C107.568 127.275 107.621 127.072 107.693 126.888C107.865 126.446 108.188 126.06 108.507 125.716C109.205 124.966 110.142 123.983 111.136 123.724C111.156 123.718 111.301 123.69 111.445 123.675C111.536 123.458 111.593 123.254 111.609 123.066C111.751 121.385 110.872 120.471 109.226 120.564C108.36 120.612 108.096 120.941 107.347 120.703C107.339 119.841 107.048 118.741 106.984 118.238C106.726 116.207 106.415 114.183 106.091 112.161C105.851 110.66 105 108.956 105.886 107.531C107.2 105.419 110.115 104.758 111.668 102.747C118.855 93.4377 108.963 82.7726 99.294 82.3171C99.294 82.3171 105.782 69.3044 96.535 68.6841C96.535 68.6841 89.522 68.7073 94.7268 82.6323L92.2762 83.0065C92.2762 83.0065 92.4976 69.7319 85.7237 70.8375C85.7237 70.8375 77.881 72.3983 88.4895 84.5007C88.0288 83.9751 83.548 87.4784 83.2068 87.7838C79.4373 91.1498 77.2319 97.1807 78.7499 102.149C79.5164 104.656 81.2393 106.684 83.4811 108.01C84.5882 108.665 85.7916 109.148 87.0284 109.496C87.8478 109.728 88.6809 109.886 89.5141 110.057C90.2005 110.198 90.4689 110.525 90.1662 111.237C89.16 113.606 88.1529 115.893 86.8807 118.123C86.4688 118.845 86.1625 119.693 86.3618 120.5Z" fill="#F5B9BB"/>
<path d="M81.9227 118.411C82.6314 120.471 84.8762 121.567 86.9366 120.858C88.997 120.149 90.0925 117.904 89.3838 115.844C88.6751 113.784 86.4303 112.688 84.3698 113.397C82.3094 114.106 81.2139 116.35 81.9227 118.411Z" fill="#F5B9BB"/>
<path d="M105.887 107.53C105.85 108.08 105.852 108.561 105.863 109.036C105.875 109.509 105.912 109.968 105.954 110.43C106.006 110.892 106.065 111.357 106.131 111.839C106.156 112.082 106.206 112.323 106.222 112.581C106.254 112.834 106.288 113.092 106.284 113.376C106.071 113.2 105.886 113.001 105.715 112.79C105.563 112.57 105.408 112.346 105.293 112.102C105.055 111.618 104.902 111.088 104.844 110.542C104.794 109.996 104.836 109.435 104.999 108.906C105.165 108.384 105.435 107.87 105.887 107.53Z" fill="#DB8289"/>
<path d="M107.665 127.709C107.927 127.576 108.181 127.409 108.427 127.224C109.242 126.61 110.913 124.954 111.446 123.674C111.301 123.689 111.157 123.717 111.136 123.723C110.143 123.982 109.205 124.966 108.508 125.716C108.188 126.059 107.866 126.445 107.693 126.888C107.622 127.072 107.568 127.275 107.595 127.474C107.599 127.505 107.627 127.606 107.665 127.709Z" fill="#F9D9DB"/>
<path d="M100.579 128.904C100.348 128.815 100.148 128.73 99.9519 128.636C99.7575 128.542 99.5679 128.445 99.3842 128.338C99.201 128.23 99.0191 128.118 98.8439 127.988C98.7562 127.923 98.6681 127.856 98.5843 127.78C98.499 127.706 98.4146 127.627 98.3379 127.53C98.4681 127.516 98.5907 127.522 98.7121 127.532C98.8314 127.546 98.9485 127.568 99.0622 127.597C99.2875 127.66 99.504 127.745 99.7015 127.862C99.8996 127.978 100.083 128.118 100.24 128.289C100.317 128.375 100.389 128.467 100.448 128.569C100.507 128.67 100.559 128.78 100.579 128.904Z" fill="#DB8289"/>
<path d="M100.909 127.675C100.707 127.665 100.549 127.619 100.4 127.562C100.253 127.505 100.122 127.431 99.9999 127.346C99.8782 127.26 99.7654 127.165 99.662 127.049C99.5578 126.933 99.4599 126.807 99.3691 126.624C99.5639 126.567 99.7446 126.583 99.91 126.624C100.075 126.667 100.226 126.739 100.359 126.834C100.492 126.928 100.611 127.042 100.707 127.18C100.802 127.318 100.882 127.473 100.909 127.675Z" fill="#EA7A82"/>
<path d="M110.433 122.629C110.201 122.539 110.002 122.454 109.805 122.361C109.611 122.266 109.421 122.17 109.238 122.063C109.055 121.955 108.873 121.843 108.697 121.712C108.609 121.648 108.522 121.581 108.438 121.504C108.353 121.43 108.268 121.352 108.191 121.254C108.321 121.241 108.444 121.246 108.566 121.256C108.685 121.271 108.802 121.293 108.916 121.322C109.141 121.384 109.358 121.47 109.555 121.587C109.753 121.703 109.937 121.843 110.093 122.014C110.17 122.1 110.243 122.192 110.302 122.294C110.361 122.395 110.413 122.504 110.433 122.629Z" fill="#DB8289"/>
<path d="M110.982 121.614C110.78 121.605 110.621 121.559 110.473 121.502C110.325 121.444 110.194 121.37 110.072 121.285C109.951 121.2 109.838 121.105 109.734 120.988C109.63 120.872 109.532 120.746 109.441 120.563C109.636 120.506 109.817 120.522 109.982 120.563C110.147 120.606 110.298 120.679 110.431 120.773C110.565 120.868 110.683 120.982 110.78 121.119C110.875 121.257 110.955 121.413 110.982 121.614Z" fill="#DB8289"/>
<path d="M96.5512 101.51C99.2293 101.18 101.173 99.0682 100.892 96.7941C100.611 94.52 98.2129 92.9445 95.5347 93.275C92.8566 93.6056 90.9131 95.7171 91.1938 97.9911C91.4744 100.265 93.873 101.841 96.5512 101.51Z" fill="white"/>
<path d="M95.7207 95.7067C97.0389 95.5756 98.0328 94.7175 97.9406 93.79C97.8484 92.8624 96.7051 92.2167 95.3869 92.3477C94.0687 92.4788 93.0747 93.3369 93.1669 94.2644C93.2591 95.192 94.4025 95.8377 95.7207 95.7067Z" fill="#42210B"/>
<path d="M98.7711 92.3424C98.8875 92.9344 99.4141 93.3291 99.9467 93.2239C100.479 93.1191 100.817 92.554 100.7 91.9624C100.584 91.3705 100.057 90.9758 99.5245 91.0809C98.9918 91.1858 98.6546 91.7508 98.7711 92.3424Z" fill="#42210B"/>
<path d="M92.0663 92.7636C92.1657 92.7997 92.2553 92.6896 92.199 92.6C92.1495 92.5208 92.0932 92.4459 92.033 92.3737C91.9101 92.2297 91.767 92.1001 91.5991 91.9922C91.4316 91.8851 91.238 91.8002 91.0179 91.7613C90.7996 91.7216 90.5492 91.7387 90.3248 91.831C90.0991 91.9215 89.9139 92.0784 89.7812 92.2496L89.6916 92.3762C89.6891 92.3793 89.687 92.3826 89.6852 92.386C89.6598 92.4291 89.6371 92.4734 89.6142 92.5171C89.565 92.6061 89.5366 92.699 89.5023 92.7902C89.5011 92.7932 89.5002 92.7963 89.4993 92.7993C89.4861 92.8443 89.4754 92.8902 89.4644 92.9354C89.4537 92.9825 89.4396 93.0284 89.4354 93.0758C89.4231 93.1699 89.4078 93.2632 89.4069 93.357C89.4066 93.4512 89.4036 93.5439 89.4136 93.6374C89.4136 93.6383 89.4139 93.6392 89.4139 93.6401C89.4243 93.7432 89.5601 93.7744 89.6173 93.6878C89.768 93.4607 89.897 93.2433 90.0358 93.0513C90.1328 92.9299 90.2193 92.8076 90.319 92.7223C90.4162 92.6339 90.5107 92.5697 90.6082 92.5303C90.7057 92.4902 90.8118 92.4713 90.9381 92.471C91.0637 92.471 91.2053 92.4939 91.3542 92.5303C91.5793 92.5865 91.8128 92.6716 92.0663 92.7636Z" fill="#42210B"/>
<path d="M99.1473 96.3113C99.2045 96.186 99.0464 96.0744 98.9445 96.167C98.9433 96.1682 98.9421 96.1691 98.9409 96.1704C98.8183 96.2832 98.6844 96.3804 98.5523 96.4724C98.2838 96.6531 97.9967 96.7922 97.7011 96.9029C97.628 96.932 97.5558 96.9619 97.4782 96.9821C97.4039 97.0048 97.3311 97.0295 97.258 97.0531C97.255 97.054 97.2519 97.0549 97.2489 97.0558C97.1736 97.0751 97.0969 97.091 97.0226 97.1118C96.9462 97.1322 96.8707 97.1534 96.7909 97.165C96.6331 97.1916 96.4818 97.2325 96.3164 97.2475L96.0739 97.2821L96.0106 97.2915L95.9586 97.298L95.8449 97.3093C95.2203 97.36 94.5763 97.3398 93.9725 97.1958C93.6698 97.1234 93.3754 97.017 93.0962 96.8608C92.9516 96.7834 92.8143 96.6898 92.6807 96.5834C92.5731 96.4975 92.4221 96.6219 92.4893 96.7421C92.4909 96.7446 92.492 96.7473 92.4936 96.7498C92.5327 96.8323 92.5859 96.9048 92.6351 96.9827C92.637 96.9855 92.6388 96.9883 92.641 96.991C92.6963 97.0629 92.751 97.1384 92.8143 97.2053C93.0663 97.4866 93.3882 97.7067 93.7316 97.866C93.9034 97.9471 94.0816 98.011 94.2626 98.062C94.4433 98.1158 94.6274 98.1519 94.8118 98.1797C95.1817 98.2314 95.552 98.2455 95.9262 98.2109C95.9733 98.2067 96.0204 98.2015 96.0687 98.1953L96.1445 98.1849L96.2084 98.1739L96.4747 98.1259C96.6508 98.0969 96.8312 98.0443 97.0079 97.9935C97.0969 97.9703 97.184 97.9363 97.2709 97.9033C97.3568 97.8715 97.4415 97.8373 97.5256 97.8021C97.5283 97.8009 97.5311 97.7997 97.5338 97.7985C97.7008 97.715 97.8683 97.6395 98.0236 97.534C98.3404 97.3353 98.6318 97.0885 98.8583 96.791C98.9115 96.7131 98.9684 96.6409 99.0152 96.5605C99.0611 96.4792 99.1088 96.4015 99.1442 96.3156C99.1457 96.315 99.1467 96.3132 99.1473 96.3113Z" fill="#42210B"/>
<path d="M95.3816 97.7862L96.1797 97.7378L96.0077 94.9004L95.2096 94.9487L95.3816 97.7862Z" fill="#42210B"/>
<path d="M96.3973 82.4446C96.3973 82.4446 94.0923 70.7259 98.2211 71.2646C98.2211 71.2646 102.575 71.0729 98.5577 82.3229C98.5577 82.3229 97.79 83.0127 96.3973 82.4446Z" fill="#DB8289"/>
<path d="M90.8409 83.2925C90.8409 83.2925 88.6236 71.5741 85.3063 73.6309C85.3063 73.6309 81.5373 75.0966 88.9612 83.9951C88.9612 83.9951 89.8595 84.3443 90.8409 83.2925Z" fill="#DB8289"/>
<path d="M88.8411 114.264C88.4819 114.966 88.0969 115.625 87.741 116.295C87.3729 116.965 87.0522 117.614 86.8394 118.296C86.7403 118.636 86.67 118.978 86.6394 119.321C86.6174 119.663 86.6434 120.003 86.7204 120.338C86.8733 121.012 87.3029 121.625 87.837 122.204C87.1103 121.919 86.4327 121.35 86.0973 120.55C85.9313 120.155 85.8515 119.723 85.8457 119.296C85.8497 118.869 85.9237 118.451 86.0386 118.052C86.2844 117.261 86.7134 116.549 87.1913 115.937C87.6744 115.316 88.2137 114.742 88.8411 114.264Z" fill="#DB8289"/>
<path d="M98.2465 110.824C101.444 110.681 110.649 112.33 107.323 117.355C104.914 120.993 100.628 118.666 98.0964 116.455C97.4378 115.881 96.815 115.265 96.2148 114.629" fill="#F5B9BB"/>
<path d="M98.2462 110.824C99.3751 110.696 100.521 110.764 101.653 110.9C102.784 111.05 103.91 111.296 105 111.701C105.544 111.902 106.081 112.146 106.584 112.47C107.084 112.792 107.569 113.185 107.93 113.717C108.296 114.242 108.485 114.925 108.429 115.575C108.379 116.228 108.126 116.817 107.82 117.336C107.513 117.857 107.121 118.336 106.638 118.732C106.156 119.124 105.572 119.413 104.96 119.541C104.347 119.668 103.722 119.654 103.131 119.545C102.536 119.445 101.976 119.244 101.443 119.003C100.376 118.519 99.4246 117.851 98.5575 117.105C97.6962 116.347 96.9245 115.513 96.2148 114.629C97.0581 115.384 97.9041 116.135 98.8128 116.783C99.7162 117.435 100.683 118.001 101.697 118.401C102.707 118.784 103.797 119.016 104.786 118.767C105.275 118.647 105.732 118.424 106.121 118.098C106.508 117.772 106.84 117.362 107.101 116.909C107.372 116.464 107.575 115.985 107.615 115.508C107.66 115.03 107.532 114.568 107.271 114.153C107.013 113.736 106.616 113.382 106.18 113.08C105.741 112.78 105.258 112.525 104.755 112.304C103.746 111.871 102.674 111.543 101.582 111.303C100.489 111.059 99.3769 110.881 98.2462 110.824Z" fill="#DB8289"/>
<path d="M111.731 97.2056C111.774 97.4089 111.762 97.5865 111.734 97.7562C111.704 97.9253 111.651 98.0831 111.58 98.2329C111.509 98.3824 111.421 98.5236 111.309 98.6536C111.196 98.7829 111.066 98.9043 110.881 98.9994C110.837 98.7958 110.848 98.6181 110.877 98.4484C110.906 98.2794 110.96 98.1216 111.031 97.9721C111.102 97.8229 111.19 97.6816 111.302 97.5517C111.416 97.4226 111.546 97.301 111.731 97.2056Z" fill="#DB8289"/>
<path d="M112.756 99.2866C112.799 99.4899 112.787 99.6676 112.759 99.8373C112.73 100.006 112.676 100.164 112.606 100.314C112.535 100.463 112.447 100.605 112.335 100.735C112.221 100.864 112.091 100.985 111.906 101.081C111.862 100.877 111.874 100.699 111.902 100.53C111.932 100.361 111.985 100.203 112.056 100.053C112.128 99.9042 112.216 99.763 112.328 99.6333C112.441 99.5037 112.571 99.382 112.756 99.2866Z" fill="#DB8289"/>
<path d="M113.461 95.8628C113.504 96.0661 113.492 96.2438 113.464 96.4135C113.435 96.5825 113.381 96.7403 113.311 96.8901C113.24 97.0396 113.152 97.1809 113.04 97.3108C112.927 97.4401 112.796 97.5615 112.611 97.6569C112.567 97.4533 112.579 97.2757 112.607 97.106C112.637 96.9369 112.69 96.7791 112.761 96.6296C112.833 96.4804 112.921 96.3392 113.033 96.2095C113.146 96.0796 113.276 95.9582 113.461 95.8628Z" fill="#DB8289"/>
<path d="M110.479 100.083C110.522 100.286 110.51 100.463 110.481 100.633C110.452 100.802 110.398 100.96 110.328 101.11C110.258 101.259 110.169 101.401 110.057 101.531C109.944 101.66 109.814 101.781 109.629 101.877C109.585 101.673 109.596 101.495 109.625 101.326C109.654 101.157 109.708 100.999 109.779 100.849C109.85 100.7 109.938 100.559 110.051 100.429C110.164 100.299 110.294 100.178 110.479 100.083Z" fill="#DB8289"/>
<path d="M113.836 199.589C116.141 197.714 118.093 195.396 120.368 193.467C123.897 190.474 128.226 188.433 132.781 187.616C133.21 187.538 133.781 187.173 133.52 186.823C133.424 186.694 133.251 186.657 133.092 186.631C127.521 185.698 121.665 186.551 116.591 189.033C116.363 189.145 116.077 189.256 115.872 189.105C115.674 188.958 115.688 188.662 115.727 188.418C116.725 182.183 121.025 176.574 126.787 173.991C127.224 173.795 127.713 173.192 127.292 172.963C127.174 172.899 127.03 172.916 126.897 172.936C120.009 173.952 113.652 178.127 109.982 184.043C109.836 184.28 109.614 184.554 109.344 184.486C109.092 184.423 109.013 184.109 108.979 183.85C108.511 180.236 107.828 176.621 106.457 173.244C105.634 171.218 104.556 169.284 103.185 167.577C102.479 166.698 101.681 165.764 100.768 165.093C99.629 164.257 99.3306 165.033 99.5676 166.262C100.827 172.795 101.427 179.455 101.356 186.108C101.351 186.588 101.19 187.229 100.709 187.224C100.415 187.22 100.203 186.952 100.034 186.711C98.3165 184.259 96.3321 181.946 93.8608 180.257C91.3894 178.568 88.3827 177.54 85.4035 177.829C85.2705 177.842 85.1302 177.86 85.0247 177.942C84.6823 178.208 85.0122 178.741 85.3384 179.027C90.0356 183.141 94.9003 187.873 95.8552 194.044C95.8943 194.297 95.9121 194.595 95.724 194.769C95.4544 195.018 95.026 194.811 94.7184 194.61C90.8391 192.077 85.741 191.515 81.4031 193.142C81.2114 193.214 80.9943 193.321 80.9583 193.522C80.9081 193.803 81.2356 193.989 81.5062 194.08C85.8404 195.544 90.7807 196.722 93.289 200.548C94.1149 201.808 94.7184 203.386 96.1007 203.984C96.7648 204.272 97.5123 204.278 98.236 204.267C103.116 204.189 108.168 203.438 112.248 200.758C112.799 200.397 113.326 200.003 113.836 199.589Z" fill="#ACCE1C"/>
</svg>
