<svg width="130" height="38" viewBox="0 0 130 38" fill="none" xmlns="http://www.w3.org/2000/svg">
<rect x="9" y="6" width="121" height="26" rx="13" fill="#BF8FFD"/>
<path d="M44.79 22.12C44.09 22.12 43.4967 21.9933 43.01 21.74C42.5233 21.48 42.15 21.09 41.89 20.57C41.6367 20.0433 41.51 19.3767 41.51 18.57C41.51 17.3767 41.8 16.4867 42.38 15.9C42.96 15.3133 43.7667 15.02 44.8 15.02C45.3867 15.02 45.9067 15.1167 46.36 15.31C46.8133 15.4967 47.1667 15.7833 47.42 16.17C47.68 16.55 47.81 17.03 47.81 17.61H46.85C46.85 17.21 46.7633 16.88 46.59 16.62C46.4233 16.36 46.1867 16.1667 45.88 16.04C45.5733 15.9067 45.2133 15.84 44.8 15.84C44.32 15.84 43.9067 15.9333 43.56 16.12C43.2133 16.3067 42.95 16.5967 42.77 16.99C42.59 17.3767 42.5 17.8767 42.5 18.49V18.7C42.5 19.3067 42.59 19.8033 42.77 20.19C42.95 20.57 43.21 20.85 43.55 21.03C43.8967 21.21 44.3133 21.3 44.8 21.3C45.2267 21.3 45.5933 21.2367 45.9 21.11C46.2133 20.9833 46.4533 20.79 46.62 20.53C46.7933 20.2633 46.88 19.93 46.88 19.53H47.81C47.81 20.1233 47.6767 20.61 47.41 20.99C47.15 21.37 46.7933 21.6533 46.34 21.84C45.8867 22.0267 45.37 22.12 44.79 22.12ZM48.7654 22V14.77H49.6454V17.4H49.7154C49.8487 17.22 49.9987 17.0733 50.1654 16.96C50.3321 16.8467 50.5154 16.7633 50.7154 16.71C50.9221 16.65 51.1454 16.62 51.3854 16.62C51.7187 16.62 52.0087 16.6767 52.2554 16.79C52.5087 16.9033 52.7054 17.0867 52.8454 17.34C52.9921 17.5933 53.0654 17.9367 53.0654 18.37V22H52.1854V18.49C52.1854 18.27 52.1554 18.09 52.0954 17.95C52.0421 17.81 51.9654 17.7 51.8654 17.62C51.7721 17.54 51.6554 17.4833 51.5154 17.45C51.3821 17.4167 51.2321 17.4 51.0654 17.4C50.8187 17.4 50.5854 17.46 50.3654 17.58C50.1454 17.6933 49.9687 17.8633 49.8354 18.09C49.7087 18.31 49.6454 18.5833 49.6454 18.91V22H48.7654ZM55.5202 22.12C55.3268 22.12 55.1335 22.0967 54.9402 22.05C54.7468 22.0033 54.5668 21.9267 54.4002 21.82C54.2335 21.7133 54.1002 21.5667 54.0002 21.38C53.9002 21.1867 53.8502 20.9467 53.8502 20.66C53.8502 20.3 53.9368 20.0033 54.1102 19.77C54.2835 19.5367 54.5235 19.3567 54.8302 19.23C55.1435 19.0967 55.5135 19.0067 55.9402 18.96C56.3668 18.9067 56.8302 18.88 57.3302 18.88V18.28C57.3302 18.0867 57.2968 17.92 57.2302 17.78C57.1635 17.64 57.0435 17.5333 56.8702 17.46C56.7035 17.38 56.4635 17.34 56.1502 17.34C55.8502 17.34 55.6102 17.38 55.4302 17.46C55.2568 17.5333 55.1335 17.63 55.0602 17.75C54.9935 17.87 54.9602 18.0033 54.9602 18.15V18.3H54.1102C54.1035 18.2667 54.1002 18.2333 54.1002 18.2C54.1002 18.1667 54.1002 18.1267 54.1002 18.08C54.1002 17.76 54.1868 17.4933 54.3602 17.28C54.5402 17.06 54.7902 16.8967 55.1102 16.79C55.4302 16.6767 55.7968 16.62 56.2102 16.62C56.6502 16.62 57.0168 16.6833 57.3102 16.81C57.6102 16.9367 57.8335 17.1167 57.9802 17.35C58.1335 17.5833 58.2102 17.8633 58.2102 18.19V21.04C58.2102 21.1667 58.2402 21.2567 58.3002 21.31C58.3602 21.3567 58.4335 21.38 58.5202 21.38H58.9102V21.96C58.8168 22 58.7135 22.0333 58.6002 22.06C58.4868 22.0933 58.3568 22.11 58.2102 22.11C58.0368 22.11 57.8935 22.0733 57.7802 22C57.6668 21.9333 57.5802 21.84 57.5202 21.72C57.4602 21.5933 57.4202 21.4533 57.4002 21.3H57.3302C57.2102 21.4667 57.0568 21.6133 56.8702 21.74C56.6902 21.86 56.4868 21.9533 56.2602 22.02C56.0335 22.0867 55.7868 22.12 55.5202 22.12ZM55.7402 21.38C55.9535 21.38 56.1535 21.3467 56.3402 21.28C56.5335 21.2133 56.7035 21.12 56.8502 21C56.9968 20.8733 57.1135 20.7233 57.2002 20.55C57.2868 20.3767 57.3302 20.1867 57.3302 19.98V19.54C56.7902 19.54 56.3302 19.57 55.9502 19.63C55.5702 19.69 55.2768 19.7967 55.0702 19.95C54.8702 20.1033 54.7702 20.32 54.7702 20.6C54.7702 20.78 54.8102 20.9267 54.8902 21.04C54.9702 21.1533 55.0835 21.24 55.2302 21.3C55.3768 21.3533 55.5468 21.38 55.7402 21.38ZM61.2894 22.12C60.9294 22.12 60.6127 22.0833 60.3394 22.01C60.066 21.9367 59.8394 21.83 59.6594 21.69C59.4794 21.55 59.3427 21.3833 59.2494 21.19C59.156 20.9967 59.1094 20.7767 59.1094 20.53C59.1094 20.4967 59.1094 20.4667 59.1094 20.44C59.1094 20.4067 59.1127 20.38 59.1194 20.36H59.9894C59.9827 20.3867 59.9794 20.41 59.9794 20.43C59.9794 20.45 59.9794 20.47 59.9794 20.49C59.986 20.7233 60.046 20.9067 60.1594 21.04C60.2794 21.1733 60.4427 21.2667 60.6494 21.32C60.856 21.3733 61.086 21.4 61.3394 21.4C61.5594 21.4 61.7627 21.3733 61.9494 21.32C62.136 21.26 62.2827 21.1733 62.3894 21.06C62.5027 20.94 62.5594 20.79 62.5594 20.61C62.5594 20.39 62.486 20.2233 62.3394 20.11C62.1994 19.99 62.0127 19.8967 61.7794 19.83C61.546 19.7633 61.3027 19.6933 61.0494 19.62C60.836 19.56 60.6227 19.4933 60.4094 19.42C60.196 19.3467 60.0027 19.2567 59.8294 19.15C59.6627 19.0433 59.526 18.9067 59.4194 18.74C59.3194 18.5667 59.2694 18.35 59.2694 18.09C59.2694 17.8567 59.316 17.65 59.4094 17.47C59.5094 17.29 59.6494 17.1367 59.8294 17.01C60.0094 16.8833 60.226 16.79 60.4794 16.73C60.7394 16.6633 61.026 16.63 61.3394 16.63C61.6727 16.63 61.9627 16.6667 62.2094 16.74C62.4627 16.8133 62.6727 16.9167 62.8394 17.05C63.006 17.1833 63.1294 17.3367 63.2094 17.51C63.2894 17.6767 63.3294 17.8567 63.3294 18.05C63.3294 18.09 63.3294 18.13 63.3294 18.17C63.3294 18.2033 63.326 18.23 63.3194 18.25H62.4594V18.14C62.4594 18.0067 62.4227 17.88 62.3494 17.76C62.2827 17.6333 62.1627 17.5333 61.9894 17.46C61.8227 17.38 61.5894 17.34 61.2894 17.34C61.096 17.34 60.9294 17.3567 60.7894 17.39C60.6494 17.4167 60.5327 17.4633 60.4394 17.53C60.346 17.59 60.276 17.6633 60.2294 17.75C60.1827 17.83 60.1594 17.9233 60.1594 18.03C60.1594 18.2033 60.216 18.3367 60.3294 18.43C60.4427 18.5233 60.5927 18.6 60.7794 18.66C60.9727 18.72 61.1794 18.7867 61.3994 18.86C61.6327 18.9267 61.8694 18.9967 62.1094 19.07C62.356 19.1367 62.5794 19.2233 62.7794 19.33C62.986 19.4367 63.1494 19.5833 63.2694 19.77C63.396 19.95 63.4594 20.19 63.4594 20.49C63.4594 20.77 63.406 21.0133 63.2994 21.22C63.1927 21.4267 63.0394 21.5967 62.8394 21.73C62.646 21.8633 62.416 21.96 62.1494 22.02C61.8894 22.0867 61.6027 22.12 61.2894 22.12ZM66.187 22.12C65.827 22.12 65.5104 22.0833 65.237 22.01C64.9637 21.9367 64.737 21.83 64.557 21.69C64.377 21.55 64.2404 21.3833 64.147 21.19C64.0537 20.9967 64.007 20.7767 64.007 20.53C64.007 20.4967 64.007 20.4667 64.007 20.44C64.007 20.4067 64.0104 20.38 64.017 20.36H64.887C64.8804 20.3867 64.877 20.41 64.877 20.43C64.877 20.45 64.877 20.47 64.877 20.49C64.8837 20.7233 64.9437 20.9067 65.057 21.04C65.177 21.1733 65.3404 21.2667 65.547 21.32C65.7537 21.3733 65.9837 21.4 66.237 21.4C66.457 21.4 66.6604 21.3733 66.847 21.32C67.0337 21.26 67.1804 21.1733 67.287 21.06C67.4004 20.94 67.457 20.79 67.457 20.61C67.457 20.39 67.3837 20.2233 67.237 20.11C67.097 19.99 66.9104 19.8967 66.677 19.83C66.4437 19.7633 66.2004 19.6933 65.947 19.62C65.7337 19.56 65.5204 19.4933 65.307 19.42C65.0937 19.3467 64.9004 19.2567 64.727 19.15C64.5604 19.0433 64.4237 18.9067 64.317 18.74C64.217 18.5667 64.167 18.35 64.167 18.09C64.167 17.8567 64.2137 17.65 64.307 17.47C64.407 17.29 64.547 17.1367 64.727 17.01C64.907 16.8833 65.1237 16.79 65.377 16.73C65.637 16.6633 65.9237 16.63 66.237 16.63C66.5704 16.63 66.8604 16.6667 67.107 16.74C67.3604 16.8133 67.5704 16.9167 67.737 17.05C67.9037 17.1833 68.027 17.3367 68.107 17.51C68.187 17.6767 68.227 17.8567 68.227 18.05C68.227 18.09 68.227 18.13 68.227 18.17C68.227 18.2033 68.2237 18.23 68.217 18.25H67.357V18.14C67.357 18.0067 67.3204 17.88 67.247 17.76C67.1804 17.6333 67.0604 17.5333 66.887 17.46C66.7204 17.38 66.487 17.34 66.187 17.34C65.9937 17.34 65.827 17.3567 65.687 17.39C65.547 17.4167 65.4304 17.4633 65.337 17.53C65.2437 17.59 65.1737 17.6633 65.127 17.75C65.0804 17.83 65.057 17.9233 65.057 18.03C65.057 18.2033 65.1137 18.3367 65.227 18.43C65.3404 18.5233 65.4904 18.6 65.677 18.66C65.8704 18.72 66.077 18.7867 66.297 18.86C66.5304 18.9267 66.767 18.9967 67.007 19.07C67.2537 19.1367 67.477 19.2233 67.677 19.33C67.8837 19.4367 68.047 19.5833 68.167 19.77C68.2937 19.95 68.357 20.19 68.357 20.49C68.357 20.77 68.3037 21.0133 68.197 21.22C68.0904 21.4267 67.937 21.5967 67.737 21.73C67.5437 21.8633 67.3137 21.96 67.047 22.02C66.787 22.0867 66.5004 22.12 66.187 22.12ZM71.3447 22.12C70.8247 22.12 70.3847 22.0233 70.0247 21.83C69.6714 21.63 69.4014 21.3267 69.2147 20.92C69.0347 20.5133 68.9447 19.9967 68.9447 19.37C68.9447 18.7367 69.0347 18.22 69.2147 17.82C69.4014 17.4133 69.6747 17.1133 70.0347 16.92C70.3947 16.72 70.8447 16.62 71.3847 16.62C71.878 16.62 72.2914 16.7167 72.6247 16.91C72.958 17.0967 73.208 17.38 73.3747 17.76C73.548 18.1333 73.6347 18.6033 73.6347 19.17V19.59H69.8547C69.868 20.01 69.928 20.3567 70.0347 20.63C70.148 20.8967 70.3147 21.0933 70.5347 21.22C70.7547 21.34 71.0314 21.4 71.3647 21.4C71.5914 21.4 71.788 21.3733 71.9547 21.32C72.128 21.26 72.2714 21.1767 72.3847 21.07C72.5047 20.9633 72.5947 20.8367 72.6547 20.69C72.7147 20.5433 72.748 20.3833 72.7547 20.21H73.6147C73.608 20.49 73.5547 20.75 73.4547 20.99C73.3547 21.2233 73.208 21.4233 73.0147 21.59C72.8214 21.7567 72.5847 21.8867 72.3047 21.98C72.0247 22.0733 71.7047 22.12 71.3447 22.12ZM69.8747 18.93H72.7247C72.7247 18.6367 72.6914 18.39 72.6247 18.19C72.558 17.99 72.4614 17.8267 72.3347 17.7C72.2147 17.5733 72.0714 17.4833 71.9047 17.43C71.7447 17.37 71.5614 17.34 71.3547 17.34C71.048 17.34 70.788 17.3967 70.5747 17.51C70.3614 17.6233 70.198 17.7967 70.0847 18.03C69.9714 18.2633 69.9014 18.5633 69.8747 18.93ZM76.1532 22.12C75.6465 22.12 75.2399 21.99 74.9332 21.73C74.6265 21.47 74.4732 21.0167 74.4732 20.37V16.74H75.3532V20.25C75.3532 20.47 75.3799 20.65 75.4332 20.79C75.4865 20.93 75.5632 21.04 75.6632 21.12C75.7632 21.2 75.8799 21.2567 76.0132 21.29C76.1532 21.3233 76.3032 21.34 76.4632 21.34C76.7165 21.34 76.9499 21.28 77.1632 21.16C77.3765 21.04 77.5499 20.8667 77.6832 20.64C77.8232 20.4067 77.8932 20.1367 77.8932 19.83V16.74H78.7732V22H78.0632L77.9832 21.21H77.9132C77.7732 21.4233 77.6132 21.5967 77.4332 21.73C77.2599 21.8633 77.0632 21.96 76.8432 22.02C76.6299 22.0867 76.3999 22.12 76.1532 22.12ZM79.9384 22V16.74H80.6484L80.7284 17.61H80.7984C80.8518 17.4433 80.9251 17.2867 81.0184 17.14C81.1118 16.9867 81.2384 16.8633 81.3984 16.77C81.5584 16.67 81.7551 16.62 81.9884 16.62C82.0884 16.62 82.1784 16.63 82.2584 16.65C82.3451 16.6633 82.4084 16.68 82.4484 16.7V17.51H82.1184C81.8918 17.51 81.6951 17.55 81.5284 17.63C81.3684 17.7033 81.2351 17.81 81.1284 17.95C81.0218 18.09 80.9418 18.2567 80.8884 18.45C80.8418 18.6433 80.8184 18.85 80.8184 19.07V22H79.9384ZM86.5433 22.12C86.1099 22.12 85.7366 22.0233 85.4233 21.83C85.1166 21.6367 84.8766 21.3367 84.7033 20.93C84.5366 20.5167 84.4533 19.9833 84.4533 19.33C84.4533 18.71 84.5399 18.2 84.7133 17.8C84.8866 17.4 85.1266 17.1033 85.4333 16.91C85.7399 16.7167 86.0966 16.62 86.5033 16.62C86.7366 16.62 86.9533 16.6467 87.1533 16.7C87.3533 16.7533 87.5299 16.8367 87.6833 16.95C87.8433 17.0633 87.9833 17.2133 88.1033 17.4H88.1633V14.77H89.0433V22H88.3333L88.2533 21.25H88.1833C88.0033 21.5433 87.7699 21.7633 87.4833 21.91C87.1966 22.05 86.8833 22.12 86.5433 22.12ZM86.7533 21.35C87.0866 21.35 87.3566 21.2767 87.5633 21.13C87.7699 20.9833 87.9199 20.77 88.0133 20.49C88.1133 20.21 88.1633 19.8633 88.1633 19.45V19.29C88.1633 18.93 88.1266 18.6267 88.0533 18.38C87.9799 18.1333 87.8799 17.9367 87.7533 17.79C87.6266 17.6433 87.4799 17.54 87.3133 17.48C87.1466 17.42 86.9699 17.39 86.7833 17.39C86.4566 17.39 86.1899 17.4567 85.9833 17.59C85.7766 17.7167 85.6233 17.92 85.5233 18.2C85.4233 18.4733 85.3733 18.83 85.3733 19.27V19.48C85.3733 19.9333 85.4266 20.3 85.5333 20.58C85.6399 20.8533 85.7933 21.05 85.9933 21.17C86.1999 21.29 86.4533 21.35 86.7533 21.35ZM92.3271 22.12C91.8071 22.12 91.3671 22.0233 91.0071 21.83C90.6538 21.63 90.3838 21.3267 90.1971 20.92C90.0171 20.5133 89.9271 19.9967 89.9271 19.37C89.9271 18.7367 90.0171 18.22 90.1971 17.82C90.3838 17.4133 90.6571 17.1133 91.0171 16.92C91.3771 16.72 91.8271 16.62 92.3671 16.62C92.8604 16.62 93.2738 16.7167 93.6071 16.91C93.9404 17.0967 94.1904 17.38 94.3571 17.76C94.5304 18.1333 94.6171 18.6033 94.6171 19.17V19.59H90.8371C90.8504 20.01 90.9104 20.3567 91.0171 20.63C91.1304 20.8967 91.2971 21.0933 91.5171 21.22C91.7371 21.34 92.0138 21.4 92.3471 21.4C92.5738 21.4 92.7704 21.3733 92.9371 21.32C93.1104 21.26 93.2538 21.1767 93.3671 21.07C93.4871 20.9633 93.5771 20.8367 93.6371 20.69C93.6971 20.5433 93.7304 20.3833 93.7371 20.21H94.5971C94.5904 20.49 94.5371 20.75 94.4371 20.99C94.3371 21.2233 94.1904 21.4233 93.9971 21.59C93.8038 21.7567 93.5671 21.8867 93.2871 21.98C93.0071 22.0733 92.6871 22.12 92.3271 22.12ZM90.8571 18.93H93.7071C93.7071 18.6367 93.6738 18.39 93.6071 18.19C93.5404 17.99 93.4438 17.8267 93.3171 17.7C93.1971 17.5733 93.0538 17.4833 92.8871 17.43C92.7271 17.37 92.5438 17.34 92.3371 17.34C92.0304 17.34 91.7704 17.3967 91.5571 17.51C91.3438 17.6233 91.1804 17.7967 91.0671 18.03C90.9538 18.2633 90.8838 18.5633 90.8571 18.93ZM97.6055 22V17.48H96.8255V16.74H97.6055V15.9C97.6055 15.6933 97.6355 15.5 97.6955 15.32C97.7555 15.1333 97.8688 14.9833 98.0355 14.87C98.2021 14.75 98.4355 14.69 98.7355 14.69C98.8288 14.69 98.9188 14.6967 99.0055 14.71C99.0988 14.7167 99.1855 14.73 99.2655 14.75C99.3521 14.7633 99.4288 14.78 99.4955 14.8V15.43H98.9655C98.7988 15.43 98.6755 15.4733 98.5955 15.56C98.5221 15.64 98.4855 15.7567 98.4855 15.91V16.74H99.4955V17.48H98.4855V22H97.6055ZM101.269 22.12C101.076 22.12 100.883 22.0967 100.689 22.05C100.496 22.0033 100.316 21.9267 100.149 21.82C99.9827 21.7133 99.8494 21.5667 99.7494 21.38C99.6494 21.1867 99.5994 20.9467 99.5994 20.66C99.5994 20.3 99.686 20.0033 99.8594 19.77C100.033 19.5367 100.273 19.3567 100.579 19.23C100.893 19.0967 101.263 19.0067 101.689 18.96C102.116 18.9067 102.579 18.88 103.079 18.88V18.28C103.079 18.0867 103.046 17.92 102.979 17.78C102.913 17.64 102.793 17.5333 102.619 17.46C102.453 17.38 102.213 17.34 101.899 17.34C101.599 17.34 101.359 17.38 101.179 17.46C101.006 17.5333 100.883 17.63 100.809 17.75C100.743 17.87 100.709 18.0033 100.709 18.15V18.3H99.8594C99.8527 18.2667 99.8494 18.2333 99.8494 18.2C99.8494 18.1667 99.8494 18.1267 99.8494 18.08C99.8494 17.76 99.936 17.4933 100.109 17.28C100.289 17.06 100.539 16.8967 100.859 16.79C101.179 16.6767 101.546 16.62 101.959 16.62C102.399 16.62 102.766 16.6833 103.059 16.81C103.359 16.9367 103.583 17.1167 103.729 17.35C103.883 17.5833 103.959 17.8633 103.959 18.19V21.04C103.959 21.1667 103.989 21.2567 104.049 21.31C104.109 21.3567 104.183 21.38 104.269 21.38H104.659V21.96C104.566 22 104.463 22.0333 104.349 22.06C104.236 22.0933 104.106 22.11 103.959 22.11C103.786 22.11 103.643 22.0733 103.529 22C103.416 21.9333 103.329 21.84 103.269 21.72C103.209 21.5933 103.169 21.4533 103.149 21.3H103.079C102.959 21.4667 102.806 21.6133 102.619 21.74C102.439 21.86 102.236 21.9533 102.009 22.02C101.783 22.0867 101.536 22.12 101.269 22.12ZM101.489 21.38C101.703 21.38 101.903 21.3467 102.089 21.28C102.283 21.2133 102.453 21.12 102.599 21C102.746 20.8733 102.863 20.7233 102.949 20.55C103.036 20.3767 103.079 20.1867 103.079 19.98V19.54C102.539 19.54 102.079 19.57 101.699 19.63C101.319 19.69 101.026 19.7967 100.819 19.95C100.619 20.1033 100.519 20.32 100.519 20.6C100.519 20.78 100.559 20.9267 100.639 21.04C100.719 21.1533 100.833 21.24 100.979 21.3C101.126 21.3533 101.296 21.38 101.489 21.38ZM106.829 22.12C106.322 22.12 105.915 21.99 105.609 21.73C105.302 21.47 105.149 21.0167 105.149 20.37V16.74H106.029V20.25C106.029 20.47 106.055 20.65 106.109 20.79C106.162 20.93 106.239 21.04 106.339 21.12C106.439 21.2 106.555 21.2567 106.689 21.29C106.829 21.3233 106.979 21.34 107.139 21.34C107.392 21.34 107.625 21.28 107.839 21.16C108.052 21.04 108.225 20.8667 108.359 20.64C108.499 20.4067 108.569 20.1367 108.569 19.83V16.74H109.449V22H108.739L108.659 21.21H108.589C108.449 21.4233 108.289 21.5967 108.109 21.73C107.935 21.8633 107.739 21.96 107.519 22.02C107.305 22.0867 107.075 22.12 106.829 22.12ZM111.844 22.12C111.57 22.12 111.357 22.07 111.204 21.97C111.05 21.8633 110.94 21.7267 110.874 21.56C110.807 21.3867 110.774 21.2033 110.774 21.01V17.48H110.094V16.74H110.794L110.954 15.27H111.654V16.74H112.644V17.48H111.654V20.88C111.654 21.0467 111.684 21.1733 111.744 21.26C111.804 21.34 111.917 21.38 112.084 21.38H112.644V21.96C112.577 21.9933 112.497 22.02 112.404 22.04C112.31 22.06 112.214 22.0767 112.114 22.09C112.02 22.11 111.93 22.12 111.844 22.12ZM115.483 22.12C114.963 22.12 114.523 22.0233 114.163 21.83C113.809 21.63 113.539 21.3267 113.353 20.92C113.173 20.5133 113.083 19.9967 113.083 19.37C113.083 18.7367 113.173 18.22 113.353 17.82C113.539 17.4133 113.813 17.1133 114.173 16.92C114.533 16.72 114.983 16.62 115.523 16.62C116.016 16.62 116.429 16.7167 116.763 16.91C117.096 17.0967 117.346 17.38 117.513 17.76C117.686 18.1333 117.773 18.6033 117.773 19.17V19.59H113.993C114.006 20.01 114.066 20.3567 114.173 20.63C114.286 20.8967 114.453 21.0933 114.673 21.22C114.893 21.34 115.169 21.4 115.503 21.4C115.729 21.4 115.926 21.3733 116.093 21.32C116.266 21.26 116.409 21.1767 116.523 21.07C116.643 20.9633 116.733 20.8367 116.793 20.69C116.853 20.5433 116.886 20.3833 116.893 20.21H117.753C117.746 20.49 117.693 20.75 117.593 20.99C117.493 21.2233 117.346 21.4233 117.153 21.59C116.959 21.7567 116.723 21.8867 116.443 21.98C116.163 22.0733 115.843 22.12 115.483 22.12ZM114.013 18.93H116.863C116.863 18.6367 116.829 18.39 116.763 18.19C116.696 17.99 116.599 17.8267 116.473 17.7C116.353 17.5733 116.209 17.4833 116.043 17.43C115.883 17.37 115.699 17.34 115.493 17.34C115.186 17.34 114.926 17.3967 114.713 17.51C114.499 17.6233 114.336 17.7967 114.223 18.03C114.109 18.2633 114.039 18.5633 114.013 18.93ZM120.501 22.12C120.141 22.12 119.824 22.0833 119.551 22.01C119.278 21.9367 119.051 21.83 118.871 21.69C118.691 21.55 118.554 21.3833 118.461 21.19C118.368 20.9967 118.321 20.7767 118.321 20.53C118.321 20.4967 118.321 20.4667 118.321 20.44C118.321 20.4067 118.324 20.38 118.331 20.36H119.201C119.194 20.3867 119.191 20.41 119.191 20.43C119.191 20.45 119.191 20.47 119.191 20.49C119.198 20.7233 119.258 20.9067 119.371 21.04C119.491 21.1733 119.654 21.2667 119.861 21.32C120.068 21.3733 120.298 21.4 120.551 21.4C120.771 21.4 120.974 21.3733 121.161 21.32C121.348 21.26 121.494 21.1733 121.601 21.06C121.714 20.94 121.771 20.79 121.771 20.61C121.771 20.39 121.698 20.2233 121.551 20.11C121.411 19.99 121.224 19.8967 120.991 19.83C120.758 19.7633 120.514 19.6933 120.261 19.62C120.048 19.56 119.834 19.4933 119.621 19.42C119.408 19.3467 119.214 19.2567 119.041 19.15C118.874 19.0433 118.738 18.9067 118.631 18.74C118.531 18.5667 118.481 18.35 118.481 18.09C118.481 17.8567 118.528 17.65 118.621 17.47C118.721 17.29 118.861 17.1367 119.041 17.01C119.221 16.8833 119.438 16.79 119.691 16.73C119.951 16.6633 120.238 16.63 120.551 16.63C120.884 16.63 121.174 16.6667 121.421 16.74C121.674 16.8133 121.884 16.9167 122.051 17.05C122.218 17.1833 122.341 17.3367 122.421 17.51C122.501 17.6767 122.541 17.8567 122.541 18.05C122.541 18.09 122.541 18.13 122.541 18.17C122.541 18.2033 122.538 18.23 122.531 18.25H121.671V18.14C121.671 18.0067 121.634 17.88 121.561 17.76C121.494 17.6333 121.374 17.5333 121.201 17.46C121.034 17.38 120.801 17.34 120.501 17.34C120.308 17.34 120.141 17.3567 120.001 17.39C119.861 17.4167 119.744 17.4633 119.651 17.53C119.558 17.59 119.488 17.6633 119.441 17.75C119.394 17.83 119.371 17.9233 119.371 18.03C119.371 18.2033 119.428 18.3367 119.541 18.43C119.654 18.5233 119.804 18.6 119.991 18.66C120.184 18.72 120.391 18.7867 120.611 18.86C120.844 18.9267 121.081 18.9967 121.321 19.07C121.568 19.1367 121.791 19.2233 121.991 19.33C122.198 19.4367 122.361 19.5833 122.481 19.77C122.608 19.95 122.671 20.19 122.671 20.49C122.671 20.77 122.618 21.0133 122.511 21.22C122.404 21.4267 122.251 21.5967 122.051 21.73C121.858 21.8633 121.628 21.96 121.361 22.02C121.101 22.0867 120.814 22.12 120.501 22.12Z" fill="white"/>
<path d="M14.6658 3.15958C15.7674 2.22199 16.3182 1.7532 16.8925 1.47778C17.5502 1.16325 18.27 1 18.999 1C19.7281 1 20.4479 1.16325 21.1056 1.47778C21.6818 1.75124 22.2326 2.22004 23.3322 3.15958C23.7717 3.53462 23.9905 3.72018 24.2248 3.87645C24.7616 4.2362 25.3644 4.48584 25.9984 4.6109C26.2738 4.66559 26.5609 4.68903 27.1351 4.73591C28.5785 4.8492 29.2993 4.9078 29.9009 5.12071C30.588 5.36321 31.2122 5.75643 31.7276 6.27153C32.243 6.78663 32.6366 7.41056 32.8795 8.09757C33.0924 8.70114 33.1491 9.42192 33.2643 10.8635C33.3092 11.4377 33.3327 11.7249 33.3873 12.0022C33.5124 12.6351 33.7624 13.2387 34.1218 13.7739C34.278 14.0083 34.4655 14.2271 34.8386 14.6666C35.7761 15.7682 36.2469 16.3191 36.5223 16.8934C36.8368 17.5511 37 18.2709 37 19C37 19.7291 36.8368 20.4489 36.5223 21.1067C36.2488 21.6809 35.7781 22.2318 34.8386 23.3334C34.5824 23.6167 34.343 23.9148 34.1218 24.2261C33.7623 24.7623 33.5126 25.3645 33.3873 25.9978C33.3327 26.2751 33.3092 26.5623 33.2643 27.1365C33.1491 28.5781 33.0924 29.3008 32.8795 29.9024C32.6366 30.5894 32.243 31.2134 31.7276 31.7285C31.2122 32.2436 30.588 32.6368 29.9009 32.8793C29.2993 33.0942 28.5785 33.1508 27.1351 33.2641C26.5609 33.311 26.2757 33.3344 25.9984 33.3891C25.3644 33.5142 24.7616 33.7638 24.2248 34.1236C23.9142 34.3449 23.6168 34.5843 23.3342 34.8404C22.2326 35.778 21.6818 36.2468 21.1075 36.5222C20.4498 36.8367 19.73 37 19.001 37C18.2719 37 17.5522 36.8367 16.8944 36.5222C16.3182 36.2488 15.7674 35.78 14.6678 34.8404C14.3845 34.5842 14.0865 34.3449 13.7752 34.1236C13.2384 33.7638 12.6356 33.5142 12.0016 33.3891C11.6255 33.3253 11.2459 33.2835 10.8649 33.2641C9.42146 33.1508 8.70072 33.0922 8.09914 32.8793C7.412 32.6368 6.78785 32.2436 6.27244 31.7285C5.75703 31.2134 5.36343 30.5894 5.12049 29.9024C4.90759 29.3008 4.85095 28.5781 4.73571 27.1365C4.717 26.7549 4.67591 26.3746 4.61265 25.9978C4.48736 25.3645 4.23774 24.7623 3.87825 24.2261C3.72199 23.9917 3.53448 23.7729 3.16142 23.3334C2.22388 22.2318 1.75315 21.6809 1.47775 21.1067C1.16324 20.4489 1 19.7291 1 19C1 18.2709 1.16324 17.5511 1.47775 16.8934C1.75315 16.3191 2.22192 15.7682 3.16142 14.6666C3.53448 14.2271 3.72199 14.0083 3.87825 13.7739C4.23774 13.2377 4.48736 12.6355 4.61265 12.0022C4.66734 11.7249 4.69078 11.4377 4.73571 10.8635C4.85095 9.42192 4.90759 8.70114 5.12049 8.09757C5.36363 7.41036 5.75753 6.7863 6.2733 6.27119C6.78906 5.75607 7.4136 5.36297 8.10109 5.12071C8.70268 4.9078 9.42341 4.8492 10.8668 4.73591C11.4411 4.68903 11.7262 4.66559 12.0036 4.6109C12.6375 4.48584 13.2404 4.2362 13.7771 3.87645C14.0115 3.72018 14.2283 3.53462 14.6658 3.15958Z" fill="#BF8FFD" stroke="#9D63E7"/>
<path d="M17.0451 26.6146C16.6479 27.4673 16.0839 28.4468 15.2807 28.8633C14.4876 29.2738 13.5678 28.7766 13.7078 26.9871C13.7418 26.556 13.8359 26.0506 14.0086 25.4662C14.8096 22.7502 17.2783 19.0987 18.9432 16.7883L19.1189 16.324C19.1367 16.3247 19.1515 16.3284 19.1691 16.3351C19.1691 16.3351 19.1659 16.3702 19.1599 16.4344C19.1996 16.3829 19.2203 16.3545 19.2203 16.3545C19.2363 16.3604 19.2497 16.3675 19.2654 16.3794L19.0897 16.8437C18.9676 18.0688 18.7925 19.5828 18.5368 21.1125C18.201 23.1207 17.725 25.1584 17.0451 26.6146Z" fill="#D811AD"/>
<path d="M18.4298 19.9301C18.2409 19.9301 18.0546 19.8957 17.8765 19.8284C17.0694 19.5233 16.6613 18.6184 16.9665 17.8114C17.1953 17.2063 17.7837 16.7999 18.4304 16.7999C18.6191 16.7999 18.8053 16.8341 18.9835 16.9014C19.7905 17.2065 20.1988 18.1116 19.8935 18.9186C19.6645 19.5235 19.0765 19.9301 18.4298 19.9301Z" fill="#FF8CDB"/>
<g opacity="0.25">
<path d="M17.0451 26.6146C16.6479 27.4673 16.0839 28.4468 15.2807 28.8633C14.4876 29.2738 13.5678 28.7766 13.7078 26.9871C13.942 26.896 14.158 26.7255 14.3486 26.5573C15.6226 25.4348 16.6937 24.0861 17.5016 22.5956C17.7681 22.099 18.0165 21.5755 18.4334 21.1984C18.467 21.1687 18.5004 21.139 18.5366 21.1123C18.201 23.1207 17.725 25.1584 17.0451 26.6146Z" fill="#0A1640"/>
</g>
<path d="M20.3475 18.3595C19.7359 18.3595 19.1331 18.2488 18.5562 18.0306C15.9435 17.0425 14.6215 14.1129 15.6098 11.5001C16.3507 9.54096 18.2553 8.22473 20.3492 8.22473C20.9608 8.22473 21.5632 8.33539 22.1403 8.55364C23.4061 9.03234 24.4095 9.97516 24.9661 11.2087C25.5225 12.4421 25.5654 13.8184 25.0867 15.0841C24.346 17.0432 22.4414 18.3595 20.3479 18.3595C20.3475 18.3595 20.3475 18.3595 20.3475 18.3595Z" fill="#6B7FFF"/>
<path d="M20.3471 17.1024C19.8874 17.1024 19.4342 17.0192 19.0008 16.8552C18.2647 16.5767 17.6427 16.0871 17.2022 15.4391C16.5027 14.4128 16.3472 13.1064 16.7864 11.9443C17.3433 10.4716 18.7748 9.48218 20.3482 9.48218C20.808 9.48218 21.2613 9.5656 21.6952 9.72958C22.4907 10.0303 23.1685 10.5938 23.6029 11.3158C24.2162 12.3242 24.329 13.5358 23.9116 14.6389C23.3547 16.1124 21.922 17.1024 20.3471 17.1024Z" fill="#00D4FC"/>
<path opacity="0.25" d="M23.7504 14.5782C23.0401 16.4566 20.9402 17.4042 19.0618 16.6938C18.3361 16.4194 17.7496 15.9372 17.345 15.3423C21.2632 16.0168 22.8304 13.4837 23.4551 11.4052C24.0162 12.3278 24.1624 13.4889 23.7504 14.5782Z" fill="#332FBA"/>
<path opacity="0.75" d="M18.962 12.2375C18.5905 12.5694 18.2975 13.005 18.3088 12.9891C18.1446 13.2192 17.7775 13.108 17.7735 12.8199C17.761 11.0639 20.007 9.75344 21.7415 10.9458C21.9621 11.0973 21.8624 11.4471 21.5916 11.4555C20.6691 11.4841 19.8787 11.4137 18.962 12.2375Z" fill="white"/>
<path d="M25.1233 11.1377C24.548 9.86236 23.5104 8.88617 22.2024 8.39136C17.821 6.74833 13.6652 11.2296 15.5743 15.4472C15.9118 16.1951 16.4085 16.8395 17.0261 17.3439C16.6013 17.9225 16.5783 18.7179 16.9839 19.3289C15.6506 21.368 13.7257 24.542 13.5356 26.9735C13.3519 29.3181 15.0292 30.0056 16.4814 27.9689C17.8701 26.0086 18.5401 22.4111 18.8768 20.0424C19.5933 19.851 20.0979 19.2273 20.1599 18.5273C24.0491 18.649 26.7167 14.6697 25.1233 11.1377ZM15.2022 28.7092C14.9049 28.8645 14.6019 28.8626 14.3679 28.7092C13.5692 28.1795 13.8979 26.4467 14.1742 25.5159C14.6173 24.0085 15.6376 22.0293 17.216 19.607C17.5945 19.9812 18.149 20.1444 18.5201 20.098C18.1793 22.4048 17.2722 27.6369 15.2022 28.7092ZM17.4077 19.3097C16.9663 18.8381 16.9058 18.0888 17.3023 17.553C17.9938 18.0614 18.9248 18.4175 19.8147 18.5023C19.6988 19.6991 18.2167 20.1843 17.4077 19.3097ZM24.9258 15.0233C24.028 17.3976 21.4947 18.6419 19.1377 18.0324C16.3299 17.3184 14.7323 14.3076 15.7718 11.5616C16.7375 9.00718 19.5832 7.76575 22.0797 8.71548C24.6074 9.67057 25.8809 12.4956 24.9258 15.0233Z" fill="#0A1640"/>
<path d="M16.6253 11.8837C15.6663 14.4132 17.4845 17.2748 20.3478 17.2748C23.4154 17.2748 25.3751 13.9017 23.7501 11.2259C22.0635 8.42948 17.8032 8.76184 16.6253 11.8837ZM20.3478 16.9296C17.7225 16.9296 16.0754 14.3152 16.9475 12.0065C18.0333 9.13468 21.9306 8.86387 23.4548 11.4043C24.9311 13.8281 23.1746 16.9296 20.3478 16.9296Z" fill="#0A1640"/>
</svg>
