<svg width="38" height="38" viewBox="0 0 38 38" fill="none" xmlns="http://www.w3.org/2000/svg">
<path d="M14.6658 3.15958C15.7674 2.22199 16.3182 1.7532 16.8925 1.47778C17.5502 1.16325 18.27 1 18.999 1C19.7281 1 20.4479 1.16325 21.1056 1.47778C21.6818 1.75124 22.2326 2.22004 23.3322 3.15958C23.7717 3.53462 23.9905 3.72018 24.2248 3.87645C24.7616 4.2362 25.3644 4.48584 25.9984 4.6109C26.2738 4.66559 26.5609 4.68903 27.1351 4.73591C28.5785 4.8492 29.2993 4.9078 29.9009 5.12071C30.588 5.36321 31.2122 5.75643 31.7276 6.27153C32.243 6.78663 32.6366 7.41056 32.8795 8.09757C33.0924 8.70114 33.1491 9.42192 33.2643 10.8635C33.3092 11.4377 33.3327 11.7249 33.3873 12.0022C33.5124 12.6351 33.7624 13.2387 34.1218 13.7739C34.278 14.0083 34.4655 14.2271 34.8386 14.6666C35.7761 15.7682 36.2469 16.3191 36.5223 16.8934C36.8368 17.5511 37 18.2709 37 19C37 19.7291 36.8368 20.4489 36.5223 21.1067C36.2488 21.6809 35.7781 22.2318 34.8386 23.3334C34.5824 23.6167 34.343 23.9148 34.1218 24.2261C33.7623 24.7623 33.5126 25.3645 33.3873 25.9978C33.3327 26.2751 33.3092 26.5623 33.2643 27.1365C33.1491 28.5781 33.0924 29.3008 32.8795 29.9024C32.6366 30.5894 32.243 31.2134 31.7276 31.7285C31.2122 32.2436 30.588 32.6368 29.9009 32.8793C29.2993 33.0942 28.5785 33.1508 27.1351 33.2641C26.5609 33.311 26.2757 33.3344 25.9984 33.3891C25.3644 33.5142 24.7616 33.7638 24.2248 34.1236C23.9142 34.3449 23.6168 34.5843 23.3342 34.8404C22.2326 35.778 21.6818 36.2468 21.1075 36.5222C20.4498 36.8367 19.73 37 19.001 37C18.2719 37 17.5522 36.8367 16.8944 36.5222C16.3182 36.2488 15.7674 35.78 14.6678 34.8404C14.3845 34.5842 14.0865 34.3449 13.7752 34.1236C13.2384 33.7638 12.6356 33.5142 12.0016 33.3891C11.6255 33.3253 11.2459 33.2835 10.8649 33.2641C9.42146 33.1508 8.70072 33.0922 8.09914 32.8793C7.412 32.6368 6.78785 32.2436 6.27244 31.7285C5.75703 31.2134 5.36343 30.5894 5.12049 29.9024C4.90759 29.3008 4.85095 28.5781 4.73571 27.1365C4.717 26.7549 4.67591 26.3746 4.61265 25.9978C4.48736 25.3645 4.23774 24.7623 3.87825 24.2261C3.72199 23.9917 3.53448 23.7729 3.16142 23.3334C2.22388 22.2318 1.75315 21.6809 1.47775 21.1067C1.16324 20.4489 1 19.7291 1 19C1 18.2709 1.16324 17.5511 1.47775 16.8934C1.75315 16.3191 2.22192 15.7682 3.16142 14.6666C3.53448 14.2271 3.72199 14.0083 3.87825 13.7739C4.23774 13.2377 4.48736 12.6355 4.61265 12.0022C4.66734 11.7249 4.69078 11.4377 4.73571 10.8635C4.85095 9.42192 4.90759 8.70114 5.12049 8.09757C5.36363 7.41036 5.75753 6.7863 6.2733 6.27119C6.78906 5.75607 7.4136 5.36297 8.10109 5.12071C8.70268 4.9078 9.42341 4.8492 10.8668 4.73591C11.4411 4.68903 11.7262 4.66559 12.0036 4.6109C12.6375 4.48584 13.2404 4.2362 13.7771 3.87645C14.0115 3.72018 14.2283 3.53462 14.6658 3.15958Z" fill="#FF8BD2" stroke="#DE53A8"/>
<path d="M12.6279 28.2417C12.4013 28.2417 12.2154 28.0705 12.1955 27.8435C12.144 27.2822 12.0173 25.723 11.9531 23.3968C11.9477 23.3889 11.9443 23.3814 11.94 23.3726C11.8466 23.3152 11.7571 23.2575 11.6707 23.1978C9.54617 21.7438 8.56838 18.9086 9.23818 16.1432C9.95818 13.1712 12.4029 11.1437 15.7777 10.7201C16.4409 10.6369 17.1401 10.5948 17.856 10.5948C22.1102 10.5948 25.7349 11.9544 27.5523 14.2317C27.9196 14.6849 28.2214 15.1907 28.4485 15.7341C29.2062 17.5549 29.1359 19.6448 28.256 21.4684C27.3737 23.2973 25.7765 24.6568 23.8741 25.1984C23.122 25.4132 22.0304 25.5315 20.8007 25.5315C19.3897 25.5315 17.9105 25.3809 16.523 25.0957C16.5225 25.0962 16.5011 25.0996 16.5006 25.0998C15.126 26.2893 13.5286 27.6225 12.9056 28.1406C12.8251 28.2071 12.7292 28.2417 12.6279 28.2417Z" fill="#00D4FC"/>
<g opacity="0.25">
<path d="M23.8186 25.0028C22.3293 25.4277 19.4027 25.4794 16.5643 24.8963C16.4949 24.8816 16.4219 24.8981 16.3678 24.946C15.0056 26.1248 13.4462 27.4269 12.7759 27.9843C12.6308 28.1035 12.415 28.0139 12.3985 27.826C12.3343 27.1257 12.2176 25.5961 12.1566 23.3916C12.1557 23.3547 12.145 23.3167 12.1238 23.2851C12.1292 23.2808 12.1369 23.2767 12.1423 23.2724C13.3153 22.5094 14.7869 22.3595 16.1817 22.4464C17.5792 22.5309 18.9584 22.8317 20.3552 22.8771C21.7543 22.9253 23.2277 22.6897 24.3301 21.8308C25.3868 21.0086 25.9741 19.7219 26.3361 18.4327C26.7004 17.1463 26.8791 15.808 27.3243 14.5449C27.3456 14.4836 27.3693 14.4223 27.3933 14.3588C27.7479 14.7966 28.0387 15.2814 28.2607 15.8126C29.8077 19.5302 27.6816 23.9029 23.8186 25.0028Z" fill="#332FBA"/>
</g>
<path opacity="0.75" d="M10.3641 17.4843C10.9663 13.6023 15.5353 10.9204 20.2252 12.6641C20.4175 12.7356 20.5154 12.9493 20.4439 13.1413C20.3469 13.4022 20.0543 13.39 20.0794 13.3828C18.2115 13.3111 16.4674 13.3457 14.7673 14.0815C12.0624 15.2678 10.9052 17.8945 11.0099 17.7041C10.9177 17.8717 10.7072 17.933 10.5396 17.8407C10.4084 17.7688 10.3426 17.6239 10.3641 17.4843Z" fill="white"/>
<path d="M17.8564 10.7984C21.3133 10.7984 25.3481 11.7956 27.3933 14.3586C27.7478 14.7964 28.0387 15.2812 28.2607 15.8124C29.8077 19.5302 27.6818 23.9029 23.8186 25.0028C23.0943 25.2095 22.0299 25.328 20.8013 25.328C19.5036 25.328 18.0224 25.1959 16.5643 24.8963C16.548 24.8929 16.5315 24.8911 16.515 24.8911C16.4616 24.8911 16.4092 24.9094 16.3678 24.9461C15.0056 26.1249 13.4462 27.4269 12.7759 27.9844C12.7307 28.0214 12.6787 28.0384 12.628 28.0384C12.5157 28.0384 12.4098 27.9556 12.3985 27.8261C12.3343 27.1257 12.2176 25.5962 12.1566 23.3916C12.1557 23.3548 12.145 23.3168 12.1238 23.2851C12.1077 23.2514 12.0792 23.2214 12.0471 23.2008C11.9578 23.1447 11.8705 23.0886 11.7862 23.0305C7.59865 20.1647 8.32816 11.8603 15.8031 10.9221C16.4476 10.8414 17.1396 10.7984 17.8564 10.7984ZM17.8566 10.3914C17.1319 10.3914 16.4239 10.4341 15.7525 10.5182C12.2902 10.9528 9.78105 13.0375 9.04047 16.0953C8.35077 18.9425 9.3618 21.8646 11.5564 23.3663C11.6199 23.41 11.6853 23.4529 11.7522 23.4957C11.8176 25.7771 11.942 27.3064 11.9931 27.8629C12.022 28.1942 12.2949 28.4452 12.6278 28.4452C12.7748 28.4452 12.9188 28.3932 13.0339 28.2989C13.6483 27.7881 15.2037 26.4901 16.5668 25.3122C17.9451 25.5892 19.4061 25.735 20.8013 25.735C22.0491 25.735 23.1603 25.6141 23.9303 25.3943C25.8884 24.8368 27.5319 23.4382 28.4396 21.557C29.3448 19.681 29.4165 17.5303 28.6365 15.6561C28.4018 15.0947 28.09 14.5723 27.7096 14.1026C25.856 11.7796 22.1719 10.3914 17.8566 10.3914Z" fill="#0A1640"/>
<path d="M12.8739 17.9297C12.7965 18.6459 13.3144 19.289 14.0305 19.3663C14.7467 19.4436 15.3898 18.9258 15.4671 18.2096C15.5445 17.4935 15.0266 16.8504 14.3105 16.773C13.5941 16.6957 12.951 17.2135 12.8739 17.9297Z" fill="#0A1640"/>
<path d="M17.6529 18.4452C17.5756 19.1614 18.0934 19.8045 18.8096 19.8818C19.5257 19.9591 20.1688 19.4413 20.2462 18.7251C20.3235 18.009 19.8057 17.3659 19.0895 17.2885C18.3734 17.2112 17.7302 17.7293 17.6529 18.4452Z" fill="#0A1640"/>
<path d="M22.4317 18.9611C22.3544 19.6772 22.8722 20.3203 23.5884 20.3977C24.3045 20.475 24.9477 19.9572 25.025 19.241C25.1023 18.5249 24.5845 17.8817 23.8683 17.8044C23.1522 17.7271 22.5091 18.2449 22.4317 18.9611Z" fill="#0A1640"/>
</svg>
