<svg width="48" height="48" viewBox="0 0 48 48" fill="none" xmlns="http://www.w3.org/2000/svg">
<path d="M18.4619 3.75947C19.8695 2.56143 20.5733 1.96242 21.3071 1.61049C22.1475 1.2086 23.0672 1 23.9988 1C24.9303 1 25.85 1.2086 26.6904 1.61049C27.4267 1.95992 28.1305 2.55894 29.5356 3.75947C30.0972 4.23868 30.3767 4.47579 30.6762 4.67546C31.362 5.13515 32.1323 5.45413 32.9423 5.61392C33.2942 5.68381 33.6611 5.71376 34.3949 5.77366C36.2393 5.91842 37.1602 5.9933 37.9289 6.26536C38.8069 6.57522 39.6044 7.07766 40.263 7.73584C40.9216 8.39403 41.4245 9.19127 41.7349 10.0691C42.007 10.8403 42.0793 11.7613 42.2266 13.6033C42.284 14.3371 42.3139 14.704 42.3838 15.0584C42.5436 15.8671 42.863 16.6383 43.3222 17.3222C43.5219 17.6217 43.7615 17.9013 44.2382 18.4628C45.4362 19.8705 46.0376 20.5744 46.3895 21.3082C46.7914 22.1486 47 23.0684 47 24C47 24.9316 46.7914 25.8514 46.3895 26.6918C46.0401 27.4256 45.4387 28.1295 44.2382 29.5372C43.9108 29.8991 43.605 30.28 43.3222 30.6778C42.8629 31.3629 42.5439 32.1324 42.3838 32.9416C42.3139 33.296 42.284 33.6629 42.2266 34.3967C42.0793 36.2387 42.007 37.1622 41.7349 37.9309C41.4245 38.8087 40.9216 39.606 40.263 40.2642C39.6044 40.9223 38.8069 41.4248 37.9289 41.7347C37.1602 42.0092 36.2393 42.0816 34.3949 42.2263C33.6611 42.2862 33.2967 42.3162 32.9423 42.3861C32.1323 42.5459 31.362 42.8649 30.6762 43.3245C30.2793 43.6074 29.8993 43.9132 29.5381 44.2405C28.1305 45.4386 27.4267 46.0376 26.6929 46.3895C25.8525 46.7914 24.9328 47 24.0012 47C23.0697 47 22.15 46.7914 21.3096 46.3895C20.5733 46.0401 19.8695 45.4411 18.4644 44.2405C18.1024 43.9132 17.7216 43.6073 17.3238 43.3245C16.638 42.8649 15.8677 42.5459 15.0577 42.3861C14.577 42.3045 14.092 42.2512 13.6051 42.2263C11.7608 42.0816 10.8398 42.0067 10.0711 41.7347C9.19312 41.4248 8.39559 40.9223 7.73701 40.2642C7.07843 39.606 6.57549 38.8087 6.26507 37.9309C5.99303 37.1622 5.92065 36.2387 5.7734 34.3967C5.7495 33.909 5.697 33.4231 5.61617 32.9416C5.45607 32.1324 5.13712 31.3629 4.67776 30.6778C4.4781 30.3783 4.23851 30.0987 3.76181 29.5372C2.56384 28.1295 1.96236 27.4256 1.61046 26.6918C1.20859 25.8514 1 24.9316 1 24C1 23.0684 1.20859 22.1486 1.61046 21.3082C1.96236 20.5744 2.56135 19.8705 3.76181 18.4628C4.23851 17.9013 4.4781 17.6217 4.67776 17.3222C5.13712 16.6371 5.45607 15.8676 5.61617 15.0584C5.68605 14.704 5.716 14.3371 5.7734 13.6033C5.92065 11.7613 5.99303 10.8403 6.26507 10.0691C6.57575 9.19101 7.07907 8.39361 7.7381 7.7354C8.39713 7.0772 9.19515 6.5749 10.0736 6.26536C10.8423 5.9933 11.7632 5.91842 13.6076 5.77366C14.3414 5.71376 14.7058 5.68381 15.0602 5.61392C15.8702 5.45413 16.6405 5.13515 17.3263 4.67546C17.6258 4.47579 17.9028 4.23868 18.4619 3.75947Z" fill="#DE53A8" stroke="white"/>
<path d="M15.8581 35.8087C15.5686 35.8087 15.3311 35.59 15.3057 35.2999C15.2398 34.5827 15.078 32.5905 14.9959 29.6181C14.989 29.608 14.9847 29.5984 14.9792 29.5872C14.8598 29.5138 14.7454 29.4401 14.635 29.3638C11.9204 27.5059 10.671 23.8831 11.5268 20.3496C12.4468 16.552 15.5706 13.9613 19.8829 13.4201C20.7303 13.3137 21.6238 13.26 22.5386 13.26C27.9745 13.26 32.606 14.9972 34.9282 17.9071C35.3975 18.4862 35.7832 19.1325 36.0733 19.8269C37.0416 22.1535 36.9517 24.8239 35.8274 27.1539C34.7 29.4909 32.6592 31.2281 30.2283 31.9201C29.2672 32.1946 27.8725 32.3457 26.3012 32.3457C24.4982 32.3457 22.6082 32.1533 20.8352 31.7889C20.8346 31.7895 20.8072 31.7938 20.8066 31.7941C19.0501 33.314 17.009 35.0176 16.213 35.6796C16.1101 35.7645 15.9876 35.8087 15.8581 35.8087Z" fill="#00D4FC"/>
<g opacity="0.25">
<path d="M30.1573 31.6702C28.2543 32.2132 24.5147 32.2793 20.8879 31.5341C20.7992 31.5154 20.7058 31.5365 20.6368 31.5977C18.8962 33.104 16.9036 34.7677 16.0472 35.48C15.8617 35.6323 15.586 35.5178 15.5649 35.2777C15.4829 34.3829 15.3338 32.4284 15.2558 29.6115C15.2546 29.5644 15.241 29.5159 15.2139 29.4754C15.2208 29.4699 15.2306 29.4647 15.2376 29.4592C16.7363 28.4843 18.6168 28.2928 20.399 28.4037C22.1847 28.5118 23.947 28.8961 25.7318 28.9542C27.5195 29.0157 29.4022 28.7146 30.8109 27.6172C32.1611 26.5666 32.9115 24.9225 33.3741 23.2752C33.8396 21.6314 34.0678 19.9214 34.6368 18.3074C34.6639 18.2291 34.6943 18.1508 34.7249 18.0696C35.178 18.629 35.5496 19.2485 35.8333 19.9272C37.81 24.6775 35.0933 30.2648 30.1573 31.6702Z" fill="#332FBA"/>
</g>
<path opacity="0.75" d="M12.9656 22.0635C13.735 17.1032 19.5732 13.6763 25.5659 15.9043C25.8115 15.9956 25.9366 16.2687 25.8453 16.514C25.7214 16.8474 25.3475 16.8318 25.3795 16.8226C22.9928 16.731 20.7642 16.7752 18.5919 17.7154C15.1355 19.2313 13.657 22.5876 13.7908 22.3443C13.6729 22.5585 13.4039 22.6368 13.1898 22.5189C13.0222 22.427 12.9381 22.2418 12.9656 22.0635Z" fill="white"/>
<path d="M22.5386 13.5201C26.9558 13.5201 32.1114 14.7943 34.7246 18.0693C35.1777 18.6286 35.5493 19.2482 35.833 19.9269C37.8097 24.6774 35.0933 30.2648 30.157 31.6702C29.2315 31.9343 27.8714 32.0857 26.3016 32.0857C24.6433 32.0857 22.7507 31.917 20.8876 31.5341C20.8668 31.5298 20.8457 31.5275 20.8246 31.5275C20.7564 31.5275 20.6894 31.5509 20.6365 31.5977C18.8959 33.104 16.9033 34.7677 16.0469 35.4799C15.9891 35.5273 15.9227 35.549 15.8579 35.549C15.7143 35.549 15.5791 35.4432 15.5647 35.2777C15.4826 34.3828 15.3335 32.4284 15.2555 29.6115C15.2543 29.5644 15.2408 29.5158 15.2136 29.4754C15.1931 29.4323 15.1567 29.3939 15.1156 29.3676C15.0015 29.2959 14.89 29.2243 14.7822 29.15C9.43151 25.4882 10.3636 14.877 19.915 13.6782C20.7385 13.575 21.6227 13.5201 22.5386 13.5201ZM22.5389 13C21.6129 13 20.7082 13.0546 19.8503 13.1621C15.4263 13.7174 12.2201 16.3812 11.2738 20.2884C10.3925 23.9265 11.6844 27.6602 14.4886 29.5791C14.5698 29.6349 14.6533 29.6898 14.7389 29.7444C14.8224 32.6596 14.9813 34.6137 15.0466 35.3248C15.0836 35.7481 15.4323 36.0688 15.8577 36.0688C16.0455 36.0688 16.2295 36.0024 16.3766 35.8819C17.1617 35.2291 19.149 33.5706 20.8908 32.0655C22.6519 32.4194 24.5188 32.6058 26.3016 32.6058C27.896 32.6058 29.3159 32.4512 30.2997 32.1704C32.8017 31.4581 34.9018 29.671 36.0616 27.2673C37.2182 24.8702 37.3098 22.122 36.3133 19.7272C36.0133 19.0098 35.6149 18.3423 35.1289 17.7422C32.7604 14.7738 28.0529 13 22.5389 13Z" fill="#0A1640"/>
<path d="M16.1724 22.6323C16.0736 23.5474 16.7352 24.3691 17.6503 24.4679C18.5654 24.5668 19.3872 23.9051 19.486 22.99C19.5848 22.0749 18.9231 21.2531 18.008 21.1543C17.0927 21.0555 16.2709 21.7172 16.1724 22.6323Z" fill="#0A1640"/>
<path d="M22.2788 23.2912C22.18 24.2063 22.8417 25.028 23.7568 25.1269C24.6719 25.2257 25.4936 24.564 25.5924 23.6489C25.6913 22.7338 25.0296 21.9121 24.1145 21.8132C23.1994 21.7144 22.3776 22.3764 22.2788 23.2912Z" fill="#0A1640"/>
<path d="M28.3848 23.9501C28.286 24.8652 28.9476 25.687 29.8627 25.7858C30.7778 25.8846 31.5996 25.2229 31.6984 24.3078C31.7972 23.3928 31.1355 22.571 30.2204 22.4722C29.3054 22.3734 28.4836 23.035 28.3848 23.9501Z" fill="#0A1640"/>
</svg>
