<svg width="51" height="71" viewBox="0 0 51 71" fill="none" xmlns="http://www.w3.org/2000/svg">
<path d="M49.2002 60.3747C42.6249 62.6601 36.6608 63.5225 31.4313 63.5225C24.7761 63.5225 19.3029 62.1436 15.2398 60.5818C8.6733 58.0574 4.51677 54.6198 3.24408 53.4744L0.828018 59.8798C2.23 61.0056 10.8477 67.5112 24.7288 69.4006C38.5909 71.2859 48.551 66.7313 50.2 65.9115L49.2002 60.3747Z" fill="#903D1D"/>
<path d="M36.717 19.2804C37.4468 19.2804 38.1881 19.2527 38.9388 19.1965C35.4498 40.7712 46.7658 56.9153 48.8732 59.6963C22.7967 68.7262 6.20986 55.1275 3.6909 52.8576C19.4322 41.8862 22.396 22.6091 22.949 16.2863C26.5572 17.8466 31.3345 19.2804 36.717 19.2804ZM24.1967 2.25153L23.9652 8.04901C23.9577 8.23923 24.0931 8.40577 24.2813 8.4369L29.3361 9.27769C29.5352 9.31153 29.7254 9.18089 29.7681 8.98254L30.9751 3.28998L37.0826 3.99944L36.4524 10.0223C36.43 10.2281 36.5776 10.4116 36.782 10.4366L41.776 11.0452C41.9729 11.075 42.1585 10.9342 42.1937 10.7372L43.2917 4.6676L48.0933 4.8788L45.8743 17.0235C31.1937 21.9924 18.3227 13.1411 16.6526 11.9232L18.7329 0.84481L24.1967 2.25153ZM24.7288 69.4005C10.8477 67.5111 2.23001 61.0055 0.828031 59.8797L3.2441 53.4744C4.51678 54.6198 8.67331 58.0574 15.2398 60.5818C19.3029 62.1435 24.7762 63.5225 31.4313 63.5225C36.6609 63.5225 42.6249 62.66 49.2002 60.3746L50.2001 65.9115C48.551 66.7313 38.5909 71.2858 24.7288 69.4005ZM49.8677 59.8114C49.867 59.8094 49.8649 59.808 49.8643 59.806C49.8528 59.745 49.827 59.6868 49.7864 59.6367C49.6416 59.4627 35.8438 42.5063 39.7173 19.1241C41.8599 18.9068 44.0742 18.4491 46.3305 17.6666C46.4592 17.6212 46.554 17.5116 46.5783 17.3768L48.9145 4.5884C48.9348 4.48009 48.9064 4.37041 48.8387 4.28443C48.7703 4.19913 48.6688 4.14702 48.5598 4.14228L42.9952 3.89789C42.8212 3.89586 42.6404 4.02178 42.6066 4.20862L41.5126 10.2512L37.2424 9.73126L37.874 3.70632C37.8956 3.50053 37.7467 3.3157 37.5416 3.29134L30.7205 2.4993C30.5283 2.48102 30.3475 2.60558 30.3069 2.79648L29.1033 8.47279L24.7342 7.74574L24.9643 1.97601C24.9718 1.79797 24.854 1.63955 24.6807 1.59487L18.5298 0.012146C18.429 -0.0142517 18.3207 0.00266266 18.2327 0.0588531C18.1447 0.115044 18.0837 0.20507 18.0641 0.308647L15.866 12.0153C15.8396 12.1534 15.8931 12.2956 16.0041 12.3829C16.061 12.4269 18.3951 14.2168 22.2193 15.962C21.7325 21.928 18.9225 41.6012 2.87651 52.5002C2.86839 52.5063 2.86432 52.5151 2.85688 52.5212C2.82777 52.5442 2.80204 52.5713 2.78038 52.6024C2.7709 52.616 2.76346 52.6295 2.75533 52.6451C2.74924 52.6573 2.73976 52.6667 2.73502 52.6796L0.0244798 59.8669C-0.0317079 60.0151 0.010937 60.183 0.130759 60.2859C0.220117 60.3638 9.2555 68.0574 24.6272 70.1492C27.0006 70.4728 29.2624 70.6089 31.3907 70.6089C43.0561 70.6089 50.7139 66.5018 50.8032 66.4523C50.9461 66.3738 51.0226 66.2141 50.9941 66.0536L49.8677 59.8114Z" fill="#040606"/>
<path d="M3.69043 52.8576C6.2094 55.1274 22.7963 68.7262 48.8727 59.6963C46.7654 56.9153 35.4493 40.7712 38.9384 19.1965C38.1876 19.2527 37.4463 19.2804 36.7166 19.2804C31.3341 19.2804 26.5568 17.8466 22.9486 16.2862C22.3955 22.609 19.4318 41.8861 3.69043 52.8576Z" fill="#D35E4E"/>
<path d="M45.874 17.0235L48.0931 4.87882L43.2914 4.66762L42.1934 10.7372C42.1582 10.9342 41.9727 11.075 41.7757 11.0452L36.7817 10.4367C36.5773 10.4116 36.4297 10.2282 36.4521 10.0224L37.0823 3.99945L30.9748 3.29L29.7678 8.98256C29.7251 9.18091 29.5349 9.31155 29.3358 9.2777L24.281 8.43692C24.0928 8.40578 23.9574 8.23925 23.9649 8.04903L24.1964 2.25155L18.7326 0.844828L16.6523 11.9233C18.3224 13.1411 31.1934 21.9924 45.874 17.0235Z" fill="#D35E4E"/>
<path d="M3.69043 52.8577C5.17568 54.1961 11.554 59.4689 21.8803 61.7239C20.9136 56.1092 20.5765 50.4593 21.6197 44.8757C23.3121 35.8146 28.5606 27.3431 28.6337 18.2272C26.5304 17.6897 24.6112 17.0053 22.9486 16.2863C22.3955 22.6091 19.4318 41.8862 3.69043 52.8577Z" fill="#BE4731"/>
<path d="M27.3537 8.94798L24.281 8.43687C24.0928 8.40573 23.9574 8.2392 23.9649 8.04897L24.1964 2.2515L18.7326 0.844774L16.6523 11.9232C17.594 12.6096 22.0964 15.7223 28.4761 17.4167C27.7843 14.6473 27.4065 11.8014 27.3537 8.94798Z" fill="#BE4731"/>
<path d="M22.199 62.6012C19.5608 62.0644 17.2287 61.3461 15.2398 60.5818C8.6733 58.0574 4.51677 54.6198 3.24408 53.4744L0.828018 59.8798C2.1359 60.9305 9.73072 66.665 22.0209 68.9619C22.0805 66.8417 22.1394 64.7214 22.199 62.6012Z" fill="#782219"/>
<path d="M38.9394 19.1964C38.4107 19.2357 37.8881 19.2567 37.3688 19.2682C36.8428 24.1443 36.4096 29.0455 36.7142 33.9366C37.0486 39.2886 38.3085 44.6731 41.1084 49.2467C42.3966 51.3513 43.9902 53.2529 45.6453 55.0827C45.8396 55.2973 46.0373 55.5106 46.235 55.7231C42.3282 49.1641 36.2559 35.7907 38.9394 19.1964Z" fill="white"/>
<path d="M35.7392 5.92481C35.7907 6.87865 35.8475 7.8555 36.2273 8.73148C36.3099 8.92103 36.4135 9.10312 36.5306 9.2771L37.083 3.99953L35.6262 3.83029C35.6641 4.52823 35.7013 5.22687 35.7392 5.92481Z" fill="white"/>
<path d="M48.0936 4.87892L46.4763 4.80785C45.8305 8.92106 45.4121 13.0695 45.2158 17.228C45.4352 17.1597 45.6538 17.098 45.8745 17.0236L48.0936 4.87892Z" fill="white"/>
</svg>
