<svg width="40" height="40" viewBox="0 0 40 40" fill="none" xmlns="http://www.w3.org/2000/svg">
<rect width="40" height="40" rx="8" fill="#F0FBFF"/>
<path d="M4.03277 23.6117C4.27331 26.9161 6.17432 30.1366 9.00741 32.2137C11.4684 34.2523 14.0923 36.086 17.5189 35.9969C27.1908 36.0157 39.7108 21.9664 34.96 12.0269C33.9347 10.2366 32.3797 8.90983 30.8851 7.62075C20.1146 -2.91752 3.15496 11.7394 4.03277 23.6117Z" fill="white"/>
<path d="M5.05064 23.5361C5.274 26.4006 6.7874 29.0713 9.0032 30.9263C10.5263 32.1236 12.0278 33.4117 13.7938 34.2584C19.6705 36.7035 25.8956 32.6701 29.688 28.4365C33.3105 24.3076 36.7786 17.8202 34.0447 12.4719C33.0976 10.847 31.6217 9.58666 30.2012 8.36218C27.3762 5.88226 24.5459 4.60451 20.6717 5.05776C12.5453 6.38937 4.49496 15.3591 5.05064 23.5361Z" fill="#68182B"/>
<path d="M19.2883 10.1856C19.3321 9.92162 19.8969 9.78036 19.9648 10.0825C19.9383 10.8735 19.9767 11.6679 19.9468 12.4593C19.934 12.628 19.7814 12.7816 19.6 12.7631C19.3383 12.7364 19.3766 12.3555 19.3615 12.1764C19.3204 11.5163 19.2527 10.8422 19.2883 10.1856Z" fill="#FBF199"/>
<path d="M16.4517 11.7771C16.6005 11.7285 16.6797 11.7715 16.7377 11.9028C16.8741 12.2114 17.0338 12.5112 17.1851 12.813C17.3707 13.1835 17.5655 13.5517 17.7336 13.9302C17.8024 14.1099 17.7141 14.3635 17.4885 14.3787C17.3648 14.387 17.2915 14.2919 17.2332 14.2002C16.9797 13.7981 16.7402 13.3876 16.5137 12.9705C16.3398 12.5731 15.7939 12.0266 16.4517 11.7771Z" fill="#FBF199"/>
<path d="M22.343 25.712C22.183 25.7395 22.1165 25.6587 22.0449 25.5372C21.6168 24.8193 21.1272 24.1369 20.7057 23.4152C20.5961 23.2082 20.7339 22.8992 21.0064 22.9519C21.1596 22.9815 21.2484 23.1292 21.3345 23.2412C21.6563 23.6584 21.9654 24.085 22.2609 24.5205C22.4071 24.7914 22.6886 25.0269 22.7288 25.3366C22.7174 25.526 22.5247 25.6806 22.343 25.712Z" fill="#FBF199"/>
<path d="M17.5585 21.9013C17.1689 22.4056 16.757 22.9432 16.2229 23.3125C16.0975 23.3963 15.9147 23.5162 15.7827 23.5031C15.782 23.5011 15.7768 23.5013 15.7736 23.5029C15.7737 23.503 15.7737 23.5029 15.7737 23.503H15.7736C15.7652 23.4984 15.7603 23.491 15.7566 23.4828C15.7606 23.4892 15.7589 23.4573 15.7565 23.4827C15.7489 23.4659 15.7475 23.4445 15.7412 23.4275C15.743 22.9595 16.0001 22.5343 16.2165 22.1304C16.678 21.3521 17.1968 20.6067 17.7053 19.8572C17.9745 20.0514 18.2391 20.2654 18.5578 20.3754C18.2719 20.9158 17.9344 21.4148 17.5585 21.9013Z" fill="#D5D5D5"/>
<path d="M20.6474 19.0197C20.2782 19.9185 19.1571 20.5052 18.293 19.8434C17.9019 19.5728 17.9659 19.6494 18.3836 19.6012C19.3404 19.4002 20.2065 18.3182 19.8821 17.3594C20.4411 17.7337 20.9542 18.3317 20.6474 19.0197Z" fill="#DB9F6E"/>
<path d="M24.3969 11.8265C24.6179 11.7596 24.8411 11.7227 25.0726 11.6923C25.2748 11.6657 25.491 11.6299 25.654 11.5002C26.062 11.1759 25.7606 10.6454 25.4102 10.4199C25.1828 10.241 24.4504 10.1506 24.5789 9.76668C24.8214 9.53248 25.234 9.77405 25.4912 9.86846C26.0795 10.1267 26.8594 10.6701 26.4677 11.3877C26.2054 11.8682 25.644 12.0532 25.1252 12.1286C24.638 12.1357 24.2535 12.599 24.7947 12.8902C25.1162 13.0879 25.8844 13.1651 25.9145 13.604C25.8266 14.0425 24.0966 13.133 23.8428 12.9779C24.0738 12.613 24.3374 12.2398 24.3969 11.8265Z" fill="#FF5671"/>
<path d="M24.0446 11.5717C24.1001 12.081 23.6877 12.557 23.4264 12.9664C23.0939 13.4874 22.7614 14.0083 22.4288 14.5292C21.8053 15.506 21.1818 16.4829 20.5583 17.4597C20.2687 17.1992 19.9445 16.9752 19.6299 16.744C20.5703 15.2265 21.6575 13.7962 22.8773 12.4814C23.1938 12.1393 23.5468 11.6412 24.0446 11.5717Z" fill="#D5D5D5"/>
<path d="M23.5516 9.37947C23.6567 9.25104 23.8844 9.24362 23.9554 9.41601C24.0051 9.71578 23.8211 10.0231 23.7503 10.3119C23.5207 10.9112 22.9859 12.2182 22.3241 12.3907C21.6534 12.234 22.3934 11.2635 22.5631 10.9278C22.8747 10.4013 23.2098 9.8872 23.5516 9.37947Z" fill="#FF5671"/>
<path d="M22.2162 6.48559C18.491 6.36816 15.1415 8.50236 12.4675 10.8441C9.47517 13.5847 7.08935 17.191 6.51135 21.211C5.66905 26.4304 9.63889 31.4988 15.0947 31.8111C19.4372 32.1608 23.0614 29.1819 25.813 26.2354C28.4267 23.323 30.6579 19.7622 30.9103 15.8138C31.1486 10.8773 27.3951 6.51535 22.2162 6.48559ZM28.2521 20.8143C26.1203 24.6908 22.8728 28.347 18.6629 30.1046C15.8716 31.1434 12.561 30.6368 10.2709 28.7755C2.81499 22.2195 10.4967 11.194 17.8631 8.08709C23.0865 5.74304 28.9496 8.47688 29.7105 14.1821C30.0147 16.4716 29.3007 18.7864 28.2521 20.8143Z" fill="#B1D045"/>
<path d="M8.74072 17.5251C10.8009 13.1765 14.6565 9.43071 19.362 7.91819C21.0437 7.46653 22.8885 7.49797 24.5336 8.07964C22.7684 7.75701 20.9074 7.97652 19.2507 8.66965C13.6097 11.1486 8.73211 16.6665 8.41302 22.863C8.37277 24.672 8.96379 26.4648 9.94217 27.9914C7.07424 25.2711 7.08009 20.872 8.74072 17.5251Z" fill="#FAC135"/>
<path d="M33.2552 11.8945C35.7206 15.3298 34.5762 19.9154 32.7696 23.3875C30.583 27.4983 27.1976 31.1082 22.9599 33.2506C19.0085 35.2199 14.9354 35.2631 11.4404 32.3782C13.2642 33.1818 15.3044 33.4969 17.306 33.2368C20.5697 32.8339 23.3072 30.7878 25.6287 28.6393C30.7788 23.849 35.3125 15.5545 30.5378 9.12256C31.4036 9.87943 32.5088 10.8833 33.2552 11.8945Z" fill="#FF801D"/>
<path d="M25.813 5.9663C22.4308 4.68807 18.6066 5.40714 15.5994 7.26274C11.5916 9.5707 8.2861 13.1422 6.51207 17.3559C2.50278 25.9905 9.67253 35.2883 19.2678 32.4233C24.7474 30.2404 29.4228 24.8589 31.4369 19.4917C31.8928 18.1968 32.1867 16.8409 32.2136 15.4689C32.2949 11.4461 29.7531 7.35446 25.813 5.9663ZM27.3768 24.7009C24.8972 27.825 21.2729 31.3473 17.1144 31.9481C13.1214 32.5603 8.92433 30.4134 7.20163 26.8383C3.52991 19.3482 10.7575 10.1307 17.6972 7.18379C23.5132 4.61831 29.9206 7.57599 31.0172 13.8357C31.6281 17.769 29.719 21.6125 27.3768 24.7009Z" fill="#FBF199"/>
<path d="M18.564 27.3915C18.5392 27.2709 18.5447 27.1357 18.5321 27.013C18.4632 26.3006 18.354 25.5909 18.3058 24.8768C18.2999 24.686 18.4517 24.5277 18.6532 24.5408C18.9535 24.5604 18.964 24.9299 19.0077 25.1473C19.1318 25.8517 19.2908 26.5671 19.3268 27.2793C19.2877 27.5864 18.6706 27.696 18.564 27.3915Z" fill="#FBF199"/>
<path d="M15.4554 24.4678C13.7763 24.5893 11.9513 26.387 11.8164 28.0118C11.8245 28.4685 12.2092 28.8386 12.6636 28.9024C13.3381 28.9971 13.9316 28.4504 14.2994 27.9622C14.7042 27.4139 15.0848 26.6087 14.6799 25.9684C14.5795 25.8137 14.4823 25.7431 14.3013 25.727C14.2041 25.7184 14.0324 25.6855 14.1099 25.5454C14.5928 25.1969 15.2124 25.0294 15.8044 24.9435C16.0037 24.9164 16.2342 24.9228 16.3815 24.7657C16.6848 24.4421 15.6146 24.4546 15.4554 24.4678ZM13.2144 28.1338C12.2381 28.1803 12.508 27.1423 13.0329 26.7247C13.2722 26.5179 13.6568 26.3883 13.9168 26.6395C14.3645 27.1485 13.7911 27.9959 13.2144 28.1338Z" fill="#FF5671"/>
<path d="M13.8373 27.2199C13.7312 27.5637 13.3627 28.0616 12.9436 27.8952C12.5874 27.6996 12.8543 27.2357 13.0455 27.015C13.3544 26.5932 13.9907 26.575 13.8373 27.2199Z" fill="#CEFFFF"/>
<path d="M12.872 23.1282C12.167 23.5487 11.4163 23.8929 10.7056 24.3039C10.4061 24.5542 10.0682 24.0946 10.1756 23.8111C10.2248 23.6842 10.3546 23.6347 10.469 23.5753C10.9444 23.328 11.4256 23.0908 11.9154 22.8715C12.1027 22.7876 12.2909 22.7053 12.4804 22.626C12.6031 22.5746 12.7358 22.5242 12.8631 22.592C13.0776 22.7064 13.0655 23.0042 12.872 23.1282Z" fill="#FBF199"/>
<path d="M10.3824 19.6823C10.4836 19.5982 10.622 19.6045 10.7471 19.5954C11.3295 19.5525 11.9131 19.5234 12.4972 19.5163C12.7895 19.5454 13.2184 19.3948 13.4086 19.6769C13.5111 19.8823 13.3515 20.0819 13.1427 20.1166C12.2971 20.2248 11.4398 20.2355 10.5951 20.3493C10.2398 20.414 10.159 19.8656 10.3824 19.6823Z" fill="#FBF199"/>
<path d="M14.8495 14.1551C14.2883 14.0637 13.7343 14.453 13.3617 14.8213C12.9485 15.2355 12.5066 15.9018 12.8429 16.4765C12.9134 16.5916 12.9894 16.6139 13.1141 16.6477C13.2074 16.673 13.318 16.755 13.2208 16.854C12.7455 17.0773 12.1911 17.1461 11.6639 17.1387C11.4877 17.1357 11.287 17.0973 11.137 17.2135C10.9953 17.3231 11.1761 17.4042 11.2856 17.4446C12.6494 17.8821 14.0832 17.1031 14.9601 16.1028C15.2435 15.7845 15.5806 15.3464 15.5704 14.901C15.5616 14.5199 15.2184 14.2153 14.8495 14.1551ZM14.3135 15.9987C13.7217 16.358 13.1858 15.816 13.5817 15.2541C13.7508 14.9959 14.0638 14.7319 14.394 14.7343C14.6568 14.7362 14.9074 14.941 14.8993 15.209C14.8763 15.5373 14.5887 15.8373 14.3135 15.9987Z" fill="#FF5671"/>
<path d="M14.5813 15.0065C15.0417 15.3915 13.6822 16.4087 13.6621 15.6086C13.7415 15.2596 14.1981 14.7872 14.5813 15.0065Z" fill="#CEFFFF"/>
<path d="M27.7078 14.9433C28.0519 14.8407 28.1913 15.3684 28.0045 15.5802C27.9212 15.676 27.7915 15.6866 27.6728 15.7076C26.8933 15.8432 26.1086 15.9646 25.3195 16.0284C24.9074 16.0682 24.8277 15.5376 25.2114 15.4308C26.0362 15.236 26.8838 15.1402 27.7078 14.9433Z" fill="#FBF199"/>
<path d="M27.9643 18.3329C27.8641 18.4082 27.7428 18.3959 27.6242 18.3896C27.0444 18.3596 26.4652 18.3174 25.8883 18.2537C25.5889 18.1808 25.1168 18.2746 24.9288 17.998C24.8282 17.7864 25.0211 17.5809 25.2356 17.5745C26.095 17.5727 26.9529 17.6703 27.8122 17.6669C28.1753 17.633 28.1949 18.1634 27.9643 18.3329Z" fill="#FBF199"/>
<path d="M16.8837 16.8016C15.6987 17.8053 16.9356 19.4568 18.2877 19.2619C18.9325 19.1324 19.5667 18.4841 19.5948 17.83C19.5976 16.5571 17.7825 15.8974 16.8837 16.8016ZM18.9128 17.8609C18.8333 18.2073 18.5007 18.54 18.1416 18.6121C17.2111 18.7574 16.4915 17.6043 17.344 17.0041C17.9685 16.4941 19.0795 17.0579 18.9128 17.8609Z" fill="#DB9F6E"/>
<path d="M17.4091 17.2237C17.8429 16.7863 18.7167 17.1068 18.7165 17.7189C18.703 18.0342 18.3948 18.3463 18.0845 18.4086C17.4389 18.506 16.8366 17.6981 17.4091 17.2237Z" fill="#FBF199"/>
<path d="M27.2281 9.80035C26.7124 9.2419 26.0916 8.80188 25.3342 8.62662C20.865 7.27142 16.4622 10.0834 13.4578 13.1081C10.7898 15.8887 8.64147 19.5509 8.78191 23.462C8.93113 25.537 9.79081 27.6416 11.3409 29.0963C13.4797 30.4269 16.206 30.6231 18.5665 29.7655C25.1827 27.0054 33.3589 16.2313 27.2281 9.80035ZM27.6073 14.7494C28.4231 14.5124 28.5743 15.856 27.7554 15.9066C27.0939 16.0246 26.4289 16.1247 25.7603 16.1958C25.35 16.2838 24.7641 16.2802 24.7449 15.7427C24.7401 15.4946 24.9135 15.2913 25.1539 15.2272C25.9645 15.0371 26.7933 14.9247 27.6073 14.7494ZM19.0826 10.1188C19.1905 9.7382 19.8177 9.53648 20.0988 9.86073C20.2079 9.98668 20.1753 10.1504 20.173 10.3022C20.1597 11.0209 20.1926 11.741 20.1629 12.4594C20.1425 12.7261 19.9418 12.9525 19.6605 12.9734C18.9531 13.0125 19.176 11.74 19.0872 11.28C19.0908 10.896 19.0195 10.4984 19.0826 10.1188ZM16.2416 11.6415C16.4093 11.543 16.6563 11.4925 16.8172 11.6316C17.0399 11.9227 17.1427 12.3094 17.3327 12.628C17.5349 13.0316 17.7484 13.4323 17.9304 13.8451C18.0546 14.112 17.9233 14.4505 17.6377 14.5583C17.2667 14.6996 17.0732 14.3522 16.9134 14.0917C16.7235 13.7822 16.5411 13.4684 16.367 13.1502C16.135 12.6617 15.5623 12.0409 16.2416 11.6415ZM11.0403 17.0214C11.2037 16.9158 11.3775 16.9207 11.5659 16.9256C11.9396 16.9353 12.3048 16.9188 12.6665 16.8196C12.9847 16.7642 12.6827 16.7179 12.6182 16.518C12.0007 15.2076 14.3864 13.0947 15.5318 14.2963C16.2704 15.1281 15.2032 16.2444 14.5692 16.774C13.6911 17.5075 12.5045 17.9984 11.3428 17.6844C10.9886 17.6228 10.6334 17.2958 11.0403 17.0214ZM10.0706 19.7862C10.1491 19.5301 10.3606 19.4139 10.6211 19.3936C11.4968 19.3444 12.3901 19.2536 13.2616 19.3243C13.8168 19.4612 13.7401 20.235 13.1958 20.3211C12.2802 20.4271 11.358 20.4903 10.4393 20.5638C10.1013 20.4963 9.97954 20.0763 10.0706 19.7862ZM10.8528 24.4639C10.6938 24.5539 10.5534 24.6405 10.3635 24.5669C9.85867 24.3575 9.76702 23.5988 10.3365 23.4047C11.0789 23.0342 11.8228 22.6333 12.6057 22.3594C13.1892 22.2473 13.4585 23.004 12.9802 23.3104C12.4862 23.6052 11.9672 23.8631 11.4594 24.1346C11.2566 24.2431 11.053 24.3507 10.8528 24.4639ZM15.9262 25.1386C15.4314 25.1988 14.9458 25.3157 14.5092 25.5581C14.6327 25.6013 14.7303 25.6771 14.8231 25.8013C15.7953 27.1669 13.4861 30.0713 11.9682 28.8029C11.0631 27.878 12.0482 26.5351 12.7093 25.7521C13.5476 24.806 14.8052 24.0719 16.1313 24.2752C17.033 24.3995 16.6386 25.1374 15.9262 25.1386ZM16.1592 23.7602C15.8262 23.953 15.4062 23.8559 15.3804 23.4395C15.4473 22.1975 16.7307 20.7374 17.3974 19.6718C17.3546 19.514 17.018 19.3826 16.8794 19.2345C15.8097 18.5422 15.7611 17.1532 16.7987 16.4165C17.5613 15.8356 18.6227 15.9316 19.337 16.536C20.205 15.1445 21.1899 13.8225 22.2921 12.5987C21.2094 12.3109 22.3307 10.9947 22.6053 10.4423C22.8267 10.0848 23.058 9.73338 23.2906 9.38273C23.4318 9.16982 23.6148 8.99957 23.8941 9.09912C24.6084 9.29485 23.7024 10.9719 23.4953 11.4067C23.6967 11.2805 23.9228 11.201 24.1914 11.2109C24.271 11.2138 24.3435 11.2631 24.3652 11.3399C24.3906 11.4301 24.4031 11.5176 24.407 11.6033C24.6565 11.538 24.9079 11.5125 25.1654 11.4665C25.4578 11.4142 25.7353 11.254 25.5924 10.9218C25.4616 10.6175 25.1085 10.495 24.8218 10.3741C24.5862 10.2748 24.3166 10.0988 24.3397 9.81215C24.4835 9.10761 25.6071 9.66023 25.9855 9.88694C27.1592 10.5055 26.9778 11.783 25.7599 12.1957C25.494 12.3015 25.2045 12.3129 24.9296 12.378C24.4665 12.5796 25.0491 12.7824 25.2606 12.8588C25.5138 12.9644 25.8232 13.051 26.0065 13.2644C26.137 13.4163 26.1897 13.6727 26.0374 13.8297C25.6459 14.2137 24.1609 13.3886 23.7284 13.156C23.4351 13.6154 23.1419 14.0749 22.8486 14.5344C22.1681 15.6005 21.4876 16.6665 20.8071 17.7325C21.1525 18.2049 21.1768 18.765 20.9193 19.2816C20.5604 19.9883 19.7568 20.6078 18.9151 20.4657C18.5476 21.1813 18.0806 21.8247 17.5757 22.4538C17.1681 22.944 16.7376 23.458 16.1592 23.7602ZM19.5345 27.3439C19.4413 27.7708 18.7602 27.9324 18.4549 27.6244C18.3303 27.4986 18.3463 27.3243 18.3311 27.1629C18.308 26.9164 18.2797 26.6704 18.2521 26.4243C18.1944 25.9097 18.1219 25.3939 18.09 24.8769C18.0601 24.4457 18.6177 24.1615 18.9576 24.4414C19.0965 24.5533 19.1383 24.7118 19.1727 24.8768C19.2605 25.2973 19.3386 25.7196 19.4038 26.1439C19.4403 26.5411 19.5698 26.9457 19.5345 27.3439ZM21.967 25.8085C21.7229 25.4769 21.5339 25.0945 21.2952 24.7539C21.0482 24.2306 19.9038 23.1678 20.7854 22.7658C21.1933 22.617 21.4404 23.0276 21.6437 23.2954C21.894 23.6252 22.1363 23.9605 22.3703 24.3014C22.5583 24.6268 22.8682 24.9136 22.9434 25.2865C22.9734 25.7159 22.3218 26.1638 21.967 25.8085ZM26.5573 21.527C26.4624 21.6021 26.2878 21.6822 26.2782 21.8156C26.2713 21.9139 26.3506 22.0077 26.3925 22.0923C26.4946 22.2849 26.4993 22.5156 26.4194 22.7167C25.9434 23.8206 24.1555 23.8395 23.4448 22.9577C23.2796 22.7449 23.1797 22.4224 23.4126 22.2158C23.6205 22.0315 23.9468 22.0854 24.176 22.1972C24.4619 22.3366 24.7494 22.661 25.1014 22.5976C25.2716 22.567 25.3355 22.4248 25.2863 22.2703C25.1674 21.9209 24.7559 21.8379 24.4494 21.7061C24.3245 21.6537 24.1861 21.5913 24.1515 21.4495C24.0947 21.2167 24.3052 20.875 24.5299 20.798C24.8264 20.6965 25.0611 20.9349 25.3221 21.02C25.4741 21.0696 25.6504 21.0226 25.6832 20.849C25.7148 20.682 25.5424 20.5657 25.4129 20.4967C25.1488 20.356 24.8068 20.2599 24.7348 19.932C24.6641 19.6106 24.968 19.4782 25.2445 19.4812C26.2617 19.5157 27.7723 20.602 26.5573 21.527ZM27.6755 18.6034C26.7959 18.5455 25.8976 18.5121 25.0355 18.3447C24.4685 18.1532 24.6591 17.3563 25.2353 17.3634C26.0793 17.3632 26.9225 17.4405 27.7662 17.4555C28.2407 17.3978 28.4444 17.9003 28.2703 18.2742C28.1625 18.5178 27.9365 18.6156 27.6755 18.6034Z" fill="#CEFFFF"/>
<path d="M26.7391 20.9847C26.5227 21.4604 25.7551 21.5474 26.1959 22.1797C26.4946 22.7677 25.7491 23.2435 25.2489 23.3409C24.7261 23.4426 24.1173 23.307 23.7236 22.946C23.5446 22.7819 23.3173 22.3478 23.727 22.3088C24.0483 22.278 24.2991 22.5387 24.5577 22.6808C24.9858 22.9647 25.689 22.78 25.4832 22.1806C25.3259 21.7494 24.8369 21.6511 24.4576 21.4789C24.2733 21.3911 24.4209 21.1743 24.5046 21.0632C24.7198 20.836 25.0727 21.1743 25.2989 21.2336C25.5706 21.3048 25.8537 21.1531 25.8975 20.8715C25.9634 20.3066 25.2041 20.3207 24.9712 19.9566C24.865 19.7439 25.0714 19.6901 25.2446 19.6921C25.8596 19.7298 27.0072 20.2373 26.7391 20.9847Z" fill="#FF5671"/>
<path d="M24.5348 8.07964C22.8897 7.49797 21.0449 7.46653 19.3632 7.91819C17.0548 8.66024 14.9517 9.94058 13.1641 11.565C14.4654 10.6929 15.8996 10.0237 17.4181 9.60026C18.0169 9.25585 18.6293 8.94321 19.2519 8.66962C20.9086 7.97652 22.7696 7.75701 24.5348 8.07964Z" fill="#EE9E2B"/>
<path d="M7.66185 21.2737C7.42278 23.7219 8.06946 26.2147 9.94261 27.9915C9.18417 26.808 8.66014 25.4643 8.48086 24.0774C8.2287 23.5266 8.02119 22.9531 7.86802 22.3548C7.77745 22.0011 7.71156 21.6391 7.66185 21.2737Z" fill="#FBE134"/>
<path d="M32.8737 21.2227C32.3597 22.6925 31.7117 24.0722 30.8339 25.3671C30.0011 26.5956 29.0245 27.731 27.9654 28.7789C24.3613 32.3449 18.9896 35.321 13.8984 33.8991C16.7759 35.143 19.9039 34.7733 22.9594 33.2505C27.1971 31.1081 30.5825 27.4982 32.7691 23.3874C34.4874 20.085 35.6041 15.7759 33.5881 12.4067C34.3841 15.264 33.8555 18.415 32.8737 21.2227Z" fill="#EF6200"/>
<path d="M31.6574 10.1387C31.2713 9.77069 30.885 9.42649 30.5374 9.12256C35.312 15.5545 30.7783 23.8489 25.6283 28.6393C23.3067 30.7878 20.5693 32.8339 17.3056 33.2368C16.3648 33.3591 15.4157 33.3527 14.4844 33.2298C15.8838 33.6162 17.4737 33.3846 18.8358 33.0252C22.0089 32.188 24.877 30.2145 27.1472 27.9384C29.2295 25.8506 30.9009 23.344 31.9579 20.6168C33.262 17.2522 33.5494 13.237 31.6574 10.1387Z" fill="#FACB1A"/>
<path d="M20.9928 27.9878C19.243 29.0508 17.2577 29.8815 15.1621 29.8345C14.1075 29.8109 13.0513 29.6126 12.1061 29.1438C11.2074 28.6981 10.6526 27.9139 10.1997 27.0625C9.87044 26.4437 9.54657 25.8005 9.32766 25.1366C9.07303 24.3645 8.97949 23.5476 8.93382 22.7412C8.91275 22.3697 8.89347 21.9854 8.88502 21.5972C8.79661 22.2106 8.75924 22.833 8.78184 23.4619C8.93107 25.537 9.79074 27.6415 11.3409 29.0962C13.4796 30.4268 16.206 30.623 18.5665 29.7654C20.522 28.9497 22.6135 27.4335 24.4319 25.5366C23.3508 26.4384 22.1919 27.2593 20.9928 27.9878Z" fill="#A9CDDD"/>
<path d="M27.2283 9.80035C26.7126 9.2419 26.0918 8.80188 25.3344 8.62662C20.8652 7.27142 16.4624 10.0834 13.458 13.1081C12.3559 14.2568 11.343 15.5562 10.543 16.9611C11.3139 15.8894 12.174 14.8795 13.0896 13.9179C14.5178 12.4178 16.0689 11.0203 17.9007 10.001C19.6863 9.00736 21.8468 8.40699 23.9088 8.68113C25.9186 8.94839 27.5508 10.3932 28.5148 12.0676C28.8148 12.5889 29.0536 13.1396 29.2546 13.7036C28.9951 12.3073 28.3534 10.9805 27.2283 9.80035Z" fill="#E9FFFB"/>
<path d="M11.2849 17.4445C12.6487 17.8821 14.0825 17.103 14.9594 16.1027C15.0243 16.0298 15.0919 15.9501 15.1575 15.866C14.8624 16.1831 14.5209 16.4626 14.1306 16.698C13.235 17.2383 12.1171 17.5589 11.0949 17.2602C11.0486 17.3461 11.1917 17.4102 11.2849 17.4445Z" fill="#DF3F58"/>
<path d="M14.3515 27.8891C14.0145 28.1756 13.6363 28.3931 13.2078 28.472C12.5682 28.5896 12.1411 28.19 12.0729 27.5867C12.0497 27.3814 12.0683 27.1752 12.1133 26.9728C11.9502 27.3151 11.845 27.6673 11.8164 28.0118C11.8245 28.4685 12.2092 28.8386 12.6636 28.9024C13.3381 28.9971 13.9316 28.4504 14.2994 27.9622C14.3169 27.9385 14.3342 27.9137 14.3515 27.8891Z" fill="#DF3F58"/>
<path d="M22.3255 12.3908C22.9873 12.2183 23.5221 10.9113 23.7516 10.312C23.8161 10.0492 23.9722 9.77124 23.9628 9.49744C23.8159 10.0301 23.6147 10.5287 23.2947 11.008C22.9733 11.4894 22.5446 11.8421 22.0537 12.1251C22.0712 12.2522 22.1494 12.3497 22.3255 12.3908Z" fill="#DF3F58"/>
<path d="M25.9145 13.6041C25.9135 13.5902 25.9098 13.5775 25.9074 13.5643C25.5429 13.5499 25.1955 13.4297 24.8281 13.266C24.507 13.1229 24.2171 12.9456 24.0352 12.6747C23.9718 12.7768 23.9062 12.8777 23.8428 12.978C24.0965 13.1331 25.8266 14.0425 25.9145 13.6041Z" fill="#DF3F58"/>
<path d="M25.2043 23.1781C24.6149 23.2992 23.753 22.9683 23.5627 22.3662C23.4001 22.4981 23.5781 22.812 23.7242 22.946C24.1179 23.307 24.7268 23.4426 25.2496 23.3409C25.6281 23.2673 26.1462 22.9766 26.2468 22.5848C25.9815 22.8788 25.6327 23.0901 25.2043 23.1781Z" fill="#DF3F58"/>
<path d="M30.9049 14.8451C30.8535 16.553 30.3634 18.2577 29.6885 19.8176C28.935 21.5593 27.8086 23.169 26.6056 24.6428C25.4285 26.0847 24.0738 27.3917 22.5479 28.4808C21.0719 29.5342 19.3718 30.4343 17.5899 30.8698C15.9523 31.27 14.2091 31.1619 12.6163 30.6338C10.9725 30.0887 9.52647 29.047 8.48542 27.695C7.32044 26.1819 6.7965 24.29 6.66756 22.4239C6.61562 21.672 6.63153 20.9144 6.70572 20.1607C6.62774 20.5075 6.56219 20.8575 6.51135 21.211C5.66905 26.4304 9.63889 31.4989 15.0947 31.8111C19.4373 32.1609 23.0614 29.1819 25.813 26.2354C28.4267 23.323 30.6579 19.7623 30.9103 15.8138C30.926 15.4879 30.9233 15.1648 30.9049 14.8451Z" fill="#ABAB38"/>
<path d="M22.0447 25.537C22.1163 25.6585 22.1827 25.7393 22.3428 25.7118C22.4098 25.7002 22.4781 25.6716 22.5384 25.631C22.0941 25.2416 21.7684 24.6495 21.4659 24.1971C21.2728 23.9081 20.8915 23.461 20.7448 23.0406C20.6624 23.1387 20.6415 23.294 20.7056 23.415C21.127 24.1367 21.6166 24.8191 22.0447 25.537Z" fill="#F3AF79"/>
<path d="M16.5136 12.9706C16.7401 13.3877 16.9797 13.7983 17.2331 14.2003C17.2915 14.2921 17.3647 14.3872 17.4885 14.3788C17.5195 14.3768 17.5474 14.3694 17.5732 14.3591C17.5126 14.2953 17.4545 14.2267 17.3996 14.1495C17.2245 13.9032 17.0886 13.6255 16.9391 13.3642C16.7611 13.0533 16.6018 12.7362 16.4606 12.4077C16.389 12.2415 16.3063 12.0603 16.2679 11.8774C15.9186 12.1538 16.3603 12.6202 16.5136 12.9706Z" fill="#F3AF79"/>
<path d="M10.5951 20.3494C11.4398 20.2355 12.2971 20.2248 13.1426 20.1167C13.306 20.0895 13.4372 19.9612 13.4386 19.8085C13.0077 19.8763 12.5719 19.9258 12.1433 19.9712C12.0436 19.9818 11.7789 20.0191 11.4694 20.0457C10.9641 20.0704 10.5176 20.0601 10.2578 19.99C10.2578 20.1901 10.3726 20.3899 10.5951 20.3494Z" fill="#F3AF79"/>
<path d="M10.8696 23.8969C10.6681 23.9964 10.4356 24.1077 10.2041 24.1309C10.2974 24.3269 10.509 24.4676 10.7051 24.3038C11.4159 23.8928 12.1666 23.5486 12.8716 23.1281C12.9861 23.0547 13.0352 22.9206 13.0132 22.7996C12.6025 23.0631 12.1359 23.2769 11.7286 23.4814C11.4444 23.6241 11.1547 23.7561 10.8696 23.8969Z" fill="#F3AF79"/>
<path d="M19.4728 12.5502C19.4507 12.147 19.4479 11.7416 19.4512 11.338C19.4541 10.9722 19.4787 10.6076 19.5108 10.2432C19.5196 10.1433 19.5318 10.0405 19.5517 9.93945C19.4217 9.98226 19.3071 10.0724 19.2883 10.1855C19.2527 10.8421 19.3204 11.5163 19.3615 12.1764C19.374 12.3244 19.3505 12.6096 19.4894 12.7195C19.4836 12.6631 19.4759 12.6071 19.4728 12.5502Z" fill="#F3AF79"/>
<path d="M19.2675 32.4234C24.7471 30.2404 29.4225 24.859 31.4366 19.4918C31.8925 18.1969 32.1863 16.841 32.2133 15.469C32.2566 13.326 31.5552 11.1637 30.295 9.40076C31.1232 10.8312 31.5723 12.4547 31.686 14.0901C31.9553 17.9649 30.2848 21.8039 27.9988 24.8861C25.757 27.9089 22.8472 30.7547 19.149 31.9673C15.5394 33.151 11.4844 32.309 8.64355 29.8405C7.21136 28.596 6.27041 26.9593 5.74219 25.1795C7.17141 30.5787 12.6404 34.4021 19.2675 32.4234Z" fill="#F3AF79"/>
<path d="M6.88969 26.2035C6.95446 26.345 7.02527 26.4828 7.09893 26.6188C3.67212 19.1691 10.8246 10.1021 17.6968 7.18383C23.2901 4.71662 29.4295 7.3583 30.8668 13.132C30.8112 12.8278 30.7384 12.5281 30.653 12.2404C30.2168 10.7693 29.3785 9.39548 28.2902 8.29637C27.1203 7.11478 25.6003 6.36066 23.9437 6.09373C22.2453 5.82005 20.4889 6.0721 18.8577 6.56369C15.4845 7.58034 12.4904 9.79713 10.1739 12.3582C7.86071 14.9156 6.3125 18.1929 6.09851 21.6185C6.00093 23.1808 6.23308 24.7696 6.88969 26.2035Z" fill="#F3AF79"/>
<path d="M25.8879 18.2537C26.4649 18.3173 27.0441 18.3595 27.6238 18.3895C27.7424 18.3958 27.8638 18.4081 27.9639 18.3328C28.0118 18.2976 28.0482 18.2465 28.0737 18.1885C27.4725 18.2425 26.866 18.1391 26.2599 18.0815C25.8337 18.041 25.2341 18.1039 24.9166 17.8002C24.8963 17.8612 24.8955 17.9289 24.9284 17.9979C25.1164 18.2745 25.5886 18.1808 25.8879 18.2537Z" fill="#F3AF79"/>
<path d="M25.3206 16.0282C26.1096 15.9644 26.8943 15.8429 27.6738 15.7074C27.7925 15.6864 27.9222 15.6758 28.0055 15.58C28.0777 15.498 28.1007 15.3692 28.0825 15.2476C27.5803 15.4054 27.051 15.4956 26.5389 15.5771C26.1347 15.6413 25.4638 15.8733 24.9707 15.7945C24.9983 15.9311 25.1195 16.0476 25.3206 16.0282Z" fill="#F3AF79"/>
<path d="M18.0828 18.4087C18.3931 18.3463 18.7014 18.0342 18.7149 17.7189C18.7149 17.6863 18.7112 17.655 18.7064 17.6241C18.5578 17.966 18.2833 18.2092 17.8106 18.0657C17.5074 17.9736 17.3236 17.608 17.3482 17.2822C16.8858 17.7613 17.4628 18.5022 18.0828 18.4087Z" fill="#F3AF79"/>
<path d="M18.5639 27.3917C18.605 27.5092 18.7222 27.5645 18.8528 27.5711C18.7824 27.3721 18.7528 27.1548 18.7334 26.9336C18.7014 26.5689 18.6674 26.2045 18.6345 25.8398C18.6078 25.5439 18.5927 25.2514 18.5525 24.9569C18.5348 24.8276 18.5203 24.6902 18.5281 24.5573C18.3926 24.601 18.3013 24.7286 18.3058 24.877C18.354 25.5911 18.4632 26.3008 18.5321 27.0132C18.5446 27.1359 18.5391 27.2711 18.5639 27.3917Z" fill="#F3AF79"/>
<path d="M18.2883 19.262C18.9331 19.1325 19.5673 18.4842 19.5954 17.8301C19.5962 17.4679 19.4495 17.1555 19.219 16.9146C19.5328 17.6434 19.3065 18.5841 18.4643 18.8824C17.8174 19.1116 17.1553 18.7391 16.7806 18.2349C16.5705 17.9521 16.4754 17.6322 16.4947 17.3175C16.0944 18.2823 17.1504 19.426 18.2883 19.262Z" fill="#C98450"/>
<path d="M18.6743 19.5102C18.579 19.5485 18.482 19.5806 18.3836 19.6012C17.9659 19.6494 17.9019 19.5728 18.293 19.8434C19.1571 20.5052 20.2782 19.9185 20.6474 19.0197C20.6763 18.9549 20.6957 18.8912 20.7107 18.8281C20.1885 19.4118 19.407 19.7818 18.6743 19.5102Z" fill="#C98450"/>
<path d="M16.967 17.752C16.9407 17.4877 17.0468 17.2125 17.343 17.004C17.9676 16.494 19.0785 17.0578 18.9118 17.8608C18.9036 17.8966 18.8911 17.9321 18.8778 17.9673C19.0569 17.6648 18.9162 17.2521 18.6736 16.985C18.2838 16.5561 17.5729 16.587 17.1831 16.9807C16.9725 17.1932 16.9083 17.4845 16.967 17.752Z" fill="#C98450"/>
<path d="M19.8512 18.6459C19.9586 18.526 20.0158 18.3749 20.0789 18.2305C20.1665 18.0298 20.2857 17.9363 20.4473 17.8642C20.2918 17.6695 20.09 17.4989 19.8817 17.3594C20.0801 17.9458 19.8322 18.5773 19.3916 19.0261C19.5665 18.9277 19.7218 18.7906 19.8512 18.6459Z" fill="#F9C6A0"/>
<path d="M18.1069 20.1449C17.9862 20.4471 17.82 20.7334 17.6649 21.0286C17.4333 21.4697 17.1805 21.8991 16.908 22.3173C16.6702 22.6822 16.4105 23.0334 16.1328 23.3702C16.1642 23.3506 16.1943 23.3307 16.2214 23.3126C16.7555 22.9432 17.1674 22.4057 17.557 21.9014C17.9329 21.4149 18.2704 20.9159 18.5562 20.3755C18.3952 20.3199 18.2479 20.2377 18.1069 20.1449Z" fill="#BEBEBE"/>
<path d="M22.4284 14.5293C22.7609 14.0083 23.0934 13.4874 23.426 12.9664C23.6118 12.6752 23.8734 12.3502 23.9894 12.0034C23.6548 12.4494 23.3137 12.8904 22.9996 13.3502C22.4875 14.0999 21.9651 14.8431 21.4212 15.5712C21.0208 16.1072 20.6121 16.6397 20.1562 17.1321C20.2941 17.2369 20.4296 17.3444 20.5578 17.4597C21.1814 16.4829 21.8048 15.5061 22.4284 14.5293Z" fill="#BEBEBE"/>
</svg>
