<svg width="390" height="217" viewBox="0 0 390 217" fill="none" xmlns="http://www.w3.org/2000/svg">
<path d="M-7.12689 210.282C-9.91616 207.935 -12.7515 205.383 -14.5086 202.138C-16.0232 199.342 -16.5895 195.851 -15.2305 192.976C-13.8715 190.101 -10.2382 188.253 -7.3166 189.521C-5.54063 190.291 -4.44617 191.923 -3.52975 193.548C-2.81205 194.821 -1.87419 198.115 -0.276252 198.436C0.637869 198.62 -0.835071 193.695 -0.945913 193.429C-2.03003 190.829 -3.6383 188.296 -3.92546 185.439C-4.15787 183.128 -3.22154 180.501 -1.08758 179.572C0.646284 178.817 2.66215 179.353 4.40271 180.092C8.19933 181.706 11.5861 184.27 14.1663 187.483C10.5349 182.367 8.56516 176.096 8.62067 169.826C8.6356 168.148 8.80236 166.429 9.52466 164.914C10.247 163.398 11.6121 162.106 13.2736 161.843C15.1845 161.542 17.0968 162.656 18.283 164.181C19.4689 165.707 20.0704 167.592 20.6495 169.434C21.3077 164.156 23.0749 159.019 25.8034 154.45C26.5939 153.127 27.4937 151.82 28.7612 150.94C30.0287 150.06 31.7398 149.678 33.1432 150.32C34.5886 150.982 35.4131 152.587 35.5772 154.165C35.7411 155.743 35.3561 157.321 34.9741 158.862C33.69 164.039 32.406 169.217 31.1218 174.394C32.1466 171.39 34.9613 168.996 38.131 168.745C41.3006 168.494 44.5845 170.588 45.432 173.646C46.3923 177.111 44.3122 180.692 41.8437 183.311C39.3753 185.929 36.3718 188.18 34.7848 191.407C36.6109 190.148 38.511 188.936 40.6335 188.289C42.7559 187.642 45.1525 187.613 47.1091 188.658C49.5149 189.944 50.9074 192.765 50.7669 195.485C50.6264 198.204 49.0861 200.751 46.9241 202.413C44.8413 204.014 42.1805 204.903 40.5015 206.923C44.0215 207.806 47.168 210.448 48.1784 213.926C48.725 215.808 48.6408 217.85 48.0469 219.717C46.4831 224.635 41.5633 227.926 36.4831 228.886C31.4028 229.847 26.1634 228.857 21.1586 227.561C9.9374 224.654 -0.78299 219.533 -7.86699 210.067" fill="#8DD44F"/>
<path opacity="0.6" d="M38.7937 214.408C35.4412 215.268 32.0045 215.602 28.5525 215.731C26.9098 215.792 25.2657 215.811 23.622 215.823C21.9651 215.835 20.2667 215.929 18.7643 215.223C18.9496 214.51 19.1253 213.794 19.2934 213.078C20.0316 209.933 20.729 206.778 21.417 203.621C27.759 202.744 33.7713 200.232 38.7773 196.227C39.9357 195.3 38.7235 193.309 37.5545 194.244C33.0299 197.864 27.6618 200.293 21.9421 201.206C22.0423 200.745 22.1424 200.284 22.2425 199.823C23.0035 196.316 23.7403 192.803 24.4366 189.283C24.5652 189.223 24.6903 189.133 24.8063 189.007C26.3849 187.289 28.8311 186.292 30.791 185.063C32.8637 183.763 34.8867 182.387 36.8663 180.95C38.0751 180.072 36.8585 178.085 35.6436 178.967C33.5441 180.492 31.3952 181.946 29.191 183.316C27.8817 184.129 26.4308 184.845 25.1235 185.725C25.9206 181.502 26.65 177.265 27.2724 173.011C27.4875 171.54 25.2136 171.013 24.9962 172.501C24.3137 177.166 23.5033 181.81 22.6147 186.439C22.0852 186.03 21.6132 185.52 21.1536 185.072C20.469 184.404 19.8053 183.714 19.1799 182.99C17.8641 181.468 16.7624 179.76 16.0734 177.865C15.5626 176.461 13.3285 177.131 13.8418 178.543C14.6753 180.835 15.984 182.839 17.5739 184.679C18.8571 186.165 20.3457 187.908 22.142 188.871C21.481 192.21 20.7824 195.542 20.0624 198.868C19.9322 199.47 19.8011 200.071 19.6702 200.672C14.8539 197.087 10.5161 192.853 6.81696 188.13C5.90073 186.961 3.90651 188.171 4.83001 189.35C8.94748 194.607 13.7336 199.214 19.1318 203.137C18.5053 205.995 17.8699 208.851 17.217 211.702C17.0093 212.61 16.7932 213.516 16.5619 214.417C9.61865 210.725 3.22805 206.121 -2.47051 200.696C-3.55845 199.661 -5.16291 201.351 -4.07649 202.385C1.8895 208.064 8.62988 212.89 15.9285 216.712C15.1457 219.337 14.1582 221.889 12.7389 224.269C11.9709 225.558 14.0306 226.65 14.7967 225.365C16.2683 222.897 17.3063 220.233 18.1289 217.497C19.4892 218.054 20.9809 218.15 22.4713 218.157C24.3906 218.165 26.3138 218.136 28.2321 218.072C32.0176 217.946 35.796 217.579 39.472 216.636C40.9294 216.261 40.246 214.035 38.7937 214.408Z" fill="#69C718"/>
<path d="M38.0213 194.638C39.5795 194.369 41.2427 194.775 42.5004 195.731C43.7959 196.716 44.6218 198.216 45.0787 199.776C45.4199 200.94 45.5736 202.146 45.6789 203.357C46.2681 201.652 46.894 199.959 47.5864 198.292C47.7148 197.983 47.8465 197.675 47.9796 197.368C47.4652 196.916 47.2278 196.34 47.0044 195.613C46.2821 193.263 46.0442 190.693 46.8143 188.358C47.5843 186.023 49.4899 183.98 51.9018 183.481C52.6086 183.335 53.3895 183.333 54.0011 183.716C54.3176 183.913 54.5674 184.201 54.7868 184.503C55.8617 185.981 56.2873 187.913 55.9331 189.705C55.5682 191.551 54.4276 193.172 53.0365 194.441C51.7483 195.616 50.2459 196.526 48.7383 197.408C48.7406 197.461 48.731 197.517 48.7053 197.576C48.194 198.753 47.7196 199.944 47.2696 201.145C48.1458 200.226 49.0559 199.339 50.0963 198.615C51.4324 197.686 53.0179 197.034 54.6461 197.077C56.2268 197.119 57.7776 197.843 58.8225 199.027C59.0358 199.269 59.2314 199.534 59.3384 199.837C59.5456 200.424 59.3961 201.081 59.1386 201.648C58.2601 203.582 56.1726 204.797 54.0545 205.002C51.9365 205.207 49.8109 204.519 47.963 203.466C47.46 203.18 47.0588 202.906 46.7758 202.492C46.3411 203.706 45.9274 204.927 45.5271 206.153C44.8693 208.167 44.2431 210.191 43.6012 212.21C44.5063 211.257 45.4442 210.332 46.5218 209.582C47.8578 208.653 49.4433 208.001 51.0715 208.044C52.6522 208.086 54.2031 208.81 55.248 209.995C55.4612 210.236 55.6569 210.501 55.7641 210.805C55.9712 211.392 55.8217 212.048 55.5642 212.615C54.6857 214.549 52.5983 215.764 50.4802 215.969C48.3621 216.174 46.2366 215.487 44.3888 214.434C43.8859 214.147 43.4844 213.873 43.2017 213.459C43.0487 213.933 42.895 214.407 42.7386 214.88C41.9416 217.29 41.0893 219.684 40.1023 222.023C40.8759 221.231 41.6845 220.475 42.5923 219.843C43.9284 218.914 45.5139 218.262 47.1419 218.305C48.7226 218.347 50.2734 219.071 51.3183 220.255C51.5316 220.497 51.7272 220.762 51.8342 221.066C52.0414 221.653 51.8919 222.309 51.6344 222.876C50.7559 224.81 48.6684 226.025 46.5503 226.23C44.4322 226.435 42.3067 225.748 40.4587 224.695C39.9861 224.425 39.603 224.168 39.3237 223.794C38.2024 226.236 36.9137 228.604 35.3956 230.824C33.7754 233.192 31.8804 235.376 29.6865 237.233C29.4093 237.468 29.1269 237.697 28.8407 237.921C28.4605 238.218 28.0313 237.604 28.4104 237.308C30.6502 235.557 32.5872 233.453 34.2502 231.153C35.3921 229.574 36.4029 227.906 37.3124 226.184C36.9625 226.221 36.5984 226.183 36.1897 226.118C34.0884 225.783 32.0006 224.988 30.479 223.504C28.9575 222.019 28.0945 219.767 28.625 217.71C28.7804 217.108 29.0762 216.503 29.6065 216.175C29.8808 216.005 30.1995 215.921 30.5173 215.867C32.0754 215.597 33.7387 216.003 34.9964 216.96C36.2921 217.945 37.1177 219.444 37.5749 221.004C37.9072 222.138 38.0616 223.312 38.1667 224.492C38.2903 224.236 38.4123 223.979 38.5321 223.722C39.7211 221.162 40.7162 218.52 41.6258 215.85C41.1554 215.985 40.6791 215.947 40.1195 215.858C38.0183 215.522 35.9305 214.728 34.4089 213.244C32.8873 211.759 32.0243 209.506 32.5548 207.45C32.7102 206.847 33.006 206.243 33.5363 205.915C33.8105 205.745 34.1294 205.661 34.4472 205.607C36.0053 205.337 37.6685 205.743 38.9263 206.699C40.2219 207.684 41.0476 209.184 41.5048 210.744C41.8532 211.933 42.0061 213.166 42.1114 214.403C42.9402 211.889 43.7132 209.356 44.5234 206.836C44.7317 206.189 44.943 205.542 45.1578 204.896C44.701 205.017 44.2366 204.978 43.6939 204.891C41.5926 204.556 39.5048 203.762 37.9833 202.277C36.4617 200.793 35.5987 198.54 36.1292 196.484C36.2846 195.881 36.5804 195.276 37.1107 194.948C37.3846 194.777 37.7034 194.693 38.0213 194.638Z" fill="#FFB425"/>
<path d="M283.623 215.496C272.892 213.445 261.741 210.929 252.387 205.027C244.325 199.939 237.721 191.654 237.046 182.159C236.372 172.663 243.146 162.526 252.636 161.563C258.404 160.977 263.659 163.637 268.439 166.541C272.182 168.814 279.469 176.043 284.113 174.545C286.771 173.689 275.691 162.983 275.011 162.451C268.362 157.248 260.441 152.984 255.497 145.946C251.494 140.249 250.082 132.023 254.289 126.475C257.707 121.967 263.758 120.419 269.389 119.805C281.673 118.467 294.281 120.208 305.738 124.825C288.742 116.777 274.388 103.281 265.326 86.8298C262.9 82.4253 260.811 77.6945 260.471 72.6795C260.13 67.6651 261.797 62.2947 265.751 59.1808C270.298 55.5987 276.928 55.712 282.265 57.9602C287.602 60.2085 291.941 64.2515 296.159 68.2145C290.127 53.4709 287.195 37.4718 287.61 21.5516C287.73 16.9401 288.16 12.2111 290.178 8.06059C292.196 3.9101 296.102 0.409944 300.711 0.0337593C305.456 -0.353106 309.967 2.63323 312.713 6.51434C315.459 10.3954 316.771 15.0787 318.035 19.6588C322.286 35.0563 326.538 50.4532 330.789 65.8506C329.053 56.5089 332.886 46.1401 340.794 40.8486C348.702 35.5571 360.353 36.224 367.057 42.9698C374.653 50.6122 374.481 63.0067 371.881 73.4533C369.281 83.8998 364.744 94.1683 365.34 104.916C368.259 98.959 371.441 93.016 376.033 88.2223C380.624 83.428 386.839 79.8478 393.484 79.7167C401.654 79.5553 409.434 84.8859 413.061 92.1925C416.689 99.4996 416.406 108.401 413.202 115.903C410.116 123.13 404.474 129.343 403.055 137.071C413.544 134.23 425.639 136.526 433.387 144.131C437.577 148.246 440.357 153.701 441.549 159.446C444.688 174.574 436.674 190.361 424.82 200.299C412.966 210.236 397.831 215.315 382.858 219.248C349.288 228.067 313.776 230.374 281.376 216.018" fill="#FFB425"/>
<path opacity="0.6" d="M411.2 161.252C402.957 168.791 393.67 174.958 384.029 180.564C379.44 183.233 374.783 185.78 370.116 188.309C365.413 190.858 360.715 193.703 355.357 193.97C354.798 191.657 354.209 189.351 353.597 187.055C350.907 176.972 348.086 166.92 345.236 156.878C361.975 144.756 375.281 128.471 383.444 109.46C385.333 105.06 378.844 101.225 376.938 105.664C369.56 122.848 357.962 137.916 343.052 149.2C342.635 147.734 342.217 146.268 341.8 144.802C338.624 133.652 335.37 122.522 331.989 111.432C332.264 111.065 332.484 110.62 332.623 110.084C334.503 102.793 339.956 96.2385 343.668 89.7603C347.594 82.9089 351.263 75.9186 354.714 68.8174C356.822 64.4818 350.326 60.6647 348.208 65.0223C344.548 72.5531 340.64 79.9599 336.446 87.2089C333.955 91.5142 330.91 95.7561 328.526 100.249C324.36 87.0012 319.983 73.8211 315.273 60.752C313.644 56.2324 306.36 58.1816 308.007 62.751C313.172 77.0834 317.94 91.5486 322.463 106.091C320.33 105.728 318.209 104.992 316.215 104.412C313.245 103.547 310.303 102.589 307.417 101.475C301.347 99.1317 295.604 95.9377 290.753 91.5831C287.156 88.3547 281.81 93.6556 285.425 96.9001C291.294 102.168 298.078 105.894 305.415 108.726C311.335 111.011 318.235 113.72 324.823 113.739C328.027 124.258 331.115 134.813 334.132 145.388C334.678 147.299 335.221 149.212 335.764 151.124C316.573 148.215 297.757 142.732 280.016 134.885C275.623 132.942 271.784 139.419 276.213 141.378C295.96 150.111 316.622 155.977 337.986 158.966C340.555 168.062 343.097 177.166 345.583 186.284C346.374 189.186 347.138 192.095 347.853 195.014C322.438 195.03 297.207 191.607 272.698 184.794C268.02 183.494 266.023 190.746 270.695 192.045C296.354 199.176 322.919 202.701 349.546 202.518C351.316 211.187 352.39 219.956 351.973 228.896C351.748 233.733 359.284 233.722 359.508 228.896C359.94 219.627 358.839 210.46 357.013 201.414C361.739 200.938 366.136 198.947 370.395 196.704C375.879 193.816 381.315 190.815 386.685 187.721C397.281 181.615 407.49 174.835 416.53 166.568C420.111 163.292 414.771 157.986 411.2 161.252Z" fill="#DB950F"/>
<path d="M313.637 128.538C308.944 127.728 303.934 128.95 300.146 131.829C296.244 134.796 293.757 139.313 292.38 144.011C291.353 147.518 290.89 151.15 290.573 154.797C288.798 149.661 286.914 144.563 284.828 139.543C284.441 138.611 284.044 137.684 283.644 136.758C285.193 135.398 285.907 133.664 286.581 131.473C288.756 124.395 289.473 116.655 287.154 109.623C284.835 102.591 279.095 96.4354 271.83 94.9337C269.701 94.4934 267.349 94.4881 265.507 95.6404C264.554 96.2367 263.801 97.1029 263.141 98.0114C259.904 102.464 258.622 108.282 259.688 113.679C260.787 119.238 264.222 124.121 268.413 127.944C272.293 131.484 276.818 134.223 281.359 136.879C281.351 137.038 281.381 137.209 281.458 137.388C282.998 140.931 284.427 144.519 285.783 148.135C283.144 145.369 280.402 142.697 277.269 140.517C273.245 137.718 268.47 135.754 263.566 135.884C258.805 136.01 254.134 138.191 250.987 141.759C250.345 142.487 249.756 143.283 249.433 144.198C248.809 145.966 249.259 147.943 250.035 149.65C252.681 155.475 258.968 159.135 265.347 159.753C271.727 160.37 278.129 158.299 283.694 155.128C285.209 154.265 286.418 153.44 287.269 152.194C288.578 155.849 289.825 159.528 291.03 163.219C293.011 169.285 294.897 175.382 296.831 181.464C294.104 178.592 291.28 175.807 288.034 173.549C284.011 170.75 279.235 168.786 274.331 168.916C269.571 169.041 264.9 171.223 261.753 174.79C261.111 175.517 260.521 176.315 260.199 177.23C259.575 178.998 260.025 180.974 260.8 182.681C263.446 188.506 269.733 192.166 276.113 192.784C282.492 193.401 288.894 191.331 294.46 188.159C295.974 187.297 297.183 186.472 298.035 185.225C298.495 186.653 298.959 188.079 299.43 189.503C301.83 196.762 304.397 203.972 307.37 211.018C305.04 208.631 302.604 206.354 299.87 204.452C295.846 201.653 291.07 199.689 286.167 199.819C281.406 199.945 276.735 202.126 273.588 205.693C272.946 206.421 272.357 207.218 272.034 208.133C271.41 209.901 271.86 211.878 272.636 213.585C275.282 219.41 281.569 223.07 287.948 223.687C294.327 224.304 300.729 222.234 306.295 219.063C307.719 218.252 308.873 217.476 309.714 216.351C313.09 223.705 316.973 230.838 321.545 237.522C326.424 244.657 332.132 251.232 338.739 256.828C339.575 257.535 340.424 258.224 341.287 258.899C342.432 259.794 343.724 257.945 342.583 257.053C335.837 251.778 330.003 245.441 324.994 238.515C321.555 233.76 318.51 228.735 315.771 223.55C316.825 223.66 317.922 223.546 319.152 223.349C325.481 222.339 331.77 219.947 336.352 215.476C340.935 211.004 343.534 204.22 341.936 198.027C341.468 196.212 340.577 194.389 338.981 193.403C338.155 192.892 337.194 192.64 336.237 192.474C331.544 191.664 326.535 192.886 322.746 195.765C318.844 198.732 316.357 203.248 314.981 207.947C313.98 211.363 313.515 214.899 313.199 218.451C312.826 217.68 312.459 216.908 312.098 216.132C308.517 208.423 305.52 200.465 302.78 192.424C304.197 192.831 305.631 192.716 307.317 192.446C313.645 191.436 319.934 189.044 324.517 184.572C329.099 180.101 331.698 173.317 330.101 167.123C329.632 165.308 328.741 163.486 327.145 162.499C326.319 161.988 325.359 161.736 324.401 161.571C319.708 160.76 314.699 161.982 310.91 164.862C307.009 167.828 304.521 172.345 303.145 177.043C302.095 180.625 301.635 184.338 301.318 188.064C298.821 180.491 296.493 172.864 294.053 165.274C293.426 163.323 292.789 161.375 292.142 159.43C293.517 159.794 294.916 159.676 296.551 159.415C302.88 158.404 309.168 156.013 313.751 151.542C318.334 147.07 320.933 140.286 319.335 134.092C318.866 132.277 317.976 130.455 316.379 129.468C315.554 128.956 314.595 128.704 313.637 128.538Z" fill="#BF8FFD"/>
</svg>
