<svg width="172" height="189" viewBox="0 0 172 189" fill="none" xmlns="http://www.w3.org/2000/svg">
<path d="M70.6014 42.8673C70.6014 57.3285 58.8799 69.0493 44.4204 69.0493C29.9612 69.0493 18.2395 57.3285 18.2395 42.8673C18.2395 28.4097 29.9612 16.6871 44.4204 16.6871C58.8799 16.6871 70.6014 28.4097 70.6014 42.8673Z" fill="#D9F2F5"/>
<path d="M118.275 76.6919C118.275 85.1447 111.423 91.9969 102.97 91.9969C94.5166 91.9969 87.6638 85.1447 87.6638 76.6919C87.6638 68.239 94.5166 61.3868 102.97 61.3868C111.423 61.3868 118.275 68.239 118.275 76.6919Z" fill="#D9F2F5"/>
<path d="M87.3004 154.496C85.7066 155.967 83.1306 158.014 80.9487 159.455C78.5346 158.395 75.6662 156.796 73.8796 155.606C72.0055 156.687 69.0518 158.112 66.6094 159.043C64.5948 157.483 62.2717 155.308 60.8704 153.765C58.8012 154.413 55.5986 155.171 53.0145 155.56C51.4682 153.608 49.7828 150.989 48.8202 149.185C46.6519 149.372 43.3503 149.42 40.7378 149.235C39.7327 146.992 38.7562 144.063 38.2749 142.081C36.1126 141.782 32.8802 141.082 30.3753 140.299C29.9615 137.864 29.7456 134.746 29.7767 132.668C26.629 131.589 21.4098 128.345 19.7594 127.194C19.2994 126.315 18.8566 125.425 18.4412 124.517C18.9247 141.426 28.2121 157.131 43.4813 166.857C57.9683 176.085 76.2116 178.866 93.1747 174.59V156.11C91.0242 155.665 88.7934 155.107 87.3004 154.496Z" fill="#216D44"/>
<path d="M103.09 186.174C101.71 189.218 102.228 192.565 104.259 195.021C104.508 195.321 104.893 195.482 105.283 195.482H135.385C136.855 195.482 137.251 193.48 135.905 192.889C135.873 192.874 135.841 192.861 135.809 192.847C134.543 192.301 134.791 190.463 136.157 190.273C137.688 190.06 139.23 189.94 140.772 189.916C142.199 189.891 142.602 187.91 141.29 187.351C137.056 185.543 132.374 184.686 127.631 184.855C126.404 184.899 125.796 183.393 126.684 182.547C130.727 178.691 132.393 173.112 130.714 167.893C127.276 157.212 111.344 152.762 100.314 164.909C99.8462 165.425 99.8649 166.237 100.362 166.726C105.568 171.824 106.817 179.566 103.09 186.174Z" fill="#24774D"/>
<path d="M148.224 84.9634C146.314 85.5334 146.675 87.5781 148.035 88.0703C152.575 89.7098 150.688 92.2227 149.101 92.1025C146.205 91.8804 146.164 94.125 147.222 94.9374C147.679 95.2889 148.159 95.6646 148.633 96.0458C149.751 96.9451 149.212 98.7419 147.783 98.8714C146.21 99.0121 141.94 99.6949 141.649 101.264C140.757 106.066 122.94 115.544 105.397 111.249C95.1688 108.745 99.6312 92.1321 110.09 95.4425C115.106 97.0284 130.922 98.9695 131.014 94.9855C131.229 85.6684 140.208 79.8765 148.28 81.875C149.875 82.2692 149.799 84.4953 148.224 84.9634Z" fill="#24774D"/>
<path d="M81.7468 163.863C81.7468 163.863 77.0059 157.27 74.5813 153.739L79.3997 146.757L74.6498 139.844L79.4682 132.862L74.7182 125.951L79.5368 118.969L74.7869 112.056L79.604 105.083L74.8555 98.1608L79.6724 91.1882L74.924 84.2657C77.3838 80.7017 81.7468 74.0604 81.7468 74.0604V163.863Z" fill="#25784E"/>
<path d="M121.031 73.2888V159.705C121.031 167.649 114.893 174.148 107.391 174.148H94.3416C86.8393 174.148 80.7012 167.649 80.7012 159.705V73.2888C80.7012 65.3448 86.8393 58.846 94.3416 58.846H107.391C114.893 58.846 121.031 65.3448 121.031 73.2888Z" fill="#2C885B"/>
<path d="M121.031 80.1373V159.705C121.031 162.173 120.44 164.509 119.394 166.553C118.951 167.421 118.417 168.239 117.814 168.998C115.314 172.138 111.563 174.148 107.391 174.148H95.4214V94.5801C95.4214 92.1134 96.0124 89.7782 97.0694 87.7316C97.5128 86.8655 98.0472 86.0476 98.6495 85.289C101.15 82.1358 104.901 80.1373 109.062 80.1373H121.031Z" fill="#8BC156"/>
<path d="M121.031 85.289V87.7316H97.0696C97.5129 86.8656 98.0474 86.0477 98.6497 85.289H121.031Z" fill="#2C885B"/>
<path d="M121.031 98.8288V101.271H95.4214V98.8288H121.031Z" fill="#2C885B"/>
<path d="M121.031 112.369V114.824H95.4214V112.369H121.031Z" fill="#2C885B"/>
<path d="M121.031 125.921V128.364H95.4214V125.921H121.031Z" fill="#2C885B"/>
<path d="M121.031 139.461V141.917H95.4214V139.461H121.031Z" fill="#2C885B"/>
<path d="M121.031 153.014V155.456H95.4214V153.014H121.031Z" fill="#2C885B"/>
<path d="M119.394 166.553C118.951 167.421 118.417 168.239 117.814 168.998H95.4214V166.553H119.394Z" fill="#2C885B"/>
<path d="M77.1004 74.3604C59.8335 73.4296 55.707 49.7049 71.5842 42.9619L133.049 23.0899L131.133 12.187C130.588 9.07822 132.664 6.11565 135.773 5.56977L137.233 5.31439C140.342 4.76665 143.304 6.84473 143.85 9.9535L145.453 19.0799L147.525 18.4101L145.593 7.41281C145.047 4.3059 147.124 1.34332 150.232 0.79744L151.693 0.540222C154.801 -0.00566101 157.763 2.07057 158.309 5.17933L159.93 14.3983L162.163 13.6766C173.22 21.3375 175.074 37.2514 165.354 47.2845C149.572 57.8081 135.601 63.1244 125.455 66.0426C104.37 72.1084 77.1004 74.3604 77.1004 74.3604Z" fill="#2C885B"/>
<path d="M89.6029 39.7254L66.1919 46.9106L59.096 23.7855C57.1121 17.3219 60.7447 10.4715 67.2095 8.48783C73.6742 6.50415 80.5231 10.1366 82.507 16.6021L89.6029 39.7254Z" fill="#2C885B"/>
<path d="M64.6586 32.7695C62.9966 27.3533 65.8006 21.6946 70.932 20.1198C76.0635 18.5451 81.5716 21.652 83.2338 27.0701" stroke="#171717" stroke-width="1.27742" stroke-miterlimit="10"/>
<path d="M115.496 31.7794L92.0847 38.9647L84.9888 15.8396C83.0049 9.376 86.6374 2.52748 93.1023 0.541946C99.567 -1.44174 106.416 2.1907 108.4 8.65618L115.496 31.7794Z" fill="#2C885B"/>
<path d="M90.552 24.8237C88.8898 19.4075 91.6939 13.7488 96.8254 12.174C101.957 10.5993 107.465 13.7062 109.127 19.1243" stroke="#171717" stroke-width="1.27742" stroke-miterlimit="10"/>
<path d="M143.312 39.5367C142.543 37.033 141.118 34.8921 139.258 33.1656C137.851 39.2406 132.755 44.6902 125.588 46.8904C118.42 49.0887 111.144 47.4344 106.572 43.195C106 45.6672 106.022 48.2412 106.79 50.7449C108.357 55.8503 112.603 59.4938 117.885 61.0038C120.336 58.0745 123.771 55.7152 127.907 54.4458C132.042 53.1782 136.21 53.2041 139.881 54.2533C143.407 50.0399 144.878 44.6421 143.312 39.5367Z" fill="#171717"/>
<path d="M117.885 61.0037C121.556 62.0529 125.724 62.0789 129.86 60.8094C133.995 59.5419 137.43 57.1807 139.881 54.2533C136.21 53.2041 132.042 53.1782 127.907 54.4457C123.771 55.7151 120.336 58.0745 117.885 61.0037Z" fill="#EC1C26"/>
<path d="M64.7436 159.167C61.6615 157.875 58.3293 158.491 55.935 160.593C55.6417 160.85 55.493 161.241 55.5043 161.631L56.384 191.72C56.4269 193.189 58.4389 193.526 58.9903 192.164C59.0033 192.131 59.0162 192.099 59.029 192.066C59.5386 190.785 61.382 190.978 61.6126 192.338C61.8711 193.863 62.0358 195.4 62.1056 196.942C62.1701 198.367 64.1625 198.713 64.684 197.384C66.3664 193.098 67.0874 188.394 66.7798 183.657C66.7002 182.432 68.1865 181.781 69.059 182.645C73.0308 186.574 78.6567 188.076 83.8241 186.244C94.3993 182.495 98.3828 166.441 85.9187 155.771C85.3898 155.318 84.5769 155.36 84.1045 155.871C79.1608 161.222 71.4572 162.697 64.7436 159.167Z" fill="#2C885B"/>
<path d="M51.383 107.502C53.7349 112.855 79.333 114.969 92.1224 106.627C100.158 101.386 92.2025 87.3505 83.0822 92.8075C47.4156 114.141 41.2503 68.0096 51.383 107.502Z" fill="#2C885B"/>
<path d="M58.0873 118.207L47.1452 121.373L36.4055 79.6415L44.8915 77.186L58.0873 118.207Z" fill="#994937"/>
<path d="M-17 28.4876L62.744 5.42166L81.1512 69.0606L1.40721 92.1265L-17 28.4876Z" fill="#FF8BD2"/>
<path d="M30.1726 52.5898L31.0351 45.2379L35.6807 50.9966L30.1726 52.5898ZM13.1183 77.6875C13.3755 78.5775 13.7987 79.4547 14.4336 80.2596C15.0459 81.0201 15.7918 81.6252 16.5986 82.0694C18.3608 83.0408 20.318 83.2074 22.1624 82.6745C23.3644 82.3266 24.6962 81.6548 25.7493 80.4224C26.6863 79.3122 27.1719 78.0298 27.3281 76.7808C27.3338 76.7697 27.9369 71.7605 28.3436 68.3223L45.6339 63.3224L50.8696 69.8564C51.2232 70.306 51.6612 70.6798 52.1377 70.9703C52.8035 71.4829 53.5971 71.9122 54.5116 72.175C55.9433 72.5895 57.336 72.5007 58.5545 72.1472C59.4355 71.8919 60.2852 71.4681 61.045 70.8556C61.8411 70.2154 62.4497 69.4511 62.8943 68.6443C63.3392 67.8375 63.6693 66.9123 63.7779 65.8983C63.8901 64.9286 63.7953 63.9849 63.5405 63.1041C63.3212 62.3454 62.9621 61.5663 62.3993 60.8539C62.3555 60.7965 31.6163 22.6939 31.6163 22.6939C31.5075 22.5644 31.3882 22.4293 31.2653 22.3127C31.1589 22.1924 31.0547 22.0684 30.938 21.9519C30.0891 21.1062 28.9528 20.3938 27.5587 20.0477C26.2402 19.7165 24.9454 19.8053 23.7928 20.1384C22.5165 20.5067 21.232 21.2172 20.2186 22.4033C19.1596 23.6469 18.6839 25.0865 18.5283 26.3985C18.5247 26.417 12.8716 74.5824 12.8716 74.5824C12.7713 75.5928 12.8111 76.6253 13.1183 77.6875Z" fill="white"/>
<path d="M38.0905 100.089C40.4961 94.1823 46.9081 90.6017 53.1749 91.575C54.817 91.8304 55.0614 94.0898 53.5105 94.6875C51.6547 95.4018 52.1708 97.4114 53.5633 97.7963C58.2151 99.086 56.5262 101.736 54.9341 101.736C52.0296 101.736 52.1606 103.977 53.2776 104.708C53.7602 105.022 54.2668 105.359 54.7689 105.703C55.952 106.516 55.5527 108.349 54.1373 108.586C52.5798 108.847 48.3742 109.854 48.2038 111.44C47.9501 111.528 47.6949 111.604 47.4392 111.667C40.8551 113.31 35.5316 106.375 38.0905 100.089Z" fill="#24774D"/>
</svg>
