<svg width="96" height="75" viewBox="0 0 96 75" fill="none" xmlns="http://www.w3.org/2000/svg">
<path d="M101.072 72.0857C101.056 72.5604 100.96 72.715 100.538 72.859C100.33 72.9337 100.106 73.0084 99.893 73.0297C90.9807 73.8777 72.1 87.9476 68.8786 95.2065C68.8306 95.3132 68.7879 95.4199 68.7452 95.5266C68.2759 96.7266 66.1638 97.628 65.0064 97.964C57.9875 100.001 57.2781 99.884 55.5394 98.876L55.5341 98.8707C54.5527 98.2946 53.246 97.4413 50.3125 96.5239C36.392 92.1771 21.2448 93.6012 17.618 95.4999C17.4046 95.6119 17.154 95.6599 16.914 95.7132C15.8419 95.9479 16.0126 94.8758 14.4285 89.2863C14.3325 88.929 14.2259 88.5663 14.1138 88.1769C13.9698 87.6863 13.8045 87.1529 13.6338 86.5875C11.7138 80.3366 3.69746 50.2982 0.614681 39.9191C0.385339 39.1404 0.300002 38.6871 0.977361 38.4098C1.64405 38.1377 2.38541 37.8871 3.19078 37.6631C11.9804 35.1936 28.4824 35.5883 40.3122 39.4551C41.4909 39.8391 42.6162 40.2552 43.6883 40.7085C47.5764 42.3566 47.1551 42.7832 47.5818 42.0685C48.7605 40.0951 50.1845 38.1751 51.7953 36.335C56.8994 30.4841 63.785 25.4119 70.0626 21.6465C74.1481 19.193 76.4682 18.041 81.3537 16.3503C81.8924 16.1689 82.4311 15.9876 82.9804 15.8382C83.6898 15.6356 84.4151 15.4756 85.1565 15.4009C85.6258 15.3529 85.8445 15.4756 86.0045 15.9076C86.0419 16.0196 87.3112 20.6544 90.074 30.7828L90.0473 30.7881C90.1807 31.2628 90.794 33.5296 91.6741 36.7884L91.7221 36.959C94.8262 48.4048 101.093 71.6003 101.072 72.0857Z" fill="#6B7FFF"/>
<path d="M70.0595 71.7426L72.9806 73.5906C73.0558 73.6381 73.1492 73.6456 73.2308 73.6109L76.409 72.2519C76.6144 72.1639 76.8315 72.35 76.776 72.5666L75.921 75.9155C75.8991 76.0014 75.921 76.0926 75.9792 76.1593L78.2534 78.762C78.4 78.93 78.2907 79.194 78.0678 79.2084L74.6186 79.4303C74.53 79.4362 74.45 79.4847 74.4047 79.561L72.6324 82.5286C72.5177 82.72 72.2329 82.6976 72.1507 82.4902L70.8739 79.2783C70.8414 79.1962 70.7699 79.1348 70.6835 79.1151L67.3138 78.346C67.0961 78.2964 67.0295 78.0185 67.2018 77.8761L69.8616 75.6691C69.9299 75.6126 69.9661 75.5256 69.9581 75.4376L69.6483 71.9954C69.6269 71.7719 69.8707 71.6236 70.0595 71.7426Z" fill="#FFCE00"/>
<path d="M91.8472 61.1652L93.2169 63.7599C93.2521 63.8266 93.3177 63.8714 93.3923 63.8805L96.306 64.2229C96.4943 64.2453 96.5754 64.4735 96.4431 64.6095L94.3988 66.7136C94.3465 66.7675 94.3236 66.8438 94.3385 66.9179L94.9129 69.7948C94.9502 69.9809 94.7577 70.1287 94.5876 70.0449L91.9544 68.751C91.8867 68.718 91.8072 68.7201 91.7416 68.7569L89.1831 70.1922C89.0178 70.285 88.8177 70.1479 88.845 69.9601L89.262 67.056C89.2727 66.9814 89.246 66.9067 89.1906 66.8555L87.0348 64.8656C86.8955 64.737 86.9638 64.5045 87.151 64.4719L90.0418 63.9711C90.1159 63.9583 90.1789 63.9098 90.2103 63.8415L91.4365 61.1764C91.5165 61.0046 91.7587 60.9977 91.8472 61.1652Z" fill="#FFCE00"/>
<path d="M60.1209 34.9706L62.2464 35.6202C62.3008 35.6367 62.36 35.6255 62.4048 35.5903L64.1446 34.2079C64.2571 34.1188 64.423 34.1972 64.4256 34.3407L64.4646 36.5626C64.4656 36.6197 64.4944 36.6725 64.5419 36.704L66.3943 37.9318C66.5137 38.0112 66.4908 38.1931 66.3548 38.2401L64.2534 38.9638C64.1995 38.9825 64.1579 39.0262 64.143 39.0811L63.5477 41.2226C63.5093 41.3607 63.3291 41.3954 63.2427 41.2807L61.905 39.5057C61.8709 39.4604 61.8159 39.4342 61.7594 39.4369L59.5391 39.5324C59.3956 39.5388 59.3071 39.3777 59.3897 39.2598L60.6644 37.4395C60.697 37.3926 60.705 37.3328 60.6847 37.2795L59.9076 35.1973C59.8575 35.0623 59.9833 34.929 60.1209 34.9706Z" fill="#FFCE00"/>
<path d="M30.1505 46.1657L32.165 48.8516C32.2167 48.9204 32.2988 48.9594 32.3852 48.9562L35.74 48.8196C35.9566 48.8106 36.0894 49.0543 35.9646 49.2319L34.0322 51.9776C33.9826 52.048 33.9709 52.1387 34.0008 52.2192L35.1672 55.3676C35.2424 55.5708 35.052 55.7724 34.8445 55.7084L31.6359 54.719C31.5537 54.6934 31.4641 54.7105 31.3964 54.7638L28.7627 56.846C28.5926 56.9805 28.3419 56.8615 28.3387 56.6444L28.288 53.287C28.287 53.2011 28.2432 53.1211 28.1712 53.0731L25.377 51.2117C25.1962 51.0912 25.2324 50.8165 25.4372 50.7461L28.6144 49.6602C28.696 49.6324 28.7584 49.5663 28.7819 49.4831L29.6886 46.2505C29.7478 46.043 30.0203 45.9918 30.1505 46.1657Z" fill="#FFCE00"/>
<path d="M82.9809 15.8381C82.4315 15.9875 81.8929 16.1688 81.3542 16.3501C76.4686 18.0409 74.1486 19.1929 70.0631 21.6464C63.7855 25.4118 56.8999 30.484 51.7957 36.3349C50.185 38.175 48.7609 40.095 47.5822 42.0684C47.1555 42.7831 47.5769 42.3565 43.6887 40.7084C42.6167 40.255 41.4913 39.839 40.3126 39.455C28.4828 35.5882 11.9809 35.1935 3.19125 37.663C3.14858 37.6096 3.11124 37.5296 3.06857 37.4283C0.823155 31.7587 1.45785 34.1695 5.12732 32.8148C5.86868 32.5428 6.04468 32.2547 5.48466 29.4706C5.39933 29.0386 5.26599 28.6119 5.26599 28.1586C5.26599 27.7959 5.30332 27.7372 5.68734 27.7426C8.10876 27.7906 9.98083 28.0093 13.517 27.4919C18.6478 26.7399 30.7763 22.4677 41.3207 29.9933C44.5635 32.3081 44.7235 33.4388 44.8941 32.7134C47.2729 22.5371 55.5612 16.8195 65.3696 13.5874C70.9431 11.7473 70.9538 11.55 75.7913 8.57386C76.6553 8.04051 76.4793 9.8059 77.8127 12.206C78.0847 12.6967 78.282 12.7874 78.8474 12.6647C81.8448 12.03 82.1755 10.7233 82.4849 12.5047C82.4902 12.5313 82.9809 15.4595 82.9862 15.4915C82.9969 15.6408 83.0022 15.7475 82.9809 15.8381Z" fill="white"/>
<path d="M77.6534 60.6228L79.7789 61.2724C79.8333 61.289 79.8925 61.2778 79.9373 61.2426L81.6771 59.8601C81.7896 59.771 81.9555 59.8489 81.9581 59.9929L81.9971 62.2149C81.9981 62.2719 82.0269 62.3247 82.0744 62.3562L83.9267 63.584C84.0467 63.6635 84.0233 63.8453 83.8873 63.8922L81.7859 64.616C81.732 64.6347 81.6904 64.6784 81.6755 64.7334L81.0802 66.8748C81.0418 67.0129 80.8616 67.0476 80.7752 66.9329L79.4375 65.1579C79.4034 65.1126 79.3484 65.0864 79.2919 65.0891L77.0716 65.1846C76.9281 65.191 76.8401 65.0299 76.9222 64.912L78.1969 63.0917C78.2295 63.0448 78.2375 62.985 78.2172 62.9317L77.4401 60.8495C77.39 60.7145 77.5158 60.5812 77.6534 60.6228Z" fill="white"/>
<path d="M77.7647 24.8187L79.7792 27.5047C79.831 27.5735 79.9131 27.6124 79.9995 27.6092L83.3543 27.4727C83.5708 27.4641 83.7042 27.7073 83.5788 27.8849L81.6465 30.6307C81.5969 30.7011 81.5852 30.7917 81.615 30.8723L82.7815 34.0206C82.8567 34.2239 82.6663 34.4255 82.4588 34.3615L79.2501 33.3721C79.168 33.3465 79.0784 33.3636 79.0107 33.4169L76.377 35.4991C76.2068 35.6335 75.9562 35.5146 75.953 35.2975L75.9023 31.9406C75.9012 31.8547 75.8575 31.7742 75.7855 31.7267L72.9912 29.8653C72.8104 29.7453 72.8467 29.4701 73.0515 29.3997L76.2287 28.3138C76.3103 28.286 76.3727 28.2199 76.3962 28.1367L77.3029 24.904C77.3621 24.696 77.6346 24.6454 77.7647 24.8187Z" fill="white"/>
<path d="M17.0932 61.3486L20.0618 64.1369C20.1381 64.2084 20.2448 64.2377 20.3466 64.2159L24.3265 63.3513C24.5836 63.2953 24.7932 63.5588 24.6812 63.7966L22.9467 67.4816C22.9019 67.576 22.9073 67.6864 22.9595 67.7771L25.0119 71.295C25.1447 71.5223 24.9591 71.8033 24.6977 71.7703L20.6571 71.2593C20.5536 71.246 20.4501 71.2849 20.3802 71.3628L17.6687 74.4018C17.4937 74.5981 17.1689 74.5085 17.1199 74.2498L16.3572 70.2491C16.3374 70.1467 16.2686 70.0603 16.1732 70.0182L12.445 68.3781C12.2039 68.272 12.1895 67.936 12.42 67.8091L15.9892 65.8474C16.0809 65.7972 16.1417 65.705 16.1524 65.601L16.5598 61.5486C16.5865 61.2861 16.9012 61.1683 17.0932 61.3486Z" fill="white"/>
<path d="M77.7707 12.9763C76.2517 13.5725 74.7311 14.2067 73.243 14.8937C71.7464 15.5625 70.2669 16.2692 68.8135 17.0223C65.9046 18.5226 63.0715 20.1637 60.3988 22.024C57.7358 23.8897 55.2226 25.9794 53.1138 28.4206C52.0486 29.6307 51.1196 30.9556 50.3739 32.3743C49.6048 33.7818 49.0475 35.2987 48.7083 36.8758L48.7067 36.8822C48.6672 37.0651 48.4869 37.182 48.304 37.1425C48.1317 37.1057 48.0186 36.9425 48.0384 36.7713C48.2357 35.0901 48.7605 33.4565 49.4688 31.9194C50.1958 30.3881 51.1265 28.9592 52.19 27.6525C53.245 26.3362 54.4285 25.1324 55.6781 24.014C56.9379 22.9068 58.2627 21.8811 59.6265 20.9163C62.3802 19.025 65.2817 17.3711 68.293 15.9652C69.7976 15.2611 71.3214 14.6003 72.8638 13.9896C74.4169 13.4013 75.9685 12.829 77.5739 12.3698C77.7429 12.3213 77.9195 12.4194 77.968 12.589C78.0134 12.748 77.9296 12.9133 77.7792 12.973L77.7707 12.9763Z" fill="#A8AFC2"/>
<path d="M6.10525 31.9046C7.72131 31.4832 9.34804 31.1867 10.9844 30.9034C12.6228 30.6442 14.2709 30.4384 15.9243 30.2794C19.2316 29.9584 22.5715 29.9061 25.9038 30.1338C27.569 30.2709 29.2309 30.48 30.879 30.7925C32.5233 31.1205 34.1554 31.5547 35.7325 32.1515C37.3133 32.7355 38.8409 33.4923 40.2457 34.4406C41.6372 35.4039 42.9205 36.5437 43.9451 37.8904C44.0587 38.0392 44.0299 38.252 43.8805 38.3656C43.7408 38.4723 43.5445 38.4531 43.4272 38.3267L43.4218 38.3208C42.3274 37.1352 41.0761 36.1132 39.698 35.2924C38.3342 34.4508 36.8605 33.782 35.3277 33.2822C32.2705 32.2534 29.0437 31.7328 25.802 31.4811C22.5544 31.2389 19.2812 31.2672 16.0134 31.4549C14.3786 31.5461 12.7455 31.6901 11.1166 31.8752C9.48617 32.0406 7.85465 32.2683 6.24339 32.5275L6.23592 32.5286C6.06205 32.5563 5.8983 32.4384 5.87057 32.2646C5.84497 32.1008 5.94897 31.9462 6.10525 31.9046Z" fill="#A8AFC2"/>
<path d="M53.5275 38.4245L68.7681 94.1818C68.8614 94.5232 68.8955 94.8688 68.879 95.2042C68.8161 96.5808 67.8747 97.8246 66.4699 98.2086L59.1373 100.213C57.7378 100.595 56.3036 100.013 55.5409 98.8737L55.534 98.87C55.3473 98.5841 55.1996 98.2636 55.1046 97.9169L39.8646 42.1596C39.6016 41.1969 39.7926 40.2241 40.311 39.4566C40.7334 38.824 41.3777 38.3408 42.1671 38.1253L49.4996 36.121C50.2943 35.9039 51.1018 35.9962 51.7962 36.3359C52.6133 36.7311 53.2672 37.4725 53.5275 38.4245Z" fill="#332FBA"/>
<path d="M48.2422 45.9327C51.397 45.0612 52.9912 49.6822 49.6044 50.7793C48.2646 51.2134 46.751 50.3552 46.4 49.0139C46.0768 47.7776 46.775 46.3087 48.2422 45.9327Z" fill="#6B7FFF"/>
<path d="M50.8419 69.9666C53.1817 78.5259 56.7301 85.0136 58.7675 84.4562C60.8049 83.8994 60.5601 76.5092 58.2208 67.95C55.881 59.3907 52.3326 52.903 50.2957 53.4604C48.2573 54.0172 48.5021 61.4073 50.8419 69.9666Z" fill="#6B7FFF"/>
<path opacity="0.25" d="M91.6763 36.7861L91.7238 36.9595C94.8285 48.4074 101.096 71.5992 101.072 72.0867C101.057 72.5597 100.961 72.7128 100.537 72.8584C100.329 72.9331 100.108 73.0056 99.8921 73.0285C90.9798 73.8766 72.0985 87.947 68.8782 95.2038C68.8152 96.5804 67.8739 97.8242 66.469 98.2082L59.1365 100.213C57.7369 100.595 56.3028 100.012 55.5401 98.8732L55.5331 98.8695C54.5523 98.2956 53.2482 97.4428 50.3143 96.5244C36.3911 92.1786 21.2465 93.5989 17.6213 95.4982C17.4053 95.6113 17.1546 95.6619 16.9168 95.7147C15.8437 95.9478 16.0127 94.8731 14.4313 89.2836C14.3348 88.9305 14.2281 88.563 14.1172 88.1779C25.3773 79.4576 37.9207 81.9905 50.622 81.5147C55.292 81.3451 59.9813 80.7611 64.6375 79.0677C66.2029 78.5013 67.7688 77.8026 69.3224 76.9508C77.0321 72.7379 82.4973 63.3514 85.114 55.2066C86.7887 50.0032 87.4655 41.2999 91.6763 36.7861Z" fill="#0A1640"/>
<path d="M64.7235 56.9879C65.4585 54.8268 68.3658 53.4961 70.5344 53.7553C72.6817 54.0118 73.5244 56.2673 71.2272 58.1522C68.0805 60.7352 63.7704 59.7918 64.7235 56.9879Z" fill="#D811AD"/>
<path d="M89.6339 46.3151C87.5623 45.3561 84.5937 46.5433 83.2854 48.2922C81.9899 50.024 83.0416 52.1894 85.9911 51.8267C90.0312 51.3302 92.3214 47.5588 89.6339 46.3151Z" fill="#D811AD"/>
<path d="M79.2251 46.5496C79 46.6477 78.895 46.9144 78.9931 47.1395C79.7515 48.8702 79.5632 51.2591 77.7162 52.2773C76.7573 52.8031 75.8522 52.6655 75.2586 52.4533C74.1353 52.0436 73.1433 51.0527 72.6707 49.8601C72.5801 49.6281 72.3208 49.5161 72.0846 49.6084C71.8526 49.699 71.7406 49.9582 71.8312 50.1902C72.3955 51.6191 73.5902 52.8074 74.9556 53.3002C75.7412 53.5818 76.5349 53.6186 77.2869 53.4149C77.5824 53.3349 77.8688 53.2197 78.1531 53.0634C80.4667 51.7882 80.7366 48.8734 79.8193 46.7794C79.7201 46.5506 79.4635 46.4477 79.2251 46.5496Z" fill="#0A1640"/>
<path d="M84.6709 40.8187C84.441 40.9184 84.3408 41.1835 84.44 41.4134C84.8864 42.4406 84.8618 43.814 83.9359 44.3404C83.6042 44.5282 83.2378 44.5527 82.8458 44.4162C82.2009 44.1895 81.5711 43.5345 81.2692 42.7809C81.1785 42.5489 80.9182 42.4326 80.683 42.5292C80.451 42.6198 80.3401 42.8833 80.4313 43.1153C80.8308 44.1084 81.6628 44.9559 82.5492 45.2663C83.0026 45.4237 83.4517 45.4466 83.8778 45.3309C84.0517 45.2839 84.2197 45.2151 84.3818 45.1245C85.768 44.3335 85.8704 42.4396 85.2656 41.0496C85.1627 40.8256 84.897 40.7243 84.6709 40.8187Z" fill="#0A1640"/>
<path d="M68.1581 47.8962C67.9341 47.9991 67.8333 48.2642 67.9373 48.4924C68.276 49.2263 68.3139 50.14 68.0344 50.7619C67.8659 51.1389 67.5923 51.3854 67.2264 51.499C66.2077 51.803 65.1954 50.8733 64.7623 49.8429C64.6668 49.612 64.4007 49.5069 64.174 49.6008C63.9431 49.6957 63.8337 49.9634 63.9335 50.1933C64.5111 51.5672 65.9234 52.7849 67.4232 52.3785L67.4882 52.3609C68.1053 52.1747 68.5774 51.7486 68.8579 51.1309C69.2419 50.2754 69.2056 49.0909 68.755 48.1164C68.6547 47.8871 68.3854 47.7879 68.1581 47.8962Z" fill="#0A1640"/>
<path d="M86.4279 15.7532C86.198 15.1297 85.7906 14.8806 85.1143 14.9521C84.5286 15.0129 83.9563 15.1212 83.4006 15.2577C83.359 14.9841 83.2443 14.3014 82.9536 12.5744L82.928 12.4272C82.8406 11.9141 82.7307 11.44 82.3552 11.2432C81.9787 11.0421 81.5909 11.2122 81.0581 11.4501C80.5413 11.6789 79.8389 11.9952 78.753 12.224C78.3828 12.3056 78.3828 12.3056 78.2073 11.9845C77.6692 11.0149 77.3801 10.137 77.17 9.49856C76.9214 8.73533 76.7571 8.23397 76.3129 8.0745C76.0798 7.98863 75.8238 8.02491 75.556 8.19078C75.0355 8.50919 74.5768 8.79666 74.1528 9.0564C70.6892 11.2031 70.1537 11.5349 65.2282 13.1589C53.7526 16.9399 46.8067 23.3337 44.5656 32.1623C44.085 31.6626 43.2188 30.7916 41.5825 29.6252C32.4883 23.1311 22.3077 25.2501 16.2296 26.5141C15.1522 26.7408 14.2199 26.9328 13.4529 27.0469C10.6523 27.456 8.91943 27.3979 7.08736 27.3344C6.63454 27.3168 6.17799 27.3008 5.7001 27.295C5.52196 27.2918 5.23022 27.2821 5.02008 27.4886C4.81314 27.6891 4.81527 27.9734 4.81474 28.16C4.8126 28.5478 4.89367 28.8993 4.97261 29.2417C4.99661 29.3473 5.02488 29.4513 5.04568 29.5628C5.57103 32.1735 5.38436 32.2423 4.97208 32.3917C3.94164 32.7736 3.18054 32.8397 2.62426 32.8877C2.08557 32.9309 1.66262 32.9709 1.43168 33.3416C1.14047 33.8173 1.36341 34.3821 2.20184 36.4782C2.31224 36.747 2.43012 37.0462 2.56025 37.3705C1.94476 37.5609 1.35754 37.7711 0.807122 37.9951C-0.291052 38.4372 -0.0158427 39.3658 0.186298 40.0437C3.24988 50.3699 13.8967 89.0439 13.9996 89.4082C14.4396 90.964 14.7372 92.148 14.9767 93.1001C15.6023 95.5807 15.8141 96.4143 17.0131 96.1551L17.0707 96.1439C17.308 96.089 17.5763 96.0303 17.8296 95.8964C21.066 94.203 35.9695 92.5166 50.1796 96.953C52.7803 97.7696 54.0736 98.5296 55.0171 99.0859C55.0891 99.127 55.1606 99.1686 55.2283 99.2107C56.1329 100.482 57.7314 101.061 59.2488 100.65C59.2488 100.65 59.253 100.649 59.2573 100.648L66.5898 98.6427C68.119 98.224 69.207 96.9023 69.3195 95.3369C72.5335 88.3074 90.9155 74.3356 99.9399 73.4769C100.198 73.4487 100.456 73.3649 100.686 73.2844C101.282 73.0759 101.503 72.7692 101.523 72.1057C101.529 71.9361 101.479 71.3899 93.9994 43.6806C90.3939 30.3233 86.4647 15.8556 86.4279 15.7532ZM3.03814 36.1401C2.59492 35.0376 2.24184 34.1485 2.21411 33.8392C2.32505 33.8184 2.52985 33.8003 2.69786 33.7827C3.27281 33.7341 4.13844 33.6584 5.28409 33.236C6.43826 32.8114 6.4612 32.0354 5.92518 29.3857C5.90331 29.2705 5.87558 29.1516 5.84944 29.0374C5.78491 28.7473 5.7193 28.471 5.71504 28.1968C6.17959 28.2064 6.61694 28.2182 7.05962 28.2336C8.93009 28.3008 10.7014 28.3622 13.5815 27.9366C14.3756 27.8192 15.3213 27.624 16.4125 27.3984C22.3487 26.1632 32.2824 24.097 41.0577 30.3607C42.7052 31.5335 43.5362 32.3954 43.9831 32.8573C44.3453 33.2301 44.565 33.4552 44.9 33.365L44.9042 33.364C45.2258 33.277 45.3016 32.9533 45.3336 32.8136C47.3726 24.082 54.1638 17.7533 65.5066 14.0177C70.5399 12.36 71.0828 12.0213 74.6307 9.8239C75.0462 9.56682 75.5006 9.28041 76.0137 8.96839C76.0985 9.12733 76.2179 9.48202 76.3134 9.78283C76.5374 10.4549 76.8382 11.3765 77.4206 12.4224C77.7876 13.088 78.1855 13.2651 78.9407 13.1072C80.1146 12.8592 80.905 12.5051 81.4261 12.2752C81.6048 12.1941 81.8053 12.1072 81.9216 12.0709C81.9504 12.1424 81.9904 12.2901 82.0395 12.5755L82.0651 12.7227C82.1579 13.2715 82.4784 15.1953 82.5312 15.494C82.0784 15.6305 81.6421 15.7767 81.2112 15.9265C76.2195 17.6525 73.8914 18.8242 69.8294 21.2595C64.6479 24.3663 57.3196 29.4033 51.6746 35.795C50.9471 35.5209 50.1476 35.4809 49.3871 35.6867C49.3871 35.6867 49.3828 35.6878 49.3785 35.6889L42.0492 37.6889C41.294 37.898 40.6289 38.3348 40.1409 38.929C29.9885 35.6937 13.246 34.4488 3.42909 37.1177C3.28508 36.7588 3.15548 36.435 3.03814 36.1401ZM53.1947 38.9231L53.5488 40.2128L68.3344 94.3017C68.4054 94.5625 68.4422 94.8372 68.4278 95.1114C68.4294 95.1343 68.431 95.1572 68.4283 95.1812C68.3739 96.409 67.5397 97.4469 66.3498 97.7738L59.0173 99.7793L59.013 99.7803C57.8349 100.099 56.5937 99.6331 55.9142 98.6229C55.9062 98.6112 55.8982 98.5995 55.8849 98.584C55.8748 98.5637 55.8614 98.5483 55.8513 98.528C55.7148 98.2992 55.6102 98.0523 55.5409 97.7957L40.6635 43.3681L40.3297 42.152L40.2993 42.039C40.1131 41.352 40.1915 40.6266 40.5115 39.9984C40.5633 39.896 40.6214 39.8005 40.6838 39.7045C40.8006 39.5327 40.935 39.3749 41.0844 39.2367C41.4177 38.9178 41.8305 38.6847 42.286 38.5567L49.6196 36.5556L49.6239 36.5545C50.0847 36.4297 50.5684 36.4244 51.0282 36.538C51.2266 36.5822 51.4181 36.6516 51.601 36.7417C51.7024 36.7892 51.8021 36.8457 51.8938 36.9097C52.48 37.2825 52.9077 37.8623 53.0928 38.5444L53.1947 38.9231ZM50.4506 96.0959C38.5243 92.3752 25.1035 92.8339 19.3443 94.3945C18.5443 94.6111 17.8904 94.8495 17.4125 95.1001C17.2653 95.1775 17.076 95.2191 16.8739 95.265L16.8205 95.2746C16.517 95.3428 16.4354 95.1967 15.8493 92.8782C15.6231 91.9736 15.3101 90.7336 14.8663 89.1645C14.7655 88.8092 4.11391 50.1171 1.04926 39.7872C0.803921 38.9669 0.871124 38.9396 1.14847 38.8271C1.75329 38.5791 2.40078 38.3524 3.09201 38.1465C9.52051 36.2323 19.3273 36.1598 28.174 37.314C32.3678 37.8623 36.3423 38.6842 39.6406 39.7178C39.3766 40.2933 39.2635 40.9259 39.3099 41.5616C39.3232 41.8006 39.3654 42.0411 39.4299 42.28L39.5323 42.6582L54.6107 97.8106C53.696 97.3114 52.4437 96.7178 50.4506 96.0959ZM100.622 72.102C100.614 72.2956 100.587 72.3356 100.588 72.3398C100.584 72.3409 100.556 72.3766 100.385 72.4364C100.215 72.4966 100.017 72.5596 99.8508 72.5814C91.6814 73.358 73.8989 85.8747 69.127 93.7838L54.1595 39.0399L53.9606 38.3055C53.9168 38.1444 53.8656 37.9908 53.7974 37.8409C53.527 37.1865 53.0709 36.6238 52.4917 36.2254C55.4401 32.9165 58.8434 29.9788 62.1465 27.4971C65.0661 25.3061 67.9078 23.4633 70.2961 22.0324C74.292 19.6291 76.5881 18.4754 81.5024 16.7751C82.08 16.5815 82.679 16.3815 83.2918 16.2156C83.9131 16.0471 84.5532 15.9111 85.2028 15.8471C85.4839 15.8172 85.4999 15.8412 85.5756 16.0353C85.7143 16.5297 100.32 70.2987 100.622 72.102Z" fill="#0A1640"/>
<path d="M16.5335 55.1984C16.117 55.311 15.6236 55.391 15.2732 55.4448L15.27 55.4326L14.9383 54.2075C14.4972 52.5791 14.2172 50.9481 13.7761 49.3187C13.7521 49.2302 13.7388 49.1801 13.702 49.0947C13.5276 49.1022 13.6252 49.8617 13.3473 49.9369C13.1953 49.978 11.7344 50.035 11.6934 49.883C11.5899 49.3022 12.3835 46.7832 12.4582 46.6546C12.8454 46.5357 13.2086 46.4237 13.5996 46.3181C14.0417 46.1981 14.4748 46.0941 14.9394 46.0093C15.1847 46.7154 15.3852 47.4067 15.5767 48.1139C16.0999 50.0452 16.4674 51.9508 16.9906 53.8821C17.0696 54.1728 17.1512 54.4752 17.2424 54.7627C17.2968 54.9638 16.8493 55.1131 16.5335 55.1984Z" fill="#0A1640"/>
<path d="M33.9508 71.8572L33.3822 72.0113C33.3668 72.0022 33.363 71.99 33.3598 71.9766C33.1529 70.8134 32.6505 69.7568 32.954 68.7269C33.5156 67.5983 34.4393 67.0095 35.1199 66.0671C35.6815 65.4404 35.2255 64.2089 34.4159 64.3193C33.5956 64.5417 33.7694 65.4841 33.8953 66.1001L33.9023 66.1257L33.89 66.1289C33.1561 66.4228 32.6238 66.6079 32.0382 66.698L32.0259 66.7012L32.019 66.6767C31.5016 65.57 31.4291 64.451 31.86 63.5896C32.2931 62.5379 34.3183 61.9613 35.3263 62.0813C36.1898 62.268 36.8005 62.9694 37.1349 63.8542C37.2432 64.2046 37.3888 64.6393 37.4683 64.9833C37.8224 66.8932 35.6223 67.4762 35.0143 68.8325C34.9962 69.0138 34.9183 69.5771 35.074 69.6032C36.2079 69.3371 37.0869 69.0304 38.1845 68.7328C38.4171 69.0363 38.5019 69.5008 38.6011 69.9205C38.6523 70.1099 38.6758 70.2934 38.7776 70.4699C38.7808 70.4822 38.7686 70.4854 38.7307 70.496L33.9508 71.8572Z" fill="#0A1640"/>
<path d="M43.3508 17.2498C42.9332 17.7149 42.0809 18.2846 41.3022 20.2121C41.2323 20.3849 41.1593 20.5588 41.0638 20.7177C40.9305 20.9391 40.6574 20.9465 40.5118 20.7273C40.1816 20.2318 40.1811 19.4569 39.0744 18.0915C38.4248 17.2899 37.7799 17.0274 38.3506 16.5656C39.7731 15.4141 40.2947 13.6492 40.5598 13.1857C40.6745 12.9857 40.9347 12.9756 41.0729 13.158C41.2211 13.3532 41.2942 13.5873 41.3806 13.814C42.0201 15.4909 42.9385 16.2722 43.3119 16.6504C43.4052 16.7448 43.4948 17.0898 43.3508 17.2498Z" fill="#E38921"/>
<path d="M61.5963 5.47398C61.1157 6.00946 60.1349 6.66282 59.2367 8.88583C59.1562 9.08477 59.0719 9.28532 58.9621 9.46826C58.8085 9.7232 58.4943 9.73173 58.3263 9.47946C57.946 8.90824 57.9455 8.01647 56.6702 6.44361C55.922 5.52038 55.1795 5.21797 55.8366 4.68568C57.4751 3.35977 58.0756 1.32715 58.3812 0.792732C58.513 0.562323 58.8133 0.551124 58.9722 0.760732C59.1429 0.985274 59.2271 1.25515 59.3269 1.51596C60.065 3.45097 61.1264 4.35233 61.5515 4.78275C61.6587 4.89155 61.7616 5.28944 61.5963 5.47398Z" fill="#E38921"/>
<path d="M17.8368 15.7235C17.7365 15.835 17.6346 15.947 17.5237 16.0472C15.9557 17.4612 15.5546 19.1332 15.2026 19.7178C15.049 19.9722 14.7348 19.9813 14.5668 19.729C14.4495 19.553 14.3625 19.3508 14.2943 19.1492C13.2286 16.0046 11.0941 15.731 12.0776 14.9352C13.7161 13.6093 14.3167 11.5767 14.6223 11.0422C14.754 10.8118 15.0543 10.8006 15.2132 11.0102C15.3839 11.2348 15.4682 11.5047 15.5679 11.7655C16.3061 13.7005 17.3674 14.6019 17.7925 15.0323C17.8997 15.1416 18.0032 15.5389 17.8368 15.7235Z" fill="#E38921"/>
</svg>
