<svg width="390" height="349" viewBox="0 0 390 349" fill="none" xmlns="http://www.w3.org/2000/svg">
    <path d="M158.26 200.373C123.945 198.24 88.1981 196.334 56.5056 209.61C35.3525 218.471 17.0161 233.756 -5.08336 239.913C-13.9589 242.387 -23.6744 243.515 -30.8187 249.313C-47.4252 262.793 -39.203 289.954 -47.7125 309.535C-50.0672 314.954 -53.7089 319.721 -56.3392 325.012C-63.4334 339.285 -62.3559 357.26 -53.6068 370.591C-45.1526 383.473 -30.5871 391.398 -15.564 394.996C-0.540943 398.595 15.1087 398.338 30.5557 397.965C72.5777 396.95 114.64 395.226 156.625 397.26C214.743 400.075 272.921 410.077 330.802 404.161C340.471 403.172 350.626 401.518 358.145 395.383C365.682 389.233 369.304 379.63 375.089 371.82C384.943 358.517 400.583 350.97 413.488 340.572C430.807 326.618 443.416 306.964 448.854 285.448C451.875 273.492 452.464 259.942 445.563 249.707C439.693 241.003 429.553 236.317 419.825 232.311C355.74 205.922 286.948 190.921 217.655 188.226C196.621 187.408 173.923 188.226 157.081 200.802" fill="#8DD44F"/>
    <path d="M308.399 263.247C319.436 266.67 315.809 272.758 313.348 276.255C308.686 281.695 302.857 281.721 291.703 283.211C277.973 285.045 260.852 286.133 242.284 286.133C197.089 286.133 160.453 279.685 160.453 271.734C160.453 263.779 197.089 257.334 242.284 257.334C269.445 257.334 293.516 259.662 308.399 263.247Z" fill="#80BF49"/>
    <path d="M313.853 208.651C304.524 255.179 259.243 285.336 212.718 276.006C166.19 266.681 136.034 221.4 145.359 174.871C154.688 128.343 199.97 98.187 246.494 107.516C293.022 116.845 323.179 162.123 313.853 208.651Z" fill="#F471AC"/>
    <path d="M304.634 203.622C300.469 231.105 272.82 249.746 268.762 246.81C265.633 244.544 278.039 230.497 283.531 201.056C288.677 173.462 283.141 157.056 286.95 156.089C291.741 154.87 308.399 178.778 304.634 203.622Z" fill="#F793CC"/>
    <path d="M266.554 216.885C264.959 215.814 263.239 215.158 261.536 214.816C258.023 214.112 254.704 214.847 251.93 216.381C251.699 216.509 251.474 216.647 251.253 216.795C247.772 219.141 244.318 220.584 240.864 221.275C237.479 221.952 233.88 221.952 229.991 221.171C224.879 220.149 220.828 218.474 217.633 216.326C214.949 214.519 212.738 212.291 210.953 209.594C207.188 203.902 205.786 196.769 207.671 187.364C209.561 177.956 213.598 171.918 219.27 168.115C221.954 166.316 224.855 165.11 228.032 164.478C231.808 163.729 236.191 163.746 241.299 164.769C245.126 165.535 248.425 166.913 251.295 168.848C254.293 170.865 257.015 173.618 259.425 177.268C260.337 178.671 261.543 179.873 262.921 180.809C264.644 181.976 266.475 182.618 268.16 182.957C269.867 183.299 271.708 183.354 273.593 182.981C275.407 182.618 277.054 181.9 278.498 180.93C281.631 178.836 283.589 175.711 284.297 172.188C284.691 170.212 284.705 168.067 284.114 165.891C283.589 163.946 282.66 162.264 281.517 160.855C272.934 148.659 261.194 140.926 246.663 138.014C238.36 136.349 230.329 136.166 222.682 137.683C215.985 139.009 209.751 141.603 204.034 145.423C191.58 153.74 183.953 166.25 180.8 181.976C177.65 197.702 179.86 212.188 188.15 224.663C191.949 230.39 196.702 235.188 202.373 238.994C208.846 243.339 216.324 246.264 224.627 247.929C239.41 250.893 253.429 248.112 266.188 239.802C269.145 237.819 271.487 234.887 272.271 230.967C272.979 227.437 272.367 223.817 270.298 220.678C269.328 219.21 268.084 217.914 266.554 216.885Z" fill="#2A864C"/>
    <path d="M209.268 106.97C202.629 108.718 196.384 111.512 190.692 115.17C184.13 118.499 178.023 122.675 172.5 127.569C171.613 128.354 170.746 129.172 169.9 129.994L160.042 122.827C160.975 121.553 161.928 120.309 162.898 119.121C173.785 105.806 188.565 96.2456 205.237 91.8142L209.268 106.97Z" fill="#F4701F"/>
    <path d="M172.5 127.57C171.613 128.354 170.746 129.172 169.899 129.994C168.839 131.006 167.824 132.032 166.801 133.103C165.727 131.428 164.273 129.832 162.522 128.412C158.55 125.19 154.001 123.808 150.561 124.316C150.471 122.682 150.796 121.183 151.735 120.012C153.89 117.339 158.339 117.135 162.898 119.121C164.508 119.809 166.114 120.783 167.661 122.033C169.73 123.698 171.378 125.622 172.5 127.57Z" fill="#F4701F"/>
    <path d="M166.801 133.103C165.267 134.754 163.772 136.488 162.373 138.27C160.612 137.551 158.812 136.512 157.106 135.127C153.13 131.928 150.778 127.78 150.561 124.316C154.001 123.808 158.55 125.19 162.522 128.412C164.273 129.832 165.727 131.428 166.801 133.103Z" fill="#E9591B"/>
    <path d="M296.041 86.3847C307.073 76.0989 314.778 62.0275 316.91 45.832C318.982 30.0992 336.462 21.3124 350.413 28.8731C354.24 30.9454 357.711 33.567 360.816 36.7377C367.617 43.6767 368.853 54.3736 364.526 63.0741C353.017 86.2052 333.623 102.718 311.107 110.911C307.47 112.234 303.453 112.089 299.93 110.486C290.383 106.152 288.373 93.5344 296.041 86.3847Z" fill="#F57920"/>
    <path fill-rule="evenodd" clip-rule="evenodd" d="M310.523 112.686L306.389 133.303L231.421 118.275C221.539 116.292 215.143 106.687 217.118 96.8329L223.574 64.6283L286.981 77.3388C291.772 78.299 296.11 80.3437 299.685 83.2001C299.751 83.2623 299.847 83.3107 299.909 83.3728C302.407 85.3623 304.586 87.7801 306.289 90.4707C308.658 94.1284 310.247 98.3077 310.848 102.732C310.948 103.537 311.024 104.335 311.073 105.126C311.131 106 311.142 106.863 311.097 107.74C311.055 109.374 310.855 111.032 310.523 112.686Z" fill="#F4701F"/>
    <path d="M250.88 71.6294C249.302 79.4906 251.333 86.5263 255.415 87.3449C259.498 88.1635 264.085 82.4541 265.663 74.5929C265.76 74.0956 265.846 73.6051 265.919 73.1146L251.212 70.1684C251.091 70.645 250.977 71.132 250.88 71.6294Z" fill="#E9591B"/>
    <path d="M268.095 75.08C266.52 82.9412 268.551 89.9768 272.633 90.7954C276.716 91.614 281.303 85.9046 282.878 78.0435C282.978 77.5461 283.064 77.0556 283.137 76.5686L268.426 73.619C268.306 74.0991 268.195 74.5826 268.095 75.08Z" fill="#E9591B"/>
    <path d="M299.685 83.2002C297.848 90.1599 293.641 95.0058 289.852 94.246C285.766 93.4274 283.731 86.3917 285.31 78.5167C285.406 78.04 285.531 77.5427 285.652 77.0729L286.981 77.3389C291.772 78.2991 296.11 80.3438 299.685 83.2002Z" fill="#E9591B"/>
    <path d="M290.66 128.609C290.559 129.113 290.432 129.607 290.311 130.081L275.614 127.134C275.687 126.654 275.759 126.147 275.859 125.642C277.434 117.795 282.021 112.085 286.111 112.908C288.142 113.315 289.613 115.225 290.47 117.981C291.33 120.841 291.457 124.623 290.66 128.609Z" fill="#E9591B"/>
    <path d="M273.432 125.169C275.007 117.308 272.976 110.272 268.893 109.454C264.811 108.635 260.224 114.344 258.649 122.206C258.549 122.703 258.466 123.193 258.39 123.68L273.1 126.63C273.221 126.15 273.331 125.666 273.432 125.169Z" fill="#E9591B"/>
    <path d="M256.224 121.708C256.123 122.209 255.996 122.706 255.875 123.176L241.178 120.23C241.22 120.03 241.237 119.798 241.282 119.574C241.313 119.29 241.368 119.018 241.423 118.741C241.651 117.612 241.948 116.524 242.283 115.495C244.318 109.381 248.19 105.302 251.675 106.003C255.764 106.822 257.795 113.857 256.224 121.708Z" fill="#E9591B"/>
    <path d="M311.073 105.126C303.944 103.333 298.96 99.0468 299.73 95.2094C300.203 92.8504 302.728 91.1925 306.289 90.4706C308.658 94.1283 310.247 98.3076 310.848 102.732C310.948 103.537 311.024 104.335 311.073 105.126Z" fill="#E9591B"/>
    <path d="M310.523 112.686L308.548 122.544C300.942 120.914 295.474 116.427 296.279 112.414C297.063 108.5 303.602 106.473 311.097 107.74C311.055 109.374 310.855 111.032 310.523 112.686Z" fill="#E9591B"/>
    <path d="M241.423 118.741C241.368 119.017 241.313 119.29 241.282 119.574C227.411 123.705 215.225 132.298 206.708 144.079L194 134.854C205.032 119.636 221.007 108.673 239.192 103.841L242.283 115.494C241.948 116.524 241.651 117.612 241.423 118.741Z" fill="#F4701F"/>
    <path d="M201.621 134.066C195.735 129.328 188.603 128.416 185.688 132.036C184.752 133.199 184.42 134.709 184.524 136.353C187.957 135.824 192.492 137.227 196.485 140.442C200.474 143.655 202.812 147.789 203.03 151.257C204.66 151.005 206.062 150.359 206.998 149.195C209.914 145.578 207.503 138.802 201.621 134.066Z" fill="#F4701F"/>
    <path d="M196.484 140.442C192.492 137.227 187.957 135.824 184.523 136.353C184.741 139.821 187.079 143.952 191.069 147.167C195.061 150.379 199.596 151.782 203.03 151.257C202.812 147.789 200.474 143.655 196.484 140.442Z" fill="#E9591B"/>
    <path d="M322.767 160.669L307.508 164.288C304.278 150.597 296.773 138.315 286.125 129.241L290.311 130.081C290.432 129.607 290.559 129.113 290.66 128.609C291.457 124.623 291.33 120.841 290.47 117.981L293.043 114.635C307.964 126.105 318.45 142.373 322.767 160.669Z" fill="#F4701F"/>
    <path d="M316.06 157.007C323.317 154.904 330.245 156.814 331.541 161.277C331.955 162.71 331.682 164.23 330.953 165.708C327.987 163.898 323.262 163.446 318.34 164.872C313.418 166.299 309.667 169.21 308.13 172.326C306.724 171.469 305.678 170.329 305.263 168.896C303.968 164.433 308.803 159.111 316.06 157.007Z" fill="#F4701F"/>
    <path d="M318.34 164.872C323.262 163.446 327.987 163.898 330.954 165.708C329.417 168.824 325.666 171.735 320.744 173.162C315.822 174.592 311.097 174.136 308.13 172.326C309.667 169.21 313.418 166.299 318.34 164.872Z" fill="#E9591B"/>
    <path d="M255.847 26.4554C257.958 18.4733 252.311 13.7897 245.966 18.2592L229.418 29.9266L223.802 25.2638L257.184 1.73546C263.526 -2.7374 269.173 1.9496 267.066 9.93167L255.961 51.942L250.345 47.2827L255.847 26.4554Z" fill="#F57B20"/>
    <path d="M229.417 29.9264L245.965 18.259C252.31 13.7896 257.957 18.4731 255.847 26.4552L250.345 47.2825L229.417 29.9264Z" fill="#E9591B"/>
    <path d="M170.024 26.4554C167.913 18.4733 173.564 13.7897 179.905 18.2592L196.453 29.9266L202.073 25.2638L168.687 1.73546C162.345 -2.7374 156.698 1.9496 158.809 9.93167L169.91 51.942L175.529 47.2827L170.024 26.4554Z" fill="#F57B20"/>
    <path d="M196.453 29.9264L179.905 18.259C173.564 13.7896 167.913 18.4731 170.023 26.4552L175.529 47.2825L196.453 29.9264Z" fill="#E9591B"/>
    <path d="M267.514 76.503C267.514 105.602 243.078 109.851 212.935 109.851C182.793 109.851 158.356 105.602 158.356 76.503C158.356 47.4035 182.793 23.813 212.935 23.813C243.078 23.813 267.514 47.4035 267.514 76.503Z" fill="#F57B20"/>
    <path d="M222.827 69.0251H203.154C202.124 69.0182 201.482 69.8679 201.406 70.835C201.372 70.31 201.454 69.7746 201.834 69.3291L210.777 58.9051C212.003 57.4751 214.065 57.4855 215.281 58.9258L224.147 69.4258C224.527 69.8748 224.603 70.4136 224.565 70.9386C224.496 69.968 223.86 69.0286 222.827 69.0251Z" fill="#E9591B"/>
    <path d="M203.154 69.0251H222.828C223.86 69.0286 224.496 69.9681 224.565 70.9386C224.599 71.4602 224.52 71.999 224.137 72.4446L215.194 82.8686C213.968 84.2985 211.906 84.2881 210.69 82.8478L201.824 72.3478C201.444 71.8954 201.368 71.36 201.406 70.835C201.482 69.8679 202.125 69.0182 203.154 69.0251Z" fill="#040606"/>
    <path d="M212.88 100.004C212.649 100.004 212.486 99.8136 212.49 99.5822V83.9323C212.49 83.7009 212.707 83.5109 212.939 83.5109C213.17 83.5144 213.333 83.7044 213.333 83.9358V99.5856C213.329 99.817 213.112 100.004 212.88 100.004Z" fill="#141414"/>
    <path d="M222.887 83.9358C220.89 88.1116 217.174 90.9266 212.905 90.9266C208.636 90.9266 204.916 88.1116 202.92 83.9358C201.939 85.9943 201.365 88.3775 201.365 90.9266C201.365 94.4496 202.446 97.6618 204.222 100.121C206.335 97.1886 209.437 95.3269 212.905 95.3269C216.373 95.3269 219.474 97.1886 221.588 100.121C223.36 97.6618 224.445 94.4496 224.445 90.9266C224.445 88.3775 223.871 85.9943 222.887 83.9358Z" fill="#040606"/>
    <path d="M212.904 95.3269C209.437 95.3269 206.335 97.1886 204.221 100.121C206.335 103.053 209.437 104.915 212.904 104.915C216.372 104.915 219.474 103.053 221.588 100.121C219.474 97.1886 216.372 95.3269 212.904 95.3269Z" fill="#EE2E32"/>
    <path d="M223.045 84.568C237.611 74.1474 255.547 68.8284 271.511 68.9976C252.953 70.2238 238.15 75.3252 223.045 84.568Z" fill="#171717"/>
    <path d="M223.035 87.9943C238.788 81.6183 256.904 80.7859 272.153 84.8201C254.566 81.6044 239.534 82.7443 223.035 87.9943Z" fill="#171717"/>
    <path d="M202.826 84.478C188.337 73.9262 170.442 68.4483 154.474 68.4759C173.025 69.8678 187.791 75.1006 202.826 84.478Z" fill="#171717"/>
    <path d="M202.812 87.9044C187.103 81.3903 168.994 80.3955 153.717 84.295C171.329 81.2383 186.35 82.5094 202.812 87.9044Z" fill="#171717"/>
    <path d="M208.511 50.8436C208.511 59.5337 202.138 66.5833 194.274 66.5833C186.409 66.5833 180.037 59.5337 180.037 50.8436C180.037 42.15 186.409 35.104 194.274 35.104C202.138 35.104 208.511 42.15 208.511 50.8436Z" fill="white"/>
    <path d="M206.608 50.8435C206.608 56.0866 202.763 60.335 198.018 60.335C193.275 60.335 189.431 56.0866 189.431 50.8435C189.431 45.6004 193.275 41.3486 198.018 41.3486C202.763 41.3486 206.608 45.6004 206.608 50.8435Z" fill="#040606"/>
    <path d="M217.36 50.8436C217.36 59.5337 223.736 66.5833 231.597 66.5833C239.462 66.5833 245.838 59.5337 245.838 50.8436C245.838 42.15 239.462 35.104 231.597 35.104C223.736 35.104 217.36 42.15 217.36 50.8436Z" fill="white"/>
    <path d="M219.267 50.8435C219.267 56.0866 223.111 60.335 227.853 60.335C232.595 60.335 236.44 56.0866 236.44 50.8435C236.44 45.6004 232.595 41.3486 227.853 41.3486C223.111 41.3486 219.267 45.6004 219.267 50.8435Z" fill="#040606"/>
    <path d="M198.16 257.894C190.841 250.575 180.472 263.406 175.284 272.497C177.495 262.474 177.999 249.138 168.663 249.138C159.33 249.138 159.831 262.474 162.042 272.497C156.857 263.406 146.485 250.575 139.166 257.894C129.426 267.634 155.382 282.78 160.698 283.919C162.56 284.317 163.9 283.95 164.563 283.291C164.822 283.032 165.029 282.669 165.171 282.217C165.281 282.424 165.385 282.61 165.485 282.766C166.521 284.361 167.727 285.052 168.663 285.052C169.599 285.052 170.808 284.361 171.84 282.766C171.941 282.61 172.044 282.424 172.155 282.217C172.296 282.669 172.507 283.032 172.763 283.291C173.426 283.95 174.766 284.317 176.628 283.919C181.943 282.78 207.9 267.634 198.16 257.894Z" fill="#56B9AA"/>
    <path d="M305.778 21.4228C300.693 16.3386 293.492 25.2533 289.889 31.5705C291.423 24.6074 291.772 15.3405 285.289 15.3405C278.806 15.3405 279.155 24.6074 280.692 31.5705C277.086 25.2533 269.884 16.3386 264.8 21.4228C258.03 28.1926 276.063 38.7133 279.756 39.5043C281.047 39.7806 281.98 39.525 282.439 39.0656C282.619 38.886 282.764 38.6339 282.864 38.3196C282.94 38.4646 283.013 38.5959 283.082 38.7029C283.8 39.8116 284.639 40.2917 285.289 40.2917C285.938 40.2917 286.777 39.8116 287.496 38.7029C287.565 38.5959 287.638 38.4646 287.713 38.3196C287.814 38.6339 287.959 38.886 288.138 39.0656C288.598 39.525 289.53 39.7806 290.822 39.5043C294.514 38.7133 312.547 28.1926 305.778 21.4228Z" fill="#56B9AA"/>
    <path d="M39.6755 172.439C39.6755 172.439 24.0732 162.687 37.9025 153.468C37.9025 153.468 51.3771 146.021 55.81 160.028C55.81 160.028 62.7246 154.709 72.2992 158.255C72.2992 158.255 73.8948 139.106 92.3344 148.681C92.3344 148.681 108.291 156.894 92.3344 169.276C92.3344 169.276 102.795 182.013 92.5118 193.361C92.5118 193.361 129.39 195.134 129.39 204.354C129.39 204.354 134.532 213.928 118.043 214.637L105.987 216.055L111.484 231.835H123.184C123.184 231.835 131.519 213.75 134.533 233.963C134.533 233.963 142.866 262.863 119.816 261.444L102.563 261.495L90.9169 264.459C90.9169 264.459 99.6046 275.274 57.2297 273.146C57.2297 273.146 29.4816 275.721 32.1855 232.856C32.1855 232.856 32.8503 207.811 42.4248 196.818C42.4248 196.818 32.3174 185.825 39.6755 172.439Z" fill="#709535"/>
    <path d="M44.4629 165.347C46.7152 165.347 48.541 163.521 48.541 161.269C48.541 159.016 46.7152 157.191 44.4629 157.191C42.2106 157.191 40.3848 159.016 40.3848 161.269C40.3848 163.521 42.2106 165.347 44.4629 165.347Z" fill="#42210B"/>
    <path d="M84.7105 161.269C86.9628 161.269 88.7886 159.444 88.7886 157.191C88.7886 154.939 86.9628 153.113 84.7105 153.113C82.4582 153.113 80.6323 154.939 80.6323 157.191C80.6323 159.444 82.4582 161.269 84.7105 161.269Z" fill="#42210B"/>
    <path d="M78.5352 166.507C78.5352 166.466 78.5359 166.459 78.5352 166.507V166.507Z" fill="#42210B"/>
    <path d="M80.4749 171.3C79.676 170.313 79.0165 169.115 78.7072 167.791C78.6284 167.452 78.5905 167.111 78.5503 166.765C78.5374 166.654 78.5344 166.555 78.5344 166.506C78.5344 166.519 78.5336 166.537 78.5329 166.56C78.5784 165.166 76.7818 164.774 76.7364 166.178C76.7091 167.015 76.8258 167.835 77.0433 168.624C68.3595 171.749 59.3481 174.012 50.3118 175.459C49.1664 175.642 49.409 177.822 50.5596 177.638C59.7817 176.161 68.9818 173.838 77.8408 170.642C78.2797 171.495 78.8141 172.285 79.3811 172.985C80.2142 174.012 81.2989 172.316 80.4749 171.3Z" fill="#42210B"/>
    <path d="M100.804 213.769C100.513 213.724 100.225 213.659 99.9389 213.568C97.3813 212.763 95.0329 210.476 92.3844 209.539C82.3945 206.007 74.1396 210.802 69.6946 220.087C66.0765 227.645 66.9255 239.431 71.5995 246.187C80.4774 259.019 103.684 261.383 117.076 255.348C125.313 251.636 127.523 245.385 129.153 237.015C131.722 223.821 128.302 209.088 112.006 211.196C108.217 211.694 104.363 214.32 100.804 213.769Z" fill="#E13636"/>
    <path d="M102.81 213.963C102.81 213.963 104.949 198.839 126.78 201.001C126.78 201.001 117.696 222.608 102.81 213.963Z" fill="#AEB91D"/>
    <path d="M102.809 213.963C102.698 212.793 102.893 211.76 103.174 210.794C103.461 209.826 103.892 208.953 104.394 208.127C105.421 206.501 106.84 205.173 108.498 204.187C110.142 203.19 112.109 202.616 114.114 202.565C114.624 202.573 115.129 202.596 115.63 202.653C116.134 202.72 116.648 202.864 117.14 203.006C117.388 203.091 117.631 203.166 117.872 203.262C118.115 203.377 118.355 203.494 118.592 203.635C119.063 203.896 119.516 204.217 119.94 204.599C118.302 206.283 117.065 207.247 115.876 208.267C114.699 209.249 113.552 209.984 112.327 210.728C111.099 211.447 109.787 212.085 108.268 212.639C106.724 213.183 105.083 213.679 102.809 213.963Z" fill="#929606"/>
    <path d="M100.978 213.69C100.978 213.69 102.646 198.507 80.957 195.202C80.957 195.202 84.4151 218.385 100.978 213.69Z" fill="#AEB91D"/>
    <path d="M100.978 213.69C98.8448 212.853 97.3781 211.967 96.0159 211.058C94.6811 210.145 93.5683 209.203 92.5563 208.202C91.5535 207.179 90.6241 206.183 89.7266 204.94C88.8268 203.658 87.8665 202.418 86.6953 200.381C87.2002 200.116 87.7194 199.917 88.2401 199.779C88.5032 199.702 88.7655 199.647 89.03 199.596C89.287 199.563 89.5409 199.55 89.8032 199.53C90.3148 199.514 90.8478 199.501 91.3534 199.561C91.8529 199.63 92.3479 199.733 92.8444 199.85C94.7735 200.397 96.5374 201.438 97.8844 202.811C99.2458 204.177 100.293 205.814 100.886 207.644C101.169 208.568 101.371 209.52 101.409 210.53C101.442 211.534 101.375 212.584 100.978 213.69Z" fill="#929606"/>
    <path d="M101.59 218.996C102.888 215.587 103.537 211.788 103.651 208.157C103.748 205.057 103.392 201.898 102.257 198.994C101.429 196.876 99.9546 194.434 98.1459 193.024C95.7946 191.191 92.7041 193.615 94.271 196.386C95.101 197.854 96.7489 198.612 97.7669 199.916C99.7924 202.51 100.437 206.075 100.638 209.279C100.731 210.754 100.71 212.235 100.614 213.708C100.535 214.924 99.5339 217.966 99.9568 218.998C99.9568 218.998 100.884 221.256 101.59 218.996Z" fill="#603813"/>
    <path d="M108.224 217.021C107.911 217.04 107.605 217.142 107.308 217.232C107.01 217.323 106.717 217.427 106.426 217.522C105.844 217.719 105.27 217.908 104.699 218.072C103.556 218.405 102.422 218.642 101.29 218.714C100.159 218.777 99.0293 218.695 97.9075 218.394C96.778 218.119 95.6773 217.601 94.5176 217.021C94.6192 217.174 94.7291 217.317 94.836 217.466L95.0012 217.684C95.0573 217.754 95.1179 217.818 95.1763 217.885C95.2938 218.019 95.4151 218.148 95.5356 218.28C95.6607 218.403 95.7896 218.518 95.9177 218.639L96.1132 218.813L96.3156 218.972C96.4513 219.076 96.587 219.184 96.728 219.279C97.0107 219.464 97.2965 219.648 97.5959 219.792C98.7837 220.403 100.086 220.641 101.359 220.564C102.636 220.481 103.882 220.079 105.035 219.456C105.611 219.141 106.167 218.775 106.695 218.357C106.96 218.148 107.217 217.93 107.47 217.701C107.722 217.478 107.96 217.229 108.224 217.021Z" fill="#603813"/>
    <path d="M51.1187 213.535C60.5704 212.205 84.1327 210.751 86.4886 223.879C88.4921 235.043 68.3932 238.851 61.3284 240.179C57.9477 240.814 54.5373 241.291 51.1187 241.673" fill="#709535"/>
    <path d="M51.1187 213.535C52.7977 213.006 54.5093 212.594 56.2361 212.242C57.9628 211.882 59.7093 211.621 61.4702 211.418C64.9919 211.029 68.5751 210.93 72.2045 211.302C74.0177 211.497 75.8453 211.806 77.6645 212.334C79.4853 212.849 81.3008 213.593 83.0237 214.677C84.7407 215.755 86.3386 217.261 87.487 219.134C87.7682 219.601 88.0016 220.102 88.2397 220.594C88.4246 221.105 88.6384 221.614 88.7817 222.134C89.0515 223.162 89.2858 224.259 89.2653 225.423C89.3047 227.749 88.3693 230.084 87.0602 231.814C85.7109 233.525 84.11 234.822 82.456 235.818C80.7944 236.815 79.0926 237.604 77.3651 238.237C75.6436 238.884 73.9017 239.386 72.1568 239.804C68.6668 240.639 65.1473 241.133 61.6604 241.443C58.147 241.755 54.6321 241.861 51.1187 241.673C54.5047 240.715 57.8688 239.854 61.1783 238.88C64.5159 237.924 67.7959 236.966 70.9591 235.807C74.1064 234.653 77.1801 233.324 79.7301 231.587C81.0021 230.726 82.0906 229.741 82.8509 228.692C83.5877 227.638 83.991 226.575 83.9614 225.41C83.9925 224.834 83.8598 224.215 83.7075 223.564C83.6271 223.247 83.4945 222.956 83.4005 222.646C83.2572 222.36 83.1261 222.069 82.9767 221.785C82.3514 220.666 81.4001 219.695 80.235 218.852C77.8813 217.166 74.7507 216.126 71.5435 215.406C68.3143 214.687 64.9343 214.285 61.5179 214.012C58.0947 213.733 54.6328 213.628 51.1187 213.535Z" fill="#526D1D"/>
    <path d="M90.915 264.458C90.915 264.458 88.462 231.85 71.5991 246.187C71.5892 246.196 67.2139 249.101 67.4512 259.439" fill="#709535"/>
    <path d="M90.9153 264.458C89.4334 260.453 88.1159 256.554 86.4983 252.955C85.6812 251.174 84.7874 249.473 83.755 248.058C83.2145 247.398 82.6991 246.719 82.1094 246.295C81.5416 245.835 80.9845 245.483 80.4038 245.36C80.1287 245.229 79.8171 245.26 79.5215 245.187C79.1956 245.235 78.8938 245.16 78.5376 245.268L78.0115 245.348C77.8304 245.398 77.6446 245.468 77.4589 245.524C77.2732 245.591 77.0867 245.622 76.8972 245.713C76.7085 245.805 76.5159 245.89 76.3219 245.974C75.9315 246.118 75.5449 246.346 75.156 246.573C74.9605 246.683 74.7679 246.798 74.5663 246.903L73.9826 247.29L72.8001 248.077C72.5568 248.233 72.2513 248.496 71.9799 248.791C71.4175 249.379 70.9036 250.119 70.4488 250.922C69.9833 251.721 69.5869 252.601 69.2291 253.518C68.5052 255.359 67.9928 257.357 67.4508 259.44C66.8421 257.38 66.5753 255.216 66.6753 252.991C66.6973 252.435 66.7814 251.879 66.8428 251.315C66.9497 250.757 67.0407 250.192 67.2082 249.632C67.5122 248.509 67.9495 247.385 68.6257 246.309C68.9668 245.77 69.3504 245.25 69.8795 244.716C70.2789 244.337 70.7156 243.957 71.1363 243.578L71.7798 243.01L72.4931 242.491C72.9676 242.144 73.4452 241.799 73.9993 241.51C74.2669 241.357 74.536 241.206 74.8089 241.063C75.0802 240.918 75.3994 240.815 75.695 240.692C75.9982 240.576 76.2953 240.453 76.6069 240.349L77.6029 240.113C78.2511 239.931 79.003 239.958 79.7072 239.916C80.0703 239.939 80.4379 239.987 80.8026 240.031C81.171 240.062 81.5265 240.153 81.8789 240.267C83.3146 240.662 84.5517 241.464 85.5424 242.35C86.559 243.249 87.2814 244.263 87.9386 245.285C89.165 247.352 89.917 249.492 90.437 251.629C91.4163 255.907 91.615 260.215 90.9153 264.458Z" fill="#526D1D"/>
    <path d="M43.5761 161.18C43.5761 161.718 43.1395 162.155 42.6013 162.155C42.0631 162.155 41.6265 161.718 41.6265 161.18C41.6265 160.641 42.0631 160.205 42.6013 160.205C43.1395 160.205 43.5761 160.642 43.5761 161.18Z" fill="white"/>
    <path d="M85.0643 156.216C85.0643 156.755 84.6278 157.191 84.0896 157.191C83.5514 157.191 83.1147 156.754 83.1147 156.216C83.1147 155.678 83.5514 155.241 84.0896 155.241C84.6278 155.241 85.0643 155.678 85.0643 156.216Z" fill="white"/>
    </svg>
    