<svg width="48" height="48" viewBox="0 0 48 48" fill="none" xmlns="http://www.w3.org/2000/svg">
<path d="M18.4619 3.75947C19.8695 2.56143 20.5733 1.96242 21.3071 1.61049C22.1475 1.2086 23.0672 1 23.9988 1C24.9303 1 25.85 1.2086 26.6904 1.61049C27.4267 1.95992 28.1305 2.55894 29.5356 3.75947C30.0972 4.23868 30.3767 4.47579 30.6762 4.67546C31.362 5.13515 32.1323 5.45413 32.9423 5.61392C33.2942 5.68381 33.6611 5.71376 34.3949 5.77366C36.2393 5.91842 37.1602 5.9933 37.9289 6.26536C38.8069 6.57522 39.6044 7.07766 40.263 7.73584C40.9216 8.39403 41.4245 9.19127 41.7349 10.0691C42.007 10.8403 42.0793 11.7613 42.2266 13.6033C42.284 14.3371 42.3139 14.704 42.3838 15.0584C42.5436 15.8671 42.863 16.6383 43.3222 17.3222C43.5219 17.6217 43.7615 17.9013 44.2382 18.4628C45.4362 19.8705 46.0376 20.5744 46.3895 21.3082C46.7914 22.1486 47 23.0684 47 24C47 24.9316 46.7914 25.8514 46.3895 26.6918C46.0401 27.4256 45.4387 28.1295 44.2382 29.5372C43.9108 29.8991 43.605 30.28 43.3222 30.6778C42.8629 31.3629 42.5439 32.1324 42.3838 32.9416C42.3139 33.296 42.284 33.6629 42.2266 34.3967C42.0793 36.2387 42.007 37.1622 41.7349 37.9309C41.4245 38.8087 40.9216 39.606 40.263 40.2642C39.6044 40.9223 38.8069 41.4248 37.9289 41.7347C37.1602 42.0092 36.2393 42.0816 34.3949 42.2263C33.6611 42.2862 33.2967 42.3162 32.9423 42.3861C32.1323 42.5459 31.362 42.8649 30.6762 43.3245C30.2793 43.6074 29.8993 43.9132 29.5381 44.2405C28.1305 45.4386 27.4267 46.0376 26.6929 46.3895C25.8525 46.7914 24.9328 47 24.0012 47C23.0697 47 22.15 46.7914 21.3096 46.3895C20.5733 46.0401 19.8695 45.4411 18.4644 44.2405C18.1024 43.9132 17.7216 43.6073 17.3238 43.3245C16.638 42.8649 15.8677 42.5459 15.0577 42.3861C14.577 42.3045 14.092 42.2512 13.6051 42.2263C11.7608 42.0816 10.8398 42.0067 10.0711 41.7347C9.19312 41.4248 8.39559 40.9223 7.73701 40.2642C7.07843 39.606 6.57549 38.8087 6.26507 37.9309C5.99303 37.1622 5.92065 36.2387 5.7734 34.3967C5.7495 33.909 5.697 33.4231 5.61617 32.9416C5.45607 32.1324 5.13712 31.3629 4.67776 30.6778C4.4781 30.3783 4.23851 30.0987 3.76181 29.5372C2.56384 28.1295 1.96236 27.4256 1.61046 26.6918C1.20859 25.8514 1 24.9316 1 24C1 23.0684 1.20859 22.1486 1.61046 21.3082C1.96236 20.5744 2.56135 19.8705 3.76181 18.4628C4.23851 17.9013 4.4781 17.6217 4.67776 17.3222C5.13712 16.6371 5.45607 15.8676 5.61617 15.0584C5.68605 14.704 5.716 14.3371 5.7734 13.6033C5.92065 11.7613 5.99303 10.8403 6.26507 10.0691C6.57575 9.19101 7.07907 8.39361 7.7381 7.7354C8.39713 7.0772 9.19515 6.5749 10.0736 6.26536C10.8423 5.9933 11.7632 5.91842 13.6076 5.77366C14.3414 5.71376 14.7058 5.68381 15.0602 5.61392C15.8702 5.45413 16.6405 5.13515 17.3263 4.67546C17.6258 4.47579 17.9028 4.23868 18.4619 3.75947Z" fill="#9D63E7" stroke="white"/>
<path d="M21.5022 33.73C20.9947 34.8195 20.274 36.0711 19.2476 36.6033C18.2343 37.1278 17.059 36.4926 17.2379 34.2059C17.2813 33.655 17.4016 33.0093 17.6222 32.2626C18.6458 28.792 21.8002 24.1263 23.9276 21.1741L24.152 20.5808C24.1748 20.5818 24.1937 20.5865 24.2162 20.595C24.2162 20.595 24.2121 20.6399 24.2045 20.722C24.2552 20.656 24.2817 20.6198 24.2817 20.6198C24.302 20.6274 24.3192 20.6364 24.3393 20.6516L24.1148 21.2449C23.9587 22.8104 23.7349 24.7449 23.4083 26.6995C22.9792 29.2655 22.3709 31.8693 21.5022 33.73Z" fill="#D811AD"/>
<path d="M23.2716 25.1886C23.0302 25.1886 22.7923 25.1447 22.5646 25.0587C21.5334 24.6688 21.0119 23.5126 21.4018 22.4814C21.6942 21.7082 22.446 21.189 23.2723 21.189C23.5135 21.189 23.7514 21.2326 23.9791 21.3186C25.0103 21.7085 25.532 22.8649 25.1419 23.8961C24.8493 24.6691 24.0979 25.1886 23.2716 25.1886Z" fill="#FF8CDB"/>
<g opacity="0.25">
<path d="M21.5022 33.73C20.9947 34.8195 20.274 36.071 19.2476 36.6033C18.2343 37.1277 17.059 36.4925 17.2379 34.2059C17.5371 34.0895 17.8131 33.8716 18.0567 33.6567C19.6846 32.2224 21.0532 30.4991 22.0854 28.5945C22.4261 27.9601 22.7434 27.291 23.2762 26.8093C23.3191 26.7713 23.3617 26.7333 23.408 26.6992C22.9792 29.2655 22.3709 31.8692 21.5022 33.73Z" fill="#0A1640"/>
</g>
<path d="M25.7221 23.1816C24.9406 23.1816 24.1704 23.0402 23.4333 22.7614C20.0948 21.4988 18.4056 17.7555 19.6684 14.4168C20.6151 11.9135 23.0488 10.2317 25.7243 10.2317C26.5058 10.2317 27.2755 10.3731 28.0129 10.652C29.6303 11.2636 30.9125 12.4683 31.6236 14.0446C32.3346 15.6206 32.3895 17.3791 31.7778 18.9965C30.8314 21.4998 28.3977 23.1816 25.7226 23.1816C25.7221 23.1816 25.7221 23.1816 25.7221 23.1816Z" fill="#6B7FFF"/>
<path d="M25.7214 21.5756C25.134 21.5756 24.5549 21.4692 24.0011 21.2597C23.0605 20.9039 22.2658 20.2782 21.7029 19.4502C20.8091 18.1389 20.6104 16.4695 21.1716 14.9847C21.8832 13.1029 23.7124 11.8386 25.7228 11.8386C26.3103 11.8386 26.8896 11.9452 27.4439 12.1547C28.4604 12.539 29.3264 13.259 29.8815 14.1816C30.6652 15.4702 30.8093 17.0182 30.2761 18.4278C29.5644 20.3106 27.7338 21.5756 25.7214 21.5756Z" fill="#00D4FC"/>
<path opacity="0.25" d="M30.07 18.3499C29.1623 20.75 26.4791 21.9609 24.079 21.0532C23.1517 20.7025 22.4023 20.0864 21.8853 19.3262C26.8918 20.1881 28.8944 16.9514 29.6926 14.2954C30.4097 15.4744 30.5964 16.958 30.07 18.3499Z" fill="#332FBA"/>
<path opacity="0.75" d="M23.9518 15.3592C23.4771 15.7834 23.1027 16.34 23.1171 16.3196C22.9074 16.6137 22.4383 16.4716 22.4332 16.1035C22.4172 13.8597 25.2871 12.1852 27.5035 13.7088C27.7853 13.9024 27.6579 14.3493 27.3118 14.3601C26.1331 14.3966 25.1232 14.3067 23.9518 15.3592Z" fill="white"/>
<path d="M31.8242 13.9538C31.0891 12.3242 29.7633 11.0768 28.092 10.4445C22.4936 8.34511 17.1834 14.0712 19.6227 19.4603C20.054 20.416 20.6887 21.2394 21.4778 21.8839C20.935 22.6233 20.9056 23.6395 21.4239 24.4203C19.7202 27.0258 17.2606 31.0815 17.0177 34.1884C16.7829 37.1843 18.9262 38.0628 20.7818 35.4603C22.5563 32.9555 23.4123 28.3587 23.8426 25.3319C24.7582 25.0874 25.4029 24.2904 25.4821 23.396C30.4517 23.5516 33.8602 18.4668 31.8242 13.9538ZM19.1473 36.4062C18.7674 36.6047 18.3802 36.6022 18.0813 36.4062C17.0606 35.7293 17.4806 33.5152 17.8338 32.3259C18.3999 30.3998 19.7036 27.8708 21.7204 24.7756C22.2042 25.2538 22.9126 25.4623 23.3868 25.403C22.9514 28.3506 21.7922 35.0361 19.1473 36.4062ZM21.9655 24.3958C21.4013 23.7932 21.3242 22.8358 21.8307 22.1511C22.7144 22.8007 23.9039 23.2558 25.041 23.3641C24.893 24.8933 22.9991 25.5133 21.9655 24.3958ZM31.5718 18.9187C30.4247 21.9526 27.1877 23.5425 24.1759 22.7637C20.5882 21.8514 18.5469 18.0042 19.8751 14.4954C21.109 11.2314 24.7452 9.64516 27.9351 10.8587C31.165 12.0791 32.7922 15.6888 31.5718 18.9187Z" fill="#0A1640"/>
<path d="M20.9655 14.9071C19.7402 18.1392 22.0634 21.7957 25.7221 21.7957C29.6418 21.7957 32.1459 17.4856 30.0695 14.0665C27.9144 10.4933 22.4706 10.918 20.9655 14.9071ZM25.7221 21.3546C22.3675 21.3546 20.2629 18.0139 21.3772 15.0639C22.7647 11.3944 27.7446 11.0483 29.6921 14.2944C31.5785 17.3915 29.334 21.3546 25.7221 21.3546Z" fill="#0A1640"/>
</svg>
