<svg width="103" height="70" viewBox="0 0 103 70" fill="none" xmlns="http://www.w3.org/2000/svg">
<path d="M43.683 34.5624L75.2372 90.0271C75.6721 90.7913 75.4033 91.7689 74.6345 92.2061L34.9533 114.781C34.1845 115.219 33.2069 114.95 32.772 114.186L1.21779 58.7203C0.782918 57.9561 1.05168 56.9785 1.8205 56.5413L41.5017 33.9666C42.2705 33.5294 43.2481 33.7982 43.683 34.5624Z" fill="white"/>
<path opacity="0.18" d="M72.797 85.7378L75.2372 90.0271C75.6721 90.7913 75.4033 91.7689 74.6345 92.206L34.9533 114.781C34.1845 115.219 33.2069 114.95 32.772 114.186L1.21779 58.7203C0.782918 57.9561 1.05168 56.9785 1.8205 56.5413L5.14491 54.6501C13.7962 67.3543 26.6123 85.0099 41.759 88.3631C50.9559 90.3852 63.7748 88.2807 72.797 85.7378Z" fill="#0A1640"/>
<path d="M24.5126 82.6895C24.3367 82.6895 24.1666 82.5978 24.0732 82.4346C23.9359 82.1924 24.0201 81.8844 24.2623 81.7465L51.691 66.1275C51.9338 65.9902 52.2407 66.075 52.3791 66.3167C52.5163 66.5589 52.4321 66.8669 52.1899 67.0047L24.7612 82.6238C24.6828 82.6682 24.5974 82.6895 24.5126 82.6895Z" fill="#0A1640"/>
<path d="M21.2539 76.9635C21.0779 76.9635 20.9078 76.8718 20.8144 76.7085C20.6771 76.4663 20.7613 76.1583 21.0035 76.0205L48.4322 60.4014C48.6756 60.2641 48.9819 60.3489 49.1203 60.5906C49.2576 60.8328 49.1734 61.1408 48.9311 61.2787L21.5024 76.8977C21.424 76.9421 21.3381 76.9635 21.2539 76.9635Z" fill="#0A1640"/>
<path d="M17.9965 71.2369C17.8206 71.2369 17.6505 71.1452 17.557 70.982C17.4198 70.7397 17.504 70.4317 17.7462 70.2939L45.1749 54.6748C45.4177 54.5376 45.7245 54.6224 45.863 54.864C46.0002 55.1063 45.916 55.4142 45.6738 55.5521L18.2451 71.1711C18.1667 71.2156 18.0813 71.2369 17.9965 71.2369Z" fill="#0A1640"/>
<path d="M14.7397 65.5103C14.5638 65.5103 14.3936 65.4186 14.3002 65.2554C14.1629 65.0132 14.2471 64.7052 14.4894 64.5673L41.9181 48.9483C42.1614 48.811 42.4677 48.8958 42.6061 49.1374C42.7434 49.3797 42.6592 49.6877 42.417 49.8255L14.9883 65.4446C14.9098 65.489 14.8239 65.5103 14.7397 65.5103Z" fill="#0A1640"/>
<path d="M11.4819 59.7843C11.306 59.7843 11.1358 59.6926 11.0424 59.5293C10.9051 59.2871 10.9893 58.9791 11.2316 58.8413L38.6602 43.2222C38.9031 43.0849 39.2099 43.1697 39.3483 43.4114C39.4856 43.6536 39.4014 43.9616 39.1591 44.0994L11.7305 59.7185C11.652 59.7629 11.5667 59.7843 11.4819 59.7843Z" fill="#0A1640"/>
<path d="M42.2935 33.7571C42.8501 33.7571 43.3899 34.0472 43.6829 34.5623L75.2365 90.027C75.6714 90.7912 75.4026 91.7687 74.6338 92.2059L34.9526 114.781C34.7023 114.923 34.4295 114.991 34.1613 114.991C33.6047 114.991 33.0649 114.7 32.7719 114.185L1.21825 58.7202C0.783376 57.956 1.05214 56.9784 1.82096 56.5412L41.5022 33.9665C41.7525 33.8246 42.0253 33.7571 42.2935 33.7571ZM42.2941 32.7478C41.8431 32.7478 41.3966 32.866 41.0033 33.0898L1.32206 55.6645C0.716473 56.0094 0.281025 56.5689 0.0953099 57.2402C-0.0904048 57.9121 -0.002739 58.6152 0.341006 59.2197L31.8946 114.684C32.356 115.496 33.2246 116 34.1613 116C34.6123 116 35.0587 115.882 35.452 115.658L75.1327 93.0832C75.7383 92.7388 76.1743 92.1788 76.3595 91.5075C76.5452 90.8356 76.4575 90.1325 76.1138 89.5275L44.5596 34.0628C44.0987 33.2519 43.2301 32.7478 42.2941 32.7478Z" fill="#0A1640"/>
<path d="M72.9978 10.2642L91.1869 71.4295C91.4378 72.2722 90.955 73.1633 90.1066 73.4159L46.3477 86.4286C45.4999 86.6806 44.6082 86.1979 44.3579 85.3553L26.1689 24.1905C25.918 23.3479 26.4007 22.4568 27.2491 22.2042L71.008 9.19089C71.8558 8.93885 72.7469 9.42159 72.9978 10.2642Z" fill="white"/>
<path d="M40.4051 33.365C41.3735 31.3268 44.3807 30.3515 46.4812 30.8538C48.5604 31.351 49.1308 33.662 46.6594 35.251C43.2739 37.4277 39.1489 36.0094 40.4051 33.365Z" fill="#FF8CDB"/>
<path d="M66.0885 25.727C64.1633 24.5487 61.1123 25.3758 59.6277 26.944C58.1582 28.4966 58.9431 30.7436 61.8817 30.724C65.9063 30.6975 68.5859 27.2554 66.0885 25.727Z" fill="#FF8CDB"/>
<path opacity="0.18" d="M89.7802 66.6989L91.1869 71.4294C91.4378 72.2721 90.955 73.1631 90.1066 73.4158L46.3477 86.4285C45.4999 86.6805 44.6082 86.1978 44.3579 85.3552L26.1689 24.1904C25.918 23.3478 26.4007 22.4567 27.2491 22.2041L30.915 21.114C36.4679 35.4463 44.9583 55.5428 58.9538 62.2354C67.454 66.2854 80.4166 67.1349 89.7802 66.6989Z" fill="#0A1640"/>
<path d="M45.4279 59.1357C45.2104 59.1357 45.0092 58.9944 44.944 58.7752C44.8644 58.5076 45.0166 58.2273 45.2837 58.1471L75.5344 49.1382C75.8049 49.0575 76.0823 49.2109 76.1625 49.478C76.2421 49.7456 76.0898 50.0259 75.8228 50.106L45.5721 59.1149C45.5236 59.1288 45.4752 59.1357 45.4279 59.1357Z" fill="#0A1640"/>
<path d="M47.3082 65.4499C47.0908 65.4499 46.8895 65.3086 46.8243 65.0894C46.7448 64.8218 46.897 64.5415 47.1641 64.4613L77.4148 55.4518C77.6864 55.3728 77.9633 55.5245 78.0429 55.7915C78.1225 56.0592 77.9702 56.3395 77.7032 56.4196L47.4524 65.4291C47.404 65.4429 47.3555 65.4499 47.3082 65.4499Z" fill="#0A1640"/>
<path d="M43.5509 52.8208C43.3335 52.8208 43.1322 52.6795 43.067 52.4603C42.9874 52.1927 43.1397 51.9124 43.4067 51.8322L73.6569 42.8227C73.9268 42.7414 74.2048 42.896 74.285 43.1624C74.3646 43.4301 74.2123 43.7103 73.9453 43.7905L43.6951 52.8C43.6467 52.8144 43.5982 52.8208 43.5509 52.8208Z" fill="#0A1640"/>
<path d="M49.1896 71.7637C48.9722 71.7637 48.7709 71.6224 48.7057 71.4032C48.6261 71.1356 48.7784 70.8553 49.0454 70.7752L79.2956 61.7657C79.5649 61.6849 79.8435 61.8384 79.9236 62.1054C80.0032 62.373 79.851 62.6533 79.5839 62.7335L49.3338 71.7429C49.2853 71.7568 49.2369 71.7637 49.1896 71.7637Z" fill="#0A1640"/>
<path d="M56.9201 76.3357C56.7026 76.3357 56.5013 76.1944 56.4362 75.9752C56.3566 75.7076 56.5088 75.4273 56.7759 75.3472L75.3266 69.8224C75.5976 69.7434 75.8751 69.8951 75.9547 70.1621C76.0343 70.4297 75.882 70.7101 75.615 70.7902L57.0642 76.3149C57.0158 76.3288 56.9673 76.3357 56.9201 76.3357Z" fill="#0A1640"/>
<path d="M52.6076 31.392C52.0153 31.392 51.4207 31.249 50.8462 30.9635C49.5491 30.3192 48.4977 28.999 48.102 27.5168C48.0305 27.2474 48.1903 26.9712 48.4596 26.8991C48.7266 26.8316 49.0058 26.9867 49.0773 27.2567C49.3951 28.4477 50.266 29.5481 51.2949 30.0591C51.8388 30.3302 52.6941 30.5678 53.6787 30.1658C55.5745 29.3895 56.0249 27.1004 55.4856 25.3401C55.4037 25.0737 55.5537 24.7916 55.8207 24.7097C56.0849 24.6296 56.3692 24.7778 56.4511 25.0448C57.1207 27.2319 56.5111 30.0972 54.0605 31.0996C53.5841 31.2945 53.0967 31.392 52.6076 31.392Z" fill="#0A1640"/>
<path d="M60.2399 24.1859C59.8996 24.1859 59.5564 24.104 59.2213 23.9408C58.37 23.5267 57.6393 22.5872 57.3584 21.5479C57.2857 21.2785 57.4449 21.0017 57.7137 20.929C57.9813 20.8575 58.2599 21.0155 58.3325 21.2843C58.5373 22.0427 59.0719 22.7458 59.6631 23.0336C60.0161 23.2055 60.3639 23.221 60.6938 23.0814C61.6321 22.6841 61.8034 21.3702 61.488 20.3373C61.4066 20.0702 61.5566 19.7888 61.8231 19.7069C62.0947 19.6244 62.3727 19.7755 62.4534 20.042C62.8975 21.4971 62.57 23.3825 61.0883 24.0106C60.8126 24.1277 60.5271 24.1859 60.2399 24.1859Z" fill="#0A1640"/>
<path d="M43.2454 29.2316C41.8497 29.2316 40.7319 27.9494 40.3461 26.6166C40.2688 26.3484 40.4234 26.0692 40.691 25.9913C40.9574 25.9146 41.2383 26.0692 41.3162 26.3362C41.6161 27.3744 42.4743 28.3797 43.4802 28.2009C43.8337 28.1374 44.1157 27.9344 44.3176 27.597C44.655 27.033 44.7185 26.1523 44.4756 25.4054C44.3897 25.1406 44.5345 24.8557 44.7992 24.7692C45.0645 24.6844 45.3488 24.828 45.4354 25.0928C45.7681 26.1165 45.6695 27.3029 45.1827 28.1144C44.8298 28.7044 44.302 29.0781 43.6572 29.1935C43.5177 29.2194 43.3804 29.2316 43.2454 29.2316Z" fill="#0A1640"/>
<path d="M71.4642 9.12407C72.1546 9.12407 72.7908 9.57277 72.9961 10.2643L91.1857 71.429C91.4366 72.2717 90.9533 73.1633 90.1055 73.4154L46.3466 86.4287C46.1943 86.4742 46.0404 86.4956 45.8887 86.4956C45.1989 86.4956 44.5621 86.0469 44.3568 85.3553L26.1671 24.1906C25.9168 23.348 26.399 22.4569 27.2474 22.2043L71.0063 9.19097C71.1591 9.14598 71.3131 9.12407 71.4642 9.12407ZM71.4642 8.11475C71.2122 8.11475 70.9613 8.15166 70.7185 8.22375L26.9596 21.237C25.58 21.6477 24.7904 23.1017 25.1999 24.4784L43.3896 85.6437C43.7155 86.7401 44.7432 87.5055 45.8892 87.5055C46.1413 87.5055 46.3922 87.4686 46.6344 87.3965L90.3939 74.3832C91.0617 74.1848 91.6125 73.7384 91.9453 73.1258C92.2781 72.5133 92.3525 71.8085 92.1541 71.1418L73.9645 9.97709C73.638 8.88068 72.6102 8.11475 71.4642 8.11475Z" fill="#0A1640"/>
<path d="M69.777 50.0233C65.4606 51.3072 60.7162 49.2995 58.7062 45.1123C56.4788 40.4711 58.442 34.8841 63.0826 32.6573C65.3302 31.577 67.8645 31.4386 70.2171 32.2657C72.5691 33.0921 74.4591 34.7861 75.5376 37.0337C76.6161 39.2819 76.7551 41.815 75.9287 44.1676C75.1022 46.5196 73.4082 48.4096 71.1606 49.4881C70.7073 49.7061 70.2447 49.8843 69.777 50.0233ZM59.7155 44.6272C60.6654 46.6055 62.3282 48.0958 64.3988 48.8231C66.4687 49.5498 68.6996 49.4275 70.6762 48.4788C72.6544 47.5294 74.1447 45.8661 74.8726 43.7955C75.5999 41.7256 75.4776 39.4958 74.5283 37.5182C73.579 35.5399 71.9162 34.0496 69.8456 33.3217C67.7757 32.595 65.5454 32.7184 63.5677 33.666C59.4837 35.6264 57.7557 40.5432 59.7155 44.6272Z" fill="#D811AD"/>
<path d="M69.2514 45.4941L69.2578 45.5068C68.7998 45.8517 68.1354 46.1239 67.535 46.271L67.5229 46.2768C67.0586 45.8292 66.4011 44.8822 65.9362 44.4975C65.4748 44.6405 65.5244 44.6792 65.1443 44.862C65.1715 45.5033 65.6259 46.5484 65.6023 47.2457C65.5896 47.2521 65.5833 47.2705 65.5706 47.2769C65.4494 47.3818 64.9379 47.5497 63.7907 48.1155C63.778 48.1218 63.778 48.1218 63.759 48.1155C63.6961 47.7244 62.1821 42.9789 61.4531 38.3401C61.6752 38.1866 61.9145 38.1653 62.9809 37.5286C63.4498 38.1145 65.5631 40.7636 66.1733 41.5157L69.2514 45.4941ZM64.3375 43.4097C64.6351 43.2828 64.9586 43.1115 65.2753 42.9599C62.6701 38.8309 63.4458 40.6419 64.3375 43.4097Z" fill="#D811AD"/>
<path d="M70.4477 43.112C70.1345 42.6229 70.1258 42.409 69.8023 41.8316C69.7354 41.6921 69.6742 41.5975 69.6552 41.5906L69.6298 41.6027C69.4522 41.688 68.3379 42.1604 68.1626 42.1512C68.1435 42.1443 68.1435 42.1442 68.1378 42.1321C67.9993 41.7463 67.3269 40.5726 67.2778 40.4711C67.3788 40.4538 68.7503 39.6394 68.8264 39.5719C68.7353 39.3816 68.6263 39.1221 68.4688 38.7616C68.3662 38.5142 68.2877 38.2869 68.2214 38.1162C68.1851 38.0095 68.1799 37.9645 68.1499 37.8705C68.4192 37.9126 69.714 37.1351 70.0111 37.0388C70.1876 37.4068 70.6726 38.483 70.7908 38.5984C71.2021 38.4478 71.938 38.032 72.3481 37.9126C72.6509 38.641 72.945 39.1232 73.1792 39.7744C73.1088 39.8863 71.8302 40.4065 71.7142 40.5864C71.8919 40.8592 72.246 41.9216 72.3677 42.1748L72.3798 42.2002C72.4346 42.3144 70.5238 43.0757 70.4788 43.1443C70.4725 43.1311 70.4656 43.1501 70.4477 43.112Z" fill="#D811AD"/>
<path d="M108.865 42.3832C108.785 42.3486 108.692 42.3255 108.6 42.3082C108.502 42.2909 108.398 42.2852 108.289 42.2852C108.278 42.2852 108.264 42.2875 108.254 42.2875C108.183 42.288 108.107 42.2955 108.031 42.3025C107.973 42.3076 107.914 42.3134 107.853 42.3221C107.766 42.3342 107.677 42.3497 107.584 42.3688C107.526 42.3809 107.466 42.3947 107.406 42.4092C107.311 42.4316 107.218 42.4536 107.118 42.4818C106.963 42.5257 106.803 42.5753 106.639 42.6318C106.374 42.7241 106.097 42.8279 105.814 42.949C105.624 43.0297 105.434 43.1105 105.243 43.2028C104.667 43.4681 104.084 43.768 103.536 44.0679C103.352 44.1717 103.173 44.2698 103 44.3736C102.913 44.4197 102.827 44.4716 102.74 44.5235C102.487 44.6735 102.244 44.8177 102.025 44.9561C101.875 45.0484 101.731 45.1407 101.598 45.2272C101.466 45.3137 101.345 45.3944 101.235 45.4694C101.016 45.6194 100.837 45.752 100.71 45.8501C100.404 46.0981 100.358 46.5422 100.601 46.8536C100.745 47.0266 100.952 47.1189 101.16 47.1189C101.316 47.1189 101.471 47.067 101.604 46.9632C101.794 46.8075 102.054 46.6229 102.371 46.4211C102.498 46.3403 102.631 46.2538 102.769 46.1673C103.398 45.7809 104.165 45.3483 104.926 44.9503C105.18 44.8177 105.434 44.6908 105.682 44.5697C105.763 44.5293 105.849 44.4889 105.93 44.4543C106.091 44.3793 106.247 44.3044 106.403 44.2351C107.176 43.8949 107.822 43.6699 108.162 43.6699C108.208 43.6699 108.248 43.6757 108.283 43.6815C108.669 43.8545 108.393 44.3101 107.574 47.3323C107.152 48.8838 106.53 51.162 105.243 55.5568C99.8162 56.5142 98.2878 62.8816 100.837 65.0041C101.252 65.3501 101.719 65.5231 102.181 65.5231C102.637 65.5231 103.086 65.3559 103.473 65.0214C104.055 64.5196 104.303 63.6948 104.482 63.0892C109.038 47.8456 108.819 47.9379 109.673 45.1234C109.829 44.6037 110.307 43.0234 108.865 42.3832ZM103.184 60.3087C102.752 61.8313 102.412 63.0425 102.198 63.1694C102.169 63.1579 102.066 63.0887 101.956 62.8868C101.852 62.6907 101.546 61.9755 101.916 60.7874C102.302 59.5301 103.179 58.7457 103.732 58.417C103.519 59.1379 103.34 59.7608 103.184 60.3087Z" fill="#FF8CDB"/>
<path d="M109.275 41.4604C108.987 41.3336 108.658 41.2759 108.289 41.2759C107.008 41.2759 105.163 42.0545 103.536 42.9196C101.91 43.7848 100.503 44.7306 100.082 45.0652C99.3433 45.6592 99.2222 46.7435 99.8163 47.4817C100.145 47.8912 100.635 48.1277 101.16 48.1277C101.547 48.1277 101.933 47.9893 102.233 47.7471C103.202 46.9684 105.711 45.6073 107.181 44.9959C107.158 45.0709 107.135 45.1517 107.112 45.2324C106.98 45.7053 106.807 46.3052 106.599 47.0665C106.207 48.5141 105.618 50.6712 104.442 54.6969C101.212 55.5159 99.4529 58.0363 98.8704 60.2165C98.2706 62.4716 98.7781 64.5998 100.191 65.7764C100.779 66.2666 101.472 66.5319 102.181 66.5319C102.89 66.5319 103.565 66.2724 104.13 65.7879C104.938 65.09 105.244 64.0577 105.451 63.3771C108.589 52.8744 109.465 49.6503 109.984 47.724C110.221 46.8531 110.377 46.2763 110.636 45.4112C111.415 42.8504 110.117 41.8353 109.275 41.4604ZM109.673 45.1228C108.819 47.9374 109.039 47.8451 104.482 63.0887C104.303 63.6943 104.055 64.519 103.473 65.0208C103.086 65.3553 102.637 65.5226 102.181 65.5226C101.72 65.5226 101.252 65.3496 100.837 65.0035C98.2879 62.8811 99.8163 56.5137 105.244 55.5563C106.53 51.1614 107.153 48.8833 107.574 47.3318C108.393 44.3096 108.669 43.854 108.283 43.6809C108.248 43.6752 108.208 43.6694 108.162 43.6694C107.822 43.6694 107.176 43.8943 106.403 44.2346C106.247 44.3038 106.091 44.3788 105.93 44.4538C105.849 44.4884 105.763 44.5288 105.682 44.5691C105.434 44.6903 105.18 44.8171 104.926 44.9498C104.165 45.3478 103.398 45.7803 102.769 46.1667C102.631 46.2533 102.498 46.3398 102.371 46.4205C102.054 46.6224 101.795 46.8069 101.604 46.9627C101.472 47.0665 101.316 47.1184 101.16 47.1184C100.952 47.1184 100.745 47.0261 100.601 46.8531C100.358 46.5416 100.405 46.0975 100.71 45.8495C100.837 45.7515 101.016 45.6188 101.235 45.4689C101.345 45.3939 101.472 45.3074 101.598 45.2266C101.731 45.1401 101.875 45.0479 102.025 44.9556C102.244 44.8171 102.487 44.6672 102.74 44.523C102.827 44.4711 102.913 44.4192 103 44.373C103.173 44.2692 103.352 44.1654 103.536 44.0674C104.084 43.7675 104.667 43.4675 105.244 43.2022C105.434 43.11 105.624 43.0292 105.815 42.9485C106.097 42.8273 106.374 42.7235 106.639 42.6313C106.804 42.5736 106.962 42.5263 107.119 42.4813C107.217 42.453 107.312 42.4311 107.406 42.4086C107.466 42.3942 107.526 42.3804 107.584 42.3682C107.676 42.3492 107.766 42.3342 107.853 42.3215C107.914 42.3129 107.973 42.3071 108.032 42.3019C108.107 42.295 108.183 42.2881 108.254 42.2869C108.376 42.2858 108.495 42.2892 108.6 42.3077C108.693 42.325 108.785 42.3481 108.866 42.3827C110.307 43.0234 109.829 44.6037 109.673 45.1228Z" fill="#0A1640"/>
<path d="M104.413 57.2577C103.559 57.0039 101.592 58.4054 100.946 60.4875C100.508 61.9121 100.802 63.031 101.217 63.6077C101.477 63.9653 101.817 64.1672 102.163 64.1729H102.192C103.138 64.1729 103.374 63.3309 104.159 60.5798C104.349 59.9107 104.574 59.1148 104.851 58.1747C104.88 58.0766 104.891 57.9901 104.891 57.9094C104.891 57.5633 104.666 57.3384 104.413 57.2577ZM103.184 60.3087C102.752 61.8313 102.411 63.0425 102.198 63.1694C102.169 63.1579 102.065 63.0886 101.956 62.8868C101.852 62.6907 101.546 61.9755 101.915 60.7874C102.302 59.5301 103.178 58.7457 103.732 58.4169C103.519 59.1379 103.34 59.7608 103.184 60.3087Z" fill="#0A1640"/>
<path d="M104.828 27.2548L103.185 33.3338C103.035 33.2415 102.873 33.1666 102.7 33.1204L100.434 32.5033C100.261 32.4572 100.082 32.4398 99.9087 32.4514L101.558 26.3666C101.697 25.8476 102.239 25.5361 102.758 25.6803L104.136 26.0494C104.655 26.1936 104.967 26.73 104.828 27.2548Z" fill="#6B7FFF"/>
<path d="M103.894 35.191L87.5493 95.6175C87.3647 96.2981 86.788 96.7653 86.1362 96.8518C85.9171 96.8806 85.6979 96.8691 85.473 96.8056L83.2121 96.1943C82.9872 96.1366 82.7911 96.0328 82.618 95.9001C82.0932 95.4964 81.8337 94.7985 82.0182 94.118L98.3634 33.6972C98.5595 32.9705 99.194 32.4861 99.9091 32.4515C100.082 32.4399 100.261 32.4572 100.434 32.5034L102.701 33.1205C102.874 33.1666 103.035 33.2416 103.185 33.3339C103.779 33.7261 104.091 34.4701 103.894 35.191Z" fill="#6B7FFF"/>
<path d="M102.759 25.6779L104.135 26.0499C104.658 26.1912 104.968 26.7305 104.826 27.2536L104.274 29.2965L101.003 28.4117L101.555 26.3689C101.697 25.8463 102.237 25.5361 102.759 25.6779Z" fill="#332FBA"/>
<path d="M100.433 32.5049L102.7 33.118C103.602 33.362 104.135 34.2905 103.891 35.192L102 42.1846L96.4683 40.6885L98.3594 33.6959C98.6034 32.7944 99.532 32.2609 100.433 32.5049Z" fill="#D811AD"/>
<path d="M100.434 32.5049L102.7 33.118C103.602 33.362 104.135 34.2905 103.891 35.192L102.495 40.3568L96.9629 38.8607L98.3598 33.6959C98.6038 32.7944 99.5323 32.2609 100.434 32.5049Z" fill="#FF8CDB"/>
<path opacity="0.5" d="M87.2425 79.5323C88.3585 74.7654 89.6677 70.0545 91.0243 65.3574C92.4004 60.6661 93.8244 55.9892 95.4439 51.3688C95.5033 51.1992 95.689 51.1098 95.8586 51.1693C96.0166 51.2246 96.1043 51.3913 96.068 51.5511C94.9473 56.3168 93.6318 61.0254 92.2672 65.7202C90.8835 70.4092 89.4532 75.0843 87.829 79.703C87.7731 79.8622 87.5983 79.9464 87.4386 79.8899C87.2909 79.8385 87.2085 79.6817 87.2425 79.5323Z" fill="white"/>
<path opacity="0.25" d="M97.4547 37.0475L98.3613 33.6966C98.5574 32.9716 99.1953 32.4842 99.9099 32.4514C100.082 32.4404 100.261 32.4583 100.436 32.5056L102.701 33.1181C102.876 33.1654 103.036 33.2392 103.182 33.3367C103.779 33.7243 104.088 34.4671 103.892 35.1927L87.5478 95.6163C87.3632 96.2986 86.7876 96.7681 86.1324 96.8517C85.9173 96.8817 85.6947 96.8673 85.4732 96.8079L84.8013 96.6262C85.0256 95.8395 85.2609 95.0251 85.5037 94.1859C85.6595 93.653 85.8169 93.1126 85.9773 92.5618C86.0713 92.2423 86.1664 91.9193 86.2662 91.5934C86.3279 91.38 86.3891 91.1666 86.4519 90.9498C86.6111 90.4174 86.7732 89.8753 86.933 89.3279C87.0916 88.7996 87.2525 88.2604 87.4111 87.7165C87.5714 87.1807 87.7323 86.642 87.8921 86.0947C88.0513 85.5629 88.2116 85.0271 88.3737 84.4844C88.534 83.9486 88.6915 83.4087 88.8547 82.8625C93.3603 67.6639 98.4865 49.7615 98.3561 41.1996C98.3452 40.4607 98.2927 39.7905 98.1998 39.1982C98.0585 38.2881 97.814 37.5626 97.4547 37.0475Z" fill="#0A1640"/>
<path d="M105.606 26.0092C105.341 25.5477 104.909 25.2132 104.395 25.0748L103.023 24.7057C102.85 24.6595 102.676 24.6365 102.503 24.6365C101.604 24.6365 100.814 25.2421 100.583 26.1072L99.0949 31.5921C98.2759 31.8747 97.6241 32.5553 97.3877 33.432L81.0425 93.8585C80.8233 94.6774 80.9963 95.5253 81.4923 96.1828L81.0425 97.8554C80.8175 98.6744 81.0482 99.5222 81.6019 100.105L80.656 103.583C80.5407 104.021 80.5984 104.482 80.8233 104.88C81.054 105.272 81.4174 105.555 81.8615 105.676C82.0056 105.717 82.1556 105.734 82.3056 105.734C83.0726 105.734 83.7474 105.215 83.9493 104.476L84.8952 100.987C85.668 100.756 86.2909 100.139 86.5043 99.3319L86.9542 97.665C87.7097 97.3594 88.298 96.7019 88.523 95.8771L104.868 35.4564C105.105 34.5797 104.885 33.6684 104.314 33.0052L105.797 27.5145C105.942 27.0069 105.872 26.4648 105.606 26.0092ZM82.9752 104.211C82.8944 104.523 82.6118 104.724 82.3061 104.724C82.2427 104.724 82.185 104.719 82.1216 104.701C81.7524 104.598 81.5333 104.217 81.6313 103.848L82.4849 100.693C82.5599 100.728 82.6349 100.751 82.7156 100.774L83.5865 101.01C83.6673 101.028 83.748 101.045 83.8288 101.062L82.9752 104.211ZM85.5296 99.0723C85.4604 99.3376 85.3104 99.5626 85.1201 99.7298C84.8721 99.9548 84.5491 100.082 84.2088 100.082C84.1685 100.082 84.1281 100.076 84.082 100.076C84.007 100.07 83.9262 100.053 83.8513 100.035L82.9804 99.799C82.9054 99.776 82.8304 99.7529 82.7612 99.7183C82.4094 99.5568 82.1498 99.2569 82.0402 98.8993C81.9537 98.6571 81.9422 98.386 82.0172 98.1207L82.3402 96.921C82.5305 97.0306 82.7323 97.1114 82.9457 97.169L85.2124 97.7804C85.4258 97.8381 85.645 97.8727 85.8584 97.8784L85.5296 99.0723ZM103.894 35.1911L87.5488 95.6176C87.52 95.7214 87.4854 95.8194 87.4335 95.9117C87.1855 96.4308 86.6895 96.7768 86.1358 96.8518C86.0608 96.8633 85.9858 96.8691 85.9108 96.8691C85.7667 96.8691 85.6225 96.846 85.4725 96.8057L83.2116 96.1943C82.9867 96.1366 82.7906 96.0328 82.6176 95.9002C82.1735 95.5599 81.9197 95.012 81.9658 94.441C81.9716 94.3314 81.9889 94.2276 82.0178 94.118L98.363 33.6973C98.4264 33.455 98.5417 33.2359 98.7032 33.0571C98.9916 32.6995 99.43 32.4746 99.9087 32.4515C99.9433 32.4515 99.9779 32.4457 100.007 32.4457C100.151 32.4457 100.295 32.4688 100.433 32.5034L102.7 33.1205C102.873 33.1667 103.035 33.2416 103.185 33.3339C103.571 33.5877 103.842 33.9972 103.923 34.4528C103.969 34.6951 103.963 34.9431 103.894 35.1911ZM104.828 27.2549L103.45 32.3361C103.294 32.2496 103.133 32.1919 102.965 32.1458L100.699 31.5287C100.532 31.4883 100.359 31.4537 100.185 31.4422L101.558 26.3667C101.674 25.9342 102.071 25.6458 102.504 25.6458C102.585 25.6458 102.671 25.6573 102.758 25.6804L104.136 26.0495C104.655 26.1937 104.967 26.7301 104.828 27.2549Z" fill="#0A1640"/>
<path d="M17.0018 8.67083C16.312 7.94469 15.6932 7.35007 15.4359 6.72603C15.1804 6.10717 15.9152 5.55521 16.402 5.92952C17.1985 6.54146 18.0717 7.92336 18.3139 7.83166C18.5533 7.74111 18.4466 7.41466 18.4495 7.18684C18.4662 5.92087 18.3722 5.14802 18.5331 4.32154C18.6554 3.69403 19.6808 3.78168 19.8071 4.32499C19.9288 4.84926 19.8631 5.43813 19.9012 8.14945C19.9138 9.04803 20.6354 8.36977 21.6158 7.72438C22.1724 7.35814 23.0312 7.10495 23.3057 7.70938C23.5318 8.2077 23.0923 8.5105 22.6413 8.82656C20.2668 10.4893 20.2161 10.021 23.6189 10.9652C24.2441 11.1388 24.9974 11.4064 24.7776 12.0379C24.5538 12.6822 23.8248 12.4122 22.3524 12.08C22.1586 12.0362 21.9769 11.9289 21.7825 11.9007C21.3528 11.8389 20.9514 11.6157 20.501 11.6763C20.4272 12.2058 20.8914 12.4884 21.0743 12.9013C21.3667 13.5629 21.9209 13.8726 21.7675 14.6258C21.7075 14.9194 21.4082 15.1039 21.136 14.9926C19.8083 14.4487 19.5061 12.2461 18.9403 13.4694C18.209 15.0503 18.0982 15.4431 17.6628 16.0348C17.2521 16.5931 16.4649 16.2269 16.5946 15.5521C16.8098 14.4332 17.9189 12.538 17.7026 12.328C17.4771 12.1089 15.4826 13.8893 14.7081 13.9158C14.148 13.9349 13.8966 13.4487 14.1607 13.0351C14.5616 12.4059 14.9134 12.2848 16.4885 11.186C16.6108 11.1007 16.789 11.0159 16.7221 10.8273C16.6621 10.6583 16.4735 10.6456 16.3207 10.6231C15.5461 10.5095 13.7974 10.2788 13.7172 10.2563C12.9599 10.0418 13.0655 8.8231 13.9289 8.91307C16.9309 9.2251 17.7268 9.61267 16.9839 8.68813C16.9897 8.68179 16.996 8.67602 17.0018 8.67083Z" fill="#E38921"/>
<path d="M44.9638 3.86062C44.2613 3.07797 43.2693 2.11479 43.9066 1.6257C44.3507 1.28484 44.676 1.69318 45.0838 2.16266C45.3174 2.43143 45.8964 3.26138 46.0533 3.20658C46.2678 3.13218 46.1352 3.01972 46.2148 1.12104C46.2378 0.565629 46.2863 -0.0728322 46.8359 0.00675985C47.5863 0.11519 47.3844 0.383378 47.3406 3.50304C47.3302 4.23609 47.9341 3.6997 48.749 3.1962C49.2116 2.91013 49.9175 2.72385 50.1275 3.22274C50.3011 3.63512 49.9325 3.87273 49.56 4.11843C47.5851 5.41958 47.554 5.03605 50.3074 5.88504C50.8132 6.04076 51.4217 6.27664 51.2279 6.78649C50.8934 7.6672 48.5362 6.30952 47.7484 6.39314C47.6757 6.8234 48.0483 7.06449 48.1873 7.40535C48.4105 7.95154 48.8557 8.21569 48.7127 8.82763C48.5639 9.46552 47.8355 9.03295 47.4606 8.48215C46.4951 7.06218 46.8204 7.12909 45.702 9.30979C45.4783 9.7464 45.1599 10.2649 44.7268 10.0428C44.2602 9.80407 44.4989 9.255 44.7256 8.72785C45.7309 6.38911 46.0642 6.38278 43.609 7.86215C42.5247 8.51561 41.8488 7.56742 43.2532 6.69191C45.3398 5.39133 45.1887 5.57243 42.7266 5.16121C42.4953 5.12256 41.7069 5.11218 41.8689 4.3797C41.9283 4.10978 42.1389 3.9454 42.452 3.98693C44.8906 4.31049 45.5331 4.64732 44.9488 3.8739C44.9534 3.86986 44.9586 3.86524 44.9638 3.86062Z" fill="#E38921"/>
<path d="M3.36642 34.7303C2.43726 34.6437 1.63788 34.6057 1.0744 34.3259C0.515522 34.0485 0.692584 33.2105 1.26415 33.1747C2.19791 33.1153 3.65883 33.5502 3.77303 33.3368C3.88492 33.1269 3.60981 32.9631 3.47254 32.8016C2.70776 31.903 2.16792 31.4185 1.77342 30.7391C1.47409 30.2241 2.24751 29.6565 2.6697 29.9605C3.07631 30.2535 3.38775 30.7034 5.08168 32.587C5.64171 33.2099 5.73226 32.2912 6.02467 31.2369C6.19078 30.6382 6.63834 29.934 7.20125 30.1895C7.66669 30.4011 7.54211 30.8856 7.42042 31.381C6.77388 34.0041 6.4509 33.7065 9.41829 32.2825C9.96333 32.0212 10.6566 31.7467 10.8896 32.3246C11.1341 32.9302 10.3965 33.2013 9.21297 33.8421C9.05032 33.9303 8.85711 33.9661 8.70312 34.0658C8.36341 34.2862 7.94469 34.3755 7.66612 34.6945C7.9395 35.1115 8.43839 35.025 8.81962 35.2026C9.43098 35.4875 10.0095 35.3647 10.3636 35.9876C10.5014 36.2304 10.4051 36.5436 10.1456 36.6324C8.88133 37.065 7.31718 35.7044 7.67015 36.9104C8.21403 38.7652 8.71984 39.8864 7.96372 40.0987C7.38754 40.2607 7.16146 39.6148 6.94229 38.9971C5.96815 36.25 6.25019 35.9772 5.3343 39.1378C4.94441 40.4845 3.61903 40.2925 4.12831 38.4324C4.87001 35.72 4.87982 35.9945 2.49898 37.5575C2.34441 37.659 2.19849 37.7801 2.03238 37.8586C1.37027 38.1723 0.694893 37.253 1.35701 36.7858C3.64614 35.1697 4.45821 34.9506 3.36295 34.7539C3.36468 34.7452 3.36526 34.7378 3.36642 34.7303Z" fill="#E38921"/>
</svg>
