<svg width="390" height="609" viewBox="0 0 390 609" fill="none" xmlns="http://www.w3.org/2000/svg">
<ellipse cx="195" cy="408" rx="429" ry="360" fill="#8DD44F"/>
<path d="M20.9847 613.315C23.7872 611.039 26.1614 608.224 28.9282 605.881C33.2193 602.246 38.483 599.768 44.0211 598.775C44.5434 598.681 45.2372 598.238 44.92 597.813C44.8037 597.656 44.5925 597.611 44.4003 597.579C37.6261 596.447 30.505 597.482 24.3352 600.496C24.0579 600.632 23.7099 600.767 23.4612 600.584C23.2199 600.405 23.237 600.046 23.2846 599.75C24.4981 592.178 29.7261 585.366 36.7327 582.23C37.2643 581.992 37.8596 581.259 37.3476 580.982C37.2037 580.904 37.0282 580.924 36.8661 580.948C28.491 582.182 20.7609 587.252 16.2988 594.437C16.1207 594.724 15.8512 595.057 15.5232 594.975C15.2158 594.898 15.1202 594.516 15.0793 594.202C14.5097 589.813 13.6792 585.423 12.0121 581.322C11.0116 578.862 9.70114 576.513 8.03333 574.44C7.17488 573.373 6.20453 572.239 5.09402 571.424C3.7095 570.408 3.34662 571.351 3.63475 572.843C5.16649 580.777 5.89629 588.864 5.80967 596.944C5.80335 597.527 5.60743 598.306 5.02299 598.299C4.66496 598.295 4.40695 597.969 4.20173 597.676C2.11343 594.699 -0.299459 591.89 -3.30457 589.839C-6.30969 587.788 -9.96575 586.54 -13.5884 586.89C-13.7501 586.906 -13.9208 586.928 -14.049 587.027C-14.4654 587.35 -14.0643 587.998 -13.6676 588.345C-7.9559 593.341 -2.04049 599.088 -0.879414 606.581C-0.831825 606.889 -0.810246 607.251 -1.03889 607.462C-1.3668 607.765 -1.88769 607.513 -2.26171 607.269C-6.97888 604.193 -13.178 603.511 -18.4528 605.486C-18.6859 605.573 -18.9499 605.703 -18.9938 605.948C-19.0547 606.289 -18.6566 606.514 -18.3275 606.625C-13.0571 608.404 -7.04991 609.834 -3.99981 614.48C-2.99562 616.01 -2.26171 617.927 -0.580881 618.653C0.226629 619.002 1.13564 619.01 2.01565 618.996C7.94966 618.902 14.0926 617.989 19.0533 614.735C19.724 614.296 20.3649 613.819 20.9847 613.315Z" fill="#45BD68"/>
<path d="M256.153 284.381C254.583 284.381 253.311 283.109 253.311 281.539C253.311 279.968 254.583 278.696 256.153 278.696C257.723 278.696 258.995 279.968 258.995 281.539C258.995 283.109 257.723 284.381 256.153 284.381ZM268.837 276.337C268.719 276.455 268.344 275.043 266.284 274.699C263.751 274.263 260.43 276.149 258.795 278.061C259.719 275.716 259.923 272.487 258.561 270.523C257.532 269.086 256.191 269.081 256.112 269C256.112 269.087 255.712 268.965 254.835 269.478C251.604 271.375 252.837 277.578 253.58 278.342C251.335 276.467 247.382 275.335 246.095 277.91L246.069 277.949C245.555 280.416 248.01 282.013 250.495 282.521C247.767 284.771 245.735 288.648 248.247 291.176C251.844 292.974 255.391 288.804 256.295 284.757L256.305 284.794C256.869 287.255 259.1 290.312 261.578 290.312C262.496 290.312 263.046 289.899 263.125 289.899C263.125 289.82 263.963 289.163 263.963 287.785C263.963 285.784 262.257 283.733 260.446 282.577C263.707 282.897 268.673 280.985 268.953 277.588C269.014 276.843 268.837 276.45 268.837 276.337Z" fill="#F576A7"/>
<path d="M256.153 278.695C254.584 278.695 253.311 279.968 253.311 281.539C253.311 283.108 254.584 284.381 256.153 284.381C257.723 284.381 258.995 283.108 258.995 281.539C258.995 279.968 257.723 278.695 256.153 278.695Z" fill="#F7E027"/>
<path d="M30.5224 202.104C28.8236 200.98 28.3556 198.69 29.4765 196.989C30.5996 195.288 32.8857 194.819 34.5845 195.942C36.2833 197.064 36.7513 199.353 35.6305 201.057C34.5097 202.758 32.2212 203.227 30.5224 202.104ZM50 202.458C49.8783 202.484 50.2434 200.565 48.4065 198.857C46.0128 196.605 41.1129 196.193 37.837 197.188C40.535 195.314 43.1042 191.93 43.0317 188.805C42.9428 186.466 41.4943 185.541 41.4663 185.402C41.4195 185.475 40.9117 185.067 39.7441 185.006C34.8747 184.749 31.8047 192.408 32.0527 193.716C30.9623 190.077 27.4922 186.021 24.2584 187.891L24.2023 187.914C21.8857 190.22 23.3997 193.709 25.7209 196.04C21.1603 196.525 16.195 199.274 17.1099 203.812C19.7189 208.335 26.5352 206.355 30.4054 202.615C29.2565 205.694 29.4577 210.631 32.158 212.414C33.1712 213.084 34.0417 213.018 34.1282 213.075C34.175 213 35.5603 212.876 36.5454 211.381C37.9798 209.204 37.589 205.738 36.4424 203.184C39.7136 205.856 46.462 207.432 49.2325 203.897C49.8315 203.133 49.9485 202.538 50 202.458Z" fill="#F2E43B"/>
<path d="M34.5499 195.954C32.8478 194.831 30.5571 195.3 29.4318 197.002C28.3087 198.704 28.7776 200.995 30.4797 202.12C32.1819 203.244 34.4749 202.775 35.5979 201.072C36.721 199.368 36.252 197.077 34.5499 195.954Z" fill="#F681C6"/>
<path d="M186.974 416.146C183.505 412.68 178.594 418.756 176.136 423.059C177.184 418.314 177.421 412 173 412C168.578 412 168.816 418.314 169.864 423.059C167.406 418.756 162.494 412.68 159.026 416.146C154.412 420.756 166.708 427.925 169.227 428.464C170.108 428.653 170.744 428.479 171.057 428.167C171.179 428.044 171.279 427.873 171.345 427.658C171.397 427.757 171.448 427.846 171.495 427.919C171.984 428.673 172.556 429 173 429C173.444 429 174.015 428.673 174.505 427.919C174.552 427.846 174.602 427.757 174.654 427.658C174.721 427.873 174.82 428.044 174.942 428.167C175.256 428.479 175.892 428.653 176.772 428.464C179.291 427.925 191.588 420.756 186.974 416.146Z" fill="#56B9AA"/>
<path d="M161.803 115.877C157.756 111.8 152.026 118.948 149.159 124.011C150.381 118.428 150.658 111 145.5 111C140.341 111 140.618 118.428 141.841 124.011C138.974 118.948 133.243 111.8 129.198 115.877C123.813 121.301 138.159 129.735 141.099 130.369C142.126 130.592 142.868 130.388 143.234 130.02C143.376 129.875 143.492 129.674 143.57 129.421C143.63 129.537 143.689 129.642 143.744 129.728C144.315 130.615 144.982 131 145.5 131C146.018 131 146.684 130.615 147.255 129.728C147.311 129.642 147.369 129.537 147.43 129.421C147.508 129.674 147.624 129.875 147.766 130.02C148.132 130.388 148.874 130.592 149.901 130.369C152.84 129.735 167.186 121.301 161.803 115.877Z" fill="#56B9AA"/>
<path d="M38.0733 132H34.1099V111.573H38.0733V132Z" fill="#BF9057"/>
<path d="M36.0915 57L51.1829 112.183H21L36.0915 57Z" fill="#45BD68"/>
<path d="M70.0852 127.122H67.3413V110.963H70.0852V127.122Z" fill="#BF9057"/>
<path d="M68.7141 68.2803L78.9268 111.573H58.5L68.7141 68.2803Z" fill="#45BD68"/>
<path d="M335.263 214.263H332.184V198.395H335.263V214.263Z" fill="#BF9057"/>
<path d="M333.724 156L345.447 198.868H322L333.724 156Z" fill="#45BD68"/>
<path d="M360.132 210.474H358V197.921H360.132V210.474Z" fill="#BF9057"/>
<path d="M359.066 164.763L367 198.395H351.131L359.066 164.763Z" fill="#45BD68"/>
<path d="M183.263 339.263H180.184V323.395H183.263V339.263Z" fill="#BF9057"/>
<path d="M181.724 281L193.447 323.868H170L181.724 281Z" fill="#45BD68"/>
<path d="M208.132 335.474H206V322.921H208.132V335.474Z" fill="#BF9057"/>
<path d="M207.066 289.763L215 323.395H199.131L207.066 289.763Z" fill="#45BD68"/>
<g filter="url(#filter0_d_2_13045)">
<path d="M241.555 152.218C241.555 152.218 108.798 146.663 89.101 191.686C69.4038 236.711 184.081 229.779 287.253 250.29C341.177 261.01 353.783 306.749 298.283 333.192C267.711 347.758 199.798 359.635 123.374 364.638C46.9496 369.641 -11.3984 421.455 38.6324 471.124C67.9706 500.251 140.604 499.854 179.926 496.376C191.772 495.329 206.45 493.535 206.45 482.738C206.45 470.636 194.855 464.417 181.54 465.177C116.894 468.742 48.6119 453.972 73.8242 418.715C115.727 368.243 191.48 406.804 309.314 363.209C355.405 346.157 373.177 313.769 369.541 288.168C363.623 246.495 317.459 226.737 286.465 222.419C253.985 217.892 258.203 219.879 191.218 212.413C126.632 205.214 121.283 199.013 120.556 195.128C120.067 192.508 119.896 186.429 134.011 178.11C156.109 165.081 241.555 152.218 241.555 152.218Z" fill="#F9FAFB"/>
<path d="M220.512 152.553C226.882 152.461 232.14 152.503 235.804 152.566C235.898 152.568 235.99 152.57 236.082 152.571C233.871 152.926 231.056 153.385 227.776 153.938C219.417 155.349 208.04 157.365 195.972 159.788C183.904 162.211 171.14 165.043 160.006 168.085C149.235 171.028 139.943 174.181 134.292 177.37L133.757 177.679C126.66 181.862 123.093 185.516 121.373 188.507C119.748 191.333 119.791 193.533 120.018 194.947L120.064 195.22C120.269 196.313 120.807 197.538 122.517 198.853C124.199 200.146 127.02 201.531 131.792 203.006C141.043 205.864 157.778 209.101 188.178 212.573L191.162 212.91C256.106 220.148 254.11 218.502 283.455 222.508L286.396 222.914C301.833 225.065 321.049 231.062 337.131 241.702C352.957 252.173 365.709 267.111 368.901 287.274L369.046 288.239C372.61 313.337 355.36 345.238 310.212 362.339L309.141 362.74C250.305 384.508 201.981 385.765 163.068 387.884C124.194 390 94.5492 392.969 73.4395 418.396L73.4277 418.409L73.418 418.424C70.2323 422.879 68.497 427.046 68.0654 430.925C67.6329 434.812 68.5137 438.379 70.502 441.612C74.4612 448.051 82.7918 453.139 93.8213 456.977C115.218 464.421 147.143 467.281 178.532 465.83L181.568 465.676H181.569C188.149 465.301 194.264 466.653 198.716 469.553C203.151 472.442 205.95 476.872 205.95 482.737C205.95 485.31 205.081 487.327 203.604 488.938C202.115 490.562 199.989 491.796 197.455 492.745C193.013 494.409 187.432 495.158 182.132 495.671L179.882 495.878C160.241 497.615 132.288 498.582 105.593 495.48C79.2871 492.424 54.3183 485.43 39.6738 471.441L38.9844 470.77C26.542 458.417 20.8859 445.98 20.5195 434.22C20.1532 422.458 25.0746 411.289 33.9531 401.467C51.4473 382.113 84.2327 368.077 121.623 365.263L123.407 365.137C161.634 362.634 197.736 358.412 228.11 352.993C257.524 347.745 281.601 341.369 297.031 334.327L298.498 333.644C326.334 320.381 337.309 302.163 334.294 285.754C331.332 269.637 314.928 255.622 288.61 250.058L287.35 249.8C261.536 244.668 235.008 241.253 210.055 238.314C185.092 235.375 161.719 232.914 142.183 229.688C122.628 226.458 107.008 222.472 97.5088 216.529C92.7696 213.564 89.602 210.14 88.2002 206.125C86.8447 202.242 87.1133 197.727 89.3379 192.404L89.5586 191.887C94.4004 180.819 106.231 172.789 121.41 166.992C136.571 161.203 154.966 157.682 172.773 155.564C190.576 153.448 207.769 152.735 220.512 152.553Z" stroke="#69C718"/>
</g>
<path d="M4.82189 393.97C11.6935 392.331 18.0345 395.095 20.0279 399.6C28.3206 385.731 54.9553 393.341 50.8378 407.441C58.8253 407.723 64.346 414.266 62.7422 420.401C61.2651 426.17 55.3479 429.651 49.4571 428.912C33.0607 426.854 16.4163 428.755 0.898341 434.457C-4.67727 436.507 -11.2205 434.449 -13.9492 429.16C-17.5415 422.46 -10.9984 413.382 -1.68587 413.372C-9.84802 408.821 -7.3223 396.869 4.82189 393.97Z" fill="#56B9AA"/>
<path d="M39.7872 427.69L24.0738 429.51L19.688 354.076L26.9624 353.232L39.7872 427.69Z" fill="#954638"/>
<path d="M39.8383 303.081C46.9848 302.253 53.6706 307.88 56.0027 316.118C56.7766 315.802 57.5901 315.579 58.4437 315.479C64.6892 314.757 70.476 320.473 71.3689 328.25C71.6765 330.929 71.3513 333.494 70.5533 335.747C76.1442 335.933 81.0746 341.257 81.8859 348.322C82.6844 355.276 79.2131 361.492 73.954 363.08C71.3644 368.371 66.8704 372.096 61.4169 372.727C57.2724 373.208 53.2617 371.823 49.9415 369.131C47.4309 375.306 42.5176 379.742 36.4488 380.446C29.6955 381.229 23.2905 377.183 19.5254 370.589C20.0536 379.109 15.1816 386.464 8.2687 387.266C1.57756 388.042 -4.64974 382.403 -6.32743 374.408C-6.86288 378.445 -9.47596 381.631 -12.9502 382.034C-17.232 382.53 -21.1994 378.61 -21.8116 373.279C-21.8861 372.63 -21.9054 371.991 -21.8778 371.367C-22.6812 371.781 -23.551 372.057 -24.474 372.164C-29.5149 372.749 -34.1853 368.135 -34.906 361.859C-35.6267 355.582 -32.1246 350.02 -27.0838 349.436C-25.5962 349.264 -24.1442 349.554 -22.8132 350.196C-23.651 339.259 -17.447 329.747 -8.59891 328.72C-3.49207 328.129 1.40329 330.491 4.95068 334.677C4.21024 325.783 9.23774 318.023 16.4224 317.19C20.4089 316.728 24.2282 318.505 27.0673 321.676C26.5968 312.151 32.0872 303.979 39.8383 303.081Z" fill="#45BD68"/>
<path d="M-14.6641 323.982C-15.6164 327.721 -14.714 331.684 -12.2165 334.652C-9.7254 337.614 -5.98939 339.173 -2.16077 338.869C-1.20515 335.127 -2.10628 331.161 -4.60637 328.19C-7.10013 325.225 -10.836 323.669 -14.6641 323.982ZM-1.29005 339.908L-1.66142 339.948C-5.99155 340.432 -10.2565 338.723 -13.0707 335.378C-15.8922 332.023 -16.8524 327.511 -15.6397 323.303L-15.5359 322.943L-15.165 322.902C-10.8358 322.41 -6.56899 324.116 -3.75232 327.464C-0.928546 330.82 0.0309258 335.337 -1.18586 339.546L-1.29005 339.908Z" fill="#7BCF8B"/>
<path d="M48.6973 312.77C45.0577 312.198 41.3747 313.423 38.7814 316.089C36.1944 318.747 35.0528 322.472 35.6904 326.116C39.3323 326.692 43.0181 325.468 45.6142 322.799C48.2038 320.138 49.3422 316.413 48.6973 312.77ZM34.7822 327.045L34.7089 326.693C33.8564 322.584 35.0923 318.338 38.0145 315.335C40.9445 312.324 45.1457 310.993 49.2533 311.773L49.6046 311.84L49.6784 312.192C50.5386 316.3 49.3059 320.547 46.381 323.553C43.4487 326.566 39.2443 327.897 35.1341 327.114L34.7822 327.045Z" fill="#7BCF8B"/>
<path d="M35.4351 326.782L35.0503 326.403L48.9577 312.111L49.3426 312.488L35.4351 326.782Z" fill="#7BCF8B"/>
<path d="M44.3931 317.196L45.7046 312.082L46.2254 312.217L45.1472 316.421L49.3066 315.242L49.453 315.763L44.3931 317.196Z" fill="#7BCF8B"/>
<path d="M40.7114 320.98L42.8215 312.665L43.3424 312.798L41.461 320.209L48.7618 318.153L48.9083 318.673L40.7114 320.98Z" fill="#7BCF8B"/>
<path d="M37.0054 324.781L39.5295 314.867L40.0503 315L37.7569 324.009L46.6686 321.501L46.8133 322.021L37.0054 324.781Z" fill="#7BCF8B"/>
<path d="M15.7807 313.972C13.3728 316.027 12.1036 319.118 12.3753 322.301C12.6465 325.479 14.4164 328.309 17.1299 329.933C19.5412 327.878 20.8125 324.787 20.5404 321.599C20.269 318.418 18.4978 315.591 15.7807 313.972ZM17.2227 331.046L16.9536 330.898C13.8193 329.153 11.7653 325.969 11.4591 322.381C11.1521 318.783 12.6428 315.295 15.447 313.051L15.6868 312.859L15.9557 313.007C19.0935 314.746 21.1502 317.928 21.4566 321.52C21.764 325.121 20.271 328.61 17.463 330.854L17.2227 331.046Z" fill="#7BCF8B"/>
<path d="M17.4172 330.471L16.9574 330.511L15.5 313.432L15.9598 313.392L17.4172 330.471Z" fill="#7BCF8B"/>
<path d="M16.2331 319.259L13.6597 315.54L14.0388 315.275L16.154 318.333L17.7206 314.958L18.1389 315.154L16.2331 319.259Z" fill="#7BCF8B"/>
<path d="M16.619 323.781L12.4233 317.748L12.8012 317.483L16.5405 322.86L19.2975 316.944L19.7158 317.139L16.619 323.781Z" fill="#7BCF8B"/>
<path d="M17.0027 328.328L12.0044 321.131L12.3823 320.865L16.924 327.405L20.2908 320.183L20.708 320.38L17.0027 328.328Z" fill="#7BCF8B"/>
<path d="M-2.55339 351.385C0.129149 351.796 2.83855 350.883 4.74128 348.912C6.63908 346.947 7.4692 344.199 6.98915 341.517C4.30476 341.103 1.59321 342.015 -0.311225 343.988C-2.21118 345.956 -3.03899 348.704 -2.55339 351.385ZM7.65535 340.829L7.71045 341.088C8.35026 344.113 7.45222 347.245 5.30823 349.465C3.15868 351.691 0.0677147 352.685 -2.96011 352.12L-3.21912 352.074L-3.27453 351.813C-3.91989 348.791 -3.02417 345.658 -0.878326 343.436C1.27292 341.207 4.3662 340.215 7.39604 340.781L7.65535 340.829Z" fill="#7BCF8B"/>
<path d="M7.17535 341.026L7.45982 341.303L-2.74336 351.872L-3.02783 351.594L7.17535 341.026Z" fill="#7BCF8B"/>
<path d="M0.604391 348.113L-0.346901 351.885L-0.730935 351.785L0.0511811 348.685L-3.00922 349.566L-3.11865 349.183L0.604391 348.113Z" fill="#7BCF8B"/>
<path d="M3.30568 345.315L1.77541 351.446L1.39122 351.348L2.75572 345.884L-2.61615 347.42L-2.72559 347.038L3.30568 345.315Z" fill="#7BCF8B"/>
<path d="M6.025 342.504L4.19436 349.814L3.81032 349.716L5.4738 343.074L-1.08351 344.948L-1.19141 344.565L6.025 342.504Z" fill="#7BCF8B"/>
<path d="M26.5262 352.714C27.9056 351.272 28.5053 349.253 28.1328 347.274C27.7613 345.298 26.472 343.637 24.6676 342.794C23.2859 344.236 22.6849 346.257 23.0578 348.237C23.4298 350.214 24.7199 351.874 26.5262 352.714ZM24.5387 342.102L24.7168 342.178C26.7927 343.07 28.2827 344.935 28.7024 347.165C29.1232 349.402 28.4098 351.685 26.7938 353.271L26.6557 353.407L26.4775 353.331C24.3998 352.441 22.9084 350.579 22.4882 348.346C22.0672 346.108 22.7818 343.824 24.4002 342.237L24.5387 342.102Z" fill="#7BCF8B"/>
<path d="M24.4536 342.474L24.7393 342.42L26.7368 353.035L26.451 353.09L24.4536 342.474Z" fill="#7BCF8B"/>
<path d="M25.9076 349.43L27.7572 351.596L27.5364 351.787L26.016 350.005L25.2479 352.221L24.9731 352.125L25.9076 349.43Z" fill="#7BCF8B"/>
<path d="M25.3788 346.618L28.3923 350.132L28.172 350.323L25.4864 347.19L24.133 351.077L23.8584 350.982L25.3788 346.618Z" fill="#7BCF8B"/>
<path d="M24.8498 343.792L28.4406 347.984L28.2205 348.175L24.9579 344.366L23.3049 349.109L23.0308 349.012L24.8498 343.792Z" fill="#7BCF8B"/>
<path d="M57.0659 346.491C56.9992 348.983 58.1326 351.35 60.129 352.86C62.1204 354.367 64.6963 354.813 67.0647 354.07C67.1332 351.574 66.0003 349.206 64.0018 347.694C62.0082 346.185 59.4331 345.743 57.0659 346.491ZM67.7613 354.599L67.5333 354.679C64.8744 355.605 61.944 355.143 59.6944 353.44C57.4388 351.734 56.1904 349.028 56.3548 346.204L56.3686 345.962L56.5963 345.883C59.2537 344.949 62.1846 345.41 64.4363 347.114C66.6936 348.822 67.942 351.529 67.7755 354.357L67.7613 354.599Z" fill="#7BCF8B"/>
<path d="M67.529 354.183L67.3109 354.474L56.6045 346.373L56.8226 346.081L67.529 354.183Z" fill="#7BCF8B"/>
<path d="M60.3809 348.999L56.8662 348.56L56.9111 348.198L59.8003 348.558L58.6575 345.869L58.9908 345.725L60.3809 348.999Z" fill="#7BCF8B"/>
<path d="M63.2152 351.143L57.5034 350.445L57.5473 350.084L62.638 350.706L60.6396 345.982L60.9729 345.84L63.2152 351.143Z" fill="#7BCF8B"/>
<path d="M66.0637 353.302L59.2524 352.465L59.2963 352.103L65.4851 352.865L63.0474 347.099L63.3807 346.956L66.0637 353.302Z" fill="#7BCF8B"/>
<path d="M59.7896 332.365C62.7937 332.194 65.5248 330.578 67.1392 328.002C68.7499 325.433 69.0237 322.261 67.8911 319.462C64.8844 319.631 62.1511 321.245 60.5347 323.824C58.9224 326.396 58.6511 329.567 59.7896 332.365ZM68.4571 318.563L68.576 318.831C69.9599 321.965 69.6998 325.569 67.8804 328.471C66.0563 331.381 62.9296 333.171 59.5164 333.256L59.2243 333.264L59.1052 332.996C57.7154 329.865 57.9725 326.261 59.7936 323.355C61.6192 320.442 64.7486 318.652 68.1646 318.569L68.4571 318.563Z" fill="#7BCF8B"/>
<path d="M67.9813 318.886L68.3533 319.121L59.6948 332.937L59.3228 332.701L67.9813 318.886Z" fill="#7BCF8B"/>
<path d="M62.4693 328.088L62.2975 332.397L61.8583 332.38L61.9997 328.837L58.8802 330.496L58.6743 330.105L62.4693 328.088Z" fill="#7BCF8B"/>
<path d="M64.7615 324.431L64.4997 331.434L64.061 331.417L64.2948 325.175L58.8172 328.078L58.6113 327.687L64.7615 324.431Z" fill="#7BCF8B"/>
<path d="M67.0698 320.755L66.7512 329.106L66.3125 329.091L66.602 321.501L59.9155 325.043L59.7109 324.653L67.0698 320.755Z" fill="#7BCF8B"/>
<path d="M7.62657 357.481C4.59365 360.004 2.96412 363.837 3.25338 367.81C3.54203 371.772 5.70362 375.328 9.06007 377.394C12.0972 374.871 13.7293 371.038 13.4399 367.061C13.1509 363.094 10.9875 359.541 7.62657 357.481ZM9.15839 378.783L8.82545 378.592C4.94651 376.37 2.43608 372.371 2.11023 367.893C1.78346 363.404 3.69561 359.082 7.22494 356.329L7.52686 356.093L7.85965 356.283C11.7431 358.497 14.2567 362.495 14.5829 366.977C14.91 371.47 12.9954 375.795 9.46093 378.547L9.15839 378.783Z" fill="#7BCF8B"/>
<path d="M9.40936 378.07L8.83563 378.112L7.28467 356.805L7.85825 356.763L9.40936 378.07Z" fill="#7BCF8B"/>
<path d="M8.10796 364.077L4.9585 359.401L5.43515 359.079L8.02384 362.922L10.0284 358.741L10.5468 358.992L8.10796 364.077Z" fill="#7BCF8B"/>
<path d="M8.51887 369.719L3.38379 362.135L3.85889 361.811L8.43521 368.57L11.963 361.239L12.4813 361.49L8.51887 369.719Z" fill="#7BCF8B"/>
<path d="M8.92633 375.392L2.80908 366.343L3.28419 366.019L8.84252 374.239L13.1506 365.294L13.6675 365.546L8.92633 375.392Z" fill="#7BCF8B"/>
<path d="M39.6617 335.693C40.241 337.754 41.7724 339.404 43.7935 340.13C45.8096 340.854 48.0346 340.556 49.7873 339.339C49.2091 337.276 47.6776 335.624 45.6544 334.899C43.6361 334.173 41.4123 334.472 39.6617 335.693ZM50.4933 339.593L50.3266 339.717C48.3823 341.161 45.8622 341.533 43.5847 340.716C41.3011 339.895 39.5895 337.999 39.0056 335.64L38.9556 335.438L39.1218 335.314C41.0633 333.867 43.5836 333.492 45.8631 334.311C48.1483 335.131 49.8608 337.031 50.4433 339.391L50.4933 339.593Z" fill="#7BCF8B"/>
<path d="M50.1972 339.312L50.0924 339.607L39.2534 335.714L39.3584 335.42L50.1972 339.312Z" fill="#7BCF8B"/>
<path d="M43.0174 336.898L40.0242 337.44L39.9692 337.132L42.4297 336.687L40.8083 334.775L41.0449 334.571L43.0174 336.898Z" fill="#7BCF8B"/>
<path d="M45.8867 337.927L41.0262 338.822L40.9702 338.515L45.3025 337.718L42.4625 334.359L42.6993 334.156L45.8867 337.927Z" fill="#7BCF8B"/>
<path d="M48.7714 338.966L42.9738 340.029L42.918 339.721L48.1858 338.757L44.7204 334.655L44.9575 334.453L48.7714 338.966Z" fill="#7BCF8B"/>
<path d="M46.4913 353.003C43.4702 353.327 40.7974 355.095 39.2989 357.776C37.8042 360.45 37.6876 363.661 38.9713 366.426C41.9949 366.104 44.6702 364.336 46.1702 361.653C47.6665 358.976 47.7806 355.766 46.4913 353.003ZM38.4457 367.363L38.3122 367.098C36.7586 364.007 36.8393 360.36 38.5278 357.34C40.2208 354.311 43.2839 352.348 46.7219 352.089L47.0159 352.066L47.1498 352.331C48.7092 355.417 48.6314 359.066 46.9414 362.089C45.247 365.119 42.1812 367.082 38.7402 367.341L38.4457 367.363Z" fill="#7BCF8B"/>
<path d="M38.9094 367.011L38.5225 366.794L46.5585 352.421L46.9453 352.638L38.9094 367.011Z" fill="#7BCF8B"/>
<path d="M44.0044 357.452L43.9604 353.096L44.4042 353.093L44.4402 356.672L47.5026 354.84L47.73 355.223L44.0044 357.452Z" fill="#7BCF8B"/>
<path d="M41.877 361.258L41.7881 354.181L42.2314 354.175L42.3103 360.482L47.688 357.275L47.9155 357.658L41.877 361.258Z" fill="#7BCF8B"/>
<path d="M39.734 365.082L39.6343 356.643L40.0776 356.636L40.1682 364.305L46.7329 360.392L46.9589 360.775L39.734 365.082Z" fill="#7BCF8B"/>
<path d="M401.876 590.33C404.253 588.407 406.266 586.028 408.613 584.049C412.252 580.978 416.716 578.884 421.412 578.046C421.855 577.967 422.444 577.592 422.175 577.233C422.076 577.1 421.897 577.063 421.734 577.036C415.989 576.079 409.95 576.953 404.717 579.5C404.482 579.614 404.187 579.729 403.976 579.574C403.771 579.423 403.786 579.119 403.826 578.869C404.855 572.472 409.289 566.718 415.231 564.068C415.682 563.866 416.187 563.248 415.753 563.013C415.631 562.947 415.482 562.964 415.345 562.985C408.242 564.027 401.686 568.31 397.902 574.381C397.751 574.623 397.522 574.905 397.244 574.835C396.983 574.77 396.902 574.448 396.868 574.182C396.385 570.475 395.68 566.765 394.266 563.301C393.418 561.223 392.307 559.238 390.892 557.487C390.164 556.586 389.341 555.627 388.399 554.939C387.225 554.081 386.917 554.877 387.162 556.138C388.461 562.84 389.08 569.673 389.006 576.499C389.001 576.992 388.835 577.649 388.339 577.643C388.035 577.64 387.817 577.365 387.643 577.117C385.872 574.602 383.825 572.229 381.277 570.496C378.728 568.764 375.628 567.709 372.555 568.005C372.418 568.018 372.273 568.037 372.165 568.121C371.811 568.394 372.152 568.941 372.488 569.234C377.332 573.455 382.349 578.31 383.333 584.641C383.374 584.901 383.392 585.206 383.198 585.385C382.92 585.641 382.478 585.428 382.161 585.222C378.161 582.623 372.903 582.046 368.43 583.715C368.232 583.789 368.008 583.899 367.971 584.106C367.919 584.394 368.257 584.584 368.536 584.678C373.006 586.18 378.1 587.389 380.687 591.314C381.539 592.606 382.161 594.226 383.587 594.839C384.271 595.134 385.042 595.141 385.789 595.129C390.821 595.05 396.031 594.278 400.238 591.529C400.807 591.159 401.35 590.755 401.876 590.33Z" fill="#F2E43B"/>
<path d="M329.688 574.508C338.262 572.462 346.174 575.91 348.661 581.532C359.008 564.227 392.242 573.722 387.104 591.315C397.07 591.667 403.959 599.831 401.958 607.486C400.115 614.684 392.731 619.028 385.381 618.105C364.923 615.537 344.155 617.91 324.792 625.025C317.835 627.583 309.671 625.015 306.266 618.415C301.784 610.056 309.948 598.728 321.568 598.716C311.384 593.037 314.535 578.124 329.688 574.508Z" fill="#56B9AA"/>
<path d="M373.315 616.58L353.709 618.852L348.236 524.729L357.313 523.677L373.315 616.58Z" fill="#954638"/>
<path d="M373.379 461.101C382.296 460.067 390.638 467.09 393.548 477.368C394.514 476.974 395.529 476.695 396.594 476.571C404.387 475.669 411.607 482.802 412.721 492.506C413.105 495.848 412.699 499.048 411.703 501.86C418.679 502.092 424.831 508.735 425.844 517.551C426.84 526.227 422.509 533.983 415.947 535.964C412.715 542.566 407.108 547.214 400.303 548.002C395.132 548.602 390.128 546.874 385.985 543.515C382.853 551.22 376.722 556.754 369.15 557.632C360.723 558.61 352.732 553.561 348.034 545.333C348.693 555.964 342.614 565.142 333.988 566.143C325.639 567.11 317.869 560.074 315.776 550.099C315.108 555.136 311.847 559.111 307.513 559.614C302.17 560.233 297.22 555.341 296.456 548.691C296.363 547.88 296.339 547.083 296.373 546.305C295.371 546.822 294.285 547.166 293.134 547.299C286.844 548.029 281.017 542.272 280.117 534.441C279.218 526.608 283.588 519.67 289.877 518.94C291.734 518.725 293.545 519.087 295.206 519.888C294.161 506.242 301.902 494.373 312.942 493.092C319.314 492.355 325.422 495.302 329.848 500.525C328.924 489.427 335.197 479.744 344.162 478.705C349.136 478.129 353.902 480.346 357.444 484.303C356.857 472.419 363.708 462.221 373.379 461.101Z" fill="#45BD68"/>
<path d="M305.374 487.181C304.186 491.846 305.312 496.79 308.428 500.493C311.537 504.189 316.198 506.134 320.975 505.755C322.168 501.086 321.043 496.138 317.924 492.43C314.812 488.731 310.151 486.79 305.374 487.181ZM322.062 507.051L321.599 507.102C316.196 507.705 310.874 505.573 307.363 501.399C303.842 497.214 302.644 491.583 304.157 486.333L304.287 485.884L304.749 485.832C310.151 485.219 315.475 487.347 318.99 491.525C322.513 495.712 323.71 501.349 322.192 506.6L322.062 507.051Z" fill="#7BCF8B"/>
<path d="M321.801 506.169L321.267 506.622L304.556 486.759L305.091 486.306L321.801 506.169Z" fill="#7BCF8B"/>
<path d="M310.549 493.328L304.116 490.991L304.355 490.329L309.643 492.25L308.637 486.693L309.326 486.565L310.549 493.328Z" fill="#7BCF8B"/>
<path d="M314.972 498.586L304.513 494.814L304.749 494.153L314.072 497.516L312.321 487.761L313.01 487.634L314.972 498.586Z" fill="#7BCF8B"/>
<path d="M319.416 503.878L306.946 499.369L307.182 498.71L318.513 502.806L316.38 490.898L317.068 490.774L319.416 503.878Z" fill="#7BCF8B"/>
<path d="M384.433 473.191C379.892 472.477 375.296 474.005 372.06 477.332C368.833 480.648 367.408 485.296 368.204 489.843C372.748 490.561 377.347 489.034 380.586 485.704C383.817 482.384 385.238 477.736 384.433 473.191ZM367.07 491.002L366.979 490.563C365.915 485.435 367.457 480.137 371.104 476.391C374.759 472.633 380.002 470.973 385.127 471.946L385.565 472.03L385.657 472.469C386.73 477.595 385.192 482.895 381.543 486.645C377.884 490.404 372.638 492.065 367.51 491.087L367.07 491.002Z" fill="#7BCF8B"/>
<path d="M367.885 490.673L367.405 490.201L384.758 472.368L385.238 472.838L367.885 490.673Z" fill="#7BCF8B"/>
<path d="M379.062 478.713L380.699 472.332L381.349 472.5L380.004 477.746L385.193 476.275L385.376 476.925L379.062 478.713Z" fill="#7BCF8B"/>
<path d="M374.468 483.435L377.101 473.059L377.751 473.225L375.404 482.473L384.513 479.907L384.696 480.555L374.468 483.435Z" fill="#7BCF8B"/>
<path d="M369.844 488.177L372.993 475.807L373.643 475.973L370.781 487.214L381.901 484.085L382.081 484.733L369.844 488.177Z" fill="#7BCF8B"/>
<path d="M343.362 474.69C340.357 477.254 338.774 481.111 339.113 485.083C339.451 489.048 341.659 492.579 345.045 494.605C348.054 492.041 349.64 488.185 349.301 484.207C348.962 480.238 346.752 476.71 343.362 474.69ZM345.161 495.995L344.825 495.809C340.914 493.632 338.351 489.659 337.969 485.182C337.586 480.693 339.446 476.341 342.945 473.541L343.245 473.301L343.58 473.487C347.495 475.656 350.061 479.626 350.444 484.108C350.827 488.601 348.964 492.955 345.461 495.755L345.161 495.995Z" fill="#7BCF8B"/>
<path d="M345.403 495.277L344.83 495.327L343.011 474.017L343.585 473.967L345.403 495.277Z" fill="#7BCF8B"/>
<path d="M343.926 481.287L340.715 476.646L341.188 476.316L343.827 480.131L345.782 475.921L346.304 476.165L343.926 481.287Z" fill="#7BCF8B"/>
<path d="M344.407 486.929L339.172 479.402L339.644 479.071L344.309 485.78L347.75 478.398L348.272 478.642L344.407 486.929Z" fill="#7BCF8B"/>
<path d="M344.886 492.603L338.649 483.622L339.121 483.291L344.788 491.451L348.989 482.44L349.509 482.686L344.886 492.603Z" fill="#7BCF8B"/>
<path d="M320.485 521.372C323.832 521.885 327.213 520.745 329.587 518.286C331.955 515.834 332.99 512.406 332.391 509.06C329.042 508.543 325.659 509.681 323.282 512.142C320.912 514.598 319.879 518.027 320.485 521.372ZM333.223 508.201L333.291 508.524C334.09 512.299 332.969 516.206 330.294 518.977C327.612 521.754 323.755 522.994 319.977 522.29L319.654 522.232L319.585 521.906C318.78 518.135 319.897 514.226 322.575 511.454C325.259 508.673 329.119 507.435 332.899 508.141L333.223 508.201Z" fill="#7BCF8B"/>
<path d="M332.624 508.447L332.979 508.793L320.248 521.98L319.893 521.634L332.624 508.447Z" fill="#7BCF8B"/>
<path d="M324.425 517.289L323.238 521.995L322.759 521.872L323.735 518.003L319.916 519.103L319.78 518.625L324.425 517.289Z" fill="#7BCF8B"/>
<path d="M327.795 513.799L325.886 521.448L325.407 521.326L327.109 514.509L320.407 516.424L320.27 515.948L327.795 513.799Z" fill="#7BCF8B"/>
<path d="M331.188 510.29L328.904 519.412L328.425 519.29L330.501 511.003L322.319 513.34L322.184 512.862L331.188 510.29Z" fill="#7BCF8B"/>
<path d="M356.769 523.031C358.491 521.231 359.239 518.712 358.774 516.243C358.31 513.777 356.702 511.705 354.45 510.652C352.726 512.452 351.976 514.973 352.442 517.444C352.906 519.911 354.516 521.982 356.769 523.031ZM354.289 509.789L354.512 509.884C357.102 510.997 358.961 513.325 359.485 516.107C360.01 518.897 359.12 521.746 357.103 523.725L356.931 523.896L356.709 523.801C354.116 522.69 352.255 520.366 351.731 517.58C351.206 514.787 352.097 511.937 354.117 509.958L354.289 509.789Z" fill="#7BCF8B"/>
<path d="M354.183 510.254L354.539 510.186L357.031 523.431L356.675 523.499L354.183 510.254Z" fill="#7BCF8B"/>
<path d="M355.997 518.932L358.305 521.635L358.029 521.873L356.132 519.65L355.174 522.415L354.831 522.295L355.997 518.932Z" fill="#7BCF8B"/>
<path d="M355.337 515.424L359.097 519.809L358.822 520.047L355.471 516.138L353.783 520.987L353.44 520.869L355.337 515.424Z" fill="#7BCF8B"/>
<path d="M354.677 511.899L359.157 517.129L358.883 517.367L354.812 512.614L352.749 518.532L352.407 518.412L354.677 511.899Z" fill="#7BCF8B"/>
<path d="M333.187 528.979C329.403 532.127 327.37 536.908 327.731 541.866C328.091 546.81 330.788 551.247 334.976 553.824C338.765 550.676 340.802 545.895 340.441 540.931C340.08 535.982 337.381 531.549 333.187 528.979ZM335.099 555.558L334.683 555.32C329.843 552.547 326.711 547.557 326.304 541.97C325.896 536.369 328.282 530.976 332.686 527.541L333.063 527.247L333.478 527.483C338.324 530.246 341.46 535.235 341.867 540.827C342.275 546.433 339.886 551.829 335.476 555.264L335.099 555.558Z" fill="#7BCF8B"/>
<path d="M335.412 554.668L334.696 554.72L332.761 528.135L333.476 528.083L335.412 554.668Z" fill="#7BCF8B"/>
<path d="M333.788 537.208L329.858 531.374L330.453 530.972L333.683 535.767L336.184 530.55L336.831 530.863L333.788 537.208Z" fill="#7BCF8B"/>
<path d="M334.3 544.248L327.893 534.786L328.486 534.381L334.196 542.814L338.598 533.667L339.244 533.981L334.3 544.248Z" fill="#7BCF8B"/>
<path d="M334.809 551.326L327.176 540.035L327.769 539.631L334.704 549.888L340.079 538.727L340.724 539.041L334.809 551.326Z" fill="#7BCF8B"/>
<path d="M306.384 525.794C303.372 525.627 300.472 526.93 298.578 529.315C296.689 531.696 296.064 534.824 296.882 537.74C299.896 537.909 302.798 536.607 304.694 534.219C306.586 531.837 307.208 528.708 306.384 525.794ZM296.218 538.573L296.129 538.292C295.098 535.016 295.757 531.454 297.892 528.766C300.032 526.07 303.345 524.639 306.755 524.935L307.047 524.96L307.136 525.24C308.173 528.516 307.517 532.077 305.381 534.768C303.239 537.466 299.923 538.898 296.51 538.6L296.218 538.573Z" fill="#7BCF8B"/>
<path d="M296.728 538.303L296.384 538.027L306.542 525.234L306.886 525.511L296.728 538.303Z" fill="#7BCF8B"/>
<path d="M303.24 529.755L303.889 525.478L304.324 525.546L303.791 529.06L307.082 527.756L307.244 528.168L303.24 529.755Z" fill="#7BCF8B"/>
<path d="M300.551 533.141L301.588 526.194L302.024 526.26L301.098 532.452L306.877 530.173L307.039 530.585L300.551 533.141Z" fill="#7BCF8B"/>
<path d="M297.843 536.545L299.087 528.259L299.522 528.325L298.392 535.854L305.446 533.073L305.607 533.485L297.843 536.545Z" fill="#7BCF8B"/>
<path d="M373.159 501.792C373.882 504.364 375.793 506.422 378.314 507.328C380.83 508.232 383.606 507.86 385.793 506.341C385.072 503.768 383.161 501.707 380.636 500.801C378.118 499.896 375.343 500.269 373.159 501.792ZM386.674 506.659L386.466 506.813C384.04 508.615 380.896 509.079 378.054 508.059C375.205 507.036 373.069 504.669 372.34 501.726L372.278 501.475L372.485 501.32C374.908 499.514 378.052 499.046 380.897 500.068C383.748 501.091 385.885 503.462 386.612 506.407L386.674 506.659Z" fill="#7BCF8B"/>
<path d="M386.304 506.308L386.174 506.676L372.649 501.819L372.78 501.451L386.304 506.308Z" fill="#7BCF8B"/>
<path d="M377.346 503.295L373.611 503.973L373.542 503.588L376.612 503.032L374.589 500.646L374.885 500.393L377.346 503.295Z" fill="#7BCF8B"/>
<path d="M380.926 504.58L374.861 505.697L374.792 505.314L380.197 504.319L376.654 500.128L376.949 499.874L380.926 504.58Z" fill="#7BCF8B"/>
<path d="M384.525 505.877L377.291 507.202L377.222 506.819L383.795 505.615L379.471 500.497L379.766 500.246L384.525 505.877Z" fill="#7BCF8B"/>
<path d="M381.68 523.39C377.911 523.795 374.576 526.001 372.706 529.346C370.841 532.682 370.696 536.69 372.297 540.14C376.07 539.737 379.408 537.531 381.28 534.184C383.147 530.844 383.289 526.839 381.68 523.39ZM371.642 541.309L371.475 540.978C369.537 537.121 369.637 532.57 371.744 528.803C373.856 525.024 377.678 522.574 381.968 522.251L382.335 522.222L382.502 522.553C384.448 526.403 384.351 530.956 382.242 534.728C380.128 538.509 376.303 540.958 372.009 541.281L371.642 541.309Z" fill="#7BCF8B"/>
<path d="M372.22 540.869L371.737 540.598L381.764 522.665L382.247 522.936L372.22 540.869Z" fill="#7BCF8B"/>
<path d="M378.577 528.942L378.522 523.507L379.076 523.503L379.121 527.969L382.942 525.684L383.226 526.162L378.577 528.942Z" fill="#7BCF8B"/>
<path d="M375.923 533.691L375.812 524.861L376.365 524.853L376.464 532.723L383.174 528.722L383.457 529.2L375.923 533.691Z" fill="#7BCF8B"/>
<path d="M373.249 538.462L373.125 527.932L373.678 527.924L373.791 537.493L381.982 532.611L382.264 533.089L373.249 538.462Z" fill="#7BCF8B"/>
<path d="M301.67 134.417C304.14 132.419 306.233 129.947 308.672 127.889C312.454 124.698 317.094 122.522 321.975 121.65C322.436 121.568 323.047 121.178 322.768 120.805C322.665 120.668 322.479 120.628 322.31 120.6C316.339 119.606 310.062 120.515 304.624 123.161C304.379 123.28 304.072 123.399 303.853 123.238C303.64 123.082 303.655 122.766 303.697 122.506C304.767 115.857 309.375 109.876 315.551 107.122C316.02 106.913 316.544 106.27 316.093 106.026C315.966 105.958 315.812 105.975 315.669 105.997C308.287 107.08 301.473 111.532 297.54 117.841C297.383 118.093 297.145 118.386 296.856 118.313C296.585 118.245 296.501 117.911 296.465 117.635C295.963 113.781 295.231 109.926 293.761 106.326C292.88 104.165 291.724 102.103 290.254 100.282C289.498 99.3458 288.642 98.3498 287.664 97.6342C286.443 96.7422 286.123 97.5703 286.377 98.8803C287.727 105.846 288.371 112.948 288.294 120.042C288.289 120.555 288.116 121.238 287.601 121.232C287.285 121.229 287.058 120.942 286.877 120.685C285.036 118.071 282.91 115.604 280.261 113.804C277.612 112.003 274.389 110.907 271.196 111.214C271.054 111.228 270.903 111.248 270.79 111.335C270.423 111.618 270.777 112.188 271.126 112.492C276.161 116.878 281.375 121.925 282.398 128.504C282.44 128.775 282.459 129.092 282.258 129.278C281.969 129.544 281.51 129.323 281.18 129.108C277.022 126.408 271.558 125.808 266.909 127.543C266.703 127.62 266.47 127.734 266.432 127.948C266.378 128.248 266.729 128.446 267.019 128.543C271.665 130.105 276.96 131.361 279.648 135.44C280.533 136.783 281.18 138.467 282.662 139.104C283.373 139.411 284.175 139.418 284.95 139.406C290.181 139.323 295.595 138.521 299.968 135.664C300.559 135.279 301.124 134.86 301.67 134.417Z" fill="#F2E43B"/>
<path d="M226.642 117.973C235.553 115.847 243.777 119.431 246.362 125.273C257.116 107.288 291.657 117.156 286.317 135.441C296.675 135.807 303.835 144.292 301.755 152.248C299.839 159.73 292.166 164.245 284.526 163.285C263.263 160.617 241.678 163.082 221.554 170.477C214.324 173.136 205.838 170.467 202.299 163.607C197.641 154.919 206.126 143.146 218.203 143.134C207.618 137.231 210.893 121.732 226.642 117.973Z" fill="#56B9AA"/>
<path d="M271.986 161.7L251.608 164.062L245.92 66.2365L255.354 65.1424L271.986 161.7Z" fill="#954638"/>
<path d="M272.052 0.104645C281.32 -0.969292 289.99 6.32906 293.015 17.0121C294.018 16.6019 295.073 16.3123 296.18 16.1836C304.279 15.2464 311.784 22.6594 312.942 32.7452C313.341 36.2184 312.919 39.5448 311.884 42.467C319.135 42.7083 325.528 49.6125 326.581 58.7751C327.616 67.793 323.114 75.8536 316.294 77.913C312.936 84.7749 307.108 89.6057 300.036 90.4242C294.661 91.0476 289.46 89.2517 285.154 85.7604C281.898 93.7687 275.527 99.5205 267.657 100.434C258.899 101.449 250.593 96.2021 245.71 87.6509C246.395 98.7 240.077 108.239 231.112 109.278C222.435 110.284 214.359 102.972 212.183 92.6042C211.489 97.8392 208.1 101.97 203.595 102.493C198.042 103.137 192.897 98.0524 192.103 91.1402C192.006 90.2975 191.981 89.4689 192.017 88.6604C190.975 89.1974 189.847 89.5554 188.65 89.6941C182.113 90.4523 176.057 84.4692 175.122 76.3302C174.187 68.1892 178.729 60.9773 185.266 60.2191C187.195 59.9959 189.078 60.372 190.804 61.2046C189.718 47.0221 197.763 34.6859 209.238 33.3545C215.86 32.5883 222.209 35.6513 226.809 41.0793C225.849 29.5455 232.369 19.4818 241.686 18.4018C246.856 17.8025 251.809 20.1073 255.49 24.22C254.88 11.8677 262 1.26909 272.052 0.104645Z" fill="#45BD68"/>
<path d="M201.372 27.2107C200.138 32.0595 201.308 37.1979 204.547 41.0472C207.777 44.8884 212.622 46.9096 217.587 46.5155C218.826 41.6626 217.658 36.5202 214.416 32.6669C211.182 28.8216 206.337 26.8044 201.372 27.2107ZM218.716 47.8629L218.235 47.9152C212.619 48.5427 207.088 46.3264 203.439 41.9884C199.78 37.6384 198.535 31.786 200.107 26.3298L200.242 25.8632L200.723 25.8089C206.337 25.1714 211.87 27.3836 215.523 31.7256C219.185 36.0777 220.429 41.9362 218.851 47.3943L218.716 47.8629Z" fill="#7BCF8B"/>
<path d="M218.446 46.9456L217.89 47.4163L200.521 26.7721L201.077 26.3015L218.446 46.9456Z" fill="#7BCF8B"/>
<path d="M206.75 33.5999L200.065 31.1704L200.313 30.4826L205.809 32.4796L204.763 26.7037L205.479 26.571L206.75 33.5999Z" fill="#7BCF8B"/>
<path d="M211.348 39.064L200.478 35.1443L200.723 34.4565L210.412 37.9518L208.593 27.8137L209.308 27.681L211.348 39.064Z" fill="#7BCF8B"/>
<path d="M215.967 44.5647L203.006 39.8788L203.251 39.193L215.028 43.4505L212.811 31.0741L213.526 30.9454L215.967 44.5647Z" fill="#7BCF8B"/>
<path d="M283.541 12.6701C278.821 11.928 274.045 13.5168 270.682 16.9739C267.327 20.421 265.847 25.2517 266.674 29.9779C271.396 30.724 276.176 29.1372 279.543 25.6761C282.901 22.225 284.378 17.3942 283.541 12.6701ZM265.496 31.1825L265.401 30.726C264.295 25.3965 265.898 19.8901 269.688 15.9965C273.487 12.0909 278.935 10.3654 284.262 11.377L284.718 11.4634L284.813 11.92C285.929 17.2475 284.33 22.7559 280.537 26.6535C276.735 30.5611 271.282 32.2866 265.952 31.271L265.496 31.1825Z" fill="#7BCF8B"/>
<path d="M266.342 30.8406L265.843 30.3499L283.879 11.8153L284.378 12.3041L266.342 30.8406Z" fill="#7BCF8B"/>
<path d="M277.959 18.4099L279.66 11.7773L280.335 11.9522L278.937 17.4044L284.331 15.8759L284.521 16.5516L277.959 18.4099Z" fill="#7BCF8B"/>
<path d="M273.185 23.3171L275.921 12.5335L276.596 12.7065L274.157 22.3176L283.625 19.6509L283.814 20.3246L273.185 23.3171Z" fill="#7BCF8B"/>
<path d="M268.378 28.2463L271.652 15.3892L272.327 15.5622L269.353 27.2448L280.91 23.9928L281.098 24.6665L268.378 28.2463Z" fill="#7BCF8B"/>
<path d="M240.854 14.2289C237.731 16.8936 236.086 20.9018 236.438 25.0306C236.79 29.1514 239.085 32.8217 242.604 34.9274C245.731 32.2626 247.379 28.2545 247.027 24.1196C246.675 19.9948 244.378 16.3285 240.854 14.2289ZM242.724 36.3713L242.375 36.1783C238.31 33.9158 235.647 29.7869 235.25 25.1332C234.851 20.4674 236.785 15.9444 240.421 13.0343L240.732 12.7849L241.081 12.978C245.15 15.2324 247.817 19.3593 248.215 24.017C248.613 28.6869 246.677 33.2119 243.036 36.122L242.724 36.3713Z" fill="#7BCF8B"/>
<path d="M242.976 35.6252L242.38 35.6775L240.49 13.529L241.086 13.4767L242.976 35.6252Z" fill="#7BCF8B"/>
<path d="M241.441 21.0847L238.104 16.2621L238.595 15.9181L241.338 19.8841L243.37 15.5079L243.912 15.7613L241.441 21.0847Z" fill="#7BCF8B"/>
<path d="M241.941 26.9492L236.5 19.1259L236.99 18.7821L241.839 25.7546L245.415 18.0822L245.957 18.3356L241.941 26.9492Z" fill="#7BCF8B"/>
<path d="M242.438 32.8459L235.957 23.5123L236.447 23.1684L242.336 31.6493L246.703 22.2835L247.244 22.5389L242.438 32.8459Z" fill="#7BCF8B"/>
<path d="M217.078 62.7474C220.556 63.2803 224.07 62.0958 226.538 59.5396C228.999 56.9916 230.075 53.4278 229.453 49.9506C225.971 49.4136 222.455 50.5962 219.985 53.1543C217.521 55.7064 216.448 59.2702 217.078 62.7474ZM230.317 49.0577L230.388 49.3935C231.218 53.3172 230.053 57.3777 227.273 60.2576C224.485 63.1436 220.477 64.4327 216.55 63.7006L216.214 63.6403L216.142 63.3024C215.305 59.3828 216.467 55.3203 219.25 52.4384C222.04 49.5484 226.051 48.2613 229.98 48.9953L230.317 49.0577Z" fill="#7BCF8B"/>
<path d="M229.694 49.3129L230.063 49.6729L216.831 63.3787L216.462 63.0187L229.694 49.3129Z" fill="#7BCF8B"/>
<path d="M221.173 58.5037L219.939 63.3948L219.441 63.2661L220.455 59.2458L216.487 60.3881L216.345 59.8914L221.173 58.5037Z" fill="#7BCF8B"/>
<path d="M224.676 54.8757L222.691 62.8257L222.193 62.699L223.963 55.6138L216.996 57.6048L216.854 57.1101L224.676 54.8757Z" fill="#7BCF8B"/>
<path d="M228.202 51.2295L225.828 60.71L225.33 60.5832L227.487 51.9696L218.983 54.399L218.843 53.9023L228.202 51.2295Z" fill="#7BCF8B"/>
<path d="M254.789 64.4707C256.578 62.6003 257.355 59.9818 256.872 57.4156C256.391 54.8535 254.718 52.6995 252.378 51.6055C250.587 53.4758 249.807 56.0964 250.291 58.6646C250.773 61.2287 252.446 63.3806 254.789 64.4707ZM252.211 50.7085L252.442 50.8071C255.134 51.9635 257.067 54.3829 257.611 57.2749C258.157 60.1749 257.231 63.1353 255.136 65.1927L254.957 65.3696L254.726 65.2711C252.031 64.1167 250.097 61.7014 249.552 58.8053C249.006 55.9033 249.933 52.9409 252.032 50.8835L252.211 50.7085Z" fill="#7BCF8B"/>
<path d="M252.101 51.1914L252.472 51.121L255.062 64.8871L254.691 64.9575L252.101 51.1914Z" fill="#7BCF8B"/>
<path d="M253.986 60.2113L256.385 63.0208L256.098 63.2682L254.127 60.9574L253.131 63.8313L252.774 63.7066L253.986 60.2113Z" fill="#7BCF8B"/>
<path d="M253.301 56.565L257.209 61.1222L256.923 61.3695L253.44 57.307L251.685 62.3469L251.329 62.2243L253.301 56.565Z" fill="#7BCF8B"/>
<path d="M252.614 52.9008L257.271 58.3369L256.986 58.5842L252.755 53.6449L250.611 59.7949L250.255 59.6702L252.614 52.9008Z" fill="#7BCF8B"/>
<path d="M294.394 56.4C294.307 59.6319 295.777 62.7009 298.366 64.6597C300.948 66.6145 304.289 67.1917 307.36 66.2284C307.449 62.9925 305.98 59.9215 303.388 57.9607C300.803 56.0039 297.463 55.4307 294.394 56.4ZM308.264 66.9142L307.968 67.0188C304.52 68.2194 300.72 67.6201 297.802 65.4119C294.877 63.1997 293.258 59.6902 293.471 56.028L293.489 55.7143L293.785 55.6117C297.231 54.401 301.032 54.9983 303.952 57.2085C306.879 59.4228 308.498 62.9342 308.282 66.6005L308.264 66.9142Z" fill="#7BCF8B"/>
<path d="M307.962 66.3751L307.679 66.7532L293.795 56.2471L294.078 55.869L307.962 66.3751Z" fill="#7BCF8B"/>
<path d="M298.692 59.6521L294.134 59.083L294.193 58.6144L297.939 59.081L296.457 55.5937L296.889 55.4066L298.692 59.6521Z" fill="#7BCF8B"/>
<path d="M302.368 62.4333L294.961 61.5283L295.018 61.0598L301.62 61.8662L299.028 55.7404L299.46 55.5553L302.368 62.4333Z" fill="#7BCF8B"/>
<path d="M306.061 65.2329L297.229 64.1469L297.285 63.6783L305.311 64.6658L302.15 57.1884L302.582 57.0034L306.061 65.2329Z" fill="#7BCF8B"/>
<path d="M297.926 38.0806C301.821 37.8594 305.363 35.7638 307.457 32.4234C309.546 29.0909 309.901 24.9782 308.432 21.3481C304.533 21.5673 300.988 23.6609 298.892 27.0054C296.801 30.3398 296.449 34.4526 297.926 38.0806ZM309.166 20.1816L309.32 20.5296C311.115 24.594 310.777 29.2679 308.418 33.0307C306.052 36.8056 301.998 39.1264 297.571 39.237L297.193 39.2471L297.038 38.8992C295.236 34.8387 295.569 30.1648 297.931 26.396C300.298 22.6191 304.357 20.2983 308.787 20.1897L309.166 20.1816Z" fill="#7BCF8B"/>
<path d="M308.548 20.6022L309.031 20.9059L297.802 38.823L297.32 38.5173L308.548 20.6022Z" fill="#7BCF8B"/>
<path d="M301.4 32.5341L301.178 38.123L300.608 38.1009L300.791 33.5055L296.746 35.6574L296.479 35.1506L301.4 32.5341Z" fill="#7BCF8B"/>
<path d="M304.373 27.7918L304.034 36.874L303.465 36.8519L303.768 28.7571L296.664 32.522L296.397 32.0152L304.373 27.7918Z" fill="#7BCF8B"/>
<path d="M307.367 23.0256L306.954 33.8555L306.385 33.8354L306.76 23.9929L298.089 28.5863L297.824 28.0795L307.367 23.0256Z" fill="#7BCF8B"/>
<path d="M230.28 70.653C226.346 73.9251 224.233 78.8946 224.608 84.0471C224.983 89.1855 227.786 93.797 232.139 96.4759C236.077 93.2038 238.194 88.2343 237.818 83.0757C237.444 77.9313 234.638 73.3238 230.28 70.653ZM232.266 98.2778L231.834 98.0304C226.804 95.1485 223.548 89.9618 223.126 84.1557C222.702 78.3335 225.182 72.7285 229.759 69.1588L230.15 68.8531L230.582 69.0984C235.618 71.9703 238.878 77.155 239.301 82.9671C239.725 88.7934 237.242 94.4024 232.658 97.9721L232.266 98.2778Z" fill="#7BCF8B"/>
<path d="M232.591 97.3525L231.847 97.4067L229.836 69.7759L230.58 69.7216L232.591 97.3525Z" fill="#7BCF8B"/>
<path d="M230.904 79.2063L226.819 73.1428L227.437 72.7245L230.795 77.708L233.394 72.286L234.066 72.6118L230.904 79.2063Z" fill="#7BCF8B"/>
<path d="M231.436 86.5227L224.777 76.6883L225.393 76.268L231.328 85.0325L235.903 75.5259L236.575 75.8517L231.436 86.5227Z" fill="#7BCF8B"/>
<path d="M231.965 93.8794L224.032 82.1445L224.648 81.7242L231.856 92.3851L237.443 80.785L238.113 81.1108L231.965 93.8794Z" fill="#7BCF8B"/>
<path d="M202.422 67.3427C199.291 67.1697 196.278 68.5232 194.309 71.0029C192.345 73.4766 191.696 76.7286 192.546 79.7594C195.678 79.9343 198.695 78.5808 200.666 76.0991C202.631 73.6234 203.278 70.3714 202.422 67.3427ZM191.856 80.6241L191.764 80.3325C190.692 76.9277 191.377 73.2252 193.596 70.4318C195.82 67.6303 199.263 66.142 202.807 66.4497L203.111 66.4759L203.203 66.7675C204.281 70.1723 203.599 73.8728 201.379 76.6703C199.153 79.4738 195.707 80.962 192.16 80.6523L191.856 80.6241Z" fill="#7BCF8B"/>
<path d="M192.386 80.3445L192.028 80.0569L202.586 66.7613L202.944 67.0489L192.386 80.3445Z" fill="#7BCF8B"/>
<path d="M199.154 71.4592L199.829 67.0146L200.282 67.085L199.727 70.7372L203.148 69.3817L203.316 69.8101L199.154 71.4592Z" fill="#7BCF8B"/>
<path d="M196.359 74.979L197.437 67.7591L197.89 67.8274L196.928 74.263L202.934 71.8939L203.102 72.3223L196.359 74.979Z" fill="#7BCF8B"/>
<path d="M193.545 78.5164L194.838 69.9047L195.29 69.9731L194.116 77.7984L201.447 74.9084L201.614 75.3368L193.545 78.5164Z" fill="#7BCF8B"/>
<path d="M271.823 42.3968C272.575 45.0696 274.561 47.2095 277.182 48.1507C279.796 49.0899 282.682 48.7037 284.955 47.125C284.205 44.4502 282.219 42.3083 279.595 41.3671C276.978 40.4259 274.094 40.8141 271.823 42.3968ZM285.87 47.4548L285.654 47.6157C283.133 49.4881 279.864 49.9707 276.911 48.9108C273.95 47.847 271.73 45.3874 270.973 42.3285L270.908 42.067L271.123 41.9061C273.641 40.0297 276.909 39.543 279.866 40.6049C282.829 41.6688 285.05 44.1324 285.805 47.1934L285.87 47.4548Z" fill="#7BCF8B"/>
<path d="M285.486 47.0905L285.35 47.4727L271.294 42.4247L271.43 42.0426L285.486 47.0905Z" fill="#7BCF8B"/>
<path d="M276.175 43.9592L272.293 44.6631L272.222 44.2629L275.413 43.6857L273.31 41.206L273.617 40.9425L276.175 43.9592Z" fill="#7BCF8B"/>
<path d="M279.896 45.2947L273.593 46.4551L273.521 46.0569L279.139 45.0232L275.456 40.6671L275.763 40.4036L279.896 45.2947Z" fill="#7BCF8B"/>
<path d="M283.637 46.6422L276.118 48.0198L276.046 47.6216L282.877 46.3707L278.383 41.0512L278.691 40.7898L283.637 46.6422Z" fill="#7BCF8B"/>
<path d="M280.68 64.8448C276.763 65.2651 273.296 67.5578 271.353 71.035C269.415 74.5022 269.264 78.6672 270.928 82.253C274.849 81.8347 278.319 79.5421 280.264 76.0628C282.204 72.5916 282.352 68.4286 280.68 64.8448ZM270.247 83.4678L270.073 83.1239C268.059 79.1157 268.163 74.3855 270.353 70.4699C272.549 66.5422 276.521 63.9961 280.979 63.6602L281.361 63.63L281.534 63.974C283.557 67.9761 283.456 72.7083 281.264 76.628C279.067 80.5577 275.091 83.1038 270.629 83.4396L270.247 83.4678Z" fill="#7BCF8B"/>
<path d="M270.848 83.0112L270.346 82.7297L280.767 64.0906L281.269 64.3721L270.848 83.0112Z" fill="#7BCF8B"/>
<path d="M277.455 70.6147L277.398 64.9655L277.973 64.9615L278.02 69.6031L281.991 67.228L282.286 67.7248L277.455 70.6147Z" fill="#7BCF8B"/>
<path d="M274.696 75.5498L274.581 66.3731L275.155 66.365L275.258 74.5442L282.232 70.3852L282.527 70.882L274.696 75.5498Z" fill="#7BCF8B"/>
<path d="M271.917 80.5095L271.788 69.565L272.363 69.5569L272.48 79.5019L280.994 74.4279L281.287 74.9246L271.917 80.5095Z" fill="#7BCF8B"/>
<path d="M103.084 71.0842H100.279V56.6263H103.084V71.0842Z" fill="#BF9057"/>
<path d="M101.682 18L112.363 57.0579H91L101.682 18Z" fill="#45BD68"/>
<path d="M125.742 67.6316H123.8V56.1947H125.742V67.6316Z" fill="#BF9057"/>
<path d="M124.771 25.9841L132 56.6262H117.542L124.771 25.9841Z" fill="#45BD68"/>
<path d="M114.407 463.152C114.094 463.164 112.617 464.989 112.248 465.237C110.072 466.694 108.381 466.048 106.076 466.159C104.441 479.162 123.262 478.28 131.447 478.537C135.16 478.653 151.412 479.054 150.536 471.909C150.534 471.892 149.289 461.847 114.407 463.152Z" fill="#FEDCC0"/>
<path d="M112.535 457.321C112.49 458.605 112.973 460.074 113.329 461.266C114.209 464.205 115.687 467.003 117.834 469.216C121.187 472.672 126.415 473.993 131.048 474.629C135.578 475.251 140.267 475.002 144.688 473.82C146.717 473.278 148.768 472.664 150.613 471.642C152.314 470.7 153.904 469.325 154.413 467.38C155.129 464.648 155.059 461.215 153.668 458.704C153.527 458.449 153.18 458.406 152.983 458.62C152.277 459.388 150.571 460.902 148.105 460.886C147.844 460.884 147.641 460.651 147.686 460.394C147.805 459.706 148.097 458.447 148.705 457.912C148.928 457.716 148.922 457.37 148.667 457.218C147.423 456.482 144.381 455.339 140.046 458.084C139.771 458.259 139.409 458.069 139.401 457.743C139.379 456.892 139.481 455.498 140.259 454.63C140.509 454.35 140.306 453.907 139.931 453.926C138.629 453.994 136.844 454.231 135.82 454.98C135.555 455.174 135.172 455.03 135.14 454.702C135.073 454 135.18 452.98 136.147 452.274C136.43 452.068 136.353 451.627 136.016 451.532C133.912 450.933 128.843 450.017 126.329 454.082C126.135 454.395 125.659 454.325 125.567 453.967C125.39 453.282 125.232 452.382 125.396 451.761C125.471 451.48 125.266 451.206 124.975 451.22C123.875 451.271 121.816 451.741 121.091 454.436C121.005 454.754 120.615 454.863 120.382 454.629C119.847 454.092 119.129 453.193 119.184 452.286C119.207 451.923 118.812 451.7 118.516 451.911C117.692 452.496 116.689 453.73 116.915 456.217C116.936 456.455 116.747 456.658 116.509 456.666C115.777 456.694 114.349 456.59 113.662 455.474C113.118 454.59 112.611 456.577 112.565 456.947C112.549 457.07 112.54 457.194 112.535 457.321Z" fill="#543C23"/>
<path d="M104.001 466.489C104.036 467.418 105.006 468.136 106.167 468.093C107.329 468.049 108.242 467.261 108.207 466.332C108.172 465.403 107.202 464.685 106.041 464.728C104.88 464.771 103.967 465.56 104.001 466.489Z" fill="#5B462B"/>
<path d="M112.056 467.873C112.073 468.337 112.464 468.7 112.928 468.682C113.393 468.665 113.756 468.274 113.738 467.81C113.721 467.345 113.33 466.983 112.865 467C112.401 467.017 112.038 467.408 112.056 467.873Z" fill="#5B462B"/>
<path d="M117.909 477.973C117.957 479.251 118.467 480.269 119.047 480.247C119.628 480.225 120.06 479.172 120.013 477.894C119.965 476.616 119.455 475.599 118.874 475.62C118.294 475.642 117.862 476.695 117.909 477.973Z" fill="#FEDCC0"/>
<path d="M121.274 477.847C121.322 479.125 121.831 480.143 122.412 480.121C122.993 480.1 123.425 479.046 123.377 477.769C123.329 476.491 122.82 475.473 122.239 475.495C121.658 475.516 121.226 476.57 121.274 477.847Z" fill="#FEDCC0"/>
<path d="M134.344 478.2C134.392 479.478 134.902 480.496 135.482 480.474C136.063 480.453 136.495 479.399 136.448 478.122C136.4 476.844 135.89 475.826 135.309 475.848C134.729 475.87 134.297 476.923 134.344 478.2Z" fill="#FEDCC0"/>
<path d="M137.709 478.075C137.757 479.352 138.267 480.37 138.847 480.349C139.428 480.327 139.86 479.274 139.812 477.996C139.764 476.718 139.255 475.701 138.674 475.722C138.093 475.744 137.661 476.797 137.709 478.075Z" fill="#FEDCC0"/>
<path d="M117.146 461.487C117.111 462.379 117.463 463.399 117.723 464.226C118.364 466.266 119.445 468.207 121.017 469.74C123.473 472.136 127.308 473.046 130.707 473.481C134.031 473.906 137.473 473.726 140.72 472.899C142.209 472.519 143.716 472.09 145.072 471.377C146.321 470.72 147.49 469.763 147.867 468.411C148.397 466.513 148.35 464.129 147.332 462.387C147.23 462.21 146.975 462.18 146.83 462.33C146.311 462.864 145.057 463.918 143.247 463.91C143.055 463.909 142.906 463.748 142.939 463.569C143.028 463.091 143.244 462.217 143.691 461.844C143.855 461.707 143.851 461.467 143.664 461.362C142.752 460.853 140.521 460.064 137.336 461.976C137.133 462.098 136.868 461.967 136.863 461.74C136.848 461.15 136.925 460.181 137.497 459.577C137.681 459.382 137.533 459.075 137.258 459.089C136.302 459.138 134.992 459.305 134.239 459.827C134.044 459.962 133.763 459.863 133.741 459.635C133.692 459.148 133.773 458.439 134.483 457.947C134.691 457.803 134.635 457.497 134.388 457.431C132.845 457.019 129.125 456.39 127.275 459.217C127.132 459.435 126.782 459.387 126.715 459.139C126.587 458.663 126.472 458.038 126.594 457.607C126.649 457.411 126.499 457.222 126.285 457.232C125.477 457.269 123.966 457.598 123.43 459.471C123.366 459.692 123.08 459.769 122.909 459.606C122.517 459.234 121.991 458.611 122.034 457.981C122.051 457.729 121.761 457.574 121.544 457.721C120.939 458.129 120.2 458.987 120.362 460.714C120.378 460.879 120.239 461.02 120.064 461.027C119.527 461.047 118.479 460.977 117.976 460.203C117.578 459.59 117.204 460.971 117.169 461.227C117.157 461.312 117.15 461.399 117.146 461.487Z" fill="#5B462B"/>
<path d="M57.8456 545H53.9351V524.846H57.8456V545Z" fill="#BF9057"/>
<path d="M55.8903 471L70.7805 525.447H41L55.8903 471Z" fill="#F2E43B"/>
<path d="M89.431 540.187H86.7236V524.244H89.431V540.187Z" fill="#BF9057"/>
<path d="M88.0779 482.13L98.1545 524.845H78L88.0779 482.13Z" fill="#F2E43B"/>
<defs>
<filter id="filter0_d_2_13045" x="20" y="152" width="355" height="351" filterUnits="userSpaceOnUse" color-interpolation-filters="sRGB">
<feFlood flood-opacity="0" result="BackgroundImageFix"/>
<feColorMatrix in="SourceAlpha" type="matrix" values="0 0 0 0 0 0 0 0 0 0 0 0 0 0 0 0 0 0 127 0" result="hardAlpha"/>
<feOffset dx="5" dy="5"/>
<feComposite in2="hardAlpha" operator="out"/>
<feColorMatrix type="matrix" values="0 0 0 0 0.369762 0 0 0 0 0.725962 0 0 0 0 0.0628236 0 0 0 1 0"/>
<feBlend mode="normal" in2="BackgroundImageFix" result="effect1_dropShadow_2_13045"/>
<feBlend mode="normal" in="SourceGraphic" in2="effect1_dropShadow_2_13045" result="shape"/>
</filter>
</defs>
</svg>
