<svg width="140" height="70" viewBox="0 0 140 70" fill="none" xmlns="http://www.w3.org/2000/svg">
<path d="M107.748 15.0823L110.195 21.7436C110.472 22.4975 110.089 23.3254 109.335 23.6023C109.305 23.6138 109.278 23.623 109.246 23.6301C108.52 23.8476 107.742 23.4655 107.476 22.7428L105.03 16.0814C104.892 15.7069 104.919 15.3107 105.076 14.9716C105.22 14.662 105.472 14.4058 105.804 14.2592C105.832 14.2434 105.859 14.2341 105.889 14.2227C106.644 13.9458 107.474 14.3333 107.748 15.0823Z" fill="#6B7FFF"/>
<path opacity="0.25" d="M107.749 15.0823L110.196 21.7436C110.473 22.4975 110.089 23.3254 109.336 23.6023C109.305 23.6138 109.279 23.623 109.247 23.6301L105.805 14.2592C105.834 14.2434 105.86 14.2341 105.89 14.2227C106.644 13.9458 107.474 14.3333 107.749 15.0823Z" fill="#0A1640"/>
<path d="M110.631 21.585L108.184 14.9242C108.009 14.4445 107.655 14.0575 107.192 13.8449C106.728 13.6324 106.21 13.6106 105.731 13.785C104.782 14.1338 104.281 15.1531 104.553 16.1015L99.01 18.1401C98.7701 18.2273 98.6448 18.4944 98.732 18.7343C98.8028 18.9196 98.9827 19.0341 99.168 19.0341C99.2225 19.0341 99.277 19.0286 99.3261 19.0068L104.87 16.9737L106.772 22.1682L101.239 24.2014C100.999 24.294 100.874 24.5557 100.961 24.8009C101.032 24.9863 101.207 25.1007 101.397 25.1007C101.452 25.1007 101.506 25.0953 101.555 25.0735L107.104 23.0404C107.29 23.4546 107.617 23.7871 108.036 23.9779C108.293 24.0978 108.565 24.1578 108.838 24.1578C109.061 24.1578 109.285 24.1196 109.497 24.0378C109.977 23.8634 110.358 23.5091 110.571 23.0458C110.789 22.5825 110.811 22.0647 110.631 21.585ZM109.732 22.6588C109.623 22.8986 109.426 23.0785 109.175 23.1712C108.93 23.2584 108.663 23.2475 108.423 23.1385C108.227 23.0513 108.074 22.9041 107.976 22.7188C107.949 22.6752 107.927 22.6315 107.91 22.5825L107.643 21.8521L105.73 16.6575L105.463 15.9217C105.447 15.8781 105.436 15.829 105.425 15.78C105.327 15.3112 105.588 14.8261 106.052 14.6571C106.161 14.6135 106.275 14.5971 106.39 14.5971C106.531 14.5971 106.673 14.6244 106.804 14.6844C107.044 14.7988 107.224 14.995 107.316 15.2403L109.764 21.9066C109.852 22.1519 109.841 22.419 109.732 22.6588Z" fill="#0A1640"/>
<path d="M135.104 31.6443L138.894 41.9604C139.477 43.5461 138.664 45.3034 137.078 45.8861L111.282 55.3622L92.8431 62.1015C92.4288 62.2536 91.9813 62.3141 91.5371 62.2748L91.5207 62.271L81.2733 61.4027C80.8291 61.3635 80.381 61.424 79.9673 61.576L14.3152 85.5157C12.6162 86.1399 10.7509 85.1538 10.3083 83.3981L6.1009 66.8028L1.23229 47.5872L0.553673 44.9044C0.496985 44.6831 0.469735 44.4607 0.464829 44.2448C0.422858 42.9601 1.2083 41.7468 2.46307 41.2856L94.1878 7.59018C95.769 7.00913 97.5263 7.82238 98.1074 9.40364L104.71 27.3786C105.476 27.1071 106.711 26.713 108.217 26.2928C114.646 24.4902 126.034 22.111 127.053 25.8409L128.385 29.4657C128.618 30.0958 130.471 29.621 130.962 29.5965C132.504 29.5191 134.518 30.0489 135.104 31.6443Z" fill="#FFCE00"/>
<path d="M51.8457 57.1494C52.5227 55.457 54.897 54.5183 56.6151 54.8165C58.3163 55.1114 58.8935 56.945 56.9825 58.3519C54.3645 60.2782 50.9676 59.3444 51.8457 57.1494Z" fill="#D811AD"/>
<path d="M72.1588 49.6868C70.547 48.8354 68.1301 49.6568 67.0133 50.9961C65.9073 52.3223 66.6546 54.0932 69.0219 53.9286C72.264 53.7029 74.2486 50.7917 72.1588 49.6868Z" fill="#D811AD"/>
<path d="M63.4092 49.3276C64.144 49.2404 64.6231 49.5773 64.8482 50.1442C66.055 53.1862 61.8623 55.9012 59.2503 54.484C58.3155 53.9771 56.9457 52.4318 58.025 51.412C58.594 50.874 61.0147 49.6122 63.4092 49.3276Z" fill="white"/>
<g opacity="0.75">
<path d="M35.3285 32.7824C46.7641 27.8642 63.311 21.8357 74.092 18.5129C74.6502 18.3407 74.9532 19.1534 74.4131 19.3872C63.9318 23.8819 47.4264 29.9824 35.6304 33.6044C35.1044 33.7663 34.8232 33.0021 35.3285 32.7824Z" fill="white"/>
<path d="M110.578 28.2173C117.901 24.7953 125.635 26.0801 124.942 27.3812C124.798 27.6521 124.471 27.573 124.51 27.5698C123.421 27.3229 122.284 27.3196 121.149 27.3627C117.799 27.5164 110.751 28.8992 110.788 28.8927C110.381 28.9614 110.203 28.3928 110.578 28.2173Z" fill="white"/>
</g>
<path d="M93.0291 32.9852L96.4865 31.7152C96.7694 31.6116 96.9138 31.2982 96.8103 31.0153L92.3052 18.7517C92.2017 18.4688 91.8882 18.3238 91.6054 18.4279L88.1479 19.6979C87.865 19.8015 87.7206 20.1149 87.8242 20.3978L92.3292 32.6614C92.4328 32.9438 92.7462 33.0888 93.0291 32.9852Z" fill="#6B7FFF"/>
<path d="M101.111 54.9856L104.568 53.7156C104.851 53.6115 104.996 53.2986 104.892 53.0157L98.4263 35.4152C98.3228 35.1323 98.0094 34.9874 97.7265 35.0915L94.2691 36.3615C93.9862 36.4656 93.8412 36.7785 93.9453 37.0614L100.411 54.6618C100.515 54.9447 100.828 55.0892 101.111 54.9856Z" fill="#6B7FFF"/>
<path d="M84.1273 21.7529L88.6339 34.0209C88.7364 34.2995 88.5947 34.614 88.3112 34.7181L84.8522 35.9887C84.5693 36.0928 84.2575 35.9451 84.155 35.666L79.6484 23.398C79.5459 23.1189 79.6876 22.8049 79.9711 22.7008L83.4301 21.4303C83.4519 21.4221 83.4737 21.4144 83.4972 21.4106C83.761 21.3485 84.0324 21.4962 84.1273 21.7529Z" fill="#6B7FFF"/>
<path d="M92.9353 57.989L96.3927 56.719C96.6756 56.6154 96.8206 56.302 96.7165 56.0191L90.2508 38.4187C90.1467 38.1358 89.8338 37.9908 89.5509 38.0949L86.0935 39.3649C85.8106 39.4685 85.6656 39.7819 85.7698 40.0648L92.2354 57.6653C92.339 57.9476 92.6524 58.0926 92.9353 57.989Z" fill="#6B7FFF"/>
<path d="M76.9187 25.0784L80.2109 34.04C80.4355 34.6515 80.1226 35.328 79.5111 35.5531L70.5495 38.8453C69.9379 39.0699 69.2615 38.757 69.0364 38.1455L65.7441 29.1839C65.5195 28.5723 65.8324 27.8959 66.444 27.6708L75.4056 24.3785C76.0171 24.1539 76.6936 24.4668 76.9187 25.0784Z" fill="#6B7FFF"/>
<path d="M62.2717 30.4589L65.5639 39.4205C65.7885 40.032 65.4756 40.7085 64.864 40.9336L55.9025 44.2258C55.2909 44.4504 54.6144 44.1375 54.3893 43.526L51.0971 34.5644C50.8725 33.9528 51.1854 33.2764 51.797 33.0513L60.7585 29.759C61.3701 29.5344 62.0465 29.8473 62.2717 30.4589Z" fill="#6B7FFF"/>
<path d="M47.6252 35.8398L50.9174 44.8014C51.142 45.4135 50.8291 46.0894 50.2175 46.3145L41.256 49.6067C40.6444 49.8313 39.968 49.5184 39.7428 48.9069L36.4506 39.9453C36.226 39.3337 36.5389 38.6573 37.1505 38.4322L46.1121 35.1399C46.7242 34.9148 47.4001 35.2277 47.6252 35.8398Z" fill="#6B7FFF"/>
<path d="M32.9787 41.2203L36.2709 50.1818C36.4955 50.7934 36.1826 51.4699 35.571 51.695L26.6095 54.9872C25.9979 55.2118 25.3215 54.8989 25.0963 54.2873L21.8041 45.3258C21.5795 44.7137 21.8924 44.0378 22.504 43.8126L31.4655 40.5204C32.0777 40.2953 32.7541 40.6081 32.9787 41.2203Z" fill="#6B7FFF"/>
<path d="M18.3316 46.6006L21.6239 55.5622C21.8485 56.1738 21.5356 56.8502 20.924 57.0753L11.9624 60.3676C11.3509 60.5922 10.6744 60.2793 10.4493 59.6677L7.15704 50.7061C6.93247 50.094 7.24534 49.4181 7.85692 49.193L16.8185 45.9008C17.4306 45.6756 18.1071 45.9885 18.3316 46.6006Z" fill="#6B7FFF"/>
<path d="M100.255 15.2496L104.36 26.4242L99.6987 28.1368C99.189 28.3243 98.6271 28.1401 98.3305 27.71C98.2706 27.6283 98.2226 27.5373 98.1856 27.437L94.8933 18.4754C94.6693 17.8654 94.9832 17.1863 95.5932 16.9623L100.255 15.2496Z" fill="#6B7FFF"/>
<g opacity="0.5">
<path d="M71.7674 28.0359C71.1967 28.3799 70.6053 28.6677 70.0073 28.9359C69.7195 29.0781 69.3571 29.1948 69.2301 29.3038C69.0606 29.427 68.9205 29.5932 68.8496 29.7911C68.764 29.9819 68.7477 30.1977 68.7864 30.4032C68.7967 30.4615 68.8038 30.4931 68.8278 30.5727L68.903 30.8066C68.9548 30.9619 69.0017 31.1189 69.0464 31.2764C69.2317 31.9054 69.3974 32.5415 69.507 33.1978C69.5342 33.3608 69.4241 33.5145 69.2611 33.5417C69.1363 33.5625 69.0164 33.5025 68.9554 33.4C68.6136 32.8288 68.328 32.2368 68.0625 31.6373C67.9944 31.4879 67.9284 31.338 67.8674 31.1865L67.7731 30.9597C67.7436 30.8851 67.6973 30.7613 67.6722 30.6599C67.5649 30.2288 67.5981 29.7606 67.766 29.3479C67.9371 28.9364 68.2402 28.581 68.6196 28.3494C68.7989 28.2403 69.0497 28.1482 69.1816 28.1112C69.3369 28.0599 69.4944 28.0147 69.6525 27.9705C70.2826 27.7879 70.9193 27.6244 71.5766 27.517C71.7298 27.492 71.8748 27.5961 71.8999 27.7492C71.9189 27.8664 71.8628 27.9787 71.7674 28.0359Z" fill="white"/>
<path d="M57.1208 33.417C56.5502 33.7609 55.9593 34.0487 55.3608 34.3169C55.073 34.4592 54.7105 34.5764 54.5835 34.6848C54.414 34.808 54.2739 34.9743 54.2031 35.1721C54.1175 35.3629 54.1011 35.5788 54.1398 35.7843C54.1502 35.8426 54.1573 35.8742 54.1813 35.9538L54.2565 36.1876C54.3083 36.343 54.3551 36.4999 54.3998 36.6575C54.5852 37.2865 54.7509 37.9226 54.8604 38.5788C54.8877 38.7418 54.7776 38.8955 54.6146 38.9228C54.4898 38.9435 54.3699 38.8835 54.3088 38.7816C53.967 38.2104 53.6814 37.6179 53.416 37.0188C53.3478 36.8695 53.2819 36.7196 53.2208 36.5681L53.1265 36.3413C53.0971 36.2666 53.0508 36.1429 53.0257 36.0415C52.9183 35.6104 52.9516 35.1422 53.1195 34.7295C53.2906 34.318 53.5937 33.9626 53.973 33.731C54.1524 33.6219 54.4031 33.5298 54.535 33.4928C54.6904 33.4415 54.8479 33.3963 55.006 33.3521C55.6361 33.1695 56.2727 33.006 56.9301 32.8986C57.0832 32.8736 57.2282 32.9777 57.2533 33.1308C57.2724 33.2475 57.2162 33.3592 57.1208 33.417Z" fill="white"/>
<path d="M42.4744 38.7974C41.9037 39.1414 41.3123 39.4292 40.7143 39.6973C40.4265 39.8396 40.064 39.9568 39.937 40.0653C39.7675 40.1884 39.6274 40.3547 39.5566 40.5526C39.471 40.7433 39.4547 40.9592 39.4934 41.1647C39.5037 41.223 39.5108 41.2546 39.5348 41.3342L39.61 41.568C39.6618 41.7234 39.7087 41.8804 39.7533 42.0379C39.9387 42.6669 40.1044 43.303 40.2139 43.9593C40.2412 44.1223 40.1311 44.276 39.9681 44.3032C39.8433 44.3239 39.7234 44.264 39.6623 44.1615C39.3206 43.5903 39.0349 42.9978 38.7695 42.3987C38.7014 42.2494 38.6354 42.0995 38.5744 41.9479L38.4801 41.7212C38.4501 41.6465 38.4043 41.5228 38.3792 41.4214C38.2718 40.9903 38.3051 40.522 38.473 40.1094C38.6441 39.6984 38.9472 39.3425 39.3266 39.1108C39.5059 39.0018 39.7566 38.9097 39.8885 38.8726C40.0439 38.8214 40.2014 38.7762 40.3595 38.732C40.9896 38.5494 41.6262 38.3864 42.2836 38.2785C42.4368 38.2534 42.5818 38.3575 42.6068 38.5107C42.6259 38.6279 42.5698 38.7396 42.4744 38.7974Z" fill="white"/>
<path d="M27.8273 44.1778C27.2566 44.5212 26.6652 44.8096 26.0673 45.0778C25.7795 45.22 25.417 45.3367 25.29 45.4457C25.1205 45.5689 24.9804 45.7351 24.9095 45.9324C24.824 46.1232 24.8076 46.3391 24.8463 46.5446C24.8567 46.6029 24.8638 46.6345 24.8877 46.7141L24.963 46.9479C25.0147 47.1033 25.0616 47.2602 25.1063 47.4178C25.2916 48.0468 25.4573 48.6829 25.5669 49.3392C25.5942 49.5021 25.4841 49.6559 25.3211 49.6831C25.1963 49.7038 25.0763 49.6439 25.0153 49.5414C24.6735 48.9701 24.3879 48.3777 24.1225 47.7786C24.0543 47.6293 23.9884 47.4794 23.9273 47.3278L23.833 47.1011C23.803 47.0264 23.7573 46.9027 23.7322 46.8013C23.6248 46.3701 23.658 45.9019 23.8259 45.4893C23.9971 45.0778 24.3002 44.7224 24.6795 44.4907C24.8589 44.3817 25.1096 44.2896 25.2415 44.2525C25.3968 44.2013 25.5544 44.156 25.7124 44.1119C26.3425 43.9293 26.9792 43.7658 27.6366 43.6584C27.7897 43.6333 27.9347 43.7374 27.9598 43.8906C27.9789 44.0083 27.9227 44.1201 27.8273 44.1778Z" fill="white"/>
<path d="M13.1808 49.5583C12.6101 49.9017 12.0193 50.1901 11.4208 50.4583C11.133 50.6005 10.7705 50.7177 10.6435 50.8262C10.474 50.9494 10.3339 51.1156 10.263 51.3129C10.1775 51.5037 10.1611 51.7196 10.1998 51.9251C10.2102 51.9834 10.2172 52.015 10.2412 52.094L10.3164 52.3279C10.3682 52.4832 10.4151 52.6402 10.4598 52.7977C10.6451 53.4267 10.8108 54.0623 10.9204 54.7191C10.9476 54.8821 10.8375 55.0358 10.6746 55.0631C10.5497 55.0838 10.4298 55.0238 10.3688 54.9219C10.027 54.3506 9.74139 53.7581 9.47594 53.1591C9.40781 53.0098 9.34185 52.8599 9.2808 52.7083L9.1865 52.4816C9.15707 52.4069 9.11074 52.2832 9.08567 52.1818C8.97829 51.7506 9.01153 51.2824 9.17942 50.8698C9.35057 50.4588 9.65364 50.1029 10.033 49.8712C10.2123 49.7622 10.4631 49.6701 10.595 49.633C10.7503 49.5818 10.9079 49.5365 11.0659 49.4924C11.696 49.3098 12.3327 49.1463 12.99 49.0389C13.1432 49.0138 13.2882 49.1179 13.3133 49.2711C13.3324 49.3888 13.2762 49.5006 13.1808 49.5583Z" fill="white"/>
<path d="M87.8381 41.3816C88.5085 42.6571 89.0438 43.9816 89.5452 45.3193C90.0336 46.6612 90.4882 48.0158 90.806 49.421C90.8343 49.5474 90.7553 49.6733 90.6288 49.7017C90.5226 49.7257 90.4174 49.6733 90.3689 49.5812C89.7017 48.3046 89.1713 46.9779 88.6748 45.6392C88.1918 44.2951 87.7416 42.9389 87.4271 41.5326C87.4004 41.4138 87.4756 41.2955 87.5944 41.2688C87.6936 41.2465 87.7928 41.2955 87.8381 41.3816Z" fill="white"/>
<path d="M81.3103 23.6122C81.8919 24.6457 82.3383 25.7282 82.751 26.8232C83.1505 27.9232 83.5163 29.0357 83.7452 30.1989C83.7703 30.3264 83.6869 30.4507 83.5593 30.4758C83.4568 30.4959 83.3565 30.4458 83.308 30.3597C82.7297 29.3251 82.2882 28.2404 81.8805 27.1437C81.4864 26.0416 81.125 24.9275 80.8999 23.7637C80.8765 23.6433 80.9549 23.5272 81.0754 23.5037C81.1708 23.4841 81.2645 23.531 81.3103 23.6122Z" fill="white"/>
<path d="M95.9587 38.3984C96.6291 39.6739 97.1644 40.9984 97.6659 42.336C98.1542 43.678 98.6088 45.0325 98.9266 46.4377C98.955 46.5642 98.8759 46.6901 98.7495 46.7184C98.6432 46.7424 98.538 46.6901 98.4895 46.598C97.8223 45.3214 97.2919 43.9947 96.7954 42.656C96.3124 41.3118 95.8622 39.9557 95.5477 38.5499C95.521 38.4311 95.5962 38.3128 95.715 38.2861C95.8142 38.2632 95.9134 38.3123 95.9587 38.3984Z" fill="white"/>
<path d="M89.4312 20.629C90.0128 21.6625 90.4586 22.745 90.8718 23.8401C91.2714 24.94 91.6371 26.0525 91.8655 27.2157C91.8906 27.3433 91.8072 27.4675 91.6796 27.4926C91.5771 27.5128 91.4768 27.4626 91.4278 27.3765C90.8495 26.342 90.408 25.2573 90.0002 24.1606C89.6061 23.0584 89.2448 21.9443 89.0196 20.7806C88.9962 20.6601 89.0747 20.544 89.1952 20.5206C89.2916 20.5009 89.3854 20.5478 89.4312 20.629Z" fill="white"/>
<path d="M97.0389 18.3097C97.5643 19.1884 97.9529 20.1166 98.3089 21.0569C98.6512 22.0026 98.9608 22.9603 99.1325 23.9681C99.1543 24.0973 99.0676 24.2194 98.9384 24.2412C98.8392 24.2581 98.7438 24.2101 98.6948 24.1284C98.1732 23.2486 97.7889 22.3187 97.4378 21.3763C97.1004 20.429 96.7958 19.4696 96.6273 18.4601C96.6072 18.3386 96.6889 18.2241 96.8105 18.204C96.9037 18.1892 96.9931 18.2339 97.0389 18.3097Z" fill="white"/>
</g>
<g opacity="0.25">
<path d="M76.9702 25.2211L80.2096 34.0398C80.4342 34.6514 80.1213 35.3279 79.5097 35.553L70.5481 38.8452C69.9366 39.0698 69.2601 38.7569 69.035 38.1453L69.0241 38.1159C69.0421 37.8472 69.0873 37.5856 69.1626 37.3375C69.5839 35.9143 70.7084 34.8902 71.9375 34.2393C73.4627 33.4337 75.4173 32.857 75.8708 31.0686C76.085 30.2249 75.8915 29.302 75.8975 28.4141C75.9035 27.2308 76.3058 26.1057 76.9702 25.2211Z" fill="#0A1640"/>
<path d="M62.3237 30.6016L65.5631 39.4203C65.7876 40.0319 65.4747 40.7083 64.8632 40.9335L55.9016 44.2257C55.29 44.4503 54.6136 44.1374 54.3885 43.5258L54.3776 43.4964C54.3956 43.2277 54.4408 42.966 54.516 42.718C54.9374 41.2948 56.0619 40.2706 57.2905 39.6198C58.8156 38.8142 60.7702 38.2375 61.2237 36.4491C61.4379 35.6054 61.2444 34.6825 61.251 33.7946C61.257 32.6113 61.6592 31.4862 62.3237 30.6016Z" fill="#0A1640"/>
<path d="M47.6772 35.9825L50.9166 44.8013C51.1411 45.4134 50.8283 46.0893 50.2167 46.3144L41.2551 49.6067C40.6435 49.8313 39.9671 49.5184 39.742 48.9068L39.7311 48.8774C39.7491 48.6087 39.7943 48.347 39.869 48.099C40.2903 46.6758 41.4148 45.6516 42.644 45.0008C44.1691 44.1952 46.1237 43.6185 46.5772 41.8301C46.7915 40.9863 46.5979 40.0635 46.6045 39.1756C46.611 37.9917 47.0127 36.8667 47.6772 35.9825Z" fill="#0A1640"/>
<path d="M33.0307 41.3629L36.2701 50.1817C36.4946 50.7933 36.1818 51.4697 35.5702 51.6948L26.6086 54.9871C25.997 55.2116 25.3206 54.8988 25.0955 54.2872L25.0846 54.2578C25.1026 53.989 25.1478 53.7274 25.223 53.4794C25.6444 52.0562 26.7689 51.032 27.9975 50.3812C29.5226 49.5756 31.4772 48.9989 31.9307 47.2105C32.145 46.3667 31.9514 45.4439 31.958 44.556C31.9645 43.3721 32.3662 42.2476 33.0307 41.3629Z" fill="#0A1640"/>
<path d="M18.3836 46.7434L21.623 55.5622C21.8476 56.1738 21.5347 56.8502 20.9231 57.0753L11.9616 60.3676C11.35 60.5921 10.6735 60.2793 10.4484 59.6677L10.4375 59.6382C10.4555 59.3695 10.5008 59.1079 10.576 58.8599C10.9973 57.4367 12.1218 56.4125 13.3504 55.7617C14.8755 54.9561 16.8302 54.3794 17.2837 52.591C17.4979 51.7472 17.3044 50.8244 17.3109 49.9365C17.3175 48.7526 17.7192 47.6281 18.3836 46.7434Z" fill="#0A1640"/>
<path d="M84.1266 21.7528L88.6333 34.0208C88.7358 34.2993 88.594 34.6139 88.3106 34.718L84.8516 35.9885C84.5687 36.0926 84.2569 35.9449 84.1544 35.6659L83.7113 34.4591C83.8955 34.2334 84.1173 34.0573 84.3201 33.8693C86.3091 32.016 83.6148 26.9686 83.2234 23.8841C83.104 22.9536 83.2022 22.0226 83.4965 21.4105C83.7603 21.3484 84.0318 21.4961 84.1266 21.7528Z" fill="#0A1640"/>
<path d="M92.3032 18.7489L96.8099 31.0169C96.9124 31.296 96.7707 31.61 96.4878 31.7141L93.0287 32.9846C92.7453 33.0887 92.4341 32.941 92.3316 32.6619L91.8885 31.4552C92.0727 31.2295 92.2945 31.054 92.4973 30.8654C94.4863 29.0121 91.792 23.9647 91.4006 20.8801C91.2812 19.9497 91.3793 19.0187 91.6737 18.4066C91.9375 18.3445 92.209 18.4922 92.3032 18.7489Z" fill="#0A1640"/>
<path d="M98.4237 35.4086L104.893 53.0178C104.995 53.2969 104.853 53.6108 104.57 53.715L101.111 54.9855C100.828 55.0896 100.517 54.9419 100.414 54.6628L99.9711 53.456C100.155 53.2304 100.378 53.0543 100.58 52.8663C102.569 51.013 97.9124 40.625 97.521 37.5399C97.4017 36.6094 97.4998 35.6784 97.7941 35.0663C98.0574 35.0042 98.3294 35.1513 98.4237 35.4086Z" fill="#0A1640"/>
<path d="M90.2487 38.412L96.7176 56.0212C96.8201 56.3002 96.6784 56.6142 96.3949 56.7183L92.9359 57.9889C92.653 58.093 92.3412 57.9453 92.2388 57.6662L91.7956 56.4594C91.9798 56.2337 92.2017 56.0582 92.4044 55.8696C94.3934 54.0164 89.7368 43.6283 89.3455 40.5432C89.2261 39.6128 89.3242 38.6818 89.6186 38.0697C89.8824 38.007 90.1538 38.1547 90.2487 38.412Z" fill="#0A1640"/>
<path d="M100.962 17.1753L104.36 26.4241L99.698 28.1368C99.1884 28.3243 98.6264 28.14 98.3299 27.71C98.3272 27.4734 98.3582 27.2494 98.4214 27.0433C98.8341 25.7444 100.291 25.7384 100.728 24.4657C101.019 23.617 100.777 22.4451 100.499 21.38C100.222 20.3149 99.9128 19.1779 100.075 18.2333C100.177 17.6615 100.538 17.2467 100.962 17.1753Z" fill="#0A1640"/>
</g>
<g opacity="0.5">
<path d="M91.5202 62.271C80.9844 61.4697 81.0646 61.1721 79.9668 61.5755L14.3147 85.5152C12.6157 86.1393 10.7504 85.1532 10.3078 83.3976L6.1004 66.8022C8.67425 66.2266 11.1402 67.278 13.0081 69.0277C15.5307 71.3906 16.5271 77.2349 20.5007 77.816C22.5181 78.1109 24.5038 76.939 26.3151 76.2287C41.6546 70.2127 51.2321 66.4615 77.2 56.7085C84.6174 53.933 88.0464 54.6656 91.5202 62.271Z" fill="#E38921"/>
</g>
<path d="M92.8413 33.4818C92.4308 33.4818 92.0438 33.2289 91.8934 32.8218L87.3883 20.557C87.2957 20.3041 87.3066 20.0305 87.4199 19.7863C87.5328 19.5415 87.7344 19.3557 87.9874 19.263L91.4453 17.993C91.6982 17.8998 91.9719 17.9118 92.2161 18.0246C92.4608 18.1374 92.6467 18.3391 92.7393 18.592L97.2449 30.8557C97.3376 31.1086 97.3267 31.3822 97.2133 31.6269C97.1005 31.8711 96.8988 32.0576 96.6459 32.1502L93.1879 33.4202C93.074 33.4622 92.9568 33.4818 92.8413 33.4818ZM91.7925 18.858C91.7827 18.858 91.7735 18.8597 91.7642 18.8629L88.3062 20.133C88.2643 20.1482 88.2425 20.1956 88.2577 20.2376L92.7628 32.5018C92.778 32.5438 92.8255 32.5639 92.868 32.5503L96.3259 31.2803C96.3619 31.2672 96.3875 31.2111 96.3744 31.1751L91.8688 18.9114C91.8569 18.8782 91.8258 18.858 91.7925 18.858Z" fill="#0A1640"/>
<path d="M100.922 55.4827C100.777 55.4827 100.634 55.451 100.499 55.3889C100.255 55.2761 100.069 55.0744 99.976 54.8215L93.5103 37.221C93.4177 36.9681 93.4286 36.6945 93.542 36.4497C93.6548 36.2055 93.8565 36.0191 94.1094 35.9264L97.5673 34.6564C98.0868 34.464 98.6689 34.7333 98.8619 35.2549L105.327 52.8559C105.42 53.1089 105.409 53.3825 105.295 53.6272C105.183 53.8714 104.981 54.0578 104.728 54.1505L101.27 55.4205C101.157 55.4619 101.039 55.4827 100.922 55.4827ZM97.914 35.5215C97.9042 35.5215 97.8949 35.5231 97.8857 35.5264L94.4277 36.7964C94.3917 36.8095 94.3661 36.8656 94.3792 36.9016L100.845 54.5021C100.858 54.5375 100.914 54.5658 100.95 54.5506L104.407 53.2805C104.443 53.2675 104.469 53.2113 104.456 53.1754L97.9909 35.5749C97.9794 35.5416 97.9478 35.5215 97.914 35.5215Z" fill="#0A1640"/>
<path d="M84.6662 36.4851C84.2563 36.4851 83.8704 36.2328 83.7205 35.8262L79.2138 23.5576C79.1211 23.3069 79.1326 23.0343 79.2443 22.7907C79.3572 22.5454 79.5583 22.359 79.8112 22.2663L83.2708 20.9952C83.3209 20.9767 83.3716 20.9609 83.4245 20.9527C83.8862 20.8448 84.3871 21.1151 84.5621 21.5937L89.0693 33.8612C89.2606 34.3817 88.9919 34.9617 88.4719 35.153L85.0118 36.4236C84.8978 36.4655 84.7812 36.4851 84.6662 36.4851ZM83.6186 21.8597C83.6137 21.8597 83.6087 21.8602 83.6038 21.8613L80.1306 23.1363C80.0957 23.1488 80.0712 23.2028 80.0837 23.2382L84.5904 35.5067C84.6051 35.5476 84.6547 35.5689 84.6929 35.5542L88.1525 34.2836C88.1928 34.2689 88.2146 34.2215 88.1999 34.1806L83.6927 21.9131C83.6801 21.8815 83.6496 21.8597 83.6186 21.8597Z" fill="#0A1640"/>
<path d="M92.7467 58.486C92.6023 58.486 92.4589 58.4544 92.3238 58.3923C92.0796 58.2794 91.8931 58.0777 91.8005 57.8248L85.3353 40.2244C85.2427 39.9714 85.2536 39.6978 85.367 39.4531C85.4798 39.2089 85.6815 39.0225 85.9344 38.9298L89.3918 37.6598C89.9156 37.4674 90.495 37.7372 90.6863 38.2588L97.152 55.8593C97.2447 56.1122 97.2338 56.3858 97.1204 56.6306C97.0076 56.8748 96.8059 57.0612 96.553 57.1538L93.095 58.4239C92.9817 58.4653 92.8639 58.486 92.7467 58.486ZM89.7385 38.5248C89.7287 38.5248 89.7194 38.5264 89.7101 38.5297L86.2527 39.7997C86.2167 39.8128 86.1911 39.869 86.2042 39.9049L92.6693 57.5054C92.6824 57.5425 92.7397 57.5686 92.7745 57.5539L96.2325 56.2839C96.2685 56.2708 96.2941 56.2147 96.281 56.1787L89.8153 38.5782C89.8039 38.545 89.7723 38.5248 89.7385 38.5248Z" fill="#0A1640"/>
<path d="M70.1439 39.3806C69.4746 39.3806 68.8445 38.9685 68.6003 38.3052L65.3086 29.343C64.9968 28.4927 65.4334 27.5476 66.2837 27.2358L75.2447 23.9435C76.0923 23.6334 77.0402 24.0684 77.3525 24.9181L80.6443 33.8803C80.7958 34.2918 80.7778 34.7377 80.5941 35.1361C80.4099 35.5335 80.0812 35.8365 79.6691 35.9881L70.7081 39.2803C70.5228 39.3479 70.332 39.3806 70.1439 39.3806ZM75.8105 24.7693C75.7288 24.7693 75.6454 24.7829 75.5647 24.8129L66.6037 28.1052C66.2336 28.2409 66.0433 28.653 66.179 29.0236L69.4707 37.9852C69.607 38.3553 70.0218 38.5461 70.3892 38.4098L79.3508 35.1176C79.5307 35.0516 79.674 34.9197 79.7541 34.7464C79.8337 34.5736 79.8413 34.379 79.7754 34.1997L76.4837 25.2375C76.3768 24.9487 76.1021 24.7693 75.8105 24.7693Z" fill="#0A1640"/>
<path d="M55.4974 44.761C54.8281 44.761 54.198 44.3489 53.9543 43.685L50.6621 34.7234C50.3503 33.8731 50.7869 32.9279 51.6372 32.6162L60.5988 29.3239C61.4513 29.0127 62.3948 29.4493 62.7061 30.299L65.9978 39.2606C66.1493 39.6727 66.1313 40.1186 65.9471 40.517C65.7628 40.9144 65.4347 41.2169 65.0226 41.3684L56.0616 44.6607C55.8757 44.7283 55.6849 44.761 55.4974 44.761ZM61.1646 30.1497C61.0834 30.1497 60.9994 30.1633 60.9187 30.1933L51.9572 33.4856C51.5871 33.6213 51.3968 34.0334 51.5326 34.404L54.8248 43.3656C54.9605 43.7362 55.3737 43.9254 55.7427 43.7902L64.7043 40.4979C64.8842 40.432 65.0275 40.3006 65.1071 40.1267C65.1872 39.954 65.1949 39.7594 65.1289 39.5795L61.8372 30.6179C61.7304 30.3296 61.4562 30.1497 61.1646 30.1497Z" fill="#0A1640"/>
<path d="M40.8503 50.1414C40.181 50.1414 39.5509 49.7293 39.3072 49.0654L36.015 40.1039C35.7032 39.2536 36.1404 38.3084 36.9901 37.9966L45.9517 34.7049C46.3638 34.5534 46.8096 34.5719 47.2076 34.755C47.6049 34.9393 47.908 35.2674 48.0595 35.68L51.3518 44.6411C51.6635 45.4914 51.2264 46.4366 50.3766 46.7483L41.415 50.0406C41.2281 50.1093 41.0379 50.1414 40.8503 50.1414ZM46.5191 35.5301C46.4363 35.5301 46.3518 35.5449 46.2717 35.5748L37.3095 38.8665C36.9394 39.0023 36.7492 39.4144 36.8849 39.785L40.1772 48.7466C40.3134 49.1167 40.7261 49.3075 41.0956 49.1712L50.0572 45.8789C50.4273 45.7432 50.6176 45.3311 50.4818 44.9605L47.1896 35.9995C47.1236 35.8196 46.9917 35.6762 46.8184 35.5961C46.723 35.5525 46.6216 35.5301 46.5191 35.5301Z" fill="#0A1640"/>
<path d="M26.2038 55.5219C25.535 55.5219 24.9044 55.1098 24.6607 54.4459L21.3685 45.4844C21.0567 44.634 21.4938 43.6889 22.3436 43.3771L31.3052 40.0854C31.7173 39.9339 32.1631 39.9524 32.561 40.1355C32.9584 40.3198 33.2615 40.6479 33.413 41.0605L36.7052 50.0216C37.017 50.8719 36.5799 51.817 35.7301 52.1288L26.7685 55.4211C26.5816 55.4898 26.3913 55.5219 26.2038 55.5219ZM31.8726 40.9106C31.7898 40.9106 31.7053 40.9254 31.6252 40.9553L22.663 44.247C22.2929 44.3828 22.1027 44.7948 22.2384 45.165L25.5307 54.1265C25.6669 54.4966 26.079 54.6885 26.4491 54.5511L35.4107 51.2589C35.7808 51.1232 35.971 50.7111 35.8353 50.3404L32.5431 41.3794C32.4771 41.1995 32.3452 41.0562 32.1719 40.976C32.0765 40.933 31.9751 40.9106 31.8726 40.9106Z" fill="#0A1640"/>
<path d="M11.5537 60.9034C11.3187 60.9034 11.0855 60.8522 10.8658 60.7514C10.4679 60.5671 10.1654 60.239 10.0138 59.8269L6.72212 50.8659C6.57059 50.4538 6.58858 50.0079 6.77282 49.6095C6.95651 49.2121 7.28464 48.9096 7.69726 48.7575L16.6583 45.4658C17.0704 45.3143 17.5162 45.3317 17.9147 45.5165C18.312 45.7002 18.6146 46.0283 18.7656 46.441L22.0578 55.4026C22.3696 56.2523 21.9324 57.1975 21.0832 57.5104L12.1211 60.8021C11.9369 60.8702 11.745 60.9034 11.5537 60.9034ZM17.2268 46.2911C17.1434 46.2911 17.0589 46.3058 16.9783 46.3358L8.01722 49.6275C7.83735 49.6934 7.69398 49.8253 7.6144 49.9987C7.53373 50.172 7.52666 50.3666 7.59261 50.5465L10.8843 59.5075C10.9503 59.6874 11.0816 59.8307 11.2555 59.9103C11.4289 59.991 11.6234 59.9992 11.8028 59.9321L20.7643 56.6404C21.1344 56.5041 21.3247 56.0921 21.189 55.7214L17.8967 46.7604C17.8308 46.5805 17.6994 46.4372 17.5255 46.3576C17.4307 46.3134 17.3293 46.2911 17.2268 46.2911Z" fill="#0A1640"/>
<path d="M99.288 28.6726C98.7631 28.6726 98.2573 28.4207 97.9482 27.9721C97.8703 27.8653 97.8011 27.735 97.7504 27.596L94.4581 18.635C94.3071 18.224 94.3257 17.7781 94.5099 17.3791C94.6942 16.9807 95.0217 16.6782 95.4333 16.5272L100.095 14.8146C100.21 14.7715 100.338 14.7775 100.45 14.8287C100.561 14.8805 100.647 14.9743 100.689 15.0898L104.794 26.2644C104.882 26.5043 104.759 26.7708 104.519 26.8591L99.8571 28.5717C99.6707 28.6399 99.4783 28.6726 99.288 28.6726ZM99.9792 15.8437L95.7521 17.3966C95.5734 17.462 95.4305 17.5939 95.3504 17.7683C95.2703 17.9422 95.2621 18.1368 95.3275 18.3156L98.6198 27.2766C98.6416 27.3355 98.6699 27.3895 98.7043 27.4369C98.8918 27.7089 99.2303 27.8135 99.5377 27.7012L103.764 26.1483L99.9792 15.8437Z" fill="#0A1640"/>
<path d="M5.57905 45.1705C5.96878 46.2307 5.42369 47.408 4.35807 47.7994L1.69647 48.7773L1.17593 46.7103L0.87831 45.5444C0.810176 45.2773 0.777476 45.0097 0.770935 44.7497L2.94415 43.9512C3.47451 43.7566 4.03593 43.7942 4.5156 44.0117C4.96965 44.2259 5.34739 44.6058 5.54853 45.104C5.56161 45.1231 5.57142 45.1492 5.57905 45.1705Z" fill="#D811AD"/>
<path d="M135.165 32.4702L136.248 35.4202L134.237 36.1587C133.708 36.3533 133.146 36.3157 132.664 36.0933C132.191 35.8742 131.798 35.4703 131.603 34.94C131.595 34.9187 131.588 34.898 131.585 34.8751C131.232 33.8313 131.778 32.6893 132.822 32.3056L134.701 31.615C134.897 31.8717 135.051 32.1606 135.165 32.4702Z" fill="#D811AD"/>
<path d="M7.80628 63.1791L80.9461 36.3107C81.4481 36.1265 81.7054 35.57 81.5211 35.0685C81.3369 34.5671 80.7804 34.3092 80.2789 34.494L7.13964 61.3624C6.63763 61.5466 6.38035 62.1032 6.56459 62.6046C6.74828 63.1066 7.30481 63.3639 7.80628 63.1791Z" fill="#E38921"/>
<path d="M98.942 29.6996C98.6896 29.7923 98.4258 29.7754 98.1996 29.6707C97.9734 29.5661 97.7897 29.3764 97.6987 29.1278C97.5128 28.6225 97.7695 28.0687 98.2748 27.8829L104.108 25.7396L104.71 27.3776C105.476 27.1067 98.942 29.6996 98.942 29.6996Z" fill="#E38921"/>
<path d="M111.431 39.4581C111.36 37.6778 111.862 35.9369 112.816 34.4205C113.77 32.909 115.197 31.6989 116.795 30.9385C118.393 30.1662 120.126 29.7813 121.84 29.6391C123.559 29.5023 125.271 29.6195 126.939 29.8953C127.13 29.9269 127.259 30.1073 127.227 30.2981C127.199 30.4698 127.05 30.5913 126.882 30.5913H126.879C125.221 30.5913 123.579 30.6622 121.976 30.8775C121.179 31.0116 120.383 31.1375 119.62 31.3675C118.848 31.567 118.107 31.8494 117.402 32.1906C115.98 32.8512 114.752 33.8552 113.828 35.1062C113.368 35.7336 112.994 36.4296 112.697 37.1627C112.395 37.8888 112.189 38.689 112.088 39.4515L112.083 39.4886C112.06 39.6679 111.895 39.7938 111.715 39.7698C111.554 39.748 111.437 39.614 111.431 39.4581Z" fill="#E38921"/>
<path d="M105.448 28.4355C107.179 32.3219 108.707 36.2835 110.185 40.2631C111.643 44.2498 113.049 48.2556 114.251 52.3365C114.305 52.5219 114.2 52.7165 114.014 52.771C113.844 52.8211 113.665 52.7355 113.596 52.5775C111.87 48.6889 110.349 44.7251 108.879 40.7428C107.429 36.7528 106.029 32.7449 104.832 28.6617C104.781 28.4873 104.882 28.3047 105.055 28.2535C105.216 28.2066 105.383 28.2867 105.448 28.4355Z" fill="#E38921"/>
<path d="M135.518 33.4305L136.249 35.4201L134.238 36.1586C133.708 36.3532 133.146 36.3156 132.665 36.0932C132.191 35.8741 131.799 35.4702 131.604 34.9399C131.596 34.9186 131.588 34.8979 131.586 34.875L135.518 33.4305Z" fill="#FF8CDB"/>
<path d="M5.57917 45.1704C5.9689 46.2305 5.42382 47.4079 4.35819 47.7993L1.6966 48.7771L1.17606 46.7102L5.54865 45.1039C5.56173 45.123 5.57154 45.1491 5.57917 45.1704Z" fill="#FF8CDB"/>
<path d="M52.9335 51.0816C53.6781 50.5954 54.7786 50.6494 55.4812 51.4348C56.7185 52.8166 55.2092 54.793 53.471 54.2883C52.0723 53.8822 51.6597 51.9129 52.9335 51.0816Z" fill="#0A1640"/>
<path d="M67.3963 45.7689C66.5138 45.8806 65.7103 46.6339 65.6831 47.6875C65.6346 49.5413 68.064 50.0712 69.0625 48.5608C69.8654 47.3458 68.905 45.5781 67.3963 45.7689Z" fill="#0A1640"/>
<path d="M8.84293 68.6936C8.65379 68.6936 8.47665 68.577 8.40797 68.3895C8.31967 68.1496 8.44284 67.8831 8.68322 67.7948L47.377 53.5808C47.6158 53.4931 47.8834 53.6157 47.9717 53.8561C48.06 54.0965 47.9368 54.3625 47.6964 54.4508L9.00263 68.6647C8.95031 68.6843 8.89634 68.6936 8.84293 68.6936Z" fill="#0A1640"/>
<path d="M10.2425 73.1404C10.0539 73.1404 9.87625 73.0237 9.80757 72.8362C9.71926 72.5964 9.84245 72.3299 10.0828 72.2416L48.9816 57.9519C49.2214 57.8652 49.4879 57.9868 49.5762 58.2271C49.6645 58.467 49.5414 58.7335 49.301 58.8218L10.4022 73.1115C10.3494 73.1306 10.2954 73.1404 10.2425 73.1404Z" fill="#0A1640"/>
<path d="M46.9258 71.5777C46.7372 71.5777 46.5595 71.461 46.4909 71.2735C46.4026 71.0337 46.5257 70.7671 46.7661 70.6788L88.9037 55.1992C89.1419 55.1126 89.4106 55.2336 89.4984 55.4745C89.5867 55.7143 89.4635 55.9809 89.2231 56.0692L47.0855 71.5488C47.0332 71.5684 46.9792 71.5777 46.9258 71.5777Z" fill="#0A1640"/>
<path d="M73.4543 44.9589C73.2657 44.9589 73.088 44.8423 73.0193 44.6548C72.931 44.4149 73.0542 44.1484 73.2946 44.0601L83.4531 40.328C83.6924 40.2413 83.9595 40.3629 84.0478 40.6032C84.1361 40.8431 84.0129 41.1096 83.7725 41.1979L73.614 44.93C73.5616 44.9497 73.5077 44.9589 73.4543 44.9589Z" fill="#0A1640"/>
<path d="M75.0198 49.3441C74.8312 49.3441 74.6535 49.2274 74.5848 49.0399C74.4965 48.8001 74.6202 48.5335 74.8601 48.4452L85.0584 44.6984C85.2977 44.6117 85.5653 44.7327 85.6531 44.9737C85.7414 45.214 85.6176 45.48 85.3778 45.5683L75.1795 49.3152C75.1266 49.3348 75.0726 49.3441 75.0198 49.3441Z" fill="#0A1640"/>
<path d="M99.3923 58.0015C99.2032 58.0015 99.026 57.8848 98.9573 57.6973L85.337 20.6191C85.2487 20.3793 85.3719 20.1128 85.6123 20.0245C85.8521 19.9367 86.1192 20.0593 86.2069 20.2997L99.8273 57.3779C99.9156 57.6177 99.7924 57.8843 99.552 57.9726C99.4997 57.9922 99.4457 58.0015 99.3923 58.0015Z" fill="#0A1640"/>
<path d="M13.2663 86.165C12.6999 86.1655 12.1358 86.0287 11.6245 85.7589C10.7458 85.2945 10.1021 84.4752 9.85954 83.511L0.104328 45.0183C0.0427349 44.7752 0.00785647 44.5185 0.00186064 44.2563C-0.0471961 42.7443 0.877792 41.3745 2.30371 40.8507L94.0284 7.15578C94.9087 6.83146 95.8653 6.8718 96.7178 7.26588C97.5714 7.66106 98.2195 8.36366 98.5432 9.24451L104.99 26.7932C108.487 25.6251 121.757 21.8406 126.118 24.1174C126.85 24.5001 127.316 25.0386 127.501 25.7194L128.806 29.2668C128.907 29.3136 129.186 29.3398 129.921 29.2324L130.106 29.2062C132.948 28.8645 134.876 29.6772 135.54 31.4858L139.33 41.8024C139.654 42.6854 139.615 43.642 139.221 44.4956C138.825 45.3492 138.122 45.9984 137.239 46.3227L111.443 55.7994L93.0036 62.5387C92.5251 62.7142 92.004 62.7823 91.4965 62.7376C91.4764 62.7355 91.4562 62.7327 91.436 62.7278L81.2355 61.8655C80.8577 61.8323 80.4778 61.8824 80.1279 62.0121L14.4752 85.9524C14.0839 86.0941 13.6745 86.165 13.2663 86.165ZM95.2401 7.86492C94.9392 7.86492 94.6378 7.91834 94.3467 8.02517L2.62202 41.7201C1.57221 42.106 0.890877 43.1144 0.927397 44.2301C0.932303 44.4264 0.957376 44.6139 1.00262 44.7905L10.7578 83.2837C10.9366 83.9945 11.4103 84.5979 12.0578 84.9396C12.7048 85.2814 13.4696 85.3326 14.1558 85.0808L79.8085 61.1406C80.2843 60.9667 80.8049 60.8964 81.3145 60.9416L91.5598 61.8099C91.581 61.8115 91.6023 61.8148 91.623 61.8197C91.9473 61.847 92.3327 61.7963 92.6837 61.6677L111.123 54.9283L136.918 45.4522C137.568 45.2129 138.088 44.7354 138.378 44.1059C138.67 43.4774 138.698 42.7726 138.459 42.1213L134.669 31.8046C133.993 29.9628 131.588 29.9628 130.215 30.1258L130.055 30.1487C129.421 30.2419 128.241 30.4174 127.95 29.626L126.618 26.0012C126.49 25.5357 126.189 25.2005 125.687 24.9389C122.004 23.0175 109.471 26.1745 104.866 27.8152C104.627 27.8992 104.363 27.7771 104.276 27.5383L97.6722 9.56338C97.4335 8.91474 96.9565 8.39692 96.3275 8.10639C95.9814 7.94559 95.6113 7.86492 95.2401 7.86492Z" fill="#0A1640"/>
<path d="M44.9338 74.3963C46.8847 79.707 44.1593 85.5981 38.8443 87.5506C35.5248 88.7699 31.9731 88.1611 29.3044 86.2391C27.7089 85.0847 26.4231 83.456 25.6916 81.4648C22.5454 72.8995 31.3353 64.8869 39.5163 68.5836C41.9436 69.6754 43.9445 71.7042 44.9338 74.3963Z" fill="#6B7FFF"/>
<g opacity="0.25">
<path d="M44.9338 74.3963C46.8846 79.707 44.1592 85.5981 38.8442 87.5506C35.5247 88.7699 31.973 88.1611 29.3043 86.2391C30.2844 85.7704 31.4056 85.6205 32.4974 85.59C33.7625 85.5605 35.0325 85.6674 36.296 85.5393C38.2735 85.3371 40.2652 84.472 41.4137 82.8482C42.6145 81.1514 42.7262 78.8703 42.2199 76.8464C41.7108 74.828 40.6571 72.9955 39.6547 71.1684C39.3326 70.5748 39.0056 69.9136 39.1593 69.2541C39.216 69.0055 39.3446 68.7755 39.5163 68.5836C41.9435 69.6754 43.9445 71.7042 44.9338 74.3963Z" fill="#0A1640"/>
</g>
<path opacity="0.5" d="M32.7806 70.4899C27.8384 73.2687 28.2151 76.5238 28.0396 76.8264C27.8488 79.8624 28.8566 80.8926 28.1737 80.9951C28.0401 81.0153 27.9142 80.9406 27.8641 80.8218C27.2694 79.4198 27.1293 78.975 26.9805 77.6085C26.6131 74.4209 28.9062 71.024 32.5975 69.9737C32.743 69.9322 32.894 70.0167 32.9354 70.1617C32.9709 70.286 32.9147 70.4141 32.8068 70.4751L32.7806 70.4899Z" fill="white"/>
<path d="M35.3081 88.6434C33.088 88.6434 30.8903 87.9528 29.0321 86.6152C27.3004 85.3626 25.995 83.6369 25.2553 81.625C24.2682 78.9383 24.3864 76.0282 25.5878 73.4309C26.7891 70.8331 28.9296 68.8594 31.6147 67.8733C34.2654 66.8998 37.1396 67.0017 39.7058 68.1622C42.3548 69.3527 44.3667 71.5106 45.368 74.2371C47.4044 79.781 44.5493 85.9485 39.0032 87.986C37.8018 88.427 36.5514 88.6434 35.3081 88.6434ZM35.3141 68.1377C34.1755 68.1377 33.0341 68.3388 31.9346 68.7427C29.4824 69.6437 27.5272 71.4468 26.4294 73.8195C25.3316 76.1928 25.2237 78.8511 26.1252 81.3056C26.8006 83.1441 27.9938 84.7205 29.5745 85.8641C32.2214 87.7702 35.6264 88.2379 38.6838 87.1156C43.7502 85.2547 46.3584 79.6202 44.4981 74.5559C43.5829 72.0655 41.746 70.095 39.3253 69.0065C38.0455 68.4282 36.6823 68.1377 35.3141 68.1377Z" fill="#0A1640"/>
<path d="M133.589 41.8284C135.54 47.1391 132.814 53.0303 127.499 54.9827C124.179 56.2021 120.628 55.5932 117.959 53.6713C116.363 52.5168 115.078 50.8881 114.346 48.897C112.394 43.5819 115.12 37.6908 120.43 35.7399C123.053 34.7762 125.811 34.9496 128.171 36.0163C130.599 37.107 132.6 39.1358 133.589 41.8284Z" fill="#6B7FFF"/>
<path d="M118.487 47.374C119.599 50.3997 122.953 51.9515 125.979 50.8401C129.005 49.7287 130.557 46.3743 129.445 43.3486C128.334 40.3229 124.979 38.771 121.953 39.8824C118.928 40.9939 117.376 44.3477 118.487 47.374Z" fill="#332FBA"/>
<g opacity="0.25">
<path d="M133.589 41.8284C135.54 47.139 132.815 53.0302 127.499 54.9827C124.18 56.202 120.628 55.5931 117.959 53.6712C118.939 53.2024 120.06 53.0526 121.152 53.022C122.417 52.9926 123.687 53.0994 124.951 52.9713C126.928 52.7691 128.92 51.9041 130.069 50.2803C131.269 48.5835 131.381 46.3023 130.875 44.2785C130.366 42.2601 129.312 40.4275 128.31 38.6004C127.987 38.0068 127.66 37.3457 127.814 36.6861C127.871 36.4376 127.999 36.2076 128.171 36.0162C130.599 37.1069 132.6 39.1357 133.589 41.8284Z" fill="#0A1640"/>
</g>
<path opacity="0.5" d="M116.661 45.3818C116.726 46.5352 117.081 48.153 117.073 48.0979C117.123 48.4326 116.652 48.5667 116.52 48.2538C115.534 45.9312 115.211 43.9957 116.202 41.6638C117.152 39.5206 119.163 38.0009 121.253 37.4057C121.563 37.3174 121.744 37.7491 121.462 37.9072C117.627 40.0624 116.723 42.452 116.661 45.3818Z" fill="white"/>
<path d="M121.721 46.1859C122.177 47.4259 123.551 48.062 124.791 47.6063C126.031 47.1506 126.668 45.7765 126.212 44.5359C125.756 43.2959 124.382 42.6598 123.142 43.1154C121.901 43.5717 121.265 44.9463 121.721 46.1859Z" fill="#0A1640"/>
<path d="M123.963 56.0757C121.743 56.0757 119.546 55.3851 117.687 54.0469C115.956 52.7943 114.65 51.0692 113.911 49.0568C112.924 46.3701 113.042 43.4599 114.243 40.8626C115.444 38.2654 117.585 36.2916 120.27 35.3056C122.921 34.3316 125.795 34.4346 128.361 35.5945C131.01 36.7849 133.021 38.9418 134.023 41.6688C136.06 47.2128 133.205 53.3808 127.658 55.4183C126.458 55.8587 125.207 56.0757 123.963 56.0757ZM123.969 35.57C122.831 35.57 121.689 35.7711 120.59 36.175C118.138 37.076 116.182 38.8786 115.085 41.2513C113.987 43.6245 113.879 46.2829 114.78 48.7368C115.456 50.5753 116.648 52.1522 118.23 53.2953C120.878 55.2014 124.282 55.6691 127.339 54.5473C132.405 52.6864 135.014 47.0514 133.153 41.9871C132.238 39.4967 130.401 37.5257 127.981 36.4383C126.701 35.8605 125.337 35.57 123.969 35.57Z" fill="#0A1640"/>
<path d="M85.8624 69.0545L83.3491 69.6437C83.1888 69.6814 83.0199 69.6378 82.8978 69.5266L80.9873 67.7899C80.6804 67.5109 80.1866 67.7049 80.1517 68.1186L79.9353 70.6914C79.9217 70.8554 79.8279 71.0026 79.6846 71.0844L77.4427 72.3648C77.0824 72.5708 77.1145 73.1001 77.4966 73.2614L79.8764 74.2622C80.0285 74.3259 80.1391 74.4606 80.1724 74.6219L80.6973 77.15C80.7818 77.5561 81.2953 77.6896 81.5667 77.3756L83.2537 75.4215C83.3616 75.2967 83.5235 75.2329 83.6876 75.2509L86.2538 75.5327C86.6664 75.578 86.9515 75.1305 86.7367 74.7756L85.3997 72.567C85.3141 72.4258 85.3037 72.2519 85.3713 72.102L86.4326 69.7484C86.6037 69.3696 86.2663 68.9597 85.8624 69.0545Z" fill="#FF8CDB"/>
<path d="M29.3811 9.97334L26.8677 10.5626C26.7075 10.6002 26.5385 10.5566 26.4164 10.4454L24.5059 8.70877C24.1991 8.42969 23.7052 8.62373 23.6703 9.03745L23.4539 11.6102C23.4403 11.7743 23.3466 11.9214 23.2032 12.0032L20.9613 13.2836C20.601 13.4896 20.6332 14.0189 21.0153 14.1802L23.3951 15.181C23.5472 15.2448 23.6578 15.3794 23.6911 15.5407L24.216 18.0688C24.3004 18.4749 24.8139 18.6084 25.0853 18.2945L26.7724 16.3404C26.8803 16.2155 27.0422 16.1518 27.2062 16.1698L29.7724 16.4521C30.1851 16.4973 30.4702 16.0498 30.2554 15.695L28.9183 13.4864C28.8327 13.3452 28.8224 13.1713 28.89 13.0214L29.9512 10.6678C30.1224 10.2884 29.7855 9.8785 29.3811 9.97334Z" fill="#FF8CDB"/>
<path d="M124.298 60.6822L123.5 62.7998C123.448 62.935 123.334 63.0363 123.194 63.0712L120.998 63.6147C120.644 63.7019 120.545 64.1565 120.829 64.3832L122.596 65.7961C122.709 65.886 122.77 66.0261 122.76 66.17L122.598 68.4271C122.572 68.7902 122.973 69.0251 123.277 68.825L125.168 67.5806C125.288 67.5011 125.44 67.4863 125.574 67.5403L127.67 68.3917C128.007 68.5285 128.355 68.2195 128.259 67.869L127.66 65.687C127.621 65.5475 127.654 65.3987 127.747 65.2881L129.204 63.5574C129.439 63.2795 129.252 62.8532 128.889 62.8363L126.628 62.7322C126.484 62.7256 126.353 62.6483 126.276 62.5256L125.081 60.6042C124.888 60.2963 124.426 60.342 124.298 60.6822Z" fill="#FF8CDB"/>
<path d="M50.3353 8.86192L49.5373 10.9795C49.4866 11.1147 49.3721 11.2161 49.232 11.251L47.0354 11.7944C46.6822 11.8816 46.5824 12.3362 46.867 12.563L48.6341 13.9758C48.7469 14.0657 48.808 14.2058 48.7976 14.3503L48.6357 16.6074C48.6096 16.9705 49.0107 17.2054 49.3149 17.0053L51.2047 15.7609C51.3251 15.6814 51.4772 15.6666 51.6113 15.7211L53.7077 16.5725C54.0445 16.7094 54.3923 16.4003 54.2958 16.0498L53.6968 13.8679C53.6586 13.7283 53.6913 13.5795 53.784 13.4689L55.2415 11.7383C55.4759 11.4603 55.2895 11.034 54.9259 11.0171L52.6655 10.913C52.521 10.9065 52.3891 10.8291 52.3128 10.7065L51.1175 8.78506C50.9261 8.47601 50.4634 8.52179 50.3353 8.86192Z" fill="#FF8CDB"/>
<path d="M12.0843 27.952L10.1569 27.5105C10.0338 27.4822 9.93291 27.3955 9.88603 27.2783L9.15728 25.4403C9.04009 25.1449 8.63509 25.1122 8.47156 25.3847L7.4561 27.0815C7.39124 27.19 7.27731 27.2592 7.15139 27.2674L5.17822 27.3928C4.86099 27.4129 4.70456 27.788 4.91332 28.0278L6.21278 29.518C6.29563 29.6129 6.3267 29.7431 6.29509 29.8652L5.80453 31.7806C5.72549 32.0886 6.03399 32.353 6.3267 32.2287L8.14561 31.453C8.26171 31.4034 8.39472 31.4143 8.50156 31.4819L10.1717 32.5405C10.4398 32.7105 10.7871 32.499 10.7587 32.1823L10.5832 30.213C10.5723 30.0871 10.6235 29.9639 10.7205 29.8838L12.2435 28.6225C12.4882 28.4186 12.3939 28.0229 12.0843 27.952Z" fill="#FF8CDB"/>
<path d="M77.083 2.75432L75.1557 2.31281C75.0325 2.28447 74.9316 2.1978 74.8848 2.08006L74.156 0.242072C74.0388 -0.0533589 73.6338 -0.086064 73.4703 0.186474L72.4548 1.88329C72.3899 1.99176 72.276 2.06099 72.1501 2.06916L70.1769 2.19453C69.8597 2.2147 69.7033 2.58971 69.912 2.829L71.2115 4.31923C71.2944 4.41408 71.3254 4.54435 71.2938 4.66645L70.8032 6.58184C70.7242 6.88981 71.0327 7.15417 71.3249 7.02989L73.1438 6.25425C73.2599 6.20465 73.3929 6.21555 73.4997 6.28314L75.1698 7.34167C75.438 7.51174 75.7852 7.30025 75.7569 6.98356L75.5814 5.0142C75.5699 4.88829 75.6217 4.7651 75.7187 4.68498L77.2417 3.42367C77.4869 3.22091 77.3926 2.82518 77.083 2.75432Z" fill="#FF8CDB"/>
</svg>
