<svg width="140" height="70" viewBox="0 0 140 70" fill="none" xmlns="http://www.w3.org/2000/svg">
<path d="M107.748 15.0821L110.195 21.7435C110.472 22.4973 110.089 23.3253 109.335 23.6022C109.304 23.6137 109.278 23.6229 109.246 23.63C108.52 23.8475 107.742 23.4654 107.476 22.7426L105.029 16.0813C104.891 15.7068 104.919 15.3105 105.076 14.9715C105.22 14.6619 105.472 14.4057 105.803 14.2591C105.832 14.2433 105.858 14.234 105.889 14.2226C106.643 13.9457 107.473 14.3332 107.748 15.0821Z" fill="#6B7FFF"/>
<path opacity="0.25" d="M107.748 15.0821L110.195 21.7435C110.472 22.4973 110.089 23.3253 109.335 23.6022C109.305 23.6137 109.279 23.6229 109.246 23.63L105.804 14.2591C105.833 14.2433 105.859 14.234 105.89 14.2226C106.644 13.9457 107.474 14.3332 107.748 15.0821Z" fill="#0A1640"/>
<path d="M110.631 21.585L108.183 14.9242C108.009 14.4445 107.655 14.0575 107.191 13.8449C106.728 13.6324 106.21 13.6106 105.731 13.785C104.782 14.1338 104.281 15.1531 104.553 16.1015L99.0098 18.1401C98.77 18.2273 98.6446 18.4944 98.7318 18.7343C98.8027 18.9196 98.9826 19.0341 99.1679 19.0341C99.2224 19.0341 99.2769 19.0286 99.326 19.0068L104.869 16.9737L106.772 22.1682L101.239 24.2014C100.999 24.294 100.874 24.5557 100.961 24.8009C101.032 24.9863 101.206 25.1007 101.397 25.1007C101.452 25.1007 101.506 25.0953 101.555 25.0735L107.104 23.0404C107.29 23.4546 107.617 23.7871 108.036 23.9779C108.292 24.0978 108.565 24.1578 108.838 24.1578C109.061 24.1578 109.285 24.1196 109.497 24.0378C109.977 23.8634 110.358 23.5091 110.571 23.0458C110.789 22.5825 110.811 22.0647 110.631 21.585ZM109.731 22.6588C109.622 22.8986 109.426 23.0785 109.175 23.1712C108.93 23.2584 108.663 23.2475 108.423 23.1385C108.227 23.0513 108.074 22.9041 107.976 22.7188C107.949 22.6752 107.927 22.6315 107.91 22.5825L107.643 21.8521L105.73 16.6575L105.463 15.9217C105.447 15.8781 105.436 15.829 105.425 15.78C105.327 15.3112 105.588 14.8261 106.052 14.6571C106.161 14.6135 106.275 14.5971 106.39 14.5971C106.531 14.5971 106.673 14.6244 106.804 14.6844C107.044 14.7988 107.224 14.995 107.316 15.2403L109.764 21.9066C109.851 22.1519 109.84 22.419 109.731 22.6588Z" fill="#0A1640"/>
<path d="M135.105 31.6442L138.894 41.9603C139.477 43.5459 138.664 45.3033 137.078 45.8859L111.283 55.3621L92.8432 62.1014C92.429 62.2534 91.9815 62.314 91.5372 62.2747L91.5208 62.2709L81.2734 61.4026C80.8292 61.3633 80.3812 61.4239 79.9674 61.5759L14.3153 85.5156C12.6163 86.1397 10.7511 85.1537 10.3085 83.398L6.10106 66.8026L1.23244 47.5871L0.553826 44.9043C0.497138 44.683 0.469887 44.4606 0.464982 44.2447C0.423011 42.96 1.20846 41.7466 2.46322 41.2855L94.1879 7.59006C95.7692 7.00901 97.5265 7.82226 98.1075 9.40352L104.711 27.3785C105.476 27.107 106.711 26.7129 108.218 26.2927C114.646 24.4901 126.034 22.1109 127.053 25.8408L128.385 29.4656C128.618 30.0957 130.471 29.6209 130.962 29.5964C132.505 29.519 134.519 30.0488 135.105 31.6442Z" fill="#FFCE00"/>
<path d="M51.8459 57.1494C52.5229 55.457 54.8972 54.5183 56.6153 54.8165C58.3165 55.1114 58.8937 56.945 56.9827 58.3519C54.3647 60.2782 50.9678 59.3444 51.8459 57.1494Z" fill="#D811AD"/>
<path d="M72.1591 49.6867C70.5473 48.8353 68.1304 49.6567 67.0136 50.996C65.9076 52.3221 66.6549 54.0931 69.0222 53.9285C72.2643 53.7028 74.2489 50.7916 72.1591 49.6867Z" fill="#D811AD"/>
<path d="M63.4095 49.3276C64.1442 49.2404 64.6234 49.5773 64.8485 50.1442C66.0553 53.1862 61.8626 55.9012 59.2506 54.484C58.3158 53.9771 56.946 52.4318 58.0252 51.412C58.5943 50.874 61.015 49.6122 63.4095 49.3276Z" fill="white"/>
<g opacity="0.75">
<path d="M35.3288 32.7823C46.7644 27.8641 63.3113 21.8356 74.0923 18.5128C74.6505 18.3405 74.9535 19.1532 74.4134 19.3871C63.9321 23.8818 47.4267 29.9822 35.6307 33.6043C35.1047 33.7662 34.8235 33.002 35.3288 32.7823Z" fill="white"/>
<path d="M110.578 28.2173C117.901 24.7953 125.635 26.0801 124.943 27.3812C124.799 27.6521 124.471 27.573 124.51 27.5698C123.421 27.3229 122.284 27.3196 121.149 27.3627C117.8 27.5164 110.751 28.8992 110.789 28.8927C110.381 28.9614 110.203 28.3928 110.578 28.2173Z" fill="white"/>
</g>
<path d="M93.029 32.9851L96.4864 31.7151C96.7693 31.6115 96.9137 31.2981 96.8101 31.0152L92.3051 18.7515C92.2015 18.4686 91.8881 18.3237 91.6052 18.4278L88.1478 19.6978C87.8649 19.8014 87.7205 20.1148 87.824 20.3977L92.3291 32.6613C92.4326 32.9437 92.7461 33.0887 93.029 32.9851Z" fill="#6B7FFF"/>
<path d="M101.111 54.9855L104.568 53.7155C104.851 53.6114 104.996 53.2985 104.892 53.0156L98.4264 35.4151C98.3228 35.1322 98.0094 34.9872 97.7265 35.0913L94.2691 36.3614C93.9862 36.4655 93.8412 36.7784 93.9453 37.0612L100.411 54.6617C100.515 54.9446 100.828 55.0891 101.111 54.9855Z" fill="#6B7FFF"/>
<path d="M84.1274 21.7527L88.6341 34.0207C88.7365 34.2992 88.5948 34.6137 88.3114 34.7178L84.8523 35.9884C84.5694 36.0925 84.2576 35.9448 84.1552 35.6657L79.6485 23.3977C79.546 23.1186 79.6877 22.8047 79.9712 22.7006L83.4302 21.43C83.452 21.4218 83.4738 21.4142 83.4973 21.4104C83.7611 21.3482 84.0325 21.496 84.1274 21.7527Z" fill="#6B7FFF"/>
<path d="M92.9351 57.9889L96.3925 56.7189C96.6754 56.6153 96.8204 56.3019 96.7163 56.019L90.2506 38.4185C90.1465 38.1356 89.8337 37.9907 89.5508 38.0948L86.0933 39.3648C85.8104 39.4684 85.6655 39.7818 85.7696 40.0647L92.2352 57.6651C92.3388 57.9475 92.6522 58.0925 92.9351 57.9889Z" fill="#6B7FFF"/>
<path d="M76.9187 25.0783L80.2109 34.0398C80.4355 34.6514 80.1226 35.3279 79.5111 35.553L70.5495 38.8452C69.9379 39.0698 69.2615 38.7569 69.0364 38.1453L65.7441 29.1838C65.5195 28.5722 65.8324 27.8958 66.444 27.6706L75.4056 24.3784C76.0171 24.1538 76.6936 24.4667 76.9187 25.0783Z" fill="#6B7FFF"/>
<path d="M62.2717 30.4586L65.564 39.4202C65.7885 40.0318 65.4757 40.7082 64.8641 40.9333L55.9025 44.2256C55.2909 44.4502 54.6145 44.1373 54.3894 43.5257L51.0971 34.5641C50.8726 33.9526 51.1854 33.2761 51.797 33.051L60.7586 29.7588C61.3702 29.5342 62.0466 29.8471 62.2717 30.4586Z" fill="#6B7FFF"/>
<path d="M47.6252 35.8398L50.9175 44.8014C51.1421 45.4135 50.8292 46.0894 50.2176 46.3145L41.256 49.6067C40.6445 49.8313 39.968 49.5184 39.7429 48.9069L36.4507 39.9453C36.2261 39.3337 36.539 38.6573 37.1505 38.4322L46.1121 35.1399C46.7242 34.9148 47.4001 35.2277 47.6252 35.8398Z" fill="#6B7FFF"/>
<path d="M32.9788 41.2201L36.271 50.1817C36.4956 50.7933 36.1827 51.4697 35.5711 51.6949L26.6096 54.9871C25.998 55.2117 25.3215 54.8988 25.0964 54.2872L21.8042 45.3257C21.5796 44.7135 21.8925 44.0376 22.504 43.8125L31.4656 40.5203C32.0777 40.2952 32.7542 40.608 32.9788 41.2201Z" fill="#6B7FFF"/>
<path d="M18.3313 46.6005L21.6236 55.5621C21.8481 56.1737 21.5352 56.8501 20.9237 57.0752L11.9621 60.3675C11.3505 60.592 10.6741 60.2792 10.449 59.6676L7.15671 50.706C6.93214 50.0939 7.24501 49.418 7.85658 49.1929L16.8182 45.9006C17.4303 45.6755 18.1067 45.9884 18.3313 46.6005Z" fill="#6B7FFF"/>
<path d="M100.255 15.2495L104.36 26.4241L99.6985 28.1367C99.1889 28.3242 98.6269 28.14 98.3304 27.7099C98.2704 27.6282 98.2224 27.5371 98.1854 27.4368L94.8931 18.4753C94.6691 17.8653 94.9831 17.1862 95.593 16.9621L100.255 15.2495Z" fill="#6B7FFF"/>
<g opacity="0.5">
<path d="M71.7673 28.0358C71.1966 28.3798 70.6052 28.6676 70.0073 28.9357C69.7195 29.078 69.357 29.1947 69.23 29.3037C69.0605 29.4269 68.9204 29.5931 68.8495 29.791C68.764 29.9817 68.7476 30.1976 68.7863 30.4031C68.7967 30.4614 68.8038 30.493 68.8277 30.5726L68.903 30.8064C68.9547 30.9618 69.0016 31.1188 69.0463 31.2763C69.2316 31.9053 69.3973 32.5414 69.5069 33.1977C69.5342 33.3607 69.4241 33.5144 69.2611 33.5416C69.1363 33.5623 69.0163 33.5024 68.9553 33.3999C68.6135 32.8287 68.3279 32.2367 68.0625 31.6371C67.9943 31.4878 67.9284 31.3379 67.8673 31.1864L67.773 30.9596C67.7436 30.8849 67.6973 30.7612 67.6722 30.6598C67.5648 30.2287 67.5981 29.7604 67.7659 29.3478C67.9371 28.9363 68.2402 28.5809 68.6195 28.3492C68.7989 28.2402 69.0496 28.1481 69.1815 28.111C69.3368 28.0598 69.4944 28.0146 69.6524 27.9704C70.2825 27.7878 70.9192 27.6243 71.5766 27.5169C71.7297 27.4918 71.8747 27.5959 71.8998 27.7491C71.9189 27.8663 71.8627 27.9786 71.7673 28.0358Z" fill="white"/>
<path d="M57.1208 33.4166C56.5502 33.7606 55.9593 34.0484 55.3608 34.3165C55.073 34.4588 54.7105 34.576 54.5835 34.6845C54.414 34.8077 54.2739 34.9739 54.2031 35.1718C54.1175 35.3625 54.1011 35.5784 54.1398 35.7839C54.1502 35.8422 54.1573 35.8738 54.1813 35.9534L54.2565 36.1872C54.3083 36.3426 54.3551 36.4996 54.3998 36.6571C54.5852 37.2861 54.7509 37.9222 54.8604 38.5785C54.8877 38.7415 54.7776 38.8952 54.6146 38.9224C54.4898 38.9431 54.3699 38.8832 54.3088 38.7813C53.967 38.21 53.6814 37.6175 53.416 37.0185C53.3478 36.8691 53.2819 36.7192 53.2208 36.5677L53.1265 36.341C53.0971 36.2663 53.0508 36.1425 53.0257 36.0412C52.9183 35.61 52.9516 35.1418 53.1195 34.7292C53.2906 34.3176 53.5937 33.9622 53.973 33.7306C54.1524 33.6216 54.4031 33.5295 54.535 33.4924C54.6904 33.4412 54.8479 33.3959 55.006 33.3518C55.6361 33.1692 56.2727 33.0056 56.9301 32.8983C57.0832 32.8732 57.2282 32.9773 57.2533 33.1305C57.2724 33.2471 57.2162 33.3588 57.1208 33.4166Z" fill="white"/>
<path d="M42.4744 38.7973C41.9037 39.1412 41.3123 39.429 40.7143 39.6972C40.4265 39.8395 40.064 39.9567 39.937 40.0651C39.7675 40.1883 39.6274 40.3546 39.5566 40.5524C39.471 40.7432 39.4547 40.9591 39.4934 41.1646C39.5037 41.2229 39.5108 41.2545 39.5348 41.3341L39.61 41.5679C39.6618 41.7233 39.7087 41.8802 39.7533 42.0378C39.9387 42.6668 40.1044 43.3029 40.2139 43.9592C40.2412 44.1221 40.1311 44.2758 39.9681 44.3031C39.8433 44.3238 39.7234 44.2639 39.6623 44.1614C39.3206 43.5901 39.0349 42.9976 38.7695 42.3986C38.7014 42.2493 38.6354 42.0994 38.5744 41.9478L38.4801 41.7211C38.4501 41.6464 38.4043 41.5227 38.3792 41.4213C38.2718 40.9901 38.3051 40.5219 38.473 40.1093C38.6441 39.6983 38.9472 39.3424 39.3266 39.1107C39.5059 39.0017 39.7566 38.9096 39.8885 38.8725C40.0439 38.8213 40.2014 38.776 40.3595 38.7319C40.9896 38.5493 41.6262 38.3863 42.2836 38.2784C42.4368 38.2533 42.5818 38.3574 42.6068 38.5106C42.6259 38.6278 42.5698 38.7395 42.4744 38.7973Z" fill="white"/>
<path d="M27.8274 44.1775C27.2567 44.5209 26.6653 44.8092 26.0673 45.0774C25.7795 45.2197 25.4171 45.3363 25.2901 45.4453C25.1205 45.5685 24.9805 45.7348 24.9096 45.9321C24.824 46.1229 24.8077 46.3387 24.8464 46.5442C24.8567 46.6025 24.8638 46.6341 24.8878 46.7137L24.963 46.9476C25.0148 47.1029 25.0617 47.2599 25.1064 47.4174C25.2917 48.0464 25.4574 48.6825 25.567 49.3388C25.5942 49.5018 25.4841 49.6555 25.3211 49.6827C25.1963 49.7035 25.0764 49.6435 25.0154 49.541C24.6736 48.9698 24.388 48.3773 24.1225 47.7782C24.0544 47.6289 23.9884 47.479 23.9274 47.3275L23.8331 47.1007C23.8031 47.026 23.7573 46.9023 23.7322 46.8009C23.6249 46.3698 23.6581 45.9016 23.826 45.4889C23.9971 45.0774 24.3002 44.722 24.6796 44.4904C24.8589 44.3813 25.1097 44.2892 25.2416 44.2522C25.3969 44.2009 25.5544 44.1557 25.7125 44.1115C26.3426 43.9289 26.9793 43.7654 27.6366 43.658C27.7898 43.633 27.9348 43.7371 27.9599 43.8902C27.9789 44.008 27.9228 44.1197 27.8274 44.1775Z" fill="white"/>
<path d="M13.1809 49.5581C12.6102 49.9015 12.0194 50.1898 11.4209 50.458C11.1331 50.6003 10.7706 50.7175 10.6436 50.8259C10.4741 50.9491 10.334 51.1154 10.2631 51.3127C10.1775 51.5035 10.1612 51.7193 10.1999 51.9248C10.2103 51.9831 10.2173 52.0147 10.2413 52.0938L10.3165 52.3276C10.3683 52.483 10.4152 52.6399 10.4599 52.7975C10.6452 53.4265 10.8109 54.0621 10.9205 54.7189C10.9477 54.8818 10.8376 55.0356 10.6747 55.0628C10.5498 55.0835 10.4299 55.0236 10.3689 54.9216C10.0271 54.3504 9.74148 53.7579 9.47603 53.1589C9.4079 53.0095 9.34194 52.8596 9.2809 52.7081L9.1866 52.4813C9.15716 52.4067 9.11083 52.2829 9.08576 52.1815C8.97838 51.7504 9.01163 51.2822 9.17951 50.8695C9.35066 50.4586 9.65373 50.1026 10.0331 49.871C10.2124 49.7619 10.4632 49.6698 10.5951 49.6328C10.7504 49.5815 10.9079 49.5363 11.066 49.4921C11.6961 49.3095 12.3328 49.146 12.9901 49.0386C13.1433 49.0136 13.2883 49.1177 13.3134 49.2708C13.3324 49.3886 13.2763 49.5003 13.1809 49.5581Z" fill="white"/>
<path d="M87.8382 41.3814C88.5087 42.6569 89.0439 43.9814 89.5454 45.319C90.0338 46.661 90.4884 48.0155 90.8062 49.4207C90.8345 49.5472 90.7555 49.6731 90.629 49.7014C90.5227 49.7254 90.4175 49.6731 90.369 49.581C89.7019 48.3044 89.1715 46.9777 88.6749 45.639C88.192 44.2948 87.7418 42.9387 87.4273 41.5324C87.4006 41.4136 87.4758 41.2953 87.5946 41.2686C87.6938 41.2462 87.793 41.2953 87.8382 41.3814Z" fill="white"/>
<path d="M81.3106 23.6119C81.8922 24.6454 82.3386 25.7279 82.7512 26.823C83.1507 27.9229 83.5165 29.0354 83.7454 30.1986C83.7705 30.3262 83.6871 30.4505 83.5596 30.4755C83.4571 30.4957 83.3568 30.4456 83.3083 30.3594C82.73 29.3249 82.2884 28.2402 81.8807 27.1435C81.4866 26.0413 81.1253 24.9272 80.9001 23.7635C80.8767 23.643 80.9552 23.5269 81.0756 23.5035C81.171 23.4839 81.2648 23.5307 81.3106 23.6119Z" fill="white"/>
<path d="M95.9589 38.3982C96.6293 39.6736 97.1646 40.9982 97.666 42.3358C98.1544 43.6778 98.609 45.0323 98.9268 46.4375C98.9551 46.5639 98.8761 46.6899 98.7497 46.7182C98.6434 46.7422 98.5382 46.6899 98.4896 46.5977C97.8225 45.3212 97.2921 43.9945 96.7955 42.6558C96.3126 41.3116 95.8624 39.9555 95.5479 38.5497C95.5212 38.4309 95.5964 38.3126 95.7152 38.2859C95.8144 38.263 95.9136 38.312 95.9589 38.3982Z" fill="white"/>
<path d="M89.4313 20.6288C90.0129 21.6623 90.4588 22.7448 90.8719 23.8398C91.2715 24.9398 91.6372 26.0523 91.8656 27.2155C91.8907 27.343 91.8073 27.4673 91.6797 27.4924C91.5773 27.5125 91.477 27.4624 91.4279 27.3763C90.8496 26.3417 90.4081 25.257 90.0004 24.1603C89.6063 23.0582 89.2449 21.9441 89.0198 20.7803C88.9963 20.6599 89.0748 20.5438 89.1953 20.5203C89.2918 20.5007 89.3855 20.5476 89.4313 20.6288Z" fill="white"/>
<path d="M97.0391 18.3095C97.5646 19.1881 97.9532 20.1164 98.3091 21.0566C98.6514 22.0023 98.961 22.96 99.1327 23.9679C99.1545 24.0971 99.0679 24.2192 98.9387 24.241C98.8395 24.2579 98.7441 24.2099 98.695 24.1281C98.1734 23.2484 97.7891 22.3185 97.4381 21.3761C97.1007 20.4287 96.796 19.4694 96.6276 18.4599C96.6074 18.3384 96.6892 18.2239 96.8107 18.2037C96.9039 18.189 96.9933 18.2337 97.0391 18.3095Z" fill="white"/>
</g>
<g opacity="0.25">
<path d="M76.9705 25.2212L80.2099 34.04C80.4345 34.6515 80.1216 35.328 79.51 35.5531L70.5485 38.8453C69.9369 39.0699 69.2604 38.757 69.0353 38.1455L69.0244 38.116C69.0424 37.8473 69.0876 37.5857 69.1629 37.3377C69.5842 35.9145 70.7087 34.8903 71.9378 34.2395C73.463 33.4338 75.4176 32.8571 75.8711 31.0688C76.0853 30.225 75.8918 29.3022 75.8978 28.4142C75.9038 27.2309 76.3061 26.1058 76.9705 25.2212Z" fill="#0A1640"/>
<path d="M62.324 30.6016L65.5634 39.4203C65.788 40.0319 65.4751 40.7083 64.8635 40.9335L55.902 44.2257C55.2904 44.4503 54.614 44.1374 54.3888 43.5258L54.3779 43.4964C54.3959 43.2277 54.4412 42.966 54.5164 42.718C54.9377 41.2948 56.0622 40.2706 57.2908 39.6198C58.8159 38.8142 60.7706 38.2375 61.2241 36.4491C61.4383 35.6054 61.2448 34.6825 61.2513 33.7946C61.2573 32.6113 61.6596 31.4862 62.324 30.6016Z" fill="#0A1640"/>
<path d="M47.6776 35.9827L50.9169 44.8014C51.1415 45.4136 50.8286 46.0894 50.2171 46.3146L41.2555 49.6068C40.6439 49.8314 39.9675 49.5185 39.7424 48.9069L39.7314 48.8775C39.7494 48.6088 39.7947 48.3472 39.8694 48.0991C40.2907 46.676 41.4152 45.6518 42.6443 45.0009C44.1695 44.1953 46.1241 43.6186 46.5776 41.8302C46.7918 40.9865 46.5983 40.0636 46.6049 39.1757C46.6114 37.9918 47.0131 36.8668 47.6776 35.9827Z" fill="#0A1640"/>
<path d="M33.0311 41.363L36.2704 50.1818C36.495 50.7934 36.1821 51.4698 35.5706 51.6949L26.609 54.9872C25.9974 55.2118 25.321 54.8989 25.0959 54.2873L25.085 54.2579C25.1029 53.9892 25.1482 53.7275 25.2234 53.4795C25.6448 52.0563 26.7692 51.0321 27.9978 50.3813C29.523 49.5757 31.4776 48.999 31.9311 47.2106C32.1453 46.3668 31.9518 45.444 31.9583 44.5561C31.9649 43.3722 32.3666 42.2477 33.0311 41.363Z" fill="#0A1640"/>
<path d="M18.3841 46.7434L21.6235 55.5622C21.848 56.1738 21.5352 56.8502 20.9236 57.0753L11.962 60.3676C11.3504 60.5921 10.674 60.2793 10.4489 59.6677L10.438 59.6382C10.456 59.3695 10.5012 59.1079 10.5764 58.8599C10.9978 57.4367 12.1223 56.4125 13.3509 55.7617C14.876 54.9561 16.8306 54.3794 17.2841 52.591C17.4983 51.7472 17.3048 50.8244 17.3114 49.9365C17.3179 48.7526 17.7196 47.6281 18.3841 46.7434Z" fill="#0A1640"/>
<path d="M84.1271 21.7527L88.6338 34.0207C88.7362 34.2992 88.5945 34.6137 88.3111 34.7178L84.852 35.9884C84.5691 36.0925 84.2574 35.9448 84.1549 35.6657L83.7117 34.4589C83.896 34.2333 84.1178 34.0572 84.3206 33.8692C86.3096 32.0159 83.6153 26.9685 83.2239 23.8839C83.1045 22.9535 83.2026 22.0225 83.497 21.4104C83.7608 21.3482 84.0322 21.496 84.1271 21.7527Z" fill="#0A1640"/>
<path d="M92.3038 18.7488L96.8105 31.0168C96.913 31.2959 96.7712 31.6098 96.4883 31.7139L93.0293 32.9845C92.7458 33.0886 92.4346 32.9409 92.3321 32.6618L91.889 31.455C92.0732 31.2294 92.2951 31.0539 92.4978 30.8653C94.4868 29.012 91.7925 23.9646 91.4011 20.88C91.2818 19.9496 91.3799 19.0186 91.6742 18.4065C91.9381 18.3443 92.2095 18.4921 92.3038 18.7488Z" fill="#0A1640"/>
<path d="M98.4239 35.4085L104.893 53.0177C104.995 53.2968 104.854 53.6107 104.571 53.7148L101.112 54.9854C100.828 55.0895 100.517 54.9418 100.415 54.6627L99.9714 53.4559C100.156 53.2303 100.378 53.0542 100.58 52.8662C102.569 51.0129 97.9126 40.6249 97.5213 37.5397C97.4019 36.6093 97.5 35.6783 97.7944 35.0662C98.0576 35.004 98.3296 35.1512 98.4239 35.4085Z" fill="#0A1640"/>
<path d="M90.2492 38.4118L96.7181 56.021C96.8206 56.3001 96.6789 56.6141 96.3954 56.7182L92.9364 57.9888C92.6535 58.0929 92.3417 57.9452 92.2392 57.6661L91.7961 56.4593C91.9803 56.2336 92.2022 56.0581 92.4049 55.8695C94.3939 54.0163 89.7373 43.6282 89.346 40.5431C89.2266 39.6126 89.3247 38.6817 89.6191 38.0695C89.8829 38.0069 90.1543 38.1546 90.2492 38.4118Z" fill="#0A1640"/>
<path d="M100.962 17.1753L104.36 26.4241L99.6984 28.1368C99.1887 28.3243 98.6268 28.14 98.3302 27.71C98.3275 27.4734 98.3586 27.2494 98.4218 27.0433C98.8344 25.7444 100.291 25.7384 100.728 24.4657C101.02 23.617 100.777 22.4451 100.5 21.38C100.222 20.3149 99.9131 19.1779 100.075 18.2333C100.177 17.6615 100.538 17.2467 100.962 17.1753Z" fill="#0A1640"/>
</g>
<g opacity="0.5">
<path d="M91.5204 62.271C80.9846 61.4697 81.0648 61.1721 79.967 61.5755L14.3149 85.5152C12.6159 86.1393 10.7506 85.1532 10.308 83.3976L6.10059 66.8022C8.67443 66.2266 11.1404 67.278 13.0083 69.0277C15.5309 71.3906 16.5273 77.2349 20.5009 77.816C22.5182 78.1109 24.504 76.939 26.3152 76.2287C41.6547 70.2127 51.2323 66.4615 77.2002 56.7085C84.6176 53.933 88.0466 54.6656 91.5204 62.271Z" fill="#E38921"/>
</g>
<path d="M92.8414 33.4818C92.4309 33.4818 92.0439 33.2289 91.8935 32.8218L87.3884 20.557C87.2958 20.3041 87.3067 20.0305 87.4201 19.7863C87.5329 19.5415 87.7346 19.3557 87.9875 19.263L91.4454 17.993C91.6984 17.8998 91.972 17.9118 92.2162 18.0246C92.4609 18.1374 92.6468 18.3391 92.7394 18.592L97.245 30.8557C97.3377 31.1086 97.3268 31.3822 97.2134 31.6269C97.1006 31.8711 96.8989 32.0576 96.646 32.1502L93.1881 33.4202C93.0741 33.4622 92.9569 33.4818 92.8414 33.4818ZM91.7926 18.858C91.7828 18.858 91.7736 18.8597 91.7643 18.8629L88.3063 20.133C88.2644 20.1482 88.2426 20.1956 88.2578 20.2376L92.7629 32.5018C92.7782 32.5438 92.8256 32.5639 92.8681 32.5503L96.326 31.2803C96.362 31.2672 96.3876 31.2111 96.3746 31.1751L91.869 18.9114C91.857 18.8782 91.8259 18.858 91.7926 18.858Z" fill="#0A1640"/>
<path d="M100.922 55.4827C100.777 55.4827 100.634 55.451 100.499 55.3889C100.255 55.2761 100.069 55.0744 99.9762 54.8215L93.5105 37.221C93.4179 36.9681 93.4288 36.6945 93.5421 36.4497C93.655 36.2055 93.8566 36.0191 94.1096 35.9264L97.5675 34.6564C98.087 34.464 98.6691 34.7333 98.8621 35.2549L105.327 52.8559C105.42 53.1089 105.409 53.3825 105.296 53.6272C105.183 53.8714 104.981 54.0578 104.728 54.1505L101.27 55.4205C101.157 55.4619 101.039 55.4827 100.922 55.4827ZM97.9142 35.5215C97.9044 35.5215 97.8951 35.5231 97.8858 35.5264L94.4279 36.7964C94.3919 36.8095 94.3663 36.8656 94.3794 36.9016L100.845 54.5021C100.858 54.5375 100.914 54.5658 100.95 54.5506L104.408 53.2805C104.444 53.2675 104.469 53.2113 104.456 53.1754L97.991 35.5749C97.9796 35.5416 97.948 35.5215 97.9142 35.5215Z" fill="#0A1640"/>
<path d="M84.6664 36.485C84.2565 36.485 83.8706 36.2327 83.7207 35.826L79.2141 23.5575C79.1214 23.3067 79.1328 23.0342 79.2446 22.7906C79.3574 22.5453 79.5585 22.3589 79.8114 22.2662L83.271 20.9951C83.3212 20.9766 83.3719 20.9607 83.4247 20.9526C83.8864 20.8446 84.3873 21.115 84.5623 21.5936L89.0696 33.861C89.2609 34.3816 88.9921 34.9615 88.4721 35.1529L85.012 36.4234C84.8981 36.4654 84.7814 36.485 84.6664 36.485ZM83.6188 21.8596C83.6139 21.8596 83.609 21.8601 83.6041 21.8612L80.1309 23.1361C80.096 23.1487 80.0714 23.2026 80.084 23.2381L84.5907 35.5066C84.6054 35.5475 84.655 35.5688 84.6931 35.554L88.1527 34.2835C88.1931 34.2688 88.2149 34.2213 88.2002 34.1804L83.6929 21.913C83.6804 21.8814 83.6499 21.8596 83.6188 21.8596Z" fill="#0A1640"/>
<path d="M92.7471 58.486C92.6026 58.486 92.4593 58.4544 92.3241 58.3923C92.0799 58.2794 91.8935 58.0777 91.8008 57.8248L85.3357 40.2244C85.2431 39.9714 85.254 39.6978 85.3673 39.4531C85.4802 39.2089 85.6818 39.0225 85.9348 38.9298L89.3922 37.6598C89.916 37.4674 90.4954 37.7372 90.6867 38.2588L97.1524 55.8593C97.2451 56.1122 97.2342 56.3858 97.1208 56.6306C97.008 56.8748 96.8063 57.0612 96.5534 57.1538L93.0954 58.4239C92.982 58.4653 92.8643 58.486 92.7471 58.486ZM89.7388 38.5248C89.729 38.5248 89.7198 38.5264 89.7105 38.5297L86.2531 39.7997C86.2171 39.8128 86.1915 39.869 86.2046 39.9049L92.6697 57.5054C92.6828 57.5425 92.74 57.5686 92.7749 57.5539L96.2329 56.2839C96.2688 56.2708 96.2944 56.2147 96.2814 56.1787L89.8157 38.5782C89.8042 38.545 89.7726 38.5248 89.7388 38.5248Z" fill="#0A1640"/>
<path d="M70.144 39.3806C69.4747 39.3806 68.8446 38.9685 68.6004 38.3052L65.3087 29.343C64.9969 28.4927 65.4335 27.5476 66.2838 27.2358L75.2449 23.9435C76.0925 23.6334 77.0403 24.0684 77.3527 24.9181L80.6444 33.8803C80.7959 34.2918 80.7779 34.7377 80.5942 35.1361C80.41 35.5335 80.0813 35.8365 79.6692 35.9881L70.7082 39.2803C70.5229 39.3479 70.3321 39.3806 70.144 39.3806ZM75.8106 24.7693C75.7289 24.7693 75.6455 24.7829 75.5648 24.8129L66.6038 28.1052C66.2337 28.2409 66.0434 28.653 66.1792 29.0236L69.4709 37.9852C69.6071 38.3553 70.0219 38.5461 70.3893 38.4098L79.3509 35.1176C79.5308 35.0516 79.6741 34.9197 79.7543 34.7464C79.8338 34.5736 79.8415 34.379 79.7755 34.1997L76.4838 25.2375C76.377 24.9487 76.1023 24.7693 75.8106 24.7693Z" fill="#0A1640"/>
<path d="M55.4976 44.7611C54.8282 44.7611 54.1981 44.349 53.9545 43.6851L50.6622 34.7235C50.3504 33.8732 50.787 32.9281 51.6373 32.6163L60.5989 29.324C61.4514 29.0128 62.3949 29.4494 62.7062 30.2992L65.9979 39.2607C66.1494 39.6728 66.1314 40.1187 65.9472 40.5171C65.763 40.9145 65.4348 41.217 65.0228 41.3686L56.0617 44.6608C55.8758 44.7284 55.6851 44.7611 55.4976 44.7611ZM61.1647 30.1498C61.0835 30.1498 60.9995 30.1634 60.9189 30.1934L51.9573 33.4857C51.5872 33.6214 51.397 34.0335 51.5327 34.4041L54.8249 43.3657C54.9607 43.7364 55.3738 43.9255 55.7428 43.7903L64.7044 40.4981C64.8843 40.4321 65.0277 40.3008 65.1072 40.1269C65.1874 39.9541 65.195 39.7595 65.129 39.5796L61.8373 30.618C61.7305 30.3297 61.4563 30.1498 61.1647 30.1498Z" fill="#0A1640"/>
<path d="M40.8505 50.1413C40.1812 50.1413 39.5511 49.7292 39.3074 49.0653L36.0152 40.1037C35.7034 39.2534 36.1405 38.3083 36.9903 37.9965L45.9519 34.7048C46.364 34.5532 46.8098 34.5718 47.2077 34.7549C47.6051 34.9392 47.9082 35.2673 48.0597 35.6799L51.3519 44.641C51.6637 45.4913 51.2266 46.4364 50.3768 46.7482L41.4152 50.0405C41.2283 50.1091 41.038 50.1413 40.8505 50.1413ZM46.5193 35.53C46.4365 35.53 46.352 35.5447 46.2718 35.5747L37.3097 38.8664C36.9396 39.0021 36.7494 39.4142 36.8851 39.7849L40.1774 48.7465C40.3136 49.1166 40.7263 49.3073 41.0958 49.1711L50.0574 45.8788C50.4275 45.7431 50.6177 45.331 50.482 44.9604L47.1898 35.9993C47.1238 35.8195 46.9919 35.6761 46.8186 35.596C46.7232 35.5524 46.6218 35.53 46.5193 35.53Z" fill="#0A1640"/>
<path d="M26.204 55.5219C25.5352 55.5219 24.9046 55.1098 24.6609 54.4459L21.3687 45.4844C21.0569 44.634 21.494 43.6889 22.3438 43.3771L31.3054 40.0854C31.7175 39.9339 32.1633 39.9524 32.5613 40.1355C32.9586 40.3198 33.2617 40.6479 33.4132 41.0605L36.7055 50.0216C37.0172 50.8719 36.5801 51.817 35.7303 52.1288L26.7687 55.4211C26.5818 55.4898 26.3915 55.5219 26.204 55.5219ZM31.8728 40.9106C31.79 40.9106 31.7055 40.9254 31.6254 40.9553L22.6632 44.247C22.2931 44.3828 22.1029 44.7948 22.2386 45.165L25.5309 54.1265C25.6672 54.4966 26.0792 54.6885 26.4493 54.5511L35.4109 51.2589C35.781 51.1232 35.9713 50.7111 35.8355 50.3404L32.5433 41.3794C32.4773 41.1995 32.3454 41.0562 32.1721 40.976C32.0767 40.933 31.9753 40.9106 31.8728 40.9106Z" fill="#0A1640"/>
<path d="M11.554 60.9034C11.3191 60.9034 11.0858 60.8522 10.8662 60.7514C10.4683 60.5671 10.1657 60.239 10.0142 59.8269L6.72248 50.8659C6.57095 50.4538 6.58895 50.0079 6.77319 49.6095C6.95688 49.2121 7.285 48.9096 7.69762 48.7575L16.6587 45.4658C17.0707 45.3143 17.5166 45.3317 17.9151 45.5165C18.3124 45.7002 18.6149 46.0283 18.7659 46.441L22.0582 55.4026C22.37 56.2523 21.9328 57.1975 21.0836 57.5104L12.1215 60.8021C11.9372 60.8702 11.7454 60.9034 11.554 60.9034ZM17.2272 46.2911C17.1438 46.2911 17.0593 46.3058 16.9786 46.3358L8.01759 49.6275C7.83771 49.6934 7.69435 49.8253 7.61477 49.9987C7.5341 50.172 7.52702 50.3666 7.59298 50.5465L10.8847 59.5075C10.9506 59.6874 11.082 59.8307 11.2559 59.9103C11.4292 59.991 11.6238 59.9992 11.8031 59.9321L20.7647 56.6404C21.1348 56.5041 21.3251 56.0921 21.1893 55.7214L17.8971 46.7604C17.8311 46.5805 17.6998 46.4372 17.5259 46.3576C17.431 46.3134 17.3296 46.2911 17.2272 46.2911Z" fill="#0A1640"/>
<path d="M99.288 28.6726C98.7631 28.6726 98.2573 28.4207 97.9482 27.9721C97.8703 27.8653 97.8011 27.735 97.7504 27.596L94.4581 18.635C94.3071 18.224 94.3257 17.7781 94.5099 17.3791C94.6942 16.9807 95.0217 16.6782 95.4333 16.5272L100.095 14.8146C100.21 14.7715 100.338 14.7775 100.45 14.8287C100.561 14.8805 100.647 14.9743 100.689 15.0898L104.794 26.2644C104.882 26.5043 104.759 26.7708 104.519 26.8591L99.8571 28.5717C99.6707 28.6399 99.4783 28.6726 99.288 28.6726ZM99.9792 15.8437L95.7521 17.3966C95.5734 17.462 95.4305 17.5939 95.3504 17.7683C95.2703 17.9422 95.2621 18.1368 95.3275 18.3156L98.6198 27.2766C98.6416 27.3355 98.6699 27.3895 98.7043 27.4369C98.8918 27.7089 99.2303 27.8135 99.5377 27.7012L103.764 26.1483L99.9792 15.8437Z" fill="#0A1640"/>
<path d="M5.57911 45.1703C5.96884 46.2304 5.42375 47.4078 4.35813 47.7991L1.69653 48.777L1.17599 46.7101L0.878371 45.5442C0.810237 45.2771 0.777537 45.0095 0.770996 44.7495L2.94421 43.9509C3.47457 43.7563 4.03599 43.7939 4.51566 44.0114C4.96971 44.2256 5.34745 44.6056 5.54859 45.1038C5.56167 45.1228 5.57148 45.149 5.57911 45.1703Z" fill="#D811AD"/>
<path d="M135.165 32.47L136.248 35.4199L134.238 36.1585C133.708 36.3531 133.146 36.3155 132.665 36.0931C132.191 35.874 131.798 35.4701 131.603 34.9397C131.596 34.9184 131.588 34.8977 131.585 34.8748C131.232 33.831 131.778 32.6891 132.822 32.3054L134.702 31.6147C134.897 31.8715 135.051 32.1604 135.165 32.47Z" fill="#D811AD"/>
<path d="M7.80616 63.179L80.946 36.3106C81.448 36.1264 81.7053 35.5699 81.521 35.0684C81.3368 34.5669 80.7803 34.3091 80.2788 34.4939L7.13952 61.3623C6.6375 61.5465 6.38023 62.103 6.56447 62.6045C6.74816 63.1065 7.30469 63.3638 7.80616 63.179Z" fill="#E38921"/>
<path d="M98.942 29.6995C98.6896 29.7921 98.4258 29.7752 98.1996 29.6706C97.9734 29.5659 97.7897 29.3762 97.6987 29.1277C97.5128 28.6224 97.7695 28.0686 98.2748 27.8827L104.108 25.7395L104.71 27.3775C105.476 27.1066 98.942 29.6995 98.942 29.6995Z" fill="#E38921"/>
<path d="M111.431 39.4578C111.361 37.6776 111.863 35.9366 112.816 34.4202C113.77 32.9087 115.197 31.6987 116.795 30.9383C118.394 30.1659 120.126 29.7811 121.841 29.6388C123.559 29.502 125.271 29.6192 126.939 29.895C127.13 29.9266 127.259 30.1071 127.228 30.2978C127.199 30.4695 127.05 30.5911 126.882 30.5911H126.879C125.221 30.5911 123.579 30.6619 121.976 30.8772C121.179 31.0113 120.384 31.1372 119.62 31.3673C118.848 31.5668 118.107 31.8491 117.403 32.1903C115.981 32.851 114.753 33.855 113.829 35.1059C113.368 35.7333 112.995 36.4294 112.698 37.1625C112.395 37.8885 112.19 38.6887 112.088 39.4513L112.083 39.4883C112.06 39.6677 111.895 39.7936 111.715 39.7696C111.555 39.7478 111.437 39.6137 111.431 39.4578Z" fill="#E38921"/>
<path d="M105.449 28.4354C107.179 32.3218 108.707 36.2834 110.185 40.263C111.643 44.2497 113.05 48.2554 114.251 52.3364C114.306 52.5217 114.2 52.7163 114.015 52.7708C113.844 52.821 113.666 52.7354 113.596 52.5773C111.87 48.6888 110.349 44.725 108.879 40.7427C107.429 36.7527 106.029 32.7448 104.833 28.6616C104.781 28.4872 104.882 28.3046 105.056 28.2534C105.216 28.2065 105.383 28.2866 105.449 28.4354Z" fill="#E38921"/>
<path d="M135.518 33.4304L136.249 35.4199L134.238 36.1585C133.708 36.3531 133.146 36.3155 132.665 36.0931C132.191 35.874 131.799 35.4701 131.603 34.9397C131.596 34.9185 131.588 34.8978 131.585 34.8749L135.518 33.4304Z" fill="#FF8CDB"/>
<path d="M5.5789 45.1703C5.96863 46.2304 5.42354 47.4078 4.35792 47.7992L1.69632 48.777L1.17578 46.7101L5.54838 45.1038C5.56146 45.1228 5.57127 45.149 5.5789 45.1703Z" fill="#FF8CDB"/>
<path d="M52.9336 51.0816C53.6782 50.5954 54.7787 50.6494 55.4813 51.4348C56.7186 52.8166 55.2093 54.793 53.471 54.2883C52.0724 53.8822 51.6598 51.9129 52.9336 51.0816Z" fill="#0A1640"/>
<path d="M67.396 45.7689C66.5135 45.8806 65.7101 46.6339 65.6828 47.6875C65.6343 49.5413 68.0637 50.0712 69.0623 48.5608C69.8652 47.3458 68.9048 45.5781 67.396 45.7689Z" fill="#0A1640"/>
<path d="M8.84293 68.6936C8.65379 68.6936 8.47665 68.577 8.40797 68.3895C8.31967 68.1496 8.44284 67.8831 8.68322 67.7948L47.377 53.5808C47.6158 53.4931 47.8834 53.6157 47.9717 53.8561C48.06 54.0965 47.9368 54.3625 47.6964 54.4508L9.00263 68.6647C8.95031 68.6843 8.89634 68.6936 8.84293 68.6936Z" fill="#0A1640"/>
<path d="M10.2424 73.1403C10.0538 73.1403 9.87606 73.0236 9.80738 72.8361C9.71908 72.5963 9.84227 72.3297 10.0826 72.2414L48.9814 57.9517C49.2212 57.8651 49.4878 57.9866 49.5761 58.227C49.6644 58.4668 49.5412 58.7334 49.3008 58.8217L10.4021 73.1114C10.3492 73.1305 10.2952 73.1403 10.2424 73.1403Z" fill="#0A1640"/>
<path d="M46.9259 71.5775C46.7374 71.5775 46.5597 71.4609 46.491 71.2734C46.4027 71.0336 46.5259 70.767 46.7662 70.6787L88.9038 55.1991C89.142 55.1125 89.4107 55.2335 89.4985 55.4744C89.5868 55.7142 89.4636 55.9808 89.2232 56.0691L47.0857 71.5486C47.0333 71.5683 46.9794 71.5775 46.9259 71.5775Z" fill="#0A1640"/>
<path d="M73.4543 44.9589C73.2657 44.9589 73.088 44.8423 73.0193 44.6548C72.931 44.4149 73.0542 44.1484 73.2946 44.0601L83.4531 40.328C83.6924 40.2413 83.9595 40.3629 84.0478 40.6032C84.1361 40.8431 84.0129 41.1096 83.7725 41.1979L73.614 44.93C73.5616 44.9497 73.5077 44.9589 73.4543 44.9589Z" fill="#0A1640"/>
<path d="M75.0196 49.3441C74.831 49.3441 74.6533 49.2274 74.5847 49.0399C74.4964 48.8001 74.6201 48.5335 74.8599 48.4452L85.0583 44.6984C85.2976 44.6117 85.5652 44.7327 85.653 44.9737C85.7413 45.214 85.6175 45.48 85.3777 45.5683L75.1793 49.3152C75.1265 49.3348 75.0725 49.3441 75.0196 49.3441Z" fill="#0A1640"/>
<path d="M99.3925 58.0015C99.2033 58.0015 99.0262 57.8848 98.9575 57.6973L85.3372 20.6191C85.2489 20.3793 85.3721 20.1128 85.6124 20.0245C85.8523 19.9367 86.1194 20.0593 86.2071 20.2997L99.8275 57.3779C99.9158 57.6177 99.7926 57.8843 99.5522 57.9726C99.4999 57.9922 99.4459 58.0015 99.3925 58.0015Z" fill="#0A1640"/>
<path d="M13.2663 86.165C12.6999 86.1655 12.1358 86.0287 11.6245 85.7589C10.7458 85.2945 10.1021 84.4752 9.85954 83.511L0.104328 45.0183C0.0427349 44.7752 0.00785647 44.5185 0.00186064 44.2563C-0.0471961 42.7443 0.877792 41.3745 2.30371 40.8507L94.0284 7.15578C94.9087 6.83146 95.8653 6.8718 96.7178 7.26588C97.5714 7.66106 98.2195 8.36366 98.5432 9.24451L104.99 26.7932C108.487 25.6251 121.757 21.8406 126.118 24.1174C126.85 24.5001 127.316 25.0386 127.501 25.7194L128.806 29.2668C128.907 29.3136 129.186 29.3398 129.921 29.2324L130.106 29.2062C132.948 28.8645 134.876 29.6772 135.54 31.4858L139.33 41.8024C139.654 42.6854 139.615 43.642 139.221 44.4956C138.825 45.3492 138.122 45.9984 137.239 46.3227L111.443 55.7994L93.0036 62.5387C92.5251 62.7142 92.004 62.7823 91.4965 62.7376C91.4764 62.7355 91.4562 62.7327 91.436 62.7278L81.2355 61.8655C80.8577 61.8323 80.4778 61.8824 80.1279 62.0121L14.4752 85.9524C14.0839 86.0941 13.6745 86.165 13.2663 86.165ZM95.2401 7.86492C94.9392 7.86492 94.6378 7.91834 94.3467 8.02517L2.62202 41.7201C1.57221 42.106 0.890877 43.1144 0.927397 44.2301C0.932303 44.4264 0.957376 44.6139 1.00262 44.7905L10.7578 83.2837C10.9366 83.9945 11.4103 84.5979 12.0578 84.9396C12.7048 85.2814 13.4696 85.3326 14.1558 85.0808L79.8085 61.1406C80.2843 60.9667 80.8049 60.8964 81.3145 60.9416L91.5598 61.8099C91.581 61.8115 91.6023 61.8148 91.623 61.8197C91.9473 61.847 92.3327 61.7963 92.6837 61.6677L111.123 54.9283L136.918 45.4522C137.568 45.2129 138.088 44.7354 138.378 44.1059C138.67 43.4774 138.698 42.7726 138.459 42.1213L134.669 31.8046C133.993 29.9628 131.588 29.9628 130.215 30.1258L130.055 30.1487C129.421 30.2419 128.241 30.4174 127.95 29.626L126.618 26.0012C126.49 25.5357 126.189 25.2005 125.687 24.9389C122.004 23.0175 109.471 26.1745 104.866 27.8152C104.627 27.8992 104.363 27.7771 104.276 27.5383L97.6722 9.56338C97.4335 8.91474 96.9565 8.39692 96.3275 8.10639C95.9814 7.94559 95.6113 7.86492 95.2401 7.86492Z" fill="#0A1640"/>
<path d="M44.9335 74.3962C46.8843 79.7068 44.159 85.598 38.8439 87.5505C35.5244 88.7698 31.9727 88.161 29.304 86.239C27.7086 85.0846 26.4228 83.4559 25.6913 81.4647C22.5451 72.8994 31.335 64.8868 39.516 68.5835C41.9432 69.6753 43.9442 71.704 44.9335 74.3962Z" fill="#6B7FFF"/>
<g opacity="0.25">
<path d="M44.9337 74.3962C46.8845 79.7068 44.1591 85.598 38.8441 87.5505C35.5246 88.7698 31.9729 88.161 29.3042 86.239C30.2842 85.7703 31.4055 85.6204 32.4973 85.5898C33.7624 85.5604 35.0324 85.6672 36.2959 85.5392C38.2734 85.3369 40.2651 84.4719 41.4136 82.8481C42.6144 81.1513 42.7261 78.8702 42.2197 76.8463C41.7106 74.8279 40.657 72.9953 39.6546 71.1682C39.3325 70.5747 39.0054 69.9135 39.1592 69.2539C39.2158 69.0054 39.3445 68.7754 39.5162 68.5835C41.9434 69.6753 43.9444 71.7041 44.9337 74.3962Z" fill="#0A1640"/>
</g>
<path opacity="0.5" d="M32.7805 70.4896C27.8383 73.2684 28.215 76.5236 28.0394 76.8261C27.8487 79.8622 28.8565 80.8924 28.1735 80.9948C28.04 81.015 27.9141 80.9403 27.8639 80.8215C27.2693 79.4196 27.1292 78.9748 26.9804 77.6083C26.613 74.4207 28.9061 71.0238 32.5974 69.9734C32.7429 69.932 32.8939 70.0165 32.9353 70.1615C32.9707 70.2858 32.9146 70.4138 32.8067 70.4749L32.7805 70.4896Z" fill="white"/>
<path d="M35.3077 88.6433C33.0877 88.6433 30.8899 87.9527 29.0318 86.6151C27.3 85.3625 25.9946 83.6368 25.2549 81.6249C24.2678 78.9382 24.3861 76.0281 25.5874 73.4308C26.7888 70.833 28.9293 68.8592 31.6143 67.8732C34.265 66.8997 37.1392 67.0016 39.7054 68.1621C42.3545 69.3525 44.3663 71.5105 45.3676 74.2369C47.4041 79.7809 44.5489 85.9484 39.0028 87.9859C37.8015 88.4269 36.5511 88.6433 35.3077 88.6433ZM35.3138 68.1376C34.1751 68.1376 33.0337 68.3387 31.9343 68.7426C29.482 69.6436 27.5268 71.4467 26.429 73.8194C25.3312 76.1927 25.2233 78.851 26.1249 81.3055C26.8002 83.144 27.9934 84.7204 29.5741 85.8639C32.221 87.7701 35.6261 88.2377 38.6834 87.1154C43.7499 85.2545 46.3581 79.6201 44.4977 74.5558C43.5825 72.0654 41.7456 70.0949 39.3249 69.0064C38.0451 68.4281 36.6819 68.1376 35.3138 68.1376Z" fill="#0A1640"/>
<path d="M133.589 41.8284C135.54 47.1391 132.814 53.0303 127.499 54.9827C124.179 56.2021 120.627 55.5932 117.959 53.6713C116.363 52.5168 115.077 50.8881 114.346 48.897C112.394 43.5819 115.119 37.6908 120.43 35.7399C123.053 34.7762 125.811 34.9496 128.171 36.0163C130.598 37.107 132.599 39.1358 133.589 41.8284Z" fill="#6B7FFF"/>
<path d="M118.487 47.374C119.598 50.3997 122.953 51.9515 125.978 50.8401C129.005 49.7287 130.557 46.3743 129.445 43.3486C128.333 40.3229 124.979 38.771 121.953 39.8824C118.927 40.9939 117.376 44.3477 118.487 47.374Z" fill="#332FBA"/>
<g opacity="0.25">
<path d="M133.589 41.8285C135.54 47.1392 132.814 53.0303 127.499 54.9828C124.179 56.2021 120.628 55.5933 117.959 53.6713C118.939 53.2026 120.06 53.0527 121.152 53.0222C122.417 52.9927 123.687 53.0996 124.951 52.9715C126.928 52.7692 128.92 51.9042 130.068 50.2804C131.269 48.5836 131.381 46.3025 130.875 44.2786C130.365 42.2602 129.312 40.4276 128.309 38.6006C127.987 38.007 127.66 37.3458 127.814 36.6863C127.871 36.4377 127.999 36.2077 128.171 36.0164C130.599 37.1071 132.6 39.1358 133.589 41.8285Z" fill="#0A1640"/>
</g>
<path opacity="0.5" d="M116.661 45.3817C116.726 46.535 117.081 48.1528 117.073 48.0978C117.123 48.4325 116.652 48.5665 116.52 48.2537C115.534 45.9311 115.211 43.9955 116.202 41.6637C117.152 39.5205 119.163 38.0008 121.253 37.4056C121.563 37.3173 121.744 37.749 121.462 37.9071C117.627 40.0623 116.723 42.4519 116.661 45.3817Z" fill="white"/>
<path d="M121.721 46.1859C122.177 47.4259 123.551 48.062 124.792 47.6063C126.032 47.1506 126.668 45.7765 126.212 44.5359C125.756 43.2959 124.382 42.6598 123.142 43.1154C121.902 43.5717 121.265 44.9463 121.721 46.1859Z" fill="#0A1640"/>
<path d="M123.963 56.0757C121.743 56.0757 119.545 55.3851 117.687 54.0469C115.956 52.7943 114.65 51.0692 113.91 49.0568C112.924 46.3701 113.042 43.4599 114.243 40.8626C115.444 38.2654 117.585 36.2916 120.27 35.3056C122.921 34.3316 125.795 34.4346 128.361 35.5945C131.01 36.7849 133.021 38.9418 134.023 41.6688C136.06 47.2128 133.205 53.3808 127.658 55.4183C126.458 55.8587 125.207 56.0757 123.963 56.0757ZM123.969 35.57C122.831 35.57 121.689 35.7711 120.59 36.175C118.138 37.076 116.182 38.8786 115.085 41.2513C113.987 43.6245 113.879 46.2829 114.78 48.7368C115.456 50.5753 116.648 52.1522 118.23 53.2953C120.878 55.2014 124.282 55.6691 127.339 54.5473C132.405 52.6864 135.014 47.0514 133.153 41.9871C132.238 39.4967 130.401 37.5257 127.98 36.4383C126.701 35.8605 125.337 35.57 123.969 35.57Z" fill="#0A1640"/>
<path d="M85.8626 69.0546L83.3492 69.6439C83.189 69.6815 83.02 69.6379 82.8979 69.5267L80.9874 67.7901C80.6805 67.511 80.1867 67.705 80.1518 68.1187L79.9354 70.6915C79.9218 70.8556 79.828 71.0027 79.6847 71.0845L77.4428 72.3649C77.0825 72.5709 77.1146 73.1002 77.4967 73.2615L79.8765 74.2623C80.0286 74.3261 80.1393 74.4607 80.1725 74.622L80.6974 77.1501C80.7819 77.5562 81.2954 77.6897 81.5668 77.3758L83.2538 75.4217C83.3618 75.2968 83.5236 75.2331 83.6877 75.2511L86.2539 75.5329C86.6665 75.5781 86.9516 75.1306 86.7369 74.7757L85.3998 72.5671C85.3142 72.4259 85.3039 72.252 85.3715 72.1022L86.4327 69.7485C86.6039 69.3697 86.2665 68.9598 85.8626 69.0546Z" fill="#FF8CDB"/>
<path d="M29.3811 9.97334L26.8678 10.5626C26.7075 10.6002 26.5386 10.5566 26.4165 10.4454L24.506 8.70877C24.1991 8.42969 23.7052 8.62373 23.6704 9.03745L23.454 11.6102C23.4403 11.7743 23.3466 11.9214 23.2032 12.0032L20.9613 13.2836C20.601 13.4896 20.6332 14.0189 21.0153 14.1802L23.3951 15.181C23.5472 15.2448 23.6578 15.3794 23.6911 15.5407L24.216 18.0688C24.3005 18.4749 24.8139 18.6084 25.0854 18.2945L26.7724 16.3404C26.8803 16.2155 27.0422 16.1518 27.2063 16.1698L29.7725 16.4521C30.1851 16.4973 30.4702 16.0498 30.2554 15.695L28.9184 13.4864C28.8328 13.3452 28.8224 13.1713 28.89 13.0214L29.9513 10.6678C30.1224 10.2884 29.7856 9.8785 29.3811 9.97334Z" fill="#FF8CDB"/>
<path d="M124.298 60.6822L123.5 62.7998C123.449 62.935 123.335 63.0363 123.195 63.0712L120.998 63.6147C120.645 63.7019 120.545 64.1565 120.829 64.3832L122.597 65.7961C122.709 65.886 122.77 66.0261 122.76 66.17L122.598 68.4271C122.572 68.7902 122.973 69.0251 123.277 68.825L125.168 67.5806C125.288 67.5011 125.44 67.4863 125.574 67.5403L127.671 68.3917C128.008 68.5285 128.355 68.2195 128.259 67.869L127.66 65.687C127.622 65.5475 127.654 65.3987 127.747 65.2881L129.205 63.5574C129.439 63.2795 129.252 62.8532 128.889 62.8363L126.628 62.7322C126.484 62.7256 126.353 62.6483 126.276 62.5256L125.081 60.6042C124.889 60.2963 124.426 60.342 124.298 60.6822Z" fill="#FF8CDB"/>
<path d="M50.3353 8.86192L49.5374 10.9795C49.4867 11.1147 49.3722 11.2161 49.2321 11.251L47.0354 11.7944C46.6822 11.8816 46.5825 12.3362 46.867 12.563L48.6342 13.9758C48.747 14.0657 48.808 14.2058 48.7977 14.3503L48.6358 16.6074C48.6096 16.9705 49.0108 17.2054 49.315 17.0053L51.2047 15.7609C51.3252 15.6814 51.4773 15.6666 51.6114 15.7211L53.7077 16.5725C54.0446 16.7094 54.3923 16.4003 54.2959 16.0498L53.6968 13.8679C53.6587 13.7283 53.6914 13.5795 53.784 13.4689L55.2416 11.7383C55.4759 11.4603 55.2895 11.034 54.926 11.0171L52.6655 10.913C52.5211 10.9065 52.3892 10.8291 52.3129 10.7065L51.1175 8.78506C50.9262 8.47601 50.4634 8.52179 50.3353 8.86192Z" fill="#FF8CDB"/>
<path d="M12.0848 27.952L10.1574 27.5105C10.0342 27.4822 9.9334 27.3955 9.88652 27.2783L9.15777 25.4403C9.04058 25.1449 8.63557 25.1122 8.47205 25.3847L7.45659 27.0815C7.39173 27.19 7.27779 27.2592 7.15188 27.2674L5.17871 27.3928C4.86148 27.4129 4.70505 27.788 4.91381 28.0278L6.21327 29.518C6.29612 29.6129 6.32719 29.7431 6.29558 29.8652L5.80501 31.7806C5.72598 32.0886 6.03448 32.353 6.32718 32.2287L8.1461 31.453C8.2622 31.4034 8.39521 31.4143 8.50204 31.4819L10.1722 32.5405C10.4403 32.7105 10.7875 32.499 10.7592 32.1823L10.5837 30.213C10.5728 30.0871 10.624 29.9639 10.721 29.8838L12.244 28.6225C12.4887 28.4186 12.3944 28.0229 12.0848 27.952Z" fill="#FF8CDB"/>
<path d="M77.0833 2.75432L75.156 2.31281C75.0328 2.28447 74.9319 2.1978 74.8851 2.08006L74.1563 0.242072C74.0391 -0.0533589 73.6341 -0.086064 73.4706 0.186474L72.4551 1.88329C72.3902 1.99176 72.2763 2.06099 72.1504 2.06916L70.1772 2.19453C69.86 2.2147 69.7036 2.58971 69.9123 2.829L71.2118 4.31923C71.2947 4.41408 71.3257 4.54435 71.2941 4.66645L70.8035 6.58184C70.7245 6.88981 71.033 7.15417 71.3252 7.02989L73.1441 6.25425C73.2602 6.20465 73.3932 6.21555 73.5 6.28314L75.1701 7.34167C75.4383 7.51174 75.7855 7.30025 75.7572 6.98356L75.5817 5.0142C75.5702 4.88829 75.622 4.7651 75.719 4.68498L77.242 3.42367C77.4872 3.22091 77.3929 2.82518 77.0833 2.75432Z" fill="#FF8CDB"/>
</svg>
