<svg width="390" height="440" viewBox="0 0 390 440" fill="none" xmlns="http://www.w3.org/2000/svg">
<ellipse cx="195" cy="360" rx="429" ry="360" fill="white"/>
<path d="M-36.7099 445.641C-43.4025 440.008 -50.2057 433.885 -54.4214 426.1C-58.0557 419.389 -59.4144 411.015 -56.1536 404.117C-52.8928 397.218 -44.175 392.785 -37.1651 395.826C-32.9039 397.674 -30.2778 401.589 -28.079 405.489C-26.3569 408.542 -24.1067 416.445 -20.2726 417.217C-18.0793 417.658 -21.6134 405.841 -21.8794 405.203C-24.4806 398.965 -28.3394 392.886 -29.0284 386.033C-29.5861 380.486 -27.3395 374.185 -22.2193 371.954C-18.0591 370.143 -13.2222 371.428 -9.04593 373.203C0.0636139 377.075 8.18971 383.226 14.3806 390.937C5.6675 378.661 0.941383 363.613 1.07459 348.571C1.11042 344.544 1.51052 340.42 3.2436 336.783C4.97667 333.146 8.2522 330.046 12.2388 329.417C16.8239 328.694 21.4122 331.367 24.2582 335.027C27.1038 338.686 28.547 343.21 29.9365 347.63C31.5157 334.966 35.7558 322.64 42.3027 311.678C44.1993 308.502 46.3582 305.366 49.3995 303.256C52.4408 301.145 56.5463 300.228 59.9137 301.769C63.3817 303.356 65.3601 307.208 65.7537 310.994C66.1469 314.781 65.2232 318.567 64.3068 322.263C61.2256 334.685 58.1448 347.108 55.0635 359.531C57.5224 352.324 64.276 346.579 71.8812 345.976C79.4865 345.373 87.3659 350.399 89.3994 357.737C91.7034 366.05 86.7123 374.643 80.7896 380.925C74.8669 387.208 67.6604 392.608 63.8525 400.351C68.2341 397.33 72.793 394.423 77.8857 392.87C82.9783 391.317 88.7287 391.247 93.4231 393.756C99.1956 396.841 102.537 403.61 102.2 410.136C101.863 416.661 98.1667 422.771 92.9795 426.759C87.9819 430.601 81.5975 432.735 77.5692 437.579C86.015 439.699 93.5646 446.037 95.989 454.384C97.3004 458.898 97.0983 463.798 95.6735 468.279C91.9211 480.079 80.1167 487.974 67.9273 490.279C55.7379 492.583 43.1663 490.209 31.1579 487.098C4.23392 480.123 -21.4884 467.836 -38.4857 445.124" fill="#8DD44F"/>
<path opacity="0.6" d="M73.4715 455.54C65.4276 457.604 57.1816 458.404 48.8989 458.714C44.9573 458.861 41.0125 458.905 37.0687 458.934C33.0931 458.964 29.0179 459.189 25.413 457.494C25.8577 455.784 26.2794 454.067 26.6827 452.349C28.4539 444.803 30.1272 437.232 31.7781 429.657C46.995 427.554 61.4208 421.526 73.432 411.916C76.2115 409.692 73.3029 404.915 70.4982 407.16C59.6418 415.845 46.7616 421.672 33.038 423.864C33.2782 422.758 33.5184 421.651 33.7587 420.545C35.5845 412.131 37.3526 403.702 39.0232 395.256C39.3318 395.111 39.6318 394.896 39.9101 394.593C43.6978 390.471 49.5672 388.079 54.2699 385.129C59.2431 382.01 64.0969 378.709 68.8469 375.26C71.7471 373.154 68.8281 368.387 65.9131 370.503C60.8756 374.161 55.7195 377.651 50.4307 380.937C47.2893 382.89 43.8081 384.607 40.6713 386.719C42.5839 376.584 44.334 366.42 45.8273 356.213C46.3436 352.683 40.8876 351.419 40.3658 354.987C38.7283 366.181 36.7839 377.324 34.6517 388.432C33.3811 387.449 32.2489 386.227 31.146 385.151C29.5034 383.548 27.9109 381.894 26.4103 380.157C23.2533 376.503 20.6097 372.406 18.9566 367.86C17.7311 364.49 12.3707 366.098 13.6021 369.485C15.6021 374.985 18.7421 379.794 22.5569 384.209C25.6358 387.773 29.2076 391.955 33.5176 394.267C31.9315 402.278 30.2554 410.272 28.5278 418.254C28.2155 419.697 27.9008 421.139 27.5866 422.582C16.0307 413.98 5.62257 403.821 -3.25317 392.489C-5.45155 389.683 -10.2365 392.588 -8.02063 395.417C1.85876 408.03 13.3426 419.083 26.295 428.497C24.7916 435.354 23.267 442.206 21.7007 449.048C21.2023 451.226 20.6837 453.399 20.1288 455.56C3.46918 446.703 -11.8644 435.656 -25.5374 422.64C-28.1478 420.155 -31.9975 424.211 -29.3908 426.693C-15.076 440.319 1.09673 451.898 18.6089 461.069C16.7307 467.367 14.3614 473.489 10.9559 479.201C9.11305 482.292 14.0551 484.914 15.8933 481.83C19.4242 475.907 21.9148 469.516 23.8885 462.951C27.1526 464.288 30.7317 464.518 34.3076 464.534C38.9129 464.555 43.5274 464.485 48.13 464.332C57.2129 464.028 66.2787 463.148 75.0989 460.885C78.5958 459.986 76.956 454.646 73.4715 455.54Z" fill="#69C718"/>
<path d="M71.618 396.988C75.3565 396.343 79.3472 397.317 82.365 399.611C85.4734 401.974 87.4549 405.572 88.5514 409.315C89.3699 412.108 89.7388 415.003 89.9914 417.908C91.4052 413.817 92.9068 409.755 94.5682 405.756C94.8764 405.014 95.1924 404.275 95.5117 403.538C94.2774 402.454 93.7079 401.073 93.1718 399.327C91.4387 393.689 90.8678 387.522 92.7157 381.92C94.5632 376.318 99.1354 371.415 104.923 370.218C106.618 369.867 108.492 369.863 109.96 370.781C110.719 371.256 111.318 371.946 111.845 372.67C114.424 376.217 115.445 380.852 114.595 385.151C113.72 389.58 110.983 393.47 107.645 396.515C104.554 399.336 100.949 401.518 97.332 403.633C97.3375 403.761 97.3146 403.897 97.253 404.038C96.0261 406.861 94.8879 409.72 93.808 412.6C95.9104 410.396 98.0941 408.268 100.591 406.531C103.796 404.302 107.6 402.737 111.507 402.841C115.3 402.941 119.021 404.679 121.528 407.52C122.04 408.1 122.509 408.735 122.766 409.464C123.263 410.872 122.904 412.447 122.286 413.807C120.178 418.447 115.17 421.363 110.088 421.855C105.006 422.347 99.9057 420.697 95.4717 418.171C94.2651 417.483 93.3023 416.827 92.6234 415.833C91.5802 418.746 90.5876 421.677 89.6272 424.616C88.0489 429.449 86.5464 434.306 85.0062 439.151C87.178 436.863 89.4282 434.644 92.0138 432.846C95.2195 430.616 99.0238 429.051 102.93 429.155C106.723 429.255 110.444 430.993 112.951 433.835C113.463 434.415 113.932 435.05 114.19 435.778C114.687 437.187 114.328 438.761 113.71 440.122C111.602 444.762 106.594 447.678 101.512 448.17C96.4294 448.661 91.3294 447.012 86.8959 444.486C85.6893 443.798 84.726 443.141 84.0476 442.148C83.6806 443.285 83.3117 444.422 82.9365 445.556C81.0242 451.339 78.9793 457.083 76.6109 462.696C78.4671 460.795 80.4073 458.981 82.5855 457.466C85.7912 455.236 89.5954 453.671 93.5016 453.775C97.2944 453.875 101.015 455.613 103.523 458.454C104.034 459.034 104.504 459.669 104.76 460.398C105.257 461.807 104.899 463.381 104.281 464.742C102.173 469.382 97.1644 472.298 92.0823 472.789C87.0002 473.281 81.9002 471.632 77.4662 469.106C76.3321 468.459 75.413 467.841 74.7428 466.945C72.0525 472.803 68.9602 478.486 65.3177 483.811C61.4303 489.495 56.8834 494.733 51.6194 499.191C50.9543 499.754 50.2767 500.304 49.59 500.84C48.6778 501.554 47.648 500.081 48.5575 499.369C53.9317 495.168 58.5793 490.119 62.5695 484.602C65.3095 480.814 67.7347 476.811 69.917 472.68C69.0774 472.768 68.2037 472.677 67.223 472.521C62.1814 471.716 57.1718 469.81 53.521 466.249C49.8702 462.687 47.7996 457.282 49.0724 452.347C49.4454 450.901 50.155 449.45 51.4274 448.664C52.0856 448.257 52.8504 448.055 53.6129 447.924C57.3515 447.278 61.3421 448.252 64.36 450.546C67.4688 452.909 69.4499 456.508 70.5468 460.251C71.3442 462.972 71.7144 465.789 71.9666 468.619C72.2633 468.005 72.5559 467.389 72.8435 466.771C75.6964 460.63 78.084 454.29 80.2663 447.885C79.1378 448.209 77.9949 448.117 76.6523 447.902C71.6106 447.097 66.6011 445.192 62.9503 441.63C59.2995 438.068 57.2288 432.663 58.5016 427.73C58.8746 426.283 59.5843 424.832 60.8567 424.046C61.5144 423.639 62.2796 423.438 63.0421 423.306C66.7807 422.66 70.7714 423.634 73.7892 425.928C76.898 428.292 78.8792 431.89 79.9761 435.633C80.812 438.486 81.179 441.444 81.4317 444.412C83.4201 438.38 85.2749 432.304 87.2188 426.257C87.7186 424.703 88.2257 423.151 88.7411 421.601C87.6451 421.891 86.5308 421.798 85.2285 421.589C80.1869 420.785 75.1774 418.879 71.5266 415.317C67.8758 411.755 65.8051 406.35 67.0779 401.417C67.4509 399.971 68.1606 398.519 69.4329 397.733C70.0902 397.322 70.855 397.12 71.618 396.988Z" fill="#FFB425"/>
<path d="M423.211 400.509C407.024 384.199 384.105 412.791 372.635 433.042C377.525 410.712 378.633 381 357.999 381C337.364 381 338.474 410.712 343.363 433.042C331.897 412.791 308.972 384.199 292.79 400.509C271.254 422.205 328.638 455.939 340.394 458.476C344.504 459.367 347.47 458.55 348.934 457.079C349.504 456.499 349.969 455.696 350.279 454.684C350.521 455.149 350.756 455.568 350.977 455.912C353.261 459.461 355.929 461 357.999 461C360.071 461 362.738 459.461 365.022 455.912C365.243 455.568 365.478 455.149 365.72 454.684C366.03 455.696 366.495 456.499 367.064 457.079C368.529 458.55 371.495 459.367 375.604 458.476C387.36 455.939 444.744 422.205 423.211 400.509Z" fill="#56B9AA"/>
<path d="M281.455 404.727C278.006 402.443 277.055 397.795 279.331 394.341C281.611 390.888 286.253 389.936 289.702 392.215C293.151 394.494 294.101 399.142 291.826 402.6C289.55 406.054 284.904 407.005 281.455 404.727ZM321 405.445C320.753 405.497 321.494 401.601 317.765 398.133C312.905 393.561 302.957 392.724 296.306 394.746C301.783 390.94 306.999 384.071 306.852 377.724C306.672 372.977 303.731 371.098 303.674 370.817C303.579 370.964 302.548 370.137 300.177 370.013C290.291 369.49 284.058 385.041 284.562 387.696C282.348 380.308 275.302 372.073 268.737 375.869L268.623 375.917C263.919 380.598 266.993 387.681 271.706 392.415C262.447 393.4 252.366 398.98 254.223 408.195C259.52 417.376 273.359 413.356 281.217 405.764C278.884 412.015 279.293 422.038 284.775 425.658C286.832 427.019 288.6 426.886 288.776 427C288.871 426.848 291.683 426.596 293.683 423.561C296.595 419.141 295.802 412.105 293.474 406.92C300.116 412.343 313.817 415.545 319.442 408.366C320.658 406.815 320.895 405.607 321 405.445Z" fill="#F2E43B"/>
<path d="M289.632 392.24C286.176 389.96 281.525 390.912 279.24 394.368C276.96 397.824 277.912 402.475 281.368 404.76C284.824 407.04 289.479 406.088 291.76 402.632C294.04 399.171 293.088 394.521 289.632 392.24Z" fill="#F681C6"/>
<path d="M353.128 388.025C350.348 386.182 349.582 382.431 351.416 379.644C353.254 376.857 356.995 376.089 359.775 377.928C362.555 379.767 363.32 383.518 361.486 386.309C359.652 389.096 355.907 389.864 353.128 388.025ZM385 388.605C384.801 388.647 385.398 385.503 382.392 382.704C378.475 379.014 370.458 378.339 365.097 379.97C369.512 376.899 373.716 371.355 373.597 366.234C373.452 362.402 371.082 360.886 371.036 360.659C370.959 360.778 370.128 360.11 368.218 360.01C360.249 359.588 355.226 372.138 355.632 374.281C353.847 368.318 348.169 361.673 342.877 364.736L342.785 364.775C338.995 368.553 341.472 374.269 345.271 378.089C337.808 378.884 329.683 383.387 331.18 390.824C335.449 398.233 346.603 394.989 352.936 388.862C351.056 393.907 351.385 401.996 355.804 404.917C357.462 406.015 358.886 405.908 359.028 406C359.105 405.877 361.371 405.674 362.983 403.224C365.331 399.658 364.691 393.98 362.815 389.795C368.168 394.171 379.211 396.755 383.744 390.962C384.724 389.71 384.916 388.735 385 388.605Z" fill="#F2E43B"/>
<path d="M359.305 377.992C356.541 376.168 352.82 376.93 350.992 379.695C349.168 382.459 349.93 386.18 352.695 388.008C355.459 389.832 359.184 389.07 361.008 386.305C362.832 383.537 362.07 379.816 359.305 377.992Z" fill="#F681C6"/>
</svg>
