<svg width="390" height="139" viewBox="0 0 390 139" fill="none" xmlns="http://www.w3.org/2000/svg">
<path d="M-36.7099 144.641C-43.4025 139.008 -50.2057 132.885 -54.4214 125.1C-58.0557 118.389 -59.4144 110.015 -56.1536 103.117C-52.8928 96.2178 -44.175 91.7845 -37.1651 94.8257C-32.9039 96.6743 -30.2778 100.589 -28.079 104.489C-26.3569 107.542 -24.1067 115.445 -20.2726 116.217C-18.0793 116.658 -21.6134 104.841 -21.8794 104.203C-24.4806 97.9655 -28.3394 91.8858 -29.0284 85.0329C-29.5861 79.4859 -27.3395 73.1848 -22.2193 70.9545C-18.0591 69.1426 -13.2222 70.4283 -9.04593 72.2035C0.0636139 76.0752 8.18971 82.2264 14.3806 89.9369C5.6675 77.6611 0.941383 62.6133 1.07459 47.5709C1.11042 43.5438 1.51052 39.4204 3.2436 35.7833C4.97667 32.1462 8.2522 29.0459 12.2388 28.417C16.8239 27.6937 21.4122 30.3673 24.2582 34.0269C27.1038 37.6864 28.547 42.2099 29.9365 46.6299C31.5157 33.9664 35.7558 21.6398 42.3027 10.6777C44.1993 7.50219 46.3582 4.36609 49.3995 2.25581C52.4408 0.145076 56.5463 -0.771619 59.9137 0.768921C63.3817 2.35575 65.3601 6.20777 65.7537 9.99426C66.1469 13.7808 65.2232 17.5668 64.3068 21.2625C61.2256 33.6854 58.1448 46.1083 55.0635 58.5311C57.5224 51.3239 64.276 45.5789 71.8812 44.9761C79.4865 44.3734 87.3659 49.3988 89.3994 56.7367C91.7034 65.0499 86.7123 73.6432 80.7896 79.9254C74.8669 86.2077 67.6604 91.6076 63.8525 99.3506C68.2341 96.3305 72.793 93.4232 77.8857 91.8698C82.9783 90.3169 88.7287 90.2472 93.4231 92.7558C99.1956 95.8405 102.537 102.61 102.2 109.136C101.863 115.661 98.1667 121.771 92.9795 125.759C87.9819 129.601 81.5975 131.735 77.5692 136.579C86.015 138.699 93.5646 145.037 95.989 153.384C97.3004 157.898 97.0983 162.798 95.6735 167.279C91.9211 179.079 80.1167 186.974 67.9273 189.279C55.7379 191.583 43.1663 189.209 31.1579 186.098C4.23392 179.123 -21.4884 166.836 -38.4857 144.124" fill="#8DD44F"/>
<path opacity="0.6" d="M73.4715 154.54C65.4276 156.604 57.1816 157.404 48.8989 157.714C44.9573 157.861 41.0125 157.905 37.0687 157.934C33.0931 157.964 29.0179 158.189 25.413 156.494C25.8577 154.784 26.2794 153.067 26.6827 151.349C28.4539 143.803 30.1272 136.232 31.7781 128.657C46.995 126.554 61.4208 120.526 73.432 110.916C76.2115 108.692 73.3029 103.915 70.4982 106.16C59.6418 114.845 46.7616 120.672 33.038 122.864C33.2782 121.758 33.5184 120.651 33.7587 119.545C35.5845 111.131 37.3526 102.702 39.0232 94.2556C39.3318 94.1107 39.6318 93.8962 39.9101 93.5933C43.6978 89.4712 49.5672 87.0791 54.2699 84.1291C59.2431 81.0095 64.0969 77.7089 68.8469 74.2602C71.7471 72.1545 68.8281 67.3866 65.9131 69.5033C60.8756 73.161 55.7195 76.651 50.4307 79.9374C47.2893 81.8895 43.8081 83.6065 40.6713 85.7187C42.5839 75.5844 44.334 65.4203 45.8273 55.2127C46.3436 51.6828 40.8876 50.4187 40.3658 53.9875C38.7283 65.1815 36.7839 76.3242 34.6517 87.4316C33.3811 86.4493 32.2489 85.2273 31.146 84.1511C29.5034 82.5482 27.9109 80.8935 26.4103 79.1568C23.2533 75.5032 20.6097 71.4064 18.9566 66.86C17.7311 63.4897 12.3707 65.0976 13.6021 68.4849C15.6021 73.9847 18.7421 78.7938 22.5569 83.2092C25.6358 86.7729 29.2076 90.9554 33.5176 93.2669C31.9315 101.278 30.2554 109.272 28.5278 117.254C28.2155 118.697 27.9008 120.139 27.5866 121.582C16.0307 112.98 5.62257 102.821 -3.25317 91.4894C-5.45155 88.6828 -10.2365 91.5879 -8.02063 94.4169C1.85876 107.03 13.3426 118.083 26.295 127.497C24.7916 134.354 23.267 141.206 21.7007 148.048C21.2023 150.226 20.6837 152.399 20.1288 154.56C3.46918 145.703 -11.8644 134.656 -25.5374 121.64C-28.1478 119.155 -31.9975 123.211 -29.3908 125.693C-15.076 139.319 1.09673 150.898 18.6089 160.069C16.7307 166.367 14.3614 172.489 10.9559 178.201C9.11305 181.292 14.0551 183.914 15.8933 180.83C19.4242 174.907 21.9148 168.516 23.8885 161.951C27.1526 163.288 30.7317 163.518 34.3076 163.534C38.9129 163.555 43.5274 163.485 48.13 163.332C57.2129 163.028 66.2787 162.148 75.0989 159.885C78.5958 158.986 76.956 153.646 73.4715 154.54Z" fill="#69C718"/>
<path d="M71.618 95.9884C75.3565 95.3426 79.3472 96.3167 82.365 98.6107C85.4734 100.974 87.4549 104.572 88.5514 108.315C89.3699 111.108 89.7388 114.003 89.9914 116.908C91.4052 112.817 92.9068 108.755 94.5682 104.756C94.8764 104.014 95.1924 103.275 95.5117 102.538C94.2774 101.454 93.7079 100.073 93.1718 98.3275C91.4387 92.6887 90.8678 86.5224 92.7157 80.9204C94.5632 75.3183 99.1354 70.4148 104.923 69.2181C106.618 68.8674 108.492 68.8633 109.96 69.781C110.719 70.2558 111.318 70.9461 111.845 71.6698C114.424 75.2171 115.445 79.852 114.595 84.1514C113.72 88.58 110.983 92.4696 107.645 95.5154C104.554 98.3357 100.949 100.518 97.332 102.633C97.3375 102.761 97.3146 102.897 97.253 103.038C96.0261 105.861 94.8879 108.72 93.808 111.6C95.9104 109.396 98.0941 107.268 100.591 105.531C103.796 103.302 107.6 101.737 111.507 101.841C115.3 101.941 119.021 103.679 121.528 106.52C122.04 107.1 122.509 107.735 122.766 108.464C123.263 109.872 122.904 111.447 122.286 112.807C120.178 117.447 115.17 120.363 110.088 120.855C105.006 121.347 99.9057 119.697 95.4717 117.171C94.2651 116.483 93.3023 115.827 92.6234 114.833C91.5802 117.746 90.5876 120.677 89.6272 123.616C88.0489 128.449 86.5464 133.306 85.0062 138.151C87.178 135.863 89.4282 133.644 92.0138 131.846C95.2195 129.616 99.0238 128.051 102.93 128.155C106.723 128.255 110.444 129.993 112.951 132.835C113.463 133.415 113.932 134.05 114.19 134.778C114.687 136.187 114.328 137.761 113.71 139.122C111.602 143.762 106.594 146.678 101.512 147.17C96.4294 147.661 91.3294 146.012 86.8959 143.486C85.6893 142.798 84.726 142.141 84.0476 141.148C83.6806 142.285 83.3117 143.422 82.9365 144.556C81.0242 150.339 78.9793 156.083 76.6109 161.696C78.4671 159.795 80.4073 157.981 82.5855 156.466C85.7912 154.236 89.5954 152.671 93.5016 152.775C97.2944 152.875 101.015 154.613 103.523 157.454C104.034 158.034 104.504 158.669 104.76 159.398C105.257 160.807 104.899 162.381 104.281 163.742C102.173 168.382 97.1644 171.298 92.0823 171.789C87.0002 172.281 81.9002 170.632 77.4662 168.106C76.3321 167.459 75.413 166.841 74.7428 165.945C72.0525 171.803 68.9602 177.486 65.3177 182.811C61.4303 188.495 56.8834 193.733 51.6194 198.191C50.9543 198.754 50.2767 199.304 49.59 199.84C48.6778 200.554 47.648 199.081 48.5575 198.369C53.9317 194.168 58.5793 189.119 62.5695 183.602C65.3095 179.814 67.7347 175.811 69.917 171.68C69.0774 171.768 68.2037 171.677 67.223 171.521C62.1814 170.716 57.1718 168.81 53.521 165.249C49.8702 161.687 47.7996 156.282 49.0724 151.347C49.4454 149.901 50.155 148.45 51.4274 147.664C52.0856 147.257 52.8504 147.055 53.6129 146.924C57.3515 146.278 61.3421 147.252 64.36 149.546C67.4688 151.909 69.4499 155.508 70.5468 159.251C71.3442 161.972 71.7144 164.789 71.9666 167.619C72.2633 167.005 72.5559 166.389 72.8435 165.771C75.6964 159.63 78.084 153.29 80.2663 146.885C79.1378 147.209 77.9949 147.117 76.6523 146.902C71.6106 146.097 66.6011 144.192 62.9503 140.63C59.2995 137.068 57.2288 131.663 58.5016 126.73C58.8746 125.283 59.5843 123.832 60.8567 123.046C61.5144 122.639 62.2796 122.438 63.0421 122.306C66.7807 121.66 70.7714 122.634 73.7892 124.928C76.898 127.292 78.8792 130.89 79.9761 134.633C80.812 137.486 81.179 140.444 81.4317 143.412C83.4201 137.38 85.2749 131.304 87.2188 125.257C87.7186 123.703 88.2257 122.151 88.7411 120.601C87.6451 120.891 86.5308 120.798 85.2285 120.589C80.1869 119.785 75.1774 117.879 71.5266 114.317C67.8758 110.755 65.8051 105.35 67.0779 100.417C67.4509 98.9705 68.1606 97.5194 69.4329 96.7328C70.0902 96.3217 70.855 96.1204 71.618 95.9884Z" fill="#FFB425"/>
<path d="M423.211 99.5091C407.024 83.1987 384.105 111.791 372.635 132.042C377.525 109.712 378.633 80 357.999 80C337.364 80 338.474 109.712 343.363 132.042C331.897 111.791 308.972 83.1987 292.79 99.5091C271.254 121.205 328.638 154.939 340.394 157.476C344.504 158.367 347.47 157.55 348.934 156.079C349.504 155.499 349.969 154.696 350.279 153.684C350.521 154.149 350.756 154.568 350.977 154.912C353.261 158.461 355.929 160 357.999 160C360.071 160 362.738 158.461 365.022 154.912C365.243 154.568 365.478 154.149 365.72 153.684C366.03 154.696 366.495 155.499 367.064 156.079C368.529 157.55 371.495 158.367 375.604 157.476C387.36 154.939 444.744 121.205 423.211 99.5091Z" fill="#56B9AA"/>
<path d="M281.455 103.727C278.006 101.443 277.055 96.7952 279.331 93.3415C281.611 89.8877 286.253 88.9363 289.702 91.215C293.151 93.4937 294.101 98.1415 291.826 101.6C289.55 105.054 284.904 106.005 281.455 103.727ZM321 104.445C320.753 104.497 321.494 100.601 317.765 97.133C312.905 92.5613 302.957 91.724 296.306 93.7458C301.783 89.94 306.999 83.0706 306.852 76.7244C306.672 71.9767 303.731 70.0976 303.674 69.8169C303.579 69.9644 302.548 69.1366 300.177 69.0129C290.291 68.4896 284.058 84.0411 284.562 86.6956C282.348 79.3076 275.302 71.0728 268.737 74.8691L268.623 74.9167C263.919 79.5978 266.993 86.6813 271.706 91.4148C262.447 92.3995 252.366 97.9798 254.223 107.195C259.52 116.376 273.359 112.356 281.217 104.764C278.884 111.015 279.293 121.038 284.775 124.658C286.832 126.019 288.6 125.886 288.776 126C288.871 125.848 291.683 125.596 293.683 122.561C296.595 118.141 295.802 111.105 293.474 105.92C300.116 111.343 313.817 114.545 319.442 107.366C320.658 105.815 320.895 104.607 321 104.445Z" fill="#F2E43B"/>
<path d="M289.632 91.2404C286.176 88.9603 281.525 89.9123 279.24 93.3682C276.96 96.8241 277.912 101.475 281.368 103.76C284.824 106.04 289.479 105.088 291.76 101.632C294.04 98.1712 293.088 93.5205 289.632 91.2404Z" fill="#F681C6"/>
<path d="M353.128 87.0249C350.348 85.1821 349.582 81.4313 351.416 78.644C353.254 75.8568 356.995 75.0889 359.775 76.9279C362.555 78.7669 363.32 82.5177 361.486 85.3088C359.652 88.0961 355.907 88.8639 353.128 87.0249ZM385 87.6047C384.801 87.6469 385.398 84.5026 382.392 81.7038C378.475 78.0144 370.458 77.3387 365.097 78.9703C369.512 75.899 373.716 70.3552 373.597 65.2337C373.452 61.4022 371.082 59.8858 371.036 59.6592C370.959 59.7783 370.128 59.1102 368.218 59.0104C360.249 58.5881 355.226 71.1384 355.632 73.2807C353.847 67.3184 348.169 60.6728 342.877 63.7365L342.785 63.7748C338.995 67.5526 341.472 73.2691 345.271 77.0891C337.808 77.8838 329.683 82.3872 331.18 89.8237C335.449 97.2333 346.603 93.9892 352.936 87.8619C351.056 92.9066 351.385 100.996 355.804 103.917C357.462 105.015 358.886 104.908 359.028 105C359.105 104.877 361.371 104.674 362.983 102.224C365.331 98.6577 364.691 92.9795 362.815 88.7948C368.168 93.1715 379.211 95.7552 383.744 89.9619C384.724 88.7103 384.916 87.7352 385 87.6047Z" fill="#F2E43B"/>
<path d="M359.305 76.9923C356.541 75.1682 352.82 75.9299 350.992 78.6946C349.168 81.4592 349.93 85.1798 352.695 87.0077C355.459 88.8318 359.184 88.0701 361.008 85.3054C362.832 82.5369 362.07 78.8164 359.305 76.9923Z" fill="#F681C6"/>
</svg>
