<svg width="37" height="37" viewBox="0 0 37 37" fill="none" xmlns="http://www.w3.org/2000/svg">
<path d="M33.5105 12.9464C33.5104 12.9359 33.5103 12.9255 33.5102 12.9152C33.5099 12.8944 33.5096 12.8737 33.5091 12.8529C33.5077 12.7804 33.5054 12.7083 33.5023 12.6367C33.5013 12.6163 33.5004 12.5958 33.4993 12.5755C33.4962 12.5143 33.4924 12.4536 33.488 12.3933C33.4843 12.3431 33.4801 12.2932 33.4755 12.2437C33.4737 12.2239 33.4717 12.2041 33.4697 12.1844C33.4637 12.1253 33.4571 12.0668 33.4497 12.0089C33.4485 11.9993 33.4472 11.9896 33.446 11.98C33.4422 11.9512 33.4382 11.9225 33.4341 11.894C33.4327 11.8845 33.4313 11.875 33.4299 11.8655C33.4271 11.8466 33.4242 11.8277 33.4212 11.8089C33.4197 11.7995 33.4182 11.7902 33.4166 11.7808C33.412 11.7528 33.4072 11.7249 33.4023 11.6973C33.3974 11.6696 33.3922 11.6421 33.3869 11.6148C33.3816 11.5875 33.3761 11.5605 33.3704 11.5336C33.3666 11.5157 33.3628 11.4979 33.3588 11.4801C33.3549 11.4624 33.3509 11.4448 33.3468 11.4272C33.3427 11.4097 33.3385 11.3923 33.3342 11.375C33.3278 11.349 33.3213 11.3232 33.3145 11.2977C33.3122 11.2892 33.3099 11.2807 33.3076 11.2722C33.303 11.2553 33.2984 11.2385 33.2936 11.2218C33.2864 11.1968 33.2791 11.172 33.2716 11.1474C33.244 11.0574 33.2139 10.9709 33.1811 10.8883L33.1722 10.8658C33.1631 10.8435 33.1538 10.8214 33.1444 10.7997C33.1381 10.7852 33.1317 10.7708 33.1252 10.7566C33.1187 10.7424 33.1122 10.7283 33.1055 10.7144L33.0955 10.6935C33.0854 10.6728 33.0751 10.6524 33.0645 10.6324L33.054 10.6124C32.9545 10.4273 32.8375 10.2709 32.7015 10.151L32.6913 10.1423L32.6891 10.1405L32.6808 10.1337L32.6772 10.1309L32.6698 10.1252L32.6656 10.1221L32.6581 10.1166L32.6539 10.1136L32.6457 10.1079L32.6416 10.1051L32.6324 10.099L32.6289 10.0966C32.6201 10.0909 32.6111 10.0853 32.6017 10.0796L32.5997 10.0785L32.5874 10.0713L32.5832 10.0689L32.5727 10.0629L32.5676 10.0602L32.5575 10.0547L32.5519 10.0517L32.5412 10.0461L32.5363 10.0435L32.5244 10.0375L32.5197 10.0352L32.5073 10.0291L32.5027 10.0269C32.4912 10.0214 32.4794 10.0159 32.4672 10.0104L32.4642 10.0091L32.4486 10.0021L32.4443 10.0003L32.4306 9.99436L32.4232 9.99126L32.4115 9.98637L32.404 9.98329L32.3909 9.97797L32.3842 9.97532L32.3699 9.96969L32.3639 9.96735L32.3442 9.95981L32.3433 9.95949L32.3219 9.9515L32.3162 9.94943L32.2999 9.94353L32.2928 9.941L32.278 9.93578L32.2694 9.93278L32.2553 9.9279L32.2462 9.92485L32.2325 9.92023L32.2223 9.91682L32.2094 9.91261L32.1989 9.90918L32.1837 9.90431L32.1749 9.90152C32.1669 9.89897 32.1588 9.89643 32.1506 9.89391L32.1495 9.89355C32.1416 9.89109 32.1336 9.88868 32.1255 9.88624L32.1178 9.8839L32.1004 9.87872L32.091 9.87597L32.0738 9.87093L32.0644 9.86823L32.0487 9.86372L32.0361 9.86017L32.0221 9.85624L32.01 9.8529L31.9929 9.84823L31.9826 9.84544L31.9619 9.8399L31.9551 9.83806C31.9458 9.83559 31.9363 9.83312 31.9269 9.83065L31.9182 9.82844L31.8993 9.82355L31.8851 9.81994L31.8706 9.8163L31.8557 9.81259L31.8405 9.80884L31.8267 9.80545L31.8113 9.80171L31.796 9.79804L31.7823 9.79479L31.7649 9.79066L31.7541 9.78814L31.7348 9.78365C31.7248 9.78136 31.7148 9.77905 31.7047 9.77674L31.6992 9.77551C31.6909 9.77362 31.6824 9.77171 31.6739 9.76982L31.6554 9.7657L31.6434 9.76305L31.6227 9.75855L31.6112 9.75604L31.5923 9.75198L31.5777 9.74886L31.558 9.7447L31.5475 9.7425L31.5246 9.73774L31.5154 9.73585L31.4922 9.73105L31.484 9.72939C31.4563 9.72378 31.4283 9.71821 31.3999 9.71266L31.3927 9.71125C31.3832 9.70939 31.3736 9.70754 31.364 9.7057L31.3598 9.7049C31.3512 9.70325 31.3426 9.7016 31.3339 9.69996L31.3224 9.69778C31.3143 9.69625 31.3061 9.69472 31.298 9.6932L31.2884 9.69142C31.2799 9.68985 31.2714 9.68828 31.2629 9.68669L31.2525 9.6848C31.2439 9.68319 31.2352 9.68161 31.2264 9.68002L31.2214 9.67912C31.1661 9.66909 31.1095 9.65919 31.0517 9.64939L31.0463 9.64847C31.0358 9.64668 31.0253 9.64491 31.0147 9.64313L31.0091 9.64219C30.9989 9.64051 30.9887 9.6388 30.9785 9.63713L30.9699 9.63572C30.916 9.62683 30.861 9.61805 30.805 9.60932C30.7863 9.60644 30.7676 9.60353 30.7487 9.60065L30.7479 9.60052C30.7314 9.598 30.7147 9.59547 30.698 9.59297L30.6913 9.59198C30.6747 9.58947 30.6579 9.58698 30.6411 9.58451L30.6359 9.58373C30.6199 9.58137 30.6038 9.57903 30.5877 9.57667L30.583 9.57598C30.5663 9.57357 30.5494 9.57115 30.5326 9.56873L30.5247 9.56762C30.5075 9.56518 30.4904 9.56276 30.4731 9.56035L30.4701 9.55992C30.4335 9.55479 30.3965 9.54969 30.3592 9.54462L30.3554 9.54414C30.2986 9.53644 30.2409 9.52881 30.1824 9.52124L30.1798 9.5209C28.8214 9.34565 27.0206 9.21022 24.9891 9.11583C27.2975 7.88765 29.3275 6.13994 28.0839 4.31091C28.0839 4.31091 26.3791 1.37707 22.8522 2.46596C19.7337 3.42877 18.4943 6.76923 18.0104 8.95546C17.8651 8.95506 17.7199 8.95484 17.5747 8.95479C17.0906 6.76856 15.8511 3.42868 12.733 2.46596C9.2061 1.37706 7.50124 4.31091 7.50124 4.31091C6.26378 6.13101 8.26795 7.87057 10.5623 9.09781C6.56553 9.27659 3.46658 9.62461 2.87984 10.1511C1.7519 11.1631 1.93268 14.7009 2.66074 16.3635L2.66179 16.3659C2.6694 16.3832 2.67705 16.4003 2.68476 16.4172L2.68636 16.4207L2.6957 16.441L2.6984 16.4468L2.70955 16.4704L2.7096 16.4705C2.71382 16.4794 2.71803 16.4881 2.7223 16.4969L2.72382 16.5C2.73245 16.5177 2.74115 16.5351 2.74994 16.5523L2.75171 16.5557L2.76318 16.5779L2.76525 16.5818L2.77804 16.6059L2.78016 16.6098L2.79085 16.6295L2.79421 16.6356C2.80272 16.651 2.81127 16.6661 2.81991 16.681L2.82337 16.6869L2.83392 16.7048L2.83657 16.7093L2.84978 16.7311L2.85207 16.7348L2.86293 16.7523L2.86672 16.7583L2.87984 16.7788L2.88462 16.7858L2.88559 16.7871L2.89084 16.7939L2.89167 16.7949L2.89696 16.801L2.89796 16.8022L2.90416 16.8087L2.90566 16.8103L2.91212 16.8165L2.91265 16.817L2.91998 16.8236L2.9218 16.8252L2.92954 16.8316L2.93086 16.8327L2.93838 16.8385L2.94017 16.8399L2.94887 16.8462L2.9511 16.8478L2.96013 16.854L2.96061 16.8543L2.97076 16.8609L2.97312 16.8624L2.98368 16.8688L2.98459 16.8694L2.99523 16.8755L2.99742 16.8768L3.00909 16.8832L3.01096 16.8842L3.02263 16.8904L3.02378 16.891L3.0369 16.8976L3.03901 16.8986L3.05257 16.9051L3.05356 16.9056L3.06704 16.9118L3.06923 16.9128L3.0838 16.9193L3.08579 16.9201L3.10034 16.9263L3.10142 16.9268L3.11716 16.9332L3.11984 16.9343C3.13036 16.9385 3.14119 16.9427 3.15234 16.9469L3.15665 16.9485L3.17259 16.9544L3.17608 16.9556L3.19082 16.9609L3.19423 16.9621L3.21234 16.9683L3.21446 16.969C3.2273 16.9734 3.24045 16.9777 3.25394 16.982L3.25632 16.9828L3.2763 16.989L3.27831 16.9897L3.29907 16.996L3.29934 16.9961L3.32185 17.0027L3.32263 17.003C3.33718 17.0072 3.35207 17.0114 3.36727 17.0156L3.37174 17.0169C3.38644 17.0209 3.40144 17.025 3.41672 17.029L3.42095 17.0301L3.44378 17.036L3.4467 17.0367L3.46965 17.0425L3.47136 17.043C3.4795 17.045 3.48775 17.047 3.49604 17.049L3.49937 17.0498C3.51632 17.0539 3.5336 17.0581 3.55117 17.0621C3.26155 18.6008 1.95648 26.0065 3.0154 29.266L3.0166 29.2696C3.02049 29.2815 3.0244 29.2935 3.02835 29.3053L3.02955 29.3088C3.05975 29.3989 3.09179 29.4858 3.12577 29.5692L3.12932 29.5777C3.13803 29.599 3.14685 29.62 3.15583 29.6408L3.15679 29.6431L3.16541 29.6628L3.16579 29.6637L3.17375 29.6816L3.17536 29.6852L3.18299 29.7021L3.18466 29.7058L3.19195 29.7217L3.19433 29.7268L3.2009 29.7409L3.20413 29.7477L3.21074 29.7616L3.21357 29.7676L3.22033 29.7815L3.22335 29.7877L3.23052 29.8023L3.23301 29.8073L3.24016 29.8216L3.24301 29.8273L3.25003 29.841L3.25308 29.847L3.26003 29.8603L3.26327 29.8665L3.27025 29.8797L3.27332 29.8855L3.2805 29.8989L3.28367 29.9047L3.29067 29.9175L3.29425 29.924L3.30074 29.9356L3.30511 29.9434L3.31142 29.9545L3.31534 29.9613L3.32201 29.9729L3.32631 29.9802L3.33261 29.9909L3.33705 29.9984L3.34344 30.0091L3.34791 30.0164L3.35444 30.0271L3.35904 30.0346L3.36506 30.0443L3.37025 30.0525L3.37639 30.0622L3.3812 30.0697L3.38762 30.0796L3.39258 30.0872L3.39872 30.0965L3.40415 30.1047L3.41009 30.1135L3.41559 30.1217L3.42179 30.1307L3.42638 30.1374L3.43361 30.1477L3.43807 30.154L3.44495 30.1637L3.45026 30.1711L3.45687 30.1802L3.46194 30.1871L3.46869 30.1963L3.4737 30.2029L3.48078 30.2124L3.48507 30.218L3.49301 30.2283L3.49677 30.2331L3.50507 30.2437L3.51019 30.2501L3.51696 30.2586L3.5234 30.2665L3.52949 30.274L3.5347 30.2803L3.54213 30.2892L3.54556 30.2932L3.55487 30.3042L3.55633 30.3058L3.56723 30.3184L3.57138 30.3231L3.59278 30.3469L3.59699 30.3515L3.60575 30.3609C3.6175 30.3735 3.62936 30.386 3.64125 30.3985L3.65131 30.4091C3.66027 30.4184 3.66927 30.4278 3.67831 30.4371L3.6887 30.4479C3.7 30.4595 3.71135 30.4711 3.72278 30.4826L3.72523 30.4851C3.73734 30.4974 3.74956 30.5096 3.76182 30.5218L3.77299 30.5328C3.78211 30.5419 3.79129 30.5509 3.80049 30.5599L3.81113 30.5703C3.82286 30.5817 3.83464 30.5931 3.8465 30.6045L3.84915 30.6071C3.86205 30.6194 3.87503 30.6317 3.88807 30.6441L3.89726 30.6527C3.90733 30.6621 3.91743 30.6716 3.92758 30.681L3.93873 30.6913C3.95042 30.7021 3.96217 30.7129 3.97396 30.7236L3.9779 30.7273C3.99135 30.7395 4.00485 30.7516 4.01845 30.7638L4.02684 30.7713C4.03781 30.7811 4.04882 30.7908 4.05986 30.8006L4.07037 30.8098C4.08189 30.82 4.09346 30.83 4.10506 30.8401L4.11165 30.8458C4.12535 30.8577 4.13911 30.8694 4.15294 30.8812L4.16269 30.8895C4.17334 30.8985 4.18404 30.9075 4.19478 30.9166L4.20763 30.9273C4.21925 30.937 4.2309 30.9467 4.24262 30.9563L4.24938 30.9619C4.26372 30.9737 4.27814 30.9855 4.29261 30.9972L4.3009 31.0039C4.31257 31.0134 4.32428 31.0228 4.33605 31.0322L4.34811 31.0418C4.35973 31.051 4.37138 31.0602 4.38308 31.0694L4.39226 31.0767C4.40678 31.0881 4.42135 31.0994 4.43602 31.1107L4.44516 31.1178C4.457 31.1269 4.46889 31.136 4.48083 31.1451L4.49385 31.155C4.50555 31.1639 4.51732 31.1727 4.52911 31.1816L4.53898 31.189C4.5541 31.2003 4.56931 31.2116 4.58456 31.2229L4.59176 31.2282C4.60443 31.2375 4.61712 31.2468 4.62987 31.2561L4.64375 31.2661C4.65586 31.2749 4.66799 31.2837 4.68018 31.2924L4.68979 31.2993C4.70561 31.3106 4.7215 31.3219 4.73747 31.3331L4.74133 31.3358C4.75555 31.3459 4.76983 31.3558 4.78415 31.3658L4.79656 31.3744C4.80965 31.3835 4.82278 31.3925 4.83595 31.4015L4.84471 31.4076C4.87724 31.4298 4.91004 31.4519 4.94311 31.4739L4.95358 31.4808C4.96749 31.49 4.98144 31.4992 4.99544 31.5084L5.00379 31.5139C5.0373 31.5358 5.07109 31.5576 5.10512 31.5793L5.11549 31.5858C5.12971 31.5949 5.14398 31.6039 5.1583 31.6129L5.16722 31.6185C5.20196 31.6402 5.23695 31.6618 5.27221 31.6834L5.27941 31.6877C5.29513 31.6973 5.3109 31.7069 5.32672 31.7164L5.33394 31.7207C5.3697 31.7422 5.40573 31.7635 5.44202 31.7847L5.4493 31.789C5.46558 31.7985 5.48189 31.8079 5.49826 31.8174L5.50482 31.8211C5.54226 31.8427 5.57995 31.8641 5.61795 31.8854L5.61891 31.8859C5.63705 31.8961 5.65525 31.9062 5.67351 31.9163L5.67957 31.9197C5.70854 31.9357 5.73766 31.9516 5.76696 31.9675C5.79623 31.9833 5.82568 31.9991 5.85524 32.0148L5.85575 32.0151C8.35569 33.3414 11.9179 34.1106 15.6499 34.3226C15.7115 34.4236 15.7898 34.5117 15.8808 34.5825L15.8811 34.5828L15.8921 34.5912L15.8927 34.5916L15.9037 34.5998L15.9045 34.6003C15.9236 34.6142 15.9431 34.6273 15.9631 34.6396L15.9639 34.6401L15.9742 34.6463L15.9769 34.6479L15.9863 34.6534L15.9902 34.6556L15.9991 34.6606L16.0037 34.6631L16.0121 34.6677L16.017 34.6702L16.0258 34.6749L16.0295 34.6767L16.0392 34.6815L16.0411 34.6824L16.0616 34.6921L16.0658 34.694L16.074 34.6976L16.0797 34.7001L16.0877 34.7035L16.0941 34.7061L16.1016 34.7091L16.1087 34.7119L16.1155 34.7145L16.1236 34.7175L16.13 34.7198L16.1381 34.7226L16.1449 34.725L16.1545 34.7281L16.1591 34.7296L16.1743 34.7343L16.1748 34.7345L16.1893 34.7386L16.1931 34.7397L16.2042 34.7426L16.2096 34.744L16.2196 34.7464L16.2248 34.7476L16.2352 34.75L16.2404 34.7511L16.2511 34.7533L16.2559 34.7543L16.2681 34.7566L16.2712 34.7571C16.2819 34.759 16.2926 34.7607 16.3034 34.7622L16.3041 34.7623L16.3192 34.7642L16.3228 34.7646L16.3351 34.7659L16.3395 34.7663L16.3514 34.7674L16.3558 34.7677L16.3681 34.7685L16.3719 34.7688L16.3855 34.7694L16.388 34.7696L16.403 34.77L16.4046 34.77L16.4214 34.7702H19.0046C19.2501 34.7702 19.473 34.6675 19.638 34.5C19.649 34.4888 19.6597 34.4774 19.6702 34.4656C19.6813 34.4532 19.692 34.4405 19.7025 34.4275C19.7104 34.4176 19.7181 34.4076 19.7257 34.3974C19.7324 34.3884 19.7389 34.3792 19.7454 34.3699C19.7516 34.3609 19.7577 34.3518 19.7636 34.3425L19.7705 34.3316C24.8298 34.0667 29.6018 32.7805 31.8717 30.473L31.872 30.4727C31.8829 30.4617 31.8937 30.4506 31.9044 30.4395L31.911 30.4327C31.92 30.4234 31.929 30.414 31.938 30.4046L31.9461 30.3961C31.9572 30.3844 31.9683 30.3727 31.9793 30.3609C32.0151 30.3227 32.0497 30.2821 32.0833 30.2395C32.0901 30.2308 32.0968 30.2221 32.1035 30.2133C32.1676 30.129 32.2275 30.0367 32.2835 29.937C32.2904 29.9246 32.2973 29.9122 32.3041 29.8996C32.3422 29.8293 32.3784 29.7555 32.4127 29.6784L32.4216 29.6583C32.4469 29.6006 32.4712 29.5411 32.4945 29.4799L32.5014 29.4615C32.5048 29.4524 32.5082 29.4432 32.5116 29.434L32.5182 29.416C32.5216 29.4065 32.525 29.397 32.5284 29.3875C32.5332 29.3739 32.538 29.3603 32.5427 29.3466C32.5543 29.313 32.5656 29.2789 32.5767 29.2443L32.5819 29.2278C32.5853 29.2171 32.5887 29.2062 32.5921 29.1954L32.597 29.1793C32.6156 29.1182 32.6335 29.0559 32.6506 28.9922C32.6539 28.9799 32.6572 28.9675 32.6604 28.9551C32.6684 28.9248 32.6761 28.8942 32.6837 28.8633L32.6868 28.8509C32.7009 28.7932 32.7144 28.7345 32.7273 28.6749L32.73 28.6623C32.733 28.6482 32.736 28.6341 32.739 28.6199L32.7413 28.6087C32.7636 28.5015 32.7841 28.3914 32.8029 28.2786C32.8048 28.2675 32.8066 28.2563 32.8085 28.2451C32.8145 28.2078 32.8204 28.1703 32.8261 28.1325L32.8276 28.1229C32.836 28.0667 32.8441 28.0099 32.8517 27.9525L32.8529 27.9439C32.8579 27.9061 32.8627 27.8681 32.8674 27.8299L32.8683 27.8223C32.8767 27.7532 32.8846 27.6833 32.892 27.6126L32.8926 27.606C32.8968 27.5662 32.9007 27.5263 32.9045 27.486C32.9057 27.4733 32.9069 27.4606 32.9081 27.4479C32.9147 27.3755 32.9208 27.3023 32.9264 27.2285C32.9274 27.2159 32.9283 27.2033 32.9292 27.1908C32.9347 27.1163 32.9397 27.0411 32.9442 26.9653C32.9449 26.9535 32.9456 26.9418 32.9463 26.9301C32.9469 26.9184 32.9476 26.9067 32.9482 26.895C32.9494 26.874 32.9505 26.8529 32.9516 26.8318C32.9522 26.8195 32.9529 26.8072 32.9535 26.7949C32.9606 26.6504 32.966 26.5039 32.9699 26.3556C32.9702 26.3438 32.9705 26.332 32.9708 26.3202C32.9739 26.1937 32.9759 26.0659 32.9767 25.9371C32.9768 25.9254 32.9769 25.9137 32.977 25.9019C32.9771 25.8784 32.9772 25.855 32.9772 25.8315C32.9773 25.8079 32.9773 25.7844 32.9773 25.7608C32.9773 25.7254 32.9772 25.6899 32.977 25.6544C32.9749 25.2162 32.9613 24.7676 32.9388 24.3162C32.9382 24.304 32.9376 24.2918 32.937 24.2796C32.9332 24.2063 32.9292 24.133 32.9251 24.0597C32.9223 24.0108 32.9194 23.9618 32.9164 23.9129C32.8932 23.5338 32.8643 23.1542 32.8311 22.7785C32.8301 22.7664 32.829 22.7543 32.8279 22.7422C32.8107 22.5485 32.7923 22.3558 32.773 22.1649C32.7718 22.1529 32.7705 22.141 32.7693 22.1291C32.7329 21.7715 32.6933 21.42 32.6519 21.0786C32.6505 21.0672 32.6491 21.0559 32.6478 21.0445C32.6326 20.9196 32.6171 20.7961 32.6015 20.6741C32.6 20.663 32.5986 20.652 32.5972 20.6409C32.5673 20.4087 32.5367 20.1822 32.5061 19.963C32.5047 19.9526 32.5032 19.9421 32.5017 19.9317C32.4346 19.453 32.3668 19.0092 32.3033 18.6147C32.302 18.6061 32.3006 18.5975 32.2992 18.589C32.1883 17.9011 32.0911 17.3659 32.0337 17.0613C32.3615 16.9851 32.5801 16.9026 32.6719 16.8139L32.6723 16.8135L32.6783 16.8076L32.6791 16.8067L32.6847 16.8007L32.6867 16.7984L32.6908 16.7935L32.6936 16.7899L32.6964 16.7863L32.7014 16.7789C32.9233 16.4367 33.1113 15.9279 33.2501 15.3389C33.2545 15.3202 33.2589 15.3014 33.2632 15.2826C33.345 14.9243 33.4088 14.5378 33.4511 14.1422C33.4533 14.1214 33.4555 14.1005 33.4576 14.0796C33.4586 14.0692 33.4597 14.0588 33.4607 14.0483C33.4648 14.0065 33.4687 13.9646 33.4723 13.9227C33.4759 13.8807 33.4793 13.8388 33.4824 13.7967C33.484 13.7757 33.4855 13.7546 33.4869 13.7336C33.4926 13.6494 33.4974 13.5652 33.5011 13.4809C33.502 13.4599 33.5029 13.4388 33.5037 13.4178C33.5057 13.3652 33.5073 13.3126 33.5084 13.2601C33.5089 13.2391 33.5093 13.2181 33.5097 13.1971C33.5107 13.1342 33.5111 13.0714 33.5109 13.0089C33.5109 12.988 33.5107 12.9671 33.5105 12.9464ZM26.7305 5.05574C26.5991 5.94266 25.2083 7.49745 23.0305 9.03963C22.8432 9.03366 22.6547 9.028 22.4651 9.02266C23.9435 7.04179 25.6012 5.77196 26.7305 5.05574ZM8.85467 5.05574C9.98147 5.77035 11.6343 7.03611 13.1102 9.00935C12.917 9.01429 12.7251 9.01958 12.5344 9.0252C10.3682 7.48775 8.98565 5.9399 8.85467 5.05574Z" fill="#EF7853"/>
<path d="M19.632 13.2324C19.4322 12.8342 19.0044 12.6842 18.6175 12.8564C18.4562 12.9282 18.3192 13.0506 18.1637 13.1361C18.0503 13.1985 17.9198 13.2565 17.7934 13.2565V13.2564L17.7928 13.2564L17.7923 13.2564V13.2565C17.666 13.2565 17.5353 13.1985 17.4219 13.1361C17.2665 13.0506 17.1295 12.9282 16.9681 12.8564C16.5812 12.6842 16.1535 12.8342 15.9537 13.2324C15.6873 13.7634 15.964 14.348 16.328 14.7379H16.3281C16.3516 14.7632 16.3754 14.7876 16.3996 14.8111C16.7949 15.1962 17.2864 15.4215 17.7928 15.4215C18.3052 15.4215 18.7908 15.1962 19.1861 14.8111C19.2103 14.7876 19.2342 14.763 19.2578 14.7377C19.6217 14.3478 19.8983 13.7633 19.632 13.2324Z" fill="#DC2515"/>
<path d="M28.0838 4.3109C28.0838 4.3109 26.379 1.37707 22.8521 2.46595C19.7336 3.42876 18.4942 6.76922 18.0103 8.95545C19.5185 8.95951 21.0237 8.98203 22.4649 9.02265C23.9433 7.0418 25.6011 5.77197 26.7304 5.05575C26.599 5.94267 25.2082 7.49747 23.0304 9.03964C23.7014 9.06104 24.3563 9.08645 24.989 9.11584C27.2974 7.88766 29.3274 6.13995 28.0838 4.3109Z" fill="#F39235"/>
<path d="M12.7329 2.46596C9.20599 1.37706 7.50112 4.31091 7.50112 4.31091C6.26366 6.13101 8.26784 7.87057 10.5622 9.09781C11.1989 9.06934 11.8585 9.04514 12.5343 9.02522C10.3681 7.48777 8.98557 5.93992 8.85457 5.05576C9.98137 5.77037 11.6342 7.03613 13.1101 9.00937C14.5545 8.97239 16.0631 8.9543 17.5746 8.95481C17.0905 6.76856 15.851 3.42866 12.7329 2.46596Z" fill="#F39235"/>
<path d="M19.9246 17.7534C18.4589 17.7666 16.9652 17.7661 15.5016 17.752L15.5015 17.7624V33.7863C15.5015 33.8287 15.504 33.8705 15.5089 33.9116L15.5121 33.9361C15.5155 33.9605 15.5199 33.9846 15.525 34.0084L15.5304 34.0321C15.5342 34.0478 15.5383 34.0634 15.5428 34.0788C15.5518 34.1096 15.5621 34.1397 15.5738 34.1692C15.5796 34.1839 15.5857 34.1984 15.5922 34.2127C15.7408 34.5424 16.0563 34.7699 16.4215 34.7699H19.0047C19.2665 34.7699 19.5027 34.653 19.6703 34.4653C19.6814 34.4529 19.6921 34.4402 19.7026 34.4272C19.7105 34.4174 19.7182 34.4073 19.7258 34.3971C19.7325 34.3881 19.739 34.3789 19.7454 34.3696C19.7517 34.3606 19.7577 34.3515 19.7637 34.3422L19.7706 34.3313L19.7713 34.3302L19.7717 34.3295C19.777 34.321 19.7821 34.3125 19.7871 34.3039C19.8692 34.1623 19.9186 33.9967 19.9241 33.8193C19.9244 33.8083 19.9247 33.7973 19.9247 33.7863V17.7623L19.9246 17.7534Z" fill="#F08026"/>
<path d="M34.9152 7.83179H34.3493C34.2532 7.83179 34.1753 7.91507 34.1753 8.01782C34.1753 8.12056 34.2532 8.20384 34.3493 8.20384H34.9152C35.0112 8.20384 35.0891 8.12056 35.0891 8.01782C35.0891 7.91507 35.0112 7.83179 34.9152 7.83179Z" fill="#38170E"/>
<path d="M33.4957 7.83179H32.9298C32.8338 7.83179 32.7559 7.91507 32.7559 8.01782C32.7559 8.12056 32.8338 8.20384 32.9298 8.20384H33.4957C33.5918 8.20384 33.6697 8.12056 33.6697 8.01782C33.6697 7.91507 33.5918 7.83179 33.4957 7.83179Z" fill="#38170E"/>
<path d="M33.922 6.77026C33.826 6.77026 33.748 6.85355 33.748 6.95629V7.56133C33.748 7.66407 33.826 7.74736 33.922 7.74736C34.0181 7.74736 34.096 7.66407 34.096 7.56133V6.95629C34.096 6.85355 34.0181 6.77026 33.922 6.77026Z" fill="#38170E"/>
<path d="M33.922 8.28809C33.826 8.28809 33.748 8.37137 33.748 8.47411V9.07915C33.748 9.18189 33.826 9.26518 33.922 9.26518C34.0181 9.26518 34.096 9.18189 34.096 9.07915V8.47411C34.096 8.37137 34.0181 8.28809 33.922 8.28809Z" fill="#38170E"/>
<path d="M32.1548 6.61644C32.2509 6.61644 32.3288 6.53315 32.3288 6.43041C32.3288 6.32769 32.2509 6.24438 32.1548 6.24438H31.7262C31.6301 6.24438 31.5522 6.32767 31.5522 6.43041C31.5522 6.53315 31.6301 6.61644 31.7262 6.61644H32.1548Z" fill="#38170E"/>
<path d="M30.816 6.61644C30.9121 6.61644 30.99 6.53315 30.99 6.43041C30.99 6.32769 30.9121 6.24438 30.816 6.24438H30.3874C30.2913 6.24438 30.2134 6.32767 30.2134 6.43041C30.2134 6.53315 30.2913 6.61644 30.3874 6.61644H30.816Z" fill="#38170E"/>
<path d="M31.2712 6.12986C31.3672 6.12986 31.4451 6.04658 31.4451 5.94383V5.48559C31.4451 5.38285 31.3672 5.29956 31.2712 5.29956C31.1751 5.29956 31.0972 5.38285 31.0972 5.48559V5.94385C31.0972 6.04657 31.1751 6.12986 31.2712 6.12986Z" fill="#38170E"/>
<path d="M31.0972 7.37523C31.0972 7.47797 31.1751 7.56126 31.2712 7.56126C31.3672 7.56126 31.4451 7.47797 31.4451 7.37523V6.91699C31.4451 6.81424 31.3672 6.73096 31.2712 6.73096C31.1751 6.73096 31.0972 6.81424 31.0972 6.91699V7.37523Z" fill="#38170E"/>
<path d="M2.74807 22.8503C3.08348 23.3505 3.41714 23.8537 3.75773 24.3531C3.8476 24.17 3.97425 24.0047 4.13746 23.8713C4.83795 23.3819 5.30795 24.5002 5.24931 25.0895C5.24606 25.3596 5.12538 25.7303 4.93316 25.9981C5.5275 26.7803 6.16553 27.5333 6.8844 28.2287C7.84132 29.2519 8.88523 30.182 10.1031 30.9261C11.8134 32.0174 13.6286 32.7158 15.5017 33.1639V17.7625L15.5018 17.7521C12.0191 17.7183 8.70671 17.6072 6.34683 17.4185L6.33129 17.4172C6.32125 17.4165 6.31123 17.4156 6.30123 17.4148C6.28926 17.4139 6.27729 17.4129 6.26536 17.4119C6.2571 17.4113 6.24887 17.4106 6.24062 17.4099L6.22497 17.4086C6.19268 17.406 6.16055 17.4033 6.12863 17.4006L6.11772 17.3997C6.10138 17.3983 6.08509 17.3969 6.06885 17.3955L6.05144 17.394C6.04259 17.3933 6.03377 17.3925 6.02496 17.3917L6.00394 17.3899C5.98812 17.3885 5.97233 17.3872 5.95661 17.3858L5.94995 17.3852C5.94 17.3843 5.93005 17.3834 5.92015 17.3826L5.90246 17.381C5.88853 17.3798 5.87464 17.3785 5.86079 17.3773L5.83797 17.3752C5.82511 17.374 5.81226 17.3729 5.79946 17.3717L5.77902 17.3698L5.76128 17.3682C5.74942 17.3671 5.73758 17.366 5.72579 17.3649C5.71761 17.3641 5.70945 17.3634 5.70129 17.3626L5.67788 17.3604C5.65899 17.3587 5.64016 17.3569 5.62142 17.3551L5.61923 17.3549L5.59899 17.3529C5.59056 17.3521 5.58213 17.3513 5.57371 17.3505L5.55503 17.3487C5.54349 17.3476 5.53197 17.3464 5.52049 17.3453L5.50029 17.3433C5.47307 17.3406 5.44602 17.3379 5.41914 17.3352L5.39888 17.3331C5.38826 17.332 5.37765 17.331 5.36708 17.3299L5.3449 17.3276L5.3218 17.3252L5.30298 17.3232C5.29115 17.322 5.27937 17.3208 5.26761 17.3195L5.25102 17.3178C5.24132 17.3167 5.23167 17.3157 5.22203 17.3147L5.2014 17.3125C5.19103 17.3113 5.18071 17.3102 5.17041 17.3091L5.15545 17.3075C5.14273 17.3061 5.13005 17.3047 5.11744 17.3033L5.10981 17.3025C5.09774 17.3011 5.08571 17.2998 5.07371 17.2984L5.06509 17.2975C5.05133 17.2959 5.03762 17.2944 5.02397 17.2928L5.01691 17.292C5.003 17.2904 4.98912 17.2888 4.9753 17.2872L4.97453 17.2871C4.96107 17.2856 4.94768 17.284 4.93432 17.2825L4.921 17.2809C4.90876 17.2795 4.89653 17.278 4.88439 17.2766L4.87766 17.2758C4.86675 17.2745 4.85587 17.2732 4.84503 17.2719L4.83466 17.2706C4.82243 17.2691 4.81024 17.2676 4.7981 17.2661L4.78734 17.2648C4.76008 17.2615 4.73308 17.2581 4.70635 17.2547L4.70374 17.2544C4.6778 17.2511 4.6521 17.2478 4.62664 17.2445L4.61374 17.2428C4.60181 17.2412 4.58998 17.2397 4.57817 17.2381L4.5718 17.2372C4.56055 17.2358 4.54937 17.2342 4.53824 17.2327L4.53308 17.2321C4.51994 17.2303 4.5069 17.2285 4.4939 17.2267L4.49112 17.2263C4.47923 17.2247 4.46741 17.2231 4.45564 17.2214L4.44631 17.2201C4.4366 17.2188 4.42693 17.2174 4.41732 17.216L4.40621 17.2145C4.39536 17.2129 4.38455 17.2114 4.37381 17.2098L4.36504 17.2086C4.35374 17.2069 4.34253 17.2053 4.33135 17.2036L4.33103 17.2036C4.31833 17.2017 4.30571 17.1999 4.29317 17.198L4.29038 17.1976C4.26549 17.1939 4.24089 17.1901 4.21659 17.1864L4.21318 17.1858C4.18876 17.182 4.16464 17.1782 4.14081 17.1744L4.13906 17.1741C4.12727 17.1723 4.11557 17.1704 4.10395 17.1685L4.10115 17.168C4.09112 17.1664 4.08113 17.1647 4.07122 17.1631L4.0641 17.1619C4.05375 17.1602 4.04347 17.1585 4.03325 17.1567L4.02848 17.1559C4.01767 17.1541 4.00691 17.1523 3.99625 17.1504L3.99221 17.1497C3.98153 17.1479 3.97092 17.146 3.96038 17.1441H3.96033C3.92612 17.1381 3.89262 17.132 3.85986 17.1259L3.85692 17.1254C3.8466 17.1235 3.83633 17.1215 3.82615 17.1196L3.82453 17.1193C3.81505 17.1175 3.80566 17.1157 3.7963 17.1139L3.79105 17.1128C3.78152 17.111 3.77206 17.1091 3.76267 17.1073L3.75904 17.1065C3.7498 17.1047 3.74063 17.1029 3.73152 17.101L3.72955 17.1006C3.71992 17.0987 3.71037 17.0967 3.70088 17.0947L3.69727 17.094C3.67828 17.0901 3.65961 17.0861 3.64123 17.0821L3.63757 17.0813C3.61939 17.0774 3.60152 17.0734 3.58393 17.0695L3.57966 17.0685C3.57089 17.0665 3.56221 17.0645 3.55359 17.0625L3.55172 17.0621L3.55136 17.062C3.25 18.663 1.84933 26.6156 3.15603 29.6407C2.50553 28.1347 2.52622 25.4073 2.74807 22.8503Z" fill="#ED6A40"/>
<path d="M20.6011 17.7463C23.1783 19.2338 26.3029 18.6565 29.2414 19.2064C29.8504 19.2994 30.6333 19.5784 30.8943 20.2295C32.0252 22.5548 32.4601 25.4382 31.7642 28.0426C31.4972 29.1273 31.2297 30.4567 30.6409 31.4727C31.1055 31.1638 31.5193 30.8308 31.8718 30.4727L31.8721 30.4724C31.883 30.4614 31.8938 30.4503 31.9046 30.4392L31.9111 30.4324C31.9202 30.4231 31.9291 30.4137 31.9381 30.4043L31.9462 30.3959C31.9573 30.3841 31.9684 30.3724 31.9794 30.3607C32.0152 30.3224 32.0499 30.2818 32.0834 30.2392C32.0902 30.2305 32.097 30.2218 32.1037 30.213C32.1678 30.1287 32.2277 30.0364 32.2836 29.9367C32.2906 29.9244 32.2974 29.9119 32.3042 29.8993C32.3423 29.829 32.3785 29.7552 32.4129 29.6781L32.4217 29.658C32.447 29.6003 32.4713 29.5408 32.4946 29.4796L32.5015 29.4612C32.505 29.4521 32.5084 29.4429 32.5118 29.4337L32.5183 29.4157C32.5217 29.4062 32.5251 29.3967 32.5285 29.3872C32.5334 29.3736 32.5381 29.36 32.5429 29.3463C32.5544 29.3127 32.5658 29.2786 32.5768 29.244L32.582 29.2275C32.5854 29.2168 32.5888 29.2059 32.5922 29.1951L32.5972 29.179C32.6158 29.1179 32.6336 29.0556 32.6507 28.9919C32.6541 28.9796 32.6573 28.9672 32.6606 28.9548C32.6685 28.9245 32.6763 28.8939 32.6839 28.863L32.6869 28.8506C32.701 28.7929 32.7145 28.7342 32.7274 28.6746L32.7301 28.662C32.7332 28.6479 32.7362 28.6338 32.7392 28.6196L32.7415 28.6084C32.7637 28.5012 32.7842 28.3911 32.8031 28.2783C32.8049 28.2672 32.8068 28.256 32.8086 28.2448C32.8147 28.2076 32.8206 28.17 32.8263 28.1322L32.8277 28.1226C32.8362 28.0664 32.8442 28.0096 32.8519 27.9522L32.853 27.9436C32.858 27.9058 32.8628 27.8678 32.8675 27.8296L32.8684 27.822C32.8768 27.7529 32.8847 27.683 32.8921 27.6123L32.8928 27.6057C32.8969 27.5659 32.9009 27.526 32.9047 27.4857C32.9059 27.4731 32.907 27.4604 32.9082 27.4476C32.9148 27.3752 32.9209 27.302 32.9266 27.2282C32.9275 27.2156 32.9285 27.2031 32.9294 27.1905C32.9349 27.116 32.9398 27.0408 32.9444 26.965C32.945 26.9533 32.9457 26.9415 32.9464 26.9298C32.9471 26.9181 32.9477 26.9064 32.9484 26.8947C32.9495 26.8737 32.9507 26.8526 32.9517 26.8315C32.9524 26.8192 32.953 26.8069 32.9536 26.7946C32.9607 26.6501 32.9662 26.5036 32.9701 26.3553C32.9703 26.3435 32.9707 26.3317 32.9709 26.3199C32.9741 26.1934 32.976 26.0656 32.9769 25.9368C32.977 25.9251 32.977 25.9134 32.9771 25.9016C32.9772 25.8782 32.9773 25.8547 32.9774 25.8312C32.9774 25.8076 32.9775 25.7841 32.9774 25.7605C32.9774 25.7251 32.9773 25.6896 32.9772 25.6541C32.9751 25.2159 32.9615 24.7673 32.9389 24.3159C32.9383 24.3037 32.9377 24.2915 32.9371 24.2793C32.9334 24.206 32.9294 24.1327 32.9252 24.0594C32.9224 24.0105 32.9195 23.9616 32.9165 23.9127C32.8934 23.5335 32.8645 23.1539 32.8313 22.7782C32.8302 22.7661 32.8291 22.754 32.8281 22.7419C32.8108 22.5482 32.7924 22.3555 32.7731 22.1646C32.7719 22.1526 32.7707 22.1407 32.7695 22.1288C32.7331 21.7712 32.6935 21.4197 32.652 21.0783C32.6507 21.067 32.6493 21.0556 32.6479 21.0442C32.6327 20.9193 32.6172 20.7958 32.6016 20.6738C32.6002 20.6627 32.5988 20.6517 32.5973 20.6406C32.5674 20.4084 32.5369 20.1819 32.5062 19.9627C32.5048 19.9523 32.5033 19.9418 32.5019 19.9314C32.4347 19.4527 32.3669 19.0089 32.3035 18.6144C32.3021 18.6058 32.3007 18.5973 32.2994 18.5887C32.1885 17.9009 32.0912 17.3656 32.0339 17.061C30.3326 17.4569 25.6931 17.6853 20.6011 17.7463Z" fill="#E55E31"/>
<path d="M19.7719 34.3295L19.7715 34.3303C20.9914 34.2663 22.1946 34.1429 23.35 33.9602C22.2071 33.9425 21.062 33.9052 19.9243 33.8193C19.9189 33.9968 19.8694 34.1623 19.7873 34.3039C19.7823 34.3125 19.7772 34.3211 19.7719 34.3295Z" fill="#E55E31"/>
<path d="M15.5922 34.2129C15.5858 34.1986 15.5796 34.1841 15.5738 34.1694C15.5622 34.14 15.5519 34.1098 15.5429 34.079C15.5384 34.0636 15.5342 34.0481 15.5305 34.0323L15.5251 34.0086C15.5199 33.9848 15.5156 33.9607 15.5121 33.9363L15.5089 33.9118C15.504 33.8708 15.5015 33.8289 15.5015 33.7865V33.1639C13.6285 32.7159 11.8132 32.0175 10.1029 30.9262C8.88504 30.1821 7.84113 29.252 6.88421 28.2288C6.16535 27.5334 5.52732 26.7804 4.93297 25.9982C4.70546 26.3152 4.37768 26.488 4.02573 26.1787C3.55815 25.6974 3.47167 24.9356 3.75754 24.3532C3.41695 23.8538 3.08329 23.3506 2.74788 22.8503C2.52603 25.4073 2.50536 28.1348 3.15588 29.6408L3.15684 29.6431L3.16545 29.6628L3.16584 29.6637L3.1738 29.6816L3.1754 29.6852L3.18304 29.7022L3.18471 29.7058L3.192 29.7217L3.19438 29.7268L3.20095 29.7409L3.20417 29.7477L3.21079 29.7617L3.21362 29.7676L3.22038 29.7815L3.2234 29.7877L3.23057 29.8023L3.23306 29.8073L3.24021 29.8216L3.24306 29.8273L3.25008 29.8411L3.25313 29.847L3.26008 29.8603L3.26332 29.8665L3.2703 29.8797L3.27337 29.8855L3.28055 29.8989L3.28372 29.9047L3.29072 29.9175L3.2943 29.924L3.30079 29.9356L3.30516 29.9434L3.31146 29.9545L3.31539 29.9613L3.32206 29.9729L3.32636 29.9802L3.33266 29.991L3.3371 29.9984L3.34349 30.0091L3.34796 30.0164L3.35448 30.0271L3.35909 30.0346L3.36511 30.0443L3.3703 30.0525L3.37644 30.0622L3.38125 30.0697L3.38767 30.0796L3.39263 30.0872L3.39877 30.0966L3.4042 30.1047L3.41014 30.1136L3.41563 30.1217L3.42184 30.1307L3.42643 30.1374L3.43366 30.1478L3.43811 30.1541L3.44499 30.1638L3.45031 30.1711L3.45692 30.1802L3.46199 30.1872L3.46874 30.1963L3.47375 30.203L3.48083 30.2124L3.48511 30.218L3.49306 30.2283L3.49682 30.2331L3.50512 30.2437L3.51024 30.2502L3.517 30.2586L3.52345 30.2665L3.52953 30.274L3.53475 30.2803L3.54218 30.2892L3.54561 30.2932L3.55492 30.3042L3.55638 30.3059L3.56728 30.3184L3.57143 30.3231L3.59283 30.3469L3.59704 30.3515L3.60579 30.3609C3.61755 30.3735 3.6294 30.386 3.64129 30.3985L3.65136 30.4091C3.66032 30.4185 3.66932 30.4278 3.67836 30.4371L3.68875 30.4479C3.70005 30.4595 3.7114 30.4711 3.72283 30.4827L3.72528 30.4851C3.73739 30.4974 3.74961 30.5096 3.76187 30.5218L3.77304 30.5329C3.78216 30.5419 3.79133 30.5509 3.80054 30.5599L3.81118 30.5703C3.8229 30.5817 3.83469 30.5932 3.84655 30.6045L3.8492 30.6071C3.8621 30.6194 3.87508 30.6318 3.88812 30.6441L3.89731 30.6527C3.90738 30.6622 3.91748 30.6716 3.92763 30.681L3.93878 30.6913C3.95046 30.7021 3.96222 30.7129 3.97401 30.7237L3.97795 30.7273C3.99139 30.7395 4.0049 30.7517 4.01849 30.7638L4.02689 30.7713C4.03785 30.7811 4.04887 30.7909 4.05991 30.8006L4.07042 30.8099C4.08194 30.82 4.09351 30.83 4.10511 30.8401L4.1117 30.8458C4.1254 30.8577 4.13916 30.8695 4.15299 30.8812L4.16273 30.8895C4.17339 30.8985 4.18408 30.9075 4.19483 30.9166L4.20768 30.9273C4.2193 30.937 4.23095 30.9467 4.24267 30.9564L4.24943 30.962C4.26377 30.9738 4.27819 30.9855 4.29266 30.9972L4.30095 31.0039C4.31262 31.0134 4.32433 31.0228 4.3361 31.0322L4.34816 31.0418C4.35978 31.051 4.37143 31.0602 4.38313 31.0694L4.39231 31.0767C4.40683 31.0881 4.4214 31.0994 4.43607 31.1108L4.44521 31.1178C4.45705 31.1269 4.46894 31.136 4.48088 31.1451L4.4939 31.155C4.5056 31.1639 4.51737 31.1728 4.52916 31.1816L4.53902 31.189C4.55415 31.2004 4.56936 31.2116 4.58461 31.2229L4.59181 31.2282C4.60447 31.2375 4.61717 31.2468 4.62992 31.2561L4.6438 31.2661C4.65591 31.2749 4.66804 31.2837 4.68023 31.2924L4.68984 31.2993C4.70566 31.3106 4.72154 31.3219 4.73752 31.3332L4.74138 31.3359C4.75559 31.3459 4.76988 31.3559 4.7842 31.3658L4.79661 31.3744C4.80969 31.3835 4.82283 31.3925 4.836 31.4016L4.84475 31.4076C4.87729 31.4298 4.91009 31.4519 4.94316 31.4739L4.95363 31.4808C4.96754 31.49 4.98149 31.4992 4.99549 31.5084L5.00383 31.5139C5.03734 31.5358 5.07114 31.5576 5.10517 31.5793L5.11554 31.5859C5.12976 31.5949 5.14403 31.6039 5.15834 31.6129L5.16727 31.6185C5.20201 31.6403 5.237 31.6619 5.27226 31.6834L5.27946 31.6878C5.29518 31.6973 5.31095 31.7069 5.32677 31.7164L5.33398 31.7207C5.36975 31.7422 5.40578 31.7635 5.44207 31.7848L5.44935 31.789C5.46563 31.7985 5.48193 31.8079 5.49831 31.8174L5.50487 31.8212C5.54231 31.8427 5.58 31.8642 5.61799 31.8854L5.61896 31.886C5.6371 31.8961 5.6553 31.9063 5.67356 31.9164L5.67962 31.9197C5.73758 31.9517 5.79613 31.9834 5.85531 32.0148L5.85581 32.0151C8.35569 33.3413 11.9178 34.1102 15.6496 34.3219C15.6285 34.287 15.6092 34.2507 15.5922 34.2129Z" fill="#E55E31"/>
<path d="M23.0303 9.03951C23.7013 9.06091 24.3563 9.08632 24.9889 9.11571C27.2973 7.88753 29.3273 6.13982 28.0838 4.31079C28.0838 4.31079 27.5443 4.53943 26.7303 5.05564C26.5989 5.94254 25.2081 7.49733 23.0303 9.03951Z" fill="#F08026"/>
<path d="M8.85456 5.05564C8.04081 4.53955 7.50141 4.31092 7.50112 4.31079C6.26366 6.1309 8.26784 7.87045 10.5622 9.09769C11.1989 9.06922 11.8585 9.04502 12.5343 9.0251C10.3681 7.48765 8.98554 5.9398 8.85456 5.05564Z" fill="#F08026"/>
<path d="M15.5015 31.5581C16.2782 31.994 17.1615 32.1275 17.7583 31.2981C19.2697 29.1434 19.5958 26.5989 19.9247 24.0878V17.7624L19.9246 17.7534C18.4589 17.7666 16.9652 17.7661 15.5016 17.752L15.5015 17.7624L15.5015 31.5581Z" fill="#F39235"/>
<path d="M3.55359 17.0625C3.56223 17.0645 3.57091 17.0665 3.57966 17.0684L3.58393 17.0694C3.60152 17.0734 3.6194 17.0773 3.63758 17.0813L3.64124 17.0821C3.65962 17.086 3.67829 17.09 3.69728 17.0939L3.70088 17.0947C3.71038 17.0966 3.71992 17.0986 3.72955 17.1005L3.73153 17.1009C3.74063 17.1028 3.74981 17.1046 3.75905 17.1065L3.76267 17.1072C3.77207 17.1091 3.78151 17.1109 3.79106 17.1128L3.7963 17.1138C3.80566 17.1156 3.81505 17.1174 3.82453 17.1192L3.82615 17.1195C3.83634 17.1215 3.84659 17.1234 3.85693 17.1253L3.85986 17.1259C3.89263 17.132 3.92611 17.1381 3.96034 17.1441H3.96039C3.97093 17.146 3.98154 17.1478 3.99221 17.1496L3.99626 17.1504C4.00692 17.1522 4.01769 17.154 4.02849 17.1559L4.03326 17.1567C4.0435 17.1584 4.05375 17.1601 4.0641 17.1618L4.07122 17.163C4.08114 17.1647 4.09112 17.1663 4.10116 17.1679L4.10395 17.1684C4.11559 17.1703 4.12728 17.1722 4.13907 17.1741L4.14082 17.1744C4.16463 17.1782 4.18876 17.182 4.21318 17.1858L4.21659 17.1863C4.24091 17.19 4.26551 17.1938 4.29039 17.1975L4.29317 17.1979C4.30572 17.1998 4.31833 17.2017 4.33103 17.2035L4.33135 17.2036C4.34253 17.2052 4.35375 17.2069 4.36505 17.2085L4.37382 17.2098C4.38456 17.2113 4.39537 17.2129 4.40621 17.2144L4.41732 17.216C4.42694 17.2173 4.43662 17.2187 4.44631 17.22L4.45564 17.2214C4.46741 17.223 4.47925 17.2246 4.49112 17.2263L4.49391 17.2266C4.50691 17.2284 4.51994 17.2302 4.53308 17.232L4.53824 17.2327C4.54937 17.2342 4.56057 17.2357 4.5718 17.2372L4.57818 17.238C4.58998 17.2396 4.60184 17.2412 4.61374 17.2427L4.62664 17.2444C4.65209 17.2477 4.67781 17.251 4.70375 17.2543L4.70636 17.2546C4.73309 17.258 4.76009 17.2614 4.78734 17.2648L4.7981 17.2661C4.81024 17.2676 4.82242 17.2691 4.83466 17.2705L4.84503 17.2718C4.85588 17.2731 4.86676 17.2744 4.87767 17.2757L4.8844 17.2765C4.89655 17.278 4.90876 17.2794 4.92101 17.2808L4.93433 17.2824C4.94769 17.284 4.96108 17.2855 4.97453 17.2871L4.97531 17.2872C4.98912 17.2888 5.00298 17.2904 5.01691 17.292L5.02398 17.2927C5.03762 17.2943 5.05133 17.2958 5.06509 17.2974L5.07371 17.2984C5.0857 17.2997 5.09774 17.3011 5.10982 17.3024L5.11744 17.3032C5.13006 17.3046 5.14272 17.306 5.15545 17.3074L5.17041 17.309C5.18072 17.3102 5.19104 17.3113 5.20141 17.3124L5.22203 17.3146C5.23168 17.3156 5.24133 17.3167 5.25102 17.3177L5.26762 17.3194C5.27937 17.3207 5.29116 17.3219 5.30298 17.3232L5.3218 17.3251L5.3449 17.3275L5.36708 17.3298C5.37766 17.3309 5.38826 17.332 5.39889 17.3331L5.41914 17.3351C5.44602 17.3378 5.47307 17.3405 5.50029 17.3432L5.52049 17.3452C5.53198 17.3464 5.5435 17.3475 5.55503 17.3486L5.57372 17.3504C5.58213 17.3512 5.59057 17.352 5.599 17.3529L5.61923 17.3548L5.62143 17.355C5.64016 17.3568 5.659 17.3586 5.67789 17.3604L5.7013 17.3626C5.70944 17.3633 5.71762 17.3641 5.7258 17.3649C5.7376 17.3659 5.74943 17.367 5.76128 17.3681L5.77902 17.3698L5.79946 17.3716C5.81226 17.3728 5.82511 17.374 5.83798 17.3751L5.8608 17.3772C5.87464 17.3784 5.88854 17.3797 5.90247 17.3809L5.92016 17.3825C5.93008 17.3834 5.94001 17.3843 5.94996 17.3851L5.95662 17.3857C5.97234 17.3871 5.98812 17.3885 6.00394 17.3899L6.02497 17.3917C6.03379 17.3924 6.04261 17.3932 6.05145 17.394L6.06885 17.3954C6.08509 17.3968 6.10138 17.3982 6.11772 17.3996L6.12863 17.4005C6.16056 17.4032 6.19268 17.4059 6.22498 17.4086L6.24063 17.4098C6.24888 17.4105 6.25711 17.4112 6.26537 17.4119C6.27731 17.4128 6.28927 17.4138 6.30124 17.4148C6.31124 17.4156 6.32126 17.4164 6.33129 17.4172L6.34684 17.4184C10.4691 17.748 17.498 17.8411 23.2632 17.6978C16.6921 16.7824 10.8718 17.1507 4.5904 14.6165C2.93783 13.9498 2.57427 12.5363 2.1684 11.7964C1.92143 13.3212 2.1869 15.3727 2.70978 16.4704L2.70983 16.4704C2.71404 16.4793 2.71826 16.4881 2.72253 16.4968L2.72404 16.4999C2.73268 16.5176 2.74138 16.535 2.75017 16.5522L2.75194 16.5556L2.7634 16.5778L2.76548 16.5818L2.77826 16.6058L2.78039 16.6098L2.79108 16.6294L2.79443 16.6355C2.80295 16.6509 2.8115 16.666 2.82014 16.6809L2.82359 16.6868L2.83415 16.7047L2.8368 16.7092L2.85 16.731L2.8523 16.7348L2.86316 16.7522L2.86695 16.7582L2.88007 16.7788L2.88484 16.7857L2.88582 16.787L2.89107 16.7938L2.89189 16.7948L2.89719 16.8009L2.89818 16.8021L2.90439 16.8087L2.90589 16.8102L2.91235 16.8165L2.91287 16.8169L2.92021 16.8235L2.92203 16.8251L2.92977 16.8315L2.93109 16.8326L2.93861 16.8384L2.94039 16.8398L2.9491 16.8461L2.95132 16.8477L2.96036 16.8539L2.96083 16.8542L2.97099 16.8608L2.97335 16.8623L2.9839 16.8687L2.98481 16.8693L2.99546 16.8754L2.99765 16.8767L3.00932 16.8831L3.01119 16.8841L3.02286 16.8903L3.02401 16.8909L3.03713 16.8975L3.03923 16.8985L3.05279 16.9051L3.05379 16.9055L3.06726 16.9117L3.06946 16.9127L3.08403 16.9192L3.08602 16.92L3.10057 16.9262L3.10165 16.9267L3.11738 16.9331L3.12006 16.9342C3.13059 16.9384 3.14141 16.9426 3.15256 16.9468L3.15688 16.9484L3.17282 16.9543L3.17631 16.9556L3.19105 16.9608L3.19445 16.962L3.21256 16.9682L3.21469 16.969C3.22752 16.9733 3.24068 16.9776 3.25417 16.9819L3.25655 16.9827L3.27653 16.989L3.27854 16.9896L3.2993 16.9959L3.29957 16.996L3.32208 17.0027L3.32286 17.0029C3.33741 17.0071 3.3523 17.0113 3.3675 17.0156L3.37196 17.0168C3.38667 17.0209 3.40166 17.0249 3.41694 17.0289L3.42117 17.03L3.44401 17.0359L3.44693 17.0367L3.46988 17.0425L3.47158 17.0429C3.47973 17.0449 3.48797 17.0469 3.49627 17.049L3.49959 17.0498C3.51654 17.0539 3.53383 17.058 3.5514 17.0621L3.55175 17.0621L3.55359 17.0625Z" fill="#EE714B"/>
<path d="M33.5105 12.9464C33.5104 12.9359 33.5103 12.9255 33.5102 12.9152C33.5099 12.8944 33.5096 12.8736 33.5091 12.8529C33.5077 12.7804 33.5054 12.7083 33.5023 12.6367C33.5013 12.6163 33.5004 12.5958 33.4993 12.5755C33.4962 12.5143 33.4924 12.4536 33.488 12.3933C33.4843 12.3431 33.4801 12.2932 33.4755 12.2437C33.4737 12.2239 33.4717 12.2041 33.4697 12.1844C33.4637 12.1253 33.4571 12.0668 33.4497 12.0089C33.4485 11.9993 33.4472 11.9896 33.446 11.98C33.4422 11.9512 33.4382 11.9225 33.4341 11.894C33.4327 11.8845 33.4313 11.875 33.4299 11.8655C33.4271 11.8466 33.4242 11.8277 33.4212 11.8089C33.4197 11.7995 33.4182 11.7902 33.4166 11.7808C33.412 11.7528 33.4072 11.7249 33.4023 11.6973C33.3974 11.6696 33.3922 11.6421 33.3869 11.6148C33.3816 11.5875 33.3761 11.5605 33.3704 11.5336C33.3667 11.5157 33.3628 11.4979 33.3588 11.4801C33.3549 11.4624 33.3509 11.4448 33.3468 11.4272C33.3427 11.4097 33.3385 11.3923 33.3342 11.375C33.3278 11.349 33.3213 11.3232 33.3145 11.2977C33.3122 11.2892 33.3099 11.2807 33.3076 11.2722C33.303 11.2553 33.2984 11.2385 33.2936 11.2218C33.2864 11.1967 33.2791 11.172 33.2716 11.1474C33.244 11.0574 33.2139 10.9709 33.1811 10.8883L33.1722 10.8658C33.1631 10.8435 33.1538 10.8214 33.1444 10.7997C33.1381 10.7852 33.1317 10.7708 33.1252 10.7566C33.1188 10.7424 33.1122 10.7283 33.1055 10.7144L33.0955 10.6935C33.0854 10.6728 33.0751 10.6524 33.0645 10.6324L33.054 10.6124C32.9545 10.4273 32.8375 10.2709 32.7015 10.151L32.6913 10.1422L32.6891 10.1405L32.6808 10.1337L32.6772 10.1309L32.6698 10.1252L32.6656 10.1221L32.6581 10.1166L32.6539 10.1136L32.6457 10.1079L32.6416 10.1051L32.6324 10.099L32.6289 10.0966C32.6201 10.0909 32.6111 10.0853 32.6017 10.0796L32.5997 10.0785L32.5874 10.0713L32.5832 10.0689L32.5727 10.0629L32.5676 10.0602L32.5575 10.0547L32.5519 10.0517L32.5412 10.0461L32.5363 10.0435L32.5244 10.0375L32.5197 10.0352L32.5073 10.0291L32.5027 10.0269C32.4912 10.0213 32.4794 10.0159 32.4672 10.0104L32.4642 10.0091L32.4486 10.0021L32.4443 10.0003L32.4306 9.99436L32.4232 9.99126L32.4115 9.98637L32.404 9.98329L32.3909 9.97797L32.3842 9.97532L32.3699 9.96969L32.3639 9.96735L32.3442 9.95981L32.3433 9.95948L32.3219 9.9515L32.3162 9.94942L32.2999 9.94353L32.2928 9.941L32.278 9.93577L32.2694 9.93278L32.2553 9.92789L32.2462 9.92485L32.2325 9.92023L32.2223 9.91682L32.2095 9.9126L32.1989 9.90918L32.1837 9.90431L32.1749 9.90152C32.1669 9.89897 32.1588 9.89643 32.1506 9.89391L32.1495 9.89355C32.1416 9.89109 32.1336 9.88868 32.1256 9.88624L32.1178 9.8839L32.1004 9.87872L32.091 9.87597L32.0738 9.87093L32.0644 9.86823L32.0487 9.86372L32.0361 9.86017L32.0221 9.85624L32.01 9.8529L31.9929 9.84823L31.9826 9.84544L31.962 9.8399L31.9551 9.83806C31.9458 9.83559 31.9363 9.83312 31.9269 9.83065L31.9182 9.82843L31.8993 9.82355L31.8851 9.81994L31.8706 9.8163L31.8557 9.81259L31.8405 9.80883L31.8267 9.80545L31.8113 9.80171L31.796 9.79803L31.7823 9.79479L31.7649 9.79066L31.7541 9.78813L31.7348 9.78364C31.7248 9.78135 31.7148 9.77905 31.7047 9.77674L31.6992 9.77551C31.6909 9.77362 31.6824 9.77171 31.6739 9.76982L31.6554 9.7657L31.6434 9.76305L31.6227 9.75855L31.6112 9.75604L31.5923 9.75198L31.5777 9.74886L31.558 9.7447L31.5475 9.7425L31.5246 9.73774L31.5154 9.73584L31.4922 9.73105L31.484 9.72939C31.4563 9.72378 31.4283 9.71821 31.3999 9.71266L31.3927 9.71125C31.3832 9.70939 31.3736 9.70753 31.364 9.7057L31.3598 9.7049C31.3512 9.70324 31.3426 9.7016 31.3339 9.69996L31.3224 9.69778C31.3143 9.69625 31.3061 9.69471 31.298 9.6932L31.2884 9.69142C31.2799 9.68985 31.2714 9.68828 31.2629 9.68669L31.2525 9.6848C31.2439 9.68319 31.2352 9.68161 31.2264 9.68002L31.2214 9.67912C31.1661 9.66909 31.1095 9.65919 31.0517 9.64938L31.0463 9.64847C31.0358 9.64668 31.0253 9.64491 31.0147 9.64313L31.0091 9.64219C30.9989 9.64051 30.9887 9.6388 30.9785 9.63712L30.97 9.63572C30.898 9.62387 30.8243 9.61219 30.7487 9.60065L30.7479 9.60052C28.4575 9.25084 24.5104 9.04002 20.2915 8.97583C24.193 9.44001 28.0248 10.2099 30.7513 13.2039C31.5813 14.0231 32.2242 15.6738 32.285 16.9947C32.4807 16.9357 32.6147 16.8733 32.6784 16.8074L32.6792 16.8066L32.6848 16.8006L32.6868 16.7983L32.6909 16.7934L32.6937 16.7898L32.6965 16.7862L32.7015 16.7788C32.9234 16.4366 33.1114 15.9278 33.2502 15.3388C33.2546 15.3201 33.259 15.3013 33.2633 15.2825C33.3451 14.9242 33.4089 14.5377 33.4512 14.1421C33.4534 14.1212 33.4556 14.1004 33.4577 14.0795C33.4588 14.0691 33.4598 14.0586 33.4608 14.0482C33.4649 14.0064 33.4688 13.9645 33.4724 13.9226C33.476 13.8806 33.4794 13.8386 33.4825 13.7966C33.4841 13.7756 33.4856 13.7545 33.487 13.7335C33.4927 13.6493 33.4975 13.5651 33.5012 13.4808C33.5021 13.4598 33.503 13.4387 33.5038 13.4177C33.5058 13.3651 33.5074 13.3125 33.5085 13.26C33.509 13.239 33.5094 13.218 33.5098 13.197C33.5108 13.1341 33.5112 13.0713 33.511 13.0088C33.5109 12.988 33.5107 12.9671 33.5105 12.9464Z" fill="#EE714B"/>
<path d="M24.007 16.2341C24.8425 16.2341 25.5198 15.5099 25.5198 14.6165C25.5198 13.7232 24.8425 12.999 24.007 12.999C23.1715 12.999 22.4941 13.7232 22.4941 14.6165C22.4942 15.5099 23.1715 16.2341 24.007 16.2341ZM23.5097 13.2755C23.6776 13.1926 23.8481 13.2052 23.8906 13.3035C23.933 13.4019 23.8314 13.5488 23.6635 13.6316C23.4956 13.7145 23.3251 13.7019 23.2826 13.6035C23.2402 13.5052 23.3419 13.3583 23.5097 13.2755Z" fill="#DC2515"/>
<path d="M23.6634 13.6316C23.8313 13.5488 23.933 13.4019 23.8905 13.3035C23.8481 13.2052 23.6776 13.1926 23.5097 13.2755C23.3418 13.3583 23.2401 13.5052 23.2826 13.6036C23.325 13.7019 23.4956 13.7145 23.6634 13.6316Z" fill="white"/>
<path d="M11.5783 12.999C10.7427 12.999 10.0654 13.7232 10.0654 14.6165C10.0654 15.5099 10.7427 16.2341 11.5783 16.2341C12.4138 16.2341 13.0911 15.5099 13.0911 14.6165C13.0911 13.7232 12.4138 12.999 11.5783 12.999ZM11.2348 13.6316C11.0669 13.7144 10.8964 13.7019 10.8539 13.6035C10.8115 13.5052 10.9131 13.3583 11.081 13.2754C11.2489 13.1926 11.4194 13.2052 11.4619 13.3035C11.5043 13.4019 11.4026 13.5488 11.2348 13.6316Z" fill="#DC2515"/>
<path d="M11.081 13.2755C10.9131 13.3583 10.8114 13.5052 10.8539 13.6036C10.8963 13.7019 11.0668 13.7145 11.2347 13.6316C11.4026 13.5488 11.5043 13.4019 11.4618 13.3035C11.4194 13.2052 11.2489 13.1926 11.081 13.2755Z" fill="white"/>
<path d="M16.9681 12.8564C16.5812 12.6842 16.1535 12.8342 15.9537 13.2324C15.6873 13.7634 15.964 14.348 16.328 14.7379H16.3281L16.3241 14.7337C16.7062 14.249 17.205 13.8122 17.7277 13.8117C18.443 13.811 18.9613 14.3033 19.2578 14.7377C19.6217 14.3478 19.8983 13.7633 19.632 13.2324C19.4322 12.8342 19.0044 12.6842 18.6175 12.8564C18.4562 12.9282 18.3192 13.0506 18.1637 13.1361C18.0503 13.1985 17.9198 13.2565 17.7934 13.2565V13.2564L17.7928 13.2564L17.7923 13.2564V13.2565C17.666 13.2565 17.5353 13.1985 17.4219 13.1361C17.2665 13.0506 17.1295 12.9282 16.9681 12.8564Z" fill="#38170E"/>
<path d="M14.1338 11.332C14.4893 11.332 14.8254 11.8228 14.8254 12.3418C14.8254 12.3854 14.8227 12.4256 14.817 12.4648C14.8023 12.5663 14.8673 12.6614 14.9623 12.6771C14.9713 12.6786 14.9803 12.6793 14.9891 12.6793C15.0735 12.6793 15.1476 12.6137 15.1609 12.5218C15.1693 12.4635 15.1734 12.4046 15.1734 12.3418C15.1734 11.6882 14.7465 10.96 14.1338 10.96C13.5212 10.96 13.0942 11.6882 13.0942 12.3418C13.0942 12.4045 13.0983 12.4633 13.1067 12.5216C13.1213 12.6231 13.2101 12.6921 13.3051 12.6771C13.4001 12.6615 13.4653 12.5665 13.4506 12.465C13.445 12.4256 13.4422 12.3853 13.4422 12.3418C13.4422 11.8228 13.7783 11.332 14.1338 11.332Z" fill="#38170E"/>
<path d="M21.4512 10.96C20.8386 10.96 20.4116 11.6882 20.4116 12.3418C20.4116 12.4045 20.4157 12.4633 20.4241 12.5216C20.4387 12.6232 20.5272 12.692 20.6226 12.6771C20.7175 12.6615 20.7826 12.5665 20.768 12.465C20.7623 12.4256 20.7596 12.3853 20.7596 12.3418C20.7596 11.8228 21.0957 11.332 21.4512 11.332C21.8067 11.332 22.1428 11.8228 22.1428 12.3418C22.1428 12.3853 22.1401 12.4256 22.1344 12.465C22.1198 12.5665 22.1849 12.6615 22.2799 12.6771C22.2889 12.6786 22.2978 12.6793 22.3066 12.6793C22.391 12.6793 22.4651 12.6136 22.4783 12.5216C22.4867 12.4633 22.4908 12.4045 22.4908 12.3418C22.4908 11.6882 22.0638 10.96 21.4512 10.96Z" fill="#38170E"/>
<path d="M4.92215 22.8952C5.2138 21.935 5.45023 20.9269 5.67866 19.9366C6.00456 19.9438 6.33046 19.9462 6.65636 19.9442C8.16365 19.9296 9.67056 19.8549 11.1578 19.5594C11.5207 19.4823 11.5219 18.9225 11.1578 18.8437C9.67049 18.5482 8.16368 18.4736 6.65634 18.4589C6.15617 18.4559 5.65601 18.4629 5.15583 18.4825C4.84208 18.4739 4.55495 18.706 4.49825 19.0506C4.30242 20.2947 4.19441 21.5449 4.25799 22.8054C4.28143 23.2013 4.80531 23.2748 4.92215 22.8952Z" fill="white"/>
<path d="M4.1371 23.8712C3.97389 24.0045 3.84724 24.1699 3.75737 24.353C3.47151 24.9354 3.55799 25.6972 4.02556 26.1785C4.37752 26.4878 4.70529 26.315 4.93281 25.998C5.12502 25.7302 5.24569 25.3594 5.24896 25.0894C5.30758 24.5001 4.83759 23.3818 4.1371 23.8712Z" fill="white"/>
<path d="M28.8121 22.2915L28.5136 22.2261C28.2794 22.1747 28.1 21.9728 28.0641 21.7201L27.984 21.1563C27.9592 20.9824 27.7249 20.9824 27.7002 21.1563L27.62 21.7201C27.5841 21.9728 27.4047 22.1748 27.1705 22.2261L26.872 22.2916C26.7191 22.3251 26.7191 22.5587 26.872 22.5923L27.1705 22.6577C27.4047 22.7091 27.5841 22.911 27.62 23.1637L27.7002 23.7275C27.7249 23.9014 27.9592 23.9014 27.984 23.7275L28.0641 23.1637C28.1 22.911 28.2794 22.7091 28.5136 22.6577L28.8121 22.5923C28.965 22.5587 28.965 22.3251 28.8121 22.2915Z" fill="white"/>
<path d="M13.0386 30.1651L13.1936 30.199C13.3152 30.2257 13.4084 30.3306 13.427 30.4618L13.4687 30.7546C13.4815 30.8449 13.6032 30.8449 13.616 30.7546L13.6576 30.4618C13.6763 30.3306 13.7695 30.2257 13.8911 30.199L14.0461 30.1651C14.1255 30.1476 14.1255 30.0263 14.0461 30.0089L13.8911 29.9749C13.7695 29.9482 13.6763 29.8433 13.6577 29.7121L13.616 29.4193C13.6032 29.329 13.4815 29.329 13.4687 29.4193L13.427 29.7121C13.4084 29.8433 13.3152 29.9482 13.1936 29.9749L13.0386 30.0089C12.9591 30.0263 12.9591 30.1476 13.0386 30.1651Z" fill="white"/>
<path d="M11.6377 3.65332L11.7927 3.68731C11.9143 3.71398 12.0075 3.81888 12.0261 3.95011L12.0678 4.2429C12.0806 4.3332 12.2023 4.3332 12.2152 4.2429L12.2568 3.95011C12.2754 3.81888 12.3686 3.714 12.4902 3.68731L12.6452 3.65332C12.7246 3.6359 12.7246 3.51459 12.6452 3.49717L12.4902 3.46316C12.3686 3.4365 12.2754 3.33161 12.2568 3.20038L12.2152 2.90757C12.2023 2.81727 12.0806 2.81727 12.0678 2.90757L12.0261 3.20038C12.0075 3.33161 11.9143 3.43651 11.7927 3.46316L11.6377 3.49717C11.5583 3.51459 11.5583 3.6359 11.6377 3.65332Z" fill="white"/>
</svg>
