<svg width="390" height="744" viewBox="0 0 390 744" fill="none" xmlns="http://www.w3.org/2000/svg">
    <path d="M169.167 395.74C145.039 394.234 119.905 392.887 97.6211 402.266C82.7478 408.526 69.8551 419.323 54.3164 423.673C48.0758 425.42 41.2446 426.217 36.2212 430.313C24.5448 439.836 30.326 459.022 24.3428 472.855C22.6871 476.683 20.1265 480.05 18.2771 483.788C13.289 493.871 14.0466 506.569 20.1984 515.986C26.1427 525.086 36.3841 530.685 46.9472 533.227C57.5103 535.769 68.5139 535.587 79.3751 535.324C108.922 534.607 138.497 533.389 168.018 534.826C208.881 536.814 249.788 543.88 290.486 539.701C297.285 539.002 304.424 537.834 309.711 533.5C315.011 529.156 317.558 522.372 321.625 516.855C328.553 507.457 339.551 502.125 348.624 494.78C360.802 484.923 369.668 471.039 373.491 455.839C375.615 447.393 376.03 437.821 371.177 430.591C367.05 424.443 359.92 421.132 353.08 418.302C308.021 399.66 259.651 389.063 210.93 387.16C196.14 386.582 180.181 387.16 168.338 396.044" fill="#8DD44F"/>
    <path d="M83.2043 464L64 476.151L109.305 514.576L314.541 499.991L298.864 488.118C298.864 488.118 92.7687 467.874 83.2043 464Z" fill="#6FA93D"/>
    <path d="M234.878 494.808L185.907 476.407L200.798 370.908L234.878 494.808Z" fill="#2062B2"/>
    <path d="M127.723 298.641L81 469.802L113.929 503.444L153.309 315.995L127.723 298.641Z" fill="#A5CBF9"/>
    <path d="M152.191 321.986L127.723 298.641L206.718 293L237.62 315.886" fill="#70A5F2"/>
    <path d="M237.62 315.886L152.191 321.986L113.929 503.444L188.598 498.113L190.843 471.143L224.036 468.773L234.878 494.808L309.506 489.479L237.62 315.886ZM193.43 432.83L202.608 398.402L216.585 431.177L193.43 432.83Z" fill="#4680DA"/>
    <path d="M176.957 368.498C185.59 367.639 191.74 358.418 190.694 347.902C189.647 337.386 181.801 329.558 173.168 330.417C164.536 331.275 158.386 340.497 159.432 351.013C160.478 361.528 168.324 369.357 176.957 368.498Z" fill="white"/>
    <path d="M236.868 350.994C238.661 340.58 233.183 330.944 224.634 329.473C216.085 328.002 207.701 335.252 205.909 345.666C204.117 356.081 209.594 365.716 218.143 367.187C226.692 368.658 235.076 361.409 236.868 350.994Z" fill="white"/>
    <path d="M181.698 363.446C185.969 363.021 189.012 358.459 188.494 353.256C187.977 348.053 184.095 344.18 179.824 344.605C175.553 345.03 172.51 349.592 173.028 354.795C173.546 359.998 177.427 363.871 181.698 363.446Z" fill="black"/>
    <path d="M230.884 355.715C231.97 350.601 229.447 345.732 225.249 344.841C221.05 343.949 216.767 347.373 215.681 352.487C214.595 357.602 217.118 362.47 221.316 363.362C225.514 364.253 229.798 360.83 230.884 355.715Z" fill="black"/>
    <path d="M164.561 329.145C164.815 328.839 165.103 328.557 165.392 328.284C165.71 327.984 166.043 327.701 166.384 327.428C166.473 327.357 166.492 327.345 166.382 327.428C166.43 327.392 166.477 327.356 166.525 327.32C166.641 327.233 166.758 327.148 166.876 327.065C167.1 326.907 167.328 326.755 167.561 326.61C168.09 326.279 168.64 325.983 169.21 325.729C169.254 325.709 169.493 325.609 169.306 325.686C169.377 325.657 169.448 325.628 169.52 325.6C169.677 325.538 169.836 325.48 169.997 325.425C170.326 325.311 170.66 325.213 170.998 325.13C171.172 325.088 171.346 325.05 171.522 325.016C171.604 325 171.687 324.986 171.769 324.972C171.811 324.965 171.852 324.958 171.894 324.952C171.911 324.949 172.084 324.924 171.981 324.938C171.897 324.949 172.117 324.922 172.156 324.918C172.256 324.908 172.356 324.898 172.457 324.891C172.646 324.876 172.836 324.867 173.026 324.863C173.419 324.855 173.813 324.87 174.204 324.907C174.297 324.915 174.39 324.926 174.483 324.937C174.591 324.95 174.494 324.938 174.473 324.935C174.52 324.942 174.568 324.949 174.615 324.957C174.839 324.994 175.062 325.036 175.283 325.086C177.485 325.583 179.426 326.781 181.133 328.284C181.504 328.611 182.064 328.65 182.43 328.284C182.764 327.951 182.803 327.316 182.43 326.987C180.722 325.483 178.789 324.215 176.6 323.538C174.888 323.009 173.088 322.906 171.324 323.196C168.732 323.622 166.342 324.978 164.399 326.71C164.001 327.065 163.606 327.437 163.265 327.849C162.949 328.23 162.892 328.772 163.265 329.146C163.589 329.471 164.244 329.529 164.561 329.145Z" fill="black"/>
    <path d="M213.137 326.174C213.214 326.099 213.295 326.027 213.376 325.956C213.468 325.876 213.56 325.798 213.653 325.721C213.712 325.673 213.771 325.627 213.829 325.579C213.861 325.553 213.894 325.529 213.926 325.503C213.68 325.701 213.858 325.555 213.915 325.513C214.699 324.93 215.527 324.412 216.406 323.984C216.536 323.921 216.667 323.86 216.799 323.801C216.867 323.77 216.934 323.741 217.002 323.711C216.796 323.801 217.028 323.701 217.06 323.688C217.373 323.565 217.687 323.448 218.008 323.347C218.317 323.249 218.629 323.163 218.944 323.09C219.106 323.053 219.269 323.019 219.433 322.988C219.516 322.973 219.599 322.958 219.682 322.945C219.717 322.939 220.062 322.893 219.86 322.917C221.447 322.729 222.756 322.854 224.227 323.351C226.318 324.056 228.175 325.536 229.698 327.192C230.034 327.557 230.655 327.532 230.996 327.192C231.359 326.829 231.332 326.26 230.996 325.895C228.287 322.951 224.626 320.766 220.509 321.022C217.887 321.186 215.358 322.213 213.239 323.744C212.755 324.093 212.267 324.459 211.839 324.877C210.994 325.704 212.292 327.001 213.137 326.174Z" fill="black"/>
    <path d="M214.809 377.254C212.601 376.234 211.195 376.53 211.195 376.53C198.676 376.565 196.066 384.155 195.612 386.036C191.437 384.879 187.834 382.035 185.329 378.1C184.222 376.373 182.831 374.286 184.038 372.262C185.276 370.188 187.857 370.582 189.739 371.612C189.739 371.612 198.952 376.661 209.027 371.391C209.027 371.391 215.182 366.831 215.196 374.4C215.198 375.417 215.065 376.366 214.809 377.254Z" fill="black"/>
    <path d="M197.737 390.366C198.531 390.687 199.398 390.872 200.24 391.006C202.102 391.301 204.024 391.263 205.85 390.768C207.154 390.415 208.382 389.827 209.482 389.045C209.84 388.791 209.497 388.194 209.135 388.451C206.11 390.599 202.237 390.979 198.721 389.967C198.452 389.889 198.18 389.807 197.92 389.702C197.51 389.536 197.332 390.202 197.737 390.366Z" fill="black"/>
    <path d="M200.207 345.479C200.115 347.947 200.022 350.417 199.93 352.886C199.917 353.24 199.903 353.594 199.89 353.949C200.115 353.654 200.339 353.359 200.563 353.064C199.08 353.291 197.587 353.767 196.246 354.434C195.237 354.936 194.266 355.63 193.659 356.598C192.941 357.741 192.996 359.088 193.524 360.292C194.465 362.443 196.562 364.032 198.414 365.354C198.817 365.642 199.435 365.425 199.669 365.025C199.938 364.564 199.744 364.059 199.34 363.77C198.411 363.107 197.515 362.395 196.71 361.585C196.558 361.432 196.409 361.276 196.265 361.116C196.188 361.03 196.112 360.944 196.038 360.855C195.996 360.805 195.838 360.61 195.878 360.662C195.753 360.501 195.467 360.078 195.312 359.79C195.242 359.66 195.18 359.528 195.119 359.394C195.191 359.553 195.148 359.466 195.114 359.367C195.087 359.288 195.06 359.208 195.036 359.127C195.002 359.008 194.984 358.887 194.953 358.767C194.92 358.638 194.966 358.996 194.953 358.763C194.949 358.698 194.944 358.635 194.942 358.57C194.94 358.455 194.963 358.335 194.957 358.221C194.955 358.198 194.911 358.448 194.954 358.263C194.967 358.205 194.977 358.147 194.993 358.089C195.02 357.982 195.069 357.881 195.096 357.774C195.101 357.754 194.996 357.975 195.083 357.813C195.115 357.755 195.143 357.695 195.176 357.637C195.227 357.547 195.284 357.462 195.343 357.376C195.431 357.244 195.404 357.321 195.32 357.4C195.368 357.355 195.408 357.293 195.452 357.244C195.607 357.07 195.779 356.915 195.955 356.763C196.111 356.628 195.962 356.755 195.956 356.758C196.003 356.728 196.046 356.691 196.092 356.658C196.198 356.583 196.306 356.51 196.415 356.441C196.625 356.309 196.841 356.188 197.061 356.074C197.282 355.961 197.511 355.865 197.736 355.759C197.451 355.893 197.819 355.726 197.903 355.694C198.015 355.65 198.129 355.608 198.242 355.567C198.666 355.415 199.097 355.283 199.533 355.166C200.033 355.033 200.54 354.912 201.052 354.833C201.454 354.772 201.711 354.318 201.725 353.949C201.818 351.48 201.91 349.011 202.002 346.542C202.015 346.188 202.029 345.833 202.042 345.479C202.085 344.298 200.251 344.3 200.207 345.479Z" fill="black"/>
    <path d="M214.809 377.254C213.369 382.299 208.13 385.281 203.016 386.29C200.436 386.799 197.937 386.677 195.612 386.036C196.066 384.155 198.676 376.565 211.195 376.53C211.195 376.53 212.601 376.234 214.809 377.254Z" fill="#FF7BAC"/>
    <path d="M230.551 370.967C230.51 372.07 228.56 372.893 226.196 372.804C223.831 372.716 221.948 371.75 221.989 370.646C222.031 369.543 223.981 368.721 226.345 368.809C228.709 368.898 230.593 369.864 230.551 370.967Z" fill="#FF7BAC"/>
    <path d="M180.767 372.54C180.808 371.436 178.925 370.47 176.561 370.382C174.197 370.293 172.246 371.116 172.205 372.219C172.164 373.323 174.047 374.289 176.411 374.377C178.775 374.466 180.725 373.643 180.767 372.54Z" fill="#FF7BAC"/>
    <path d="M241.2 339.361C240.705 339.601 240.149 339.694 239.594 339.726C239.037 339.756 238.473 339.722 237.914 339.653C237.567 339.609 237.211 339.549 236.867 339.477C236.732 339.091 236.571 338.712 236.419 338.332C236.231 337.913 236.031 337.499 235.817 337.092C235.899 337 235.98 336.908 236.062 336.812C236.287 336.549 236.498 336.277 236.702 336.001C237.108 335.448 237.47 334.866 237.785 334.263C238.106 333.665 238.354 333.028 238.552 332.387C238.754 331.746 238.847 331.079 238.899 330.426C238.715 331.059 238.496 331.671 238.182 332.236C237.872 332.801 237.525 333.338 237.116 333.827C236.714 334.32 236.276 334.78 235.81 335.202C235.575 335.412 235.336 335.616 235.09 335.807C235.084 335.812 235.077 335.817 235.071 335.821C235.019 335.741 234.97 335.658 234.915 335.579C233.734 333.849 232.2 332.356 230.419 331.303C228.638 330.267 226.658 329.56 224.641 329.476C226.578 329.988 228.356 330.907 229.883 332.092C231.417 333.273 232.673 334.75 233.629 336.39C234.109 337.211 234.494 338.083 234.839 338.969C234.988 339.422 235.161 339.864 235.282 340.328C235.346 340.558 235.418 340.785 235.475 341.016L235.634 341.716C236.051 343.584 236.23 345.515 236.254 347.454L236.254 347.502L236.262 347.567C236.281 347.739 236.301 347.98 236.309 348.196C236.319 348.418 236.323 348.643 236.322 348.868C236.319 349.318 236.304 349.771 236.269 350.223C236.209 351.13 236.065 352.03 235.879 352.921C235.495 354.701 234.87 356.433 233.989 358.04C233.776 358.446 233.534 358.835 233.294 359.228C233.033 359.606 232.787 359.997 232.502 360.361C231.956 361.107 231.338 361.802 230.687 362.472C229.377 363.806 227.873 364.968 226.27 366.025C228.063 365.337 229.757 364.36 231.303 363.16C232.066 362.549 232.8 361.889 233.457 361.152C234.128 360.427 234.733 359.637 235.269 358.8C236.349 357.13 237.147 355.27 237.634 353.334C237.883 352.366 238.051 351.379 238.145 350.381C238.197 349.883 238.217 349.381 238.224 348.878C238.227 348.626 238.224 348.373 238.215 348.118C238.206 347.878 238.193 347.658 238.166 347.39C238.143 345.352 237.923 343.297 237.413 341.293L237.307 340.898C237.506 340.886 237.705 340.871 237.907 340.851C238.521 340.787 239.133 340.685 239.733 340.513C240.328 340.339 240.923 340.094 241.418 339.695C241.663 339.494 241.875 339.251 242.018 338.975C242.163 338.7 242.235 338.399 242.247 338.105C242.098 338.685 241.692 339.127 241.2 339.361Z" fill="black"/>
    <path d="M154.803 340.639C155.298 340.879 155.853 340.972 156.408 341.004C156.965 341.034 157.529 341 158.088 340.931C158.436 340.887 158.792 340.827 159.136 340.755C159.271 340.369 159.432 339.99 159.584 339.61C159.771 339.19 159.972 338.776 160.186 338.37C160.103 338.278 160.022 338.185 159.941 338.09C159.716 337.827 159.504 337.555 159.3 337.279C158.894 336.726 158.532 336.144 158.217 335.541C157.896 334.943 157.648 334.306 157.451 333.665C157.249 333.024 157.155 332.357 157.104 331.704C157.287 332.337 157.506 332.949 157.82 333.514C158.131 334.079 158.477 334.616 158.886 335.105C159.288 335.598 159.726 336.057 160.193 336.48C160.427 336.69 160.666 336.894 160.913 337.085C160.918 337.09 160.925 337.095 160.931 337.099C160.983 337.019 161.032 336.936 161.087 336.857C162.268 335.127 163.802 333.634 165.584 332.581C167.364 331.545 169.344 330.838 171.362 330.754C169.425 331.266 167.646 332.185 166.119 333.37C164.586 334.551 163.33 336.028 162.373 337.668C161.894 338.489 161.508 339.361 161.164 340.247C161.014 340.7 160.841 341.142 160.721 341.605C160.657 341.835 160.584 342.062 160.527 342.294L160.369 342.994C159.951 344.862 159.772 346.792 159.749 348.732L159.748 348.78L159.741 348.844C159.721 349.017 159.702 349.258 159.694 349.474C159.684 349.695 159.68 349.92 159.68 350.145C159.683 350.595 159.699 351.048 159.733 351.501C159.793 352.407 159.937 353.308 160.123 354.199C160.508 355.978 161.132 357.71 162.013 359.317C162.226 359.723 162.469 360.112 162.709 360.505C162.97 360.883 163.215 361.275 163.5 361.638C164.046 362.384 164.665 363.079 165.315 363.749C166.626 365.084 168.13 366.246 169.732 367.302C167.939 366.614 166.245 365.638 164.7 364.438C163.937 363.827 163.202 363.167 162.545 362.43C161.874 361.705 161.269 360.915 160.733 360.078C159.654 358.408 158.856 356.548 158.368 354.612C158.119 353.644 157.951 352.656 157.858 351.659C157.805 351.161 157.785 350.659 157.778 350.156C157.776 349.904 157.778 349.651 157.788 349.396C157.796 349.156 157.809 348.936 157.836 348.668C157.86 346.63 158.08 344.575 158.59 342.571L158.695 342.176C158.496 342.164 158.297 342.149 158.096 342.129C157.482 342.065 156.869 341.963 156.27 341.791C155.674 341.617 155.079 341.372 154.584 340.973C154.34 340.772 154.128 340.529 153.984 340.253C153.839 339.978 153.768 339.677 153.755 339.383C153.905 339.963 154.31 340.405 154.803 340.639Z" fill="black"/>
    <path d="M144.96 398.402C139.199 422.415 133.439 446.428 127.678 470.441C126.447 475.574 125.356 480.739 124.116 485.87C123.467 488.552 122.172 491.899 124.531 494.153C127.078 496.586 133.686 495.624 136.862 495.545C142.503 495.406 148.125 494.808 153.771 494.808C153.771 494.808 135.144 497.052 135.144 481.075" fill="#70A5F2"/>
    <path d="M-36.71 752.641C-43.4025 747.008 -50.2057 740.885 -54.4215 733.1C-58.0558 726.389 -59.4145 718.015 -56.1536 711.117C-52.8928 704.218 -44.1751 699.785 -37.1652 702.826C-32.9039 704.674 -30.2779 708.589 -28.079 712.489C-26.357 715.542 -24.1067 723.445 -20.2726 724.217C-18.0793 724.658 -21.6135 712.841 -21.8794 712.203C-24.4806 705.965 -28.3395 699.886 -29.0285 693.033C-29.5861 687.486 -27.3395 681.185 -22.2193 678.954C-18.0591 677.143 -13.2223 678.428 -9.04598 680.203C0.0635643 684.075 8.18966 690.226 14.3806 697.937C5.66745 685.661 0.941334 670.613 1.07454 655.571C1.11037 651.544 1.51047 647.42 3.24355 643.783C4.97662 640.146 8.25215 637.046 12.2387 636.417C16.8238 635.694 21.4121 638.367 24.2582 642.027C27.1037 645.686 28.547 650.21 29.9364 654.63C31.5156 641.966 35.7558 629.64 42.3027 618.678C44.1993 615.502 46.3582 612.366 49.3995 610.256C52.4407 608.145 56.5463 607.228 59.9137 608.769C63.3817 610.356 65.36 614.208 65.7537 617.994C66.1469 621.781 65.2231 625.567 64.3067 629.263C61.2255 641.685 58.1447 654.108 55.0635 666.531C57.5223 659.324 64.276 653.579 71.8812 652.976C79.4864 652.373 87.3658 657.399 89.3993 664.737C91.7033 673.05 86.7122 681.643 80.7896 687.925C74.8669 694.208 67.6603 699.608 63.8524 707.351C68.2341 704.33 72.793 701.423 77.8856 699.87C82.9783 698.317 88.7287 698.247 93.4231 700.756C99.1956 703.841 102.537 710.61 102.2 717.136C101.863 723.661 98.1667 729.771 92.9794 733.759C87.9818 737.601 81.5975 739.735 77.5691 744.579C86.0149 746.699 93.5646 753.037 95.989 761.384C97.3004 765.898 97.0983 770.798 95.6734 775.279C91.9211 787.079 80.1166 794.974 67.9272 797.279C55.7378 799.583 43.1663 797.209 31.1578 794.098C4.23387 787.123 -21.4885 774.836 -38.4858 752.124" fill="#8DD44F"/>
    <path opacity="0.6" d="M73.4714 762.54C65.4276 764.604 57.1816 765.404 48.8988 765.714C44.9573 765.861 41.0125 765.905 37.0686 765.934C33.0931 765.964 29.0179 766.189 25.413 764.494C25.8576 762.784 26.2793 761.067 26.6826 759.349C28.4538 751.803 30.1272 744.232 31.778 736.657C46.9949 734.554 61.4208 728.526 73.432 718.916C76.2114 716.692 73.3029 711.915 70.4981 714.16C59.6417 722.845 46.7615 728.672 33.0379 730.864C33.2782 729.758 33.5184 728.651 33.7586 727.545C35.5845 719.131 37.3525 710.702 39.0231 702.256C39.3318 702.111 39.6317 701.896 39.9101 701.593C43.6978 697.471 49.5672 695.079 54.2698 692.129C59.2431 689.01 64.0969 685.709 68.8468 682.26C71.7471 680.154 68.828 675.387 65.9131 677.503C60.8756 681.161 55.7195 684.651 50.4307 687.937C47.2893 689.89 43.808 691.607 40.6712 693.719C42.5839 683.584 44.3339 673.42 45.8272 663.213C46.3435 659.683 40.8875 658.419 40.3657 661.987C38.7282 673.181 36.7839 684.324 34.6516 695.432C33.3811 694.449 32.2488 693.227 31.1459 692.151C29.5033 690.548 27.9109 688.894 26.4102 687.157C23.2532 683.503 20.6097 679.406 18.9566 674.86C17.731 671.49 12.3706 673.098 13.6021 676.485C15.602 681.985 18.742 686.794 22.5568 691.209C25.6358 694.773 29.2076 698.955 33.5175 701.267C31.9314 709.278 30.2553 717.272 28.5277 725.254C28.2154 726.697 27.9008 728.139 27.5866 729.582C16.0306 720.98 5.62252 710.821 -3.25322 699.489C-5.4516 696.683 -10.2365 699.588 -8.02068 702.417C1.85872 715.03 13.3426 726.083 26.2949 735.497C24.7915 742.354 23.267 749.206 21.7006 756.048C21.2022 758.226 20.6837 760.399 20.1288 762.56C3.46913 753.703 -11.8644 742.656 -25.5375 729.64C-28.1479 727.155 -31.9976 731.211 -29.3908 733.693C-15.0761 747.319 1.09668 758.898 18.6089 768.069C16.7306 774.367 14.3614 780.489 10.9559 786.201C9.113 789.292 14.055 791.914 15.8933 788.83C19.4242 782.907 21.9147 776.516 23.8885 769.951C27.1525 771.288 30.7316 771.518 34.3076 771.534C38.9129 771.555 43.5274 771.485 48.1299 771.332C57.2128 771.028 66.2787 770.148 75.0989 767.885C78.5958 766.986 76.956 761.646 73.4714 762.54Z" fill="#69C718"/>
    <path d="M71.6177 715.104C75.3563 714.458 79.347 715.432 82.3648 717.726C85.4731 720.09 87.4547 723.688 88.5511 727.431C89.3697 730.224 89.7385 733.119 89.9912 736.024C91.405 731.932 92.9066 727.871 94.568 723.872C94.8762 723.13 95.1922 722.391 95.5114 721.654C94.2772 720.57 93.7076 719.189 93.1716 717.443C91.4385 711.804 90.8676 705.638 92.7155 700.036C94.5629 694.434 99.1351 689.531 104.922 688.334C106.618 687.983 108.492 687.979 109.959 688.897C110.719 689.372 111.318 690.062 111.844 690.786C114.424 694.333 115.445 698.968 114.595 703.267C113.72 707.696 110.983 711.585 107.645 714.631C104.554 717.451 100.949 719.633 97.3318 721.749C97.3373 721.876 97.3143 722.013 97.2528 722.154C96.0259 724.977 94.8877 727.836 93.8078 730.716C95.9101 728.512 98.0938 726.383 100.59 724.647C103.796 722.417 107.6 720.853 111.507 720.957C115.3 721.057 119.021 722.795 121.528 725.636C122.039 726.216 122.509 726.851 122.766 727.579C123.263 728.988 122.904 730.563 122.286 731.923C120.178 736.563 115.17 739.479 110.088 739.971C105.005 740.462 99.9055 738.813 95.4715 736.287C94.2648 735.599 93.302 734.942 92.6231 733.949C91.58 736.861 90.5874 739.792 89.6269 742.732C88.0486 747.565 86.5461 752.422 85.006 757.267C87.1777 754.979 89.428 752.76 92.0136 750.961C95.2193 748.732 99.0235 747.167 102.93 747.271C106.723 747.371 110.444 749.109 112.951 751.951C113.463 752.53 113.932 753.166 114.189 753.894C114.686 755.303 114.328 756.877 113.71 758.237C111.602 762.878 106.593 765.793 101.511 766.285C96.4292 766.777 91.3292 765.128 86.8957 762.601C85.689 761.914 84.7258 761.257 84.0473 760.264C83.6803 761.401 83.3115 762.537 82.9362 763.672C81.024 769.454 78.979 775.199 76.6107 780.812C78.4669 778.91 80.4071 777.097 82.5853 775.581C85.791 773.351 89.5952 771.787 93.5014 771.891C97.2941 771.991 101.015 773.729 103.522 776.57C104.034 777.15 104.503 777.785 104.76 778.514C105.257 779.922 104.898 781.497 104.281 782.857C102.173 787.498 97.1641 790.413 92.0821 790.905C87 791.397 81.8999 789.748 77.466 787.221C76.3319 786.575 75.4127 785.957 74.7426 785.061C72.0522 790.919 68.96 796.602 65.3174 801.927C61.4301 807.611 56.8832 812.849 51.6192 817.306C50.9541 817.87 50.2765 818.419 49.5898 818.956C48.6775 819.669 47.6477 818.197 48.5572 817.485C53.9315 813.283 58.579 808.235 62.5693 802.718C65.3092 798.93 67.7345 794.927 69.9168 790.796C69.0771 790.884 68.2035 790.793 67.2228 790.636C62.1811 789.832 57.1716 787.926 53.5208 784.364C49.87 780.802 47.7993 775.397 49.0721 770.463C49.4451 769.017 50.1548 767.566 51.4271 766.779C52.0854 766.372 52.8502 766.171 53.6127 766.04C57.3512 765.394 61.3419 766.368 64.3597 768.662C67.4685 771.025 69.4496 774.623 70.5465 778.366C71.3439 781.088 71.7142 783.905 71.9664 786.734C72.2631 786.12 72.5557 785.505 72.8432 784.887C75.6961 778.746 78.0838 772.406 80.2661 766.001C79.1375 766.324 77.9947 766.233 76.652 766.018C71.6104 765.213 66.6009 763.308 62.9501 759.746C59.2993 756.184 57.2285 750.779 58.5014 745.845C58.8743 744.399 59.584 742.948 60.8564 742.161C61.5142 741.754 62.2794 741.553 63.0419 741.422C66.7804 740.776 70.7711 741.75 73.789 744.044C76.8978 746.407 78.8789 750.005 79.9758 753.748C80.8118 756.602 81.1788 759.559 81.4314 762.528C83.4199 756.495 85.2747 750.419 87.2186 744.373C87.7184 742.818 88.2254 741.266 88.7408 739.717C87.6448 740.007 86.5305 739.913 85.2283 739.705C80.1866 738.9 75.1771 736.995 71.5263 733.433C67.8755 729.871 65.8048 724.466 67.0776 719.532C67.4506 718.086 68.1603 716.635 69.4327 715.849C70.09 715.437 70.8548 715.236 71.6177 715.104Z" fill="#FFB425"/>
    <path d="M423.211 704.509C407.024 688.199 384.105 716.791 372.635 737.042C377.525 714.712 378.633 685 357.999 685C337.364 685 338.474 714.712 343.363 737.042C331.897 716.791 308.972 688.199 292.79 704.509C271.254 726.205 328.638 759.939 340.394 762.476C344.504 763.367 347.47 762.55 348.934 761.079C349.504 760.499 349.969 759.696 350.279 758.684C350.521 759.149 350.756 759.568 350.977 759.912C353.261 763.461 355.929 765 357.999 765C360.071 765 362.738 763.461 365.022 759.912C365.243 759.568 365.478 759.149 365.72 758.684C366.03 759.696 366.495 760.499 367.064 761.079C368.529 762.55 371.495 763.367 375.604 762.476C387.36 759.939 444.744 726.205 423.211 704.509Z" fill="#56B9AA"/>
    <path d="M281.455 708.727C278.006 706.443 277.055 701.795 279.331 698.341C281.611 694.888 286.253 693.936 289.702 696.215C293.151 698.494 294.101 703.142 291.826 706.6C289.55 710.054 284.904 711.005 281.455 708.727ZM321 709.445C320.753 709.497 321.494 705.601 317.765 702.133C312.905 697.561 302.957 696.724 296.306 698.746C301.783 694.94 306.999 688.071 306.852 681.724C306.672 676.977 303.731 675.098 303.674 674.817C303.579 674.964 302.548 674.137 300.177 674.013C290.291 673.49 284.058 689.041 284.562 691.696C282.348 684.308 275.302 676.073 268.737 679.869L268.623 679.917C263.919 684.598 266.993 691.681 271.706 696.415C262.447 697.4 252.366 702.98 254.223 712.195C259.52 721.376 273.359 717.356 281.217 709.764C278.884 716.015 279.293 726.038 284.775 729.658C286.832 731.019 288.6 730.886 288.776 731C288.871 730.848 291.683 730.596 293.683 727.561C296.595 723.141 295.802 716.105 293.474 710.92C300.116 716.343 313.817 719.545 319.442 712.366C320.658 710.815 320.895 709.607 321 709.445Z" fill="#F2E43B"/>
    <path d="M353.128 692.025C350.348 690.182 349.582 686.431 351.416 683.644C353.254 680.857 356.995 680.089 359.775 681.928C362.555 683.767 363.32 687.518 361.486 690.309C359.652 693.096 355.907 693.864 353.128 692.025ZM385 692.605C384.801 692.647 385.398 689.503 382.392 686.704C378.475 683.014 370.458 682.339 365.097 683.97C369.512 680.899 373.716 675.355 373.597 670.234C373.452 666.402 371.082 664.886 371.036 664.659C370.959 664.778 370.128 664.11 368.218 664.01C360.249 663.588 355.226 676.138 355.632 678.281C353.847 672.318 348.169 665.673 342.877 668.736L342.785 668.775C338.995 672.553 341.472 678.269 345.271 682.089C337.808 682.884 329.683 687.387 331.18 694.824C335.449 702.233 346.603 698.989 352.936 692.862C351.056 697.907 351.385 705.996 355.804 708.917C357.462 710.015 358.886 709.908 359.028 710C359.105 709.877 361.371 709.674 362.983 707.224C365.331 703.658 364.691 697.98 362.815 693.795C368.168 698.171 379.211 700.755 383.744 694.962C384.724 693.71 384.916 692.735 385 692.605Z" fill="#F2E43B"/>
    <path d="M289.632 696.24C286.176 693.96 281.525 694.912 279.24 698.368C276.96 701.824 277.912 706.475 281.368 708.76C284.824 711.04 289.479 710.088 291.76 706.632C294.04 703.171 293.088 698.521 289.632 696.24Z" fill="#F681C6"/>
    <path d="M359.305 681.992C356.541 680.168 352.82 680.93 350.992 683.695C349.168 686.459 349.93 690.18 352.695 692.008C355.459 693.832 359.184 693.07 361.008 690.305C362.832 687.537 362.07 683.816 359.305 681.992Z" fill="#F681C6"/>
    <path d="M376.716 274.06C390.891 270.593 404.702 280.429 406.203 294.56C430.611 304.887 423.004 341 396.674 341H315.372C301.934 341 291 330.153 291 316.817C291 305.237 299.243 295.535 310.212 293.181C313.311 286.785 319.512 282.141 326.867 281.18C333.014 258.164 364.136 253.542 376.716 274.06Z" fill="white"/>
    <path d="M47.9796 9.46868C58.2286 6.95468 68.2153 14.0864 69.3004 24.3313C86.9496 31.8179 81.4489 58 62.4102 58H3.62269C-6.09405 58 -14 50.1356 -14 40.4671C-14 32.0719 -8.03968 25.0379 -0.108196 23.3315C2.13269 18.6943 6.61643 15.3271 11.9349 14.6302C16.3796 -2.05601 38.8828 -5.40692 47.9796 9.46868Z" fill="white"/>
    <path d="M74.095 285.674C74.7737 283.625 76.4638 282.248 78.4052 281.428C79.9338 280.783 81.5981 280.475 83.2411 280.301C84.6196 280.155 89.2549 279.093 89.8575 280.771C90.3722 282.205 89.2932 283.497 89.6381 284.859C90.024 286.379 92.0046 286.529 90.3498 288.415C89.6263 289.241 88.5509 289.701 87.674 290.344C85.9344 291.62 83.9264 292.546 81.8828 293.221C81.5955 293.315 81.2987 293.393 80.991 293.451C76.5232 294.278 72.6688 289.979 74.095 285.674Z" fill="#EA6078"/>
    <path d="M51.9806 284.019C52.5953 282.18 53.2638 280.378 54.0249 278.645C57.0071 271.851 62.5529 270.133 69.1901 268.716C68.0223 267.801 67.0613 266.678 66.9581 265.118C66.8777 263.903 67.4518 262.548 68.5998 262.133C69.1541 261.932 69.7758 261.973 70.3354 262.159C71.4715 262.534 72.354 263.469 72.9205 264.521C73.5026 265.602 73.6717 266.856 74.2014 267.919C75.5538 267.255 77.0243 265.141 78.7648 266.16C81.1762 267.573 76.8501 270.404 75.9301 271.228C77.0833 271.932 78.0568 272.87 79.0029 273.827C81.2161 276.067 82.588 278.973 82.7228 282.133C83.2792 295.151 70.3417 304.8 58.1791 304.186C56.1312 304.082 54.1024 303.757 52.1089 303.283C49.8017 302.735 48.296 301.857 45.9288 302.478C44.1734 302.938 42.4474 303.604 40.7213 304.162C38.0076 305.041 35.2942 305.92 32.5804 306.798L32 296.356C34.4357 296.755 36.8715 297.154 39.3072 297.553C41.0498 297.838 42.7923 298.124 44.5352 298.409C47.9801 298.973 47.9533 297.471 48.8771 294.361C49.902 290.911 50.8382 287.434 51.9806 284.019Z" fill="#EF9DB6"/>
    <path d="M62.9966 281.881C62.2991 279.148 60.2216 277.198 57.7654 275.952C55.8312 274.972 53.6896 274.419 51.5632 274.042C49.7791 273.726 43.8329 271.92 42.8937 274.053C42.091 275.876 43.3801 277.658 42.8056 279.402C42.1636 281.349 39.5675 281.364 41.5525 283.975C42.4205 285.117 43.7801 285.815 44.8648 286.734C47.0162 288.555 49.5496 289.945 52.1522 291.012C52.5179 291.161 52.8978 291.29 53.2939 291.393C59.0439 292.877 64.4625 287.624 62.9966 281.881Z" fill="#EA6078"/>
    <path d="M74.5535 278.205C75.0043 279.729 74.3699 281.26 73.1365 281.623C71.9031 281.986 70.5378 281.044 70.087 279.519C69.6362 277.994 70.2707 276.464 71.5041 276.101C72.7375 275.738 74.1027 276.68 74.5535 278.205Z" fill="#42210B"/>
    <path d="M32.173 298.907L32.1343 299.408L38.2137 299.876L38.2524 299.375L32.173 298.907Z" fill="#EA6078"/>
    <path d="M37.0067 302.757L32.3745 303.607L32.4656 304.101L37.0978 303.251L37.0067 302.757Z" fill="#EA6078"/>
    <path d="M80.4679 279.691L86.9642 280.473L81.2614 283.994C81.2614 283.994 78.607 282.813 80.4679 279.691Z" fill="#FDD02F"/>
    <path d="M65.6237 300.484C65.4034 300.956 65.1119 301.294 64.7992 301.591C64.4853 301.886 64.14 302.121 63.7733 302.315C63.4056 302.508 63.0158 302.658 62.5947 302.749C62.1725 302.838 61.7283 302.885 61.2129 302.797C61.4325 302.323 61.7234 301.985 62.0363 301.688C62.3503 301.394 62.6956 301.159 63.0633 300.966C63.4316 300.775 63.8214 300.625 64.2426 300.534C64.6653 300.445 65.1092 300.397 65.6237 300.484Z" fill="#EA6078"/>
    <path d="M77.0553 292.882C76.835 293.354 76.5435 293.691 76.2309 293.988C75.9169 294.283 75.5717 294.518 75.2049 294.712C74.8372 294.905 74.4474 295.055 74.0263 295.146C73.6042 295.235 73.16 295.283 72.6445 295.194C72.8642 294.72 73.155 294.382 73.468 294.086C73.7819 293.791 74.1272 293.556 74.4949 293.364C74.8633 293.173 75.2531 293.022 75.6745 292.932C76.097 292.843 76.5405 292.795 77.0553 292.882Z" fill="#EA6078"/>
    <path d="M68.5145 295.23C68.2915 295.701 67.998 296.037 67.6838 296.332C67.3682 296.625 67.0216 296.858 66.6539 297.05C66.2852 297.24 65.8947 297.388 65.4729 297.477C65.0502 297.564 64.6059 297.609 64.0908 297.517C64.3131 297.045 64.6059 296.708 64.9205 296.413C65.2361 296.121 65.5827 295.888 65.9514 295.697C66.3208 295.508 66.7116 295.36 67.1334 295.271C67.5565 295.185 68.0003 295.14 68.5145 295.23Z" fill="#EA6078"/>
    <path d="M73.0599 297.137C72.8392 297.61 72.548 297.947 72.2354 298.244C71.9215 298.539 71.5762 298.773 71.2095 298.968C70.8418 299.16 70.452 299.311 70.0312 299.402C69.6087 299.491 69.1649 299.538 68.6494 299.45C68.869 298.976 69.1599 298.638 69.4729 298.341C69.7868 298.047 70.1321 297.812 70.4998 297.619C70.8681 297.428 71.258 297.278 71.6794 297.187C72.1015 297.098 72.5454 297.05 73.0599 297.137Z" fill="#EA6078"/>
    </svg>
    