<svg width="342" height="165" viewBox="0 0 342 165" fill="none" xmlns="http://www.w3.org/2000/svg">
<path d="M327.155 149.143L333.111 201.559C336.671 204.405 340.467 206.96 344.474 209.143C345.349 209.625 346.223 210.093 347.108 210.529C368.225 221.108 392.017 220.971 411.257 210.177C409.962 210.325 408.675 210.425 407.385 210.497C404.98 209.414 397.865 205.747 394.549 202.945C392.236 204.387 388.612 206.232 385.596 207.393C383.041 205.119 380.103 201.976 378.313 199.749C375.778 200.544 371.849 201.408 368.656 201.8C366.696 198.996 364.543 195.273 363.298 192.714C361.267 192.825 358.425 192.76 355.76 192.54C354.931 192.471 354.116 192.385 353.345 192.292C352.047 189.145 350.762 185.054 350.092 182.309C347.436 181.776 343.442 180.633 340.351 179.419C339.745 176.056 339.366 171.802 339.315 168.991C336.791 167.786 333.072 165.642 330.265 163.648C330.415 160.246 330.991 155.988 331.556 153.225C330.251 152.24 328.694 150.745 327.155 149.143Z" fill="#216D44"/>
<path d="M332.6 96.5485V168.643H335.92C337.699 166.063 339.877 162.892 341.389 160.684L335.43 152.056C336.898 149.938 340.959 143.993 341.3 143.504C339.655 141.119 337.224 137.591 335.341 134.893C337.194 132.195 339.596 128.713 341.211 126.326L335.268 117.715C337.105 115.017 339.507 111.533 341.137 109.162C339.106 106.228 332.6 96.5485 332.6 96.5485Z" fill="#25784E"/>
<path d="M284.146 95.5843V168.643H333.994V95.5843C333.994 85.7728 326.404 77.7391 317.126 77.7391H300.999C291.736 77.7391 284.146 85.7728 284.146 95.5843Z" fill="#2C885B"/>
<path d="M284.146 104.049V168.643H315.792V121.908C315.792 118.856 315.066 115.965 313.761 113.446C313.213 112.379 312.547 111.357 311.806 110.423C308.723 106.525 304.082 104.049 298.939 104.049H284.146Z" fill="#8BC156"/>
<path d="M284.142 110.423V113.443H313.76C313.212 112.37 312.55 111.36 311.806 110.423H284.142Z" fill="#2C885B"/>
<path d="M284.142 127.158V130.178H315.797V127.158H284.142Z" fill="#2C885B"/>
<path d="M284.142 143.895V146.929H315.797V143.895H284.142Z" fill="#2C885B"/>
<path d="M284.142 160.646V163.667H315.797V160.646H284.142Z" fill="#2C885B"/>
<path d="M253.42 107.769C262.343 114.66 273.223 118.144 284.146 117.921V101.263C274.69 103.173 264.774 102.241 255.703 98.4004L253.42 107.769Z" fill="#2C885B"/>
<path d="M254.292 97.5357C253.1 93.1758 249.171 90.2182 244.784 90.1441C244.126 90.1325 243.841 90.9507 244.359 91.3563C245.463 92.2209 246.41 93.2546 247.171 94.4089C247.5 94.9073 247.063 95.54 246.475 95.4404C243.433 94.9258 240.262 95.8367 237.954 97.9831C237.465 98.4397 237.82 99.2277 238.484 99.1605C240.356 98.9681 242.237 99.1907 243.994 99.7979C244.633 100.02 244.57 100.98 243.905 101.098C242.039 101.432 240.269 102.292 238.833 103.629C238.349 104.081 238.711 104.867 239.37 104.8C240.681 104.665 241.996 104.735 243.271 104.997C243.84 105.115 243.996 105.845 243.535 106.198C242.167 107.243 241.065 108.643 240.376 110.289C240.13 110.877 240.806 111.41 241.359 111.093C244.369 109.361 247.978 108.909 251.36 109.892C251.44 109.915 251.516 109.955 251.582 110.008C252.973 111.093 254.795 111.461 256.501 110.998C258.204 110.537 259.587 109.301 260.238 107.667C260.272 107.581 260.291 107.489 260.295 107.396C260.442 103.395 258.216 99.6913 254.627 97.939C254.462 97.8579 254.341 97.7119 254.292 97.5357Z" fill="#2C885B"/>
<path d="M364.717 107.762C351.089 118.285 332.931 120.86 316.915 114.542C315.483 108.265 317.282 101.685 321.711 97.0095C334.42 103.432 349.31 103.942 362.43 98.4072L364.717 107.762Z" fill="#2C885B"/>
<path d="M338.443 96.9124C359.786 95.765 364.887 66.4372 345.262 58.1045L269.287 33.5399C270.939 24.1386 274.94 13.4696 265.92 11.8842C259.749 10.8017 256.625 13.3838 255.937 17.301C253.582 30.7005 254.809 28.8578 251.394 27.7545C253.059 18.2768 257.086 7.57295 248.047 5.98522C237.246 4.0869 237.967 11.949 236.062 22.7966L233.299 21.9042C219.633 31.375 217.341 51.0443 229.357 63.4472C254.644 80.3096 283.715 92.3972 338.443 96.9124Z" fill="#2C885B"/>
<path d="M243.232 20.0848C243.863 16.4945 243.8 13.2588 243.186 11.4207C243.779 10.672 244.382 10.2803 244.937 10.3777C246.618 10.6744 247.216 15.259 246.274 20.6202C245.332 25.9814 243.207 30.0887 241.527 29.792C240.972 29.6947 240.538 29.1222 240.235 28.2159C241.439 26.6977 242.601 23.6775 243.232 20.0848Z" fill="#171717"/>
<path d="M261.105 25.9862C261.736 22.3958 261.673 19.1601 261.059 17.3197C261.652 16.5711 262.256 16.1817 262.81 16.279C264.491 16.5734 265.089 21.1604 264.147 26.5193C263.205 31.8805 261.08 35.9877 259.4 35.6934C258.845 35.596 258.411 35.0235 258.108 34.1172C259.312 32.5967 260.474 29.5765 261.105 25.9862Z" fill="#171717"/>
<path d="M322.988 54.1039L351.926 62.9836L360.697 34.3998C363.149 26.4102 358.659 17.9431 350.668 15.4931C342.677 13.0408 334.211 17.5305 331.759 25.5201L322.988 54.1039Z" fill="#2C885B"/>
<path d="M331.737 47.6093C332.853 49.7139 334.45 51.3874 336.323 52.5533C339.88 54.8364 344.425 55.2119 348.285 53.1652C349.123 52.7202 349.865 52.1986 350.545 51.596C354.634 47.9569 355.764 41.6547 352.954 36.3561C349.673 30.1674 342.276 27.6734 336.414 30.7816C330.553 33.8899 328.455 41.4206 331.737 47.6093Z" fill="white"/>
<path d="M336.324 52.5533C339.88 54.8364 344.426 55.2119 348.286 53.1652C349.124 52.7202 349.865 52.1986 350.545 51.596C350.715 50.0986 350.436 48.5086 349.663 47.0507C347.689 43.3282 343.218 41.8262 339.684 43.7014C336.548 45.3633 335.196 49.1228 336.324 52.5533Z" fill="#171717"/>
<path d="M290.984 44.2831L319.922 53.1628L328.693 24.5791C331.145 16.5894 326.655 8.12228 318.664 5.66999C310.673 3.2177 302.207 7.70741 299.755 15.6994L290.984 44.2831Z" fill="#2C885B"/>
<path d="M299.732 37.7864C300.849 39.8933 302.445 41.5644 304.319 42.7326C307.875 45.0134 312.42 45.3912 316.281 43.3423C317.118 42.8996 317.86 42.3781 318.54 41.7731C322.629 38.1341 323.76 31.8318 320.949 26.5332C317.668 20.3468 310.271 17.8505 304.409 20.9611C298.548 24.0693 296.45 31.6 299.732 37.7864Z" fill="white"/>
<path d="M304.319 42.7326C307.875 45.0134 312.42 45.3912 316.281 43.3423C317.118 42.8996 317.86 42.3781 318.54 41.7731C318.71 40.2781 318.43 38.6857 317.657 37.2301C315.683 33.5076 311.213 32.0056 307.679 33.8784C304.543 35.5427 303.191 39.3022 304.319 42.7326Z" fill="#171717"/>
<path d="M256.601 53.8698C257.551 50.7755 259.312 48.1262 261.612 45.9938C263.351 53.5013 269.649 60.2393 278.509 62.9582C287.369 65.677 296.362 63.6327 302.013 58.392C302.721 61.4469 302.693 64.6293 301.744 67.7237C299.807 74.0329 294.559 78.5388 288.03 80.4023C285 76.7842 280.754 73.8683 275.642 72.2991C270.531 70.7299 265.38 70.7647 260.841 72.0604C256.483 66.8545 254.664 60.1813 256.601 53.8698Z" fill="#171717"/>
<path d="M288.03 80.4024C283.492 81.7004 278.34 81.7328 273.228 80.166C268.117 78.5968 263.871 75.6786 260.841 72.0604C265.379 70.7647 270.531 70.73 275.642 72.2992C280.754 73.8683 285 76.7842 288.03 80.4024Z" fill="#EC1C26"/>
<path d="M23.0173 137.595C12.2046 138.029 1.13704 134.859 -8.19837 127.773C-17.2662 120.888 -30.5715 125.372 -33.7572 136.3C-34.631 139.299 -35.0451 142.393 -34.9961 145.576C-34.8889 152.545 -30.0573 158.576 -23.436 160.759C-5.83059 166.563 12.3811 165.005 27.9219 157.657C30.4331 156.47 32.3856 154.349 33.3479 151.742C35.9536 144.685 30.5339 137.293 23.0173 137.595Z" fill="#E9591B"/>
<path d="M10.7116 163.08L26.7792 141.992L38.825 151.168L19.6936 176.281C19.6124 177.784 19.157 179.191 18.2611 180.367C17.5023 181.362 16.5016 182.1 15.3457 182.594L-4.23193 167.678C-4.06213 166.433 -3.61701 165.272 -2.85817 164.275C-0.168906 160.746 5.49357 160.392 10.7116 163.08Z" fill="#F4701F"/>
<path d="M61.2006 177.681V151.168H46.057V182.738C45.2091 183.983 44.72 185.377 44.72 186.855C44.72 188.108 45.0691 189.302 45.689 190.396H70.3015C70.9209 189.302 71.2705 188.108 71.2705 186.855C71.2705 182.419 66.9807 178.705 61.2006 177.681Z" fill="#F4701F"/>
<path d="M32.1501 103.122C30.8389 99.2857 26.7156 97.1173 22.8526 98.345C12.4524 101.644 1.31152 102.248 -9.48439 99.9287L-12.6252 114.691C0.651935 117.524 14.3669 116.821 27.1977 112.801C31.2756 111.522 33.5327 107.165 32.1501 103.122Z" fill="#F4701F"/>
<path d="M52.7325 103.122C54.0435 99.2857 58.167 97.1173 62.0298 98.345C72.4302 101.644 83.5711 102.248 94.367 99.9287L97.5079 114.691C84.2307 117.524 70.5157 116.821 57.6849 112.801C53.607 111.522 51.3499 107.165 52.7325 103.122Z" fill="#F4701F"/>
<path d="M93.7275 113.546C90.1223 110.298 88.8547 105.569 90.2721 101.888C90.0073 100.263 90.767 98.0861 92.4273 96.2435C94.7603 93.6522 97.948 92.7201 99.5468 94.1592C100.274 94.8152 100.526 95.8551 100.388 97.0311C102.345 97.4604 104.293 98.4335 105.974 99.9482C110.444 103.974 111.326 110.281 107.944 114.035C104.563 117.79 98.1977 117.572 93.7275 113.546Z" fill="#F4701F"/>
<path d="M73.4019 117.669V132.906C73.4019 141.202 69.6586 148.543 63.9023 153.043C60.1422 155.989 55.534 157.723 50.5595 157.723H34.3219C29.3475 157.723 24.739 155.989 20.9791 153.043C15.2228 148.543 11.4795 141.202 11.4795 132.906V117.669C11.4795 102.631 22.6927 90.4485 36.5345 90.4485H48.3467C62.1887 90.4485 73.4019 102.631 73.4019 117.669Z" fill="#F4701F"/>
<path d="M65.8167 132.96V144.456C65.8167 147.565 65.1181 150.476 63.9035 153.043C60.1434 155.989 55.5352 157.723 50.5608 157.723H34.3231C29.3487 157.723 24.7402 155.989 20.9803 153.043C19.7658 150.476 19.0671 147.565 19.0671 144.456V132.96C19.0671 121.609 27.5352 112.409 37.9833 112.409H46.9005C57.3484 112.409 65.8167 121.609 65.8167 132.96Z" fill="#E9591B"/>
<path d="M83.0807 23.5744C85.0785 16.4607 79.7295 12.2857 73.7227 16.2708L58.0505 26.6641L52.7305 22.5107L84.3449 1.54503C90.3517 -2.43795 95.7007 1.73706 93.703 8.8486L83.1884 46.2834L77.8683 42.1322L83.0807 23.5744Z" fill="#F4701F"/>
<path d="M58.0498 26.6643L73.7219 16.271C79.7288 12.2859 85.0778 16.4609 83.08 23.5746L77.8676 42.1323L58.0498 26.6643Z" fill="#E9591B"/>
<path d="M1.80207 23.5744C-0.195461 16.4607 5.15351 12.2857 11.1601 16.2708L26.8325 26.6641L32.1526 22.5107L0.53791 1.54503C-5.46871 -2.43795 -10.8177 1.73706 -8.82015 8.8486L1.69462 46.2834L7.01468 42.1322L1.80207 23.5744Z" fill="#F4701F"/>
<path d="M26.8321 26.6643L11.1597 16.271C5.15312 12.2859 -0.195855 16.4609 1.80168 23.5746L7.01429 42.1323L26.8321 26.6643Z" fill="#E9591B"/>
<path d="M94.1291 68.1662C94.1291 94.0945 70.9877 97.8811 42.4414 97.8811C13.8953 97.8811 -9.24609 94.0945 -9.24609 68.1662C-9.24609 42.238 13.8953 21.2184 42.4414 21.2184C70.9877 21.2184 94.1291 42.238 94.1291 68.1662Z" fill="#F4701F"/>
<path d="M51.81 61.5011H33.1784C32.2034 61.4968 31.5947 62.2541 31.5233 63.115C31.4888 62.6489 31.5658 62.1699 31.9285 61.7729L40.3953 52.4865C41.5569 51.2114 43.5107 51.22 44.6624 52.5038L53.0573 61.8614C53.417 62.2627 53.4904 62.7417 53.4524 63.2078C53.3874 62.3447 52.785 61.5054 51.81 61.5011Z" fill="#E9591B"/>
<path d="M33.1774 61.5014H51.8089C52.784 61.5057 53.3864 62.345 53.4513 63.2081C53.4858 63.6741 53.4086 64.1531 53.0461 64.5501L44.5791 73.8387C43.4175 75.1117 41.4637 75.1031 40.312 73.8193L31.9171 64.4638C31.5574 64.0625 31.4841 63.5835 31.5223 63.1153C31.5937 62.2544 32.2023 61.4971 33.1774 61.5014Z" fill="#040606"/>
<path d="M42.4165 74.7881V88.7307" stroke="#141414" stroke-width="0.540294" stroke-miterlimit="10" stroke-linecap="round"/>
<path d="M51.8665 74.7879C49.976 78.5098 46.4545 81.0191 42.4118 81.0191C38.369 81.0191 34.8475 78.5098 32.957 74.7879C32.0252 76.6219 31.4832 78.7471 31.4832 81.0191C31.4832 84.1585 32.5085 87.0195 34.1884 89.2095C36.1918 86.5966 39.1289 84.9374 42.4118 84.9374C45.6946 84.9374 48.6316 86.5966 50.6351 89.2095C52.3148 87.0195 53.3406 84.1585 53.3406 81.0191C53.3406 78.7471 52.7986 76.6219 51.8665 74.7879Z" fill="#040606"/>
<path d="M42.4101 84.9375C39.1273 84.9375 36.1901 86.5967 34.1868 89.2096C36.1901 91.8246 39.1273 93.4817 42.4101 93.4817C45.693 93.4817 48.6299 91.8246 50.6335 89.2096C48.6299 86.5967 45.693 84.9375 42.4101 84.9375Z" fill="#EE2E32"/>
<path d="M52.0164 75.3511C65.8092 66.0668 82.7938 61.3265 97.9151 61.4775C80.338 62.5714 66.3197 67.1176 52.0164 75.3511Z" fill="#171717"/>
<path d="M52.0032 78.4043C66.9249 72.7254 84.0802 71.9832 98.5225 75.5778C81.8647 72.7125 67.6298 73.7266 52.0032 78.4043Z" fill="#171717"/>
<path d="M32.8669 75.2715C19.1461 65.8729 2.1984 60.9901 -12.9233 61.016C4.64493 62.2545 18.6274 66.9171 32.8669 75.2715Z" fill="#171717"/>
<path d="M32.8549 78.3245C17.9776 72.5204 0.828375 71.6358 -13.6411 75.1117C3.03822 72.3845 17.2648 73.5173 32.8549 78.3245Z" fill="#171717"/>
<path d="M11.2834 50.0398C11.2834 42.2939 17.3203 36.0152 24.7671 36.0152C32.2139 36.0152 38.2508 42.2939 38.2508 50.0398" stroke="#171717" stroke-width="1.0475" stroke-miterlimit="10" stroke-linecap="round"/>
<path d="M73.6001 50.0398C73.6001 42.2939 67.5633 36.0152 60.1165 36.0152C52.6696 36.0152 46.6328 42.2939 46.6328 50.0398" stroke="#171717" stroke-width="1.0475" stroke-miterlimit="10" stroke-linecap="round"/>
<path d="M170.999 126.515C189.961 126.515 205.329 145.287 205.329 168.445C205.329 169.104 205.313 169.76 205.289 170.414C212.132 163.07 216.279 153.51 216.279 143.048C216.279 119.89 196.005 101.118 170.999 101.118C145.992 101.118 125.72 119.89 125.72 143.048C125.72 153.51 129.867 163.07 136.71 170.414C136.685 169.76 136.669 169.104 136.669 168.445C136.669 145.287 152.038 126.515 170.999 126.515Z" fill="#8E443F"/>
<path d="M170.999 184.977C184.709 184.977 196.985 179.326 205.289 170.412C205.313 169.758 205.329 169.102 205.329 168.443C205.329 145.285 189.961 126.513 170.999 126.513C152.038 126.513 136.669 145.285 136.669 168.443C136.669 169.102 136.685 169.758 136.71 170.412C145.013 179.326 157.29 184.977 170.999 184.977Z" fill="#F3664F"/>
<path d="M149.862 105.01C137.749 105.53 126.138 100.081 118.796 90.4401C120.139 88.3796 119.365 85.2457 116.903 83.2115C114.297 81.0592 110.819 80.9673 109.134 83.0068C108.338 83.9701 108.102 85.2378 108.331 86.5344C107.015 86.5528 105.814 87.0252 105.018 87.9885C104.222 88.9518 103.986 90.2196 104.214 91.5162C102.899 91.5346 101.698 92.007 100.902 92.9703C99.2163 95.0098 99.962 98.4062 102.568 100.561C104.622 102.257 107.208 102.653 109.041 101.753C118.666 118.543 138.983 126.281 157.48 119.85L149.862 105.01Z" fill="#8E443F"/>
<path d="M192.137 105.01C204.25 105.53 215.862 100.081 223.204 90.4401C221.86 88.3796 222.634 85.2457 225.096 83.2115C227.703 81.0592 231.18 80.9673 232.865 83.0068C233.661 83.9701 233.897 85.2378 233.669 86.5344C234.984 86.5528 236.186 87.0252 236.981 87.9885C237.779 88.9518 238.013 90.2196 237.784 91.5162C239.102 91.5346 240.301 92.007 241.097 92.9703C242.784 95.0098 242.039 98.4062 239.433 100.561C237.377 102.257 234.792 102.653 232.96 101.753C223.332 118.543 203.017 126.281 184.52 119.85L192.137 105.01Z" fill="#8E443F"/>
<path d="M216.797 33.2337C217.98 26.5458 214.613 19.4931 209.109 15.535C204.284 11.9863 197.505 10.7579 192.184 13.4876C187.452 15.9444 184.63 21.9499 186.176 26.9553H153.873C154.283 25.6351 154.372 24.3148 154.235 22.9499C153.826 19.0836 151.369 15.3066 147.867 13.4876C142.543 10.7579 135.764 11.9863 130.896 15.535C125.436 19.4931 122.069 26.5458 123.252 33.2337C124.071 37.8297 127.256 41.9243 131.35 43.9716C128.848 47.9297 126.892 52.2527 125.709 56.7568C124.435 61.4892 123.98 66.4028 124.253 71.2245C125.436 92.4272 141.042 112.811 169.16 112.357C170.207 112.402 171.254 112.402 172.299 112.402C205.969 111.992 221.028 81.5975 214.34 56.7568C213.111 52.2527 211.201 47.9297 208.652 43.9716C212.794 41.9243 215.978 37.8297 216.797 33.2337ZM143.137 21.2674C140.543 19.9472 137.22 20.5404 134.9 22.2675C132.215 24.2255 130.532 27.6377 131.123 30.9134C131.715 34.1445 134.763 36.9189 138.084 36.827L145.728 28.6824C147.138 26.1364 145.73 22.5877 143.137 21.2674ZM205.15 22.2675C202.783 20.5404 199.507 19.9472 196.914 21.2674C194.321 22.5877 192.911 26.1364 194.321 28.6824L201.964 36.827C205.287 36.9189 208.334 34.1445 208.88 30.9134C209.471 27.6377 207.833 24.2255 205.15 22.2675Z" fill="#8E443F"/>
<path d="M205.163 22.2568C202.801 20.5402 199.496 19.9286 196.903 21.2672C194.307 22.6058 192.895 26.1387 194.333 28.6795L201.964 36.8136C205.273 36.9291 208.315 34.1653 208.903 30.9053C209.489 27.648 207.843 24.2043 205.163 22.2568Z" fill="#F3664F"/>
<path d="M138.078 36.8136L145.708 28.6795C147.147 26.1387 145.732 22.6058 143.138 21.2672C140.542 19.9286 137.24 20.5402 134.879 22.2568C132.2 24.2043 130.552 27.648 131.14 30.9053C131.727 34.1653 134.769 36.9291 138.078 36.8136Z" fill="#F3664F"/>
<path d="M196.25 84.8309C196.25 94.6108 184.506 102.535 170.02 102.535C155.534 102.535 143.792 94.6108 143.792 84.8309C143.792 75.0537 155.534 67.1269 170.02 67.1269C184.506 67.1269 196.25 75.0537 196.25 84.8309Z" fill="#F0C42E"/>
<path d="M182.816 70.1192C182.816 74.8884 177.086 78.7546 170.021 78.7546C162.955 78.7546 157.228 74.8884 157.228 70.1192C157.228 65.35 162.955 61.4811 170.021 61.4811C177.086 61.4811 182.816 65.35 182.816 70.1192Z" fill="#1A181A"/>
<path d="M180.226 77.5501C178.186 81.4111 174.386 84.0149 170.023 84.0149C165.661 84.0149 161.863 81.4111 159.824 77.5501C158.818 79.4531 158.233 81.6578 158.233 84.0149C158.233 87.2722 159.338 90.2382 161.152 92.5112C163.312 89.7999 166.483 88.0806 170.023 88.0806C173.567 88.0806 176.735 89.7999 178.898 92.5112C180.709 90.2382 181.816 87.2722 181.816 84.0149C181.816 81.6578 181.231 79.4531 180.226 77.5501Z" fill="#171717"/>
<path d="M170.023 88.0805C166.482 88.0805 163.311 89.7997 161.151 92.5111C163.311 95.2225 166.482 96.9417 170.023 96.9417C173.566 96.9417 176.734 95.2225 178.897 92.5111C176.734 89.7997 173.566 88.0805 170.023 88.0805Z" fill="#EE2E32"/>
<path d="M166.595 51.4678C166.595 58.6649 160.76 64.4998 153.563 64.4998C146.365 64.4998 140.53 58.6649 140.53 51.4678C140.53 44.2708 146.365 38.4359 153.563 38.4359C160.76 38.4359 166.595 44.2708 166.595 51.4678Z" fill="white"/>
<path d="M164.852 51.4677C164.852 55.8091 161.333 59.3289 156.991 59.3289C152.65 59.3289 149.131 55.8091 149.131 51.4677C149.131 47.1264 152.65 43.6066 156.991 43.6066C161.333 43.6066 164.852 47.1264 164.852 51.4677Z" fill="#171717"/>
<path d="M174.695 51.4678C174.695 58.6649 180.53 64.4998 187.727 64.4998C194.927 64.4998 200.762 58.6649 200.762 51.4678C200.762 44.2708 194.927 38.4359 187.727 38.4359C180.53 38.4359 174.695 44.2708 174.695 51.4678Z" fill="white"/>
<path d="M176.438 51.4677C176.438 55.8091 179.958 59.3289 184.3 59.3289C188.641 59.3289 192.161 55.8091 192.161 51.4677C192.161 47.1264 188.641 43.6066 184.3 43.6066C179.958 43.6066 176.438 47.1264 176.438 51.4677Z" fill="#171717"/>
<path d="M144.878 68.8645C144.878 71.7544 141.304 74.0957 136.895 74.0957C132.487 74.0957 128.914 71.7544 128.914 68.8645C128.914 65.9747 132.487 63.6334 136.895 63.6334C141.304 63.6334 144.878 65.9747 144.878 68.8645Z" fill="#DA533D"/>
<path d="M211.135 68.8645C211.135 71.7544 207.563 74.0957 203.153 74.0957C198.746 74.0957 195.171 71.7544 195.171 68.8645C195.171 65.9747 198.746 63.6334 203.153 63.6334C207.563 63.6334 211.135 65.9747 211.135 68.8645Z" fill="#DA533D"/>
</svg>
