<svg width="75" height="74" viewBox="0 0 75 74" fill="none" xmlns="http://www.w3.org/2000/svg">
<path d="M31.3596 4.64478C32.2681 2.01789 35.7094 1.51741 37.3557 3.65747L37.509 3.87329L48.7317 20.8821L69.1077 21.2805H69.1086L69.3733 21.2952C72.0675 21.5433 73.4728 24.7225 71.7444 26.8918L71.7434 26.8928L59.0344 42.8215L64.9534 62.3235L65.0217 62.5793C65.5995 65.1324 63.1931 67.3893 60.6819 66.6477L60.4309 66.5637L41.3528 59.3987L24.634 71.0559H24.6331C22.2813 72.6942 19.0763 70.9242 19.2034 68.0647V68.0637L20.1204 47.7043L3.87329 35.4065L3.87231 35.4075C1.58416 33.6771 2.27958 30.0801 5.03833 29.3176H5.03931L24.6838 23.8987L31.3596 4.64478Z" fill="#27C0FF" stroke="#0B9FD9" stroke-width="4"/>
<path d="M20.0609 46.7976C22.0113 44.1295 26.6037 43.5477 29.4876 44.8436C32.3441 46.1264 32.5325 49.6077 28.5434 51.2183C23.0795 53.4263 17.531 50.2598 20.0609 46.7976Z" fill="#D811AD"/>
<path d="M59.0982 42.8215C56.6507 40.6016 52.0357 40.958 49.4712 42.8083C46.933 44.6408 47.4493 48.0874 51.6816 48.8623C57.478 49.9222 62.2731 45.7018 59.0982 42.8215Z" fill="#D811AD"/>
<path d="M44.5759 38.2827C44.0191 38.3447 43.6174 38.8455 43.6794 39.401C43.9607 41.9607 42.7602 44.9853 39.98 45.5516C38.5469 45.8389 37.4632 45.3012 36.7992 44.7969C35.5175 43.8265 34.6079 42.0847 34.4827 40.3584C34.4422 39.8004 33.9629 39.3629 33.399 39.4213C32.8399 39.4618 32.4214 39.947 32.4619 40.505C32.6312 42.8214 33.8246 45.0842 35.5748 46.4124C36.6656 47.2386 37.89 47.6618 39.1716 47.6618C39.571 47.6618 39.9764 47.6201 40.3841 47.5378C44.3422 46.7319 46.0745 42.6295 45.693 39.1793C45.6334 38.6225 45.1267 38.2231 44.5759 38.2827Z" fill="#0A1640"/>
<path d="M54.5763 32.7225C54.0196 32.7833 53.6178 33.2828 53.6786 33.8384C53.8396 35.3131 53.2566 37.0013 52.0024 37.2731C51.5636 37.3708 51.1535 37.2683 50.7529 36.9703C50.0412 36.4397 49.5083 35.362 49.4272 34.2902C49.3855 33.7323 48.8943 33.3162 48.3399 33.3567C47.782 33.3996 47.3647 33.8861 47.4064 34.444C47.5328 36.1167 48.3519 37.7071 49.5417 38.5952C50.1986 39.0852 50.927 39.3368 51.6817 39.3368C51.9296 39.3368 52.18 39.3094 52.4316 39.2557C54.8911 38.7228 55.9485 35.9533 55.6934 33.6202C55.6338 33.0646 55.1402 32.6557 54.5763 32.7225Z" fill="#0A1640"/>
<path d="M28.6949 35.3597C28.1393 35.4301 27.7471 35.9367 27.8186 36.4923C27.9545 37.5605 27.6493 38.7217 27.0592 39.3846C26.7313 39.7542 26.357 39.933 25.9135 39.933C25.9087 39.933 25.9027 39.933 25.8968 39.933C24.6128 39.9199 23.7007 38.3843 23.5624 36.9072C23.5088 36.3492 23.0236 35.9594 22.4573 35.9928C21.9005 36.0464 21.4904 36.54 21.5429 37.0979C21.7646 39.4358 23.3574 41.9347 25.8753 41.9585C25.8884 41.9585 25.9003 41.9597 25.9146 41.9597C26.9387 41.9585 27.8579 41.5353 28.5721 40.7318C29.558 39.623 30.0385 37.9003 29.8263 36.236C29.7583 35.6816 29.2516 35.2918 28.6949 35.3597Z" fill="#0A1640"/>
</svg>
