<svg width="64" height="64" viewBox="0 0 64 64" fill="none" xmlns="http://www.w3.org/2000/svg">
<path d="M57.9642 22.3936C57.964 22.3756 57.9638 22.3576 57.9636 22.3396C57.9631 22.3037 57.9625 22.2678 57.9618 22.232C57.9593 22.1066 57.9554 21.9819 57.9499 21.858C57.9483 21.8226 57.9467 21.7873 57.9448 21.7521C57.9394 21.6463 57.9329 21.5413 57.9252 21.437C57.9188 21.3502 57.9116 21.2638 57.9036 21.1782C57.9004 21.1439 57.8971 21.1097 57.8936 21.0756C57.8833 20.9735 57.8717 20.8722 57.859 20.7721C57.8569 20.7554 57.8547 20.7387 57.8526 20.7221C57.846 20.6722 57.8392 20.6226 57.832 20.5732C57.8296 20.5568 57.8272 20.5404 57.8248 20.524C57.8199 20.4913 57.8148 20.4587 57.8096 20.4262C57.807 20.4099 57.8044 20.3938 57.8018 20.3776C57.7938 20.3291 57.7855 20.2809 57.777 20.233C57.7685 20.1851 57.7596 20.1376 57.7504 20.0904C57.7412 20.0432 57.7317 19.9964 57.7219 19.9499C57.7153 19.9189 57.7087 19.8881 57.7018 19.8574C57.695 19.8268 57.688 19.7963 57.681 19.7659C57.6739 19.7356 57.6666 19.7054 57.6593 19.6755C57.6482 19.6305 57.6368 19.586 57.6251 19.5418C57.6212 19.5271 57.6172 19.5124 57.6133 19.4978C57.6053 19.4685 57.5972 19.4395 57.589 19.4106C57.5766 19.3673 57.5639 19.3244 57.5509 19.2819C57.5032 19.1263 57.4511 18.9766 57.3945 18.8337L57.3789 18.7949C57.3632 18.7562 57.3472 18.7181 57.3309 18.6805C57.32 18.6554 57.3089 18.6305 57.2977 18.606C57.2865 18.5813 57.2752 18.557 57.2637 18.5329L57.2463 18.4968C57.2288 18.461 57.2109 18.4258 57.1928 18.391L57.1745 18.3565C57.0025 18.0362 56.8001 17.7658 56.5648 17.5584L56.5471 17.5433L56.5434 17.5402L56.5289 17.5285L56.5228 17.5237L56.5099 17.5138L56.5028 17.5085L56.4897 17.4989L56.4824 17.4937L56.4682 17.4838L56.4612 17.479L56.4453 17.4684L56.4392 17.4643C56.424 17.4545 56.4084 17.4447 56.3921 17.435L56.3887 17.4329L56.3675 17.4205L56.3602 17.4164L56.342 17.4061L56.3332 17.4013L56.3158 17.3918L56.3061 17.3866L56.2876 17.3769L56.2791 17.3725L56.2585 17.3621L56.2504 17.3581L56.2288 17.3475L56.2209 17.3437C56.201 17.3341 56.1806 17.3247 56.1596 17.3152L56.1544 17.3129L56.1273 17.3009L56.12 17.2977L56.0962 17.2874L56.0834 17.2821L56.0631 17.2736L56.0502 17.2683L56.0275 17.2591L56.016 17.2545L55.9912 17.2448L55.9809 17.2407L55.9468 17.2277L55.9452 17.2271L55.9081 17.2133L55.8984 17.2097L55.8701 17.1995L55.8579 17.1952L55.8323 17.1861L55.8174 17.1809L55.7929 17.1725L55.7773 17.1672L55.7536 17.1592L55.7359 17.1533L55.7137 17.146L55.6955 17.1401L55.6691 17.1317L55.654 17.1269C55.6401 17.1225 55.6261 17.1181 55.6119 17.1137L55.6099 17.1131C55.5962 17.1088 55.5824 17.1046 55.5686 17.1004L55.5551 17.0964L55.525 17.0874L55.5088 17.0827L55.479 17.074L55.4628 17.0693L55.4356 17.0615L55.4139 17.0553L55.3895 17.0485L55.3687 17.0428L55.3391 17.0347L55.3214 17.0299L55.2856 17.0203L55.2737 17.0171C55.2576 17.0128 55.2413 17.0086 55.2249 17.0043L55.21 17.0004L55.1772 16.992L55.1526 16.9858L55.1276 16.9795L55.1017 16.973L55.0756 16.9665L55.0516 16.9607L55.025 16.9542L54.9985 16.9479L54.9749 16.9422L54.9448 16.9351L54.926 16.9307L54.8927 16.923C54.8754 16.919 54.858 16.915 54.8406 16.911L54.8312 16.9089C54.8167 16.9056 54.8021 16.9023 54.7874 16.899L54.7553 16.8919L54.7345 16.8874L54.6988 16.8796L54.6789 16.8752L54.6462 16.8682L54.6209 16.8628L54.5868 16.8556L54.5687 16.8518L54.5292 16.8436L54.5132 16.8403L54.473 16.832L54.4588 16.8291C54.411 16.8194 54.3625 16.8098 54.3134 16.8002L54.3009 16.7977C54.2844 16.7945 54.2679 16.7913 54.2512 16.7881L54.2441 16.7868C54.2292 16.7839 54.2142 16.7811 54.1992 16.7782L54.1793 16.7744C54.1653 16.7718 54.1512 16.7691 54.1371 16.7665L54.1205 16.7634C54.1058 16.7607 54.0911 16.758 54.0764 16.7553L54.0585 16.752C54.0435 16.7492 54.0284 16.7465 54.0133 16.7437L54.0046 16.7422C53.909 16.7248 53.8111 16.7077 53.711 16.6907L53.7018 16.6891C53.6836 16.6861 53.6654 16.683 53.6471 16.6799L53.6374 16.6783C53.6198 16.6754 53.6022 16.6724 53.5845 16.6695L53.5697 16.6671C53.4764 16.6517 53.3813 16.6365 53.2844 16.6214C53.2521 16.6164 53.2196 16.6114 53.1869 16.6064L53.1857 16.6062C53.157 16.6018 53.1282 16.5975 53.0993 16.5931L53.0878 16.5914C53.059 16.5871 53.03 16.5828 53.0009 16.5785L52.9918 16.5772C52.9642 16.5731 52.9363 16.569 52.9084 16.565L52.9004 16.5638C52.8715 16.5596 52.8423 16.5554 52.8131 16.5512L52.7995 16.5493C52.7699 16.5451 52.7402 16.5409 52.7103 16.5367L52.705 16.536C52.6417 16.5271 52.5778 16.5183 52.5132 16.5095L52.5067 16.5087C52.4084 16.4954 52.3087 16.4822 52.2075 16.4691L52.2029 16.4685C49.8532 16.1654 46.7385 15.9311 43.2244 15.7678C47.2173 13.6434 50.7287 10.6203 48.5777 7.45662C48.5777 7.45662 45.6287 2.38187 39.5282 4.26535C34.1341 5.93075 31.9902 11.7088 31.1531 15.4904C30.9019 15.4897 30.6507 15.4894 30.3995 15.4893C29.5622 11.7077 27.4182 5.9306 22.0247 4.26535C15.9241 2.38184 12.9752 7.45662 12.9752 7.45662C10.8347 10.6049 14.3014 13.6139 18.27 15.7367C11.3566 16.0459 5.9963 16.6479 4.9814 17.5585C3.03037 19.3091 3.34307 25.4285 4.60242 28.3043L4.60423 28.3085C4.61739 28.3384 4.63063 28.3681 4.64396 28.3973L4.64673 28.4033L4.66289 28.4384L4.66756 28.4484L4.68684 28.4893L4.68693 28.4895C4.69422 28.5048 4.70151 28.5199 4.70889 28.535L4.71152 28.5404C4.72645 28.571 4.74151 28.6012 4.7567 28.6309L4.75977 28.6368L4.7796 28.6751L4.78319 28.682L4.8053 28.7237L4.80898 28.7304L4.82747 28.7644L4.83328 28.7749C4.84801 28.8016 4.8628 28.8278 4.87773 28.8535L4.88371 28.8637L4.90197 28.8947L4.90655 28.9024L4.92939 28.9402L4.93336 28.9466L4.95215 28.9768L4.95871 28.9873L4.9814 29.0228L4.98966 29.0347L4.99135 29.0371L5.00042 29.0488L5.00185 29.0505L5.01101 29.0611L5.01273 29.0631L5.02347 29.0745L5.02606 29.0771L5.03724 29.088L5.03814 29.0888L5.05083 29.1002L5.05398 29.1029L5.06737 29.1141L5.06965 29.1159L5.08266 29.126L5.08575 29.1283L5.1008 29.1393L5.10465 29.142L5.12029 29.1527L5.1211 29.1533L5.13866 29.1647L5.14275 29.1672L5.16101 29.1784L5.16258 29.1793L5.18099 29.19L5.18478 29.1922L5.20497 29.2033L5.20821 29.205L5.22839 29.2157L5.23037 29.2167L5.25307 29.2281L5.25672 29.2299L5.28017 29.2412L5.28189 29.242L5.3052 29.2528L5.30899 29.2545L5.33419 29.2656L5.33763 29.2671L5.36281 29.2778L5.36468 29.2787L5.39189 29.2898L5.39653 29.2917C5.41473 29.299 5.43346 29.3062 5.45274 29.3135L5.46021 29.3162L5.48778 29.3264L5.49381 29.3286L5.51931 29.3377L5.5252 29.3397L5.55653 29.3505L5.5602 29.3518C5.5824 29.3593 5.60516 29.3667 5.62849 29.3742L5.63261 29.3755L5.66717 29.3863L5.67064 29.3874L5.70655 29.3984L5.70702 29.3985L5.74596 29.4101L5.7473 29.4104C5.77248 29.4178 5.79824 29.4251 5.82452 29.4324L5.83225 29.4345C5.85769 29.4415 5.88362 29.4485 5.91005 29.4554L5.91737 29.4574L5.95687 29.4676L5.96191 29.4689L6.00161 29.4789L6.00456 29.4796C6.01865 29.4831 6.03291 29.4866 6.04726 29.4901L6.05301 29.4915C6.08233 29.4986 6.11223 29.5057 6.14262 29.5128C5.64165 32.1743 3.38423 44.9841 5.21588 50.6221L5.21795 50.6284C5.22469 50.6491 5.23145 50.6697 5.23828 50.6902L5.24035 50.6962C5.2926 50.8521 5.34802 51.0024 5.4068 51.1466L5.41292 51.1614C5.428 51.1981 5.44326 51.2346 5.45878 51.2705L5.46044 51.2744L5.47535 51.3085L5.47602 51.31L5.48979 51.3411L5.49256 51.3473L5.50577 51.3766L5.50866 51.3829L5.52126 51.4104L5.52538 51.4193L5.53675 51.4436L5.54232 51.4554L5.55376 51.4795L5.55866 51.4897L5.57036 51.5139L5.57558 51.5246L5.58798 51.5498L5.59229 51.5585L5.60466 51.5832L5.60959 51.593L5.62173 51.6168L5.62701 51.6271L5.63902 51.6502L5.64462 51.6609L5.6567 51.6838L5.66201 51.6937L5.67444 51.7169L5.67992 51.727L5.69203 51.7491L5.69821 51.7603L5.70944 51.7804L5.717 51.7938L5.72791 51.813L5.7347 51.8249L5.74623 51.8449L5.75366 51.8576L5.76457 51.8761L5.77225 51.889L5.7833 51.9075L5.79103 51.9202L5.80232 51.9386L5.81028 51.9516L5.8207 51.9683L5.82968 51.9826L5.8403 51.9994L5.84861 52.0123L5.85973 52.0295L5.8683 52.0426L5.87892 52.0588L5.88831 52.0729L5.89858 52.0882L5.90809 52.1022L5.91883 52.1179L5.92676 52.1294L5.93928 52.1474L5.94698 52.1582L5.95888 52.175L5.96807 52.1878L5.9795 52.2035L5.98828 52.2155L5.99995 52.2313L6.00861 52.2428L6.02087 52.2591L6.02827 52.2688L6.04201 52.2867L6.04852 52.295L6.06287 52.3134L6.07174 52.3245L6.08344 52.3391L6.09458 52.3528L6.10511 52.3657L6.11412 52.3766L6.12699 52.392L6.13291 52.399L6.14901 52.4179L6.15155 52.4208L6.17039 52.4425L6.17757 52.4506L6.21459 52.4919L6.22188 52.4997L6.23702 52.5161C6.25735 52.5379 6.27786 52.5595 6.29842 52.5811L6.31584 52.5994C6.33133 52.6156 6.3469 52.6318 6.36254 52.6479L6.38051 52.6665C6.40005 52.6866 6.41968 52.7066 6.43946 52.7266L6.44369 52.7309C6.46464 52.7521 6.48578 52.7733 6.50699 52.7943L6.5263 52.8135C6.54208 52.8291 6.55795 52.8447 6.57388 52.8603L6.59229 52.8783C6.61256 52.898 6.63295 52.9178 6.65346 52.9374L6.65804 52.9418C6.68035 52.9632 6.70281 52.9845 6.72536 53.0058L6.74126 53.0208C6.75867 53.0371 6.77615 53.0534 6.79371 53.0697L6.81299 53.0876C6.8332 53.1063 6.85354 53.1249 6.87393 53.1435L6.88075 53.1497C6.904 53.1709 6.92737 53.1919 6.95088 53.213L6.9654 53.2259C6.98437 53.2428 7.00341 53.2598 7.02252 53.2766L7.04069 53.2926C7.06062 53.3101 7.08063 53.3275 7.1007 53.3449L7.1121 53.3549C7.13579 53.3753 7.15959 53.3957 7.18351 53.4161L7.20037 53.4303C7.21881 53.446 7.2373 53.4616 7.25588 53.4772L7.27811 53.4958C7.29821 53.5126 7.31837 53.5293 7.33864 53.546L7.35034 53.5557C7.37513 53.5761 7.40007 53.5964 7.4251 53.6167L7.43945 53.6283C7.45964 53.6446 7.47988 53.6609 7.50025 53.6772L7.5211 53.6938C7.5412 53.7098 7.56136 53.7257 7.5816 53.7416L7.59747 53.7542C7.62259 53.7738 7.64779 53.7935 7.67317 53.8131L7.68898 53.8252C7.70946 53.8411 7.73002 53.8568 7.75067 53.8725L7.77319 53.8896C7.79344 53.905 7.8138 53.9203 7.83419 53.9356L7.85125 53.9485C7.87742 53.9681 7.90373 53.9876 7.9301 54.0071L7.94256 54.0162C7.96446 54.0323 7.98643 54.0484 8.00848 54.0645L8.03249 54.0819C8.05343 54.0971 8.07441 54.1122 8.0955 54.1273L8.11213 54.1392C8.13949 54.1588 8.16697 54.1783 8.19459 54.1978L8.20127 54.2024C8.22586 54.2198 8.25057 54.237 8.27533 54.2543L8.2968 54.2692C8.31944 54.2848 8.34216 54.3005 8.36495 54.3161L8.38009 54.3265C8.43636 54.3649 8.49309 54.4032 8.55029 54.4412L8.56841 54.4532C8.59248 54.4691 8.6166 54.485 8.64081 54.501L8.65525 54.5104C8.71321 54.5483 8.77167 54.586 8.83054 54.6235L8.84847 54.6349C8.87307 54.6505 8.89774 54.6661 8.92251 54.6816L8.93794 54.6913C8.99803 54.729 9.05856 54.7663 9.11956 54.8036L9.13201 54.8111C9.1592 54.8277 9.18647 54.8442 9.21383 54.8606L9.22632 54.8681C9.28819 54.9053 9.3505 54.9422 9.41327 54.9789L9.42588 54.9863C9.45402 55.0027 9.48223 55.019 9.51056 55.0354L9.5219 55.0419C9.58666 55.0792 9.65186 55.1162 9.71758 55.153L9.71924 55.154C9.75063 55.1715 9.78211 55.1891 9.8137 55.2065L9.82417 55.2123C9.87428 55.24 9.92466 55.2676 9.97533 55.295C10.026 55.3224 10.0769 55.3497 10.128 55.3769L10.1289 55.3773C14.4531 57.6715 20.6148 59.002 27.0702 59.3687C27.1766 59.5434 27.3121 59.6959 27.4695 59.8183L27.4701 59.8187L27.4891 59.8333L27.4902 59.8341L27.5092 59.8481L27.5105 59.8491C27.5435 59.8731 27.5773 59.8958 27.6119 59.9171L27.6133 59.9179L27.6311 59.9286L27.6357 59.9314L27.652 59.9409L27.6587 59.9448L27.6741 59.9534L27.6821 59.9578L27.6966 59.9657L27.7051 59.9701L27.7204 59.978L27.7268 59.9813L27.7435 59.9896L27.7467 59.9911L27.7824 60.0079L27.7895 60.0111L27.8037 60.0174L27.8136 60.0217L27.8275 60.0275L27.8384 60.032L27.8515 60.0373L27.8637 60.0421L27.8755 60.0466L27.8895 60.0518L27.9006 60.0558L27.9146 60.0607L27.9263 60.0647L27.943 60.0702L27.951 60.0728L27.9772 60.0808L27.9781 60.0811L28.0032 60.0884L28.0097 60.0901L28.0289 60.0952L28.0382 60.0976L28.0557 60.1019L28.0645 60.1039L28.0825 60.108L28.0915 60.11L28.11 60.1138L28.1183 60.1154L28.1395 60.1194L28.1448 60.1203C28.1633 60.1236 28.1818 60.1265 28.2005 60.1291L28.2018 60.1292L28.2278 60.1325L28.2341 60.1332L28.2554 60.1355L28.2629 60.1362L28.2836 60.1381L28.2912 60.1387L28.3124 60.1401L28.319 60.1405L28.3426 60.1417L28.3469 60.1418L28.3728 60.1426L28.3756 60.1427L28.4046 60.143H32.8729C33.2974 60.143 33.6831 59.9652 33.9684 59.6756C33.9874 59.6563 34.006 59.6365 34.0242 59.6161C34.0433 59.5947 34.0619 59.5727 34.08 59.5502C34.0937 59.5331 34.1071 59.5158 34.1201 59.4982C34.1317 59.4825 34.1431 59.4667 34.1542 59.4506C34.1649 59.435 34.1755 59.4192 34.1858 59.4032L34.1977 59.3843C42.9489 58.9261 51.2032 56.7013 55.1295 52.71L55.13 52.7094C55.1488 52.6903 55.1675 52.6712 55.1861 52.652L55.1974 52.6403C55.2131 52.6241 55.2286 52.6079 55.2441 52.5917L55.2581 52.577C55.2774 52.5568 55.2965 52.5365 55.3155 52.5161C55.3775 52.4499 55.4374 52.3798 55.4955 52.306C55.5072 52.291 55.5189 52.276 55.5305 52.2607C55.6413 52.1149 55.745 51.9552 55.8418 51.7828C55.8538 51.7615 55.8657 51.7399 55.8774 51.7182C55.9433 51.5966 56.0059 51.4689 56.0653 51.3355L56.0806 51.3008C56.1244 51.201 56.1664 51.0981 56.2067 50.9921L56.2187 50.9604C56.2246 50.9446 56.2305 50.9286 56.2364 50.9127L56.2477 50.8817C56.2536 50.8653 56.2595 50.8488 56.2654 50.8323C56.2737 50.8089 56.282 50.7853 56.2901 50.7616C56.3102 50.7034 56.3298 50.6444 56.3489 50.5846L56.3579 50.5561C56.3638 50.5375 56.3697 50.5188 56.3755 50.5L56.3841 50.4721C56.4163 50.3666 56.4472 50.2587 56.4768 50.1485C56.4825 50.1272 56.4882 50.1059 56.4938 50.0844C56.5075 50.032 56.521 49.9791 56.5341 49.9256L56.5393 49.9042C56.5637 49.8044 56.587 49.7029 56.6094 49.5998L56.6141 49.5779C56.6194 49.5536 56.6246 49.5291 56.6297 49.5046L56.6337 49.4853C56.6722 49.2998 56.7077 49.1093 56.7403 48.9143C56.7435 48.895 56.7467 48.8757 56.7498 48.8563C56.7603 48.7919 56.7705 48.7269 56.7804 48.6615L56.7829 48.645C56.7975 48.5477 56.8114 48.4494 56.8247 48.3501L56.8267 48.3352C56.8353 48.2699 56.8437 48.2042 56.8518 48.138L56.8533 48.125C56.8679 48.0054 56.8815 47.8845 56.8942 47.7623L56.8954 47.7508C56.9026 47.682 56.9094 47.6129 56.916 47.5433C56.918 47.5214 56.9201 47.4994 56.9221 47.4774C56.9336 47.3521 56.9442 47.2256 56.9539 47.0978C56.9555 47.0761 56.9571 47.0543 56.9587 47.0326C56.9682 46.9037 56.9769 46.7736 56.9846 46.6425C56.9858 46.6222 56.987 46.602 56.9882 46.5817C56.9893 46.5615 56.9905 46.5413 56.9916 46.521C56.9936 46.4846 56.9956 46.4482 56.9974 46.4117C56.9985 46.3904 56.9996 46.3691 57.0006 46.3479C57.013 46.098 57.0224 45.8445 57.0291 45.588C57.0296 45.5675 57.0301 45.5471 57.0306 45.5267C57.036 45.3078 57.0394 45.0869 57.0409 44.8641C57.041 44.8438 57.0412 44.8235 57.0413 44.8032C57.0415 44.7626 57.0417 44.722 57.0418 44.6814C57.0418 44.6407 57.0419 44.5999 57.0419 44.5591C57.0418 44.4979 57.0417 44.4365 57.0414 44.3751C57.0378 43.6172 57.0143 42.8412 56.9753 42.0603C56.9742 42.0392 56.9731 42.0181 56.9721 41.997C56.9656 41.8703 56.9587 41.7435 56.9515 41.6166C56.9467 41.532 56.9417 41.4474 56.9365 41.3628C56.8965 40.707 56.8464 40.0504 56.7891 39.4006C56.7872 39.3796 56.7854 39.3587 56.7835 39.3378C56.7536 39.0026 56.7218 38.6694 56.6884 38.3391C56.6863 38.3184 56.6842 38.2978 56.6821 38.2772C56.6192 37.6586 56.5507 37.0507 56.479 36.4602C56.4766 36.4405 56.4742 36.4209 56.4719 36.4012C56.4455 36.1852 56.4188 35.9715 56.3918 35.7606C56.3893 35.7414 56.3869 35.7222 56.3844 35.7031C56.3326 35.3014 56.2798 34.9097 56.2268 34.5305C56.2243 34.5124 56.2218 34.4944 56.2192 34.4764C56.1031 33.6484 55.9858 32.8806 55.8761 32.1983C55.8737 32.1834 55.8713 32.1686 55.869 32.1539C55.6772 30.964 55.5089 30.0382 55.4098 29.5114C55.9766 29.3795 56.3548 29.2368 56.5137 29.0834L56.5144 29.0828L56.5247 29.0724L56.526 29.071L56.5358 29.0605L56.5392 29.0566L56.5462 29.0482L56.5512 29.0418L56.5559 29.0357L56.5647 29.0229C56.9485 28.4309 57.2736 27.5508 57.5137 26.5321C57.5214 26.4997 57.5289 26.4673 57.5364 26.4346C57.6779 25.8149 57.7882 25.1464 57.8614 24.4621C57.8652 24.426 57.869 24.3899 57.8726 24.3538C57.8745 24.3358 57.8763 24.3177 57.878 24.2997C57.8851 24.2274 57.8918 24.1549 57.8981 24.0824C57.9043 24.0098 57.9102 23.9372 57.9156 23.8644C57.9182 23.8281 57.9208 23.7917 57.9233 23.7553C57.9333 23.6098 57.9415 23.464 57.9479 23.3183C57.9495 23.2819 57.951 23.2455 57.9524 23.2091C57.9558 23.1181 57.9586 23.0271 57.9606 22.9363C57.9614 22.9 57.9621 22.8636 57.9627 22.8274C57.9644 22.7186 57.9651 22.61 57.9648 22.5018C57.9648 22.4656 57.9645 22.4296 57.9642 22.3936ZM46.2366 8.74498C46.0093 10.2791 43.6036 12.9685 39.8366 15.636C39.5126 15.6257 39.1865 15.6159 38.8585 15.6067C41.4158 12.1803 44.2832 9.98384 46.2366 8.74498ZM15.3162 8.74498C17.2653 9.98106 20.1242 12.1705 22.6771 15.5837C22.3431 15.5922 22.011 15.6013 21.6811 15.6111C17.9343 12.9517 15.5428 10.2743 15.3162 8.74498Z" fill="#EF7853"/>
<path d="M33.9575 22.8884C33.6119 22.1995 32.872 21.9401 32.2028 22.2379C31.9236 22.3621 31.6867 22.5739 31.4178 22.7217C31.2216 22.8296 30.9959 22.9299 30.7772 22.9299V22.9299L30.7762 22.9299L30.7753 22.9299V22.9299C30.5568 22.9299 30.3309 22.8296 30.1346 22.7217C29.8658 22.5739 29.6288 22.3621 29.3497 22.2379C28.6805 21.9401 27.9406 22.1995 27.595 22.8884C27.1343 23.8068 27.6129 24.8181 28.2425 25.4925H28.2426C28.2833 25.5361 28.3245 25.5785 28.3663 25.6191C29.05 26.2851 29.9003 26.6749 30.7762 26.6749C31.6625 26.6749 32.5024 26.2851 33.1862 25.6191C33.2281 25.5783 33.2695 25.5359 33.3103 25.4922C33.9397 24.8177 34.4181 23.8066 33.9575 22.8884Z" fill="#DC2515"/>
<path d="M48.5776 7.45661C48.5776 7.45661 45.6287 2.38186 39.5282 4.26534C34.134 5.93074 31.9902 11.7088 31.1531 15.4904C33.7619 15.4974 36.3655 15.5364 38.8585 15.6067C41.4157 12.1803 44.2831 9.98386 46.2366 8.745C46.0092 10.2791 43.6036 12.9685 39.8365 15.636C40.9972 15.6731 42.1301 15.717 43.2244 15.7678C47.2173 13.6434 50.7286 10.6204 48.5776 7.45661Z" fill="#F39235"/>
<path d="M22.0245 4.26535C15.924 2.38184 12.975 7.45662 12.975 7.45662C10.8345 10.6049 14.3012 13.6139 18.2699 15.7367C19.3712 15.6874 20.512 15.6456 21.681 15.6111C17.9341 12.9517 15.5427 10.2744 15.3161 8.74501C17.2652 9.98109 20.1241 12.1705 22.677 15.5837C25.1754 15.5197 27.7849 15.4884 30.3994 15.4893C29.5621 11.7077 27.4181 5.93057 22.0245 4.26535Z" fill="#F39235"/>
<path d="M34.4642 30.7088C31.929 30.7317 29.3454 30.7308 26.8137 30.7063L26.8135 30.7243V58.4413C26.8135 58.5148 26.8178 58.5871 26.8263 58.658L26.8318 58.7005C26.8378 58.7427 26.8453 58.7844 26.8542 58.8256L26.8636 58.8666C26.8701 58.8937 26.8773 58.9207 26.885 58.9473C26.9005 59.0006 26.9184 59.0527 26.9385 59.1036C26.9486 59.1291 26.9592 59.1542 26.9704 59.179C27.2274 59.7493 27.7731 60.1428 28.4048 60.1428H32.8732C33.326 60.1428 33.7346 59.9405 34.0244 59.616C34.0436 59.5945 34.0621 59.5725 34.0802 59.55C34.0939 59.5329 34.1073 59.5156 34.1204 59.498C34.132 59.4823 34.1433 59.4665 34.1544 59.4504C34.1652 59.4348 34.1757 59.419 34.186 59.403L34.1979 59.3841L34.1991 59.3822L34.1999 59.3809C34.2089 59.3664 34.2178 59.3516 34.2264 59.3367C34.3685 59.0917 34.454 58.8054 34.4635 58.4985C34.464 58.4795 34.4645 58.4605 34.4645 58.4413V30.7243L34.4642 30.7088Z" fill="#F08026"/>
<path d="M60.3935 13.5466H59.4147C59.2485 13.5466 59.1138 13.6907 59.1138 13.8684C59.1138 14.0461 59.2485 14.1902 59.4147 14.1902H60.3935C60.5597 14.1902 60.6945 14.0461 60.6945 13.8684C60.6945 13.6907 60.5597 13.5466 60.3935 13.5466Z" fill="#38170E"/>
<path d="M57.9382 13.5466H56.9594C56.7932 13.5466 56.6584 13.6907 56.6584 13.8684C56.6584 14.0461 56.7932 14.1902 56.9594 14.1902H57.9382C58.1044 14.1902 58.2392 14.0461 58.2392 13.8684C58.2392 13.6907 58.1044 13.5466 57.9382 13.5466Z" fill="#38170E"/>
<path d="M58.6764 11.7107C58.5103 11.7107 58.3755 11.8548 58.3755 12.0325V13.079C58.3755 13.2567 58.5103 13.4008 58.6764 13.4008C58.8427 13.4008 58.9774 13.2567 58.9774 13.079V12.0325C58.9774 11.8548 58.8427 11.7107 58.6764 11.7107Z" fill="#38170E"/>
<path d="M58.6764 14.3359C58.5103 14.3359 58.3755 14.48 58.3755 14.6577V15.7043C58.3755 15.882 58.5103 16.026 58.6764 16.026C58.8427 16.026 58.9774 15.882 58.9774 15.7043V14.6577C58.9774 14.48 58.8427 14.3359 58.6764 14.3359Z" fill="#38170E"/>
<path d="M55.6192 11.4448C55.7854 11.4448 55.9201 11.3008 55.9201 11.123C55.9201 10.9454 55.7854 10.8013 55.6192 10.8013H54.8779C54.7116 10.8013 54.5769 10.9453 54.5769 11.123C54.5769 11.3008 54.7116 11.4448 54.8779 11.4448H55.6192Z" fill="#38170E"/>
<path d="M53.3036 11.4448C53.4698 11.4448 53.6045 11.3008 53.6045 11.123C53.6045 10.9454 53.4698 10.8013 53.3036 10.8013H52.5622C52.396 10.8013 52.2612 10.9453 52.2612 11.123C52.2612 11.3008 52.396 11.4448 52.5622 11.4448H53.3036Z" fill="#38170E"/>
<path d="M54.0907 10.6032C54.257 10.6032 54.3917 10.4591 54.3917 10.2814V9.48877C54.3917 9.31106 54.257 9.16699 54.0907 9.16699C53.9245 9.16699 53.7898 9.31106 53.7898 9.48877V10.2814C53.7898 10.4591 53.9246 10.6032 54.0907 10.6032Z" fill="#38170E"/>
<path d="M53.7898 12.7572C53.7898 12.935 53.9245 13.079 54.0907 13.079C54.257 13.079 54.3917 12.935 54.3917 12.7572V11.9646C54.3917 11.7869 54.257 11.6428 54.0907 11.6428C53.9245 11.6428 53.7898 11.7869 53.7898 11.9646V12.7572Z" fill="#38170E"/>
<path d="M4.75318 39.5248C5.33335 40.3901 5.91049 41.2605 6.49962 42.1243C6.65507 41.8076 6.87414 41.5216 7.15645 41.291C8.3681 40.4444 9.18108 42.3788 9.07966 43.3981C9.07403 43.8652 8.86528 44.5065 8.5328 44.9697C9.56085 46.3228 10.6645 47.6253 11.9079 48.8281C13.5631 50.5979 15.3688 52.2068 17.4754 53.4939C20.4338 55.3815 23.5736 56.5896 26.8135 57.3646V30.7243L26.8137 30.7063C20.7896 30.648 15.06 30.4557 10.9781 30.1293L10.9512 30.1272C10.9338 30.1258 10.9165 30.1244 10.8992 30.123C10.8785 30.1213 10.8578 30.1196 10.8371 30.118C10.8229 30.1168 10.8086 30.1156 10.7944 30.1144L10.7673 30.1122C10.7114 30.1076 10.6559 30.103 10.6006 30.0984L10.5818 30.0967C10.5535 30.0944 10.5253 30.092 10.4972 30.0896L10.4671 30.087C10.4518 30.0857 10.4365 30.0844 10.4213 30.083L10.3849 30.0799C10.3576 30.0775 10.3303 30.0751 10.3031 30.0727L10.2916 30.0717C10.2744 30.0702 10.2572 30.0687 10.24 30.0672L10.2094 30.0644C10.1853 30.0623 10.1613 30.0602 10.1373 30.058L10.0979 30.0544C10.0756 30.0524 10.0534 30.0504 10.0313 30.0484L9.9959 30.0452L9.96521 30.0423C9.94471 30.0404 9.92423 30.0385 9.90384 30.0366C9.88969 30.0353 9.87557 30.034 9.86145 30.0327L9.82097 30.0289C9.78829 30.0258 9.75571 30.0227 9.7233 30.0196L9.71951 30.0193L9.68451 30.0159C9.66992 30.0145 9.65534 30.0131 9.64078 30.0117L9.60846 30.0085C9.58851 30.0066 9.56858 30.0047 9.54872 30.0027L9.51377 29.9992C9.46669 29.9946 9.4199 29.9899 9.3734 29.9852L9.33837 29.9817C9.31999 29.9798 9.30164 29.9779 9.28335 29.976L9.245 29.9721L9.20503 29.9679L9.17248 29.9645C9.15203 29.9624 9.13164 29.9603 9.11131 29.9581L9.0826 29.9551C9.06583 29.9533 9.04914 29.9515 9.03246 29.9497L8.99678 29.9459C8.97884 29.944 8.96099 29.942 8.94317 29.9401L8.91729 29.9373C8.8953 29.9349 8.87336 29.9325 8.85154 29.9301L8.83836 29.9286C8.81747 29.9263 8.79667 29.924 8.7759 29.9216L8.761 29.92C8.7372 29.9173 8.71348 29.9146 8.68988 29.9119L8.67766 29.9105C8.65359 29.9078 8.62959 29.9051 8.60569 29.9023L8.60435 29.9021C8.58108 29.8994 8.55791 29.8967 8.53481 29.894L8.51177 29.8913C8.49059 29.8888 8.46944 29.8863 8.44844 29.8838L8.4368 29.8825C8.41792 29.8802 8.39911 29.878 8.38035 29.8757L8.36241 29.8735C8.34126 29.8709 8.32017 29.8684 8.29917 29.8658L8.28056 29.8635C8.23342 29.8577 8.18672 29.8519 8.14048 29.846L8.13596 29.8455C8.0911 29.8397 8.04664 29.834 8.0026 29.8283L7.98028 29.8254C7.95966 29.8227 7.93918 29.82 7.91876 29.8173L7.90773 29.8158C7.88828 29.8132 7.86894 29.8106 7.84968 29.808L7.84076 29.8068C7.81803 29.8038 7.79549 29.8007 7.77299 29.7976L7.76818 29.7969C7.74762 29.7941 7.72717 29.7913 7.70681 29.7884L7.69068 29.7862C7.67387 29.7838 7.65716 29.7815 7.64053 29.7791L7.62131 29.7764C7.60255 29.7737 7.58385 29.7711 7.56527 29.7684L7.5501 29.7662C7.53056 29.7634 7.51116 29.7605 7.49182 29.7577L7.49127 29.7576C7.4693 29.7544 7.44748 29.7511 7.42578 29.7479L7.42097 29.7472C7.37791 29.7408 7.33535 29.7343 7.29332 29.7278L7.28742 29.7269C7.24518 29.7203 7.20347 29.7137 7.16225 29.7072L7.15922 29.7067C7.13883 29.7034 7.11858 29.7001 7.09849 29.6968L7.09364 29.696C7.07629 29.6932 7.05902 29.6903 7.04187 29.6875L7.02956 29.6855C7.01165 29.6825 6.99388 29.6795 6.9762 29.6765L6.96795 29.6751C6.94925 29.672 6.93064 29.6688 6.9122 29.6656L6.9052 29.6644C6.88674 29.6612 6.86839 29.658 6.85016 29.6548H6.85007C6.79088 29.6443 6.73295 29.6338 6.67627 29.6233L6.6712 29.6223C6.65335 29.619 6.63558 29.6157 6.61796 29.6123L6.61516 29.6118C6.59877 29.6086 6.58252 29.6055 6.56633 29.6024L6.55726 29.6006C6.54078 29.5974 6.52441 29.5942 6.50816 29.5909L6.50189 29.5897C6.48591 29.5865 6.47004 29.5833 6.45429 29.5802L6.45087 29.5795C6.43422 29.5761 6.41771 29.5727 6.40128 29.5693L6.39504 29.568C6.36219 29.5612 6.3299 29.5544 6.29811 29.5475L6.29178 29.5461C6.26033 29.5393 6.22941 29.5325 6.19899 29.5256L6.19161 29.5239C6.17644 29.5205 6.16141 29.517 6.14651 29.5136L6.14327 29.5128L6.14266 29.5127C5.62138 32.282 3.1986 46.0379 5.45884 51.2704C4.33365 48.6654 4.36944 43.9477 4.75318 39.5248Z" fill="#ED6A40"/>
<path d="M35.6343 30.6965C40.0923 33.2696 45.4969 32.271 50.5797 33.222C51.633 33.3829 52.9873 33.8656 53.4387 34.9918C55.3949 39.014 56.1473 44.0015 54.9435 48.5063C54.4817 50.3826 54.0189 52.6821 53.0005 54.4396C53.8041 53.9052 54.5198 53.3292 55.1297 52.7098L55.1302 52.7093C55.149 52.6902 55.1677 52.671 55.1862 52.6518L55.1976 52.6401C55.2132 52.6239 55.2288 52.6077 55.2443 52.5915L55.2583 52.5769C55.2775 52.5566 55.2967 52.5364 55.3157 52.516C55.3776 52.4498 55.4376 52.3797 55.4957 52.3058C55.5074 52.2909 55.5191 52.2758 55.5307 52.2605C55.6415 52.1147 55.7452 51.9551 55.842 51.7826C55.854 51.7613 55.8658 51.7397 55.8776 51.718C55.9435 51.5964 56.006 51.4687 56.0655 51.3353L56.0808 51.3006C56.1245 51.2008 56.1666 51.0979 56.2069 50.9919L56.2189 50.9602C56.2248 50.9444 56.2307 50.9285 56.2365 50.9126L56.2479 50.8815C56.2538 50.8651 56.2597 50.8486 56.2656 50.8321C56.2739 50.8087 56.2822 50.7851 56.2903 50.7614C56.3104 50.7032 56.3299 50.6443 56.3491 50.5845L56.3581 50.556C56.364 50.5373 56.3699 50.5186 56.3757 50.4998L56.3843 50.472C56.4165 50.3664 56.4473 50.2585 56.477 50.1484C56.4827 50.1271 56.4884 50.1057 56.494 50.0842C56.5077 50.0318 56.5211 49.9789 56.5342 49.9255L56.5395 49.9041C56.5639 49.8042 56.5872 49.7027 56.6096 49.5996L56.6143 49.5778C56.6195 49.5534 56.6247 49.529 56.6299 49.5044L56.6339 49.4851C56.6724 49.2996 56.7079 49.1092 56.7404 48.9141C56.7436 48.8948 56.7468 48.8755 56.75 48.8562C56.7605 48.7917 56.7707 48.7268 56.7806 48.6613L56.7831 48.6448C56.7977 48.5476 56.8116 48.4492 56.8248 48.35L56.8268 48.3351C56.8355 48.2698 56.8438 48.2041 56.8519 48.1379L56.8535 48.1248C56.868 48.0053 56.8817 47.8843 56.8944 47.7621L56.8956 47.7506C56.9028 47.6819 56.9096 47.6127 56.9161 47.5432C56.9182 47.5212 56.9203 47.4993 56.9223 47.4772C56.9337 47.3519 56.9443 47.2254 56.954 47.0977C56.9557 47.076 56.9573 47.0542 56.9589 47.0324C56.9684 46.9035 56.977 46.7735 56.9848 46.6424C56.986 46.6221 56.9872 46.6018 56.9883 46.5815C56.9895 46.5613 56.9906 46.5411 56.9918 46.5208C56.9938 46.4845 56.9957 46.4481 56.9976 46.4116C56.9987 46.3903 56.9998 46.369 57.0008 46.3477C57.0131 46.0978 57.0225 45.8443 57.0293 45.5878C57.0298 45.5674 57.0303 45.5469 57.0308 45.5265C57.0362 45.3077 57.0395 45.0867 57.0411 44.8639C57.0412 44.8436 57.0413 44.8234 57.0415 44.803C57.0417 44.7625 57.0418 44.7219 57.0419 44.6812C57.042 44.6405 57.0421 44.5997 57.042 44.5589C57.042 44.4977 57.0419 44.4364 57.0416 44.3749C57.0379 43.617 57.0144 42.8411 56.9755 42.0601C56.9744 42.039 56.9733 42.0179 56.9723 41.9968C56.9658 41.8702 56.9589 41.7433 56.9517 41.6165C56.9468 41.5319 56.9418 41.4473 56.9367 41.3627C56.8966 40.7068 56.8466 40.0502 56.7892 39.4004C56.7874 39.3795 56.7855 39.3585 56.7837 39.3376C56.7538 39.0025 56.722 38.6692 56.6886 38.339C56.6865 38.3183 56.6844 38.2977 56.6823 38.277C56.6193 37.6585 56.5508 37.0505 56.4792 36.4601C56.4768 36.4404 56.4744 36.4207 56.4721 36.4011C56.4457 36.185 56.419 35.9714 56.3919 35.7604C56.3895 35.7412 56.387 35.7221 56.3845 35.7029C56.3328 35.3012 56.28 34.9095 56.227 34.5303C56.2245 34.5123 56.2219 34.4942 56.2194 34.4762C56.1032 33.6482 55.986 32.8805 55.8763 32.1981C55.8739 32.1833 55.8715 32.1685 55.8692 32.1537C55.6774 30.9639 55.5091 30.0381 55.4099 29.5112C52.4671 30.196 44.4421 30.5911 35.6343 30.6965Z" fill="#E55E31"/>
<path d="M34.1998 59.381L34.199 59.3823C36.3091 59.2716 38.3903 59.0582 40.3889 58.7421C38.412 58.7116 36.4313 58.6471 34.4634 58.4985C34.4539 58.8055 34.3684 59.0918 34.2264 59.3368C34.2177 59.3517 34.2088 59.3664 34.1998 59.381Z" fill="#E55E31"/>
<path d="M26.9704 59.1789C26.9592 59.1541 26.9486 59.129 26.9385 59.1035C26.9184 59.0526 26.9005 59.0005 26.885 58.9472C26.8772 58.9206 26.8701 58.8937 26.8635 58.8665L26.8542 58.8255C26.8453 58.7843 26.8378 58.7426 26.8318 58.7004L26.8262 58.6579C26.8178 58.587 26.8134 58.5146 26.8134 58.4412V57.3644C23.5736 56.5895 20.4337 55.3813 17.4754 53.4937C15.3687 52.2066 13.563 50.5978 11.9078 48.828C10.6644 47.6251 9.56077 46.3226 8.53271 44.9696C8.13917 45.5179 7.57222 45.8168 6.96343 45.2818C6.15465 44.4493 6.00506 43.1316 6.49953 42.1242C5.91041 41.2603 5.33327 40.39 4.7531 39.5247C4.36936 43.9476 4.3336 48.6653 5.45882 51.2703L5.46048 51.2742L5.47539 51.3084L5.47606 51.3099L5.48983 51.341L5.4926 51.3471L5.50581 51.3764L5.5087 51.3828L5.5213 51.4102L5.52541 51.4191L5.53679 51.4435L5.54236 51.4553L5.5538 51.4794L5.5587 51.4896L5.5704 51.5138L5.57562 51.5245L5.58801 51.5496L5.59233 51.5584L5.6047 51.5831L5.60963 51.5929L5.62176 51.6167L5.62704 51.6269L5.63906 51.6501L5.64466 51.6608L5.65674 51.6836L5.66205 51.6936L5.67448 51.7167L5.67996 51.7268L5.69207 51.7489L5.69825 51.7601L5.70948 51.7803L5.71703 51.7937L5.72794 51.8129L5.73474 51.8247L5.74626 51.8447L5.7537 51.8574L5.76461 51.876L5.77228 51.8889L5.78334 51.9073L5.79107 51.92L5.80236 51.9385L5.81032 51.9515L5.82074 51.9682L5.82972 51.9825L5.84034 51.9993L5.84865 52.0122L5.85977 52.0294L5.86834 52.0425L5.87896 52.0586L5.88835 52.0727L5.89862 52.0881L5.90813 52.1021L5.91887 52.1178L5.9268 52.1293L5.93931 52.1472L5.94701 52.1581L5.95892 52.1749L5.96811 52.1876L5.97954 52.2034L5.98832 52.2154L5.99999 52.2311L6.00865 52.2427L6.0209 52.259L6.02831 52.2687L6.04205 52.2866L6.04856 52.2949L6.06291 52.3132L6.07178 52.3243L6.08347 52.339L6.09462 52.3527L6.10515 52.3655L6.11416 52.3764L6.12703 52.3919L6.13295 52.3988L6.14905 52.4178L6.15159 52.4207L6.17043 52.4424L6.17761 52.4505L6.21463 52.4917L6.22192 52.4996L6.23706 52.516C6.25739 52.5377 6.2779 52.5594 6.29846 52.581L6.31588 52.5992C6.33136 52.6155 6.34694 52.6317 6.36258 52.6478L6.38055 52.6663C6.40009 52.6865 6.41972 52.7065 6.4395 52.7265L6.44373 52.7308C6.46467 52.752 6.48582 52.7731 6.50703 52.7942L6.52634 52.8133C6.54212 52.829 6.55799 52.8446 6.57392 52.8601L6.59232 52.8781C6.6126 52.8979 6.63299 52.9176 6.65349 52.9373L6.65807 52.9417C6.68039 52.9631 6.70285 52.9844 6.7254 53.0057L6.7413 53.0206C6.75871 53.037 6.77619 53.0533 6.79375 53.0696L6.81303 53.0875C6.83324 53.1061 6.85357 53.1248 6.87397 53.1434L6.88079 53.1496C6.90404 53.1708 6.92741 53.1918 6.95092 53.2129L6.96544 53.2258C6.9844 53.2427 7.00345 53.2596 7.02256 53.2765L7.04073 53.2925C7.06066 53.31 7.08067 53.3274 7.10074 53.3448L7.11214 53.3547C7.13583 53.3752 7.15963 53.3956 7.18355 53.4159L7.20041 53.4302C7.21885 53.4458 7.23734 53.4614 7.25592 53.4771L7.27815 53.4957C7.29825 53.5125 7.31841 53.5292 7.33868 53.5459L7.35038 53.5556C7.37517 53.576 7.40011 53.5963 7.42514 53.6166L7.43949 53.6282C7.45968 53.6445 7.47992 53.6608 7.50028 53.677L7.52114 53.6936C7.54124 53.7096 7.5614 53.7256 7.58164 53.7415L7.59751 53.754C7.62262 53.7737 7.64783 53.7933 7.67321 53.8129L7.68902 53.8251C7.70949 53.8409 7.73006 53.8567 7.75071 53.8724L7.77323 53.8895C7.79348 53.9049 7.81384 53.9202 7.83423 53.9355L7.85129 53.9483C7.87746 53.9679 7.90377 53.9874 7.93014 54.0069L7.9426 54.016C7.9645 54.0322 7.98647 54.0483 8.00852 54.0643L8.03253 54.0817C8.05347 54.0969 8.07445 54.112 8.09554 54.1271L8.11216 54.1391C8.13953 54.1586 8.167 54.1781 8.19463 54.1976L8.20131 54.2023C8.2259 54.2196 8.25061 54.2369 8.27537 54.2541L8.29684 54.269C8.31948 54.2847 8.3422 54.3003 8.36498 54.316L8.38012 54.3263C8.43639 54.3648 8.49313 54.403 8.55033 54.4411L8.56845 54.4531C8.59251 54.469 8.61664 54.4849 8.64085 54.5008L8.65529 54.5103C8.71325 54.5482 8.77171 54.5859 8.83057 54.6234L8.84851 54.6347C8.8731 54.6504 8.89778 54.6659 8.92255 54.6815L8.93798 54.6912C8.99807 54.7288 9.0586 54.7662 9.11959 54.8034L9.13205 54.811C9.15924 54.8276 9.18651 54.8441 9.21387 54.8605L9.22636 54.868C9.28823 54.9052 9.35054 54.9421 9.41331 54.9788L9.42591 54.9861C9.45406 55.0025 9.48227 55.0189 9.5106 55.0352L9.52194 55.0418C9.5867 55.0791 9.6519 55.1161 9.71762 55.1529L9.71928 55.1538C9.75067 55.1714 9.78214 55.1889 9.81373 55.2064L9.82421 55.2122C9.92447 55.2676 10.0257 55.3224 10.1281 55.3767L10.129 55.3772C14.4531 57.6712 20.6145 59.0012 27.0696 59.3674C27.033 59.307 26.9997 59.2441 26.9704 59.1789Z" fill="#E55E31"/>
<path d="M39.8364 15.6362C40.9971 15.6732 42.13 15.7172 43.2243 15.768C47.2172 13.6436 50.7286 10.6205 48.5776 7.45679C48.5776 7.45679 47.6445 7.85226 46.2365 8.74518C46.0092 10.2793 43.6035 12.9686 39.8364 15.6362Z" fill="#F08026"/>
<path d="M15.3161 8.74493C13.9085 7.85224 12.9755 7.45676 12.975 7.45654C10.8345 10.6048 14.3012 13.6138 18.2699 15.7366C19.3712 15.6873 20.512 15.6455 21.681 15.611C17.9341 12.9517 15.5427 10.2743 15.3161 8.74493Z" fill="#F08026"/>
<path d="M26.8135 54.5872C28.157 55.3411 29.685 55.5722 30.7172 54.1374C33.3315 50.4105 33.8956 46.0091 34.4645 41.6656V30.7243L34.4642 30.7088C31.929 30.7317 29.3454 30.7308 26.8137 30.7063L26.8135 30.7243L26.8135 54.5872Z" fill="#F39235"/>
<path d="M6.14658 29.5137C6.16152 29.5171 6.17654 29.5206 6.19168 29.524L6.19906 29.5257C6.22948 29.5326 6.26041 29.5394 6.29185 29.5462L6.29818 29.5476C6.32998 29.5544 6.36227 29.5613 6.39511 29.5681L6.40136 29.5694C6.41778 29.5728 6.43429 29.5762 6.45095 29.5796L6.45436 29.5802C6.47011 29.5835 6.48598 29.5866 6.50197 29.5898L6.50824 29.591C6.52449 29.5943 6.54082 29.5975 6.55733 29.6007L6.5664 29.6024C6.58259 29.6056 6.59884 29.6087 6.61524 29.6118L6.61804 29.6124C6.63565 29.6157 6.65339 29.6191 6.67127 29.6224L6.67635 29.6233C6.73303 29.6339 6.79093 29.6444 6.85015 29.6548H6.85023C6.86846 29.6581 6.88681 29.6613 6.90528 29.6645L6.91228 29.6657C6.93071 29.6689 6.94935 29.6721 6.96802 29.6752L6.97628 29.6766C6.99398 29.6796 7.01172 29.6826 7.02963 29.6856L7.04194 29.6876C7.05909 29.6904 7.07636 29.6933 7.09372 29.6961L7.09856 29.6969C7.11869 29.7002 7.1389 29.7035 7.15929 29.7067L7.16233 29.7072C7.20352 29.7138 7.24526 29.7204 7.2875 29.727L7.29339 29.7279C7.33545 29.7343 7.37801 29.7408 7.42104 29.7473L7.42585 29.748C7.44756 29.7512 7.46938 29.7545 7.49134 29.7577L7.4919 29.7578C7.51124 29.7606 7.53063 29.7634 7.55018 29.7663L7.56535 29.7685C7.58393 29.7711 7.60263 29.7738 7.62138 29.7765L7.64061 29.7792C7.65723 29.7815 7.67398 29.7839 7.69075 29.7862L7.70688 29.7885C7.72724 29.7914 7.74772 29.7942 7.76826 29.797L7.77307 29.7977C7.79556 29.8007 7.81811 29.8038 7.84083 29.8069L7.84976 29.8081C7.86901 29.8107 7.88838 29.8133 7.90781 29.8159L7.91883 29.8174C7.93925 29.8201 7.95976 29.8228 7.98035 29.8255L8.00267 29.8284C8.04669 29.8341 8.09117 29.8399 8.13604 29.8455L8.14056 29.8461C8.18679 29.852 8.2335 29.8578 8.28064 29.8636L8.29925 29.8659C8.32025 29.8685 8.34131 29.871 8.36249 29.8736L8.38043 29.8758C8.39918 29.878 8.418 29.8803 8.43687 29.8826L8.44851 29.8839C8.46954 29.8864 8.49066 29.8889 8.51184 29.8914L8.53489 29.8941C8.55799 29.8968 8.58115 29.8995 8.60443 29.9022L8.60577 29.9024C8.62966 29.9051 8.65364 29.9079 8.67773 29.9106L8.68996 29.912C8.71355 29.9147 8.73727 29.9174 8.76107 29.92L8.77598 29.9217C8.79672 29.9241 8.81755 29.9264 8.83843 29.9287L8.85162 29.9302C8.87344 29.9326 8.89535 29.935 8.91737 29.9374L8.94324 29.9402C8.96107 29.9421 8.97892 29.9441 8.99686 29.946L9.03253 29.9498C9.04922 29.9516 9.0659 29.9534 9.08268 29.9552L9.11138 29.9582C9.13171 29.9603 9.1521 29.9625 9.17255 29.9646L9.20511 29.968L9.24507 29.9722L9.28343 29.9761C9.30172 29.978 9.32007 29.9799 9.33844 29.9817L9.37348 29.9853C9.41998 29.99 9.46677 29.9947 9.51385 29.9993L9.54879 30.0028C9.56866 30.0047 9.58858 30.0067 9.60853 30.0086L9.64085 30.0118C9.65541 30.0132 9.67 30.0146 9.68458 30.016L9.71959 30.0194L9.72338 30.0197C9.75579 30.0228 9.78837 30.0259 9.82104 30.029L9.86153 30.0328C9.87562 30.0341 9.88977 30.0354 9.90391 30.0367C9.92433 30.0386 9.94478 30.0405 9.96529 30.0424L9.99598 30.0452L10.0313 30.0485C10.0535 30.0505 10.0757 30.0525 10.098 30.0545L10.1374 30.0581C10.1614 30.0602 10.1854 30.0624 10.2095 30.0645L10.2401 30.0673C10.2573 30.0688 10.2744 30.0703 10.2916 30.0718L10.3032 30.0728C10.3304 30.0752 10.3577 30.0776 10.385 30.08L10.4214 30.0831C10.4367 30.0844 10.4519 30.0858 10.4672 30.0871L10.4973 30.0897C10.5254 30.0921 10.5536 30.0945 10.5818 30.0968L10.6007 30.0984C10.6559 30.1031 10.7115 30.1077 10.7674 30.1123L10.7944 30.1145C10.8087 30.1157 10.8229 30.1169 10.8372 30.118C10.8579 30.1197 10.8786 30.1214 10.8993 30.1231C10.9166 30.1245 10.9339 30.1259 10.9513 30.1272L10.9781 30.1294C18.1085 30.6995 30.2666 30.8605 40.2389 30.6126C28.8727 29.0292 18.8051 29.6663 7.93998 25.2828C5.08148 24.1296 4.45262 21.6846 3.75058 20.4048C3.32338 23.0423 3.78258 26.5909 4.68701 28.4895L4.6871 28.4897C4.69439 28.505 4.70168 28.5201 4.70906 28.5352L4.71169 28.5406C4.72662 28.5712 4.74167 28.6013 4.75687 28.6311L4.75994 28.637L4.77977 28.6753L4.78336 28.6822L4.80547 28.7238L4.80915 28.7306L4.82764 28.7646L4.83344 28.7751C4.84818 28.8017 4.86297 28.8279 4.8779 28.8537L4.88388 28.8639L4.90214 28.8949L4.90672 28.9026L4.92956 28.9404L4.93353 28.9468L4.95231 28.977L4.95888 28.9875L4.98157 29.023L4.98983 29.0349L4.99152 29.0372L5.00059 29.0489L5.00202 29.0506L5.01118 29.0613L5.0129 29.0633L5.02364 29.0747L5.02623 29.0773L5.0374 29.0881L5.03831 29.089L5.051 29.1004L5.05415 29.1031L5.06754 29.1142L5.06981 29.1161L5.08282 29.1262L5.08592 29.1285L5.10097 29.1395L5.10482 29.1422L5.12045 29.1529L5.12127 29.1535L5.13883 29.1648L5.14291 29.1674L5.16118 29.1786L5.16275 29.1795L5.18116 29.1902L5.18495 29.1923L5.20513 29.2035L5.20837 29.2052L5.22856 29.2159L5.23054 29.2169L5.25324 29.2283L5.25688 29.2301L5.28034 29.2414L5.28206 29.2422L5.30536 29.2529L5.30916 29.2547L5.33436 29.2658L5.3378 29.2673L5.36298 29.278L5.36484 29.2788L5.39206 29.29L5.3967 29.2918C5.4149 29.2991 5.43363 29.3064 5.45291 29.3136L5.46038 29.3164L5.48794 29.3266L5.49398 29.3288L5.51948 29.3378L5.52537 29.3399L5.5567 29.3507L5.56037 29.3519C5.58257 29.3595 5.60532 29.3669 5.62866 29.3744L5.63277 29.3757L5.66734 29.3865L5.67081 29.3876L5.70672 29.3986L5.70719 29.3987L5.74613 29.4102L5.74747 29.4106C5.77265 29.418 5.7984 29.4253 5.82469 29.4325L5.83242 29.4347C5.85785 29.4417 5.88379 29.4487 5.91021 29.4556L5.91754 29.4575L5.95703 29.4677L5.96208 29.4691L6.00178 29.4791L6.00473 29.4798C6.01882 29.4833 6.03308 29.4868 6.04743 29.4903L6.05318 29.4917C6.0825 29.4988 6.11239 29.5059 6.14279 29.513L6.1434 29.5131L6.14658 29.5137Z" fill="#EE714B"/>
<path d="M57.9642 22.3936C57.964 22.3756 57.9638 22.3576 57.9636 22.3396C57.9631 22.3037 57.9625 22.2678 57.9618 22.232C57.9593 22.1066 57.9554 21.9818 57.9499 21.858C57.9483 21.8226 57.9467 21.7872 57.9448 21.752C57.9394 21.6463 57.9329 21.5413 57.9252 21.437C57.9188 21.3501 57.9116 21.2638 57.9036 21.1781C57.9004 21.1438 57.8971 21.1097 57.8936 21.0756C57.8833 20.9734 57.8718 20.8722 57.859 20.772C57.8569 20.7554 57.8548 20.7387 57.8526 20.722C57.846 20.6721 57.8392 20.6226 57.832 20.5732C57.8296 20.5568 57.8272 20.5404 57.8248 20.524C57.8199 20.4912 57.8148 20.4586 57.8097 20.4262C57.8071 20.4099 57.8045 20.3937 57.8018 20.3775C57.7938 20.329 57.7856 20.2808 57.777 20.233C57.7685 20.1851 57.7596 20.1376 57.7504 20.0904C57.7412 20.0432 57.7317 19.9963 57.7219 19.9499C57.7154 19.9189 57.7087 19.8881 57.7018 19.8574C57.695 19.8267 57.688 19.7963 57.681 19.7659C57.6739 19.7356 57.6666 19.7054 57.6593 19.6755C57.6482 19.6305 57.6368 19.586 57.6251 19.5418C57.6212 19.5271 57.6173 19.5124 57.6133 19.4978C57.6053 19.4685 57.5972 19.4394 57.589 19.4105C57.5766 19.3672 57.5639 19.3243 57.5509 19.2819C57.5032 19.1262 57.4511 18.9765 57.3945 18.8336L57.3789 18.7948C57.3633 18.7562 57.3472 18.7181 57.3309 18.6804C57.32 18.6554 57.3089 18.6305 57.2977 18.6059C57.2865 18.5813 57.2752 18.557 57.2637 18.5328L57.2463 18.4968C57.2288 18.461 57.211 18.4257 57.1928 18.391L57.1745 18.3565C57.0025 18.0362 56.8001 17.7658 56.5648 17.5584L56.5471 17.5432L56.5434 17.5402L56.529 17.5285L56.5228 17.5237L56.51 17.5138L56.5028 17.5084L56.4897 17.4988L56.4824 17.4936L56.4683 17.4837L56.4613 17.4789L56.4454 17.4683L56.4392 17.4643C56.4241 17.4545 56.4084 17.4447 56.3921 17.4349L56.3887 17.4329L56.3675 17.4205L56.3603 17.4163L56.342 17.4061L56.3333 17.4012L56.3158 17.3918L56.3061 17.3866L56.2876 17.3769L56.2791 17.3725L56.2585 17.3621L56.2504 17.358L56.2289 17.3475L56.2209 17.3436C56.2011 17.3341 56.1806 17.3246 56.1596 17.3151L56.1544 17.3128L56.1273 17.3009L56.12 17.2976L56.0962 17.2874L56.0834 17.282L56.0632 17.2736L56.0502 17.2683L56.0275 17.2591L56.016 17.2545L55.9912 17.2447L55.9809 17.2407L55.9468 17.2277L55.9453 17.2271L55.9082 17.2133L55.8984 17.2097L55.8701 17.1995L55.8579 17.1951L55.8323 17.1861L55.8174 17.1809L55.7929 17.1724L55.7774 17.1672L55.7536 17.1592L55.7359 17.1533L55.7137 17.146L55.6955 17.1401L55.6691 17.1317L55.654 17.1268C55.6401 17.1224 55.6261 17.118 55.6119 17.1137L55.6099 17.113C55.5963 17.1088 55.5825 17.1046 55.5686 17.1004L55.5551 17.0963L55.525 17.0874L55.5088 17.0826L55.4791 17.0739L55.4629 17.0692L55.4356 17.0614L55.4139 17.0553L55.3896 17.0485L55.3687 17.0427L55.3391 17.0347L55.3214 17.0298L55.2856 17.0202L55.2737 17.0171C55.2576 17.0128 55.2413 17.0085 55.2249 17.0042L55.21 17.0004L55.1772 16.992L55.1526 16.9857L55.1276 16.9794L55.1017 16.973L55.0756 16.9665L55.0516 16.9606L55.025 16.9542L54.9986 16.9478L54.9749 16.9422L54.9448 16.9351L54.926 16.9307L54.8927 16.9229C54.8755 16.919 54.858 16.915 54.8406 16.911L54.8312 16.9089C54.8167 16.9056 54.8021 16.9023 54.7874 16.899L54.7553 16.8919L54.7345 16.8873L54.6989 16.8795L54.6789 16.8752L54.6462 16.8682L54.621 16.8628L54.5868 16.8556L54.5687 16.8518L54.5292 16.8435L54.5132 16.8403L54.473 16.832L54.4588 16.8291C54.411 16.8194 54.3626 16.8098 54.3134 16.8001L54.3009 16.7977C54.2845 16.7945 54.2679 16.7913 54.2512 16.7881L54.2441 16.7867C54.2292 16.7839 54.2142 16.781 54.1992 16.7782L54.1793 16.7744C54.1653 16.7718 54.1512 16.7691 54.1371 16.7665L54.1205 16.7634C54.1059 16.7607 54.0912 16.758 54.0764 16.7552L54.0585 16.752C54.0435 16.7492 54.0285 16.7464 54.0133 16.7437L54.0046 16.7421C53.909 16.7248 53.8111 16.7077 53.7111 16.6907L53.7018 16.6891C53.6836 16.686 53.6654 16.683 53.6471 16.6799L53.6374 16.6783C53.6198 16.6754 53.6022 16.6724 53.5845 16.6695L53.5697 16.6671C53.4453 16.6466 53.3177 16.6264 53.187 16.6064L53.1857 16.6062C49.2239 16.0013 42.3964 15.6367 35.0989 15.5256C41.8473 16.3285 48.4755 17.6603 53.1916 22.8391C54.6272 24.256 55.7392 27.1113 55.8444 29.3961C56.1828 29.294 56.4147 29.1861 56.5249 29.0722L56.5262 29.0708L56.536 29.0603L56.5393 29.0564L56.5464 29.048L56.5514 29.0416L56.5561 29.0354L56.5649 29.0227C56.9487 28.4307 57.2738 27.5506 57.5139 26.5319C57.5216 26.4995 57.5291 26.467 57.5366 26.4344C57.6781 25.8147 57.7884 25.1462 57.8616 24.4618C57.8654 24.4258 57.8692 24.3897 57.8728 24.3536C57.8747 24.3356 57.8765 24.3175 57.8782 24.2994C57.8853 24.2271 57.892 24.1547 57.8983 24.0822C57.9045 24.0096 57.9104 23.937 57.9158 23.8642C57.9184 23.8279 57.921 23.7915 57.9235 23.7551C57.9335 23.6095 57.9417 23.4638 57.9481 23.3181C57.9497 23.2817 57.9512 23.2452 57.9526 23.2088C57.956 23.1178 57.9587 23.0269 57.9608 22.936C57.9616 22.8997 57.9623 22.8634 57.9629 22.8272C57.9646 22.7183 57.9653 22.6097 57.965 22.5016C57.9648 22.4655 57.9646 22.4295 57.9642 22.3936Z" fill="#EE714B"/>
<path d="M41.5253 28.0806C42.9705 28.0806 44.1421 26.828 44.1421 25.2827C44.1421 23.7375 42.9705 22.4849 41.5253 22.4849C40.08 22.4849 38.9084 23.7375 38.9084 25.2827C38.9085 26.828 40.08 28.0806 41.5253 28.0806ZM40.6651 22.963C40.9555 22.8197 41.2505 22.8415 41.3239 23.0116C41.3974 23.1817 41.2215 23.4358 40.9311 23.5791C40.6407 23.7224 40.3458 23.7006 40.2723 23.5305C40.1989 23.3604 40.3748 23.1063 40.6651 22.963Z" fill="#DC2515"/>
<path d="M40.9311 23.5789C41.2214 23.4357 41.3973 23.1816 41.3239 23.0115C41.2504 22.8413 40.9555 22.8196 40.6651 22.9629C40.3747 23.1062 40.1989 23.3603 40.2723 23.5304C40.3457 23.7005 40.6407 23.7223 40.9311 23.5789Z" fill="white"/>
<path d="M20.0274 22.4849C18.5822 22.4849 17.4106 23.7375 17.4106 25.2827C17.4106 26.8279 18.5822 28.0806 20.0274 28.0806C21.4727 28.0806 22.6443 26.828 22.6443 25.2827C22.6443 23.7375 21.4727 22.4849 20.0274 22.4849ZM19.4333 23.579C19.1429 23.7224 18.848 23.7006 18.7745 23.5305C18.7011 23.3604 18.877 23.1063 19.1674 22.963C19.4577 22.8197 19.7527 22.8414 19.8261 23.0116C19.8996 23.1817 19.7237 23.4358 19.4333 23.579Z" fill="#DC2515"/>
<path d="M19.1673 22.9629C18.8769 23.1062 18.7011 23.3603 18.7745 23.5304C18.8479 23.7005 19.1429 23.7223 19.4332 23.5789C19.7236 23.4357 19.8995 23.1816 19.8261 23.0115C19.7526 22.8413 19.4577 22.8196 19.1673 22.9629Z" fill="white"/>
<path d="M29.3499 22.2379C28.6807 21.9401 27.9408 22.1995 27.5953 22.8884C27.1345 23.8068 27.6132 24.8181 28.2428 25.4925H28.2428L28.2359 25.4851C28.8969 24.6468 29.7597 23.8913 30.6639 23.8904C31.9011 23.8892 32.7976 24.7407 33.3105 25.4922C33.9399 24.8177 34.4184 23.8066 33.9577 22.8884C33.6121 22.1995 32.8722 21.9401 32.203 22.2379C31.9239 22.3621 31.6869 22.5739 31.4181 22.7217C31.2219 22.8296 30.9962 22.9299 30.7774 22.9299V22.9299L30.7765 22.9299L30.7755 22.9299V22.9299C30.5571 22.9299 30.3311 22.8296 30.1349 22.7217C29.866 22.5739 29.6291 22.3621 29.3499 22.2379Z" fill="#38170E"/>
<path d="M24.4481 19.601C25.063 19.601 25.6444 20.4499 25.6444 21.3477C25.6444 21.4231 25.6396 21.4927 25.6298 21.5604C25.6044 21.7361 25.7169 21.9006 25.8811 21.9278C25.8967 21.9303 25.9122 21.9316 25.9276 21.9316C26.0734 21.9316 26.2016 21.818 26.2246 21.6591C26.2392 21.5583 26.2463 21.4564 26.2463 21.3477C26.2463 20.2171 25.5078 18.9575 24.4481 18.9575C23.3884 18.9575 22.6499 20.2171 22.6499 21.3477C22.6499 21.4561 22.657 21.5579 22.6715 21.6588C22.6968 21.8343 22.8503 21.9537 23.0147 21.9278C23.179 21.9008 23.2917 21.7364 23.2663 21.5608C23.2566 21.4927 23.2518 21.423 23.2518 21.3477C23.2518 20.4499 23.8332 19.601 24.4481 19.601Z" fill="#38170E"/>
<path d="M37.1046 18.9575C36.045 18.9575 35.3064 20.2171 35.3064 21.3477C35.3064 21.4561 35.3135 21.5579 35.328 21.6588C35.3533 21.8345 35.5064 21.9535 35.6713 21.9278C35.8356 21.9008 35.9481 21.7364 35.9229 21.5608C35.913 21.4927 35.9083 21.423 35.9083 21.3477C35.9083 20.4499 36.4896 19.601 37.1046 19.601C37.7196 19.601 38.3009 20.4499 38.3009 21.3477C38.3009 21.423 38.2962 21.4927 38.2864 21.5608C38.2611 21.7364 38.3736 21.9008 38.5379 21.9278C38.5535 21.9303 38.5689 21.9316 38.5842 21.9316C38.7301 21.9316 38.8583 21.8178 38.8812 21.6588C38.8958 21.5579 38.9028 21.4561 38.9028 21.3477C38.9028 20.2171 38.1643 18.9575 37.1046 18.9575Z" fill="#38170E"/>
<path d="M8.51411 39.6025C9.01859 37.9415 9.42756 36.1978 9.82267 34.4848C10.3864 34.4974 10.9501 34.5014 11.5138 34.4981C14.121 34.4727 16.7276 34.3435 19.3002 33.8325C19.9279 33.699 19.93 32.7308 19.3002 32.5944C16.7275 32.0833 14.1211 31.9542 11.5138 31.9289C10.6486 31.9237 9.78349 31.9358 8.91833 31.9696C8.37561 31.9547 7.87895 32.3563 7.78088 32.9523C7.44215 35.1043 7.25532 37.2669 7.36529 39.4471C7.40584 40.1319 8.31202 40.2591 8.51411 39.6025Z" fill="white"/>
<path d="M7.15628 41.2908C6.87396 41.5215 6.65489 41.8075 6.49944 42.1242C6.00498 43.1316 6.15456 44.4493 6.96334 45.2818C7.57213 45.8168 8.13909 45.5179 8.53263 44.9696C8.86511 44.5063 9.07383 43.8651 9.07948 43.398C9.18088 42.3787 8.36793 40.4443 7.15628 41.2908Z" fill="white"/>
<path d="M49.8369 38.5584L49.3205 38.4452C48.9155 38.3564 48.6052 38.007 48.543 37.57L48.4045 36.5947C48.3617 36.294 47.9563 36.294 47.9136 36.5947L47.775 37.5699C47.7128 38.007 47.4025 38.3564 46.9974 38.4452L46.4811 38.5584C46.2166 38.6164 46.2166 39.0205 46.4811 39.0785L46.9974 39.1918C47.4025 39.2806 47.7128 39.63 47.775 40.0671L47.9136 41.0422C47.9563 41.343 48.3617 41.343 48.4045 41.0422L48.543 40.0671C48.6052 39.63 48.9155 39.2806 49.3206 39.1918L49.8369 39.0785C50.1014 39.0205 50.1014 38.6164 49.8369 38.5584Z" fill="white"/>
<path d="M22.553 52.1774L22.8211 52.2361C23.0315 52.2823 23.1926 52.4637 23.2249 52.6907L23.2969 53.1972C23.3191 53.3534 23.5296 53.3534 23.5518 53.1972L23.6238 52.6907C23.6561 52.4637 23.8173 52.2823 24.0276 52.2361L24.2958 52.1774C24.4331 52.1473 24.4331 51.9374 24.2958 51.9073L24.0276 51.8485C23.8172 51.8023 23.6561 51.6209 23.6238 51.3939L23.5518 50.8874C23.5296 50.7312 23.3191 50.7312 23.2969 50.8874L23.2249 51.3939C23.1927 51.6208 23.0315 51.8023 22.8212 51.8484L22.553 51.9072C22.4156 51.9374 22.4156 52.1473 22.553 52.1774Z" fill="white"/>
<path d="M20.1304 6.3192L20.3985 6.378C20.6089 6.42412 20.77 6.60558 20.8023 6.83258L20.8743 7.33903C20.8965 7.49522 21.107 7.49522 21.1292 7.33903L21.2012 6.83258C21.2335 6.60558 21.3947 6.42416 21.605 6.378L21.8731 6.3192C22.0105 6.28908 22.0105 6.07924 21.8731 6.04911L21.605 5.99028C21.3946 5.94416 21.2335 5.76273 21.2012 5.53574L21.1292 5.02926C21.107 4.87306 20.8965 4.87306 20.8743 5.02926L20.8023 5.53574C20.7701 5.76273 20.6089 5.94419 20.3985 5.99028L20.1304 6.04911C19.993 6.07924 19.993 6.28908 20.1304 6.3192Z" fill="white"/>
</svg>
