<svg width="198" height="193" viewBox="0 0 198 193" fill="none" xmlns="http://www.w3.org/2000/svg">
<path d="M76.7692 117.991C76.7692 123.815 72.048 128.534 66.2262 128.534C60.4025 128.534 55.6826 123.815 55.6826 117.991C55.6826 112.169 60.4025 107.448 66.2262 107.448C72.048 107.448 76.7692 112.169 76.7692 117.991Z" fill="#D9F2F5"/>
<path d="M51.6471 146.175C41.276 146.591 30.6606 143.55 21.7066 136.754C13.0093 130.15 0.24766 134.449 -2.80806 144.933C-3.64626 147.809 -4.04311 150.776 -3.9963 153.829C-3.8935 160.514 0.740803 166.298 7.09145 168.392C23.9777 173.96 41.4455 172.466 56.3513 165.417C58.7599 164.278 60.6335 162.244 61.5563 159.744C64.0555 152.975 58.8566 145.885 51.6471 146.175Z" fill="#E9591B"/>
<path d="M39.8434 170.618L55.2548 150.39L66.8086 159.192L48.4584 183.278C48.3809 184.723 47.9437 186.07 47.0845 187.197C46.3567 188.152 45.397 188.859 44.2882 189.333L25.5103 175.028C25.6734 173.832 26.1003 172.72 26.828 171.764C29.4074 168.379 34.8387 168.039 39.8434 170.618Z" fill="#F4701F"/>
<path d="M88.2708 184.621V159.192H73.7459V189.47C72.932 190.666 72.4639 192.004 72.4639 193.422C72.4639 194.622 72.7982 195.766 73.3925 196.815H96.9987C97.5948 195.766 97.9291 194.622 97.9291 193.422C97.9291 189.165 93.8136 185.603 88.2708 184.621Z" fill="#F4701F"/>
<path d="M60.4063 113.109C59.1491 109.431 55.1942 107.352 51.4891 108.527C41.5137 111.693 30.8278 112.272 20.473 110.048L17.4604 124.208C30.1952 126.925 43.3499 126.249 55.6564 122.393C59.5676 121.168 61.7323 116.988 60.4063 113.109Z" fill="#F4701F"/>
<path d="M21.0873 123.108C24.5452 119.993 25.761 115.455 24.4017 111.928C24.6555 110.367 23.9269 108.281 22.3344 106.512C20.0966 104.028 17.0392 103.134 15.5057 104.515C14.8081 105.142 14.5666 106.141 14.6984 107.268C12.8218 107.679 10.9532 108.613 9.34152 110.065C5.054 113.927 4.20777 119.976 7.45111 123.578C10.6945 127.179 16.7998 126.969 21.0873 123.108Z" fill="#F4701F"/>
<path d="M99.9741 127.063V141.677C99.9741 149.635 96.384 156.674 90.8622 160.99C87.2567 163.816 82.8355 165.482 78.0646 165.482H62.4908C57.7191 165.482 53.299 163.816 49.6926 160.99C44.1714 156.674 40.5811 149.635 40.5811 141.677V127.063C40.5811 112.639 51.3362 100.954 64.6135 100.954H75.9418C89.219 100.954 99.9741 112.639 99.9741 127.063Z" fill="#F4701F"/>
<path d="M92.6967 141.731V152.755C92.6967 155.738 92.0279 158.529 90.8624 160.99C87.257 163.816 82.8358 165.482 78.0649 165.482H62.4911C57.7194 165.482 53.2993 163.816 49.6929 160.99C48.528 158.529 47.8579 155.738 47.8579 152.755V141.731C47.8579 130.842 55.9801 122.019 66.0009 122.019H74.555C84.5745 122.019 92.6967 130.842 92.6967 141.731Z" fill="#E9591B"/>
<path d="M109.256 36.8125C111.173 29.9895 106.043 25.9867 100.28 29.8061L85.2489 39.7759L80.1455 35.7941L110.47 15.6825C116.23 11.8631 121.36 15.8659 119.446 22.6889L109.359 58.594L104.258 54.6122L109.256 36.8125Z" fill="#F4701F"/>
<path d="M85.249 39.776L100.28 29.8062C106.043 25.9868 111.173 29.9897 109.256 36.8126L104.258 54.6123L85.249 39.776Z" fill="#E9591B"/>
<path d="M31.298 36.8125C29.3818 29.9895 34.5125 25.9867 40.2737 29.8061L55.3059 39.7759L60.4079 35.7941L30.0855 15.6825C24.3241 11.8631 19.1936 15.8659 21.1098 22.6889L31.1949 58.594L36.2975 54.6122L31.298 36.8125Z" fill="#F4701F"/>
<path d="M55.3056 39.776L40.2735 29.8062C34.5123 25.9868 29.3816 29.9897 31.2978 36.8126L36.2972 54.6123L55.3056 39.776Z" fill="#E9591B"/>
<path d="M119.852 79.5828C119.852 104.452 97.6581 108.084 70.2765 108.084C42.8971 108.084 20.7012 104.452 20.7012 79.5828C20.7012 54.7137 42.8971 34.5524 70.2765 34.5524C97.6581 34.5524 119.852 54.7137 119.852 79.5828Z" fill="#F4701F"/>
<path d="M79.2646 73.1916H61.3942C60.458 73.1878 59.8752 73.912 59.8064 74.7393C59.772 74.2922 59.8466 73.8317 60.1943 73.4515L68.3165 64.544C69.4304 63.3212 71.3029 63.3288 72.4091 64.5612L80.4606 73.5356C80.8046 73.9196 80.8753 74.3801 80.839 74.8271C80.7778 73.9979 80.1989 73.1955 79.2646 73.1916Z" fill="#E9591B"/>
<path d="M61.3942 73.1916H79.2646C80.1989 73.1954 80.7778 73.9979 80.839 74.8271C80.8714 75.2742 80.7988 75.7347 80.4511 76.1149L72.3289 85.0224C71.215 86.2452 69.3406 86.2357 68.2362 85.0052L60.1847 76.0309C59.8408 75.6468 59.7701 75.1864 59.8064 74.7393C59.8752 73.9119 60.458 73.1878 61.3942 73.1916Z" fill="#040606"/>
<path d="M70.2539 85.9337V99.3083" stroke="#141414" stroke-width="0.730017" stroke-miterlimit="10" stroke-linecap="round"/>
<path d="M79.3179 85.9337C77.5028 89.5028 74.1266 91.9102 70.248 91.9102C66.3713 91.9102 62.9932 89.5028 61.18 85.9337C60.2858 87.6934 59.7661 89.7302 59.7661 91.9102C59.7661 94.9214 60.7501 97.6651 62.3608 99.7668C64.2829 97.2601 67.0992 95.6685 70.248 95.6685C73.3967 95.6685 76.215 97.2601 78.1352 99.7668C79.7478 97.6651 80.7318 94.9214 80.7318 91.9102C80.7318 89.7302 80.2102 87.6934 79.3179 85.9337Z" fill="#040606"/>
<path d="M70.2475 95.6686C67.0988 95.6686 64.2825 97.2602 62.3604 99.767C64.2825 102.274 67.0988 103.865 70.2475 103.865C73.3963 103.865 76.2146 102.274 78.1348 99.767C76.2146 97.2602 73.3963 95.6686 70.2475 95.6686Z" fill="#EE2E32"/>
<path d="M79.4604 86.4745C92.6899 77.5689 108.98 73.0235 123.484 73.1668C106.624 74.2157 93.179 78.5758 79.4604 86.4745Z" fill="#171717"/>
<path d="M79.4502 89.4033C93.7629 83.9541 110.218 83.2433 124.068 86.6921C108.091 83.9446 94.4393 84.9171 79.4502 89.4033Z" fill="#171717"/>
<path d="M61.0941 86.3982C47.9338 77.3818 31.6785 72.7007 17.1743 72.7236C34.025 73.912 47.4363 78.3849 61.0941 86.3982Z" fill="#171717"/>
<path d="M61.0827 89.3271C46.8133 83.7595 30.3648 82.9092 16.4863 86.2433C32.4843 83.6276 46.1296 84.7148 61.0827 89.3271Z" fill="#171717"/>
<path d="M40.3931 62.1976C40.3931 54.769 46.1833 48.7447 53.3257 48.7447C60.4676 48.7447 66.2588 54.769 66.2588 62.1976" stroke="#171717" stroke-width="1.41533" stroke-miterlimit="10" stroke-linecap="round"/>
<path d="M100.161 62.1976C100.161 54.769 94.3722 48.7447 87.2301 48.7447C80.0862 48.7447 74.2969 54.769 74.2969 62.1976" stroke="#171717" stroke-width="1.41533" stroke-miterlimit="10" stroke-linecap="round"/>
<path d="M138.072 83.809L126.402 131.247L113.963 127.787L128.429 81.1302L138.072 83.809Z" fill="#994937"/>
<path d="M107.333 -7.62939e-06L198 25.192L177.896 97.5487L87.2295 72.3567L107.333 -7.62939e-06Z" fill="#32558F"/>
<path d="M162.409 64.2763C156.867 59.9849 153.512 65.0253 147.82 65.7704C138.454 66.999 126.573 59.8225 130.469 45.4754C134.292 31.39 148.091 30.8569 155.661 36.7284C160.26 40.2975 160.615 46.4212 167.647 45.5079C173.331 44.7665 176.285 38.1347 172.93 33.3867C159.5 11.2784 123.652 11.7236 115.585 41.4343C107.493 71.2387 138.5 89.9097 161.338 77.1293C166.487 74.1563 166.55 67.4843 162.409 64.2763Z" fill="#F0CC39"/>
<path d="M119.423 110.178L114.673 125.5C104.623 126.468 94.5153 125.412 84.9009 122.401C80.9917 121.17 78.8193 116.984 80.151 113.103C81.4101 109.425 85.3633 107.354 89.0699 108.527C98.8315 111.626 109.271 112.249 119.423 110.178Z" fill="#F4701F"/>
<path d="M127.959 108.992L124.667 121.25C123.954 123.904 126.268 126.352 128.972 125.861C133.152 125.104 136.628 122.253 137.719 118.193C138.837 114.034 137.151 109.721 133.756 106.976C131.719 105.331 128.639 106.464 127.959 108.992Z" fill="#F4701F"/>
</svg>
