<svg width="48" height="48" viewBox="0 0 48 48" fill="none" xmlns="http://www.w3.org/2000/svg">
<path d="M18.4619 3.75947C19.8695 2.56143 20.5733 1.96242 21.3071 1.61049C22.1475 1.2086 23.0672 1 23.9988 1C24.9303 1 25.85 1.2086 26.6904 1.61049C27.4267 1.95992 28.1305 2.55894 29.5356 3.75947C30.0972 4.23868 30.3767 4.47579 30.6762 4.67546C31.362 5.13515 32.1323 5.45413 32.9423 5.61392C33.2942 5.68381 33.6611 5.71376 34.3949 5.77366C36.2393 5.91842 37.1602 5.9933 37.9289 6.26536C38.8069 6.57522 39.6044 7.07766 40.263 7.73584C40.9216 8.39403 41.4245 9.19127 41.7349 10.0691C42.007 10.8403 42.0793 11.7613 42.2266 13.6033C42.284 14.3371 42.3139 14.704 42.3838 15.0584C42.5436 15.8671 42.863 16.6383 43.3222 17.3222C43.5219 17.6217 43.7615 17.9013 44.2382 18.4628C45.4362 19.8705 46.0376 20.5744 46.3895 21.3082C46.7914 22.1486 47 23.0684 47 24C47 24.9316 46.7914 25.8514 46.3895 26.6918C46.0401 27.4256 45.4387 28.1295 44.2382 29.5372C43.9108 29.8991 43.605 30.28 43.3222 30.6778C42.8629 31.3629 42.5439 32.1324 42.3838 32.9416C42.3139 33.296 42.284 33.6629 42.2266 34.3967C42.0793 36.2387 42.007 37.1622 41.7349 37.9309C41.4245 38.8087 40.9216 39.606 40.263 40.2642C39.6044 40.9223 38.8069 41.4248 37.9289 41.7347C37.1602 42.0092 36.2393 42.0816 34.3949 42.2263C33.6611 42.2862 33.2967 42.3162 32.9423 42.3861C32.1323 42.5459 31.362 42.8649 30.6762 43.3245C30.2793 43.6074 29.8993 43.9132 29.5381 44.2405C28.1305 45.4386 27.4267 46.0376 26.6929 46.3895C25.8525 46.7914 24.9328 47 24.0012 47C23.0697 47 22.15 46.7914 21.3096 46.3895C20.5733 46.0401 19.8695 45.4411 18.4644 44.2405C18.1024 43.9132 17.7216 43.6073 17.3238 43.3245C16.638 42.8649 15.8677 42.5459 15.0577 42.3861C14.577 42.3045 14.092 42.2512 13.6051 42.2263C11.7608 42.0816 10.8398 42.0067 10.0711 41.7347C9.19312 41.4248 8.39559 40.9223 7.73701 40.2642C7.07843 39.606 6.57549 38.8087 6.26507 37.9309C5.99303 37.1622 5.92065 36.2387 5.7734 34.3967C5.7495 33.909 5.697 33.4231 5.61617 32.9416C5.45607 32.1324 5.13712 31.3629 4.67776 30.6778C4.4781 30.3783 4.23851 30.0987 3.76181 29.5372C2.56384 28.1295 1.96236 27.4256 1.61046 26.6918C1.20859 25.8514 1 24.9316 1 24C1 23.0684 1.20859 22.1486 1.61046 21.3082C1.96236 20.5744 2.56135 19.8705 3.76181 18.4628C4.23851 17.9013 4.4781 17.6217 4.67776 17.3222C5.13712 16.6371 5.45607 15.8676 5.61617 15.0584C5.68605 14.704 5.716 14.3371 5.7734 13.6033C5.92065 11.7613 5.99303 10.8403 6.26507 10.0691C6.57575 9.19101 7.07907 8.39361 7.7381 7.7354C8.39713 7.0772 9.19515 6.5749 10.0736 6.26536C10.8423 5.9933 11.7632 5.91842 13.6076 5.77366C14.3414 5.71376 14.7058 5.68381 15.0602 5.61392C15.8702 5.45413 16.6405 5.13515 17.3263 4.67546C17.6258 4.47579 17.9028 4.23868 18.4619 3.75947Z" fill="#0B9FD9" stroke="white"/>
<path d="M34.8045 22.6364C34.6087 22.6053 34.4023 22.6125 34.1957 22.6639L33.5391 22.8286C32.4419 19.4843 30.0044 16.9353 27.0623 15.7209C25.0893 14.9072 22.8914 14.6897 20.7174 15.2345C15.0616 16.6498 11.6862 22.6675 13.1308 28.7128L11.9056 29.0219C10.2159 22.0094 13.9445 15.0719 20.2783 13.4883C22.352 12.9689 24.4511 13.0898 26.3967 13.7279C30.2202 14.984 33.4623 18.2497 34.8045 22.6364Z" fill="#FFCE00"/>
<path d="M36.7887 26.7276L36.0514 23.7786C36.0152 23.6336 35.9608 23.5036 35.8913 23.3828C35.6586 22.9809 35.2568 22.709 34.8035 22.6364C34.6071 22.6062 34.4017 22.6123 34.1962 22.6636L33.5375 22.8268L33.4771 22.8419C33.4861 22.86 33.4891 22.8812 33.4952 22.8993L34.3654 26.3771L34.9486 28.7068C34.9546 28.7279 34.9576 28.746 34.9606 28.7642L35.6767 28.5859C36.4956 28.3804 36.9942 27.5465 36.7887 26.7276Z" fill="#00D4FC"/>
<path d="M13.9221 31.4925L13.0489 28.0147C13.0428 27.9966 13.0398 27.9754 13.0368 27.9573L12.3207 28.1355C11.6438 28.3048 11.1846 28.903 11.1634 29.5678C11.1574 29.7068 11.1725 29.8488 11.2087 29.9908L11.946 32.9429C12.1515 33.7647 12.9824 34.2633 13.8012 34.0578L14.5204 33.8795V33.8765C14.5143 33.8584 14.5083 33.8403 14.5052 33.8221L13.9221 31.4925Z" fill="#00D4FC"/>
<path d="M33.3626 31.3506H33.3596C33.2568 31.3778 33.1541 31.3959 33.0453 31.405C31.9908 31.5137 30.9846 30.8309 30.7187 29.7643L29.2653 23.9568C28.9994 22.8932 29.5645 21.8145 30.5465 21.4127C30.6462 21.3704 30.7459 21.3401 30.8486 21.3129L30.8516 21.3099C31.9998 21.0259 33.1631 21.7088 33.4774 22.8419C33.4865 22.86 33.4895 22.8811 33.4955 22.8993L34.3657 26.3771L34.9489 28.7067C34.9549 28.7279 34.958 28.746 34.961 28.7641C35.2175 29.9153 34.5105 31.0635 33.3626 31.3506Z" fill="#845EF9"/>
<path d="M17.4507 35.3058C17.354 35.3481 17.2513 35.3813 17.1486 35.4055L17.1456 35.4085C16.0004 35.6956 14.8371 35.0157 14.5198 33.8796V33.8766C14.5138 33.8585 14.5077 33.8403 14.5047 33.8222L13.9215 31.4926L13.0483 28.0148C13.0423 27.9966 13.0392 27.9755 13.0362 27.9574C13 27.7972 12.9849 27.6431 12.9849 27.486C12.9849 26.507 13.6436 25.6157 14.6346 25.3709C14.7404 25.3407 14.8461 25.3226 14.9519 25.3135C16.0064 25.2077 17.0126 25.8906 17.2785 26.9572L18.7319 32.7647C18.9978 33.8283 18.4327 34.9039 17.4507 35.3058Z" fill="#845EF9"/>
<path d="M30.5469 21.4128C29.5646 21.8168 28.9996 22.8928 29.2661 23.9576L30.7191 29.766C30.9856 30.8308 31.99 31.5118 33.0466 31.4055L30.5469 21.4128Z" fill="#D811AD"/>
<path d="M17.2793 26.9562C17.0128 25.8914 16.0078 25.2082 14.9512 25.3143L17.4509 35.3069C18.4332 34.9029 18.9986 33.829 18.7324 32.7645L17.2793 26.9562Z" fill="#D811AD"/>
<g opacity="0.25">
<path d="M36.7897 26.7264L36.0515 23.7777C36.0171 23.6348 35.9627 23.503 35.892 23.3843C35.6681 24.3902 35.2215 25.3453 34.5676 26.1454C34.5018 26.2258 34.4362 26.3022 34.3667 26.3786L34.9493 28.708C34.9544 28.7279 34.9577 28.7457 34.961 28.7654L35.6778 28.5856C36.496 28.3798 36.9955 27.5486 36.7897 26.7264Z" fill="#3C1DA1"/>
<path d="M13.9211 31.4927C13.8238 31.4598 13.7268 31.4229 13.6316 31.3821C12.6789 30.9848 11.8347 30.3533 11.1651 29.5701C11.1585 29.7075 11.1733 29.8499 11.2074 29.9928L11.9456 32.9415C12.1514 33.7637 12.9823 34.2629 13.8027 34.0574L14.5194 33.8776C14.5139 33.8598 14.5088 33.842 14.5037 33.822L13.9211 31.4927Z" fill="#3C1DA1"/>
</g>
<path opacity="0.5" d="M34.8043 22.6363C34.6085 22.6051 34.4021 22.6124 34.1954 22.6637L33.5389 22.8284C32.4417 19.4842 30.0042 16.9352 27.0621 15.7208C26.8938 15.0406 26.6672 14.3732 26.3965 13.7278C30.22 14.9838 33.4621 18.2496 34.8043 22.6363Z" fill="#E38921"/>
<g opacity="0.25">
<path d="M34.9484 28.7076L33.853 24.3293C33.4799 25.4053 32.8931 26.3934 32.0755 27.1877C31.582 27.6682 30.9962 28.057 30.3613 28.3356L30.7191 29.7657C30.9856 30.8305 31.9899 31.5116 33.0466 31.4052C33.152 31.3956 33.2575 31.3765 33.3614 31.3506L33.3636 31.3499C34.5296 31.0584 35.2405 29.876 34.9484 28.7076Z" fill="#0A1640"/>
<path d="M18.3744 31.3343C17.683 31.3875 16.9833 31.3204 16.3215 31.1289C15.2262 30.8131 14.2433 30.2179 13.4072 29.4443L14.5025 33.8226C14.7947 34.991 15.9786 35.6993 17.1449 35.4074L17.1473 35.4068C17.251 35.3808 17.3531 35.3482 17.4507 35.3068C18.433 34.9028 18.9983 33.8289 18.7321 32.7644L18.3744 31.3343Z" fill="#0A1640"/>
</g>
<path d="M36.9492 26.6854L36.2119 23.7394C36.1726 23.5822 36.1122 23.4342 36.0337 23.3042C35.798 22.8873 35.3961 22.5972 34.9308 22.4945C33.5922 18.2099 30.4226 14.8771 26.4493 13.5718C24.4157 12.904 22.2674 12.8194 20.2369 13.327C14.0669 14.8711 10.302 21.5094 11.5922 28.3351C11.2387 28.6373 11.0151 29.0785 11 29.5619V29.6284C11 29.7643 11.0151 29.8973 11.0483 30.0333L11.7856 32.9823C11.979 33.7528 12.6709 34.2695 13.4324 34.2695C13.5683 34.2695 13.7043 34.2514 13.8433 34.2181L14.4083 34.0761C14.7407 35.0188 15.6502 35.6352 16.6262 35.6352C16.8105 35.6352 16.9978 35.6141 17.1851 35.5688C17.1912 35.5658 17.2003 35.5627 17.2063 35.5597C17.312 35.5325 17.4027 35.5023 17.4843 35.4691C17.4933 35.466 17.5024 35.463 17.5145 35.46C17.584 35.4298 17.6505 35.3996 17.7169 35.3633C17.8469 35.2938 17.9707 35.2122 18.0825 35.1216C18.14 35.0763 18.1913 35.0309 18.2427 34.9796C18.8319 34.4085 19.1008 33.5504 18.8923 32.7255L17.439 26.915C17.1579 25.794 16.0792 25.0356 14.9341 25.1504C14.8193 25.1625 14.7075 25.1806 14.6047 25.2078C14.6017 25.2078 14.5987 25.2109 14.5926 25.2109C13.8342 25.4012 13.2541 25.9451 12.9882 26.6249C12.6709 21.4218 15.8587 16.6205 20.7566 15.3938C22.8234 14.8771 24.9838 15.0403 26.9992 15.8742C29.6098 16.9499 31.7068 19.0197 32.9063 21.6515C32.3473 21.171 31.5769 20.9625 30.8124 21.1529C30.8064 21.1529 30.8003 21.1559 30.7943 21.1589C30.6794 21.1861 30.5767 21.2224 30.483 21.2617C30.2594 21.3523 30.06 21.4762 29.8817 21.6243C29.8364 21.6635 29.7941 21.6998 29.7548 21.7421C29.2654 22.2165 28.9964 22.8933 29.0387 23.5883C29.0478 23.6699 29.0569 23.7514 29.072 23.836C29.081 23.8904 29.0931 23.9418 29.1052 23.9962L30.5586 29.8066C30.5918 29.9366 30.6341 30.0635 30.6885 30.1843C30.7399 30.3022 30.8033 30.417 30.8758 30.5258C31.3049 31.1694 32.0422 31.5803 32.8338 31.5803C32.9094 31.5803 32.9849 31.5773 33.0635 31.5682C33.0755 31.5682 33.0876 31.5652 33.0997 31.5622C33.2024 31.5531 33.3022 31.535 33.4019 31.5108C33.4079 31.5078 33.414 31.5078 33.423 31.5048C34.5863 31.2026 35.3326 30.0484 35.1514 28.8851L35.7194 28.7431C36.6229 28.5164 37.1758 27.5949 36.9492 26.6854ZM15.1637 25.4677C15.2393 25.4677 15.3148 25.4707 15.3873 25.4828C15.4236 25.4858 15.4628 25.4888 15.4991 25.4979C15.6079 25.516 15.7136 25.5432 15.8164 25.5795C16.0249 25.649 16.2213 25.7578 16.3965 25.8937H16.3995C16.463 25.9451 16.5234 25.9995 16.5839 26.0569C16.6443 26.1143 16.6987 26.1778 16.747 26.2412C16.9192 26.4588 17.0492 26.7126 17.1187 26.9966L18.572 32.804C18.5811 32.8433 18.5902 32.8856 18.5992 32.9249C18.6476 33.1848 18.6415 33.4476 18.5902 33.6954C18.5811 33.7347 18.572 33.774 18.5599 33.8132C18.5539 33.8374 18.5479 33.8616 18.5388 33.8858C18.5267 33.9281 18.5146 33.9673 18.4965 34.0096C18.4361 34.1698 18.3545 34.3239 18.2548 34.4629C18.2336 34.4931 18.2125 34.5203 18.1913 34.5475C18.0705 34.7016 17.9284 34.8345 17.7683 34.9463C17.732 34.9705 17.6958 34.9947 17.6595 35.0158C17.6293 35.037 17.5961 35.0551 17.5628 35.0702L15.1577 25.4677C15.1607 25.4677 15.1637 25.4677 15.1637 25.4677ZM14.6652 25.5311C14.6682 25.5311 14.6742 25.5311 14.6803 25.5281C14.7256 25.516 14.7769 25.5039 14.8283 25.4979L17.2546 35.2032C17.2093 35.2183 17.161 35.2334 17.1066 35.2455C17.1005 35.2485 17.0945 35.2515 17.0884 35.2515C16.1034 35.4902 15.0852 34.9403 14.7316 33.9945C14.7105 33.9402 14.6893 33.8827 14.6742 33.8223L14.638 33.6773L13.236 28.0783L13.2088 27.9726C13.1906 27.9 13.1755 27.8275 13.1665 27.755C13.0305 26.7549 13.665 25.788 14.6652 25.5311ZM13.1003 28.8911L14.318 33.7589L13.762 33.8978C13.0308 34.0822 12.2875 33.635 12.1062 32.9037L11.3689 29.9517C11.3357 29.8278 11.3236 29.7009 11.3297 29.574C11.3387 29.2537 11.4626 28.9515 11.6711 28.7219C11.7497 28.6252 11.8463 28.5436 11.9521 28.4741C11.9551 28.4741 11.9551 28.4741 11.9551 28.4741C12.076 28.3926 12.212 28.3321 12.36 28.2959L12.8495 28.175L12.916 28.1569L13.1003 28.8911ZM27.1261 15.569C25.0442 14.7109 22.8143 14.5387 20.6781 15.0735C15.2483 16.4332 11.8551 22.0473 12.7888 27.8487L12.2811 27.9756C12.1421 28.0118 12.0092 28.0632 11.8883 28.1297C10.7099 21.5245 14.363 15.137 20.3185 13.6473C21.1645 13.4358 22.0347 13.3301 22.905 13.3301C24.0592 13.3301 25.2195 13.5144 26.3465 13.883C30.1779 15.143 33.2387 18.3368 34.5742 22.4522C34.5712 22.4522 34.5712 22.4522 34.5682 22.4522C34.4685 22.4522 34.3658 22.4612 34.26 22.4824C34.2237 22.4884 34.1875 22.4945 34.1542 22.5035L33.6466 22.6304C32.5407 19.3943 30.1721 16.826 27.1261 15.569ZM32.8341 31.251C32.3235 31.251 31.84 31.0546 31.4714 30.7192C31.3505 30.6043 31.2448 30.4805 31.1511 30.3415C31.0907 30.2508 31.0363 30.1511 30.991 30.0484C30.9456 29.9456 30.9064 29.8369 30.8792 29.7251L29.4258 23.9176C29.3503 23.6185 29.3472 23.3133 29.4077 23.0263C29.4167 22.9809 29.4288 22.9356 29.4409 22.8933C29.4469 22.8661 29.456 22.8389 29.4651 22.8117C29.4741 22.7815 29.4832 22.7543 29.4953 22.7241C29.5074 22.6909 29.5195 22.6576 29.5346 22.6274C29.5497 22.5912 29.5678 22.5519 29.589 22.5156C29.6041 22.4824 29.6192 22.4552 29.6373 22.425C29.6585 22.3887 29.6796 22.3525 29.7038 22.3162C29.7703 22.2135 29.8488 22.1168 29.9334 22.0291C29.9516 22.008 29.9697 21.9899 29.9908 21.9717C30.0603 21.9022 30.1359 21.8388 30.2144 21.7844C30.2628 21.7512 30.3111 21.7179 30.3625 21.6877C30.3867 21.6726 30.4108 21.6605 30.435 21.6484L32.8402 31.251C32.8368 31.251 32.8341 31.251 32.8341 31.251ZM33.3233 31.1905C33.3173 31.1905 33.3112 31.1935 33.3052 31.1966C33.2599 31.2056 33.2145 31.2177 33.1692 31.2238L30.7429 21.5155C30.7882 21.5004 30.8396 21.4883 30.8909 21.4732C30.894 21.4702 30.9 21.4702 30.9061 21.4671C31.9092 21.2284 32.9214 21.7814 33.2689 22.7271C33.2961 22.7966 33.3173 22.8661 33.3354 22.9386L33.3626 23.0414L34.7616 28.6433L34.7888 28.7491C34.7948 28.7642 34.7948 28.7793 34.8009 28.8005C34.8129 28.8549 34.825 28.9123 34.8311 28.9667C34.967 29.9638 34.3204 30.9428 33.3233 31.1905ZM35.6378 28.4258L35.0819 28.5648L33.6799 22.9628L34.2358 22.8238C34.4171 22.7785 34.5984 22.7694 34.7797 22.7996C35.1906 22.8631 35.5442 23.1078 35.7496 23.4674C35.8131 23.5762 35.8614 23.694 35.8916 23.8179L36.6319 26.767C36.8132 27.4982 36.3691 28.2415 35.6378 28.4258Z" fill="#0A1640"/>
</svg>
