<svg width="38" height="38" viewBox="0 0 38 38" fill="none" xmlns="http://www.w3.org/2000/svg">
<path d="M14.6658 3.15958C15.7674 2.22199 16.3182 1.7532 16.8925 1.47778C17.5502 1.16325 18.27 1 18.999 1C19.7281 1 20.4479 1.16325 21.1056 1.47778C21.6818 1.75124 22.2326 2.22004 23.3322 3.15958C23.7717 3.53462 23.9905 3.72018 24.2248 3.87645C24.7616 4.2362 25.3644 4.48584 25.9984 4.6109C26.2738 4.66559 26.5609 4.68903 27.1351 4.73591C28.5785 4.8492 29.2993 4.9078 29.9009 5.12071C30.588 5.36321 31.2122 5.75643 31.7276 6.27153C32.243 6.78663 32.6366 7.41056 32.8795 8.09757C33.0924 8.70114 33.1491 9.42192 33.2643 10.8635C33.3092 11.4377 33.3327 11.7249 33.3873 12.0022C33.5124 12.6351 33.7624 13.2387 34.1218 13.7739C34.278 14.0083 34.4655 14.2271 34.8386 14.6666C35.7761 15.7682 36.2469 16.3191 36.5223 16.8934C36.8368 17.5511 37 18.2709 37 19C37 19.7291 36.8368 20.4489 36.5223 21.1067C36.2488 21.6809 35.7781 22.2318 34.8386 23.3334C34.5824 23.6167 34.343 23.9148 34.1218 24.2261C33.7623 24.7623 33.5126 25.3645 33.3873 25.9978C33.3327 26.2751 33.3092 26.5623 33.2643 27.1365C33.1491 28.5781 33.0924 29.3008 32.8795 29.9024C32.6366 30.5894 32.243 31.2134 31.7276 31.7285C31.2122 32.2436 30.588 32.6368 29.9009 32.8793C29.2993 33.0942 28.5785 33.1508 27.1351 33.2641C26.5609 33.311 26.2757 33.3344 25.9984 33.3891C25.3644 33.5142 24.7616 33.7638 24.2248 34.1236C23.9142 34.3449 23.6168 34.5843 23.3342 34.8404C22.2326 35.778 21.6818 36.2468 21.1075 36.5222C20.4498 36.8367 19.73 37 19.001 37C18.2719 37 17.5522 36.8367 16.8944 36.5222C16.3182 36.2488 15.7674 35.78 14.6678 34.8404C14.3845 34.5842 14.0865 34.3449 13.7752 34.1236C13.2384 33.7638 12.6356 33.5142 12.0016 33.3891C11.6255 33.3253 11.2459 33.2835 10.8649 33.2641C9.42146 33.1508 8.70072 33.0922 8.09914 32.8793C7.412 32.6368 6.78785 32.2436 6.27244 31.7285C5.75703 31.2134 5.36343 30.5894 5.12049 29.9024C4.90759 29.3008 4.85095 28.5781 4.73571 27.1365C4.717 26.7549 4.67591 26.3746 4.61265 25.9978C4.48736 25.3645 4.23774 24.7623 3.87825 24.2261C3.72199 23.9917 3.53448 23.7729 3.16142 23.3334C2.22388 22.2318 1.75315 21.6809 1.47775 21.1067C1.16324 20.4489 1 19.7291 1 19C1 18.2709 1.16324 17.5511 1.47775 16.8934C1.75315 16.3191 2.22192 15.7682 3.16142 14.6666C3.53448 14.2271 3.72199 14.0083 3.87825 13.7739C4.23774 13.2377 4.48736 12.6355 4.61265 12.0022C4.66734 11.7249 4.69078 11.4377 4.73571 10.8635C4.85095 9.42192 4.90759 8.70114 5.12049 8.09757C5.36363 7.41036 5.75753 6.7863 6.2733 6.27119C6.78906 5.75607 7.4136 5.36297 8.10109 5.12071C8.70268 4.9078 9.42341 4.8492 10.8668 4.73591C11.4411 4.68903 11.7262 4.66559 12.0036 4.6109C12.6375 4.48584 13.2404 4.2362 13.7771 3.87645C14.0115 3.72018 14.2283 3.53462 14.6658 3.15958Z" fill="#27C0FF" stroke="#0B9FD9"/>
<path d="M27.4557 17.9329C27.3025 17.9086 27.141 17.9142 26.9792 17.9544L26.4654 18.0833C25.6068 15.4661 23.6992 13.4712 21.3967 12.5208C19.8525 11.884 18.1324 11.7138 16.431 12.1401C12.0048 13.2477 9.36317 17.9573 10.4937 22.6883L9.53485 22.9303C8.2125 17.4423 11.1305 12.0129 16.0874 10.7736C17.7103 10.3671 19.3531 10.4617 20.8757 10.9611C23.868 11.9441 26.4053 14.4999 27.4557 17.9329Z" fill="#FFCE00"/>
<path d="M29.0088 21.1348L28.4318 18.8269C28.4035 18.7134 28.3609 18.6117 28.3065 18.5171C28.1244 18.2026 27.8099 17.9898 27.4552 17.933C27.3015 17.9094 27.1407 17.9141 26.9799 17.9543L26.4644 18.082L26.4171 18.0938C26.4242 18.108 26.4266 18.1245 26.4313 18.1387L27.1123 20.8605L27.5687 22.6837C27.5735 22.7002 27.5758 22.7144 27.5782 22.7286L28.1386 22.5891C28.7795 22.4283 29.1696 21.7756 29.0088 21.1348Z" fill="#00D4FC"/>
<path d="M11.113 24.8638L10.4296 22.142C10.4249 22.1278 10.4225 22.1112 10.4201 22.097L9.8597 22.2366C9.33 22.369 8.97057 22.8372 8.95402 23.3574C8.94929 23.4662 8.96111 23.5774 8.98949 23.6885L9.56648 25.9988C9.72728 26.642 10.3776 27.0322 11.0184 26.8714L11.5812 26.7319V26.7295C11.5765 26.7153 11.5717 26.7011 11.5694 26.6869L11.113 24.8638Z" fill="#00D4FC"/>
<path d="M26.3275 24.7526H26.3251C26.2447 24.7739 26.1643 24.7881 26.0792 24.7952C25.2539 24.8803 24.4665 24.3459 24.2584 23.5111L23.1209 18.9662C22.9128 18.1338 23.355 17.2896 24.1236 16.9751C24.2016 16.942 24.2796 16.9183 24.36 16.8971L24.3624 16.8947C25.261 16.6724 26.1714 17.2068 26.4173 18.0936C26.4244 18.1078 26.4268 18.1243 26.4315 18.1385L27.1126 20.8603L27.5689 22.6835C27.5737 22.7 27.576 22.7142 27.5784 22.7284C27.7792 23.6294 27.2258 24.528 26.3275 24.7526Z" fill="#845EF9"/>
<path d="M13.8748 27.8481C13.7991 27.8813 13.7187 27.9073 13.6383 27.9262L13.636 27.9285C12.7397 28.1532 11.8293 27.6211 11.581 26.732V26.7296C11.5763 26.7155 11.5716 26.7013 11.5692 26.6871L11.1128 24.8639L10.4294 22.1421C10.4247 22.1279 10.4223 22.1114 10.42 22.0972C10.3916 21.9719 10.3798 21.8513 10.3798 21.7283C10.3798 20.9621 10.8953 20.2645 11.6709 20.073C11.7537 20.0494 11.8364 20.0352 11.9192 20.0281C12.7445 19.9453 13.5319 20.4797 13.74 21.3145L14.8774 25.8594C15.0855 26.6918 14.6433 27.5336 13.8748 27.8481Z" fill="#845EF9"/>
<path d="M24.1239 16.9752C23.3551 17.2914 22.9129 18.1335 23.1215 18.9668L24.2587 23.5124C24.4673 24.3458 25.2533 24.8788 26.0802 24.7955L24.1239 16.9752Z" fill="#D811AD"/>
<path d="M13.7405 21.3136C13.5319 20.4803 12.7454 19.9456 11.9185 20.0286L13.8748 27.8489C14.6435 27.5327 15.086 26.6923 14.8776 25.8592L13.7405 21.3136Z" fill="#D811AD"/>
<g opacity="0.25">
<path d="M29.0093 21.1338L28.4316 18.8261C28.4046 18.7142 28.3621 18.6111 28.3067 18.5182C28.1315 19.3054 27.782 20.0529 27.2703 20.6791C27.2187 20.742 27.1674 20.8018 27.113 20.8616L27.5689 22.6846C27.573 22.7002 27.5756 22.7141 27.5782 22.7295L28.1391 22.5888C28.7794 22.4278 29.1703 21.7772 29.0093 21.1338Z" fill="#3C1DA1"/>
<path d="M11.1124 24.8638C11.0363 24.838 10.9604 24.8092 10.8859 24.7772C10.1403 24.4663 9.47958 23.9721 8.95556 23.3591C8.95036 23.4667 8.96195 23.5781 8.98867 23.6899L9.56637 25.9977C9.7274 26.6411 10.3777 27.0317 11.0197 26.8709L11.5806 26.7303C11.5764 26.7163 11.5723 26.7023 11.5683 26.6867L11.1124 24.8638Z" fill="#3C1DA1"/>
</g>
<path opacity="0.5" d="M27.4557 17.9328C27.3025 17.9084 27.141 17.9141 26.9793 17.9543L26.4654 18.0832C25.6068 15.4659 23.6992 13.4711 21.3967 12.5207C21.265 11.9884 21.0876 11.466 20.8757 10.9609C23.868 11.9439 26.4053 14.4997 27.4557 17.9328Z" fill="#E38921"/>
<g opacity="0.25">
<path d="M27.5685 22.6843L26.7113 19.2578C26.4192 20.0999 25.96 20.8731 25.3201 21.4948C24.934 21.8708 24.4755 22.1751 23.9786 22.3932L24.2586 23.5124C24.4672 24.3457 25.2532 24.8787 26.0801 24.7955C26.1627 24.7879 26.2452 24.773 26.3265 24.7527L26.3282 24.7522C27.2407 24.524 27.7972 23.5987 27.5685 22.6843Z" fill="#0A1640"/>
<path d="M14.5977 24.7399C14.0566 24.7815 13.509 24.729 12.9911 24.5791C12.1339 24.332 11.3646 23.8661 10.7103 23.2607L11.5675 26.6872C11.7962 27.6016 12.7227 28.1559 13.6355 27.9275L13.6374 27.927C13.7185 27.9067 13.7984 27.8811 13.8748 27.8487C14.6435 27.5326 15.086 26.6922 14.8776 25.8591L14.5977 24.7399Z" fill="#0A1640"/>
</g>
<path d="M29.1341 21.1017L28.5571 18.7961C28.5264 18.6731 28.4791 18.5572 28.4176 18.4556C28.2332 18.1292 27.9187 17.9022 27.5545 17.8218C26.5069 14.4687 24.0264 11.8604 20.9168 10.8388C19.3253 10.3162 17.644 10.25 16.0549 10.6473C11.2262 11.8557 8.2798 17.0509 9.28953 22.3928C9.01286 22.6292 8.83787 22.9745 8.82605 23.3528V23.4049C8.82605 23.5113 8.83787 23.6153 8.86389 23.7217L9.44087 26.0297C9.59221 26.6327 10.1337 27.0371 10.7296 27.0371C10.836 27.0371 10.9425 27.0229 11.0512 26.9969L11.4934 26.8857C11.7536 27.6235 12.4653 28.1059 13.2291 28.1059C13.3734 28.1059 13.52 28.0893 13.6666 28.0539C13.6713 28.0515 13.6784 28.0491 13.6831 28.0468C13.7659 28.0255 13.8369 28.0019 13.9007 27.9758C13.9078 27.9735 13.9149 27.9711 13.9243 27.9687C13.9787 27.9451 14.0308 27.9215 14.0828 27.8931C14.1845 27.8387 14.2814 27.7748 14.3689 27.7039C14.4138 27.6684 14.454 27.633 14.4942 27.5928C14.9554 27.1458 15.1658 26.4743 15.0027 25.8287L13.8652 21.2814C13.6453 20.4041 12.8011 19.8105 11.9049 19.9004C11.815 19.9098 11.7275 19.924 11.6471 19.9453C11.6448 19.9453 11.6424 19.9477 11.6377 19.9477C11.0441 20.0967 10.5901 20.5223 10.382 21.0544C10.1337 16.9823 12.6285 13.2248 16.4617 12.2648C18.0791 11.8604 19.7699 11.9881 21.3471 12.6407C23.3903 13.4826 25.0314 15.1024 25.9701 17.1621C25.5327 16.7861 24.9297 16.6229 24.3314 16.7719C24.3267 16.7719 24.3219 16.7742 24.3172 16.7766C24.2274 16.7979 24.147 16.8263 24.0737 16.857C23.8987 16.928 23.7426 17.0249 23.6031 17.1408C23.5676 17.1715 23.5345 17.1999 23.5038 17.233C23.1207 17.6043 22.9102 18.134 22.9433 18.6778C22.9504 18.7417 22.9575 18.8055 22.9693 18.8717C22.9764 18.9143 22.9859 18.9545 22.9953 18.9971L24.1328 23.5444C24.1588 23.6461 24.1919 23.7454 24.2344 23.84C24.2746 23.9322 24.3243 24.0221 24.3811 24.1072C24.7168 24.6109 25.2938 24.9325 25.9134 24.9325C25.9725 24.9325 26.0316 24.9301 26.0931 24.923C26.1026 24.923 26.112 24.9206 26.1215 24.9183C26.2019 24.9112 26.2799 24.897 26.3579 24.8781C26.3627 24.8757 26.3674 24.8757 26.3745 24.8733C27.2849 24.6369 27.869 23.7336 27.7271 22.8232L28.1717 22.712C28.8787 22.5347 29.3115 21.8134 29.1341 21.1017ZM12.0846 20.1487C12.1437 20.1487 12.2028 20.151 12.2596 20.1605C12.288 20.1629 12.3187 20.1652 12.3471 20.1723C12.4322 20.1865 12.515 20.2078 12.5954 20.2362C12.7585 20.2906 12.9123 20.3757 13.0494 20.4821H13.0518C13.1014 20.5223 13.1487 20.5649 13.196 20.6098C13.2433 20.6547 13.2859 20.7044 13.3237 20.754C13.4585 20.9243 13.5602 21.1229 13.6146 21.3452L14.752 25.8902C14.7591 25.9209 14.7662 25.954 14.7733 25.9848C14.8111 26.1881 14.8064 26.3939 14.7662 26.5878C14.7591 26.6185 14.752 26.6492 14.7425 26.68C14.7378 26.6989 14.7331 26.7178 14.726 26.7367C14.7165 26.7698 14.7071 26.8006 14.6929 26.8337C14.6456 26.959 14.5817 27.0796 14.5037 27.1884C14.4871 27.212 14.4706 27.2333 14.454 27.2546C14.3594 27.3752 14.2483 27.4793 14.123 27.5667C14.0946 27.5857 14.0662 27.6046 14.0379 27.6211C14.0142 27.6377 13.9882 27.6519 13.9622 27.6637L12.0799 20.1487C12.0822 20.1487 12.0846 20.1487 12.0846 20.1487ZM11.6944 20.1983C11.6968 20.1983 11.7015 20.1983 11.7063 20.196C11.7417 20.1865 11.7819 20.1771 11.8221 20.1723L13.721 27.7677C13.6855 27.7796 13.6477 27.7914 13.6051 27.8008C13.6004 27.8032 13.5957 27.8056 13.5909 27.8056C12.82 27.9924 12.0231 27.562 11.7465 26.8219C11.7299 26.7793 11.7134 26.7344 11.7015 26.6871L11.6732 26.5736L10.5759 22.1918L10.5546 22.109C10.5405 22.0523 10.5286 21.9955 10.5215 21.9388C10.4151 21.156 10.9117 20.3993 11.6944 20.1983ZM10.4698 22.8279L11.4227 26.6374L10.9876 26.7462C10.4154 26.8904 9.83365 26.5405 9.69177 25.9682L9.11478 23.6579C9.08877 23.5609 9.07931 23.4616 9.08404 23.3623C9.09113 23.1116 9.18809 22.8752 9.35125 22.6955C9.41273 22.6198 9.4884 22.5559 9.57117 22.5016C9.57353 22.5016 9.57353 22.5016 9.57353 22.5016C9.66812 22.4377 9.77453 22.3904 9.8904 22.362L10.2735 22.2674L10.3255 22.2533L10.4698 22.8279ZM21.4465 12.4019C19.8172 11.7303 18.072 11.5956 16.4002 12.0141C12.1508 13.0782 9.49526 17.4718 10.2259 22.0121L9.82868 22.1114C9.7199 22.1398 9.61586 22.18 9.52127 22.232C8.59904 17.0627 11.458 12.0638 16.1188 10.898C16.7809 10.7324 17.4619 10.6497 18.143 10.6497C19.0463 10.6497 19.9543 10.7939 20.8364 11.0824C23.8348 12.0685 26.2303 14.568 27.2755 17.7887C27.2731 17.7887 27.2731 17.7887 27.2707 17.7887C27.1927 17.7887 27.1123 17.7958 27.0295 17.8124C27.0012 17.8171 26.9728 17.8218 26.9468 17.8289L26.5495 17.9282C25.684 15.3956 23.8303 13.3856 21.4465 12.4019ZM25.9136 24.6747C25.514 24.6747 25.1356 24.521 24.8471 24.2585C24.7526 24.1687 24.6698 24.0717 24.5965 23.9629C24.5492 23.892 24.5066 23.814 24.4712 23.7336C24.4357 23.6532 24.4049 23.568 24.3837 23.4805L23.2462 18.9356C23.1871 18.7015 23.1848 18.4626 23.232 18.238C23.2391 18.2025 23.2486 18.1671 23.2581 18.1339C23.2628 18.1127 23.2699 18.0914 23.277 18.0701C23.2841 18.0465 23.2912 18.0252 23.3006 18.0015C23.3101 17.9755 23.3195 17.9495 23.3314 17.9259C23.3432 17.8975 23.3574 17.8667 23.3739 17.8384C23.3858 17.8123 23.3976 17.7911 23.4118 17.7674C23.4283 17.739 23.4449 17.7107 23.4638 17.6823C23.5158 17.6019 23.5773 17.5262 23.6435 17.4576C23.6577 17.4411 23.6719 17.4269 23.6884 17.4127C23.7428 17.3583 23.8019 17.3087 23.8634 17.2661C23.9013 17.2401 23.9391 17.2141 23.9793 17.1904C23.9982 17.1786 24.0171 17.1691 24.036 17.1597L25.9184 24.6747C25.9158 24.6747 25.9136 24.6747 25.9136 24.6747ZM26.2965 24.6274C26.2917 24.6274 26.287 24.6298 26.2823 24.6322C26.2468 24.6392 26.2113 24.6487 26.1759 24.6534L24.277 17.0556C24.3125 17.0438 24.3527 17.0344 24.3929 17.0225C24.3952 17.0202 24.4 17.0202 24.4047 17.0178C25.1898 16.831 25.982 17.2637 26.2539 18.0039C26.2752 18.0583 26.2917 18.1127 26.3059 18.1694L26.3272 18.2498L27.4221 22.634L27.4433 22.7167C27.4481 22.7286 27.4481 22.7404 27.4528 22.7569C27.4623 22.7995 27.4717 22.8444 27.4765 22.887C27.5829 23.6674 27.0768 24.4335 26.2965 24.6274ZM28.1078 22.4637L27.6727 22.5725L26.5755 18.1883L27.0106 18.0796C27.1525 18.0441 27.2944 18.037 27.4363 18.0606C27.7579 18.1103 28.0345 18.3018 28.1953 18.5832C28.245 18.6684 28.2828 18.7606 28.3065 18.8575L28.8858 21.1655C29.0277 21.7378 28.6801 22.3195 28.1078 22.4637Z" fill="#0A1640"/>
</svg>
