<svg width="387" height="118" viewBox="0 0 387 118" fill="none" xmlns="http://www.w3.org/2000/svg">
    <path d="M403.999 -175.481C418.445 -163.778 420.932 -143.447 417.807 -125.788C414.682 -108.128 407.059 -91.2822 405.107 -73.4751C402.936 -53.6785 407.88 -33.8725 409.32 -14.0174C410.759 5.83765 407.894 27.5702 393.2 41.9297C374.185 60.5124 343.027 60.3559 317.341 69.4704C297.709 76.4363 281.039 89.0473 262.782 98.7596C242.378 109.614 219.548 116.923 196.112 117.894C172.676 118.864 148.631 113.213 129.675 100.254C117.75 92.1015 108.122 81.3544 96.6973 72.5949C77.6934 58.025 52.5746 47.5922 43.6532 26.1478C40.528 18.6357 39.7869 10.4576 37.5427 2.67372C34.1445 -9.11223 27.3855 -19.7501 21.8375 -30.7955C3.49596 -67.3118 -1.62864 -108.67 0.424035 -148.988C0.832574 -157.013 1.63601 -165.388 6.19125 -172.193C14.3084 -184.319 31.294 -187.613 46.4371 -189.441C135.943 -200.244 226.57 -198.444 316.794 -196.625C326.604 -196.427 336.516 -196.216 346.019 -193.927C366.076 -189.095 383.745 -175.184 404.452 -175.392" fill="#27C0FF"/>
    </svg>
    