<svg width="390" height="248" viewBox="0 0 390 248" fill="none" xmlns="http://www.w3.org/2000/svg">
<path d="M-19.102 362.56C-35.3745 349.338 -38.1766 326.369 -34.6561 306.418C-31.1358 286.467 -22.5485 267.436 -20.3492 247.318C-17.9042 224.953 -23.4734 202.577 -25.0952 180.146C-26.7168 157.715 -23.4895 133.163 -6.93692 116.94C14.484 95.9464 49.5824 96.1233 78.5186 85.8262C100.633 77.9564 119.412 63.7092 139.979 52.7367C162.963 40.4738 188.681 32.2168 215.081 31.1202C241.481 30.0237 268.568 36.4085 289.922 51.0487C303.355 60.2588 314.201 72.4003 327.071 82.2962C348.479 98.7566 376.775 110.543 386.825 134.77C390.345 143.256 391.18 152.496 393.708 161.289C397.536 174.605 405.15 186.623 411.4 199.101C432.062 240.355 437.835 287.079 435.522 332.628C435.062 341.695 434.157 351.157 429.026 358.845C419.882 372.544 400.748 376.265 383.689 378.33C282.861 390.536 180.771 388.502 79.1345 386.446C68.0839 386.223 56.9176 385.985 46.2121 383.398C23.6183 377.94 3.71403 362.224 -19.6121 362.458" fill="#C2E6F9"/>
<path d="M264.82 70C273.408 70 280.589 75.8544 282.528 83.7256C294.853 63.8763 325.991 73.9692 323.947 97.1482C334.735 96.1016 344 104.432 344 115.03C344 124.954 335.831 133 325.758 133H243.239C233.166 133 225 124.954 225 115.03C225 102.397 237.931 93.6564 249.923 98.3203C241.462 86.5197 249.979 70 264.82 70Z" fill="white"/>
<path d="M357.766 125C363.323 125 367.97 128.81 369.224 133.933C377.199 121.015 397.347 127.583 396.025 142.668C403.005 141.987 409 147.408 409 154.305C409 160.764 403.714 166 397.196 166H343.802C337.284 166 332 160.764 332 154.305C332 146.084 340.367 140.395 348.127 143.431C342.652 135.751 348.163 125 357.766 125Z" fill="white"/>
<path d="M134.113 112.966C134.113 112.966 134.102 129.802 134.077 130.273H66.9249C66.9016 129.802 66.8901 129.336 66.8901 128.867C66.8901 128.867 66.9016 112.097 66.9249 111.664C66.96 110.713 67.0538 109.775 67.1946 108.85C68.0854 102.612 71.0169 97.0303 75.2853 92.7973C75.8481 92.2471 76.4344 91.7072 77.0442 91.2029C80.4569 88.3412 84.5482 86.2654 89.0522 85.2587C91.0572 84.8002 93.156 84.5667 95.3006 84.5667H105.713C107.858 84.5667 109.959 84.8002 111.964 85.2587C116.466 86.2654 120.547 88.3412 123.958 91.2029C124.567 91.7072 125.155 92.2471 125.718 92.7973C129.986 97.0303 132.916 102.612 133.808 108.85C133.948 109.775 134.042 110.713 134.077 111.664C134.102 112.097 134.113 112.531 134.113 112.966Z" fill="#8E443F"/>
<path d="M123.288 130.273H77.7227C77.9102 122.558 81.4992 115.767 86.9265 111.664C90.3863 109.025 94.5964 107.478 99.1462 107.478H101.854C106.403 107.478 110.614 109.025 114.084 111.664C119.501 115.78 123.1 122.558 123.288 130.273Z" fill="#F3664F"/>
<path d="M75.9362 92.837C65.8601 92.466 56.3224 87.8307 49.7994 79.9774C51.0074 77.9391 50.1356 74.9545 47.6839 73.0975C45.0897 71.132 41.7396 71.1842 40.201 73.2163C39.4741 74.175 39.2983 75.4047 39.5712 76.6427C38.3063 76.7136 37.1697 77.2158 36.4428 78.1746C35.7162 79.1354 35.5405 80.3651 35.8133 81.6031C34.5482 81.674 33.4119 82.1763 32.6849 83.135C31.1462 85.1671 32.0017 88.406 34.5962 90.3714C36.6422 91.922 39.146 92.1971 40.8728 91.2551C48.5645 103.45 62.1932 110.173 76.0877 109.381C82.1688 109.033 85.787 102.431 82.7795 97.1346L82.5377 96.7074C81.1872 94.3293 78.6694 92.937 75.9362 92.837Z" fill="#8E443F"/>
<path d="M125.065 92.837C135.142 92.466 144.68 87.8307 151.203 79.9774C149.994 77.9391 150.866 74.9545 153.319 73.0975C155.911 71.132 159.263 71.1842 160.801 73.2163C161.528 74.175 161.703 75.4047 161.43 76.6427C162.696 76.7136 163.831 77.2158 164.559 78.1746C165.286 79.1354 165.461 80.3651 165.188 81.6031C166.453 81.674 167.589 82.1763 168.317 83.135C169.855 85.1671 169 88.406 166.405 90.3714C164.359 91.922 161.856 92.1971 160.13 91.2551C152.437 103.45 138.808 110.173 124.915 109.381C118.833 109.033 115.215 102.431 118.223 97.1346L118.464 96.7074C119.813 94.3293 122.333 92.937 125.065 92.837Z" fill="#8E443F"/>
<path d="M145.416 20.5671C146.552 14.154 143.315 7.37612 138.076 3.57661C133.407 0.164764 126.89 -1.00864 121.777 1.60703C118.411 3.3536 116.054 6.98846 115.666 10.6942C115.527 12.0072 115.62 13.2744 116.008 14.5396H84.993C86.4707 9.73336 83.7613 3.96427 79.2239 1.60703C74.1116 -1.00864 67.6041 0.164764 62.9607 3.57661C57.6843 7.37612 54.4475 14.154 55.5853 20.5671C56.3708 24.9877 59.4308 28.9164 63.406 30.886C60.955 34.6855 59.1263 38.8352 57.9417 43.162C53.1576 60.9153 59.9467 81.6115 77.043 91.203C82.9297 94.5085 90.0347 96.5031 98.3132 96.5969C99.322 96.5969 100.329 96.5719 101.327 96.5615C110.181 96.476 117.755 94.6961 123.957 91.203C136.669 84.0729 143.693 70.7423 144.453 57.0574C144.724 52.4263 144.278 47.7118 143.059 43.162C141.921 38.8352 140.045 34.6855 137.642 30.886C141.569 28.9164 144.631 24.9877 145.416 20.5671ZM137.947 16.5446C137.934 16.3695 137.922 16.2048 137.888 16.0298C137.863 15.8651 137.84 15.7005 137.805 15.5254C137.769 15.3607 137.736 15.1961 137.688 15.0335C137.582 14.6229 137.436 14.2269 137.265 13.8247C137.167 13.5912 137.061 13.3536 136.938 13.1223C136.781 12.8242 136.598 12.5241 136.398 12.2428C136.246 12.0302 136.094 11.8197 135.929 11.6321C135.754 11.432 135.589 11.234 135.402 11.0464C135.039 10.6817 134.651 10.3419 134.228 10.0377C133.538 9.52077 132.74 9.11018 131.906 8.8184C131.696 8.74754 131.485 8.68918 131.262 8.63081C130.839 8.52452 130.406 8.45367 129.972 8.40782C129.749 8.39532 129.539 8.38489 129.316 8.38489C128.272 8.38489 127.252 8.6079 126.325 9.07684C124.332 10.1085 123.065 12.4658 123.336 14.6229C123.395 15.1731 123.559 15.7005 123.828 16.2048L131.169 24.0269C131.427 24.0373 131.686 24.0269 131.942 23.9789C132.155 23.9685 132.365 23.9331 132.576 23.8851C132.728 23.8497 132.88 23.8122 133.022 23.7684C133.347 23.6684 133.678 23.5454 133.995 23.3808C134.253 23.2515 134.512 23.0994 134.745 22.9473C135.191 22.6659 135.602 22.3261 135.977 21.9281C136.246 21.6467 136.504 21.3403 136.727 21.0131C136.831 20.861 136.938 20.6963 137.032 20.5212C137.138 20.3566 137.219 20.1794 137.3 20.0043C137.384 19.8293 137.461 19.6521 137.536 19.4645C137.682 19.0998 137.794 18.7267 137.863 18.3391C137.969 17.7409 137.992 17.1427 137.947 16.5446ZM77.0664 11.5029C77.0664 11.5029 77.0549 11.5029 77.0549 11.4925C76.8317 11.0339 76.5384 10.6233 76.1985 10.2482C76.187 10.2482 76.187 10.2482 76.187 10.2378C76.1051 10.144 76.0113 10.0606 75.9173 9.9668C75.5536 9.61458 75.1433 9.31028 74.6864 9.07684H74.6743C73.7479 8.6079 72.7277 8.38489 71.696 8.38489C71.4732 8.38489 71.2621 8.39532 71.0393 8.40782C70.6059 8.45367 70.1833 8.52452 69.7614 8.63081C69.5501 8.67667 69.3408 8.7392 69.128 8.8184C68.2889 9.12686 67.4867 9.52077 66.7716 10.0377C64.1916 11.9259 62.6207 15.1961 63.1835 18.3391C63.3002 19.0435 63.5469 19.723 63.875 20.3441C63.8865 20.3795 63.8985 20.4024 63.9219 20.4274C64.0394 20.6254 64.1568 20.8255 64.2856 21.0131C64.5082 21.3403 64.766 21.6467 65.0361 21.9281C65.1764 22.0802 65.3173 22.2094 65.4582 22.3262C65.7512 22.5846 66.0513 22.8264 66.3725 23.0306C66.6968 23.237 67.0413 23.4058 67.3927 23.5579C67.7683 23.7101 68.1434 23.8268 68.5305 23.9102C68.9523 23.9914 69.3863 24.0373 69.8319 24.0269V24.0144L77.1716 16.2048C77.3586 15.8776 77.4878 15.5254 77.5712 15.1607C77.5587 15.1502 77.5587 15.1502 77.5712 15.1377C77.8755 13.9414 77.6525 12.6283 77.0664 11.5029Z" fill="#8E443F"/>
<path d="M66.7554 10.0313C69.0235 8.3827 72.1967 7.79496 74.6888 9.08092C77.1811 10.3669 78.5373 13.7579 77.155 16.1985L69.8284 24.0101C66.6498 24.1206 63.729 21.4674 63.1648 18.3369C62.6006 15.2085 64.1831 11.9008 66.7554 10.0313Z" fill="#F3664F"/>
<path d="M131.18 24.0101L123.851 16.1985C122.47 13.7579 123.829 10.3669 126.319 9.08092C128.812 7.79496 131.984 8.3827 134.252 10.0313C136.824 11.9008 138.405 15.2085 137.843 18.3369C137.278 21.4674 134.358 24.1206 131.18 24.0101Z" fill="#F3664F"/>
<path d="M75.3145 70.1254C75.3145 79.5148 86.5911 87.1284 100.503 87.1284C114.415 87.1284 125.693 79.5148 125.693 70.1254C125.693 60.7361 114.415 53.1225 100.503 53.1225C86.5911 53.1225 75.3145 60.7361 75.3145 70.1254Z" fill="#F0C42E"/>
<path d="M88.2163 55.9946C88.2163 60.5757 93.7165 64.2898 100.503 64.2898C107.289 64.2898 112.789 60.5757 112.789 55.9946C112.789 51.4156 107.289 47.7016 100.503 47.7016C93.7165 47.7016 88.2163 51.4156 88.2163 55.9946Z" fill="#1A181A"/>
<path d="M90.702 63.1328C92.6612 66.8406 96.3086 69.3396 100.498 69.3396C104.687 69.3396 108.337 66.8406 110.296 63.1328C111.261 64.9607 111.823 67.0761 111.823 69.3396C111.823 72.468 110.76 75.3171 109.02 77.4993C106.944 74.8961 103.901 73.2433 100.498 73.2433C97.0964 73.2433 94.0534 74.8961 91.9776 77.4993C90.2373 75.3171 89.1743 72.468 89.1743 69.3396C89.1743 67.0761 89.735 64.9607 90.702 63.1328Z" fill="#171717"/>
<path d="M100.499 73.2435C103.902 73.2435 106.945 74.8962 109.021 77.4994C106.945 80.1026 103.902 81.7554 100.499 81.7554C97.0973 81.7554 94.0544 80.1026 91.9785 77.4994C94.0544 74.8962 97.0973 73.2435 100.499 73.2435Z" fill="#EE2E32"/>
<path d="M107.458 29.2354C112.346 24.3458 120.272 24.3458 125.159 29.2354C130.047 34.1229 130.047 42.047 125.159 46.9345C120.272 51.822 112.346 51.822 107.458 46.9345C102.571 42.047 102.571 34.1229 107.458 29.2354Z" fill="white"/>
<path d="M105.467 38.0848C105.467 42.2532 108.846 45.6338 113.014 45.6338C117.185 45.6338 120.563 42.2532 120.563 38.0848C120.563 33.9164 117.185 30.5358 113.014 30.5358C108.846 30.5358 105.467 33.9164 105.467 38.0848Z" fill="#171717"/>
<path d="M96.0132 38.0849C96.0132 44.9961 90.4088 50.6006 83.4975 50.6006C76.585 50.6006 70.9814 44.9961 70.9814 38.0849C70.9814 31.1716 76.585 25.5692 83.4975 25.5692C90.4088 25.5692 96.0132 31.1716 96.0132 38.0849Z" fill="white"/>
<path d="M94.3392 38.0848C94.3392 42.2532 90.9586 45.6338 86.7902 45.6338C82.6218 45.6338 79.2412 42.2532 79.2412 38.0848C79.2412 33.9164 82.6218 30.5358 86.7902 30.5358C90.9586 30.5358 94.3392 33.9164 94.3392 38.0848Z" fill="#171717"/>
<path d="M124.65 54.792C124.65 57.5661 128.081 59.8149 132.316 59.8149C136.549 59.8149 139.98 57.5661 139.98 54.792C139.98 52.0158 136.549 49.767 132.316 49.767C128.081 49.767 124.65 52.0158 124.65 54.792Z" fill="#DA533D"/>
<path d="M61.0186 54.792C61.0186 57.5661 64.4504 59.8149 68.6841 59.8149C72.9175 59.8149 76.3496 57.5661 76.3496 54.792C76.3496 52.0158 72.9175 49.767 68.6841 49.767C64.4504 49.767 61.0186 52.0158 61.0186 54.792Z" fill="#DA533D"/>
<path d="M172.127 156.249C171.544 153.929 170.674 151.762 169.587 149.746C171.464 135.936 161.45 121.539 145.397 121.099C135.512 98.6332 105.939 94.1105 89.6071 111.851C82.5479 109.742 75.1654 110.092 68.5245 112.479C56.3405 115.176 46.3379 125.532 45.3296 138.994C33.8272 142.866 27.8501 153.623 28.3889 164.184C28.1359 165.699 28 167.252 28 168.838C28 179.475 33.683 188.148 41.683 192.944C48.3129 214.019 76.2353 222.216 93.144 205.353C105.16 210.445 118.576 208.588 128.624 201.389C140.337 202.85 151.792 197.235 158.223 187.854C168.834 182.029 175.477 169.575 172.127 156.249Z" fill="white"/>
<path d="M100.796 144.753C100.646 145.115 100.419 145.455 100.125 145.747C99.5542 146.316 98.7851 146.653 97.9348 146.653H94.3729V140.49H97.9348C98.3641 140.49 98.7539 140.576 99.104 140.722C99.4708 140.874 99.8106 141.101 100.098 141.391C100.659 141.956 101.015 142.737 101.015 143.652C101.015 144.046 100.938 144.413 100.796 144.753ZM105.048 173.39C104.117 174.311 102.866 174.863 101.461 174.863H94.3729V164.534H101.461C102.831 164.534 104.081 165.08 105.027 166.016C106.003 166.979 106.609 168.31 106.626 169.615C106.607 171.137 105.996 172.454 105.048 173.39ZM120.18 156.482C119.175 155.076 118.014 153.788 116.728 152.641C116.747 152.602 116.766 152.562 116.786 152.52C118.07 149.848 118.816 146.839 118.816 143.652C118.816 137.852 116.468 132.591 112.676 128.8C108.906 125.03 103.685 122.691 97.9348 122.691H85.4316C82.9264 122.691 80.7192 123.748 79.1748 125.294C77.6304 126.839 76.5723 129.044 76.5723 131.551V183.804C76.5723 186.109 77.4595 188.287 78.9935 189.915C79.7876 190.757 80.7651 191.464 81.8968 191.952C82.966 192.412 84.1394 192.664 85.3524 192.664H101.461C107.789 192.664 113.55 190.09 117.706 185.934C121.847 181.793 124.425 176.049 124.425 169.698C124.425 164.761 122.839 160.201 120.18 156.482Z" fill="#75C4D9"/>
<path d="M304.094 66.1383C303.488 64.309 301.978 63.079 300.245 62.3474C298.88 61.7712 297.394 61.4961 295.927 61.3407C294.696 61.2102 290.557 60.2623 290.019 61.7609C289.56 63.0414 290.523 64.1947 290.215 65.4102C289.871 66.7677 288.102 66.9014 289.58 68.5862C290.226 69.3231 291.186 69.7342 291.969 70.3083C293.522 71.4472 295.315 72.2744 297.14 72.8767C297.396 72.9613 297.661 73.031 297.936 73.0821C301.925 73.8205 305.367 69.9825 304.094 66.1383Z" fill="#EA6078"/>
<path d="M323.839 64.6603C323.29 63.019 322.693 61.41 322.014 59.8621C319.351 53.7963 314.399 52.2622 308.473 50.9967C309.516 50.1798 310.374 49.1767 310.466 47.7843C310.538 46.6988 310.025 45.4894 309 45.1186C308.505 44.9397 307.95 44.9761 307.45 45.1415C306.436 45.4771 305.648 46.3113 305.142 47.2506C304.622 48.2159 304.471 49.3363 303.998 50.2847C302.791 49.6921 301.478 47.8045 299.924 48.7142C297.771 49.9759 301.633 52.5037 302.455 53.2392C301.425 53.8683 300.556 54.7054 299.711 55.5604C297.735 57.5602 296.51 60.1553 296.39 62.9767C295.893 74.5999 307.445 83.2156 318.305 82.6673C320.133 82.575 321.945 82.2847 323.725 81.8616C325.785 81.3718 327.129 80.5882 329.243 81.142C330.81 81.5528 332.351 82.1475 333.893 82.6464C336.316 83.431 338.738 84.2155 341.161 85L341.68 75.6765C339.505 76.0327 337.33 76.3888 335.155 76.7449C333.599 76.9996 332.043 77.2544 330.487 77.5091C327.411 78.0128 327.435 76.672 326.61 73.8951C325.695 70.8146 324.859 67.7097 323.839 64.6603Z" fill="#EF9DB6"/>
<path d="M314.003 62.7512C314.626 60.311 316.481 58.5697 318.674 57.4579C320.401 56.5826 322.314 56.0883 324.212 55.7522C325.805 55.4701 331.115 53.857 331.953 55.7619C332.67 57.3897 331.519 58.9811 332.032 60.5381C332.605 62.2767 334.923 62.2899 333.151 64.6211C332.376 65.6407 331.162 66.2642 330.193 67.0843C328.272 68.7107 326.01 69.9521 323.686 70.9041C323.36 71.0378 323.021 71.1529 322.667 71.2443C317.533 72.5701 312.695 67.8794 314.003 62.7512Z" fill="#EA6078"/>
<path d="M303.684 59.469C303.282 60.8306 303.848 62.197 304.949 62.521C306.051 62.8451 307.27 62.0042 307.672 60.6429C308.075 59.2813 307.508 57.915 306.407 57.5906C305.306 57.2668 304.087 58.1077 303.684 59.469Z" fill="#42210B"/>
<path d="M341.526 77.9535L341.561 78.4006L336.132 78.819L336.098 78.3719L341.526 77.9535Z" fill="#EA6078"/>
<path d="M337.209 81.3913L341.345 82.1509L341.263 82.5919L337.127 81.8323L337.209 81.3913Z" fill="#EA6078"/>
<path d="M298.404 60.7959L292.603 61.4946L297.695 64.6383C297.695 64.6383 300.065 63.5837 298.404 60.7959Z" fill="#FDD02F"/>
<path d="M311.657 79.3623C311.854 79.7836 312.114 80.0851 312.393 80.3504C312.674 80.6137 312.982 80.8232 313.31 80.9968C313.638 81.1687 313.986 81.3033 314.362 81.3844C314.739 81.4637 315.135 81.506 315.596 81.427C315.4 81.0039 315.14 80.7021 314.86 80.4374C314.58 80.1744 314.272 79.9649 313.944 79.7927C313.615 79.622 313.267 79.4877 312.891 79.4069C312.513 79.3273 312.117 79.2847 311.657 79.3623Z" fill="#EA6078"/>
<path d="M301.451 72.5739C301.648 72.9953 301.908 73.2967 302.187 73.5621C302.468 73.8253 302.776 74.0348 303.103 74.2085C303.432 74.3804 303.78 74.5147 304.156 74.5961C304.533 74.6754 304.929 74.7177 305.39 74.6386C305.194 74.2155 304.934 73.9138 304.654 73.649C304.374 73.3861 304.066 73.1763 303.737 73.0044C303.409 72.8337 303.06 72.6994 302.684 72.6186C302.307 72.5389 301.911 72.4963 301.451 72.5739Z" fill="#EA6078"/>
<path d="M309.077 74.6705C309.276 75.0909 309.538 75.3909 309.818 75.6545C310.1 75.916 310.41 76.124 310.738 76.2956C311.067 76.4658 311.416 76.598 311.792 76.6773C312.17 76.7546 312.566 76.7946 313.026 76.7129C312.828 76.2909 312.566 75.9906 312.286 75.7274C312.004 75.4662 311.694 75.2581 311.365 75.0877C311.035 74.919 310.686 74.7865 310.31 74.7078C309.932 74.6308 309.536 74.5903 309.077 74.6705Z" fill="#EA6078"/>
<path d="M305.018 76.3737C305.215 76.7954 305.475 77.0965 305.754 77.3619C306.034 77.6251 306.343 77.8346 306.67 78.0083C306.999 78.1802 307.347 78.3145 307.722 78.3959C308.099 78.4752 308.496 78.5175 308.956 78.4385C308.76 78.0153 308.5 77.7136 308.221 77.4488C307.94 77.1859 307.632 76.9764 307.304 76.8042C306.975 76.6335 306.627 76.4992 306.251 76.4184C305.874 76.3388 305.477 76.2962 305.018 76.3737Z" fill="#EA6078"/>
</svg>
