<svg width="390" height="421" viewBox="0 0 390 421" fill="none" xmlns="http://www.w3.org/2000/svg">
<path d="M470 219.496C470 263.65 443.123 301.539 428.414 313.579C423.524 317.579 417.861 320.703 411.955 323.58C408.398 325.314 404.753 326.956 401.136 328.648C400.463 330.973 399.679 333.254 398.788 335.492C470 421 285.434 421 221.358 421C199.15 421 182.068 418.595 165.694 418.595C152.47 418.595 139.408 419.582 126.165 419.582C73.3555 419.582 -36.4929 409 -21.2252 363.555C-26.6077 359.184 -31.7124 354.66 -36.4929 350.017C-62.5175 324.755 -79 296.033 -79 270.031C-79 247.728 -65.1515 227.752 -54.1087 207.644C55.8406 180.871 176.239 187.13 281.304 226.462C295.948 185.481 345.113 157 401.237 157C422.276 157 442.33 161.015 459.962 168.174C468.15 182.27 470 214.154 470 219.496Z" fill="#8DD44F"/>
<path d="M157.764 313.549C158.163 313.565 160.054 315.9 160.526 316.217C163.31 318.081 165.474 317.254 168.423 317.396C170.515 334.035 146.433 332.906 135.96 333.235C131.209 333.383 110.414 333.897 111.534 324.754C111.537 324.733 113.13 311.879 157.764 313.549Z" fill="#FEDCC0"/>
<path d="M160.158 306.088C160.216 307.731 159.598 309.611 159.142 311.135C158.017 314.897 156.125 318.477 153.378 321.308C149.088 325.73 142.398 327.421 136.47 328.235C130.673 329.03 124.673 328.712 119.016 327.2C116.421 326.506 113.796 325.721 111.435 324.413C109.259 323.207 107.225 321.448 106.573 318.959C105.656 315.463 105.747 311.071 107.527 307.857C107.707 307.532 108.151 307.476 108.403 307.75C109.306 308.733 111.489 310.67 114.644 310.649C114.979 310.647 115.238 310.35 115.181 310.019C115.029 309.139 114.654 307.529 113.877 306.844C113.592 306.593 113.599 306.15 113.926 305.957C115.517 305.014 119.409 303.552 124.957 307.065C125.309 307.288 125.772 307.045 125.782 306.628C125.81 305.54 125.68 303.755 124.684 302.645C124.364 302.287 124.624 301.72 125.104 301.744C126.769 301.831 129.053 302.134 130.363 303.092C130.703 303.341 131.193 303.156 131.233 302.737C131.32 301.839 131.182 300.533 129.945 299.63C129.583 299.366 129.682 298.803 130.113 298.68C132.805 297.915 139.292 296.742 142.508 301.943C142.756 302.345 143.366 302.254 143.483 301.797C143.709 300.92 143.912 299.768 143.701 298.974C143.606 298.614 143.869 298.264 144.241 298.281C145.649 298.347 148.283 298.948 149.211 302.396C149.32 302.804 149.82 302.943 150.117 302.644C150.802 301.956 151.721 300.806 151.65 299.645C151.621 299.181 152.126 298.896 152.506 299.165C153.56 299.915 154.843 301.493 154.554 304.675C154.526 304.98 154.768 305.239 155.074 305.251C156.01 305.285 157.837 305.153 158.716 303.725C159.413 302.593 160.061 305.136 160.12 305.609C160.14 305.766 160.152 305.926 160.158 306.088Z" fill="#543C23"/>
<path d="M171.078 317.819C171.033 319.008 169.792 319.927 168.306 319.871C166.82 319.816 165.651 318.807 165.696 317.618C165.741 316.429 166.981 315.51 168.468 315.566C169.953 315.621 171.122 316.63 171.078 317.819Z" fill="#5B462B"/>
<path d="M160.771 319.59C160.749 320.184 160.249 320.648 159.655 320.626C159.06 320.604 158.596 320.104 158.618 319.509C158.641 318.915 159.141 318.451 159.735 318.473C160.33 318.495 160.794 318.995 160.771 319.59Z" fill="#5B462B"/>
<path d="M153.282 332.514C153.22 334.149 152.569 335.451 151.825 335.423C151.082 335.395 150.53 334.048 150.591 332.413C150.652 330.778 151.304 329.475 152.047 329.503C152.79 329.531 153.343 330.878 153.282 332.514Z" fill="#FEDCC0"/>
<path d="M148.976 332.352C148.914 333.987 148.262 335.29 147.519 335.262C146.776 335.234 146.223 333.886 146.284 332.252C146.346 330.617 146.998 329.314 147.741 329.342C148.484 329.37 149.037 330.718 148.976 332.352Z" fill="#FEDCC0"/>
<path d="M132.252 332.805C132.191 334.44 131.539 335.742 130.796 335.714C130.053 335.686 129.5 334.339 129.561 332.704C129.622 331.069 130.274 329.766 131.017 329.794C131.76 329.822 132.313 331.17 132.252 332.805Z" fill="#FEDCC0"/>
<path d="M127.946 332.643C127.885 334.278 127.233 335.581 126.49 335.553C125.747 335.526 125.194 334.178 125.256 332.543C125.317 330.908 125.969 329.606 126.712 329.633C127.455 329.661 128.008 331.008 127.946 332.643Z" fill="#FEDCC0"/>
<path d="M154.258 311.419C154.303 312.56 153.852 313.865 153.52 314.923C152.699 317.534 151.317 320.017 149.305 321.979C146.163 325.044 141.255 326.209 136.906 326.765C132.653 327.309 128.249 327.079 124.094 326.02C122.189 325.535 120.261 324.985 118.526 324.074C116.927 323.233 115.432 322.008 114.949 320.278C114.271 317.85 114.331 314.799 115.633 312.57C115.765 312.344 116.09 312.306 116.276 312.497C116.94 313.181 118.545 314.529 120.861 314.519C121.107 314.518 121.296 314.312 121.254 314.083C121.141 313.471 120.864 312.352 120.292 311.875C120.083 311.701 120.088 311.393 120.327 311.259C121.493 310.607 124.348 309.598 128.424 312.045C128.683 312.2 129.023 312.032 129.03 311.743C129.048 310.987 128.95 309.748 128.218 308.975C127.982 308.726 128.172 308.332 128.524 308.35C129.747 308.413 131.423 308.627 132.387 309.294C132.637 309.467 132.995 309.34 133.024 309.049C133.087 308.425 132.984 307.518 132.074 306.889C131.808 306.705 131.88 306.314 132.196 306.229C134.171 305.702 138.93 304.897 141.298 308.514C141.48 308.793 141.928 308.731 142.013 308.414C142.178 307.805 142.325 307.006 142.169 306.454C142.098 306.203 142.291 305.961 142.564 305.974C143.598 306.021 145.532 306.443 146.218 308.839C146.299 309.122 146.666 309.22 146.884 309.012C147.386 308.535 148.058 307.738 148.004 306.932C147.982 306.61 148.353 306.412 148.631 306.6C149.405 307.122 150.35 308.22 150.142 310.43C150.122 310.641 150.301 310.821 150.525 310.83C151.212 310.856 152.553 310.766 153.195 309.776C153.705 308.991 154.184 310.758 154.229 311.087C154.244 311.195 154.253 311.306 154.258 311.419Z" fill="#5B462B"/>
<path d="M120.354 207.302C124.164 204.22 127.391 200.407 131.152 197.234C136.986 192.312 144.141 188.956 151.669 187.612C152.379 187.485 153.322 186.884 152.891 186.309C152.733 186.097 152.446 186.036 152.185 185.993C142.976 184.459 133.296 185.861 124.909 189.943C124.532 190.127 124.059 190.31 123.721 190.061C123.393 189.82 123.416 189.333 123.481 188.932C125.13 178.678 132.237 169.454 141.762 165.207C142.484 164.884 143.293 163.893 142.598 163.517C142.402 163.411 142.163 163.438 141.943 163.471C130.558 165.142 120.05 172.008 113.984 181.738C113.742 182.126 113.376 182.577 112.93 182.466C112.512 182.361 112.382 181.845 112.327 181.419C111.552 175.476 110.423 169.531 108.157 163.978C106.797 160.647 105.016 157.465 102.748 154.658C101.581 153.214 100.262 151.678 98.7528 150.574C96.8707 149.198 96.3774 150.476 96.7691 152.496C98.8513 163.239 99.8434 174.191 99.7256 185.132C99.7171 185.923 99.4507 186.976 98.6563 186.967C98.1696 186.962 97.8188 186.52 97.5399 186.124C94.7011 182.092 91.421 178.288 87.336 175.511C83.2509 172.734 78.2809 171.043 73.3564 171.518C73.1365 171.539 72.9046 171.569 72.7302 171.704C72.1642 172.141 72.7095 173.019 73.2487 173.488C81.0131 180.253 89.0543 188.035 90.6327 198.183C90.6974 198.6 90.7267 199.089 90.4159 199.376C89.9701 199.786 89.262 199.445 88.7536 199.115C82.3412 194.949 73.9143 194.025 66.7438 196.7C66.4269 196.818 66.0681 196.994 66.0085 197.326C65.9256 197.788 66.4669 198.092 66.9141 198.243C74.0786 200.651 82.2447 202.588 86.3909 208.879C87.756 210.951 88.7536 213.547 91.0385 214.531C92.1362 215.003 93.3719 215.014 94.5681 214.995C102.635 214.868 110.985 213.631 117.729 209.225C118.64 208.631 119.512 207.984 120.354 207.302Z" fill="#F2E43B"/>
<path d="M4.64427 181.941C18.3874 178.662 31.0695 184.189 35.0562 193.2C51.6417 165.462 104.911 180.681 96.676 208.881C112.651 209.446 123.692 222.531 120.485 234.801C117.531 246.339 105.696 253.303 93.9146 251.823C61.1219 247.707 27.833 251.51 -3.20283 262.914C-14.3541 267.015 -27.4406 262.899 -32.898 252.319C-40.0826 238.92 -26.9964 220.764 -8.37126 220.745C-24.6955 211.642 -19.6441 187.738 4.64427 181.941Z" fill="#56B9AA"/>
<path d="M74.5744 249.379L43.1477 253.02L34.376 102.152L48.9249 100.464L74.5744 249.379Z" fill="#954638"/>
<path d="M74.6767 0.161392C88.9696 -1.49487 102.341 9.76085 107.005 26.2366C108.553 25.6039 110.18 25.1573 111.887 24.9588C124.378 23.5134 135.952 34.946 137.738 50.5005C138.353 55.857 137.703 60.9871 136.107 65.4937C147.288 65.8659 157.149 76.5137 158.772 90.6447C160.369 104.552 153.426 116.984 142.908 120.16C137.729 130.742 128.741 138.192 117.834 139.455C109.545 140.416 101.523 137.646 94.883 132.262C89.8618 144.613 80.0352 153.483 67.8977 154.891C54.391 156.458 41.5811 148.366 34.0507 135.178C35.1071 152.218 25.3633 166.929 11.5374 168.532C-1.84487 170.083 -14.2995 158.806 -17.6549 142.817C-18.7258 150.89 -23.9519 157.261 -30.9004 158.068C-39.464 159.06 -47.3988 151.219 -48.6231 140.559C-48.7722 139.259 -48.8108 137.981 -48.7555 136.735C-50.3624 137.563 -52.102 138.115 -53.9481 138.329C-64.0297 139.498 -73.3706 130.271 -74.812 117.719C-76.2533 105.163 -69.2491 94.0409 -59.1675 92.8716C-56.1924 92.5274 -53.2883 93.1074 -50.6263 94.3914C-52.302 72.5189 -39.894 53.4936 -22.1978 51.4403C-11.9841 50.2586 -2.19341 54.9824 4.90137 63.3536C3.42048 45.5659 13.4755 30.0454 27.8447 28.3798C35.8178 27.4555 43.4565 31.01 49.1346 37.3528C48.1936 18.3027 59.1745 1.95723 74.6767 0.161392Z" fill="#45BD68"/>
<path d="M92.3951 19.5403C85.116 18.3958 77.7498 20.846 72.5632 26.1777C67.3892 31.4939 65.106 38.944 66.3813 46.2328C73.665 47.3835 81.0367 44.9363 86.2289 39.5984C91.4081 34.2761 93.6849 26.826 92.3951 19.5403ZM64.5648 48.0906L64.4182 47.3866C62.7132 39.1673 65.185 30.6751 71.0295 24.6703C76.8895 18.647 85.2919 15.9859 93.507 17.546L94.2097 17.6793L94.3572 18.3834C96.0777 26.5996 93.6123 35.0949 87.7626 41.1058C81.898 47.1322 73.489 49.7934 65.2687 48.2271L64.5648 48.0906Z" fill="#7BCF8B"/>
<path d="M65.8707 47.5632L65.1011 46.8065L92.9159 18.222L93.6858 18.9757L65.8707 47.5632Z" fill="#7BCF8B"/>
<path d="M83.7866 28.3923L86.4097 18.1633L87.4513 18.4331L85.295 26.8415L93.6138 24.4843L93.9064 25.5264L83.7866 28.3923Z" fill="#7BCF8B"/>
<path d="M76.4229 35.9602L80.6429 19.3294L81.6848 19.5961L77.922 34.4187L92.5236 30.306L92.8166 31.345L76.4229 35.9602Z" fill="#7BCF8B"/>
<path d="M69.0103 43.5623L74.0586 23.7337L75.1002 24.0004L70.5134 42.0177L88.3367 37.0023L88.626 38.0414L69.0103 43.5623Z" fill="#7BCF8B"/>
<path d="M26.5619 21.944C21.746 26.0537 19.2078 32.2352 19.7511 38.6028C20.2935 44.958 23.8332 50.6185 29.2603 53.8659C34.083 49.7562 36.6255 43.5747 36.0813 37.1978C35.5385 30.8364 31.9961 25.1821 26.5619 21.944ZM29.4458 56.0928L28.9078 55.795C22.6391 52.3057 18.5311 45.9381 17.9186 38.761C17.3046 31.5653 20.2861 24.5898 25.8944 20.1017L26.3742 19.7171L26.912 20.0149C33.1874 23.4918 37.301 29.8563 37.9138 37.0396C38.5284 44.2416 35.5426 51.2202 29.9265 55.7082L29.4458 56.0928Z" fill="#7BCF8B"/>
<path d="M29.835 54.9421L28.9153 55.0227L26.0005 20.8647L26.9201 20.7841L29.835 54.9421Z" fill="#7BCF8B"/>
<path d="M27.4666 32.5173L22.3198 25.0797L23.078 24.5493L27.3086 30.6657L30.4417 23.9166L31.2783 24.3074L27.4666 32.5173Z" fill="#7BCF8B"/>
<path d="M28.238 41.5618L19.8467 29.4965L20.6024 28.9661L28.0809 39.7195L33.5951 27.8868L34.4317 28.2776L28.238 41.5618Z" fill="#7BCF8B"/>
<path d="M29.0054 50.6555L19.0088 36.261L19.7645 35.7305L28.848 48.8101L35.5816 34.3658L36.416 34.7598L29.0054 50.6555Z" fill="#7BCF8B"/>
<path d="M-10.1068 96.7704C-4.7417 97.5924 0.677094 95.7655 4.48256 91.8234C8.27816 87.8936 9.9384 82.3976 8.97831 77.0349C3.60953 76.2068 -1.81358 78.0305 -5.62245 81.9757C-9.42236 85.9117 -11.078 91.4078 -10.1068 96.7704ZM10.3107 75.6578L10.4209 76.1757C11.7005 82.227 9.90444 88.4891 5.61646 92.9307C1.31736 97.3815 -4.86457 99.3696 -10.9202 98.2406L-11.4382 98.1475L-11.5491 97.6265C-12.8398 91.5814 -11.0483 85.3162 -6.75665 80.8716C-2.45416 76.4145 3.7324 74.4295 9.79207 75.5616L10.3107 75.6578Z" fill="#7BCF8B"/>
<path d="M9.35069 76.0517L9.91965 76.6069L-10.4867 97.7444L-11.0557 97.1892L9.35069 76.0517Z" fill="#7BCF8B"/>
<path d="M1.61137 84.6307L-1.44919 96.8914L-2.21756 96.696L0.511432 85.769L-10.2323 88.8396L-10.4512 88.0766L1.61137 84.6307Z" fill="#7BCF8B"/>
<path d="M7.04952 79.0074L3.38822 93.6284L2.62015 93.433L5.94712 80.1488L-7.16751 83.8955L-7.3833 83.1295L7.04952 79.0074Z" fill="#7BCF8B"/>
<path d="M48.0528 99.4285C50.8118 96.544 52.0111 92.5057 51.2662 88.5481C50.5231 84.5966 47.9445 81.2748 44.3356 79.5875C41.5724 82.472 40.3703 86.5134 41.1161 90.4742C41.8601 94.4287 44.4403 97.7475 48.0528 99.4285ZM44.0779 78.2042L44.4341 78.3562C48.586 80.1396 51.566 83.8708 52.4053 88.331C53.2469 92.8035 51.82 97.3691 48.5881 100.542L48.3118 100.815L47.9556 100.663C43.8 98.8827 40.8173 95.1576 39.977 90.6913C39.1348 86.2157 40.5641 81.647 43.801 78.4741L44.0779 78.2042Z" fill="#7BCF8B"/>
<path d="M43.9072 78.9484L44.4787 78.8399L48.4737 100.07L47.9019 100.179L43.9072 78.9484Z" fill="#7BCF8B"/>
<path d="M46.8147 92.8592L50.514 97.1922L50.0722 97.5737L47.0314 94.01L45.4953 98.4421L44.9458 98.2499L46.8147 92.8592Z" fill="#7BCF8B"/>
<path d="M45.7576 87.2362L51.7845 94.2645L51.344 94.6459L45.9728 88.3807L43.266 96.1533L42.7168 95.9641L45.7576 87.2362Z" fill="#7BCF8B"/>
<path d="M44.6992 81.5849L51.8807 89.9686L51.4405 90.3501L44.9153 82.7325L41.6093 92.2173L41.061 92.025L44.6992 81.5849Z" fill="#7BCF8B"/>
<path d="M109.132 86.9816C108.999 91.9658 111.266 96.6989 115.259 99.7199C119.241 102.735 124.393 103.625 129.13 102.139C129.267 97.1486 127.001 92.4125 123.004 89.3884C119.017 86.3706 113.867 85.4866 109.132 86.9816ZM130.523 103.197L130.067 103.358C124.749 105.21 118.888 104.285 114.389 100.88C109.878 97.4681 107.381 92.0558 107.71 86.4078L107.738 85.9239L108.193 85.7658C113.508 83.8986 119.37 84.8198 123.873 88.2284C128.388 91.6433 130.885 97.0587 130.551 102.713L130.523 103.197Z" fill="#7BCF8B"/>
<path d="M130.058 102.366L129.622 102.949L108.209 86.7459L108.645 86.1628L130.058 102.366Z" fill="#7BCF8B"/>
<path d="M115.761 91.9971L108.732 91.1193L108.822 90.3967L114.6 91.1162L112.315 85.738L112.981 85.4496L115.761 91.9971Z" fill="#7BCF8B"/>
<path d="M121.431 96.2866L110.007 94.8909L110.095 94.1682L120.277 95.412L116.28 85.9645L116.946 85.6791L121.431 96.2866Z" fill="#7BCF8B"/>
<path d="M127.127 100.604L113.504 98.9291L113.592 98.2065L125.97 99.7293L121.094 88.1976L121.761 87.9122L127.127 100.604Z" fill="#7BCF8B"/>
<path d="M114.58 58.7291C120.588 58.388 126.05 55.1561 129.279 50.0043C132.5 44.865 133.048 38.5221 130.783 32.9237C124.769 33.2618 119.303 36.4906 116.07 41.6486C112.845 46.7911 112.303 53.1338 114.58 58.7291ZM131.915 31.1248L132.152 31.6614C134.92 37.9298 134.4 45.1379 130.761 50.941C127.113 56.7627 120.86 60.342 114.033 60.5126L113.449 60.5281L113.211 59.9915C110.431 53.7294 110.946 46.5212 114.588 40.7088C118.239 34.884 124.498 31.3047 131.33 31.1372L131.915 31.1248Z" fill="#7BCF8B"/>
<path d="M130.962 31.7729L131.706 32.2413L114.389 59.8735L113.645 59.4021L130.962 31.7729Z" fill="#7BCF8B"/>
<path d="M119.939 50.175L119.595 58.7944L118.717 58.7603L118.999 51.6731L112.76 54.9918L112.349 54.2102L119.939 50.175Z" fill="#7BCF8B"/>
<path d="M124.523 42.8613L123.999 56.8682L123.122 56.8341L123.59 44.3501L112.634 50.1563L112.223 49.3747L124.523 42.8613Z" fill="#7BCF8B"/>
<path d="M129.14 35.5105L128.503 52.2126L127.626 52.1816L128.204 37.0023L114.831 44.0864L114.422 43.3048L129.14 35.5105Z" fill="#7BCF8B"/>
<path d="M10.2531 108.963C4.1873 114.009 0.928245 121.673 1.50677 129.62C2.08406 137.544 6.40724 144.656 13.1201 148.788C19.1943 143.741 22.4586 136.077 21.8798 128.122C21.3019 120.188 16.975 113.082 10.2531 108.963ZM13.3168 151.567L12.6509 151.185C4.89301 146.741 -0.127847 138.741 -0.779534 129.787C-1.43307 120.808 2.39122 112.164 9.44988 106.658L10.0537 106.187L10.7193 106.565C18.4861 110.994 23.5135 118.99 24.1658 127.954C24.8199 136.939 20.9907 145.59 13.9219 151.095L13.3168 151.567Z" fill="#7BCF8B"/>
<path d="M13.8187 150.14L12.6713 150.224L9.56934 107.611L10.7165 107.527L13.8187 150.14Z" fill="#7BCF8B"/>
<path d="M11.2164 122.154L4.91748 112.802L5.87078 112.157L11.0482 119.843L15.0574 111.481L16.094 111.984L11.2164 122.154Z" fill="#7BCF8B"/>
<path d="M12.0373 133.438L1.76709 118.271L2.71729 117.623L11.8699 131.139L18.9255 116.478L19.9622 116.981L12.0373 133.438Z" fill="#7BCF8B"/>
<path d="M12.8522 144.783L0.617676 126.685L1.56789 126.037L12.6845 142.479L21.3006 124.589L22.3345 125.091L12.8522 144.783Z" fill="#7BCF8B"/>
<path d="M74.324 65.3852C75.4826 69.5073 78.5453 72.8074 82.5875 74.2589C86.6196 75.7074 91.0697 75.1119 94.5751 72.6771C93.4186 68.552 90.3556 65.2487 86.3093 63.7972C82.2726 62.3456 77.8251 62.9443 74.324 65.3852ZM95.9871 73.1858L95.6537 73.4339C91.7652 76.3215 86.7249 77.0659 82.1698 75.4313C77.6028 73.7906 74.1795 69.9973 73.0117 65.2798L72.9116 64.8766L73.2441 64.6284C77.1271 61.7346 82.1677 60.984 86.7267 62.6217C91.2972 64.2624 94.722 68.0619 95.8871 72.7826L95.9871 73.1858Z" fill="#7BCF8B"/>
<path d="M95.3949 72.6243L95.1853 73.2136L73.5073 65.4286L73.7172 64.8393L95.3949 72.6243Z" fill="#7BCF8B"/>
<path d="M81.0354 67.7951L75.0489 68.8806L74.939 68.2634L79.8598 67.3732L76.6171 63.5489L77.0904 63.1426L81.0354 67.7951Z" fill="#7BCF8B"/>
<path d="M86.774 69.8547L77.053 71.6443L76.9409 71.0302L85.6055 69.436L79.9255 62.7179L80.3991 62.3115L86.774 69.8547Z" fill="#7BCF8B"/>
<path d="M92.5429 71.9328L80.9477 74.0574L80.8359 73.4432L91.3716 71.5141L84.4407 63.3103L84.9149 62.9071L92.5429 71.9328Z" fill="#7BCF8B"/>
<path d="M87.9826 100.005C81.9405 100.654 76.5949 104.189 73.5979 109.552C70.6083 114.899 70.3753 121.323 72.9425 126.853C78.9898 126.208 84.3404 122.672 87.3404 117.306C90.3331 111.953 90.5612 105.532 87.9826 100.005ZM71.8914 128.726L71.6243 128.196C68.5172 122.014 68.6786 114.719 72.0556 108.681C75.4415 102.623 81.5679 98.6965 88.4438 98.1785L89.0319 98.132L89.2995 98.6624C92.4184 104.835 92.2628 112.133 88.8828 118.178C85.494 124.238 79.3625 128.165 72.4804 128.683L71.8914 128.726Z" fill="#7BCF8B"/>
<path d="M72.8189 128.022L72.0449 127.588L88.117 98.8423L88.8906 99.2765L72.8189 128.022Z" fill="#7BCF8B"/>
<path d="M83.0089 108.904L82.9209 100.191L83.8084 100.185L83.8804 107.344L90.0052 103.681L90.4599 104.447L83.0089 108.904Z" fill="#7BCF8B"/>
<path d="M78.7545 116.515L78.5767 102.363L79.4633 102.35L79.621 114.965L90.3765 108.55L90.8315 109.317L78.7545 116.515Z" fill="#7BCF8B"/>
<path d="M74.4685 124.164L74.269 107.285L75.1557 107.272L75.3369 122.61L88.4663 114.785L88.9183 115.551L74.4685 124.164Z" fill="#7BCF8B"/>
<path d="M366.399 207.783C364.482 207.783 362.928 206.229 362.928 204.313C362.928 202.394 364.482 200.84 366.399 200.84C368.316 200.84 369.87 202.394 369.87 204.313C369.87 206.229 368.316 207.783 366.399 207.783ZM381.888 197.96C381.744 198.104 381.286 196.38 378.77 195.959C375.677 195.426 371.621 197.731 369.626 200.065C370.753 197.202 371.003 193.258 369.34 190.859C368.083 189.105 366.445 189.098 366.348 189C366.348 189.107 365.86 188.957 364.79 189.584C360.844 191.901 362.349 199.475 363.257 200.408C360.516 198.118 355.688 196.736 354.115 199.881L354.084 199.928C353.457 202.941 356.455 204.891 359.49 205.512C356.158 208.259 353.676 212.994 356.745 216.081C361.136 218.276 365.468 213.185 366.573 208.242L366.584 208.287C367.273 211.292 369.998 215.025 373.024 215.025C374.145 215.025 374.816 214.521 374.913 214.521C374.913 214.425 375.936 213.623 375.936 211.94C375.936 209.497 373.852 206.992 371.641 205.579C375.624 205.971 381.688 203.636 382.029 199.487C382.104 198.577 381.888 198.097 381.888 197.96Z" fill="#F576A7"/>
<path d="M366.399 200.84C364.482 200.84 362.928 202.394 362.928 204.313C362.928 206.229 364.482 207.783 366.399 207.783C368.316 207.783 369.869 206.229 369.869 204.313C369.869 202.394 368.316 200.84 366.399 200.84Z" fill="#F7E027"/>
<path d="M184.974 239.146C181.505 235.68 176.594 241.756 174.136 246.059C175.184 241.314 175.421 235 171 235C166.578 235 166.816 241.314 167.864 246.059C165.406 241.756 160.494 235.68 157.026 239.146C152.412 243.756 164.708 250.925 167.227 251.464C168.108 251.653 168.744 251.479 169.057 251.167C169.179 251.044 169.279 250.873 169.345 250.658C169.397 250.757 169.448 250.846 169.495 250.919C169.984 251.673 170.556 252 171 252C171.444 252 172.015 251.673 172.505 250.919C172.552 250.846 172.602 250.757 172.654 250.658C172.721 250.873 172.82 251.044 172.942 251.167C173.256 251.479 173.892 251.653 174.772 251.464C177.291 250.925 189.588 243.756 184.974 239.146Z" fill="#56B9AA"/>
<path d="M54.2743 302.115C51.9785 300.595 51.3461 297.501 52.8608 295.202C54.3787 292.903 57.4681 292.27 59.7639 293.787C62.0597 295.304 62.6921 298.397 61.1774 300.699C59.6627 302.998 56.57 303.632 54.2743 302.115ZM80.5965 302.593C80.4321 302.628 80.9254 300.034 78.443 297.726C75.2081 294.683 68.5864 294.126 64.1594 295.471C67.8054 292.938 71.2775 288.366 71.1795 284.142C71.0593 280.981 69.1019 279.731 69.0639 279.544C69.0007 279.642 68.3145 279.091 66.7366 279.009C60.156 278.66 56.0072 289.012 56.3424 290.779C54.8688 285.861 50.1793 280.38 45.8091 282.907L45.7332 282.938C42.6026 286.054 44.6486 290.769 47.7855 293.92C41.6223 294.575 34.9121 298.29 36.1486 304.423C39.6744 310.535 48.8859 307.859 54.1162 302.805C52.5635 306.966 52.8355 313.638 56.4847 316.047C57.8539 316.953 59.0303 316.864 59.1473 316.94C59.2105 316.839 61.0825 316.671 62.4138 314.651C64.3522 311.709 63.8241 307.026 62.2747 303.575C66.6954 307.184 75.8152 309.315 79.5593 304.537C80.3688 303.505 80.5269 302.701 80.5965 302.593Z" fill="#F2E43B"/>
<path d="M59.717 293.804C57.4167 292.286 54.3211 292.92 52.8003 295.22C51.2826 297.52 51.9162 300.616 54.2165 302.137C56.5168 303.654 59.6156 303.021 61.1333 300.72C62.6509 298.417 62.0172 295.321 59.717 293.804Z" fill="#F681C6"/>
<path d="M213.522 287.104C211.824 285.98 211.356 283.69 212.476 281.989C213.6 280.288 215.886 279.819 217.585 280.942C219.283 282.064 219.751 284.353 218.63 286.057C217.51 287.758 215.221 288.227 213.522 287.104ZM233 287.458C232.878 287.484 233.243 285.565 231.407 283.857C229.013 281.605 224.113 281.193 220.837 282.188C223.535 280.314 226.104 276.93 226.032 273.805C225.943 271.466 224.494 270.541 224.466 270.402C224.419 270.475 223.912 270.067 222.744 270.006C217.875 269.749 214.805 277.408 215.053 278.716C213.962 275.077 210.492 271.021 207.258 272.891L207.202 272.914C204.886 275.22 206.4 278.709 208.721 281.04C204.16 281.525 199.195 284.274 200.11 288.812C202.719 293.335 209.535 291.355 213.405 287.615C212.256 290.694 212.458 295.631 215.158 297.414C216.171 298.084 217.042 298.018 217.128 298.075C217.175 298 218.56 297.876 219.545 296.381C220.98 294.204 220.589 290.738 219.442 288.184C222.714 290.856 229.462 292.432 232.233 288.897C232.832 288.133 232.949 287.538 233 287.458Z" fill="#F2E43B"/>
<path d="M217.55 280.954C215.848 279.831 213.557 280.3 212.432 282.002C211.309 283.704 211.778 285.995 213.48 287.12C215.182 288.244 217.475 287.775 218.598 286.072C219.721 284.368 219.252 282.077 217.55 280.954Z" fill="#F681C6"/>
<path d="M237.803 199.877C233.756 195.8 228.026 202.948 225.159 208.011C226.381 202.428 226.658 195 221.5 195C216.341 195 216.618 202.428 217.841 208.011C214.974 202.948 209.243 195.8 205.198 199.877C199.813 205.301 214.159 213.735 217.099 214.369C218.126 214.592 218.868 214.388 219.234 214.02C219.376 213.875 219.492 213.674 219.57 213.421C219.63 213.537 219.689 213.642 219.744 213.728C220.315 214.615 220.982 215 221.5 215C222.018 215 222.684 214.615 223.255 213.728C223.311 213.642 223.369 213.537 223.43 213.421C223.508 213.674 223.624 213.875 223.766 214.02C224.132 214.388 224.874 214.592 225.901 214.369C228.84 213.735 243.186 205.301 237.803 199.877Z" fill="#56B9AA"/>
</svg>
