<svg width="78" height="68" viewBox="0 0 78 68" fill="none" xmlns="http://www.w3.org/2000/svg">
<path d="M62.3999 34.3703C58.915 29.9192 52.8637 27.868 47.2558 28.5795C41.6479 29.291 36.5417 32.5145 32.8701 36.8123C29.1986 41.1102 26.0738 51.8185 26.7355 63.8886C34.1246 67.4931 26.7355 63.8886 34.1246 67.4931C32.0226 57.7664 32.964 46.857 38.955 38.9105C43.1648 33.3265 53.8414 28.9913 62.3999 34.3703Z" fill="#A3D8D5"/>
<path d="M62.3999 34.3703C53.8425 28.9913 43.1658 33.3265 38.9551 38.9114C32.9641 46.857 32.0227 57.7664 34.1247 67.4941L43.6159 66.4339C42.9427 59.9977 41.9304 38.6117 54.3702 39.7197C60.9759 40.3077 59.2081 63.3044 60.7988 63.1416C62.3894 62.9778 69.3227 63.0181 69.3227 63.0181C70.7371 49.1524 65.6712 37.5066 62.3999 34.3703Z" fill="#BDE5E4"/>
<path d="M69.5659 18.2476C50.2954 -15.1184 1.12067 0.206716 1.00001 50.5622C0.982774 57.6947 19.6816 66.2961 26.7346 63.8886C26.0729 51.8186 29.1976 41.1103 32.8692 36.8124C36.5408 32.5145 41.6469 29.2902 47.2549 28.5796C52.8628 27.869 58.9151 29.9193 62.3989 34.3704C65.2948 37.1476 69.5879 46.5966 69.5563 58.3468C69.5736 59.0421 69.5793 59.7421 69.5659 60.4459C70.3732 60.558 76.9483 53.3633 76.9885 50.6014C77.1715 38.1148 75.2169 28.0318 69.5659 18.2476Z" fill="#BDE5E4"/>
<path d="M62.3999 34.3703C58.915 29.9192 52.8637 27.868 47.2558 28.5795C41.6479 29.291 36.5417 32.5145 32.8701 36.8123C29.1986 41.1102 26.0738 51.8185 26.7355 63.8886C34.1246 67.4931 26.7355 63.8886 34.1246 67.4931C32.0226 57.7664 32.964 46.857 38.955 38.9105C43.1648 33.3265 53.8414 28.9913 62.3999 34.3703Z" stroke="#130081" stroke-width="0.75" stroke-miterlimit="10" stroke-linecap="round" stroke-linejoin="round"/>
<path d="M62.3999 34.3703C53.8425 28.9913 43.1658 33.3265 38.9551 38.9114C32.9641 46.857 32.0227 57.7664 34.1247 67.4941L43.6159 66.4339C42.6228 54.4079 43.6121 38.7486 54.3702 39.7197C60.975 40.3163 59.2081 63.3044 60.7988 63.1416C62.3894 62.9778 69.3227 63.0181 69.3227 63.0181C70.7371 49.1524 65.6712 37.5066 62.3999 34.3703Z" stroke="#130081" stroke-width="0.75" stroke-miterlimit="10" stroke-linecap="round" stroke-linejoin="round"/>
<path d="M52.0161 39.7877C55.5086 41.4051 56.8388 48.1871 56.4519 61.6726L60.7986 63.1416C60.7986 63.1416 62.3998 36.9761 52.0161 39.7877Z" fill="#A3D8D5"/>
<path d="M52.0161 39.7877C55.5086 41.4052 56.8388 48.1872 56.4519 61.6726L60.7986 63.1416C60.7986 63.1416 62.3998 37.249 52.0161 39.7877Z" stroke="#130081" stroke-width="0.75" stroke-miterlimit="10" stroke-linecap="round" stroke-linejoin="round"/>
<path d="M69.5659 18.2476C50.2954 -15.1184 1.12067 0.206716 1.00001 50.5622C0.982774 57.6947 19.6816 66.2961 26.7346 63.8886C26.0729 51.8186 29.1976 41.1103 32.8692 36.8124C36.5408 32.5145 41.6469 29.2902 47.2549 28.5796C52.8628 27.869 58.9151 29.9193 62.3989 34.3704C65.2948 37.1476 69.5879 46.5966 69.5563 58.3468C69.5736 59.0421 69.5793 59.7421 69.5659 60.4459C70.3732 60.558 76.9483 53.3633 76.9886 50.6014C77.1715 38.1148 75.2169 28.0318 69.5659 18.2476Z" stroke="#130081" stroke-width="0.75" stroke-miterlimit="10" stroke-linecap="round" stroke-linejoin="round"/>
<path d="M69.042 51.1252C72.0107 49.3181 74.6614 47.1318 76.8946 44.5548" stroke="#130081" stroke-width="0.75" stroke-miterlimit="10" stroke-linecap="round" stroke-linejoin="round"/>
<path d="M1.26025 44.5548C8.45786 50.1254 17.4405 54.046 26.8186 56.1173" stroke="#130081" stroke-width="0.75" stroke-miterlimit="10" stroke-linecap="round" stroke-linejoin="round"/>
<path d="M66.4927 41.3889C69.9201 39.4324 72.995 36.9694 75.5845 33.9796" stroke="#130081" stroke-width="0.75" stroke-miterlimit="10" stroke-linecap="round" stroke-linejoin="round"/>
<path d="M2.96777 33.9796C10.401 39.7331 19.3836 43.7255 28.6286 45.7394" stroke="#130081" stroke-width="0.75" stroke-miterlimit="10" stroke-linecap="round" stroke-linejoin="round"/>
<path d="M61.4995 33.3332C65.6145 31.1958 69.3847 28.2616 72.6541 24.4866" stroke="#130081" stroke-width="0.75" stroke-miterlimit="10" stroke-linecap="round" stroke-linejoin="round"/>
<path d="M6.6377 24.4875C14.7652 30.7783 23.8168 34.9641 32.8061 36.7597" stroke="#130081" stroke-width="0.75" stroke-miterlimit="10" stroke-linecap="round" stroke-linejoin="round"/>
<path d="M11.7905 15.6198C33.4638 32.3947 55.5938 29.5285 67.6112 15.1716" stroke="#130081" stroke-width="0.75" stroke-miterlimit="10" stroke-linecap="round" stroke-linejoin="round"/>
<path d="M17.9004 9.21225C32.0581 20.5028 50.6736 21.1367 60.8552 7.7959" stroke="#130081" stroke-width="0.75" stroke-miterlimit="10" stroke-linecap="round" stroke-linejoin="round"/>
<path d="M28.1655 2.98389C28.1655 2.98389 41.7994 14.6259 53.4204 3.18308" stroke="#130081" stroke-width="0.75" stroke-miterlimit="10" stroke-linecap="round" stroke-linejoin="round"/>
<path d="M15.0913 52.4515C14.1136 55.0467 13.9584 59.2172 13.856 61.9886" stroke="#130081" stroke-width="0.75" stroke-miterlimit="10" stroke-linecap="round" stroke-linejoin="round"/>
<path d="M4.43712 46.88C3.75624 49.6907 3.62122 52.6775 3.60303 55.5782" stroke="#130081" stroke-width="0.75" stroke-miterlimit="10" stroke-linecap="round" stroke-linejoin="round"/>
<path d="M72.4893 48.7388C73.2247 51.1894 73.2515 54.6848 73.2238 57.0089" stroke="#130081" stroke-width="0.75" stroke-miterlimit="10" stroke-linecap="round" stroke-linejoin="round"/>
<path d="M73.624 36.0472C74.3518 39.6269 75.0203 42.834 75.0682 46.4865" stroke="#130081" stroke-width="0.75" stroke-miterlimit="10" stroke-linecap="round" stroke-linejoin="round"/>
<path d="M66.2026 30.7706C68.1811 33.2461 69.6166 35.9763 69.9882 39.1231" stroke="#130081" stroke-width="0.75" stroke-miterlimit="10" stroke-linecap="round" stroke-linejoin="round"/>
<path d="M65.5034 17.6635C66.9427 19.4217 68.3869 21.1866 69.5695 23.1268C70.1221 24.0327 70.6153 24.975 71.0462 25.9451" stroke="#130081" stroke-width="0.75" stroke-miterlimit="10" stroke-linecap="round" stroke-linejoin="round"/>
<path d="M58.1689 22.9773C60.0363 25.7679 61.9784 29.2661 63.1937 32.3966" stroke="#130081" stroke-width="0.75" stroke-miterlimit="10" stroke-linecap="round" stroke-linejoin="round"/>
<path d="M9.17432 49.5059C9.35818 46.1188 10.177 42.046 11.1796 39.6528" stroke="#130081" stroke-width="0.75" stroke-miterlimit="10" stroke-linecap="round" stroke-linejoin="round"/>
<path d="M20.9362 54.408C20.7264 51.2516 21.4801 47.0725 22.7787 44.1881" stroke="#130081" stroke-width="0.75" stroke-miterlimit="10" stroke-linecap="round" stroke-linejoin="round"/>
<path d="M17.0698 42.1109C17.3217 39.0531 18.376 35.2159 19.7225 32.4589" stroke="#130081" stroke-width="0.75" stroke-miterlimit="10" stroke-linecap="round" stroke-linejoin="round"/>
<path d="M5.63184 35.9218C5.88369 32.8641 7.59405 28.9531 8.93953 26.196" stroke="#130081" stroke-width="0.75" stroke-miterlimit="10" stroke-linecap="round" stroke-linejoin="round"/>
<path d="M25.0942 34.5561C25.304 32.2406 26.6753 27.6257 28.2564 24.7461" stroke="#130081" stroke-width="0.75" stroke-miterlimit="10" stroke-linecap="round" stroke-linejoin="round"/>
<path d="M14.5264 29.857C15.1584 26.4048 16.7098 23.1258 18.9794 20.4492" stroke="#130081" stroke-width="0.75" stroke-miterlimit="10" stroke-linecap="round" stroke-linejoin="round"/>
<path d="M38.7844 27.0406C38.432 29.361 38.0796 32.1439 38.0796 32.1439" stroke="#130081" stroke-width="0.75" stroke-miterlimit="10" stroke-linecap="round" stroke-linejoin="round"/>
<path d="M48.3442 26.7897C48.5961 27.3911 48.5961 28.4617 48.5961 28.4617" stroke="#130081" stroke-width="0.75" stroke-miterlimit="10" stroke-linecap="round" stroke-linejoin="round"/>
<path d="M33.917 26.1931C34.0712 23.6046 34.9311 19.8497 35.5804 17.3397" stroke="#130081" stroke-width="0.75" stroke-miterlimit="10" stroke-linecap="round" stroke-linejoin="round"/>
<path d="M23.5142 22.8338C23.9394 20.4187 25.7953 16.8859 27.0584 14.7839" stroke="#130081" stroke-width="0.75" stroke-miterlimit="10" stroke-linecap="round" stroke-linejoin="round"/>
<path d="M15.186 18.0187C16.2787 15.7596 18.6048 12.766 20.5249 11.1505" stroke="#130081" stroke-width="0.75" stroke-miterlimit="10" stroke-linecap="round" stroke-linejoin="round"/>
<path d="M43.2803 17.6041C43.5111 20.5489 43.5925 24.0864 43.6241 27.0407" stroke="#130081" stroke-width="0.75" stroke-miterlimit="10" stroke-linecap="round" stroke-linejoin="round"/>
<path d="M50.5674 15.8027C51.8075 18.397 53.1032 22.2045 53.7027 25.0171" stroke="#130081" stroke-width="0.75" stroke-miterlimit="10" stroke-linecap="round" stroke-linejoin="round"/>
<path d="M56.7871 12.3284C58.7455 14.5204 60.9615 17.6375 62.3864 20.2078" stroke="#130081" stroke-width="0.75" stroke-miterlimit="10" stroke-linecap="round" stroke-linejoin="round"/>
<path d="M48.4038 6.75598C50.2272 8.66072 52.3598 11.9818 53.4199 14.396" stroke="#130081" stroke-width="0.75" stroke-miterlimit="10" stroke-linecap="round" stroke-linejoin="round"/>
<path d="M44.6445 8.08984C45.0965 10.7166 45.7611 14.5568 45.8895 17.218" stroke="#130081" stroke-width="0.75" stroke-miterlimit="10" stroke-linecap="round" stroke-linejoin="round"/>
<path d="M38.6933 17.6432C38.5631 14.7646 39.0094 10.8651 39.785 8.08984" stroke="#130081" stroke-width="0.75" stroke-miterlimit="10" stroke-linecap="round" stroke-linejoin="round"/>
<path d="M29.459 15.7195C30.2251 12.5784 31.9958 9.00261 34.0298 6.49072" stroke="#130081" stroke-width="0.75" stroke-miterlimit="10" stroke-linecap="round" stroke-linejoin="round"/>
<path d="M21.9922 12.1072C23.5167 9.03509 26.6683 5.85477 29.5757 4.0343" stroke="#130081" stroke-width="0.75" stroke-miterlimit="10" stroke-linecap="round" stroke-linejoin="round"/>
<path d="M36.6528 7.40051C37.3098 5.42873 39.3476 2.01858 40.7726 0.50647" stroke="#130081" stroke-width="0.75" stroke-miterlimit="10" stroke-linecap="round" stroke-linejoin="round"/>
<path d="M31.2354 4.83878C32.3414 3.40519 33.979 1.76381 35.5802 0.918213" stroke="#130081" stroke-width="0.75" stroke-miterlimit="10" stroke-linecap="round" stroke-linejoin="round"/>
<path d="M46.58 7.30088C46.1481 5.12225 44.9261 2.40448 43.5845 0.634766" stroke="#130081" stroke-width="0.75" stroke-miterlimit="10" stroke-linecap="round" stroke-linejoin="round"/>
<path d="M26.645 60.4977C26.645 60.4977 31.7741 62.9483 33.5247 63.5908" stroke="#130081" stroke-width="0.75" stroke-miterlimit="10" stroke-linecap="round" stroke-linejoin="round"/>
<path d="M27.5596 50.3361C27.5596 50.3361 29.7114 52.1355 33.4567 52.8748" stroke="#130081" stroke-width="0.75" stroke-miterlimit="10" stroke-linecap="round" stroke-linejoin="round"/>
<path d="M30.5083 40.6381C30.5083 40.6381 33.997 42.7994 36.1239 43.6249" stroke="#130081" stroke-width="0.75" stroke-miterlimit="10" stroke-linecap="round" stroke-linejoin="round"/>
<path d="M35.0381 34.5562L39.7008 38.0103" stroke="#130081" stroke-width="0.75" stroke-miterlimit="10" stroke-linecap="round" stroke-linejoin="round"/>
<path d="M41.9297 30.0419L46.6068 33.3333" stroke="#130081" stroke-width="0.75" stroke-miterlimit="10" stroke-linecap="round" stroke-linejoin="round"/>
<path d="M51.9019 28.6112C51.9019 28.6112 54.182 30.9306 54.9404 31.9141" stroke="#130081" stroke-width="0.75" stroke-miterlimit="10" stroke-linecap="round" stroke-linejoin="round"/>
</svg>
