<svg width="48" height="48" viewBox="0 0 48 48" fill="none" xmlns="http://www.w3.org/2000/svg">
<path d="M18.4619 3.75947C19.8695 2.56143 20.5733 1.96242 21.3071 1.61049C22.1475 1.2086 23.0672 1 23.9988 1C24.9303 1 25.85 1.2086 26.6904 1.61049C27.4267 1.95992 28.1305 2.55894 29.5356 3.75947C30.0972 4.23868 30.3767 4.47579 30.6762 4.67546C31.362 5.13515 32.1323 5.45413 32.9423 5.61392C33.2942 5.68381 33.6611 5.71376 34.3949 5.77366C36.2393 5.91842 37.1602 5.9933 37.9289 6.26536C38.8069 6.57522 39.6044 7.07766 40.263 7.73584C40.9216 8.39403 41.4245 9.19127 41.7349 10.0691C42.007 10.8403 42.0793 11.7613 42.2266 13.6033C42.284 14.3371 42.3139 14.704 42.3838 15.0584C42.5436 15.8671 42.863 16.6383 43.3222 17.3222C43.5219 17.6217 43.7615 17.9013 44.2382 18.4628C45.4362 19.8705 46.0376 20.5744 46.3895 21.3082C46.7914 22.1486 47 23.0684 47 24C47 24.9316 46.7914 25.8514 46.3895 26.6918C46.0401 27.4256 45.4387 28.1295 44.2382 29.5372C43.9108 29.8991 43.605 30.28 43.3222 30.6778C42.8629 31.3629 42.5439 32.1324 42.3838 32.9416C42.3139 33.296 42.284 33.6629 42.2266 34.3967C42.0793 36.2387 42.007 37.1622 41.7349 37.9309C41.4245 38.8087 40.9216 39.606 40.263 40.2642C39.6044 40.9223 38.8069 41.4248 37.9289 41.7347C37.1602 42.0092 36.2393 42.0816 34.3949 42.2263C33.6611 42.2862 33.2967 42.3162 32.9423 42.3861C32.1323 42.5459 31.362 42.8649 30.6762 43.3245C30.2793 43.6074 29.8993 43.9132 29.5381 44.2405C28.1305 45.4386 27.4267 46.0376 26.6929 46.3895C25.8525 46.7914 24.9328 47 24.0012 47C23.0697 47 22.15 46.7914 21.3096 46.3895C20.5733 46.0401 19.8695 45.4411 18.4644 44.2405C18.1024 43.9132 17.7216 43.6073 17.3238 43.3245C16.638 42.8649 15.8677 42.5459 15.0577 42.3861C14.577 42.3045 14.092 42.2512 13.6051 42.2263C11.7608 42.0816 10.8398 42.0067 10.0711 41.7347C9.19312 41.4248 8.39559 40.9223 7.73701 40.2642C7.07843 39.606 6.57549 38.8087 6.26507 37.9309C5.99303 37.1622 5.92065 36.2387 5.7734 34.3967C5.7495 33.909 5.697 33.4231 5.61617 32.9416C5.45607 32.1324 5.13712 31.3629 4.67776 30.6778C4.4781 30.3783 4.23851 30.0987 3.76181 29.5372C2.56384 28.1295 1.96236 27.4256 1.61046 26.6918C1.20859 25.8514 1 24.9316 1 24C1 23.0684 1.20859 22.1486 1.61046 21.3082C1.96236 20.5744 2.56135 19.8705 3.76181 18.4628C4.23851 17.9013 4.4781 17.6217 4.67776 17.3222C5.13712 16.6371 5.45607 15.8676 5.61617 15.0584C5.68605 14.704 5.716 14.3371 5.7734 13.6033C5.92065 11.7613 5.99303 10.8403 6.26507 10.0691C6.57575 9.19101 7.07907 8.39361 7.7381 7.7354C8.39713 7.0772 9.19515 6.5749 10.0736 6.26536C10.8423 5.9933 11.7632 5.91842 13.6076 5.77366C14.3414 5.71376 14.7058 5.68381 15.0602 5.61392C15.8702 5.45413 16.6405 5.13515 17.3263 4.67546C17.6258 4.47579 17.9028 4.23868 18.4619 3.75947Z" fill="#DB950F" stroke="white"/>
<path d="M25.2153 29.3669C25.1896 29.3669 25.1632 29.3636 25.1372 29.3578C25.1321 29.3563 19.6313 28.0244 19.6313 28.0244C19.54 28.0024 19.4627 27.9423 19.4183 27.8599C19.374 27.777 19.3667 27.6799 19.3985 27.5916C19.6917 26.782 19.253 25.935 18.6971 24.8634C18.1356 23.7807 17.437 22.4335 17.3443 20.7069C17.2179 18.3921 17.9871 16.2312 19.5103 14.623C20.8902 13.1658 22.7714 12.3306 24.6728 12.3306C26.0597 12.3306 27.4315 12.774 28.6402 13.6133C31.7672 15.7232 32.6141 20.3408 30.5243 23.905C29.6422 25.4102 28.4045 26.2828 27.4102 26.9839C26.432 27.6737 25.6591 28.2183 25.5425 29.0767C25.5414 29.0862 25.5326 29.1269 25.5326 29.1269C25.5103 29.2057 25.4615 29.2698 25.3978 29.3123C25.3904 29.3171 25.3754 29.3255 25.3754 29.3255C25.3274 29.3519 25.2724 29.3669 25.2153 29.3669Z" fill="#FFCE00"/>
<path opacity="0.5" d="M30.2396 23.7379C29.6664 24.7161 28.9279 25.4128 28.1231 26.0563C26.9294 27.0144 25.3938 27.6931 25.2149 29.0374C25.2149 29.0374 23.8405 28.705 22.4632 28.3704C21.0856 28.0358 19.709 27.7041 19.709 27.7041C19.8816 27.2269 19.8424 26.7468 19.6925 26.2586C22.9334 26.4668 25.6811 24.9253 27.3047 22.5046C29.6092 19.0668 28.5119 15.6598 28.4518 13.8838C31.5781 15.9934 32.1711 20.4445 30.2396 23.7379Z" fill="#E38921"/>
<path opacity="0.75" d="M21.9904 15.9893C21.2072 16.4475 19.9699 18.3177 19.9582 18.3371C19.8233 18.5644 19.5114 18.5046 19.4326 18.2719C19.3421 18.0047 19.5679 17.4348 19.65 17.1764C20.4988 14.5032 23.4531 13.278 25.9669 14.5369C26.284 14.6956 26.1791 15.1233 25.8266 15.102C25.3314 15.1427 23.8259 14.7575 21.9904 15.9893Z" fill="white"/>
<path d="M22.862 36.7438C22.7733 36.7438 22.6842 36.7332 22.5966 36.7115L18.5757 35.737C17.9806 35.5923 17.6133 34.9908 17.757 34.3964L18.074 33.0887C18.0986 32.9868 18.1708 32.9025 18.2675 32.8622C18.3082 32.845 18.3515 32.8369 18.3947 32.8369C18.4299 32.8369 18.4643 32.8424 18.4981 32.8534L23.9926 34.186C24.0582 34.1977 24.1194 34.2285 24.1678 34.2769C24.2499 34.3582 24.2833 34.4763 24.2561 34.5884L23.9402 35.8942C23.8189 36.3945 23.3754 36.7438 22.862 36.7438Z" fill="#332FBA"/>
<path d="M24.1414 34.2221C24.0615 34.2221 23.9816 34.214 23.9032 34.1986C23.8141 34.1983 23.7485 34.1818 22.855 33.9604C22.1249 33.7797 20.8506 33.4638 18.6197 32.9228C18.601 32.9181 18.5827 32.9122 18.5658 32.9045C17.923 32.7169 17.5334 32.0528 17.6925 31.3989C17.7427 31.1816 18.4361 28.3379 18.4449 28.3031C18.5794 27.7394 19.0837 27.3447 19.6708 27.3447C19.7698 27.3447 19.8691 27.3565 19.9662 27.3799C20.0095 27.3898 25.1859 28.6451 25.1859 28.6451C25.8566 28.81 26.2708 29.492 26.1102 30.166C26.1084 30.1734 25.5898 32.2987 25.5348 32.5285C25.5334 32.5446 25.5308 32.5607 25.5268 32.5769L25.3578 33.2608C25.2226 33.8259 24.7223 34.2221 24.1414 34.2221Z" fill="#332FBA"/>
<path d="M22.225 36.2821L19.1046 35.5253C19.3557 34.723 20.1902 34.2433 21.0188 34.4441C21.8471 34.6453 22.369 35.4538 22.225 36.2821Z" fill="#6B7FFF"/>
<path d="M25.6232 30.7753L25.2035 32.4978C25.2581 32.511 24.5379 32.3347 18.1792 30.7951L18.5952 29.0732L25.6232 30.7753Z" fill="#6B7FFF"/>
<g opacity="0.25">
<path d="M25.2028 32.4974L25.2061 32.4981L25.0371 33.182C24.9187 33.6779 24.4185 33.9872 23.9233 33.8655C23.8808 33.8923 23.5752 33.7849 18.6971 32.6022C18.6945 32.5978 18.6945 32.5978 18.6945 32.5978C18.4918 32.5473 18.3181 32.4344 18.1942 32.2786C18.3907 32.1206 18.6135 31.9905 18.8488 31.8997C19.6309 31.5973 20.5039 31.701 21.3347 31.5808C22.384 31.4276 23.3732 30.8896 24.0758 30.0968C24.362 29.7707 24.6068 29.4023 24.9169 29.0996C24.9682 29.0497 25.0192 29.0032 25.0767 28.9585L25.1079 28.9658C25.6026 29.0875 25.9072 29.594 25.7888 30.0899C25.7815 30.121 25.2369 32.349 25.2028 32.4974Z" fill="#0A1640"/>
</g>
<path d="M28.822 13.3377C27.5649 12.4655 26.1282 12 24.6732 12C22.6831 12 20.7113 12.8723 19.271 14.3969C17.6841 16.0718 16.8851 18.3184 17.0134 20.7227C17.1123 22.5222 17.827 23.9039 18.4061 25.0144C18.8825 25.9343 19.1867 26.5537 19.161 27.0961C19.1548 27.0983 19.1489 27.1012 19.1431 27.1034C19.1391 27.1049 19.135 27.1067 19.131 27.1082C19.0584 27.1339 18.9888 27.1657 18.921 27.2013C18.906 27.2094 18.8917 27.2174 18.877 27.2258C18.8184 27.2596 18.7619 27.2966 18.7081 27.3373C18.6963 27.3461 18.6842 27.3541 18.6729 27.3633C18.6091 27.4142 18.5486 27.4692 18.4933 27.53C18.4922 27.5311 18.4914 27.5326 18.4903 27.5337C18.439 27.5905 18.3929 27.6517 18.35 27.7159C18.3372 27.7349 18.3258 27.7543 18.3137 27.7741C18.2833 27.824 18.2558 27.876 18.2309 27.9295C18.2202 27.9519 18.2096 27.9739 18.2001 27.9973C18.1726 28.0644 18.1495 28.1337 18.1312 28.2055C18.1294 28.2136 18.1253 28.2205 18.1235 28.2286L18.1132 28.2711C18.0843 28.3895 18.0498 28.5317 18.0121 28.6864C17.7768 29.6491 17.407 31.165 17.3692 31.3292C17.2318 31.8936 17.4275 32.462 17.8252 32.841C17.7947 32.8938 17.7691 32.9495 17.7544 33.0103L17.4374 34.3183C17.2505 35.0895 17.7266 35.8694 18.4988 36.0574L18.7594 36.1208L22.2609 36.9692L22.5207 37.0323C22.6325 37.0594 22.748 37.0733 22.8627 37.0733C23.5286 37.0733 24.104 36.6203 24.262 35.972L24.5783 34.6651C24.5929 34.6038 24.5977 34.5423 24.5951 34.4811C25.1247 34.3227 25.5451 33.8976 25.6796 33.335L25.8475 32.6563C25.8526 32.6354 25.8563 32.6141 25.8596 32.5929C25.8599 32.5892 25.861 32.5863 25.8618 32.5826C25.9241 32.326 26.1476 31.4025 26.2979 30.7978C26.3749 30.4789 26.4298 30.248 26.4335 30.237C26.4569 30.1395 26.4672 30.042 26.472 29.9453C26.4727 29.9295 26.4731 29.9138 26.4734 29.898C26.4767 29.7074 26.4452 29.5209 26.3829 29.3457C26.3759 29.3263 26.369 29.3072 26.3613 29.2878C26.3279 29.2038 26.2898 29.1218 26.2429 29.0448C26.2414 29.0426 26.24 29.0404 26.2385 29.0382C26.1927 28.9638 26.1392 28.8949 26.082 28.8289C26.0659 28.8102 26.0494 28.7923 26.0325 28.7743C26.0179 28.7589 26.0051 28.7421 25.99 28.7274C26.2246 28.2436 26.7707 27.8405 27.6026 27.2541C28.6215 26.5321 29.8932 25.6378 30.8095 24.0729C32.9854 20.3598 32.0948 15.5441 28.822 13.3377ZM21.6697 21.9215C21.7866 22.3276 22.0296 22.6175 22.3547 22.7388C22.7425 22.8828 23.1643 22.7718 23.4564 22.45C23.7482 22.1275 23.9373 21.5315 23.5917 20.8268C23.4033 20.4427 23.1277 20.1249 22.8015 19.8933C23.349 19.3516 24.1894 19.2886 24.8275 19.4814C25.4597 19.673 25.9032 20.0868 26.0707 20.6226C25.2501 20.7029 24.8143 21.1852 24.6373 21.4436C24.2653 21.9864 24.2173 22.6794 24.5233 23.091C24.745 23.3897 25.1203 23.4916 25.526 23.3622C26.2825 23.1211 26.7369 22.1843 26.7982 21.3248C26.8634 21.338 26.9294 21.3538 26.9968 21.3725C27.2867 21.4528 27.5279 21.6554 27.6763 21.9431C27.8599 22.2986 27.8808 22.7355 27.7331 23.1423C27.5784 23.5682 27.2625 23.8471 26.8253 24.2334C26.0747 24.8964 25.0522 25.8031 24.2624 28.082C22.8894 27.7488 21.8479 27.4963 21.1431 27.3255C21.4249 24.9543 20.9078 23.6976 20.5266 22.7766C20.3034 22.2374 20.1418 21.8482 20.1902 21.3974C20.2642 20.7077 20.6476 20.2517 21.2428 20.1469C21.4231 20.1143 21.6272 20.1198 21.8336 20.1674C21.5898 20.7263 21.518 21.3952 21.6697 21.9215ZM22.4335 20.4387C22.6549 20.5973 22.8535 20.8202 22.9987 21.117C23.1991 21.526 23.1134 21.8453 22.9668 22.0076C22.8579 22.1275 22.7157 22.17 22.5842 22.1209C22.4258 22.0622 22.3441 21.8812 22.3034 21.7397C22.1938 21.3582 22.2514 20.8554 22.4335 20.4387ZM26.1392 21.2838C26.0923 21.9057 25.7767 22.5904 25.3252 22.734C25.1277 22.7967 25.0723 22.7249 25.0522 22.6974C24.9488 22.5581 24.936 22.1744 25.1815 21.8163C25.3945 21.5059 25.7269 21.3248 26.1392 21.2838ZM19.89 27.7008C19.9651 27.7184 25.0632 28.955 25.1075 28.9656C25.1603 28.9784 25.2098 28.9982 25.2578 29.0191C25.2779 29.0276 25.2966 29.0378 25.3157 29.0477C25.3534 29.0679 25.3904 29.0891 25.4245 29.1137C25.4351 29.1214 25.4454 29.1294 25.4557 29.1375C25.492 29.1665 25.5264 29.1973 25.5579 29.231C25.5678 29.2416 25.577 29.2526 25.5865 29.2636C25.6118 29.2933 25.6345 29.3248 25.6561 29.3574C25.6723 29.3831 25.688 29.4087 25.7016 29.4358C25.7119 29.4556 25.7214 29.4754 25.7305 29.4959C25.743 29.5234 25.7544 29.5513 25.7639 29.5799C25.7742 29.6103 25.7815 29.6414 25.7885 29.673C25.7936 29.6964 25.7995 29.7199 25.8028 29.7441C25.8068 29.7738 25.8075 29.8042 25.8086 29.8346C25.8097 29.8635 25.8123 29.8925 25.8108 29.9218C25.8097 29.9416 25.805 29.9618 25.8028 29.9816C25.7984 30.0178 25.7951 30.0541 25.7866 30.0904C25.7822 30.1084 25.5796 30.941 25.4139 31.6238C25.3072 32.0622 25.2153 32.4393 25.2021 32.4972L25.2039 32.4976V32.4983L25.0353 33.18C25.0027 33.3193 24.9385 33.4417 24.8546 33.5458C24.778 33.6403 24.686 33.7206 24.5808 33.7785C24.4493 33.8503 24.2994 33.8903 24.144 33.8906C24.1147 33.8807 24.0864 33.8668 24.056 33.861L18.5644 32.5291C18.5417 32.5232 18.5182 32.5236 18.4948 32.5203C18.1228 32.3301 17.9062 31.9053 18.0128 31.4758C18.0641 31.2559 18.7568 28.4155 18.7641 28.3825C18.7718 28.3499 18.7839 28.3191 18.7953 28.288C18.8015 28.2707 18.8055 28.2524 18.8129 28.2356C18.8253 28.2066 18.8411 28.1802 18.8561 28.1531C18.8656 28.1359 18.8737 28.1175 18.8843 28.101C18.9016 28.0743 18.9217 28.0505 18.9415 28.0259C18.9529 28.0116 18.9631 27.9966 18.9752 27.9834C19.0005 27.9556 19.028 27.9306 19.0566 27.9064C19.0647 27.8995 19.072 27.8918 19.08 27.8852C19.1086 27.8614 19.1398 27.8416 19.1713 27.8218C19.186 27.8126 19.1999 27.8016 19.2153 27.7932C19.2435 27.7774 19.2736 27.7653 19.3036 27.7525C19.3216 27.7448 19.3388 27.7357 19.3575 27.7291C19.4007 27.7137 19.4455 27.7023 19.4913 27.6935C19.4971 27.6924 19.5026 27.6902 19.5081 27.6891C19.5613 27.6799 19.6155 27.6752 19.6701 27.6752C19.6738 27.6752 19.6778 27.6759 19.6818 27.6759C19.7456 27.6766 19.8097 27.6843 19.8742 27.6986C19.8797 27.7001 19.8849 27.6997 19.89 27.7008ZM23.6202 35.8159C23.533 36.1739 23.2142 36.4136 22.862 36.4136C22.8004 36.4136 22.7381 36.4063 22.6754 36.3913L22.4152 36.3282L18.9144 35.4798L18.6542 35.4164C18.2338 35.3141 17.9765 34.8923 18.078 34.4737L18.3896 33.1892C18.4127 33.1972 18.4335 33.2097 18.4574 33.217C18.4669 33.2207 18.4757 33.2225 18.4849 33.2255C18.5035 33.232 18.5222 33.2386 18.5417 33.2434C19.1951 33.4017 19.7643 33.5406 20.2638 33.6627C20.6872 33.7664 21.0592 33.8573 21.3857 33.9376C21.9901 34.0864 22.4416 34.1981 22.7766 34.2813C23.4209 34.4411 23.6481 34.4972 23.7665 34.5174C23.8108 34.5251 23.8412 34.5283 23.8706 34.5294C23.8911 34.5327 23.9105 34.5316 23.9307 34.5342L23.6202 35.8159ZM30.2403 23.739C28.734 26.3045 26.2052 26.9202 25.4282 28.3752C25.3769 28.3532 25.3219 28.3385 25.2669 28.3239L25.1929 28.3074L25.1343 28.2931C25.0562 28.274 24.9833 28.2565 24.907 28.2381C25.6356 26.1689 26.535 25.3699 27.2621 24.7278C27.7338 24.3111 28.141 23.9515 28.3532 23.3673C28.5632 22.7886 28.5302 22.159 28.2627 21.6408C28.0289 21.1878 27.6415 20.8671 27.1723 20.7373C27.0268 20.697 26.8887 20.6677 26.7575 20.6472C26.5827 19.8031 25.9406 19.1295 25.0192 18.8502C23.9549 18.5259 22.8334 18.8213 22.1924 19.5821C21.8526 19.4671 21.4879 19.4341 21.1288 19.4978C20.2499 19.6529 19.6393 20.354 19.5349 21.3278C19.4685 21.9457 19.6767 22.4482 19.9175 23.0294C20.2862 23.9189 20.7392 25.0217 20.4973 27.169C20.2048 27.0983 20.0483 27.0602 20.0377 27.058C19.9721 27.0422 19.9039 27.032 19.8347 27.0246C19.831 27.0243 19.8277 27.0232 19.8244 27.0228C19.8024 25.3809 17.8307 23.6364 17.6731 20.6897C17.4238 16.0938 20.8763 12.6597 24.6732 12.6597C25.9376 12.6597 27.2387 13.0409 28.4518 13.8838C31.578 15.9912 32.1718 20.4442 30.2403 23.739Z" fill="#0A1640"/>
</svg>
