<svg width="24" height="17" viewBox="0 0 24 17" fill="none" xmlns="http://www.w3.org/2000/svg">
<path d="M6.03361 10.6642L12.1766 12.9175C12.7873 13.1417 13.4711 13.045 13.9958 12.6604L19.1881 8.85607L19.2738 8.79292C19.5673 8.57739 19.6483 8.17443 19.4589 7.86379L16.6675 3.27979L7.00984 4.64466L6.35188 7.05813L5.59961 9.82253C5.50382 10.1736 5.69192 10.5385 6.03361 10.6642Z" fill="#6B7FFF"/>
<path d="M12.0821 6.43585C12.1336 7.45074 12.2536 8.45586 12.3906 9.45872C12.5343 10.4605 12.6953 11.46 12.9254 12.4496C12.9373 12.5007 12.996 12.532 13.0566 12.5196C13.1116 12.5082 13.1492 12.4646 13.1468 12.4183C13.0937 11.4037 12.9713 10.3988 12.8317 9.39637C12.6854 8.39486 12.5222 7.39589 12.2904 6.40642C12.2792 6.35839 12.2239 6.32895 12.167 6.34073C12.1152 6.35156 12.0799 6.3925 12.0821 6.43585Z" fill="#332FBA"/>
<g opacity="0.25">
<path d="M6.03354 10.6642L12.1765 12.9176C12.7873 13.1418 13.471 13.0451 13.9957 12.6604L19.1881 8.85612C18.7494 8.33155 18.0061 8.02866 17.3018 8.03374C16.301 8.04164 15.3704 8.51524 14.4894 8.98924C13.61 9.46457 12.6978 9.96091 11.7001 10.0239C10.567 10.094 9.41387 9.54458 8.75378 8.62079C8.48635 8.24606 8.28995 7.81179 7.9504 7.49981C7.52711 7.11558 6.92468 6.9818 6.35194 7.05819L5.59967 9.82258C5.50375 10.1736 5.69185 10.5386 6.03354 10.6642Z" fill="#0A1640"/>
</g>
<path d="M17.5552 7.43223C17.7722 7.2444 17.7619 7.02044 17.604 6.90633C17.1401 6.57066 16.156 7.08279 16.488 7.50729C16.6495 7.71358 17.2092 7.73164 17.5552 7.43223Z" fill="#D811AD"/>
<path d="M13.7289 8.59085C13.4442 8.55499 13.3284 8.36301 13.3964 8.18039C13.5963 7.64378 14.6991 7.52391 14.6583 8.06119C14.6385 8.32247 14.1828 8.64811 13.7289 8.59085Z" fill="#D811AD"/>
<path d="M12.8479 13.1539C12.6088 13.1539 12.3681 13.1122 12.1365 13.0272L5.99353 10.7739C5.59217 10.6262 5.37437 10.204 5.48715 9.7915L6.91758 4.53924L6.99384 4.52854L16.7277 3.15283L16.7677 3.21865L19.5592 7.80266C19.7814 8.16749 19.6885 8.63373 19.3432 8.88698L19.2579 8.94999L14.0653 12.7546C13.7062 13.018 13.2794 13.1539 12.8479 13.1539ZM6.0742 10.5542L12.2172 12.8075C12.793 13.0191 13.4322 12.9286 13.9268 12.5658L19.2044 8.69861C19.4512 8.51747 19.5177 8.18474 19.3592 7.92453L16.6077 3.40635L7.10274 4.74969L5.71285 9.85304C5.63244 10.1475 5.78777 10.4488 6.0742 10.5542Z" fill="#0A1640"/>
<path d="M15.3481 7.70658C14.972 7.70658 14.679 7.39446 14.5819 7.06334C14.5637 7.0014 14.5993 6.93638 14.6614 6.91805C14.724 6.90026 14.7883 6.93557 14.8067 6.99752C14.8861 7.26803 15.1355 7.52369 15.4395 7.46322C15.5952 7.43259 15.6824 7.33225 15.7282 7.25358C15.8167 7.1012 15.8351 6.88661 15.775 6.70667C15.7545 6.6454 15.7877 6.57904 15.849 6.55844C15.9103 6.53823 15.9766 6.57115 15.9971 6.63242C16.0787 6.87711 16.0533 7.16007 15.9306 7.37118C15.8301 7.54389 15.676 7.65507 15.4848 7.6928C15.4383 7.70216 15.3925 7.70658 15.3481 7.70658Z" fill="#0A1640"/>
<path d="M17.1277 6.17734C17.0924 5.97573 16.8215 5.82936 16.6132 5.89973C16.4013 5.97118 16.2658 6.1847 16.3361 6.42297C16.3934 6.61709 16.6264 6.77215 16.8683 6.69054C17.0655 6.62405 17.2085 6.38725 17.1277 6.17734Z" fill="#0A1640"/>
<path d="M13.8978 7.58746C14.122 7.53755 14.2455 7.27948 14.1873 7.08322C14.1184 6.8511 13.8848 6.72829 13.6655 6.79398C13.4526 6.85779 13.3239 7.08884 13.3839 7.30517C13.4457 7.52819 13.7172 7.66144 13.8978 7.58746Z" fill="#0A1640"/>
<path d="M0.260395 4.61453L11.7386 5.57082C11.9571 5.58795 12.1761 5.55704 12.3813 5.47998L21.3557 2.06205L23.1448 1.38015C23.3013 1.32048 23.269 1.09118 23.1023 1.07873L11.6241 0.12244C11.4055 0.103843 11.1863 0.134748 10.9814 0.21328L5.53125 2.28855L0.217851 4.31298C0.062527 4.37091 0.0949031 4.60035 0.260395 4.61453Z" fill="#6B7FFF"/>
<g opacity="0.25">
<path d="M0.260395 4.61458L11.7386 5.57087C11.9571 5.588 12.1761 5.55709 12.3813 5.48003L21.3557 2.0621C19.8508 1.93126 18.2581 2.24191 16.778 2.63711C14.4896 3.24703 12.1322 4.03623 9.80661 3.59688C8.44882 3.34028 7.20021 2.67818 5.8546 2.35843C5.74758 2.33302 5.63921 2.30934 5.53125 2.2886L0.217851 4.31303C0.062527 4.37096 0.0949031 4.6004 0.260395 4.61458Z" fill="#0A1640"/>
</g>
<path d="M11.7076 3.03108C11.1203 3.11403 10.5945 2.93074 10.4286 2.611C10.4019 2.56284 10.3845 2.51066 10.3764 2.45581C10.3724 2.43173 10.3711 2.40765 10.3711 2.38357C10.3764 1.99693 10.8594 1.62634 11.4962 1.53537C12.1732 1.44038 12.7685 1.69725 12.8274 2.10931C12.8862 2.5227 12.3846 2.93476 11.7076 3.03108Z" fill="#332FBA"/>
<path opacity="0.5" d="M13.1175 1.16474C13.6649 1.2612 14.2144 1.33143 14.7645 1.39244C15.3145 1.45505 15.8657 1.50214 16.417 1.54629C16.9687 1.58536 17.5207 1.62121 18.0738 1.64141C18.6267 1.66335 19.1805 1.6758 19.7361 1.66188C19.8085 1.66001 19.8656 1.59994 19.8638 1.52756C19.8622 1.46401 19.8157 1.41224 19.7553 1.40181C19.2078 1.30628 18.6583 1.23725 18.1081 1.17758C17.5579 1.11631 17.0067 1.07042 16.4553 1.02801C15.9034 0.990551 15.3513 0.956034 14.7981 0.93717C14.245 0.916568 13.6912 0.905196 13.1355 0.92018C13.0674 0.922053 13.0138 0.978644 13.0157 1.04674C13.0173 1.10627 13.0609 1.15484 13.1175 1.16474Z" fill="white"/>
<path d="M11.8574 5.69253C11.815 5.69253 11.7723 5.69079 11.7295 5.68745L0.250338 4.73115C0.119898 4.72005 0.0203627 4.6252 0.00270308 4.49529C-0.0149565 4.36605 0.0551464 4.24872 0.176891 4.20324L10.9397 0.103805C11.1626 0.0181826 11.3965 -0.0143268 11.634 0.00574089L23.112 0.9619C23.2415 0.971533 23.3417 1.06491 23.3606 1.19388C23.3796 1.32379 23.3097 1.44246 23.1867 1.48941L12.423 5.58911C12.2401 5.65788 12.0506 5.69253 11.8574 5.69253ZM0.270005 4.4977L11.7483 5.45399C11.9508 5.46978 12.1498 5.44168 12.3402 5.37011L23.1033 1.27068C23.1283 1.26118 23.131 1.24205 23.1289 1.22773C23.1261 1.2078 23.1142 1.19683 23.0935 1.19535L11.6144 0.239061C11.4117 0.221803 11.2131 0.249898 11.0234 0.322543L0.259436 4.42238C0.239903 4.42973 0.23201 4.44338 0.234685 4.46358C0.236692 4.4779 0.244452 4.49556 0.270005 4.4977Z" fill="#0A1640"/>
<path d="M11.4264 3.16764C11.1852 3.16764 10.9567 3.12483 10.7639 3.04162C10.4736 2.91626 10.2949 2.71425 10.2608 2.4725C10.1923 1.98846 10.7278 1.52597 11.48 1.41948C11.8283 1.36998 12.1695 1.40757 12.4404 1.52437C12.7307 1.64972 12.9095 1.85174 12.9436 2.09349C12.9778 2.3351 12.8621 2.57872 12.6178 2.77953C12.3898 2.96683 12.0725 3.09714 11.7241 3.14637C11.6238 3.16055 11.5241 3.16764 11.4264 3.16764ZM11.7787 1.6322C11.6917 1.6322 11.6026 1.63848 11.5127 1.65119C10.9114 1.73641 10.4442 2.09737 10.4925 2.43985C10.5148 2.59759 10.6441 2.73485 10.8567 2.82663C11.0885 2.9267 11.385 2.95787 11.6913 2.91466C11.9977 2.87131 12.2738 2.7592 12.469 2.59879C12.6478 2.45176 12.7339 2.284 12.7117 2.12626C12.6894 1.96853 12.5601 1.83113 12.3476 1.73936C12.1838 1.66859 11.9877 1.6322 11.7787 1.6322Z" fill="#0A1640"/>
<path d="M0.72547 15.3432C0.742996 15.5373 0.945813 15.6999 1.13244 15.7677C1.35827 15.8496 1.56872 15.8351 1.70705 15.7808C1.77943 15.7523 1.78504 15.7323 1.80458 15.8376C1.85608 16.1148 2.04499 16.4308 2.34266 16.3787C2.51805 16.3482 2.70281 16.2219 2.81559 16.0995C2.8398 16.0738 2.85372 16.075 2.87084 16.1018C3.13186 16.5097 3.75743 16.5708 3.95905 16.3107C3.97684 16.2875 3.98072 16.2634 3.9644 16.2368C3.8167 15.9962 3.7862 15.9592 3.73536 15.8298C3.73255 15.822 3.72907 15.8144 3.72533 15.8068C3.70686 15.763 3.68452 15.7204 3.6678 15.6749C3.35019 14.8133 4.35211 12.5175 4.23036 11.4679C4.20414 11.2447 4.09778 10.8598 3.99664 10.7113C3.92266 10.6023 3.89711 10.598 3.78272 10.6435C3.65843 10.6929 3.35902 10.8937 3.08583 11.2489C3.00168 11.3584 2.91994 11.4829 2.84649 11.6217C2.4327 12.4073 1.91268 14.6319 1.18181 15.0588C0.757846 15.306 0.717443 15.253 0.72547 15.3432Z" fill="#D811AD"/>
<path d="M3.44359 11.2564C3.18512 11.567 3.02525 11.9316 2.87273 12.2911C2.7233 12.6531 2.60035 13.0237 2.47834 13.3931C2.36462 13.7653 2.2517 14.1369 2.14508 14.5094C2.09237 14.6957 2.03845 14.8816 1.98146 15.0658C1.92768 15.2509 1.86774 15.4338 1.7975 15.6085L1.79603 15.6122C1.78453 15.6408 1.79844 15.6733 1.82694 15.6848C1.85356 15.6955 1.88353 15.6843 1.89677 15.6596C2.08742 15.3074 2.20675 14.9361 2.33385 14.5684C2.45787 14.1997 2.56918 13.8281 2.69025 13.4605C2.80209 13.0898 2.92491 12.7236 3.05374 12.361C3.08438 12.2695 3.1189 12.1802 3.15395 12.0908C3.18713 12.0004 3.22472 11.9126 3.26379 11.8255C3.33469 11.6469 3.42607 11.4815 3.5256 11.3218L3.52814 11.3177C3.54353 11.293 3.5359 11.2608 3.51142 11.2454C3.48921 11.2315 3.46018 11.2366 3.44359 11.2564Z" fill="#FF8CDB"/>
<path d="M3.83353 11.4128C3.8243 11.6009 3.80678 11.7882 3.76958 11.9754C3.73841 12.1627 3.69667 12.3492 3.65225 12.535C3.56329 12.9068 3.46348 13.2775 3.35579 13.6465L3.04621 14.76C2.95202 15.1357 2.83871 15.5029 2.81262 15.9072C2.81061 15.9378 2.83389 15.9643 2.86453 15.9663C2.89356 15.9682 2.91871 15.9476 2.92313 15.9194L2.92406 15.9132C2.95149 15.7342 3.01129 15.5476 3.06521 15.3656C3.12033 15.1821 3.17745 14.9985 3.23618 14.8152C3.35231 14.4481 3.46201 14.0778 3.56998 13.7066C3.66844 13.3325 3.77039 12.9586 3.84196 12.576C3.91113 12.194 3.97374 11.8044 3.93815 11.4072C3.93561 11.3783 3.91006 11.357 3.88129 11.3596C3.85494 11.362 3.83474 11.3835 3.83353 11.4092V11.4128Z" fill="#FF8CDB"/>
<path d="M4.35296 10.8603C4.79458 10.4036 4.7788 9.81184 4.52902 9.51644C4.21596 9.14573 3.66022 9.39269 3.47118 9.82294C3.24014 10.3498 3.615 11.626 4.35296 10.8603Z" fill="#FF8CDB"/>
<path opacity="0.25" d="M0.72547 15.3433C0.742996 15.5375 0.945813 15.7 1.13244 15.7678C1.35827 15.8497 1.56872 15.8353 1.70705 15.781C1.77943 15.7525 1.78504 15.7324 1.80458 15.8377C1.85608 16.1149 2.04499 16.4309 2.34266 16.3788C2.51805 16.3483 2.70281 16.222 2.81559 16.0996C2.8398 16.0739 2.85372 16.0751 2.87084 16.1019C3.13186 16.5098 3.75743 16.571 3.95905 16.3109C3.97684 16.2876 3.98072 16.2635 3.9644 16.2369C3.8167 15.9964 3.7862 15.9593 3.73536 15.8299C3.73255 15.8222 3.72907 15.8145 3.72533 15.8069C3.71489 15.8085 3.70231 15.8113 3.68706 15.8145C3.32959 15.8936 3.00436 15.728 2.83793 15.4445C2.37504 14.6533 3.72426 12.4438 3.08583 11.2493C3.00168 11.3588 2.91994 11.4833 2.84649 11.6221C2.4327 12.4077 1.91268 14.6323 1.18181 15.0592C0.757846 15.3062 0.717443 15.2532 0.72547 15.3433Z" fill="#0A1640"/>
<path opacity="0.5" d="M3.91817 11.1212C4.07898 11.0928 4.22869 10.9894 4.35297 10.8604C4.24394 10.8624 4.12005 10.8211 4.06574 10.7276C3.8969 10.4378 4.10587 10.134 4.0553 9.643C4.0454 9.54453 4.02788 9.44834 3.98573 9.35938C3.77034 9.42172 3.56886 9.60099 3.4712 9.82307C3.24015 10.3499 3.43936 11.2055 3.91817 11.1212Z" fill="#D811AD"/>
<path d="M6.59563 3.85785C7.48396 3.57958 8.67197 3.12873 10.4286 2.61098C10.4018 2.56282 10.3844 2.51064 10.3764 2.45579C10.3724 2.43171 10.371 2.40763 10.371 2.38354C9.41447 2.66583 8.39236 2.99762 7.10669 3.4458C6.29461 3.72808 5.39156 3.92207 4.66511 4.44784C3.58146 5.23048 4.06041 6.32752 4.44437 7.20916C4.70792 7.81253 4.65976 8.62059 4.37212 9.26008C4.24503 9.20924 4.10188 9.20389 3.95338 9.2467C3.70053 9.31895 3.47577 9.5223 3.36339 9.77649C3.22693 10.0869 3.22559 10.4989 3.33931 10.8053C3.2296 10.9016 3.11053 11.0247 2.9928 11.1772C2.89915 11.3003 2.81487 11.4314 2.74263 11.5679C2.60483 11.8287 2.46168 12.2274 2.29712 12.6876C1.97738 13.58 1.58004 14.6904 1.12249 14.958C0.944559 15.061 0.836193 15.1105 0.770639 15.1399C0.686355 15.1787 0.607422 15.2148 0.607422 15.3299C0.607422 15.3366 0.607422 15.346 0.608759 15.354C0.623476 15.5199 0.737193 15.6791 0.921816 15.7928C1.15861 15.9386 1.45829 15.9828 1.6991 15.9078C1.77938 16.2503 2.02688 16.5527 2.36268 16.4938C2.54195 16.4631 2.71319 16.3533 2.83226 16.2463C2.99548 16.4443 3.25235 16.5714 3.52393 16.5835H3.56674C3.77545 16.5835 3.9507 16.5112 4.05104 16.3814C4.12864 16.2811 4.08315 16.2075 4.03097 16.1219C3.99218 16.059 3.92796 15.9533 3.83297 15.7607C3.6042 15.2215 3.83297 14.2917 4.05505 13.3914C4.23566 12.6596 4.40557 11.9665 4.34671 11.4542C4.33466 11.3578 4.30791 11.2227 4.26911 11.0876C4.32664 11.0474 4.38283 10.9979 4.43768 10.9418C4.51527 10.8615 4.58886 10.7652 4.65173 10.6635C4.8591 10.3277 4.90325 9.77783 4.61829 9.44069C4.60357 9.4233 4.58752 9.40724 4.57146 9.39119C4.90191 8.68748 4.95676 7.79648 4.65976 7.11551C3.91057 5.39905 3.9012 4.70471 6.59563 3.85785ZM0.841679 15.3326L0.725286 15.3433L0.841679 15.3272V15.3326ZM4.11392 11.4809C4.16877 11.9518 4.00288 12.6248 3.82762 13.3365C3.59617 14.2717 3.35804 15.2403 3.62025 15.8583C3.72193 16.067 3.7915 16.1781 3.83163 16.245C3.83565 16.2517 3.83966 16.2584 3.84368 16.2637C3.77946 16.3239 3.66574 16.3574 3.53463 16.3493C3.35268 16.3413 3.10786 16.2557 2.96872 16.039C2.93394 15.9828 2.88845 15.9667 2.85768 15.964H2.8443C2.80283 15.964 2.76403 15.9828 2.72925 16.0202C2.6356 16.1219 2.47238 16.237 2.32254 16.2637C2.09511 16.3052 1.95731 16.0175 1.91985 15.8155C1.90781 15.7567 1.89577 15.6898 1.83289 15.6563C1.77269 15.6242 1.71784 15.6483 1.68573 15.663L1.66432 15.6724C1.48371 15.742 1.23487 15.7112 1.0449 15.5935C0.936532 15.5279 0.866964 15.445 0.846897 15.3633C0.853586 15.3607 0.860275 15.3567 0.868302 15.354C0.936532 15.3219 1.05159 15.2697 1.24022 15.16C1.77135 14.8496 2.16735 13.7432 2.51787 12.7666C2.67306 12.3331 2.81888 11.9237 2.94999 11.6762C3.01555 11.5518 3.0918 11.4327 3.17743 11.3204C3.27108 11.1986 3.36473 11.0983 3.45169 11.018C3.45704 11.026 3.46239 11.0341 3.46908 11.0421C3.57209 11.1745 3.70721 11.2441 3.85438 11.2441C3.88113 11.2441 3.91057 11.2414 3.93866 11.2361C3.9788 11.2294 4.01893 11.2187 4.05907 11.204C4.08582 11.3043 4.10456 11.4033 4.11392 11.4809ZM4.4524 10.5404C4.39888 10.6274 4.33467 10.7103 4.26911 10.7785C4.24369 10.804 4.21827 10.828 4.19285 10.8494C4.12596 10.9083 4.05773 10.9511 3.99084 10.9779C3.96007 10.9913 3.9293 11.0006 3.89853 11.006C3.80354 11.022 3.72327 10.9872 3.65236 10.8976C3.64567 10.8882 3.63898 10.8789 3.6323 10.8695C3.59082 10.8093 3.55871 10.7344 3.53597 10.6514C3.46774 10.4093 3.47844 10.0976 3.57878 9.87014C3.66173 9.6815 3.83431 9.52498 4.01893 9.47146C4.05773 9.45942 4.10322 9.45139 4.15004 9.45139C4.1875 9.45139 4.2263 9.45674 4.2651 9.46879C4.3253 9.48885 4.38417 9.52631 4.43902 9.59187C4.44437 9.59856 4.45106 9.60658 4.45507 9.61327C4.6504 9.8688 4.60892 10.2875 4.4524 10.5404Z" fill="#0A1640"/>
</svg>
