<svg width="87" height="66" viewBox="0 0 87 66" fill="none" xmlns="http://www.w3.org/2000/svg">
<path d="M76.8377 76.7966C71.2119 81.1111 63.5505 81.1911 57.6131 76.5805C55.2352 74.7339 54.6509 72.6822 51.4945 74.3382C45.9213 77.2618 39.2019 77.0107 34.0495 72.7352C31.432 70.5635 29.728 67.6278 28.1196 64.4164C20.7653 49.7345 21.7689 32.6091 28.9415 22.1861C29.815 20.9168 29.3893 22.3617 31.8642 26.7192C32.0323 27.0149 32.0203 27.2775 31.8707 27.5852C28.7844 33.9484 34.6503 38.7521 42.9246 34.7553C50.0472 31.3148 53.2991 23.3783 48.6329 20.333C46.7693 19.1168 45.1139 19.2424 43.5895 19.2899C43.2003 19.3019 43.1953 18.9377 43.1592 18.3799C43.0592 16.8255 43.4589 15.3902 44.1913 14.0309C44.3679 13.7037 44.6121 13.6467 44.9573 13.6917C50.64 14.4286 55.8726 17.637 60.0099 21.5282C60.5227 22.0105 61.1391 22.3021 61.799 22.5113C62.5124 22.7369 63.8852 22.4352 64.7497 21.9875C65.5311 21.5827 66.3621 21.3066 67.1761 20.9849C67.5673 20.8308 67.7264 20.8723 69.8962 23.1571C73.1951 26.6301 74.5753 29.4173 79.8079 32.2649C83.9032 34.4937 88.6209 35.6023 93.001 34.9394C93.7739 34.8224 94.0696 34.7008 94.1581 35.0395C94.5839 36.6714 94.9911 40.3586 94.6089 44.8557C93.5783 56.9962 86.4142 69.4528 76.8377 76.7966Z" fill="#D811AD"/>
<path d="M50.4406 25.4845C50.3296 26.0163 50.2845 26.8878 49.7562 26.6087C47.3939 25.3599 44.7263 23.1437 43.6297 20.4526C43.4726 20.0664 43.334 19.6967 43.7262 19.6246C44.8859 19.4115 46.7535 19.5881 48.1098 20.3591C49.5746 21.1915 50.3806 22.4533 50.4886 24.1392C50.5202 24.632 50.5402 25.1308 50.4406 25.4845Z" fill="#FF8CDB"/>
<path d="M35.91 35.8571C33.3055 35.2378 31.587 34.0251 31.3718 31.272C31.2753 30.0373 31.719 28.5384 32.0667 27.9025C32.1638 27.7249 32.3509 27.6944 32.4675 27.8465C32.5825 27.9961 32.6946 28.1512 32.7872 28.3153C36.3147 34.5444 39.5866 35.9547 37.3358 35.9247C36.84 35.9182 36.3492 35.8031 35.91 35.8571Z" fill="#FF8CDB"/>
<path d="M40.0235 51.0443C42.2813 49.2178 46.3122 49.7591 48.4699 51.5101C50.6061 53.2436 49.9823 56.2418 46.2306 56.7116C41.0927 57.3549 37.0948 53.4142 40.0235 51.0443Z" fill="#FF8CDB"/>
<path d="M74.0706 56.4678C72.4922 54.0304 68.4924 53.2925 65.8974 54.2866C63.3284 55.2707 62.9897 58.3144 66.4097 59.9263C71.0944 62.1336 76.1183 59.6297 74.0706 56.4678Z" fill="#FF8CDB"/>
<path d="M55.4685 10.0024C55.6836 6.67451 63.2039 3.31106 66.1211 7.14328C67.5009 8.95582 68.3469 10.9805 68.6541 13.2278C68.9122 15.1174 68.6836 15.5846 68.6471 16.4767C68.6421 16.5942 68.6731 16.7198 68.6426 16.8289C67.3363 21.46 67.8411 20.2458 64.5222 21.7547C61.4969 23.1305 60.5449 21.5131 58.5808 19.8846C58.3421 19.687 58.2271 19.4599 58.2006 19.1602C57.8564 15.2244 55.9488 13.9052 55.491 11.6819C55.3749 11.1201 55.3234 10.5592 55.4685 10.0024Z" fill="#C05E46"/>
<path d="M84.1432 33.8213C79.557 32.4145 75.7623 29.5503 72.7266 25.9017C68.8518 21.245 67.6256 21.0014 68.3801 20.6507C69.2501 20.2465 72.3904 19.7312 74.4045 20.0879C74.6522 20.1319 75.178 20.0874 75.4631 20.1549C84.2602 22.2316 82.6878 24.7796 89.3522 26.6862C90.841 27.1119 92.1968 27.3426 94.0419 26.9303C94.6087 26.8037 95.3982 26.4706 95.7288 26.0763C95.7929 25.9998 95.7133 25.8792 95.6258 25.8992C95.3146 25.9703 94.3971 27.0124 91.9126 26.8163C84.3328 26.2184 82.9635 20.5982 74.4411 19.7462C69.5157 19.2539 67.2989 21.3346 68.5837 19.3755C75.6503 8.60176 89.5483 7.50312 88.5662 16.5723C88.5382 16.831 88.5112 17.0901 88.5012 17.3498C88.4757 18.0097 90.0461 16.837 93.2079 17.0346C98.7151 17.3793 103.811 21.5842 102.111 27.5247C100.066 34.6643 91.0381 35.9365 84.1432 33.8213Z" fill="#A7D640"/>
<path d="M39.1502 0.643573C39.4084 0.667087 39.677 0.619057 39.9277 0.669085C44.9266 1.67567 46.8261 4.42775 46.8061 7.43349C46.7996 8.37703 46.63 9.31557 46.2623 10.2046C46.0992 10.5988 45.8546 10.7939 45.4103 10.8069C43.6298 10.8585 42.254 10.14 41.2469 8.68571C41.0823 8.44807 41.0143 8.16991 40.9123 7.90576C40.8552 7.75717 40.6031 7.72215 40.6621 8.00932C40.8802 9.06643 42.1164 10.4677 43.875 10.937C45.1652 11.2812 44.6599 11.0286 45.3338 11.1516C46.4389 11.3537 43.0565 13.4229 42.8399 17.4393C42.6983 20.0643 43.983 22.3031 45.8826 24.1356C49.2731 27.407 50.3387 26.4805 49.6893 27.8533C48.0454 31.3298 44.0956 34.7042 39.1367 35.7348C38.8506 35.7943 38.6524 35.7203 38.4568 35.4912C35.4636 31.9836 32.666 28.3911 30.4687 23.2406C24.7069 9.73682 31.5093 -0.0553297 39.1502 0.643573Z" fill="#A7D640"/>
<g opacity="0.25">
<path d="M30.4405 21.7763C30.0237 21.7183 29.7491 21.5151 29.6315 21.0954C29.2488 19.7286 28.9296 19.2283 29.3784 19.2593C32.0804 19.4465 37.1288 20.2729 42.2488 17.3282C43.2268 16.7659 42.5535 17.5078 43.0002 19.4189C43.0658 19.6996 42.9517 19.8652 42.7316 20.0078C42.1122 20.409 41.4438 20.7197 40.7569 20.9663C37.9663 21.9684 36.4575 22.1725 33.8159 22.1705C33.0805 22.17 31.7492 21.9579 30.4405 21.7763Z" fill="#0A1640"/>
<path d="M46.6193 25.0192C46.2665 25.5905 45.5906 26.2274 45.0844 26.6256C42.2502 28.8539 38.4971 30.1251 35.1256 30.6309C34.7949 30.6804 34.5978 30.6009 34.4237 30.3152C32.6742 27.4411 32.5721 28.5167 35.7124 27.7723C36.9707 27.4741 40.5142 26.9998 43.9582 24.5364C45.5301 23.4122 44.8077 23.1021 46.4632 24.6785C46.5517 24.763 46.6203 24.8536 46.6193 25.0192Z" fill="#0A1640"/>
</g>
<g opacity="0.25">
<path d="M84.2141 43.8521C86.7566 39.6257 89.296 36.5895 93.7486 34.918C94.0323 34.8114 94.1433 34.868 94.1964 35.1726C97.933 56.5805 81.6136 75.3868 73.2718 78.8408C67.632 81.1762 60.9452 80.2156 55.6696 74.8075C54.6816 73.7949 53.5649 73.4422 52.1891 73.9935C51.5132 74.2642 49.0588 75.9076 44.9194 76.2408C41.7951 76.4925 38.151 75.694 35.2393 73.6223C34.7055 73.2421 34.661 73.107 34.8776 72.4892C37.3571 65.4161 46.2312 63.4745 52.8085 64.478C60.1582 65.5997 68.1688 67.1911 74.6351 62.3843C81.1403 57.515 79.7175 51.3265 84.2141 43.8521Z" fill="#0A1640"/>
<path d="M72.845 26.0527C69.9833 22.5527 68.6095 21.6072 68.2368 21.0503C67.743 20.3129 71.6973 19.9852 72.5798 19.9672C82.0558 19.7751 85.5153 27.4675 92.6914 26.9938C94.519 26.8732 95.1103 26.3954 96.295 25.3133C97.7599 23.9755 99.1212 21.6167 99.668 19.9562C99.8321 19.4569 100.086 19.7736 100.325 20.0218C105.402 25.2903 101.176 34.8458 90.4847 34.8193C84.4887 34.8048 77.7378 32.0372 72.845 26.0527Z" fill="#0A1640"/>
<path d="M28.741 14.8619C36.0923 17.1563 32.992 23.586 40.5879 27.7018C42.8397 28.922 44.7077 29.0736 46.3837 28.776C48.5554 28.3902 49.3744 27.4647 49.6811 27.3737C50.5516 27.1145 46.9565 34.1646 39.095 35.743C38.8363 35.795 38.6532 35.722 38.4761 35.5138C33.5828 29.774 28.9501 22.6899 28.3338 15.2051C28.3128 14.9515 28.4819 14.8209 28.741 14.8619Z" fill="#0A1640"/>
<path d="M60.3728 21.4531C56.0208 17.7875 59.3857 20.7452 62.4074 17.0421C65.7008 13.0057 61.9317 9.40566 63.8683 6.03271C64.8148 4.38476 71.0609 11.4648 67.796 19.6296C67.5449 20.2579 67.3178 20.6932 66.5303 20.9368C65.2631 21.329 64.3436 21.9779 63.1554 22.221C62.7802 22.2986 61.2293 22.1745 60.3728 21.4531Z" fill="#0A1640"/>
</g>
<g opacity="0.5">
<path d="M27.7555 39.3099C28.2407 38.1873 29.0537 38.2688 29.3644 38.8662C29.9472 39.9868 29.3274 46.8163 33.4973 56.0116C35.8871 61.2821 36.4025 61.8184 36.9248 63.1782C37.1879 63.8641 36.9553 64.8807 36.0868 64.8787C33.6824 64.8722 31.338 59.2314 30.438 57.3393C28.0972 52.416 27.0791 46.9768 27.1586 42.5063C27.1671 42.035 27.4078 40.1149 27.7555 39.3099Z" fill="white"/>
<path d="M59.8665 15.6243C58.8985 11.1758 56.8858 10.4138 57.6322 9.6829C57.9794 9.34321 58.902 9.92154 59.2537 10.2592C60.4478 11.4069 61.3479 12.7467 61.8417 14.3406C62.5856 16.7435 60.2823 17.5329 59.8665 15.6243Z" fill="white"/>
</g>
<path d="M75.479 42.9009C74.4594 41.4951 72.9536 40.5711 71.2386 40.2979C69.5236 40.0238 67.8061 40.436 66.3993 41.4551C65.6794 41.9774 65.088 42.6288 64.6433 43.3687C63.5677 42.3826 61.8752 41.2265 59.5348 40.7602C56.7897 40.2139 54.4769 40.8913 53.0511 41.5306C52.4752 39.0212 50.4331 36.9835 47.7395 36.5543C46.0235 36.2806 44.3045 36.6923 42.9002 37.7114C41.4939 38.731 40.5689 40.2374 40.2962 41.9524C39.7329 45.4924 42.1543 48.8308 45.6938 49.3947C46.4538 49.5162 47.2147 49.5027 47.9486 49.3612C48.8712 49.1836 49.7512 48.8048 50.5336 48.237C51.9399 47.2174 52.865 45.7115 53.1381 43.9966C53.1742 43.7714 53.1972 43.5473 53.2097 43.3247C54.3058 42.7423 56.5086 41.8728 59.2071 42.4106C61.5275 42.8729 63.0899 44.1421 63.9384 45.0332C63.8808 45.2498 63.8323 45.4704 63.7968 45.6945C63.2335 49.2351 65.6549 52.5735 69.1944 53.1373C69.9603 53.2594 70.7173 53.2419 71.4377 53.1033C74.0492 52.6015 76.1954 50.5138 76.6382 47.7397C76.9103 46.0252 76.4986 44.3067 75.479 42.9009ZM49.5446 46.8747C48.503 47.6302 47.2282 47.9353 45.9575 47.7327C43.334 47.315 41.5399 44.8405 41.9582 42.217C42.1598 40.9458 42.8452 39.8302 43.8873 39.0747C44.4676 38.654 45.1195 38.3733 45.8034 38.2417C46.3472 38.1372 46.9115 38.1272 47.4744 38.2167C50.0979 38.6345 51.8919 41.1089 51.4737 43.7329C51.2721 45.0036 50.5867 46.1198 49.5446 46.8747ZM74.9737 47.4756C74.5555 50.0996 72.0796 51.8931 69.458 51.4759C66.8345 51.0581 65.0405 48.5837 65.4587 45.9597C65.6609 44.689 66.3458 43.5728 67.3879 42.8174C68.4315 42.0614 69.7057 41.7573 70.9739 41.9599C72.2452 42.1625 73.3613 42.8474 74.1162 43.8895C74.8717 44.9311 75.1768 46.2048 74.9737 47.4756Z" fill="#332FBA"/>
<path opacity="0.75" d="M84.8643 17.047C83.9713 15.8178 82.8556 15.1079 81.2047 15.1299C78.3515 15.1679 76.471 16.8654 74.8495 17.5303C74.4978 17.6744 74.2767 17.3437 74.3653 17.077C74.88 15.5291 77.2969 14.0603 79.0104 13.5029C82.9637 12.2162 85.9489 14.2769 86.4782 16.4186C86.7029 17.3287 85.4932 17.9125 84.8643 17.047Z" fill="white"/>
<path d="M102.633 22.7788C102.027 20.9672 100.832 19.4143 99.177 18.2867C97.4 17.0765 95.1687 16.4311 92.7248 16.4206C92.6988 16.4206 92.6733 16.4206 92.6478 16.4206C91.0854 16.4206 90.2154 16.6277 89.7446 16.7398C89.4779 16.8033 89.3314 16.8383 89.2673 16.7893C89.1983 16.7353 89.1963 16.5492 89.1938 16.211C89.1923 16.0664 89.1908 15.8863 89.1838 15.6727C89.0832 12.7155 87.4268 10.6598 84.6401 10.0334C83.0807 9.68271 81.3077 9.79828 79.3696 10.3761C77.7272 10.8654 76.0187 11.6774 74.4298 12.7245C71.7047 14.519 70.1963 16.3205 69.4714 17.186C69.2968 17.3942 69.1727 17.5427 69.0987 17.6083C69.0351 17.4357 69.0847 17.168 69.1577 16.7788C69.3338 15.8368 69.661 14.0838 68.77 11.04C68.3438 9.58366 67.5888 8.14933 66.4612 6.65447C65.6727 5.60887 64.536 5.01002 63.0822 4.87444C61.5148 4.72786 60.0204 5.16261 59.0454 5.55333C57.5365 6.15668 56.3533 7.03219 55.6249 8.08579C54.7889 9.29449 54.5833 10.6603 55.0146 12.1461C55.2917 13.1007 55.6479 13.7305 56.0256 14.3974C56.5705 15.36 57.1338 16.3551 57.5165 18.4453C57.5245 18.4888 57.5025 18.5218 57.479 18.5378C57.4515 18.5563 57.4204 18.5563 57.3949 18.5418C57.1873 18.4132 56.9967 18.2747 56.7551 18.0991C56.2698 17.7454 55.6044 17.2601 54.2041 16.4196C50.2188 14.0257 47.4987 13.5489 46.192 13.3198C45.6346 13.2223 45.2984 13.1632 45.2489 13.0276C45.2209 12.9496 45.2804 12.8275 45.4435 12.6309C46.5172 11.3392 47.1765 9.84081 47.3496 8.29892C47.5322 6.67598 47.158 5.08356 46.2685 3.69426C45.365 2.28245 43.8341 1.1628 41.9585 0.539443C40.223 -0.0363889 38.2614 -0.15796 36.5779 0.207251C33.6672 0.838115 31.0788 2.8968 29.4758 5.85451C27.136 10.1725 27.5107 15.0113 28.2371 18.3097C28.4202 19.1412 28.6033 19.7005 28.7374 20.1097C28.9665 20.8106 29.0441 21.0473 28.7404 21.447C27.962 22.4716 26.347 25.1531 25.0903 28.34C22.857 34.0012 22.0265 40.6236 22.6874 47.492C23.3718 54.5971 25.6356 61.5711 29.2342 67.6586C32.0948 72.4989 35.3772 75.1905 39.8763 76.3857C43.653 77.3878 47.98 76.8284 51.7487 74.8498C53.5532 73.9012 54.2796 74.358 55.2627 75.224C58.2379 77.8435 60.944 79.7196 64.483 80.3595C65.0749 80.4665 65.6712 80.5436 66.2565 80.5871C66.6187 80.6141 66.9795 80.6271 67.3407 80.6271C69.9927 80.6271 72.6277 79.9027 75.1872 78.4679C77.5531 77.1416 79.9009 75.2045 82.3633 72.5465C87.6629 66.8267 91.5716 60.0533 93.6679 52.9592C95.3943 47.1138 95.8386 41.3069 94.9521 36.1675C94.9316 36.0499 94.9131 35.9424 94.8956 35.8448C94.7265 34.8817 94.7265 34.8817 95.0647 34.7637L95.1347 34.7387C95.2918 34.6821 95.4469 34.6286 95.6 34.5751C96.6846 34.1964 97.7087 33.8381 99.0164 32.8461C102.451 30.2406 103.836 26.3833 102.633 22.7788ZM43.8351 20.1833C43.7946 20.0822 43.7916 19.9997 43.8276 19.9446C43.8631 19.8901 43.9402 19.8601 44.0492 19.8571C44.1098 19.8551 44.1703 19.8546 44.2323 19.8546C45.7292 19.8546 47.4822 20.3228 48.0746 20.6655C49.9221 21.7362 50.5465 23.5267 49.9832 26.1387C49.9661 26.2172 49.9356 26.2643 49.8896 26.2828C49.7535 26.3368 49.4749 26.1512 49.2052 25.9716L49.1712 25.9486C46.5071 24.1726 44.8677 22.7282 43.8351 20.1833ZM37.6305 35.5776C37.532 35.7507 36.8906 35.7833 36.5939 35.7678C34.8144 35.6937 33.281 34.8062 32.3875 33.3339C31.481 31.8395 31.4034 30.0385 32.1744 28.3935C32.1829 28.376 32.1904 28.3555 32.1979 28.335C32.2249 28.2604 32.2424 28.2249 32.2829 28.2249C32.2895 28.2249 32.297 28.2259 32.305 28.2279C32.427 28.2564 32.5316 28.447 32.6417 28.6497C32.6827 28.7247 32.7252 28.8027 32.7712 28.8778C34.3932 31.5208 35.9035 33.3399 36.8056 34.4275C37.1863 34.8857 37.4609 35.2164 37.609 35.4426C37.6445 35.4966 37.652 35.5406 37.6305 35.5776ZM45.0798 10.5312C43.9772 10.5312 42.9616 10.0869 41.983 9.17592C41.3677 8.60359 41.2631 8.0983 41.2126 7.85566C41.2011 7.80063 41.1921 7.7571 41.1801 7.72509C41.089 7.47894 40.8989 7.41391 40.7578 7.42841C40.5602 7.45293 40.4051 7.62053 40.3811 7.83665C40.2936 8.6156 41.1856 9.68872 41.8475 10.2025C43.2623 11.3012 44.3594 11.3802 44.8872 11.4177C45.0458 11.4292 45.1829 11.4387 45.1999 11.4747C45.2049 11.4843 45.2049 11.5133 45.1519 11.5913C45.1068 11.6584 45.0313 11.7589 44.9347 11.8865C44.4315 12.5564 43.3839 13.9507 42.9401 15.462C42.1161 18.2697 42.3182 22.405 47.9595 26.1617C48.3317 26.4094 48.6199 26.593 48.851 26.7411C49.626 27.2363 49.6259 27.2363 49.4949 27.5515L49.4779 27.593C48.2361 30.6113 44.2378 34.382 39.273 35.4246C39.0038 35.4816 38.7922 35.4631 38.5686 35.1979C36.635 32.9061 35.4913 31.4092 35.4848 31.4002C29.4513 22.9028 27.3406 15.3285 29.2112 8.88675C29.8471 6.69699 30.9332 4.81491 32.352 3.44362C33.9014 1.94525 35.7735 1.09226 37.9157 0.908156C38.0623 0.895148 38.2149 0.889644 38.373 0.889644C40.3086 0.889644 42.9891 1.79967 44.1148 2.65967C46.4066 4.41017 47.1065 7.08772 46.0359 10.0069C45.8703 10.4572 45.7517 10.5037 45.2709 10.5257C45.2069 10.5297 45.1429 10.5312 45.0798 10.5312ZM29.3538 22.1824C29.3558 22.1824 29.3578 22.1824 29.3598 22.1829C29.4413 22.1929 29.5214 22.4121 29.5994 22.6232C29.6309 22.7077 29.6639 22.7973 29.7005 22.8853C30.3478 24.4482 30.8426 25.3963 31.1693 26.0241C31.6786 27.0007 31.7847 27.2033 31.483 27.7751C31.2298 28.2544 31.0407 28.8298 30.9052 29.5332C30.5224 31.5143 30.9347 33.2003 32.1299 34.5445C32.437 34.8897 32.7847 35.1949 33.163 35.4511C35.9496 37.3382 39.6452 36.3611 41.6013 35.6112C44.8522 34.3629 47.6223 32.2367 49.4003 29.6242C50.4169 28.1314 51.0283 26.3523 51.0778 24.7444C51.1188 23.4001 50.7816 21.5305 48.9436 20.2558C47.3051 19.1197 45.2289 18.9511 43.7711 19.0096C43.5835 19.0201 43.5174 18.9841 43.4934 18.7574C43.3568 17.4432 43.3263 16.5257 44.3639 14.3264C44.4845 14.0707 44.6716 13.9727 44.9583 14.0247C45.2229 14.0712 45.4941 14.1123 45.7557 14.1523C46.185 14.2173 46.6287 14.2849 47.059 14.3774C50.9387 15.2129 55.5679 17.8414 59.4416 21.4075C61.842 23.6172 63.3153 22.9689 65.9894 21.7947C66.3391 21.6411 66.6998 21.4825 67.09 21.3184C67.3387 21.2129 67.5313 21.2539 67.7544 21.457C69.631 23.1695 70.9272 24.6934 72.0704 26.0376C74.06 28.377 75.7785 30.3972 79.7148 32.5444C83.0372 34.3574 86.3386 35.1699 88.3198 35.326C91.1294 35.5461 92.5412 35.3055 93.2196 35.1899C93.8094 35.0899 93.8855 35.0769 93.9485 35.4331V35.4336C95.0732 41.7242 95.2493 54.4805 83.7937 69.2321C78.7067 75.7833 73.7549 79.2048 68.6554 79.6921C64.1974 80.1158 59.5112 78.3113 56.1232 74.8588C55.0956 73.8117 54.2911 73.435 53.4972 73.435C52.7242 73.435 51.9618 73.7927 51.0138 74.2369C49.5889 74.9053 47.6373 75.8204 44.5345 75.9684C38.8347 76.2376 33.7518 73.4205 30.5835 68.2325C25.8893 60.547 23.3808 51.9041 23.3303 43.2381C23.2833 35.2349 25.378 27.7952 29.2272 22.2895C29.2762 22.2194 29.3197 22.1824 29.3538 22.1824ZM67.3247 19.9771C67.129 20.3864 67.022 20.4294 66.1895 20.7611C65.7448 20.9382 65.0729 21.2059 64.0713 21.6596C62.735 22.265 61.3192 21.9943 60.1885 20.9167C59.7373 20.4864 59.4031 20.2058 59.1595 20.0012C58.6697 19.5894 58.5381 19.4789 58.4906 19.0391C58.2474 16.7678 57.3269 14.9287 56.5529 13.5805C55.9476 12.5264 55.0976 10.5022 56.2062 8.7872C57.2914 7.10723 59.7668 5.81799 62.0921 5.72193C62.1852 5.71793 62.2762 5.71643 62.3673 5.71643C63.8537 5.71643 65.0619 6.22772 65.7878 7.17177C68.702 10.9564 69.2908 15.8638 67.3247 19.9771ZM72.7293 25.4863C71.7732 24.3542 70.6891 23.0704 69.1832 21.6181C69.1282 21.5646 69.0717 21.512 69.0171 21.4605C68.7835 21.2419 68.5419 21.0153 68.5714 20.9037C68.5809 20.8667 68.6269 20.8381 68.707 20.8191L68.9176 20.7686C70.0942 20.4899 71.1424 20.2413 72.6782 20.2413C73.072 20.2413 73.4972 20.2578 73.965 20.2938C78.7543 20.6655 81.9036 22.9193 83.7847 24.2661C84.1799 24.5488 84.5211 24.7934 84.8032 24.965C86.2231 25.829 89.8897 27.7947 93.2871 27.3684C94.6704 27.1953 95.601 26.663 96.0102 26.2223C96.1533 26.0687 96.1158 25.858 96.0197 25.7275C95.9292 25.6024 95.7446 25.4938 95.5259 25.5989C95.4579 25.6309 95.3813 25.6824 95.2843 25.7475C94.869 26.0241 94.1001 26.5379 92.4456 26.5379C92.4331 26.5379 92.4206 26.5379 92.4081 26.5379C91.1709 26.5319 89.7106 26.3858 87.4233 25.3628C85.5457 24.5228 84.6016 23.8229 83.6881 23.146C82.8921 22.5556 82.0692 21.9458 80.6363 21.2519C79.7373 20.8171 77.9158 20.0957 76.8321 19.8726C73.1455 19.1126 71.7247 19.3618 69.9252 19.676C69.7025 19.715 69.4729 19.7555 69.2323 19.7945C69.1822 19.8025 69.1302 19.8216 69.0802 19.8396C68.9241 19.8956 68.8235 19.9206 68.754 19.799C68.7505 19.793 68.741 19.7675 68.7645 19.6895C69.0461 18.7564 72.4876 14.5265 76.9227 12.2817C79.0274 11.2156 82.1022 10.3526 84.2284 10.8304C88.4724 11.7804 88.3373 14.9548 88.2567 16.8518C88.2492 17.0309 88.2417 17.198 88.2392 17.3506C88.2357 17.5092 88.2858 17.6403 88.3828 17.7299C88.4814 17.8219 88.6229 17.8629 88.7785 17.8454C88.8841 17.8354 88.9877 17.8074 89.0877 17.7804C89.1247 17.7704 89.1613 17.7604 89.1983 17.7514C93.2686 16.7483 97.0598 17.4587 99.5993 19.7C101.474 21.3544 102.39 23.6678 102.111 26.0472C101.743 29.1865 99.8029 31.7394 96.6481 33.2363C94.2737 34.3624 91.4111 34.7802 88.3638 34.4435C85.0659 34.0793 81.6514 32.8201 78.4916 30.8014C75.7275 29.0364 74.3377 27.3914 72.7293 25.4863Z" fill="#0A1640"/>
<path d="M35.9001 5.29611C36.581 3.76523 39.0809 4.19098 39.152 6.11009C39.185 7.0041 38.25 7.694 37.4995 7.65097C36.3759 7.58694 35.4078 6.40225 35.9001 5.29611Z" fill="#0A1640"/>
<path d="M46.6865 40.7407C44.2686 40.9063 43.3106 43.9651 44.9395 45.6175C46.9647 47.6717 50.5998 46.0968 49.9544 43.2136C49.5877 41.5752 48.1003 40.6442 46.6865 40.7407Z" fill="#0A1640"/>
<path d="M70.9284 44.6018C69.6142 44.0704 67.9112 44.4937 67.0537 45.937C65.5443 48.4775 68.5105 51.1035 71.0735 49.7802C73.1352 48.7156 73.1752 45.5103 70.9284 44.6018Z" fill="#0A1640"/>
<path d="M62.0213 47.9663C58.7534 46.6185 54.7571 46.5014 53.641 46.7856C51.871 47.2283 52.0471 49.3856 52.6414 50.8464C52.7505 51.1266 52.877 51.3777 53.0096 51.5914C54.8707 54.5235 59.8836 54.8222 62.1664 52.4083C62.7452 51.795 63.1455 51.0125 63.274 50.045C63.3961 49.1599 63.0264 48.3825 62.0213 47.9663Z" fill="#0A1640"/>
<path d="M62.1681 52.4084C59.8853 54.8218 54.8724 54.5237 53.0113 51.5915C52.8787 51.3779 52.7516 51.1267 52.6426 50.8465C53.9673 49.6143 55.8309 48.988 57.7575 49.2946C59.7097 49.6053 61.2951 50.8005 62.1681 52.4084Z" fill="#FF8CDB"/>
<path d="M4.38059 31.8869C3.73722 31.21 3.15988 30.6547 2.91974 30.0733C2.68161 29.4965 3.367 28.9817 3.82076 29.3304C4.56369 29.9012 5.37816 31.19 5.60429 31.1044C5.82742 31.0199 5.72786 30.7152 5.73086 30.5031C5.74637 29.3224 5.65833 28.6015 5.80842 27.8305C5.92248 27.2452 6.87904 27.3273 6.9966 27.834C7.11017 28.3233 7.04863 28.8721 7.08465 31.4011C7.09666 32.2396 7.76954 31.6067 8.68407 31.0049C9.20337 30.6632 10.0043 30.4275 10.26 30.9909C10.4711 31.4556 10.0609 31.7383 9.64062 32.033C7.42584 33.5839 7.37882 33.1466 10.5522 34.0276C11.135 34.1892 11.8379 34.4389 11.6333 35.0282C11.4241 35.629 10.7448 35.3774 9.37096 35.0677C9.19036 35.0272 9.02127 34.9266 8.83966 34.9006C8.43893 34.8426 8.06421 34.635 7.64447 34.6915C7.57543 35.1858 8.00868 35.4489 8.17928 35.8342C8.45244 36.451 8.96923 36.7397 8.82565 37.4426C8.76961 37.7162 8.49045 37.8888 8.23681 37.7848C6.99859 37.2775 6.71643 35.2233 6.18863 36.364C5.50673 37.8388 5.40318 38.205 4.99745 38.7568C4.61423 39.2776 3.8803 38.936 4.00087 38.3071C4.20149 37.2635 5.23609 35.496 5.03397 35.2999C4.82335 35.0952 2.96378 36.7562 2.24136 36.7807C1.71906 36.7982 1.48442 36.345 1.73057 35.9592C2.10478 35.3724 2.43297 35.2593 3.90182 34.2342C4.01588 34.1547 4.18248 34.0756 4.11995 33.8995C4.06391 33.7419 3.8883 33.7299 3.74572 33.7089C3.0233 33.6029 1.39186 33.3883 1.31732 33.3667C0.610911 33.1666 0.709478 32.03 1.51494 32.1135C4.31506 32.4047 5.05698 32.7664 4.36458 31.9034C4.36958 31.8974 4.37509 31.8919 4.38059 31.8869Z" fill="#E38921"/>
<path d="M14.8493 9.7697C14.1939 9.03928 13.2684 8.14126 13.8632 7.6855C14.2775 7.36782 14.5812 7.74854 14.9614 8.18629C15.1795 8.43694 15.7188 9.21088 15.8654 9.16036C16.0655 9.09082 15.942 8.98575 16.016 7.21523C16.038 6.69693 16.0825 6.10209 16.5953 6.17563C17.2952 6.27669 17.1071 6.52733 17.0661 9.43651C17.0566 10.1204 17.6199 9.62012 18.3799 9.15035C18.8111 8.88369 19.47 8.7101 19.6656 9.17536C19.8272 9.56009 19.484 9.78171 19.1363 10.0108C17.2942 11.2245 17.2657 10.8668 19.8337 11.6588C20.3055 11.8044 20.8728 12.024 20.6922 12.4998C20.38 13.3213 18.1812 12.055 17.4468 12.1331C17.3793 12.5343 17.7265 12.7594 17.8566 13.0771C18.0652 13.5869 18.4799 13.833 18.3468 14.4039C18.2078 14.9987 17.5289 14.5955 17.1792 14.0812C16.2786 12.7569 16.5823 12.819 15.5392 14.8526C15.3301 15.2599 15.0339 15.7431 14.6297 15.5365C14.1944 15.3139 14.4171 14.8016 14.6282 14.3103C15.5657 12.1291 15.8769 12.1236 13.5866 13.5034C12.5755 14.1127 11.9446 13.2282 13.2549 12.4117C15.2015 11.199 15.0599 11.3676 12.7636 10.9839C12.5475 10.9479 11.8126 10.9384 11.9637 10.255C12.0192 10.0033 12.2153 9.84975 12.5075 9.88827C14.7823 10.1899 15.3811 10.5041 14.8363 9.78271C14.8398 9.77821 14.8443 9.77421 14.8493 9.7697Z" fill="#E38921"/>
<path d="M11.6237 59.2362C10.7572 59.1557 10.0113 59.1202 9.486 58.859C8.9647 58.5999 9.1303 57.8184 9.6626 57.7849C10.5336 57.7299 11.8964 58.1351 12.0025 57.936C12.107 57.7399 11.8504 57.5873 11.7223 57.4367C11.0094 56.5987 10.5051 56.1465 10.1379 55.5131C9.85872 55.0323 10.5801 54.5035 10.9739 54.7867C11.3531 55.0598 11.6438 55.4796 13.2237 57.2361C13.746 57.8169 13.8305 56.9604 14.1032 55.9769C14.2578 55.4185 14.6755 54.7617 15.2003 55.0003C15.6345 55.1974 15.5185 55.6497 15.4044 56.1114C14.8016 58.5579 14.4999 58.2802 17.2675 56.9519C17.7758 56.7083 18.4222 56.4521 18.6398 56.991C18.8674 57.5558 18.18 57.8084 17.0764 58.4063C16.9248 58.4883 16.7442 58.5218 16.6011 58.6149C16.2844 58.82 15.8937 58.9041 15.634 59.2012C15.8887 59.5905 16.3545 59.5094 16.7102 59.675C17.28 59.9407 17.8198 59.8261 18.1505 60.4074C18.2791 60.6335 18.189 60.9262 17.9474 61.0088C16.7682 61.412 15.3094 60.1433 15.6386 61.2679C16.1458 62.9979 16.6176 64.044 15.9127 64.2416C15.3749 64.3927 15.1643 63.7904 14.9602 63.2145C14.0516 60.6521 14.3148 60.3979 13.4608 63.3456C13.0971 64.6018 11.8614 64.4222 12.3356 62.6877C13.0275 60.1578 13.0365 60.4134 10.8158 61.8718C10.6712 61.9663 10.5356 62.0794 10.381 62.1524C9.76316 62.4451 9.1338 61.5876 9.75115 61.1519C11.8864 59.6445 12.6438 59.4399 11.6222 59.2568C11.6222 59.2508 11.6232 59.2438 11.6237 59.2362Z" fill="#E38921"/>
</svg>
