<svg width="390" height="475" viewBox="0 0 390 475" fill="none" xmlns="http://www.w3.org/2000/svg">
    <path d="M-71 333.569C-71 386.253 -46.7176 431.462 -33.4283 445.827C-29.0109 450.6 -23.8945 454.328 -18.5591 457.761C-15.345 459.829 -12.0522 461.789 -8.78409 463.807C-8.17621 466.581 -7.46747 469.303 -6.66275 471.974C13.7363 539.65 95.7483 574 153.638 574C173.702 574 189.135 571.13 203.928 571.13C215.876 571.13 227.677 572.308 239.642 572.308C287.353 572.308 336.936 543.912 372.803 505.458C377.666 500.242 382.278 494.845 386.597 489.305C410.109 459.162 425 424.891 425 393.866C425 367.255 412.488 343.42 402.512 319.427C303.177 287.483 194.402 294.951 99.4792 341.881C86.249 292.983 41.8308 259 -8.87512 259C-27.8837 259 -46.0014 263.79 -61.9313 272.333C-69.329 289.152 -71 327.195 -71 333.569Z" fill="#8DD44F"/>
    <path d="M304.233 353.459C303.656 353.482 300.925 356.855 300.243 357.312C296.222 360.005 293.096 358.811 288.837 359.016C285.815 383.049 320.599 381.419 335.726 381.893C342.588 382.108 372.625 382.85 371.007 369.643C371.003 369.613 368.701 351.047 304.233 353.459Z" fill="#FEDCC0"/>
    <path d="M300.774 342.682C300.691 345.056 301.583 347.771 302.242 349.973C303.867 355.405 306.599 360.577 310.567 364.666C316.764 371.053 326.427 373.496 334.989 374.671C343.362 375.82 352.028 375.36 360.199 373.176C363.948 372.174 367.739 371.04 371.15 369.151C374.292 367.41 377.231 364.868 378.173 361.273C379.496 356.224 379.366 349.88 376.795 345.238C376.534 344.768 375.893 344.687 375.53 345.083C374.225 346.502 371.072 349.3 366.514 349.27C366.031 349.267 365.657 348.838 365.739 348.361C365.959 347.09 366.5 344.764 367.623 343.775C368.034 343.412 368.024 342.772 367.552 342.493C365.254 341.132 359.632 339.02 351.619 344.093C351.11 344.415 350.442 344.064 350.426 343.462C350.387 341.89 350.575 339.313 352.012 337.709C352.475 337.192 352.099 336.373 351.407 336.408C349.001 336.534 345.702 336.972 343.81 338.355C343.318 338.714 342.611 338.448 342.553 337.842C342.428 336.545 342.627 334.659 344.414 333.355C344.936 332.973 344.794 332.159 344.171 331.982C340.283 330.877 330.914 329.182 326.268 336.695C325.91 337.275 325.029 337.145 324.859 336.484C324.533 335.217 324.24 333.554 324.544 332.406C324.682 331.886 324.302 331.381 323.765 331.406C321.732 331.501 317.926 332.37 316.586 337.35C316.428 337.938 315.707 338.14 315.277 337.708C314.288 336.714 312.96 335.053 313.063 333.377C313.105 332.706 312.375 332.294 311.827 332.683C310.305 333.765 308.451 336.045 308.869 340.642C308.909 341.081 308.559 341.456 308.118 341.473C306.766 341.523 304.126 341.331 302.857 339.269C301.851 337.634 300.915 341.307 300.83 341.991C300.8 342.218 300.783 342.448 300.774 342.682Z" fill="#543C23"/>
    <path d="M285.002 359.627C285.066 361.344 286.858 362.671 289.005 362.591C291.151 362.51 292.84 361.053 292.775 359.336C292.71 357.619 290.918 356.292 288.772 356.372C286.626 356.452 284.938 357.91 285.002 359.627Z" fill="#5B462B"/>
    <path d="M299.888 362.184C299.92 363.042 300.642 363.713 301.501 363.681C302.36 363.649 303.03 362.926 302.998 362.068C302.966 361.209 302.243 360.539 301.385 360.571C300.526 360.603 299.856 361.325 299.888 362.184Z" fill="#5B462B"/>
    <path d="M310.706 380.851C310.795 383.213 311.736 385.094 312.81 385.054C313.883 385.014 314.681 383.067 314.593 380.706C314.505 378.344 313.563 376.463 312.49 376.502C311.417 376.543 310.618 378.49 310.706 380.851Z" fill="#FEDCC0"/>
    <path d="M316.926 380.618C317.014 382.98 317.956 384.861 319.029 384.821C320.103 384.781 320.901 382.834 320.813 380.473C320.724 378.112 319.783 376.23 318.71 376.271C317.635 376.31 316.837 378.257 316.926 380.618Z" fill="#FEDCC0"/>
    <path d="M341.082 381.272C341.17 383.633 342.112 385.514 343.185 385.474C344.259 385.434 345.057 383.487 344.969 381.126C344.881 378.764 343.939 376.883 342.866 376.923C341.792 376.963 340.994 378.911 341.082 381.272Z" fill="#FEDCC0"/>
    <path d="M347.301 381.039C347.39 383.401 348.331 385.282 349.405 385.242C350.478 385.202 351.276 383.256 351.188 380.894C351.099 378.532 350.158 376.651 349.084 376.691C348.011 376.731 347.213 378.677 347.301 381.039Z" fill="#FEDCC0"/>
    <path d="M309.296 350.382C309.232 352.031 309.882 353.915 310.362 355.443C311.547 359.214 313.545 362.802 316.45 365.636C320.989 370.063 328.078 371.745 334.359 372.549C340.503 373.334 346.864 373.002 352.865 371.473C355.617 370.771 358.401 369.978 360.907 368.661C363.217 367.447 365.377 365.677 366.074 363.179C367.053 359.671 366.967 355.265 365.086 352.045C364.896 351.719 364.425 351.663 364.158 351.939C363.198 352.927 360.88 354.875 357.535 354.86C357.18 354.859 356.906 354.561 356.967 354.23C357.13 353.347 357.53 351.731 358.356 351.042C358.658 350.789 358.651 350.345 358.306 350.152C356.621 349.209 352.498 347.752 346.61 351.287C346.236 351.511 345.746 351.268 345.736 350.85C345.71 349.758 345.851 347.968 346.909 346.852C347.249 346.492 346.974 345.923 346.466 345.95C344.7 346.041 342.278 346.35 340.887 347.313C340.526 347.563 340.008 347.38 339.966 346.959C339.876 346.058 340.025 344.748 341.338 343.839C341.723 343.574 341.618 343.008 341.162 342.887C338.31 342.125 331.436 340.961 328.016 346.187C327.752 346.59 327.106 346.5 326.982 346.042C326.745 345.163 326.532 344.008 326.757 343.211C326.859 342.849 326.581 342.499 326.187 342.517C324.694 342.586 321.9 343.195 320.909 346.656C320.792 347.065 320.262 347.206 319.947 346.906C319.223 346.217 318.251 345.066 318.329 343.901C318.361 343.436 317.826 343.15 317.424 343.422C316.305 344.175 314.94 345.762 315.241 348.953C315.269 349.258 315.012 349.519 314.688 349.532C313.696 349.569 311.759 349.439 310.831 348.009C310.095 346.876 309.402 349.428 309.338 349.902C309.316 350.059 309.303 350.219 309.296 350.382Z" fill="#5B462B"/>
    <path d="M399.153 366.558C392.912 360.24 384.07 371.316 379.646 379.163C381.531 370.511 381.961 359 374 359C366.042 359 366.469 370.511 368.354 379.163C363.933 371.316 355.088 360.24 348.847 366.558C340.541 374.965 362.675 388.038 367.208 389.022C368.796 389.365 369.938 389.049 370.504 388.48C370.725 388.256 370.902 387.943 371.022 387.552C371.117 387.731 371.205 387.892 371.29 388.026C372.174 389.404 373.202 390 374 390C374.798 390 375.829 389.404 376.71 388.026C376.795 387.892 376.883 387.731 376.978 387.552C377.098 387.943 377.278 388.256 377.496 388.48C378.062 389.049 379.204 389.365 380.792 389.022C385.325 388.038 407.459 374.965 399.153 366.558Z" fill="#56B9AA"/>
    <path d="M375 310C375 317.178 340.975 323 299.001 323C257.026 323 223 317.178 223 310C223 302.819 257.026 297 299.001 297C340.975 297 375 302.819 375 310Z" fill="#6FA93D"/>
    <path d="M145 403C145 410.178 110.975 416 69.0006 416C27.0265 416 -7 410.178 -7 403C-7 395.819 27.0265 390 69.0006 390C110.975 390 145 395.819 145 403Z" fill="#80BF49"/>
    <path d="M203.486 386.351C201.164 384.815 200.524 381.69 202.056 379.367C203.591 377.045 206.717 376.405 209.039 377.938C211.361 379.47 212.001 382.595 210.469 384.921C208.937 387.243 205.808 387.883 203.486 386.351ZM230.113 386.834C229.947 386.869 230.446 384.249 227.935 381.917C224.662 378.843 217.964 378.28 213.485 379.639C217.174 377.08 220.686 372.461 220.587 368.194C220.465 365.002 218.485 363.738 218.447 363.549C218.383 363.648 217.689 363.092 216.092 363.009C209.436 362.657 205.239 373.114 205.578 374.899C204.087 369.931 199.343 364.394 194.923 366.946L194.846 366.978C191.679 370.126 193.749 374.889 196.922 378.072C190.687 378.734 183.9 382.486 185.15 388.682C188.717 394.856 198.035 392.153 203.326 387.048C201.755 391.251 202.03 397.991 205.722 400.425C207.107 401.34 208.297 401.251 208.415 401.327C208.479 401.225 210.373 401.055 211.72 399.015C213.681 396.043 213.146 391.312 211.579 387.825C216.051 391.472 225.276 393.625 229.064 388.798C229.883 387.755 230.043 386.942 230.113 386.834Z" fill="#F2E43B"/>
    <path d="M209.039 377.938C206.717 376.405 203.591 377.045 202.056 379.367C200.524 381.69 201.163 384.815 203.486 386.351C205.808 387.883 208.937 387.243 210.469 384.921C212.001 382.595 211.361 379.47 209.039 377.938Z" fill="#F681C6"/>
    <path d="M248.898 436.083C245.395 436.083 242.557 433.448 242.557 430.198C242.557 426.944 245.395 424.309 248.898 424.309C252.397 424.309 255.238 426.944 255.238 430.198C255.238 433.448 252.397 436.083 248.898 436.083ZM260.791 425.243C262.636 422.994 263.974 420.326 264.597 417.485C266.552 408.631 259.543 403.491 252.173 409.792C248.92 412.575 246.662 416.478 245.785 420.662C242.673 416.379 236.684 414.149 231.608 415.873C222.862 418.835 224.135 430.521 236.912 432.673C235.066 434.919 233.732 437.587 233.105 440.431C231.154 449.285 238.159 454.422 245.529 448.124C248.786 445.341 251.044 441.435 251.917 437.251C255.033 441.534 261.018 443.764 266.098 442.043C274.958 439.039 273.401 427.351 260.791 425.243Z" fill="#F2561B"/>
    <path d="M248.897 424.309C245.395 424.309 242.557 426.944 242.557 430.198C242.557 433.448 245.395 436.083 248.897 436.083C252.397 436.083 255.237 433.448 255.237 430.198C255.237 426.944 252.397 424.309 248.897 424.309Z" fill="#EFEF25"/>
    <path d="M191.511 441.144C179.717 429.319 163.019 450.048 154.663 464.731C158.226 448.541 159.033 427 144 427C128.965 427 129.774 448.541 133.336 464.731C124.982 450.048 108.28 429.319 96.4899 441.144C80.7991 456.873 122.607 481.331 131.173 483.17C134.167 483.816 136.328 483.224 137.395 482.157C137.81 481.737 138.149 481.155 138.374 480.421C138.551 480.758 138.722 481.062 138.883 481.311C140.547 483.885 142.491 485 144 485C145.509 485 147.452 483.885 149.116 481.311C149.277 481.062 149.448 480.758 149.625 480.421C149.851 481.155 150.189 481.737 150.604 482.157C151.671 483.224 153.832 483.816 156.826 483.17C165.391 481.331 207.199 456.873 191.511 441.144Z" fill="#56B9AA"/>
    <path d="M229.343 222.372C246.14 218.365 261.64 225.12 266.513 236.133C286.784 202.231 351.891 220.833 341.826 255.299C361.351 255.989 374.846 271.983 370.926 286.979C367.315 301.081 352.851 309.592 338.451 307.784C298.371 302.753 257.684 307.401 219.752 321.34C206.122 326.351 190.128 321.321 183.458 308.39C174.677 292.014 190.671 269.822 213.435 269.799C193.483 258.673 199.657 229.457 229.343 222.372Z" fill="#56B9AA"/>
    <path d="M314.813 304.796L276.402 309.247L265.682 124.852L283.464 122.79L314.813 304.796Z" fill="#954638"/>
    <path d="M314.938 0.19725C332.407 -1.82707 348.75 11.9299 354.451 32.067C356.343 31.2936 358.331 30.7478 360.418 30.5052C375.685 28.7386 389.83 42.7117 392.013 61.7229C392.765 68.2697 391.97 74.5398 390.019 80.0479C403.686 80.5028 415.738 93.5168 417.721 110.788C419.673 127.786 411.188 142.98 398.332 146.862C392.002 159.796 381.016 168.902 367.686 170.445C357.555 171.62 347.751 168.235 339.635 161.654C333.498 176.749 321.488 187.591 306.653 189.312C290.145 191.226 274.488 181.336 265.284 165.217C266.575 186.044 254.666 204.024 237.768 205.984C221.412 207.879 206.19 194.096 202.089 174.554C200.78 184.422 194.392 192.208 185.9 193.194C175.433 194.407 165.735 184.823 164.238 171.794C164.056 170.206 164.009 168.644 164.077 167.12C162.113 168.132 159.986 168.807 157.73 169.069C145.408 170.498 133.991 159.22 132.23 143.878C130.468 128.533 139.029 114.939 151.351 113.51C154.987 113.089 158.536 113.798 161.79 115.367C159.742 88.6342 174.907 65.381 196.536 62.8715C209.019 61.4271 220.986 67.2007 229.657 77.4322C227.847 55.6916 240.137 36.7221 257.699 34.6864C267.444 33.5567 276.78 37.9011 283.72 45.6534C282.57 22.37 295.991 2.39215 314.938 0.19725Z" fill="#45BD68"/>
    <path d="M181.711 51.2903C179.383 60.4301 181.589 70.1158 187.694 77.3715C193.783 84.612 202.916 88.4218 212.274 87.6788C214.61 78.5315 212.408 68.8383 206.296 61.575C200.2 54.3269 191.068 50.5246 181.711 51.2903ZM214.403 90.2187L213.495 90.3172C202.91 91.5 192.485 87.3225 185.606 79.1456C178.709 70.946 176.361 59.9146 179.326 49.63L179.58 48.7505L180.486 48.6482C191.069 47.4464 201.499 51.6164 208.384 59.8008C215.286 68.0042 217.632 79.0471 214.658 89.3355L214.403 90.2187Z" fill="#7BCF8B"/>
    <path d="M213.892 88.4901L212.844 89.3772L180.106 50.464L181.154 49.577L213.892 88.4901Z" fill="#7BCF8B"/>
    <path d="M191.848 63.334L179.246 58.7546L179.714 57.4582L190.072 61.2224L188.102 50.3351L189.451 50.0849L191.848 63.334Z" fill="#7BCF8B"/>
    <path d="M200.515 73.6337L180.024 66.2453L180.487 64.9488L198.75 71.5374L195.321 52.4276L196.669 52.1774L200.515 73.6337Z" fill="#7BCF8B"/>
    <path d="M209.22 84.0018L184.789 75.1691L185.252 73.8764L207.451 81.9016L203.271 58.5727L204.619 58.3301L209.22 84.0018Z" fill="#7BCF8B"/>
    <path d="M336.594 23.8825C327.697 22.4837 318.694 25.4785 312.355 31.9949C306.031 38.4925 303.241 47.5982 304.799 56.5067C313.702 57.9131 322.711 54.9221 329.057 48.398C335.388 41.8929 338.17 32.7872 336.594 23.8825ZM302.579 58.7774L302.4 57.9169C300.316 47.8711 303.337 37.4917 310.48 30.1526C317.643 22.7908 327.912 19.5382 337.953 21.445L338.812 21.608L338.992 22.4686C341.095 32.5105 338.082 42.8937 330.932 50.2404C323.764 57.606 313.486 60.8585 303.439 58.9442L302.579 58.7774Z" fill="#7BCF8B"/>
    <path d="M304.175 58.1329L303.235 57.208L337.23 22.2714L338.171 23.1926L304.175 58.1329Z" fill="#7BCF8B"/>
    <path d="M326.072 34.7016L329.278 22.1994L330.551 22.5292L327.916 32.8062L338.083 29.9251L338.441 31.1989L326.072 34.7016Z" fill="#7BCF8B"/>
    <path d="M317.072 43.9513L322.23 23.6248L323.503 23.9508L318.904 42.0673L336.751 37.0406L337.109 38.3106L317.072 43.9513Z" fill="#7BCF8B"/>
    <path d="M308.012 53.2427L314.183 29.0078L315.456 29.3338L309.85 51.3549L331.634 45.225L331.987 46.495L308.012 53.2427Z" fill="#7BCF8B"/>
    <path d="M256.131 26.8204C250.245 31.8433 247.143 39.3985 247.807 47.1811C248.47 54.9486 252.796 61.8669 259.429 65.8359C265.324 60.8131 268.431 53.2579 267.766 45.4639C267.103 37.6888 262.773 30.778 256.131 26.8204ZM259.656 68.5577L258.998 68.1938C251.337 63.9291 246.316 56.1465 245.567 47.3745C244.817 38.5797 248.461 30.0541 255.315 24.5687L255.902 24.0986L256.559 24.4625C264.229 28.7121 269.257 36.4909 270.006 45.2705C270.757 54.0729 267.108 62.6024 260.244 68.0877L259.656 68.5577Z" fill="#7BCF8B"/>
    <path d="M260.131 67.1513L259.007 67.2499L255.445 25.5012L256.569 25.4027L260.131 67.1513Z" fill="#7BCF8B"/>
    <path d="M257.237 39.7435L250.946 30.653L251.873 30.0047L257.044 37.4804L260.873 29.2315L261.896 29.7091L257.237 39.7435Z" fill="#7BCF8B"/>
    <path d="M258.18 50.7976L247.924 36.0512L248.848 35.4029L257.988 48.5459L264.728 34.0838L265.75 34.5614L258.18 50.7976Z" fill="#7BCF8B"/>
    <path d="M259.118 61.9124L246.9 44.319L247.823 43.6707L258.925 59.6568L267.155 42.0028L268.175 42.4842L259.118 61.9124Z" fill="#7BCF8B"/>
    <path d="M211.314 118.275C217.871 119.279 224.494 117.047 229.145 112.228C233.785 107.425 235.814 100.708 234.64 94.1537C228.078 93.1415 221.45 95.3705 216.795 100.192C212.151 105.003 210.127 111.72 211.314 118.275ZM236.269 92.4705L236.403 93.1035C237.967 100.5 235.772 108.153 230.531 113.582C225.277 119.022 217.721 121.452 210.32 120.072L209.687 119.958L209.551 119.321C207.974 111.933 210.163 104.275 215.409 98.8429C220.667 93.3955 228.229 90.9693 235.635 92.353L236.269 92.4705Z" fill="#7BCF8B"/>
    <path d="M235.095 92.9519L235.791 93.6305L210.85 119.465L210.154 118.787L235.095 92.9519Z" fill="#7BCF8B"/>
    <path d="M219.033 110.276L216.708 119.495L215.769 119.253L217.681 111.675L210.2 113.828L209.933 112.892L219.033 110.276Z" fill="#7BCF8B"/>
    <path d="M225.636 103.437L221.895 118.423L220.956 118.184L224.292 104.829L211.161 108.582L210.893 107.649L225.636 103.437Z" fill="#7BCF8B"/>
    <path d="M232.283 96.5646L227.808 114.435L226.869 114.196L230.935 97.9597L214.906 102.539L214.642 101.603L232.283 96.5646Z" fill="#7BCF8B"/>
    <path d="M282.398 121.524C285.77 117.998 287.236 113.062 286.325 108.225C285.417 103.396 282.266 99.3358 277.855 97.2736C274.477 100.799 273.008 105.739 273.92 110.58C274.829 115.413 277.983 119.469 282.398 121.524ZM277.54 95.5828L277.975 95.7686C283.05 97.9484 286.692 102.509 287.718 107.96C288.746 113.426 287.002 119.007 283.052 122.885L282.715 123.218L282.279 123.032C277.2 120.857 273.555 116.304 272.527 110.845C271.498 105.375 273.245 99.7907 277.201 95.9127L277.54 95.5828Z" fill="#7BCF8B"/>
    <path d="M277.331 96.4926L278.029 96.3599L282.912 122.308L282.213 122.441L277.331 96.4926Z" fill="#7BCF8B"/>
    <path d="M280.885 113.495L285.406 118.79L284.866 119.257L281.149 114.901L279.272 120.318L278.6 120.083L280.885 113.495Z" fill="#7BCF8B"/>
    <path d="M279.592 106.622L286.959 115.212L286.42 115.678L279.855 108.021L276.547 117.521L275.876 117.289L279.592 106.622Z" fill="#7BCF8B"/>
    <path d="M278.299 99.7148L287.076 109.962L286.538 110.428L278.563 101.117L274.522 112.71L273.852 112.475L278.299 99.7148Z" fill="#7BCF8B"/>
    <path d="M357.05 106.311C356.887 112.403 359.658 118.188 364.538 121.88C369.406 125.565 375.702 126.653 381.492 124.837C381.659 118.737 378.89 112.949 374.005 109.253C369.132 105.564 362.837 104.484 357.05 106.311ZM383.195 126.13L382.637 126.327C376.138 128.59 368.975 127.46 363.476 123.298C357.962 119.128 354.91 112.513 355.312 105.61L355.346 105.018L355.903 104.825C362.398 102.543 369.563 103.669 375.067 107.835C380.585 112.009 383.637 118.627 383.229 125.538L383.195 126.13Z" fill="#7BCF8B"/>
    <path d="M382.627 125.113L382.094 125.826L355.922 106.023L356.456 105.31L382.627 125.113Z" fill="#7BCF8B"/>
    <path d="M365.153 112.441L356.562 111.368L356.671 110.485L363.734 111.364L360.94 104.791L361.755 104.438L365.153 112.441Z" fill="#7BCF8B"/>
    <path d="M372.082 117.684L358.12 115.978L358.227 115.094L370.671 116.615L365.786 105.068L366.601 104.719L372.082 117.684Z" fill="#7BCF8B"/>
    <path d="M379.044 122.96L362.394 120.913L362.501 120.03L377.63 121.891L371.671 107.797L372.485 107.448L379.044 122.96Z" fill="#7BCF8B"/>
    <path d="M363.708 71.7799C371.052 71.3629 377.728 67.4129 381.674 61.1163C385.611 54.8349 386.281 47.0825 383.512 40.24C376.162 40.6532 369.481 44.5995 365.53 50.9037C361.589 57.189 360.925 64.9412 363.708 71.7799ZM384.896 38.0413L385.186 38.6972C388.569 46.3585 387.933 55.1684 383.486 62.2611C379.027 69.3766 371.384 73.7512 363.04 73.9597L362.327 73.9786L362.035 73.3229C358.638 65.6691 359.267 56.8591 363.718 49.7551C368.181 42.6358 375.83 38.2612 384.18 38.0565L384.896 38.0413Z" fill="#7BCF8B"/>
    <path d="M383.732 38.8337L384.641 39.4061L363.476 73.1789L362.566 72.6027L383.732 38.8337Z" fill="#7BCF8B"/>
    <path d="M370.258 61.3249L369.838 71.8597L368.765 71.818L369.111 63.1558L361.485 67.2121L360.982 66.2568L370.258 61.3249Z" fill="#7BCF8B"/>
    <path d="M375.861 52.386L375.221 69.5055L374.149 69.4638L374.721 54.2056L361.331 61.3021L360.828 60.3468L375.861 52.386Z" fill="#7BCF8B"/>
    <path d="M381.505 43.4017L380.726 63.8154L379.654 63.7775L380.361 45.225L364.016 53.8834L363.516 52.9281L381.505 43.4017Z" fill="#7BCF8B"/>
    <path d="M236.198 133.177C228.784 139.344 224.801 148.712 225.508 158.424C226.214 168.109 231.498 176.802 239.702 181.851C247.126 175.684 251.116 166.316 250.409 156.593C249.702 146.896 244.414 138.211 236.198 133.177ZM239.943 185.248L239.129 184.782C229.647 179.349 223.51 169.573 222.714 158.629C221.915 147.654 226.589 137.089 235.217 130.36L235.955 129.784L236.768 130.246C246.261 135.66 252.405 145.433 253.203 156.388C254.002 167.37 249.322 177.943 240.682 184.672L239.943 185.248Z" fill="#7BCF8B"/>
    <path d="M240.556 183.504L239.154 183.607L235.363 131.524L236.765 131.422L240.556 183.504Z" fill="#7BCF8B"/>
    <path d="M237.376 149.299L229.677 137.87L230.842 137.081L237.17 146.475L242.07 136.255L243.337 136.869L237.376 149.299Z" fill="#7BCF8B"/>
    <path d="M238.379 163.09L225.827 144.553L226.988 143.761L238.175 160.281L246.798 142.362L248.065 142.976L238.379 163.09Z" fill="#7BCF8B"/>
    <path d="M239.375 176.957L224.422 154.838L225.583 154.045L239.17 174.141L249.701 152.275L250.964 152.889L239.375 176.957Z" fill="#7BCF8B"/>
    <path d="M183.688 126.937C177.788 126.611 172.107 129.162 168.396 133.836C164.694 138.499 163.47 144.629 165.073 150.342C170.978 150.671 176.663 148.12 180.378 143.442C184.084 138.776 185.302 132.646 183.688 126.937ZM163.773 151.972L163.599 151.422C161.579 145.004 162.87 138.025 167.051 132.76C171.244 127.479 177.735 124.674 184.415 125.254L184.987 125.303L185.161 125.853C187.193 132.271 185.908 139.246 181.723 144.519C177.527 149.803 171.03 152.609 164.345 152.025L163.773 151.972Z" fill="#7BCF8B"/>
    <path d="M164.772 151.445L164.097 150.903L183.998 125.841L184.673 126.383L164.772 151.445Z" fill="#7BCF8B"/>
    <path d="M177.529 134.697L178.801 126.319L179.654 126.452L178.608 133.336L185.057 130.781L185.375 131.588L177.529 134.697Z" fill="#7BCF8B"/>
    <path d="M172.261 141.331L174.293 127.722L175.146 127.851L173.333 139.981L184.655 135.516L184.972 136.323L172.261 141.331Z" fill="#7BCF8B"/>
    <path d="M166.957 147.999L169.393 131.766L170.246 131.895L168.032 146.646L181.852 141.198L182.166 142.006L166.957 147.999Z" fill="#7BCF8B"/>
    <path d="M314.507 79.9153C315.923 84.9533 319.666 88.9868 324.607 90.7609C329.535 92.5312 334.974 91.8034 339.258 88.8276C337.845 83.7857 334.101 79.7484 329.156 77.9743C324.222 76.2002 318.786 76.9319 314.507 79.9153ZM340.984 89.4493L340.577 89.7526C335.824 93.2819 329.664 94.1916 324.096 92.1938C318.514 90.1885 314.33 85.5523 312.903 79.7864L312.781 79.2936L313.187 78.9903C317.933 75.4534 324.094 74.536 329.666 76.5376C335.252 78.5429 339.438 83.1868 340.862 88.9565L340.984 89.4493Z" fill="#7BCF8B"/>
    <path d="M340.26 88.763L340.004 89.4833L313.509 79.9682L313.765 79.248L340.26 88.763Z" fill="#7BCF8B"/>
    <path d="M322.71 82.8606L315.393 84.1874L315.259 83.433L321.273 82.3451L317.31 77.6709L317.888 77.1744L322.71 82.8606Z" fill="#7BCF8B"/>
    <path d="M329.724 85.3778L317.843 87.5651L317.706 86.8145L328.296 84.866L321.354 76.655L321.932 76.1584L329.724 85.3778Z" fill="#7BCF8B"/>
    <path d="M336.775 87.9177L322.603 90.5144L322.466 89.7638L335.343 87.4059L326.872 77.3791L327.452 76.8863L336.775 87.9177Z" fill="#7BCF8B"/>
    <path d="M331.201 122.229C323.816 123.021 317.283 127.343 313.62 133.897C309.966 140.432 309.681 148.283 312.819 155.042C320.21 154.254 326.75 149.932 330.416 143.374C334.074 136.831 334.353 128.984 331.201 122.229ZM311.534 157.332L311.208 156.684C307.41 149.129 307.607 140.213 311.735 132.832C315.873 125.428 323.361 120.629 331.765 119.996L332.484 119.939L332.811 120.587C336.623 128.131 336.433 137.051 332.301 144.439C328.16 151.847 320.665 156.646 312.254 157.279L311.534 157.332Z" fill="#7BCF8B"/>
    <path d="M312.667 156.471L311.722 155.941L331.365 120.807L332.311 121.338L312.667 156.471Z" fill="#7BCF8B"/>
    <path d="M325.122 133.105L325.015 122.456L326.1 122.449L326.188 131.198L333.673 126.721L334.229 127.657L325.122 133.105Z" fill="#7BCF8B"/>
    <path d="M319.922 142.408L319.705 125.11L320.788 125.095L320.981 140.512L334.127 132.673L334.683 133.609L319.922 142.408Z" fill="#7BCF8B"/>
    <path d="M314.684 151.756L314.44 131.126L315.524 131.111L315.745 149.856L331.792 140.292L332.345 141.228L314.684 151.756Z" fill="#7BCF8B"/>
    <path d="M73.2167 233.259C73.4349 232.791 73.6445 232.327 73.8455 231.876C76.4751 225.973 80.1175 220.521 84.5659 215.827C86.4474 213.842 88.5478 211.945 91.1247 211.022C95.4753 209.465 100.468 211.026 104.073 213.912C107.679 216.798 110.15 220.833 112.421 224.85C113.908 227.479 115.401 230.211 117.759 232.103C119.472 233.479 121.539 234.325 123.456 235.403C126.495 237.112 129.549 239.856 131.717 242.916C133.91 246.011 134.432 252.356 136.734 254.741C138.94 257.028 145.529 257.361 148.666 258.853C153.295 261.053 157.494 264.164 160.901 267.992C162.279 269.54 163.57 271.289 163.909 273.332C164.183 274.989 163.8 276.683 163.297 278.285C160.597 286.886 154.2 294.262 146.057 298.162C154.3 300.174 158.144 310.642 155.591 318.718C153.038 326.795 145.991 332.623 138.696 336.95C133.538 340.009 128.08 342.561 122.425 344.569C112.664 348.033 103.995 345.558 107.187 358.255C109.291 366.624 114.177 374.64 112.898 383.564C111.847 390.89 106.542 397.108 100.125 400.818C93.7083 404.529 86.2637 406.05 78.9036 406.957C67.7753 408.329 54.3642 407.344 48.4809 397.82C43.6538 390.004 46.1368 380.007 46.2293 370.827C46.2467 369.145 46.103 367.284 44.903 366.103C43.922 365.138 42.4651 364.866 41.0955 364.72C33.3047 363.892 25.4748 365.663 17.6402 365.631C8.86381 365.596 0.107409 363.245 -7.50227 358.883C-14.694 354.759 -21.0824 348.461 -23.1935 340.456C-25.1002 333.227 -23.3312 325.556 -20.952 318.467C-19.344 313.676 -17.3647 308.836 -13.7875 305.26C-10.211 301.684 -4.67707 299.64 0.0535202 301.442C3.96684 302.931 7.56803 306.877 11.5339 305.532C13.5711 304.842 14.8962 302.893 15.8286 300.959C20.1858 291.919 19.0684 281.194 16.365 271.533C13.6616 261.872 9.47408 252.596 7.85019 242.697C6.56572 234.87 6.56638 221.738 13.4952 216.141C19.8404 211.016 31.8952 209.497 39.3957 211.91C47.2323 214.432 53.6407 220.99 55.9687 228.871C57.4975 234.047 58.7486 241.096 64.1328 241.601C68.5439 242.015 71.2587 237.451 73.2167 233.259Z" fill="#F0AD20"/>
    <path d="M57.5991 335.214C72.7753 335.214 85.0782 322.938 85.0782 307.794C85.0782 292.65 72.7753 280.373 57.5991 280.373C42.4228 280.373 30.12 292.65 30.12 307.794C30.12 322.938 42.4228 335.214 57.5991 335.214Z" fill="#F9D179"/>
    <path d="M149.141 299.409C149.141 299.409 141.513 293.286 100.564 299.461C100.564 299.461 93.5819 300.477 93.1693 306.436" fill="#F0AD20"/>
    <path d="M149.141 299.409C148.553 299.165 147.936 299.049 147.328 298.936C146.712 298.841 146.113 298.727 145.49 298.691C144.872 298.644 144.269 298.569 143.646 298.559C143.029 298.532 142.425 298.478 141.804 298.489C139.351 298.411 136.883 298.511 134.43 298.589C129.513 298.788 124.594 299.197 119.661 299.548L112.246 300.137C111.008 300.237 109.768 300.328 108.525 300.4L104.794 300.675C103.546 300.746 102.299 300.826 101.045 300.873C99.9822 300.906 98.8342 301.159 97.7786 301.542C96.7178 301.935 95.7261 302.502 94.9062 303.311C94.0909 304.121 93.4986 305.205 93.1698 306.436C93.0134 305.177 93.2484 303.803 93.9206 302.595C94.5708 301.371 95.619 300.375 96.773 299.617C97.3507 299.229 97.9676 298.913 98.6039 298.636C99.2308 298.361 99.9183 298.121 100.616 297.977C101.842 297.677 103.074 297.411 104.306 297.136C105.542 296.888 106.773 296.603 108.016 296.392C109.26 296.176 110.508 295.981 111.757 295.793C114.25 295.383 116.775 295.164 119.293 294.919C124.345 294.535 129.442 294.434 134.54 294.922C137.088 295.199 139.632 295.541 142.134 296.216C142.758 296.362 143.379 296.566 143.994 296.761C144.609 296.95 145.22 297.181 145.817 297.436C146.999 297.946 148.212 298.504 149.141 299.409Z" fill="#CC8609"/>
    <path d="M110.996 291.557C116.011 285.139 113.936 275.157 106.361 269.263C98.7852 263.368 88.5781 263.793 83.5627 270.212C78.5472 276.631 80.6225 286.612 88.198 292.507C95.7734 298.401 105.98 297.976 110.996 291.557Z" fill="white"/>
    <path d="M111.746 276.733C109.768 279.392 105.095 279.274 101.308 276.469C97.5215 273.664 96.0554 269.235 98.0333 266.576C100.011 263.917 104.685 264.036 108.471 266.84C112.258 269.644 113.724 274.074 111.746 276.733Z" fill="#42210B"/>
    <path d="M98.1374 260.553C96.6992 262.144 94.3699 262.386 92.9343 261.094C91.4988 259.802 91.5021 257.465 92.941 255.874C94.3792 254.283 96.7086 254.041 98.1441 255.332C99.579 256.625 99.5763 258.962 98.1374 260.553Z" fill="#42210B"/>
    <path d="M117.848 274.072C117.479 274.001 117.407 273.502 117.741 273.332C118.038 273.181 118.347 273.055 118.662 272.945C119.301 272.73 119.976 272.597 120.684 272.574C121.392 272.553 122.139 272.648 122.882 272.931C123.622 273.208 124.355 273.718 124.872 274.408C125.396 275.096 125.674 275.912 125.766 276.676L125.809 277.225C125.81 277.239 125.811 277.253 125.81 277.267C125.809 277.445 125.797 277.621 125.787 277.797C125.775 278.158 125.692 278.493 125.629 278.833C125.627 278.844 125.625 278.855 125.622 278.866C125.58 279.027 125.528 279.186 125.479 279.345C125.427 279.507 125.385 279.673 125.312 279.826C125.177 280.136 125.053 280.447 124.885 280.735C124.713 281.023 124.553 281.31 124.351 281.577C124.349 281.58 124.347 281.583 124.345 281.585C124.125 281.881 123.653 281.727 123.636 281.36C123.591 280.393 123.595 279.495 123.522 278.656C123.448 278.109 123.407 277.578 123.259 277.137C123.124 276.691 122.952 276.323 122.726 276.024C122.501 275.725 122.212 275.472 121.827 275.24C121.442 275.011 120.969 274.823 120.447 274.662C119.659 274.422 118.79 274.255 117.848 274.072Z" fill="#42210B"/>
    <path d="M89.7302 271.964C89.7848 271.477 90.4723 271.425 90.614 271.894C90.616 271.9 90.6173 271.905 90.6193 271.911C90.7877 272.48 91.0193 273.019 91.2536 273.541C91.7427 274.581 92.3657 275.529 93.0658 276.406C93.2355 276.629 93.4019 276.851 93.6016 277.055C93.7873 277.259 93.9649 277.468 94.1446 277.673C94.1519 277.682 94.16 277.69 94.1679 277.698C94.3629 277.895 94.5673 278.083 94.7569 278.282C94.9526 278.483 95.1449 278.686 95.3672 278.867C95.8011 279.236 96.1872 279.637 96.6651 279.984L97.3419 280.532L97.5176 280.677L97.664 280.792L97.9914 281.033C99.8063 282.329 101.81 283.441 103.918 284.105C104.975 284.437 106.07 284.649 107.207 284.683C107.791 284.711 108.381 284.677 108.983 284.595C109.469 284.529 109.703 285.184 109.278 285.428C109.269 285.434 109.26 285.439 109.251 285.444C108.981 285.624 108.685 285.747 108.392 285.895C108.382 285.901 108.37 285.906 108.359 285.91C108.058 286.028 107.753 286.159 107.438 286.247C106.154 286.644 104.768 286.727 103.428 286.587C102.755 286.52 102.094 286.389 101.448 286.215C100.798 286.049 100.169 285.823 99.5547 285.572C98.3302 285.055 97.1735 284.421 96.094 283.633C95.9589 283.534 95.8238 283.432 95.6874 283.326L95.475 283.156L95.2994 283.006L94.5733 282.374C94.0887 281.963 93.6335 281.474 93.1869 280.997C92.958 280.764 92.7537 280.501 92.5481 280.242C92.3437 279.988 92.1474 279.73 91.9544 279.469C91.9478 279.46 91.9417 279.451 91.9364 279.442C91.5797 278.884 91.205 278.347 90.9235 277.743C90.3198 276.559 89.8806 275.275 89.7335 273.955C89.7136 273.62 89.6723 273.296 89.6756 272.966C89.6836 272.634 89.681 272.31 89.7295 271.983C89.7289 271.977 89.7295 271.97 89.7302 271.964Z" fill="#42210B"/>
    <path d="M104.163 275.021L101.814 273.417L96.0988 281.752L98.448 283.356L104.163 275.021Z" fill="#42210B"/>
    <path d="M101.755 232.066C100.974 228.649 99.5852 223.629 97.4422 219.351C95.7158 215.904 91.0724 215.285 88.5095 218.168C85.4553 221.603 81.9008 227.003 80.6436 234.404C80.1211 237.479 82.302 240.366 85.4107 240.69C88.7084 241.034 93.3671 240.734 98.8092 238.156C101.101 237.071 102.319 234.534 101.755 232.066Z" fill="#EF7745"/>
    <path d="M141.424 270.707C144.872 270.045 150.036 269.292 154.824 269.527C158.682 269.716 161.118 273.708 159.506 277.21C157.584 281.383 154.062 286.804 147.78 290.932C145.169 292.647 141.643 291.817 140.093 289.108C138.45 286.235 136.849 281.858 137.022 275.85C137.096 273.319 138.933 271.185 141.424 270.707Z" fill="#EF7745"/>
    <path d="M126.55 252.449C125.9 253.072 125.253 253.667 124.618 254.232C126.711 256.876 127.706 259.189 126.924 259.988C126.104 260.829 123.544 259.739 120.661 257.481C116.869 260.31 113.875 261.656 112.904 260.708C111.937 259.763 113.205 256.754 115.943 252.916C113.503 250.019 112.283 247.399 113.125 246.54C113.926 245.721 116.358 246.723 119.135 248.847C119.666 248.225 120.227 247.593 120.804 246.956C117.413 243.18 115.507 239.849 116.379 238.956C117.252 238.068 120.627 239.886 124.485 243.168C125.89 241.814 127.273 240.574 128.6 239.479C130.36 240.977 132.118 242.686 133.758 244.606C132.685 245.953 131.474 247.362 130.148 248.797C133.125 252.255 134.734 255.218 133.92 256.051C133.105 256.886 130.095 255.344 126.55 252.449Z" fill="#42210B"/>
    <path d="M46.0797 237.65C46.594 231.412 40.9077 225.854 33.3789 225.236C25.85 224.617 19.3298 229.173 18.8154 235.412C18.301 241.65 23.9873 247.208 31.5162 247.826C39.045 248.444 45.5653 243.888 46.0797 237.65Z" fill="#F9D179"/>
    <path d="M20.151 225.478C20.0019 227.289 18.4093 228.637 16.5944 228.488C14.7795 228.339 13.4291 226.75 13.5788 224.939C13.7279 223.128 15.3205 221.78 17.1354 221.929C18.9497 222.078 20.3 223.667 20.151 225.478Z" fill="#F9D179"/>
    <path d="M31.6667 219.576C31.5176 221.387 29.925 222.735 28.1101 222.586C26.2952 222.437 24.9448 220.848 25.0939 219.036C25.243 217.225 26.8356 215.878 28.6505 216.027C30.466 216.176 31.8157 217.765 31.6667 219.576Z" fill="#F9D179"/>
    <path d="M45.7257 221.465C45.5766 223.276 43.984 224.624 42.1691 224.475C40.3542 224.326 39.0038 222.737 39.1536 220.925C39.3033 219.113 40.8952 217.767 42.7101 217.916C44.525 218.065 45.8747 219.654 45.7257 221.465Z" fill="#F9D179"/>
    </svg>
    