<svg width="158" height="35" viewBox="0 0 158 35" fill="none" xmlns="http://www.w3.org/2000/svg">
<path d="M15.5241 9.69677C15.959 7.56254 19.041 7.56254 19.4759 9.69677C19.74 10.993 21.1908 11.6916 22.3689 11.09C24.3086 10.0993 26.2302 12.5089 24.8327 14.1796C23.984 15.1942 24.3423 16.7641 25.5473 17.3101C27.5312 18.2089 26.8454 21.2136 24.6679 21.1627C23.3454 21.1318 22.3414 22.3907 22.6659 23.6732C23.2001 25.7847 20.4233 27.122 19.1055 25.3878C18.3051 24.3345 16.6949 24.3345 15.8945 25.3878C14.5767 27.122 11.7999 25.7847 12.3341 23.6732C12.6586 22.3907 11.6546 21.1318 10.3321 21.1627C8.15459 21.2136 7.46879 18.2089 9.45274 17.3101C10.6577 16.7641 11.016 15.1942 10.1673 14.1796C8.76979 12.5089 10.6914 10.0993 12.6311 11.09C13.8092 11.6916 15.26 10.993 15.5241 9.69677Z" fill="#FFB425"/>
<path d="M32.64 25V11.8H34.82V25H32.64ZM33.22 25V23.12H40.78V25H33.22ZM45.8605 25.26C45.0338 25.26 44.3005 25.14 43.6605 24.9C43.0205 24.6467 42.4805 24.2933 42.0405 23.84C41.6005 23.3733 41.2671 22.82 41.0405 22.18C40.8138 21.5267 40.7005 20.7933 40.7005 19.98C40.7005 19.1667 40.8138 18.42 41.0405 17.74C41.2671 17.0467 41.5871 16.4467 42.0005 15.94C42.4271 15.4333 42.9471 15.04 43.5605 14.76C44.1871 14.48 44.8938 14.34 45.6805 14.34C46.4138 14.34 47.0671 14.46 47.6405 14.7C48.2271 14.94 48.7205 15.3067 49.1205 15.8C49.5205 16.28 49.8205 16.8867 50.0205 17.62C50.2205 18.34 50.2938 19.1867 50.2405 20.16L42.1005 20.22V18.86L48.9605 18.8L48.2005 19.64C48.2805 18.84 48.2138 18.18 48.0005 17.66C47.7871 17.14 47.4805 16.7533 47.0805 16.5C46.6805 16.2467 46.2205 16.12 45.7005 16.12C45.1138 16.12 44.6005 16.2733 44.1605 16.58C43.7338 16.8733 43.4005 17.3067 43.1605 17.88C42.9205 18.4533 42.8005 19.14 42.8005 19.94C42.8005 21.14 43.0671 22.0467 43.6005 22.66C44.1338 23.26 44.8938 23.56 45.8805 23.56C46.2938 23.56 46.6471 23.5133 46.9405 23.42C47.2338 23.3133 47.4805 23.18 47.6805 23.02C47.8805 22.8467 48.0405 22.6467 48.1605 22.42C48.2938 22.18 48.4005 21.9333 48.4805 21.68L50.3805 22.12C50.2605 22.6133 50.0738 23.0533 49.8205 23.44C49.5805 23.8133 49.2738 24.14 48.9005 24.42C48.5271 24.6867 48.0871 24.8933 47.5805 25.04C47.0871 25.1867 46.5138 25.26 45.8605 25.26ZM56.6686 21.06V19.28H59.8486C61.0086 19.28 61.8753 19.0533 62.4486 18.6C63.0353 18.1467 63.3286 17.4 63.3286 16.36C63.3286 15.4267 63.0553 14.7267 62.5086 14.26C61.9753 13.7933 61.1486 13.56 60.0286 13.56H56.6686V11.8H60.0686C60.9353 11.8 61.7019 11.9 62.3686 12.1C63.0486 12.3 63.6219 12.5933 64.0886 12.98C64.5686 13.3667 64.9286 13.8533 65.1686 14.44C65.4219 15.0133 65.5486 15.68 65.5486 16.44C65.5486 17.44 65.3219 18.2867 64.8686 18.98C64.4153 19.66 63.7419 20.18 62.8486 20.54C61.9686 20.8867 60.8753 21.06 59.5686 21.06H56.6686ZM55.3486 25V11.8H57.5286V25H55.3486ZM71.1277 25.26C70.301 25.26 69.5677 25.14 68.9277 24.9C68.2877 24.6467 67.7477 24.2933 67.3077 23.84C66.8677 23.3733 66.5343 22.82 66.3077 22.18C66.081 21.5267 65.9677 20.7933 65.9677 19.98C65.9677 19.1667 66.081 18.42 66.3077 17.74C66.5343 17.0467 66.8543 16.4467 67.2677 15.94C67.6943 15.4333 68.2143 15.04 68.8277 14.76C69.4543 14.48 70.161 14.34 70.9477 14.34C71.681 14.34 72.3343 14.46 72.9077 14.7C73.4943 14.94 73.9877 15.3067 74.3877 15.8C74.7877 16.28 75.0877 16.8867 75.2877 17.62C75.4877 18.34 75.561 19.1867 75.5077 20.16L67.3677 20.22V18.86L74.2277 18.8L73.4677 19.64C73.5477 18.84 73.481 18.18 73.2677 17.66C73.0543 17.14 72.7477 16.7533 72.3477 16.5C71.9477 16.2467 71.4877 16.12 70.9677 16.12C70.381 16.12 69.8677 16.2733 69.4277 16.58C69.001 16.8733 68.6677 17.3067 68.4277 17.88C68.1877 18.4533 68.0677 19.14 68.0677 19.94C68.0677 21.14 68.3343 22.0467 68.8677 22.66C69.401 23.26 70.161 23.56 71.1477 23.56C71.561 23.56 71.9143 23.5133 72.2077 23.42C72.501 23.3133 72.7477 23.18 72.9477 23.02C73.1477 22.8467 73.3077 22.6467 73.4277 22.42C73.561 22.18 73.6677 21.9333 73.7477 21.68L75.6477 22.12C75.5277 22.6133 75.341 23.0533 75.0877 23.44C74.8477 23.8133 74.541 24.14 74.1677 24.42C73.7943 24.6867 73.3543 24.8933 72.8477 25.04C72.3543 25.1867 71.781 25.26 71.1277 25.26ZM80.1939 25.22C79.1672 25.22 78.4006 24.94 77.8939 24.38C77.4006 23.82 77.1539 22.96 77.1539 21.8V16.38H75.6139L75.6539 14.6H76.6539C77.0006 14.6 77.2606 14.5467 77.4339 14.44C77.6072 14.32 77.7139 14.1133 77.7539 13.82L77.9539 12.28H79.2539V14.6H82.1139V16.42H79.2539V21.74C79.2539 22.26 79.3739 22.6333 79.6139 22.86C79.8539 23.0867 80.2072 23.2 80.6739 23.2C80.9272 23.2 81.1806 23.1733 81.4339 23.12C81.7006 23.0533 81.9539 22.9333 82.1939 22.76V24.86C81.7939 24.9933 81.4272 25.0867 81.0939 25.14C80.7606 25.1933 80.4606 25.22 80.1939 25.22ZM83.1516 25V14.6H85.3116V25H83.1516ZM84.2316 12.86C83.7649 12.86 83.4116 12.7667 83.1716 12.58C82.9316 12.38 82.8116 12.0867 82.8116 11.7C82.8116 11.3267 82.9316 11.04 83.1716 10.84C83.4116 10.64 83.7649 10.54 84.2316 10.54C84.7116 10.54 85.0716 10.64 85.3116 10.84C85.5516 11.04 85.6716 11.3267 85.6716 11.7C85.6716 12.0867 85.5516 12.38 85.3116 12.58C85.0716 12.7667 84.7116 12.86 84.2316 12.86ZM90.5673 25.22C89.5407 25.22 88.774 24.94 88.2673 24.38C87.774 23.82 87.5273 22.96 87.5273 21.8V16.38H85.9873L86.0273 14.6H87.0273C87.374 14.6 87.634 14.5467 87.8073 14.44C87.9807 14.32 88.0873 14.1133 88.1273 13.82L88.3273 12.28H89.6273V14.6H92.4873V16.42H89.6273V21.74C89.6273 22.26 89.7473 22.6333 89.9873 22.86C90.2273 23.0867 90.5807 23.2 91.0473 23.2C91.3007 23.2 91.554 23.1733 91.8073 23.12C92.074 23.0533 92.3273 22.9333 92.5673 22.76V24.86C92.1673 24.9933 91.8007 25.0867 91.4673 25.14C91.134 25.1933 90.834 25.22 90.5673 25.22ZM98.4869 25V23.16H102.367C103.22 23.16 103.927 22.9667 104.487 22.58C105.047 22.1933 105.46 21.6467 105.727 20.94C106.007 20.2333 106.147 19.4 106.147 18.44C106.147 17.6133 106.06 16.9 105.887 16.3C105.714 15.6867 105.447 15.1867 105.087 14.8C104.74 14.4133 104.294 14.1267 103.747 13.94C103.214 13.74 102.587 13.64 101.867 13.64H98.4869V11.8H101.807C103.327 11.8 104.574 12.06 105.547 12.58C106.52 13.1 107.24 13.8467 107.707 14.82C108.174 15.78 108.407 16.94 108.407 18.3C108.407 19.2333 108.3 20.0667 108.087 20.8C107.874 21.52 107.58 22.1467 107.207 22.68C106.847 23.2 106.414 23.6333 105.907 23.98C105.414 24.3267 104.867 24.5867 104.267 24.76C103.68 24.92 103.067 25 102.427 25H98.4869ZM97.3869 25V11.8H99.5669V25H97.3869ZM112.255 25.26C111.682 25.26 111.169 25.1533 110.715 24.94C110.262 24.7133 109.902 24.38 109.635 23.94C109.382 23.5 109.255 22.9533 109.255 22.3C109.255 21.78 109.349 21.3333 109.535 20.96C109.735 20.5733 110.029 20.2533 110.415 20C110.815 19.7333 111.322 19.52 111.935 19.36C112.549 19.1867 113.275 19.04 114.115 18.92C114.582 18.8533 114.962 18.7867 115.255 18.72C115.562 18.6533 115.782 18.5467 115.915 18.4C116.062 18.2533 116.135 18.0333 116.135 17.74C116.135 17.2867 115.975 16.9 115.655 16.58C115.349 16.2467 114.849 16.08 114.155 16.08C113.769 16.08 113.382 16.1467 112.995 16.28C112.622 16.4133 112.295 16.6333 112.015 16.94C111.749 17.2333 111.569 17.6333 111.475 18.14L109.515 17.52C109.635 17.0133 109.829 16.5667 110.095 16.18C110.362 15.78 110.695 15.4467 111.095 15.18C111.495 14.9 111.955 14.6933 112.475 14.56C113.009 14.4133 113.589 14.34 114.215 14.34C115.135 14.34 115.895 14.4933 116.495 14.8C117.095 15.1067 117.542 15.58 117.835 16.22C118.142 16.8467 118.295 17.6533 118.295 18.64V20.76C118.295 21.2 118.302 21.6667 118.315 22.16C118.342 22.64 118.369 23.1267 118.395 23.62C118.435 24.1 118.482 24.56 118.535 25H116.555C116.515 24.6 116.475 24.1867 116.435 23.76C116.409 23.3333 116.382 22.9 116.355 22.46H116.055C115.869 22.9667 115.602 23.4333 115.255 23.86C114.922 24.2867 114.502 24.6267 113.995 24.88C113.502 25.1333 112.922 25.26 112.255 25.26ZM113.015 23.58C113.295 23.58 113.575 23.5333 113.855 23.44C114.149 23.3467 114.435 23.2067 114.715 23.02C115.009 22.82 115.275 22.5667 115.515 22.26C115.769 21.9533 115.989 21.5867 116.175 21.16L116.155 19.28L116.675 19.38C116.449 19.58 116.162 19.7333 115.815 19.84C115.482 19.9467 115.115 20.0333 114.715 20.1C114.315 20.1533 113.915 20.22 113.515 20.3C113.129 20.3667 112.769 20.4667 112.435 20.6C112.115 20.72 111.855 20.8933 111.655 21.12C111.469 21.3467 111.375 21.66 111.375 22.06C111.375 22.5533 111.529 22.9333 111.835 23.2C112.142 23.4533 112.535 23.58 113.015 23.58ZM122.19 25L118.55 14.62H120.97L123.57 23.22H123.87L126.49 14.62H128.83L125.19 25H122.19ZM129.448 25V14.6H131.608V25H129.448ZM130.528 12.86C130.061 12.86 129.708 12.7667 129.468 12.58C129.228 12.38 129.108 12.0867 129.108 11.7C129.108 11.3267 129.228 11.04 129.468 10.84C129.708 10.64 130.061 10.54 130.528 10.54C131.008 10.54 131.368 10.64 131.608 10.84C131.848 11.04 131.968 11.3267 131.968 11.7C131.968 12.0867 131.848 12.38 131.608 12.58C131.368 12.7667 131.008 12.86 130.528 12.86ZM133.423 25V18.6V14.6H135.303L135.183 17.84H135.523C135.71 17.04 135.957 16.3867 136.263 15.88C136.583 15.36 136.983 14.9733 137.463 14.72C137.957 14.4667 138.53 14.34 139.183 14.34C140.343 14.34 141.223 14.7533 141.823 15.58C142.437 16.4067 142.743 17.6667 142.743 19.36V25H140.543V19.58C140.543 18.42 140.37 17.5733 140.023 17.04C139.677 16.4933 139.157 16.22 138.463 16.22C137.863 16.22 137.35 16.4133 136.923 16.8C136.51 17.1733 136.19 17.6667 135.963 18.28C135.737 18.8933 135.61 19.56 135.583 20.28V25H133.423ZM148.951 25.26C148.058 25.26 147.285 25.12 146.631 24.84C145.991 24.56 145.465 24.1733 145.051 23.68C144.638 23.1867 144.331 22.62 144.131 21.98C143.931 21.34 143.831 20.6533 143.831 19.92C143.831 19.1333 143.938 18.4067 144.151 17.74C144.365 17.06 144.678 16.4667 145.091 15.96C145.518 15.44 146.045 15.04 146.671 14.76C147.298 14.48 148.025 14.34 148.851 14.34C149.665 14.34 150.371 14.48 150.971 14.76C151.585 15.0267 152.085 15.4133 152.471 15.92C152.858 16.4133 153.111 16.9933 153.231 17.66L151.191 18.28C151.151 17.8933 151.038 17.5333 150.851 17.2C150.665 16.8667 150.398 16.6067 150.051 16.42C149.705 16.22 149.285 16.12 148.791 16.12C148.325 16.12 147.918 16.2133 147.571 16.4C147.225 16.5733 146.938 16.8333 146.711 17.18C146.485 17.5133 146.311 17.9067 146.191 18.36C146.085 18.8133 146.031 19.3133 146.031 19.86C146.031 20.6067 146.131 21.26 146.331 21.82C146.545 22.3667 146.871 22.7933 147.311 23.1C147.751 23.3933 148.305 23.54 148.971 23.54C149.531 23.54 149.991 23.44 150.351 23.24C150.711 23.04 150.991 22.7733 151.191 22.44C151.391 22.0933 151.525 21.6933 151.591 21.24L153.531 21.7C153.451 22.2467 153.291 22.7467 153.051 23.2C152.811 23.64 152.498 24.0133 152.111 24.32C151.725 24.6267 151.265 24.86 150.731 25.02C150.211 25.18 149.618 25.26 148.951 25.26ZM154.285 25V14.6H156.445V25H154.285ZM155.365 12.86C154.898 12.86 154.545 12.7667 154.305 12.58C154.065 12.38 153.945 12.0867 153.945 11.7C153.945 11.3267 154.065 11.04 154.305 10.84C154.545 10.64 154.898 10.54 155.365 10.54C155.845 10.54 156.205 10.64 156.445 10.84C156.685 11.04 156.805 11.3267 156.805 11.7C156.805 12.0867 156.685 12.38 156.445 12.58C156.205 12.7667 155.845 12.86 155.365 12.86Z" fill="#27C0FF"/>
</svg>
