<svg width="38" height="38" viewBox="0 0 38 38" fill="none" xmlns="http://www.w3.org/2000/svg">
<path d="M14.6658 3.15958C15.7674 2.22199 16.3182 1.7532 16.8925 1.47778C17.5502 1.16325 18.27 1 18.999 1C19.7281 1 20.4479 1.16325 21.1056 1.47778C21.6818 1.75124 22.2326 2.22004 23.3322 3.15958C23.7717 3.53462 23.9905 3.72018 24.2248 3.87645C24.7616 4.2362 25.3644 4.48584 25.9984 4.6109C26.2738 4.66559 26.5609 4.68903 27.1351 4.73591C28.5785 4.8492 29.2993 4.9078 29.9009 5.12071C30.588 5.36321 31.2122 5.75643 31.7276 6.27153C32.243 6.78663 32.6366 7.41056 32.8795 8.09757C33.0924 8.70114 33.1491 9.42192 33.2643 10.8635C33.3092 11.4377 33.3327 11.7249 33.3873 12.0022C33.5124 12.6351 33.7624 13.2387 34.1218 13.7739C34.278 14.0083 34.4655 14.2271 34.8386 14.6666C35.7761 15.7682 36.2469 16.3191 36.5223 16.8934C36.8368 17.5511 37 18.2709 37 19C37 19.7291 36.8368 20.4489 36.5223 21.1067C36.2488 21.6809 35.7781 22.2318 34.8386 23.3334C34.5824 23.6167 34.343 23.9148 34.1218 24.2261C33.7623 24.7623 33.5126 25.3645 33.3873 25.9978C33.3327 26.2751 33.3092 26.5623 33.2643 27.1365C33.1491 28.5781 33.0924 29.3008 32.8795 29.9024C32.6366 30.5894 32.243 31.2134 31.7276 31.7285C31.2122 32.2436 30.588 32.6368 29.9009 32.8793C29.2993 33.0942 28.5785 33.1508 27.1351 33.2641C26.5609 33.311 26.2757 33.3344 25.9984 33.3891C25.3644 33.5142 24.7616 33.7638 24.2248 34.1236C23.9142 34.3449 23.6168 34.5843 23.3342 34.8404C22.2326 35.778 21.6818 36.2468 21.1075 36.5222C20.4498 36.8367 19.73 37 19.001 37C18.2719 37 17.5522 36.8367 16.8944 36.5222C16.3182 36.2488 15.7674 35.78 14.6678 34.8404C14.3845 34.5842 14.0865 34.3449 13.7752 34.1236C13.2384 33.7638 12.6356 33.5142 12.0016 33.3891C11.6255 33.3253 11.2459 33.2835 10.8649 33.2641C9.42146 33.1508 8.70072 33.0922 8.09914 32.8793C7.412 32.6368 6.78785 32.2436 6.27244 31.7285C5.75703 31.2134 5.36343 30.5894 5.12049 29.9024C4.90759 29.3008 4.85095 28.5781 4.73571 27.1365C4.717 26.7549 4.67591 26.3746 4.61265 25.9978C4.48736 25.3645 4.23774 24.7623 3.87825 24.2261C3.72199 23.9917 3.53448 23.7729 3.16142 23.3334C2.22388 22.2318 1.75315 21.6809 1.47775 21.1067C1.16324 20.4489 1 19.7291 1 19C1 18.2709 1.16324 17.5511 1.47775 16.8934C1.75315 16.3191 2.22192 15.7682 3.16142 14.6666C3.53448 14.2271 3.72199 14.0083 3.87825 13.7739C4.23774 13.2377 4.48736 12.6355 4.61265 12.0022C4.66734 11.7249 4.69078 11.4377 4.73571 10.8635C4.85095 9.42192 4.90759 8.70114 5.12049 8.09757C5.36363 7.41036 5.75753 6.7863 6.2733 6.27119C6.78906 5.75607 7.4136 5.36297 8.10109 5.12071C8.70268 4.9078 9.42341 4.8492 10.8668 4.73591C11.4411 4.68903 11.7262 4.66559 12.0036 4.6109C12.6375 4.48584 13.2404 4.2362 13.7771 3.87645C14.0115 3.72018 14.2283 3.53462 14.6658 3.15958Z" fill="#BF8FFD" stroke="#9D63E7"/>
<path d="M17.0451 26.6146C16.6479 27.4673 16.0839 28.4468 15.2807 28.8633C14.4876 29.2738 13.5678 28.7766 13.7078 26.9871C13.7418 26.556 13.8359 26.0506 14.0086 25.4662C14.8096 22.7502 17.2783 19.0987 18.9432 16.7883L19.1189 16.324C19.1367 16.3247 19.1515 16.3284 19.1691 16.3351C19.1691 16.3351 19.1659 16.3702 19.1599 16.4344C19.1996 16.3829 19.2203 16.3545 19.2203 16.3545C19.2363 16.3604 19.2497 16.3675 19.2654 16.3794L19.0897 16.8437C18.9676 18.0688 18.7925 19.5828 18.5368 21.1125C18.201 23.1207 17.725 25.1584 17.0451 26.6146Z" fill="#D811AD"/>
<path d="M18.4298 19.9301C18.2409 19.9301 18.0546 19.8957 17.8765 19.8284C17.0694 19.5233 16.6613 18.6184 16.9665 17.8114C17.1953 17.2063 17.7837 16.7999 18.4304 16.7999C18.6191 16.7999 18.8053 16.8341 18.9835 16.9014C19.7905 17.2065 20.1988 18.1116 19.8935 18.9186C19.6645 19.5235 19.0765 19.9301 18.4298 19.9301Z" fill="#FF8CDB"/>
<g opacity="0.25">
<path d="M17.0451 26.6146C16.6479 27.4673 16.0839 28.4468 15.2807 28.8633C14.4876 29.2738 13.5678 28.7766 13.7078 26.9871C13.942 26.896 14.158 26.7255 14.3486 26.5573C15.6226 25.4348 16.6937 24.0861 17.5016 22.5956C17.7681 22.099 18.0165 21.5755 18.4334 21.1984C18.467 21.1687 18.5004 21.139 18.5366 21.1123C18.201 23.1207 17.725 25.1584 17.0451 26.6146Z" fill="#0A1640"/>
</g>
<path d="M20.3475 18.3595C19.7359 18.3595 19.1331 18.2488 18.5562 18.0306C15.9435 17.0425 14.6215 14.1129 15.6098 11.5001C16.3507 9.54096 18.2553 8.22473 20.3492 8.22473C20.9608 8.22473 21.5632 8.33539 22.1403 8.55364C23.4061 9.03234 24.4095 9.97516 24.9661 11.2087C25.5225 12.4421 25.5654 13.8184 25.0867 15.0841C24.346 17.0432 22.4414 18.3595 20.3479 18.3595C20.3475 18.3595 20.3475 18.3595 20.3475 18.3595Z" fill="#6B7FFF"/>
<path d="M20.3471 17.1024C19.8874 17.1024 19.4342 17.0192 19.0008 16.8552C18.2647 16.5767 17.6427 16.0871 17.2022 15.4391C16.5027 14.4128 16.3472 13.1064 16.7864 11.9443C17.3433 10.4716 18.7748 9.48218 20.3482 9.48218C20.808 9.48218 21.2613 9.5656 21.6952 9.72958C22.4907 10.0303 23.1685 10.5938 23.6029 11.3158C24.2162 12.3242 24.329 13.5358 23.9116 14.6389C23.3547 16.1124 21.922 17.1024 20.3471 17.1024Z" fill="#00D4FC"/>
<path opacity="0.25" d="M23.7504 14.5782C23.0401 16.4566 20.9402 17.4042 19.0618 16.6938C18.3361 16.4194 17.7496 15.9372 17.345 15.3423C21.2632 16.0168 22.8304 13.4837 23.4551 11.4052C24.0162 12.3278 24.1624 13.4889 23.7504 14.5782Z" fill="#332FBA"/>
<path opacity="0.75" d="M18.962 12.2375C18.5905 12.5694 18.2975 13.005 18.3088 12.9891C18.1446 13.2192 17.7775 13.108 17.7735 12.8199C17.761 11.0639 20.007 9.75344 21.7415 10.9458C21.9621 11.0973 21.8624 11.4471 21.5916 11.4555C20.6691 11.4841 19.8787 11.4137 18.962 12.2375Z" fill="white"/>
<path d="M25.1233 11.1377C24.548 9.86236 23.5104 8.88617 22.2024 8.39136C17.821 6.74833 13.6652 11.2296 15.5743 15.4472C15.9118 16.1951 16.4085 16.8395 17.0261 17.3439C16.6013 17.9225 16.5783 18.7179 16.9839 19.3289C15.6506 21.368 13.7257 24.542 13.5356 26.9735C13.3519 29.3181 15.0292 30.0056 16.4814 27.9689C17.8701 26.0086 18.5401 22.4111 18.8768 20.0424C19.5933 19.851 20.0979 19.2273 20.1599 18.5273C24.0491 18.649 26.7167 14.6697 25.1233 11.1377ZM15.2022 28.7092C14.9049 28.8645 14.6019 28.8626 14.3679 28.7092C13.5692 28.1795 13.8979 26.4467 14.1742 25.5159C14.6173 24.0085 15.6376 22.0293 17.216 19.607C17.5945 19.9812 18.149 20.1444 18.5201 20.098C18.1793 22.4048 17.2722 27.6369 15.2022 28.7092ZM17.4077 19.3097C16.9663 18.8381 16.9058 18.0888 17.3023 17.553C17.9938 18.0614 18.9248 18.4175 19.8147 18.5023C19.6988 19.6991 18.2167 20.1843 17.4077 19.3097ZM24.9258 15.0233C24.028 17.3976 21.4947 18.6419 19.1377 18.0324C16.3299 17.3184 14.7323 14.3076 15.7718 11.5616C16.7375 9.00718 19.5832 7.76575 22.0797 8.71548C24.6074 9.67057 25.8809 12.4956 24.9258 15.0233Z" fill="#0A1640"/>
<path d="M16.6253 11.8837C15.6663 14.4132 17.4845 17.2748 20.3478 17.2748C23.4154 17.2748 25.3751 13.9017 23.7501 11.2259C22.0635 8.42948 17.8032 8.76184 16.6253 11.8837ZM20.3478 16.9296C17.7225 16.9296 16.0754 14.3152 16.9475 12.0065C18.0333 9.13468 21.9306 8.86387 23.4548 11.4043C24.9311 13.8281 23.1746 16.9296 20.3478 16.9296Z" fill="#0A1640"/>
</svg>
