<svg width="114" height="38" viewBox="0 0 114 38" fill="none" xmlns="http://www.w3.org/2000/svg">
<rect x="9" y="6" width="105" height="26" rx="13" fill="#27C0FF"/>
<path d="M41.86 22V15.14H43.33L44.89 19.59C44.93 19.71 44.97 19.8433 45.01 19.99C45.0567 20.13 45.0967 20.2633 45.13 20.39C45.17 20.5167 45.2 20.6267 45.22 20.72H45.29C45.31 20.62 45.3367 20.5067 45.37 20.38C45.4033 20.2467 45.44 20.11 45.48 19.97C45.52 19.83 45.5567 19.7033 45.59 19.59L47.15 15.14H48.61V22H47.66V17.98C47.66 17.7733 47.6633 17.55 47.67 17.31C47.6767 17.0633 47.6833 16.84 47.69 16.64C47.6967 16.4333 47.7 16.2867 47.7 16.2H47.62C47.6 16.2867 47.5667 16.41 47.52 16.57C47.4733 16.7233 47.4233 16.8867 47.37 17.06C47.3233 17.2267 47.28 17.3767 47.24 17.51L45.63 22H44.81L43.2 17.51C43.16 17.3967 43.1167 17.2667 43.07 17.12C43.03 16.9667 42.9867 16.81 42.94 16.65C42.9 16.49 42.86 16.34 42.82 16.2H42.75C42.7567 16.3467 42.76 16.53 42.76 16.75C42.7667 16.9633 42.77 17.18 42.77 17.4C42.7767 17.6133 42.78 17.8067 42.78 17.98V22H41.86ZM51.2768 22.12C51.0835 22.12 50.8901 22.0967 50.6968 22.05C50.5035 22.0033 50.3235 21.9267 50.1568 21.82C49.9901 21.7133 49.8568 21.5667 49.7568 21.38C49.6568 21.1867 49.6068 20.9467 49.6068 20.66C49.6068 20.3 49.6935 20.0033 49.8668 19.77C50.0401 19.5367 50.2801 19.3567 50.5868 19.23C50.9001 19.0967 51.2701 19.0067 51.6968 18.96C52.1235 18.9067 52.5868 18.88 53.0868 18.88V18.28C53.0868 18.0867 53.0535 17.92 52.9868 17.78C52.9201 17.64 52.8001 17.5333 52.6268 17.46C52.4601 17.38 52.2201 17.34 51.9068 17.34C51.6068 17.34 51.3668 17.38 51.1868 17.46C51.0135 17.5333 50.8901 17.63 50.8168 17.75C50.7501 17.87 50.7168 18.0033 50.7168 18.15V18.3H49.8668C49.8601 18.2667 49.8568 18.2333 49.8568 18.2C49.8568 18.1667 49.8568 18.1267 49.8568 18.08C49.8568 17.76 49.9435 17.4933 50.1168 17.28C50.2968 17.06 50.5468 16.8967 50.8668 16.79C51.1868 16.6767 51.5535 16.62 51.9668 16.62C52.4068 16.62 52.7735 16.6833 53.0668 16.81C53.3668 16.9367 53.5901 17.1167 53.7368 17.35C53.8901 17.5833 53.9668 17.8633 53.9668 18.19V21.04C53.9668 21.1667 53.9968 21.2567 54.0568 21.31C54.1168 21.3567 54.1901 21.38 54.2768 21.38H54.6668V21.96C54.5735 22 54.4701 22.0333 54.3568 22.06C54.2435 22.0933 54.1135 22.11 53.9668 22.11C53.7935 22.11 53.6501 22.0733 53.5368 22C53.4235 21.9333 53.3368 21.84 53.2768 21.72C53.2168 21.5933 53.1768 21.4533 53.1568 21.3H53.0868C52.9668 21.4667 52.8135 21.6133 52.6268 21.74C52.4468 21.86 52.2435 21.9533 52.0168 22.02C51.7901 22.0867 51.5435 22.12 51.2768 22.12ZM51.4968 21.38C51.7101 21.38 51.9101 21.3467 52.0968 21.28C52.2901 21.2133 52.4601 21.12 52.6068 21C52.7535 20.8733 52.8701 20.7233 52.9568 20.55C53.0435 20.3767 53.0868 20.1867 53.0868 19.98V19.54C52.5468 19.54 52.0868 19.57 51.7068 19.63C51.3268 19.69 51.0335 19.7967 50.8268 19.95C50.6268 20.1033 50.5268 20.32 50.5268 20.6C50.5268 20.78 50.5668 20.9267 50.6468 21.04C50.7268 21.1533 50.8401 21.24 50.9868 21.3C51.1335 21.3533 51.3035 21.38 51.4968 21.38ZM55.206 22V16.74H56.086V22H55.206ZM54.166 16.09L55.226 14.77H56.056L57.116 16.09H56.296L55.426 15H55.866L54.986 16.09H54.166ZM58.4821 22.12C58.2088 22.12 57.9954 22.07 57.8421 21.97C57.6888 21.8633 57.5788 21.7267 57.5121 21.56C57.4454 21.3867 57.4121 21.2033 57.4121 21.01V17.48H56.7321V16.74H57.4321L57.5921 15.27H58.2921V16.74H59.2821V17.48H58.2921V20.88C58.2921 21.0467 58.3221 21.1733 58.3821 21.26C58.4421 21.34 58.5554 21.38 58.7221 21.38H59.2821V21.96C59.2154 21.9933 59.1354 22.02 59.0421 22.04C58.9488 22.06 58.8521 22.0767 58.7521 22.09C58.6588 22.11 58.5688 22.12 58.4821 22.12ZM60.0209 22V16.74H60.7309L60.8109 17.61H60.8809C60.9342 17.4433 61.0075 17.2867 61.1009 17.14C61.1942 16.9867 61.3209 16.8633 61.4809 16.77C61.6409 16.67 61.8375 16.62 62.0709 16.62C62.1709 16.62 62.2609 16.63 62.3409 16.65C62.4275 16.6633 62.4909 16.68 62.5309 16.7V17.51H62.2009C61.9742 17.51 61.7775 17.55 61.6109 17.63C61.4509 17.7033 61.3175 17.81 61.2109 17.95C61.1042 18.09 61.0242 18.2567 60.9709 18.45C60.9242 18.6433 60.9009 18.85 60.9009 19.07V22H60.0209ZM65.1435 22.12C64.6235 22.12 64.1835 22.0233 63.8235 21.83C63.4702 21.63 63.2002 21.3267 63.0135 20.92C62.8335 20.5133 62.7435 19.9967 62.7435 19.37C62.7435 18.7367 62.8335 18.22 63.0135 17.82C63.2002 17.4133 63.4735 17.1133 63.8335 16.92C64.1935 16.72 64.6435 16.62 65.1835 16.62C65.6768 16.62 66.0902 16.7167 66.4235 16.91C66.7568 17.0967 67.0068 17.38 67.1735 17.76C67.3468 18.1333 67.4335 18.6033 67.4335 19.17V19.59H63.6535C63.6668 20.01 63.7268 20.3567 63.8335 20.63C63.9468 20.8967 64.1135 21.0933 64.3335 21.22C64.5535 21.34 64.8302 21.4 65.1635 21.4C65.3902 21.4 65.5868 21.3733 65.7535 21.32C65.9268 21.26 66.0702 21.1767 66.1835 21.07C66.3035 20.9633 66.3935 20.8367 66.4535 20.69C66.5135 20.5433 66.5468 20.3833 66.5535 20.21H67.4135C67.4068 20.49 67.3535 20.75 67.2535 20.99C67.1535 21.2233 67.0068 21.4233 66.8135 21.59C66.6202 21.7567 66.3835 21.8867 66.1035 21.98C65.8235 22.0733 65.5035 22.12 65.1435 22.12ZM63.6735 18.93H66.5235C66.5235 18.6367 66.4902 18.39 66.4235 18.19C66.3568 17.99 66.2602 17.8267 66.1335 17.7C66.0135 17.5733 65.8702 17.4833 65.7035 17.43C65.5435 17.37 65.3602 17.34 65.1535 17.34C64.8468 17.34 64.5868 17.3967 64.3735 17.51C64.1602 17.6233 63.9968 17.7967 63.8835 18.03C63.7702 18.2633 63.7002 18.5633 63.6735 18.93ZM72.0019 22.12C71.5685 22.12 71.1952 22.0233 70.8819 21.83C70.5752 21.6367 70.3352 21.3367 70.1619 20.93C69.9952 20.5167 69.9119 19.9833 69.9119 19.33C69.9119 18.71 69.9985 18.2 70.1719 17.8C70.3452 17.4 70.5852 17.1033 70.8919 16.91C71.1985 16.7167 71.5552 16.62 71.9619 16.62C72.1952 16.62 72.4119 16.6467 72.6119 16.7C72.8119 16.7533 72.9885 16.8367 73.1419 16.95C73.3019 17.0633 73.4419 17.2133 73.5619 17.4H73.6219V14.77H74.5019V22H73.7919L73.7119 21.25H73.6419C73.4619 21.5433 73.2285 21.7633 72.9419 21.91C72.6552 22.05 72.3419 22.12 72.0019 22.12ZM72.2119 21.35C72.5452 21.35 72.8152 21.2767 73.0219 21.13C73.2285 20.9833 73.3785 20.77 73.4719 20.49C73.5719 20.21 73.6219 19.8633 73.6219 19.45V19.29C73.6219 18.93 73.5852 18.6267 73.5119 18.38C73.4385 18.1333 73.3385 17.9367 73.2119 17.79C73.0852 17.6433 72.9385 17.54 72.7719 17.48C72.6052 17.42 72.4285 17.39 72.2419 17.39C71.9152 17.39 71.6485 17.4567 71.4419 17.59C71.2352 17.7167 71.0819 17.92 70.9819 18.2C70.8819 18.4733 70.8319 18.83 70.8319 19.27V19.48C70.8319 19.9333 70.8852 20.3 70.9919 20.58C71.0985 20.8533 71.2519 21.05 71.4519 21.17C71.6585 21.29 71.9119 21.35 72.2119 21.35ZM77.7857 22.12C77.2657 22.12 76.8257 22.0233 76.4657 21.83C76.1124 21.63 75.8424 21.3267 75.6557 20.92C75.4757 20.5133 75.3857 19.9967 75.3857 19.37C75.3857 18.7367 75.4757 18.22 75.6557 17.82C75.8424 17.4133 76.1157 17.1133 76.4757 16.92C76.8357 16.72 77.2857 16.62 77.8257 16.62C78.319 16.62 78.7324 16.7167 79.0657 16.91C79.399 17.0967 79.649 17.38 79.8157 17.76C79.989 18.1333 80.0757 18.6033 80.0757 19.17V19.59H76.2957C76.309 20.01 76.369 20.3567 76.4757 20.63C76.589 20.8967 76.7557 21.0933 76.9757 21.22C77.1957 21.34 77.4724 21.4 77.8057 21.4C78.0324 21.4 78.229 21.3733 78.3957 21.32C78.569 21.26 78.7124 21.1767 78.8257 21.07C78.9457 20.9633 79.0357 20.8367 79.0957 20.69C79.1557 20.5433 79.189 20.3833 79.1957 20.21H80.0557C80.049 20.49 79.9957 20.75 79.8957 20.99C79.7957 21.2233 79.649 21.4233 79.4557 21.59C79.2624 21.7567 79.0257 21.8867 78.7457 21.98C78.4657 22.0733 78.1457 22.12 77.7857 22.12ZM76.3157 18.93H79.1657C79.1657 18.6367 79.1324 18.39 79.0657 18.19C78.999 17.99 78.9024 17.8267 78.7757 17.7C78.6557 17.5733 78.5124 17.4833 78.3457 17.43C78.1857 17.37 78.0024 17.34 77.7957 17.34C77.489 17.34 77.229 17.3967 77.0157 17.51C76.8024 17.6233 76.639 17.7967 76.5257 18.03C76.4124 18.2633 76.3424 18.5633 76.3157 18.93ZM82.8042 22.12C82.4442 22.12 82.1276 22.0833 81.8542 22.01C81.5809 21.9367 81.3542 21.83 81.1742 21.69C80.9942 21.55 80.8576 21.3833 80.7642 21.19C80.6709 20.9967 80.6242 20.7767 80.6242 20.53C80.6242 20.4967 80.6242 20.4667 80.6242 20.44C80.6242 20.4067 80.6276 20.38 80.6342 20.36H81.5042C81.4976 20.3867 81.4942 20.41 81.4942 20.43C81.4942 20.45 81.4942 20.47 81.4942 20.49C81.5009 20.7233 81.5609 20.9067 81.6742 21.04C81.7942 21.1733 81.9576 21.2667 82.1642 21.32C82.3709 21.3733 82.6009 21.4 82.8542 21.4C83.0742 21.4 83.2776 21.3733 83.4642 21.32C83.6509 21.26 83.7976 21.1733 83.9042 21.06C84.0176 20.94 84.0742 20.79 84.0742 20.61C84.0742 20.39 84.0009 20.2233 83.8542 20.11C83.7142 19.99 83.5276 19.8967 83.2942 19.83C83.0609 19.7633 82.8176 19.6933 82.5642 19.62C82.3509 19.56 82.1376 19.4933 81.9242 19.42C81.7109 19.3467 81.5176 19.2567 81.3442 19.15C81.1776 19.0433 81.0409 18.9067 80.9342 18.74C80.8342 18.5667 80.7842 18.35 80.7842 18.09C80.7842 17.8567 80.8309 17.65 80.9242 17.47C81.0242 17.29 81.1642 17.1367 81.3442 17.01C81.5242 16.8833 81.7409 16.79 81.9942 16.73C82.2542 16.6633 82.5409 16.63 82.8542 16.63C83.1876 16.63 83.4776 16.6667 83.7242 16.74C83.9776 16.8133 84.1876 16.9167 84.3542 17.05C84.5209 17.1833 84.6442 17.3367 84.7242 17.51C84.8042 17.6767 84.8442 17.8567 84.8442 18.05C84.8442 18.09 84.8442 18.13 84.8442 18.17C84.8442 18.2033 84.8409 18.23 84.8342 18.25H83.9742V18.14C83.9742 18.0067 83.9376 17.88 83.8642 17.76C83.7976 17.6333 83.6776 17.5333 83.5042 17.46C83.3376 17.38 83.1042 17.34 82.8042 17.34C82.6109 17.34 82.4442 17.3567 82.3042 17.39C82.1642 17.4167 82.0476 17.4633 81.9542 17.53C81.8609 17.59 81.7909 17.6633 81.7442 17.75C81.6976 17.83 81.6742 17.9233 81.6742 18.03C81.6742 18.2033 81.7309 18.3367 81.8442 18.43C81.9576 18.5233 82.1076 18.6 82.2942 18.66C82.4876 18.72 82.6942 18.7867 82.9142 18.86C83.1476 18.9267 83.3842 18.9967 83.6242 19.07C83.8709 19.1367 84.0942 19.2233 84.2942 19.33C84.5009 19.4367 84.6642 19.5833 84.7842 19.77C84.9109 19.95 84.9742 20.19 84.9742 20.49C84.9742 20.77 84.9209 21.0133 84.8142 21.22C84.7076 21.4267 84.5542 21.5967 84.3542 21.73C84.1609 21.8633 83.9309 21.96 83.6642 22.02C83.4042 22.0867 83.1176 22.12 82.8042 22.12ZM89.5917 22.12C89.2317 22.12 88.9151 22.0833 88.6417 22.01C88.3684 21.9367 88.1417 21.83 87.9617 21.69C87.7817 21.55 87.6451 21.3833 87.5517 21.19C87.4584 20.9967 87.4117 20.7767 87.4117 20.53C87.4117 20.4967 87.4117 20.4667 87.4117 20.44C87.4117 20.4067 87.4151 20.38 87.4217 20.36H88.2917C88.2851 20.3867 88.2817 20.41 88.2817 20.43C88.2817 20.45 88.2817 20.47 88.2817 20.49C88.2884 20.7233 88.3484 20.9067 88.4617 21.04C88.5817 21.1733 88.7451 21.2667 88.9517 21.32C89.1584 21.3733 89.3884 21.4 89.6417 21.4C89.8617 21.4 90.0651 21.3733 90.2517 21.32C90.4384 21.26 90.5851 21.1733 90.6917 21.06C90.8051 20.94 90.8617 20.79 90.8617 20.61C90.8617 20.39 90.7884 20.2233 90.6417 20.11C90.5017 19.99 90.3151 19.8967 90.0817 19.83C89.8484 19.7633 89.6051 19.6933 89.3517 19.62C89.1384 19.56 88.9251 19.4933 88.7117 19.42C88.4984 19.3467 88.3051 19.2567 88.1317 19.15C87.9651 19.0433 87.8284 18.9067 87.7217 18.74C87.6217 18.5667 87.5717 18.35 87.5717 18.09C87.5717 17.8567 87.6184 17.65 87.7117 17.47C87.8117 17.29 87.9517 17.1367 88.1317 17.01C88.3117 16.8833 88.5284 16.79 88.7817 16.73C89.0417 16.6633 89.3284 16.63 89.6417 16.63C89.9751 16.63 90.2651 16.6667 90.5117 16.74C90.7651 16.8133 90.9751 16.9167 91.1417 17.05C91.3084 17.1833 91.4317 17.3367 91.5117 17.51C91.5917 17.6767 91.6317 17.8567 91.6317 18.05C91.6317 18.09 91.6317 18.13 91.6317 18.17C91.6317 18.2033 91.6284 18.23 91.6217 18.25H90.7617V18.14C90.7617 18.0067 90.7251 17.88 90.6517 17.76C90.5851 17.6333 90.4651 17.5333 90.2917 17.46C90.1251 17.38 89.8917 17.34 89.5917 17.34C89.3984 17.34 89.2317 17.3567 89.0917 17.39C88.9517 17.4167 88.8351 17.4633 88.7417 17.53C88.6484 17.59 88.5784 17.6633 88.5317 17.75C88.4851 17.83 88.4617 17.9233 88.4617 18.03C88.4617 18.2033 88.5184 18.3367 88.6317 18.43C88.7451 18.5233 88.8951 18.6 89.0817 18.66C89.2751 18.72 89.4817 18.7867 89.7017 18.86C89.9351 18.9267 90.1717 18.9967 90.4117 19.07C90.6584 19.1367 90.8817 19.2233 91.0817 19.33C91.2884 19.4367 91.4517 19.5833 91.5717 19.77C91.6984 19.95 91.7617 20.19 91.7617 20.49C91.7617 20.77 91.7084 21.0133 91.6017 21.22C91.4951 21.4267 91.3417 21.5967 91.1417 21.73C90.9484 21.8633 90.7184 21.96 90.4517 22.02C90.1917 22.0867 89.9051 22.12 89.5917 22.12ZM94.8094 22.12C94.276 22.12 93.826 22.0233 93.4594 21.83C93.0994 21.63 92.8227 21.3267 92.6294 20.92C92.4427 20.5133 92.3494 19.9967 92.3494 19.37C92.3494 18.7367 92.4427 18.22 92.6294 17.82C92.8227 17.4133 93.0994 17.1133 93.4594 16.92C93.826 16.72 94.276 16.62 94.8094 16.62C95.3427 16.62 95.7894 16.72 96.1494 16.92C96.516 17.1133 96.7927 17.4133 96.9794 17.82C97.166 18.22 97.2594 18.7367 97.2594 19.37C97.2594 19.9967 97.166 20.5133 96.9794 20.92C96.7927 21.3267 96.516 21.63 96.1494 21.83C95.7894 22.0233 95.3427 22.12 94.8094 22.12ZM94.8094 21.38C95.1494 21.38 95.4327 21.3133 95.6594 21.18C95.886 21.0467 96.056 20.84 96.1694 20.56C96.2894 20.2733 96.3494 19.9133 96.3494 19.48V19.26C96.3494 18.82 96.2894 18.46 96.1694 18.18C96.056 17.9 95.886 17.6933 95.6594 17.56C95.4327 17.4267 95.1494 17.36 94.8094 17.36C94.4694 17.36 94.1827 17.4267 93.9494 17.56C93.7227 17.6933 93.5527 17.9 93.4394 18.18C93.326 18.46 93.2694 18.82 93.2694 19.26V19.48C93.2694 19.9133 93.326 20.2733 93.4394 20.56C93.5527 20.84 93.7227 21.0467 93.9494 21.18C94.1827 21.3133 94.4694 21.38 94.8094 21.38ZM98.1525 22V16.74H98.8625L98.9425 17.53H99.0125C99.1525 17.3167 99.3092 17.1433 99.4825 17.01C99.6625 16.8767 99.8592 16.78 100.073 16.72C100.293 16.6533 100.526 16.62 100.773 16.62C101.106 16.62 101.396 16.6767 101.643 16.79C101.896 16.9033 102.093 17.0867 102.233 17.34C102.379 17.5933 102.453 17.9367 102.453 18.37V22H101.573V18.49C101.573 18.27 101.543 18.09 101.483 17.95C101.429 17.81 101.353 17.7 101.253 17.62C101.159 17.54 101.043 17.4833 100.903 17.45C100.769 17.4167 100.619 17.4 100.453 17.4C100.206 17.4 99.9725 17.46 99.7525 17.58C99.5325 17.7 99.3558 17.8733 99.2225 18.1C99.0958 18.3267 99.0325 18.5967 99.0325 18.91V22H98.1525ZM105.427 22.12C105.067 22.12 104.751 22.0833 104.477 22.01C104.204 21.9367 103.977 21.83 103.797 21.69C103.617 21.55 103.481 21.3833 103.387 21.19C103.294 20.9967 103.247 20.7767 103.247 20.53C103.247 20.4967 103.247 20.4667 103.247 20.44C103.247 20.4067 103.251 20.38 103.257 20.36H104.127C104.121 20.3867 104.117 20.41 104.117 20.43C104.117 20.45 104.117 20.47 104.117 20.49C104.124 20.7233 104.184 20.9067 104.297 21.04C104.417 21.1733 104.581 21.2667 104.787 21.32C104.994 21.3733 105.224 21.4 105.477 21.4C105.697 21.4 105.901 21.3733 106.087 21.32C106.274 21.26 106.421 21.1733 106.527 21.06C106.641 20.94 106.697 20.79 106.697 20.61C106.697 20.39 106.624 20.2233 106.477 20.11C106.337 19.99 106.151 19.8967 105.917 19.83C105.684 19.7633 105.441 19.6933 105.187 19.62C104.974 19.56 104.761 19.4933 104.547 19.42C104.334 19.3467 104.141 19.2567 103.967 19.15C103.801 19.0433 103.664 18.9067 103.557 18.74C103.457 18.5667 103.407 18.35 103.407 18.09C103.407 17.8567 103.454 17.65 103.547 17.47C103.647 17.29 103.787 17.1367 103.967 17.01C104.147 16.8833 104.364 16.79 104.617 16.73C104.877 16.6633 105.164 16.63 105.477 16.63C105.811 16.63 106.101 16.6667 106.347 16.74C106.601 16.8133 106.811 16.9167 106.977 17.05C107.144 17.1833 107.267 17.3367 107.347 17.51C107.427 17.6767 107.467 17.8567 107.467 18.05C107.467 18.09 107.467 18.13 107.467 18.17C107.467 18.2033 107.464 18.23 107.457 18.25H106.597V18.14C106.597 18.0067 106.561 17.88 106.487 17.76C106.421 17.6333 106.301 17.5333 106.127 17.46C105.961 17.38 105.727 17.34 105.427 17.34C105.234 17.34 105.067 17.3567 104.927 17.39C104.787 17.4167 104.671 17.4633 104.577 17.53C104.484 17.59 104.414 17.6633 104.367 17.75C104.321 17.83 104.297 17.9233 104.297 18.03C104.297 18.2033 104.354 18.3367 104.467 18.43C104.581 18.5233 104.731 18.6 104.917 18.66C105.111 18.72 105.317 18.7867 105.537 18.86C105.771 18.9267 106.007 18.9967 106.247 19.07C106.494 19.1367 106.717 19.2233 106.917 19.33C107.124 19.4367 107.287 19.5833 107.407 19.77C107.534 19.95 107.597 20.19 107.597 20.49C107.597 20.77 107.544 21.0133 107.437 21.22C107.331 21.4267 107.177 21.5967 106.977 21.73C106.784 21.8633 106.554 21.96 106.287 22.02C106.027 22.0867 105.741 22.12 105.427 22.12Z" fill="white"/>
<path d="M14.6658 3.15958C15.7674 2.22199 16.3182 1.7532 16.8925 1.47778C17.5502 1.16325 18.27 1 18.999 1C19.7281 1 20.4479 1.16325 21.1056 1.47778C21.6818 1.75124 22.2326 2.22004 23.3322 3.15958C23.7717 3.53462 23.9905 3.72018 24.2248 3.87645C24.7616 4.2362 25.3644 4.48584 25.9984 4.6109C26.2738 4.66559 26.5609 4.68903 27.1351 4.73591C28.5785 4.8492 29.2993 4.9078 29.9009 5.12071C30.588 5.36321 31.2122 5.75643 31.7276 6.27153C32.243 6.78663 32.6366 7.41056 32.8795 8.09757C33.0924 8.70114 33.1491 9.42192 33.2643 10.8635C33.3092 11.4377 33.3327 11.7249 33.3873 12.0022C33.5124 12.6351 33.7624 13.2387 34.1218 13.7739C34.278 14.0083 34.4655 14.2271 34.8386 14.6666C35.7761 15.7682 36.2469 16.3191 36.5223 16.8934C36.8368 17.5511 37 18.2709 37 19C37 19.7291 36.8368 20.4489 36.5223 21.1067C36.2488 21.6809 35.7781 22.2318 34.8386 23.3334C34.5824 23.6167 34.343 23.9148 34.1218 24.2261C33.7623 24.7623 33.5126 25.3645 33.3873 25.9978C33.3327 26.2751 33.3092 26.5623 33.2643 27.1365C33.1491 28.5781 33.0924 29.3008 32.8795 29.9024C32.6366 30.5894 32.243 31.2134 31.7276 31.7285C31.2122 32.2436 30.588 32.6368 29.9009 32.8793C29.2993 33.0942 28.5785 33.1508 27.1351 33.2641C26.5609 33.311 26.2757 33.3344 25.9984 33.3891C25.3644 33.5142 24.7616 33.7638 24.2248 34.1236C23.9142 34.3449 23.6168 34.5843 23.3342 34.8404C22.2326 35.778 21.6818 36.2468 21.1075 36.5222C20.4498 36.8367 19.73 37 19.001 37C18.2719 37 17.5522 36.8367 16.8944 36.5222C16.3182 36.2488 15.7674 35.78 14.6678 34.8404C14.3845 34.5842 14.0865 34.3449 13.7752 34.1236C13.2384 33.7638 12.6356 33.5142 12.0016 33.3891C11.6255 33.3253 11.2459 33.2835 10.8649 33.2641C9.42146 33.1508 8.70072 33.0922 8.09914 32.8793C7.412 32.6368 6.78785 32.2436 6.27244 31.7285C5.75703 31.2134 5.36343 30.5894 5.12049 29.9024C4.90759 29.3008 4.85095 28.5781 4.73571 27.1365C4.717 26.7549 4.67591 26.3746 4.61265 25.9978C4.48736 25.3645 4.23774 24.7623 3.87825 24.2261C3.72199 23.9917 3.53448 23.7729 3.16142 23.3334C2.22388 22.2318 1.75315 21.6809 1.47775 21.1067C1.16324 20.4489 1 19.7291 1 19C1 18.2709 1.16324 17.5511 1.47775 16.8934C1.75315 16.3191 2.22192 15.7682 3.16142 14.6666C3.53448 14.2271 3.72199 14.0083 3.87825 13.7739C4.23774 13.2377 4.48736 12.6355 4.61265 12.0022C4.66734 11.7249 4.69078 11.4377 4.73571 10.8635C4.85095 9.42192 4.90759 8.70114 5.12049 8.09757C5.36363 7.41036 5.75753 6.7863 6.2733 6.27119C6.78906 5.75607 7.4136 5.36297 8.10109 5.12071C8.70268 4.9078 9.42341 4.8492 10.8668 4.73591C11.4411 4.68903 11.7262 4.66559 12.0036 4.6109C12.6375 4.48584 13.2404 4.2362 13.7771 3.87645C14.0115 3.72018 14.2283 3.53462 14.6658 3.15958Z" fill="#27C0FF" stroke="#0B9FD9"/>
<path d="M27.4557 17.9329C27.3025 17.9086 27.141 17.9142 26.9792 17.9544L26.4654 18.0833C25.6068 15.4661 23.6992 13.4712 21.3967 12.5208C19.8525 11.884 18.1324 11.7138 16.431 12.1401C12.0048 13.2477 9.36317 17.9573 10.4937 22.6883L9.53485 22.9303C8.2125 17.4423 11.1305 12.0129 16.0874 10.7736C17.7103 10.3671 19.3531 10.4617 20.8757 10.9611C23.868 11.9441 26.4053 14.4999 27.4557 17.9329Z" fill="#FFCE00"/>
<path d="M29.0088 21.1348L28.4318 18.8269C28.4035 18.7134 28.3609 18.6117 28.3065 18.5171C28.1244 18.2026 27.8099 17.9898 27.4552 17.933C27.3015 17.9094 27.1407 17.9141 26.9799 17.9543L26.4644 18.082L26.4171 18.0938C26.4242 18.108 26.4266 18.1245 26.4313 18.1387L27.1123 20.8605L27.5687 22.6837C27.5735 22.7002 27.5758 22.7144 27.5782 22.7286L28.1386 22.5891C28.7795 22.4283 29.1696 21.7756 29.0088 21.1348Z" fill="#00D4FC"/>
<path d="M11.113 24.8638L10.4296 22.142C10.4249 22.1278 10.4225 22.1112 10.4201 22.097L9.8597 22.2366C9.33 22.369 8.97057 22.8372 8.95402 23.3574C8.94929 23.4662 8.96111 23.5774 8.98949 23.6885L9.56648 25.9988C9.72728 26.642 10.3776 27.0322 11.0184 26.8714L11.5812 26.7319V26.7295C11.5765 26.7153 11.5717 26.7011 11.5694 26.6869L11.113 24.8638Z" fill="#00D4FC"/>
<path d="M26.3275 24.7526H26.3251C26.2447 24.7739 26.1643 24.7881 26.0792 24.7952C25.2539 24.8803 24.4665 24.3459 24.2584 23.5111L23.1209 18.9662C22.9128 18.1338 23.355 17.2896 24.1236 16.9751C24.2016 16.942 24.2796 16.9183 24.36 16.8971L24.3624 16.8947C25.261 16.6724 26.1714 17.2068 26.4173 18.0936C26.4244 18.1078 26.4268 18.1243 26.4315 18.1385L27.1126 20.8603L27.5689 22.6835C27.5737 22.7 27.576 22.7142 27.5784 22.7284C27.7792 23.6294 27.2258 24.528 26.3275 24.7526Z" fill="#845EF9"/>
<path d="M13.8748 27.8481C13.7991 27.8813 13.7187 27.9073 13.6383 27.9262L13.636 27.9285C12.7397 28.1532 11.8293 27.6211 11.581 26.732V26.7296C11.5763 26.7155 11.5716 26.7013 11.5692 26.6871L11.1128 24.8639L10.4294 22.1421C10.4247 22.1279 10.4223 22.1114 10.42 22.0972C10.3916 21.9719 10.3798 21.8513 10.3798 21.7283C10.3798 20.9621 10.8953 20.2645 11.6709 20.073C11.7537 20.0494 11.8364 20.0352 11.9192 20.0281C12.7445 19.9453 13.5319 20.4797 13.74 21.3145L14.8774 25.8594C15.0855 26.6918 14.6433 27.5336 13.8748 27.8481Z" fill="#845EF9"/>
<path d="M24.1239 16.9752C23.3551 17.2914 22.9129 18.1335 23.1215 18.9668L24.2587 23.5124C24.4673 24.3458 25.2533 24.8788 26.0802 24.7955L24.1239 16.9752Z" fill="#D811AD"/>
<path d="M13.7405 21.3136C13.5319 20.4803 12.7454 19.9456 11.9185 20.0286L13.8748 27.8489C14.6435 27.5327 15.086 26.6923 14.8776 25.8592L13.7405 21.3136Z" fill="#D811AD"/>
<g opacity="0.25">
<path d="M29.0093 21.1338L28.4316 18.8261C28.4046 18.7142 28.3621 18.6111 28.3067 18.5182C28.1315 19.3054 27.782 20.0529 27.2703 20.6791C27.2187 20.742 27.1674 20.8018 27.113 20.8616L27.5689 22.6846C27.573 22.7002 27.5756 22.7141 27.5782 22.7295L28.1391 22.5888C28.7794 22.4278 29.1703 21.7772 29.0093 21.1338Z" fill="#3C1DA1"/>
<path d="M11.1124 24.8638C11.0363 24.838 10.9604 24.8092 10.8859 24.7772C10.1403 24.4663 9.47958 23.9721 8.95556 23.3591C8.95036 23.4667 8.96195 23.5781 8.98867 23.6899L9.56637 25.9977C9.7274 26.6411 10.3777 27.0317 11.0197 26.8709L11.5806 26.7303C11.5764 26.7163 11.5723 26.7023 11.5683 26.6867L11.1124 24.8638Z" fill="#3C1DA1"/>
</g>
<path opacity="0.5" d="M27.4557 17.9328C27.3025 17.9084 27.141 17.9141 26.9793 17.9543L26.4654 18.0832C25.6068 15.4659 23.6992 13.4711 21.3967 12.5207C21.265 11.9884 21.0876 11.466 20.8757 10.9609C23.868 11.9439 26.4053 14.4997 27.4557 17.9328Z" fill="#E38921"/>
<g opacity="0.25">
<path d="M27.5685 22.6843L26.7113 19.2578C26.4192 20.0999 25.96 20.8731 25.3201 21.4948C24.934 21.8708 24.4755 22.1751 23.9786 22.3932L24.2586 23.5124C24.4672 24.3457 25.2532 24.8787 26.0801 24.7955C26.1627 24.7879 26.2452 24.773 26.3265 24.7527L26.3282 24.7522C27.2407 24.524 27.7972 23.5987 27.5685 22.6843Z" fill="#0A1640"/>
<path d="M14.5977 24.7399C14.0566 24.7815 13.509 24.729 12.9911 24.5791C12.1339 24.332 11.3646 23.8661 10.7103 23.2607L11.5675 26.6872C11.7962 27.6016 12.7227 28.1559 13.6355 27.9275L13.6374 27.927C13.7185 27.9067 13.7984 27.8811 13.8748 27.8487C14.6435 27.5326 15.086 26.6922 14.8776 25.8591L14.5977 24.7399Z" fill="#0A1640"/>
</g>
<path d="M29.1341 21.1017L28.5571 18.7961C28.5264 18.6731 28.4791 18.5572 28.4176 18.4556C28.2332 18.1292 27.9187 17.9022 27.5545 17.8218C26.5069 14.4687 24.0264 11.8604 20.9168 10.8388C19.3253 10.3162 17.644 10.25 16.0549 10.6473C11.2262 11.8557 8.2798 17.0509 9.28953 22.3928C9.01286 22.6292 8.83787 22.9745 8.82605 23.3528V23.4049C8.82605 23.5113 8.83787 23.6153 8.86389 23.7217L9.44087 26.0297C9.59221 26.6327 10.1337 27.0371 10.7296 27.0371C10.836 27.0371 10.9425 27.0229 11.0512 26.9969L11.4934 26.8857C11.7536 27.6235 12.4653 28.1059 13.2291 28.1059C13.3734 28.1059 13.52 28.0893 13.6666 28.0539C13.6713 28.0515 13.6784 28.0491 13.6831 28.0468C13.7659 28.0255 13.8369 28.0019 13.9007 27.9758C13.9078 27.9735 13.9149 27.9711 13.9243 27.9687C13.9787 27.9451 14.0308 27.9215 14.0828 27.8931C14.1845 27.8387 14.2814 27.7748 14.3689 27.7039C14.4138 27.6684 14.454 27.633 14.4942 27.5928C14.9554 27.1458 15.1658 26.4743 15.0027 25.8287L13.8652 21.2814C13.6453 20.4041 12.8011 19.8105 11.9049 19.9004C11.815 19.9098 11.7275 19.924 11.6471 19.9453C11.6448 19.9453 11.6424 19.9477 11.6377 19.9477C11.0441 20.0967 10.5901 20.5223 10.382 21.0544C10.1337 16.9823 12.6285 13.2248 16.4617 12.2648C18.0791 11.8604 19.7699 11.9881 21.3471 12.6407C23.3903 13.4826 25.0314 15.1024 25.9701 17.1621C25.5327 16.7861 24.9297 16.6229 24.3314 16.7719C24.3267 16.7719 24.3219 16.7742 24.3172 16.7766C24.2274 16.7979 24.147 16.8263 24.0737 16.857C23.8987 16.928 23.7426 17.0249 23.6031 17.1408C23.5676 17.1715 23.5345 17.1999 23.5038 17.233C23.1207 17.6043 22.9102 18.134 22.9433 18.6778C22.9504 18.7417 22.9575 18.8055 22.9693 18.8717C22.9764 18.9143 22.9859 18.9545 22.9953 18.9971L24.1328 23.5444C24.1588 23.6461 24.1919 23.7454 24.2344 23.84C24.2746 23.9322 24.3243 24.0221 24.3811 24.1072C24.7168 24.6109 25.2938 24.9325 25.9134 24.9325C25.9725 24.9325 26.0316 24.9301 26.0931 24.923C26.1026 24.923 26.112 24.9206 26.1215 24.9183C26.2019 24.9112 26.2799 24.897 26.3579 24.8781C26.3627 24.8757 26.3674 24.8757 26.3745 24.8733C27.2849 24.6369 27.869 23.7336 27.7271 22.8232L28.1717 22.712C28.8787 22.5347 29.3115 21.8134 29.1341 21.1017ZM12.0846 20.1487C12.1437 20.1487 12.2028 20.151 12.2596 20.1605C12.288 20.1629 12.3187 20.1652 12.3471 20.1723C12.4322 20.1865 12.515 20.2078 12.5954 20.2362C12.7585 20.2906 12.9123 20.3757 13.0494 20.4821H13.0518C13.1014 20.5223 13.1487 20.5649 13.196 20.6098C13.2433 20.6547 13.2859 20.7044 13.3237 20.754C13.4585 20.9243 13.5602 21.1229 13.6146 21.3452L14.752 25.8902C14.7591 25.9209 14.7662 25.954 14.7733 25.9848C14.8111 26.1881 14.8064 26.3939 14.7662 26.5878C14.7591 26.6185 14.752 26.6492 14.7425 26.68C14.7378 26.6989 14.7331 26.7178 14.726 26.7367C14.7165 26.7698 14.7071 26.8006 14.6929 26.8337C14.6456 26.959 14.5817 27.0796 14.5037 27.1884C14.4871 27.212 14.4706 27.2333 14.454 27.2546C14.3594 27.3752 14.2483 27.4793 14.123 27.5667C14.0946 27.5857 14.0662 27.6046 14.0379 27.6211C14.0142 27.6377 13.9882 27.6519 13.9622 27.6637L12.0799 20.1487C12.0822 20.1487 12.0846 20.1487 12.0846 20.1487ZM11.6944 20.1983C11.6968 20.1983 11.7015 20.1983 11.7063 20.196C11.7417 20.1865 11.7819 20.1771 11.8221 20.1723L13.721 27.7677C13.6855 27.7796 13.6477 27.7914 13.6051 27.8008C13.6004 27.8032 13.5957 27.8056 13.5909 27.8056C12.82 27.9924 12.0231 27.562 11.7465 26.8219C11.7299 26.7793 11.7134 26.7344 11.7015 26.6871L11.6732 26.5736L10.5759 22.1918L10.5546 22.109C10.5405 22.0523 10.5286 21.9955 10.5215 21.9388C10.4151 21.156 10.9117 20.3993 11.6944 20.1983ZM10.4698 22.8279L11.4227 26.6374L10.9876 26.7462C10.4154 26.8904 9.83365 26.5405 9.69177 25.9682L9.11478 23.6579C9.08877 23.5609 9.07931 23.4616 9.08404 23.3623C9.09113 23.1116 9.18809 22.8752 9.35125 22.6955C9.41273 22.6198 9.4884 22.5559 9.57117 22.5016C9.57353 22.5016 9.57353 22.5016 9.57353 22.5016C9.66812 22.4377 9.77453 22.3904 9.8904 22.362L10.2735 22.2674L10.3255 22.2533L10.4698 22.8279ZM21.4465 12.4019C19.8172 11.7303 18.072 11.5956 16.4002 12.0141C12.1508 13.0782 9.49526 17.4718 10.2259 22.0121L9.82868 22.1114C9.7199 22.1398 9.61586 22.18 9.52127 22.232C8.59904 17.0627 11.458 12.0638 16.1188 10.898C16.7809 10.7324 17.4619 10.6497 18.143 10.6497C19.0463 10.6497 19.9543 10.7939 20.8364 11.0824C23.8348 12.0685 26.2303 14.568 27.2755 17.7887C27.2731 17.7887 27.2731 17.7887 27.2707 17.7887C27.1927 17.7887 27.1123 17.7958 27.0295 17.8124C27.0012 17.8171 26.9728 17.8218 26.9468 17.8289L26.5495 17.9282C25.684 15.3956 23.8303 13.3856 21.4465 12.4019ZM25.9136 24.6747C25.514 24.6747 25.1356 24.521 24.8471 24.2585C24.7526 24.1687 24.6698 24.0717 24.5965 23.9629C24.5492 23.892 24.5066 23.814 24.4712 23.7336C24.4357 23.6532 24.4049 23.568 24.3837 23.4805L23.2462 18.9356C23.1871 18.7015 23.1848 18.4626 23.232 18.238C23.2391 18.2025 23.2486 18.1671 23.2581 18.1339C23.2628 18.1127 23.2699 18.0914 23.277 18.0701C23.2841 18.0465 23.2912 18.0252 23.3006 18.0015C23.3101 17.9755 23.3195 17.9495 23.3314 17.9259C23.3432 17.8975 23.3574 17.8667 23.3739 17.8384C23.3858 17.8123 23.3976 17.7911 23.4118 17.7674C23.4283 17.739 23.4449 17.7107 23.4638 17.6823C23.5158 17.6019 23.5773 17.5262 23.6435 17.4576C23.6577 17.4411 23.6719 17.4269 23.6884 17.4127C23.7428 17.3583 23.8019 17.3087 23.8634 17.2661C23.9013 17.2401 23.9391 17.2141 23.9793 17.1904C23.9982 17.1786 24.0171 17.1691 24.036 17.1597L25.9184 24.6747C25.9158 24.6747 25.9136 24.6747 25.9136 24.6747ZM26.2965 24.6274C26.2917 24.6274 26.287 24.6298 26.2823 24.6322C26.2468 24.6392 26.2113 24.6487 26.1759 24.6534L24.277 17.0556C24.3125 17.0438 24.3527 17.0344 24.3929 17.0225C24.3952 17.0202 24.4 17.0202 24.4047 17.0178C25.1898 16.831 25.982 17.2637 26.2539 18.0039C26.2752 18.0583 26.2917 18.1127 26.3059 18.1694L26.3272 18.2498L27.4221 22.634L27.4433 22.7167C27.4481 22.7286 27.4481 22.7404 27.4528 22.7569C27.4623 22.7995 27.4717 22.8444 27.4765 22.887C27.5829 23.6674 27.0768 24.4335 26.2965 24.6274ZM28.1078 22.4637L27.6727 22.5725L26.5755 18.1883L27.0106 18.0796C27.1525 18.0441 27.2944 18.037 27.4363 18.0606C27.7579 18.1103 28.0345 18.3018 28.1953 18.5832C28.245 18.6684 28.2828 18.7606 28.3065 18.8575L28.8858 21.1655C29.0277 21.7378 28.6801 22.3195 28.1078 22.4637Z" fill="#0A1640"/>
</svg>
