<svg width="390" height="844" viewBox="0 0 390 844" fill="none" xmlns="http://www.w3.org/2000/svg">
<path d="M624 485.029C624 771.096 431.93 1003 195 1003C-41.9302 1003 -234 771.096 -234 485.029C-234 198.961 -33.5422 -49.7612 194 -90C429 -131.558 624 198.961 624 485.029Z" fill="url(#paint0_linear_45_1146)"/>
<path d="M20.9847 848.315C23.7872 846.039 26.1614 843.224 28.9282 840.881C33.2193 837.246 38.483 834.768 44.0211 833.775C44.5434 833.681 45.2372 833.238 44.92 832.813C44.8037 832.656 44.5925 832.611 44.4003 832.579C37.6261 831.447 30.505 832.482 24.3352 835.496C24.0579 835.632 23.7099 835.767 23.4612 835.584C23.2199 835.405 23.237 835.046 23.2846 834.75C24.4981 827.178 29.7261 820.366 36.7327 817.23C37.2643 816.992 37.8596 816.259 37.3476 815.982C37.2037 815.904 37.0282 815.924 36.8661 815.948C28.491 817.182 20.7609 822.252 16.2988 829.437C16.1207 829.724 15.8512 830.057 15.5232 829.975C15.2158 829.898 15.1202 829.516 15.0793 829.202C14.5097 824.813 13.6792 820.423 12.0121 816.322C11.0116 813.862 9.70114 811.513 8.03333 809.44C7.17488 808.373 6.20453 807.239 5.09402 806.424C3.7095 805.408 3.34662 806.351 3.63475 807.843C5.16649 815.777 5.89629 823.864 5.80967 831.944C5.80335 832.527 5.60743 833.306 5.02299 833.299C4.66496 833.295 4.40695 832.969 4.20173 832.676C2.11343 829.699 -0.299459 826.89 -3.30457 824.839C-6.30969 822.788 -9.96575 821.54 -13.5884 821.89C-13.7501 821.906 -13.9208 821.928 -14.049 822.027C-14.4654 822.35 -14.0643 822.998 -13.6676 823.345C-7.9559 828.341 -2.04049 834.088 -0.879414 841.581C-0.831825 841.889 -0.810246 842.251 -1.03889 842.462C-1.3668 842.765 -1.88769 842.513 -2.26171 842.269C-6.97888 839.193 -13.178 838.511 -18.4528 840.486C-18.6859 840.573 -18.9499 840.703 -18.9938 840.948C-19.0547 841.289 -18.6566 841.514 -18.3275 841.625C-13.0571 843.404 -7.04991 844.834 -3.99981 849.48C-2.99562 851.01 -2.26171 852.927 -0.580881 853.653C0.226629 854.002 1.13564 854.01 2.01565 853.996C7.94966 853.902 14.0926 852.989 19.0533 849.735C19.724 849.296 20.3649 848.819 20.9847 848.315Z" fill="#45BD68"/>
<path d="M256.153 519.381C254.583 519.381 253.311 518.109 253.311 516.539C253.311 514.968 254.583 513.696 256.153 513.696C257.723 513.696 258.995 514.968 258.995 516.539C258.995 518.109 257.723 519.381 256.153 519.381ZM268.837 511.337C268.719 511.455 268.344 510.043 266.284 509.699C263.751 509.263 260.43 511.149 258.795 513.061C259.719 510.716 259.923 507.487 258.561 505.523C257.532 504.086 256.191 504.081 256.112 504C256.112 504.087 255.712 503.965 254.835 504.478C251.604 506.375 252.837 512.578 253.58 513.342C251.335 511.467 247.382 510.335 246.095 512.91L246.069 512.949C245.555 515.416 248.01 517.013 250.495 517.521C247.767 519.771 245.735 523.648 248.247 526.176C251.844 527.974 255.391 523.804 256.295 519.757L256.305 519.794C256.869 522.255 259.1 525.312 261.578 525.312C262.496 525.312 263.046 524.899 263.125 524.899C263.125 524.82 263.963 524.163 263.963 522.785C263.963 520.784 262.257 518.733 260.446 517.577C263.707 517.897 268.673 515.985 268.953 512.588C269.014 511.843 268.837 511.45 268.837 511.337Z" fill="#F576A7"/>
<path d="M256.153 513.695C254.584 513.695 253.311 514.968 253.311 516.539C253.311 518.108 254.584 519.381 256.153 519.381C257.723 519.381 258.995 518.108 258.995 516.539C258.995 514.968 257.723 513.695 256.153 513.695Z" fill="#F7E027"/>
<path d="M30.5224 437.104C28.8236 435.98 28.3556 433.69 29.4765 431.989C30.5996 430.288 32.8857 429.819 34.5845 430.942C36.2833 432.064 36.7513 434.353 35.6305 436.057C34.5097 437.758 32.2212 438.227 30.5224 437.104ZM50 437.458C49.8783 437.484 50.2434 435.565 48.4065 433.857C46.0128 431.605 41.1129 431.193 37.837 432.188C40.535 430.314 43.1042 426.93 43.0317 423.805C42.9428 421.466 41.4943 420.541 41.4663 420.402C41.4195 420.475 40.9117 420.067 39.7441 420.006C34.8747 419.749 31.8047 427.408 32.0527 428.716C30.9623 425.077 27.4922 421.021 24.2584 422.891L24.2023 422.914C21.8857 425.22 23.3997 428.709 25.7209 431.04C21.1603 431.525 16.195 434.274 17.1099 438.812C19.7189 443.335 26.5352 441.355 30.4054 437.615C29.2565 440.694 29.4577 445.631 32.158 447.414C33.1712 448.084 34.0417 448.018 34.1282 448.075C34.175 448 35.5603 447.876 36.5454 446.381C37.9798 444.204 37.589 440.738 36.4424 438.184C39.7136 440.856 46.462 442.432 49.2325 438.897C49.8315 438.133 49.9485 437.538 50 437.458Z" fill="#F2E43B"/>
<path d="M34.5499 430.954C32.8478 429.831 30.5571 430.3 29.4318 432.002C28.3087 433.704 28.7776 435.995 30.4797 437.12C32.1819 438.244 34.4749 437.775 35.5979 436.072C36.721 434.368 36.252 432.077 34.5499 430.954Z" fill="#F681C6"/>
<path d="M186.974 651.146C183.505 647.68 178.594 653.756 176.136 658.059C177.184 653.314 177.421 647 173 647C168.578 647 168.816 653.314 169.864 658.059C167.406 653.756 162.494 647.68 159.026 651.146C154.412 655.756 166.708 662.925 169.227 663.464C170.108 663.653 170.744 663.479 171.057 663.167C171.179 663.044 171.279 662.873 171.345 662.658C171.397 662.757 171.448 662.846 171.495 662.919C171.984 663.673 172.556 664 173 664C173.444 664 174.015 663.673 174.505 662.919C174.552 662.846 174.602 662.757 174.654 662.658C174.721 662.873 174.82 663.044 174.942 663.167C175.256 663.479 175.892 663.653 176.772 663.464C179.291 662.925 191.588 655.756 186.974 651.146Z" fill="#56B9AA"/>
<path d="M161.803 350.877C157.756 346.8 152.026 353.948 149.159 359.011C150.381 353.428 150.658 346 145.5 346C140.341 346 140.618 353.428 141.841 359.011C138.974 353.948 133.243 346.8 129.198 350.877C123.813 356.301 138.159 364.735 141.099 365.369C142.126 365.592 142.868 365.388 143.234 365.02C143.376 364.875 143.492 364.674 143.57 364.421C143.63 364.537 143.689 364.642 143.744 364.728C144.315 365.615 144.982 366 145.5 366C146.018 366 146.684 365.615 147.255 364.728C147.311 364.642 147.369 364.537 147.43 364.421C147.508 364.674 147.624 364.875 147.766 365.02C148.132 365.388 148.874 365.592 149.901 365.369C152.84 364.735 167.186 356.301 161.803 350.877Z" fill="#56B9AA"/>
<path d="M38.0733 367H34.1099V346.573H38.0733V367Z" fill="#BF9057"/>
<path d="M36.0915 292L51.1829 347.183H21L36.0915 292Z" fill="#45BD68"/>
<path d="M70.0852 362.122H67.3413V345.964H70.0852V362.122Z" fill="#BF9057"/>
<path d="M68.7141 303.281L78.9268 346.573H58.5L68.7141 303.281Z" fill="#45BD68"/>
<path d="M335.263 449.263H332.184V433.394H335.263V449.263Z" fill="#BF9057"/>
<path d="M333.724 390.999L345.447 433.868H322L333.724 390.999Z" fill="#45BD68"/>
<path d="M360.132 445.473H358V432.921H360.132V445.473Z" fill="#BF9057"/>
<path d="M359.066 399.762L367 433.394H351.131L359.066 399.762Z" fill="#45BD68"/>
<path d="M103.084 306.084H100.279V291.626H103.084V306.084Z" fill="#BF9057"/>
<path d="M101.682 253L112.363 292.058H91L101.682 253Z" fill="#45BD68"/>
<path d="M125.742 302.632H123.8V291.195H125.742V302.632Z" fill="#BF9057"/>
<path d="M124.771 260.984L132 291.626H117.542L124.771 260.984Z" fill="#45BD68"/>
<defs>
<linearGradient id="paint0_linear_45_1146" x1="195" y1="-32.9423" x2="195" y2="1003" gradientUnits="userSpaceOnUse">
<stop stop-color="#8DD44F"/>
<stop offset="0.721794" stop-color="#558030"/>
<stop offset="1" stop-color="#496E29"/>
</linearGradient>
</defs>
</svg>
