<svg width="79" height="70" viewBox="0 0 79 70" fill="none" xmlns="http://www.w3.org/2000/svg">
<path d="M63.6595 5.99201L77.314 66.9006C77.7251 68.7344 76.5709 70.5552 74.734 70.9672L29.8883 81.0207C29.475 81.1133 29.0626 81.1278 28.6634 81.0688C27.303 80.8766 26.1371 79.8648 25.8186 78.4447L12.1641 17.5361C11.7531 15.7022 12.9072 13.8814 14.7446 13.4695L59.5903 3.41593C61.4277 3.00398 63.2485 4.15813 63.6595 5.99201Z" fill="#6B7FFF"/>
<path d="M61.1013 8.40679L64.1911 22.1906C64.4986 23.5614 63.635 24.9239 62.2641 25.2315L21.6445 34.3375C21.1884 34.4397 20.7297 34.4127 20.3138 34.2794C19.9259 34.1549 19.5729 33.9369 19.2855 33.6491C18.9561 33.3223 18.7128 32.8981 18.6031 32.4102L15.5133 18.6264C15.2058 17.2555 16.0694 15.893 17.4403 15.5855L58.0599 6.47942C58.7489 6.32478 59.4299 6.46544 59.9829 6.81274C60.477 7.12901 60.8623 7.60648 61.0445 8.20409C61.0668 8.26962 61.0851 8.33603 61.1013 8.40679Z" fill="#FF8CDB"/>
<path d="M58.86 41.1205L64.9727 39.7501C65.3161 39.6732 65.5319 39.3324 65.455 38.9891L64.5839 35.1038C64.5071 34.7604 64.1663 34.5446 63.823 34.6215L57.7097 35.9919C57.3664 36.0688 57.1506 36.4095 57.2275 36.7529L58.0985 40.6382C58.1763 40.9815 58.5166 41.1978 58.86 41.1205Z" fill="#FF8CDB"/>
<path d="M50.3102 43.037L56.4235 41.6666C56.7668 41.5897 56.9826 41.2489 56.9058 40.9056L56.0347 37.0203C55.9578 36.6769 55.617 36.4611 55.2737 36.538L49.1609 37.9084C48.8175 37.9853 48.6017 38.326 48.6786 38.6694L49.5497 42.5547C49.6261 42.898 49.9669 43.1138 50.3102 43.037Z" fill="#FF8CDB"/>
<path d="M46.5001 66.0897L52.6134 64.7193C52.9567 64.6424 53.1725 64.3017 53.0956 63.9583L52.2246 60.073C52.1477 59.7297 51.8069 59.5139 51.4636 59.5907L45.3504 60.9611C45.007 61.038 44.7912 61.3787 44.8681 61.7221L45.7392 65.6074C45.816 65.9508 46.1568 66.1666 46.5001 66.0897Z" fill="#FF8CDB"/>
<path d="M48.0802 73.1351L54.1934 71.7647C54.5368 71.6878 54.7526 71.3471 54.6757 71.0037L53.8046 67.1184C53.7278 66.7751 53.387 66.5593 53.0437 66.6361L46.9304 68.0065C46.5871 68.0834 46.3713 68.4242 46.4482 68.7675L47.3192 72.6528C47.3961 72.9962 47.7369 73.212 48.0802 73.1351Z" fill="#FF8CDB"/>
<path d="M44.9215 59.0443L51.0343 57.6739C51.3776 57.597 51.5934 57.2563 51.5165 56.9129L50.6455 53.0276C50.5686 52.6842 50.2279 52.4684 49.8845 52.5453L43.7713 53.9157C43.4279 53.9926 43.2121 54.3333 43.289 54.6767L44.1601 58.562C44.2374 58.9054 44.5781 59.1212 44.9215 59.0443Z" fill="#FF8CDB"/>
<path d="M43.3425 51.9986L49.4557 50.6283C49.7991 50.5514 50.0149 50.2106 49.938 49.8673L49.0669 45.982C48.99 45.6386 48.6493 45.4228 48.3059 45.4997L42.1931 46.8701C41.8498 46.947 41.634 47.2877 41.7109 47.631L42.5819 51.5164C42.6588 51.8593 42.9991 52.0755 43.3425 51.9986Z" fill="#FF8CDB"/>
<path d="M41.7634 44.9527L47.8766 43.5824C48.2199 43.5055 48.4358 43.1647 48.3589 42.8214L47.4878 38.9361C47.4109 38.5927 47.0702 38.3769 46.7268 38.4538L40.614 39.8242C40.2707 39.9011 40.0549 40.2418 40.1318 40.5851L41.0028 44.4705C41.0793 44.8138 41.42 45.0301 41.7634 44.9527Z" fill="#FF8CDB"/>
<path d="M37.9527 68.0062L44.0655 66.6358C44.4089 66.5589 44.6247 66.2182 44.5478 65.8748L43.6767 61.9895C43.5998 61.6462 43.2591 61.4304 42.9157 61.5072L36.8025 62.8776C36.4592 62.9545 36.2433 63.2953 36.3202 63.6386L37.1913 67.5239C37.2691 67.8668 37.6094 68.0831 37.9527 68.0062Z" fill="#FF8CDB"/>
<path d="M39.5338 75.0516L45.6466 73.6812C45.9899 73.6043 46.2057 73.2636 46.1288 72.9202L45.2578 69.0349C45.1809 68.6916 44.8402 68.4758 44.4968 68.5527L38.3836 69.923C38.0402 69.9999 37.8244 70.3407 37.9013 70.684L38.7724 74.5693C38.8497 74.9127 39.1904 75.1285 39.5338 75.0516Z" fill="#FF8CDB"/>
<path d="M36.3737 60.9603L42.4869 59.5899C42.8303 59.513 43.0461 59.1723 42.9692 58.8289L42.0982 54.9436C42.0213 54.6003 41.6805 54.3845 41.3372 54.4613L35.2244 55.8317C34.881 55.9086 34.6652 56.2494 34.7421 56.5927L35.6132 60.478C35.6896 60.8214 36.0304 61.0376 36.3737 60.9603Z" fill="#FF8CDB"/>
<path d="M34.7937 53.9149L40.9069 52.5445C41.2502 52.4676 41.466 52.1269 41.3892 51.7835L40.5181 47.8982C40.4412 47.5549 40.1005 47.339 39.7571 47.4159L33.6443 48.7863C33.3009 48.8632 33.0851 49.2039 33.162 49.5473L34.0331 53.4326C34.1096 53.776 34.4503 53.9918 34.7937 53.9149Z" fill="#FF8CDB"/>
<path d="M33.215 46.8692L39.3282 45.4988C39.6716 45.422 39.8874 45.0812 39.8105 44.7379L38.9394 40.8525C38.8625 40.5092 38.5218 40.2934 38.1784 40.3703L32.0652 41.7407C31.7218 41.8175 31.506 42.1583 31.5829 42.5017L32.454 46.387C32.5309 46.7303 32.8716 46.9461 33.215 46.8692Z" fill="#FF8CDB"/>
<path d="M29.405 69.9222L35.5182 68.5518C35.8616 68.4749 36.0774 68.1342 36.0005 67.7908L35.1294 63.9055C35.0525 63.5622 34.7118 63.3464 34.3684 63.4233L28.2556 64.7936C27.9123 64.8705 27.6965 65.2113 27.7734 65.5546L28.6444 69.4399C28.7209 69.7833 29.0616 69.9991 29.405 69.9222Z" fill="#FF8CDB"/>
<path d="M27.8263 62.8766L33.9395 61.5062C34.2829 61.4293 34.4987 61.0886 34.4218 60.7452L33.5508 56.8599C33.4739 56.5165 33.1331 56.3007 32.7898 56.3776L26.6765 57.748C26.3332 57.8249 26.1174 58.1656 26.1943 58.509L27.0653 62.3943C27.1427 62.7376 27.4834 62.9535 27.8263 62.8766Z" fill="#FF8CDB"/>
<path d="M26.2472 55.8312L32.3604 54.4608C32.7038 54.3839 32.9196 54.0431 32.8427 53.6998L31.9716 49.8145C31.8948 49.4711 31.554 49.2553 31.2106 49.3322L25.0974 50.7026C24.7541 50.7795 24.5383 51.1202 24.6152 51.4636L25.4862 55.3489C25.5631 55.6922 25.9038 55.908 26.2472 55.8312Z" fill="#FF8CDB"/>
<path d="M24.6656 48.7857L30.7784 47.4154C31.1218 47.3385 31.3376 46.9977 31.2607 46.6544L30.3896 42.7691C30.3127 42.4257 29.972 42.2099 29.6286 42.2868L23.5154 43.6572C23.172 43.7341 22.9562 44.0748 23.0331 44.4182L23.9042 48.3035C23.9815 48.6468 24.3223 48.8626 24.6656 48.7857Z" fill="#FF8CDB"/>
<path d="M23.4731 21.1108L20.0076 21.8875C19.6585 21.9657 19.3121 21.746 19.2339 21.3969L18.4572 17.9314C18.379 17.5824 18.5983 17.236 18.9478 17.1578L22.4133 16.3811C22.7623 16.3029 23.1088 16.5221 23.187 16.8716L23.9637 20.3371C24.0414 20.6857 23.8221 21.0326 23.4731 21.1108Z" fill="#FFCE00"/>
<path d="M29.0102 19.8693L25.5447 20.646C25.1957 20.7242 24.8492 20.5049 24.7711 20.1555L23.9943 16.69C23.9161 16.3409 24.1354 15.9945 24.4849 15.9163L27.9504 15.1396C28.2994 15.0614 28.6459 15.2807 28.7241 15.6302L29.5008 19.0957C29.579 19.4447 29.3592 19.7911 29.0102 19.8693Z" fill="#FFCE00"/>
<path d="M34.2586 14.3904L35.0357 17.8568C35.1135 18.2032 34.8942 18.5492 34.5478 18.6265L31.0814 19.4037C30.9154 19.4408 30.7494 19.4115 30.6122 19.3307C30.4633 19.2455 30.3484 19.0966 30.3078 18.9166L29.5306 15.4502C29.452 15.1003 29.6713 14.7543 30.0212 14.6761L33.4876 13.899C33.668 13.8588 33.8515 13.899 33.9921 13.9973C34.1236 14.0864 34.2215 14.224 34.2586 14.3904Z" fill="#FFCE00"/>
<path d="M40.1838 37.9076L46.297 36.5372C46.6404 36.4603 46.8562 36.1196 46.7793 35.7762L46.1694 33.0564C46.0926 32.7131 45.7518 32.4973 45.4085 32.5741L39.2957 33.9445C38.9523 34.0214 38.7365 34.3621 38.8134 34.7055L39.4232 37.4253C39.4997 37.7687 39.8404 37.9845 40.1838 37.9076Z" fill="#FFCE00"/>
<path d="M31.6344 39.8241L37.7476 38.4537C38.091 38.3768 38.3068 38.0361 38.2299 37.6927L37.6201 34.9729C37.5432 34.6296 37.2025 34.4138 36.8591 34.4906L30.7459 35.861C30.4025 35.9379 30.1867 36.2787 30.2636 36.622L30.8734 39.3418C30.9503 39.6852 31.2911 39.901 31.6344 39.8241Z" fill="#FFCE00"/>
<path d="M23.085 41.7401L29.1978 40.3697C29.5412 40.2928 29.757 39.9521 29.6801 39.6087L29.0703 36.8889C28.9934 36.5456 28.6526 36.3298 28.3093 36.4067L22.1961 37.777C21.8527 37.8539 21.6369 38.1947 21.7138 38.538L22.3236 41.2578C22.4009 41.6012 22.7417 41.8174 23.085 41.7401Z" fill="#FFCE00"/>
<g opacity="0.5">
<path d="M34.2596 14.3902L35.0368 17.8566C35.1145 18.203 34.8952 18.549 34.5488 18.6263L31.0825 19.4035C30.9165 19.4406 30.7505 19.4113 30.6133 19.3305L33.9932 13.9971C34.1246 14.0862 34.2225 14.2238 34.2596 14.3902Z" fill="#E38921"/>
<path d="M28.7235 15.6308L29.5007 19.0971C29.5784 19.4435 29.3591 19.7895 29.0127 19.8673L25.5463 20.6444C25.3803 20.6816 25.2139 20.6523 25.0771 20.5715L28.457 15.238C28.5885 15.3272 28.6859 15.4648 28.7235 15.6308Z" fill="#E38921"/>
<path d="M23.1874 16.8725L23.9645 20.3388C24.0423 20.6853 23.823 21.0312 23.4766 21.109L20.0102 21.8861C19.8442 21.9233 19.6777 21.8936 19.541 21.8132L22.9209 16.4797C23.0528 16.5684 23.1502 16.7065 23.1874 16.8725Z" fill="#E38921"/>
</g>
<g opacity="0.25">
<path d="M67.1792 21.6799L77.3167 66.9C77.7277 68.7339 76.5736 70.5547 74.7367 70.9666L29.8909 81.0202C29.4777 81.1128 29.0653 81.1272 28.666 81.0683L29.0033 80.7031C30.337 79.2536 32.0856 78.2458 34.0078 77.8146L71.6311 69.3804C73.2811 69.0104 74.3199 67.3709 73.9503 65.721L65.3908 27.5393C65.1553 26.49 65.2921 25.3944 65.7783 24.4355L67.1792 21.6799Z" fill="#0A1640"/>
</g>
<path d="M48.8184 33.973C49.4304 32.8844 51.1271 32.4602 52.2677 32.8171C53.3969 33.1705 53.6241 34.4679 52.1995 35.2516C50.2481 36.3245 48.0246 35.3853 48.8184 33.973Z" fill="#D811AD"/>
<path d="M63.2862 30.7294C62.2683 30.0059 60.5524 30.3467 59.6735 31.1566C58.8033 31.9582 59.1519 33.2281 60.7743 33.329C62.997 33.4666 64.6068 31.6677 63.2862 30.7294Z" fill="#D811AD"/>
<path d="M59.7806 23.8768L23.3083 32.0502C22.6487 32.1987 21.9934 31.9279 21.6221 31.4168C21.491 31.242 21.3949 31.0367 21.3425 30.8095L19.9227 24.4665C19.7218 23.5797 20.281 22.7017 21.1678 22.5007L57.64 14.3273C58.1992 14.2007 58.754 14.3754 59.1384 14.7467C59.3655 14.9608 59.5316 15.2447 59.6058 15.5724L61.0256 21.911C61.2265 22.7978 60.6674 23.6758 59.7806 23.8768Z" fill="white"/>
<path d="M63.5964 62.2572L69.7096 60.8868C70.053 60.8099 70.2688 60.4692 70.1919 60.1258L69.3208 56.2405C69.2439 55.8971 68.9032 55.6813 68.5598 55.7582L62.447 57.1286C62.1037 57.2055 61.8879 57.5462 61.9648 57.8896L62.8358 61.7749C62.9123 62.1183 63.253 62.3341 63.5964 62.2572Z" fill="white"/>
<path d="M65.1765 69.3026L71.2897 67.9322C71.633 67.8553 71.8488 67.5146 71.772 67.1712L70.9009 63.2859C70.824 62.9425 70.4833 62.7267 70.1399 62.8036L64.0271 64.174C63.6838 64.2509 63.468 64.5916 63.5448 64.935L64.4159 68.8203C64.4924 69.1637 64.8331 69.3795 65.1765 69.3026Z" fill="white"/>
<path d="M62.0187 55.2118L68.1319 53.8414C68.4753 53.7645 68.6911 53.4237 68.6142 53.0804L67.7431 49.1951C67.6662 48.8517 67.3255 48.6359 66.9821 48.7128L60.8689 50.0832C60.5256 50.1601 60.3098 50.5008 60.3866 50.8442L61.2577 54.7295C61.3346 55.0729 61.6753 55.2887 62.0187 55.2118Z" fill="white"/>
<path d="M60.4386 48.1663L66.5518 46.796C66.8952 46.7191 67.111 46.3783 67.0341 46.035L66.163 42.1497C66.0862 41.8063 65.7454 41.5905 65.4021 41.6674L59.2888 43.0378C58.9455 43.1147 58.7297 43.4554 58.8066 43.7988L59.6776 47.6841C59.7545 48.027 60.0953 48.2432 60.4386 48.1663Z" fill="white"/>
<path d="M53.4179 59.8056L55.8681 70.7364C55.945 71.0797 56.2858 71.2955 56.6291 71.2186L62.7424 69.8482C63.0857 69.7714 63.3015 69.4306 63.2246 69.0873L60.7744 58.1565C60.6975 57.8132 60.3567 57.5974 60.0134 57.6742L53.9002 59.0446C53.5568 59.1215 53.341 59.4622 53.4179 59.8056Z" fill="white"/>
<path d="M53.4693 57.1278L59.5821 55.7574C59.9255 55.6805 60.1413 55.3398 60.0644 54.9964L59.1933 51.1111C59.1164 50.7677 58.7757 50.5519 58.4323 50.6288L52.3191 51.9992C51.9758 52.0761 51.7599 52.4168 51.8368 52.7602L52.7079 56.6455C52.7852 56.9889 53.126 57.2051 53.4693 57.1278Z" fill="white"/>
<path d="M51.8912 50.0824L58.004 48.712C58.3473 48.6351 58.5631 48.2944 58.4863 47.951L57.6152 44.0657C57.5383 43.7223 57.1976 43.5065 56.8542 43.5834L50.741 44.9538C50.3976 45.0307 50.1818 45.3714 50.2587 45.7148L51.1298 49.6001C51.2071 49.9435 51.5478 50.1593 51.8912 50.0824Z" fill="white"/>
<path d="M57.3796 29.6985C57.8863 29.7051 58.1816 29.9773 58.2834 30.3826C58.8299 32.5573 55.7379 34.0246 54.091 32.8277C53.5017 32.3991 52.7102 31.2266 53.5349 30.6308C53.9696 30.3167 55.7274 29.6767 57.3796 29.6985Z" fill="white"/>
<path opacity="0.5" d="M37.9618 13.355C39.5195 12.8295 41.0957 12.383 42.6775 11.9641C44.2584 11.5404 45.8499 11.1638 47.443 10.796C49.0397 10.4434 50.639 10.1009 52.2484 9.80475C53.8568 9.50377 55.4714 9.23162 57.1043 9.03897C57.3258 9.01276 57.5268 9.17133 57.553 9.39281C57.5757 9.58633 57.4582 9.7637 57.2804 9.82311C55.7217 10.346 54.1451 10.789 52.5624 11.2035C50.9806 11.6229 49.3883 11.996 47.7938 12.3586C46.1959 12.7063 44.5961 13.0448 42.9855 13.3367C41.3761 13.6333 39.7607 13.9024 38.1273 14.092C37.9189 14.1164 37.7302 13.967 37.7058 13.7582C37.6844 13.5778 37.7953 13.4114 37.9618 13.355Z" fill="white"/>
<g opacity="0.35">
<path d="M62.2611 25.2311L21.6431 34.3394C21.1845 34.4398 20.7258 34.4136 20.3108 34.2782C19.922 34.1559 19.5725 33.9375 19.2842 33.6492C19.8346 32.8672 20.5292 32.177 21.2937 31.6353C21.4029 31.5567 21.5121 31.4824 21.6213 31.4169C21.9926 31.928 22.6479 32.1988 23.3075 32.0503L59.7798 23.8769C60.6666 23.676 61.2258 22.7979 61.0248 21.9111L59.6051 15.5725C59.5308 15.2448 59.3648 14.9609 59.1376 14.7468C59.1376 14.5765 59.1464 14.4105 59.1595 14.2445C59.3255 12.1126 59.8016 9.92842 61.0423 8.20288C61.0947 8.35578 64.1876 22.1863 64.1876 22.1907C64.4977 23.5624 63.6328 24.9253 62.2611 25.2311Z" fill="#D811AD"/>
</g>
<g opacity="0.18">
<path d="M59.7806 23.8769L23.3083 32.0503C22.6487 32.1988 21.9934 31.928 21.6221 31.4169C23.8587 29.9447 26.5584 29.3462 29.1839 28.7783C56.5479 22.9027 55.1981 23.2653 56.5217 22.6843C60.0907 21.116 59.0467 17.8222 59.1384 14.7468C59.3656 14.9609 59.5316 15.2448 59.6058 15.5725L61.0256 21.9111C61.2265 22.7979 60.6674 23.676 59.7806 23.8769Z" fill="#0A1640"/>
</g>
<path d="M28.1996 28.0385C28.0987 27.786 28.0485 27.5226 27.9288 27.1858C27.927 27.177 27.927 27.177 27.9353 27.1753L27.9436 27.1735C28.287 27.1233 28.6046 26.9188 29.0244 26.8516L29.0327 26.8498L29.0432 26.8564C29.269 27.2312 30.0125 27.4636 30.2462 26.9232C30.3301 26.665 30.2222 26.3435 29.9466 26.219C29.6617 26.0967 29.2585 26.1959 28.9929 26.3173C28.7915 26.0521 28.8038 25.4733 28.6897 25.1619L28.688 25.1531C29.0379 24.9329 29.9361 25.0242 29.7347 24.3244C29.539 23.5704 28.6015 24.1348 28.5303 24.6477C28.3586 24.7128 27.4535 24.9067 27.4198 24.9142L27.4159 24.8976C27.3648 24.6695 27.2355 24.3703 27.2735 24.1047C27.374 22.6548 29.8373 22.0934 30.6407 22.9864C30.7901 23.1388 30.8561 23.3546 30.8949 23.5678C31.1339 24.5162 31.334 25.4467 31.5044 26.3662C31.5528 26.7013 31.6559 27.0416 31.5808 27.3775C31.5035 27.7851 31.296 28.1241 30.9124 28.3521C30.5271 28.5714 29.9933 28.6819 29.5495 28.72C29.383 28.7304 29.2284 28.7121 29.0584 28.7055C28.8068 28.6911 28.6434 28.595 28.6124 28.5749C28.4163 28.4509 28.2761 28.2608 28.1996 28.0385Z" fill="#0A1640"/>
<path d="M34.3081 25.7288L34.3098 25.7375C34.3116 25.7458 34.3242 25.7611 34.326 25.7699C34.461 26.1739 34.7191 26.2578 34.9677 26.1403C35.7226 25.8293 35.3757 24.5589 34.6632 24.5061C34.07 24.5502 33.3304 24.849 32.8398 24.9149C32.8311 24.9167 32.8228 24.9189 32.821 24.9101C32.5694 23.7874 32.3881 23.0566 32.1514 22.0012L32.1601 21.9994C32.2698 21.975 35.5177 21.1576 35.7453 21.1423C35.7846 21.1598 35.9943 22.3721 36 22.3974C35.7628 22.4861 33.911 22.9277 33.7083 22.9732L33.7 22.9749L33.7039 22.9915L33.7057 22.9998C33.7074 23.0081 33.7175 23.0151 33.7196 23.023C33.7659 23.1099 33.7773 23.2409 33.8345 23.2986L33.845 23.3052L33.8555 23.3117L33.8638 23.31C34.163 23.1807 34.4562 23.106 34.7462 23.0942C36.1511 22.9924 36.7588 24.5585 36.8789 25.9232C36.8933 27.5692 33.5737 28.4639 33.1819 26.557C33.1496 26.4133 33.1286 26.2408 33.1225 26.056L33.1185 26.0394L34.3081 25.7288Z" fill="#0A1640"/>
<path d="M39.7958 26.3963C39.7932 26.4238 39.7862 26.4343 39.7796 26.4444C39.6503 26.5003 39.4926 26.5086 38.7303 26.7065L38.7216 26.7082C38.6203 26.7309 38.771 25.9791 38.7688 25.8909C38.7898 25.6288 38.8177 25.3566 38.8723 25.0871C38.8806 24.9259 38.9073 24.6896 39.1737 22.7141C39.227 22.3564 39.2393 22.0169 39.2751 21.6631C39.2912 21.615 39.3773 20.9309 39.3957 20.2617C39.7316 20.2573 40.2248 20.0048 40.5253 20.0791C40.5135 20.1437 40.5192 20.1695 40.5092 20.2425C40.5031 20.4124 40.4734 20.7558 40.4122 21.55C40.3724 21.8868 40.3244 22.2257 40.2912 22.5525C40.2182 23.2165 40.1689 23.8657 40.0771 24.5249C40.0557 24.707 40.0348 24.8888 40.0051 25.0727L39.7958 26.3963Z" fill="#0A1640"/>
<path d="M42.3392 20.8344C42.2981 20.4535 42.1911 20.0162 42.1238 19.6768L42.1221 19.6685C43.2898 19.3797 44.6676 19.0001 45.7986 18.8621L45.8003 18.8708C45.8733 19.3155 45.9737 19.6034 46.072 20.0424C45.7466 21.7557 45.0904 23.5346 44.6374 25.3117C44.2997 25.3872 43.7126 25.6166 43.354 25.5995C43.7533 23.7809 44.1932 22.1043 44.526 20.4247C43.8664 20.5282 42.9245 20.6772 42.3562 20.8314L42.3392 20.8344Z" fill="#0A1640"/>
<path d="M47.8057 20.5576L51.0051 19.8403C51.1021 20.2352 51.148 20.6769 51.3009 21.0417L51.2921 21.0434C51.1235 21.0814 48.2076 21.6816 48.0389 21.7196C47.9883 21.4916 47.821 20.6249 47.8057 20.5576ZM48.1975 22.305L51.3974 21.5877C51.4944 21.9826 51.5403 22.4247 51.6931 22.7895L51.6849 22.7912C51.5162 22.8292 48.6003 23.4295 48.4317 23.4675C48.3801 23.2394 48.2128 22.3727 48.1975 22.305Z" fill="#0A1640"/>
<path d="M54.2632 21.2556L54.2649 21.2643C54.2667 21.2726 54.2793 21.2879 54.2811 21.2962C54.416 21.7003 54.6742 21.7842 54.9228 21.6667C55.6777 21.3556 55.3308 20.0853 54.6183 20.0324C54.0255 20.0765 53.2855 20.3758 52.7949 20.4413C52.7862 20.4431 52.7779 20.4452 52.7761 20.4365C52.5245 19.3138 52.3432 18.583 52.1064 17.5275L52.1148 17.5258C52.2244 17.5013 55.4723 16.684 55.6999 16.6687C55.7393 16.6862 55.949 17.8984 55.9546 17.9238C55.7174 18.0124 53.8661 18.4541 53.6629 18.4995L53.6546 18.5013L53.6586 18.5179L53.6603 18.5262C53.6621 18.5349 53.6721 18.5415 53.6743 18.5493C53.7206 18.6363 53.732 18.7673 53.7892 18.825L53.7997 18.8315L53.8102 18.8381L53.8184 18.8363C54.1177 18.707 54.4108 18.6323 54.7009 18.6205C56.1058 18.5188 56.7134 20.0848 56.8336 21.4495C56.848 23.0956 53.5284 23.9902 53.1365 22.0834C53.1042 21.9397 53.0832 21.7671 53.0771 21.5824L53.0732 21.5657L54.2632 21.2556Z" fill="#0A1640"/>
<path d="M24.4248 38.6318C24.4165 38.6585 24.5327 39.3046 24.6297 39.609C24.6733 39.7397 24.7533 39.8729 24.8953 39.8803C24.9966 39.8677 25.0875 39.8078 25.1111 39.7056C25.1386 39.5885 25.0814 39.4758 25.0796 39.3574C25.2137 39.3452 25.4042 39.267 25.5427 39.2753C25.8022 39.7126 25.596 40.2975 25.0988 40.4198C24.7839 40.5369 24.344 40.5133 24.2208 40.1389C24.1303 39.8144 24.0478 39.4631 23.8923 38.7218C23.8643 38.6454 23.8665 38.5584 23.8787 38.4846C23.8927 38.3553 23.932 38.2426 24.0002 38.1443C24.043 38.0958 24.0958 38.0587 24.157 38.0268C24.7367 37.6812 25.5152 38.1098 25.4383 38.7917C25.2793 38.8668 25.1172 38.8817 24.9363 38.89C24.8682 38.7148 24.8594 38.4186 24.5947 38.489C24.5388 38.5121 24.4654 38.5357 24.4361 38.582C24.4278 38.5956 24.4261 38.6205 24.4248 38.6318Z" fill="#0A1640"/>
<path d="M27.4807 39.3654C27.5239 39.51 27.5611 39.6747 27.5536 39.8197C27.088 39.9202 26.5996 40.0661 26.1501 40.1273C25.9723 39.3339 25.7604 38.5804 25.6289 37.7875C26.1527 37.6412 27.0355 37.4289 27.0399 37.4494C27.0998 37.6049 27.1129 37.774 27.1487 37.9352L27.1496 37.9382C26.8735 38.0684 26.5576 38.0854 26.2632 38.1802L26.2527 38.1824L26.2497 38.1868C26.2833 38.3187 26.2846 38.4699 26.3431 38.5861L26.3471 38.5882C26.4864 38.5677 26.6293 38.5328 26.7699 38.5044L26.7708 38.5079C26.8294 38.656 26.8433 38.815 26.884 38.9818C26.752 39.0509 26.5183 39.064 26.4786 39.112C26.4842 39.2505 26.5397 39.4327 26.5742 39.5393L26.5786 39.5423C26.8796 39.4746 27.1697 39.4383 27.4785 39.3584L27.4807 39.3654Z" fill="#0A1640"/>
<path d="M25.7104 45.0329C25.7008 45.0635 25.8327 45.797 25.9432 46.1438C25.9926 46.2919 26.0834 46.4426 26.2446 46.4514C26.36 46.4374 26.4631 46.3697 26.4901 46.2535C26.5216 46.1198 26.4561 45.9918 26.4543 45.8577C26.6063 45.8442 26.823 45.7546 26.9803 45.7642C27.2752 46.2609 27.0406 46.9254 26.4762 47.0643C26.1184 47.1975 25.6191 47.1709 25.4784 46.7454C25.3753 46.3767 25.2818 45.9774 25.1053 45.1356C25.0735 45.0491 25.0761 44.9504 25.0896 44.8661C25.1058 44.7197 25.1503 44.5913 25.2277 44.4799C25.2766 44.4244 25.3364 44.382 25.4059 44.3462C26.0647 43.9539 26.9488 44.441 26.8615 45.2155C26.6806 45.3007 26.4967 45.3178 26.2909 45.3269C26.2136 45.1282 26.2036 44.7918 25.903 44.8713C25.8397 44.8979 25.7558 44.9246 25.7226 44.977C25.7134 44.9914 25.7117 45.0203 25.7104 45.0329Z" fill="#0A1640"/>
<path d="M29.2484 46.402C29.089 46.4173 28.8592 46.485 28.7347 46.513C28.6159 46.0744 28.4896 45.4379 28.3416 45.0141C28.2992 45.1338 28.2669 45.6266 28.224 45.6362C28.1454 45.6498 27.8641 45.1417 27.8619 45.1504C27.9283 45.6454 28.0646 46.1452 28.204 46.62C28.0432 46.6842 27.83 46.7161 27.6627 46.7537C27.6588 46.7546 27.6544 46.7515 27.6487 46.7445C27.6133 46.6785 27.5072 46.205 27.0498 44.092C27.18 44.0181 27.4054 44.0042 27.5736 43.9544L27.5775 43.9535C27.699 44.0409 27.8567 44.3807 27.9654 44.4825C27.9746 44.4882 27.9833 44.4904 27.9912 44.4886C28.0248 44.4934 28.0183 43.9723 28.0847 43.8312C28.1611 43.8264 28.4927 43.7233 28.6561 43.687C28.7483 44.1885 28.8977 44.6568 28.982 45.1601L29.2484 46.402Z" fill="#0A1640"/>
<path d="M35.9295 44.8878C35.7469 44.9289 35.5228 45.0032 35.286 45.0399L35.2825 45.0407C35.1283 44.8267 34.8063 44.4091 34.5241 44.1867L34.5136 44.1771C34.535 44.4174 34.6897 44.925 34.7456 45.1202C34.5875 45.2334 34.1275 45.2915 34.079 45.3146C34.1104 45.3077 33.5403 42.857 33.4434 42.6053C33.7251 42.4974 34.0663 42.3637 34.4525 42.3222C35.0732 42.2157 35.6202 42.7988 35.4188 43.4109C35.3633 43.6192 35.2344 43.7909 34.9894 43.8621L34.9741 43.8656L34.9701 43.8665L34.971 43.8704C35.2746 44.2064 35.6743 44.496 35.9255 44.8887L35.9295 44.8878ZM34.259 43.4961L34.2629 43.4952C34.3861 43.4799 34.535 43.4546 34.6552 43.4074C34.8435 43.32 34.7893 43.0059 34.6207 42.9255C34.4844 42.8456 34.2987 42.9081 34.1323 43.0229C34.1738 43.1518 34.2131 43.3838 34.259 43.4961Z" fill="#0A1640"/>
<path d="M37.8744 44.4681C37.715 44.4834 37.4852 44.5511 37.3607 44.5791C37.2419 44.1405 37.1156 43.504 36.9675 43.0803C36.9252 43.2 36.8928 43.6927 36.85 43.7019C36.7714 43.7159 36.4901 43.2074 36.4879 43.2161C36.5543 43.7111 36.6906 44.2108 36.8299 44.6857C36.6692 44.7499 36.456 44.7818 36.2887 44.8194C36.2848 44.8202 36.2804 44.8172 36.2747 44.8102C36.2393 44.7442 36.1332 44.2707 35.6758 42.1576C35.806 42.0838 36.0314 42.0698 36.1996 42.0196L36.2035 42.0187C36.3249 42.1061 36.4826 42.446 36.5914 42.5482C36.6006 42.5539 36.6093 42.5561 36.6176 42.5543C36.6513 42.5587 36.6447 42.038 36.7111 41.8969C36.7876 41.892 37.1191 41.7889 37.2825 41.7527C37.3747 42.2542 37.5241 42.7225 37.6084 43.2257L37.8744 44.4681Z" fill="#0A1640"/>
<path d="M44.3256 43.0223C44.1661 43.0376 43.9364 43.1053 43.8119 43.1333C43.693 42.6947 43.5668 42.0582 43.4187 41.6345C43.3763 41.7542 43.344 42.2469 43.3012 42.2565C43.2226 42.2705 42.9412 41.762 42.939 41.7708C43.0054 42.2657 43.1417 42.7655 43.2811 43.2403C43.1203 43.305 42.9072 43.3364 42.7398 43.374C42.7359 43.3749 42.7315 43.3718 42.7259 43.3648C42.6909 43.2988 42.5843 42.8253 42.127 40.7123C42.2576 40.6385 42.4825 40.6245 42.6507 40.5742L42.6547 40.5734C42.7761 40.6607 42.9338 41.0006 43.0426 41.1028C43.0517 41.1085 43.0605 41.1107 43.0688 41.1089C43.1024 41.1133 43.0959 40.5926 43.1623 40.4515C43.2387 40.4467 43.5703 40.3436 43.7337 40.3069C43.8258 40.8084 43.9752 41.2767 44.0596 41.7799L44.3256 43.0223Z" fill="#0A1640"/>
<path d="M44.293 41.5483L46.0137 41.1626C46.0666 41.3793 46.088 41.6029 46.171 41.8087L46.167 41.8096C46.0854 41.8279 44.5022 42.1542 44.4205 42.1722C44.3934 42.052 44.3 41.5793 44.293 41.5483Z" fill="#0A1640"/>
<path d="M53.0287 41.0708C52.8693 41.0861 52.6395 41.1538 52.515 41.1818C52.3962 40.7432 52.2699 40.1067 52.1218 39.6829C52.0795 39.8026 52.0471 40.2954 52.0043 40.3046C51.9257 40.3186 51.6443 39.8101 51.6422 39.8188C51.7086 40.3138 51.8449 40.8135 51.9842 41.2884C51.8235 41.353 51.6103 41.3845 51.443 41.422C51.439 41.4229 51.4347 41.4198 51.429 41.4129C51.394 41.3473 51.2875 40.8734 50.8301 38.7603C50.9607 38.6865 51.1857 38.6725 51.3538 38.6223L51.3578 38.6214C51.4792 38.7088 51.6369 39.0486 51.7457 39.1504C51.7549 39.1561 51.7636 39.1583 51.7715 39.1565C51.8051 39.1609 51.7986 38.6402 51.865 38.4991C51.9414 38.4943 52.273 38.3912 52.4364 38.3545C52.5285 38.856 52.6779 39.3243 52.7627 39.8275L53.0287 41.0708Z" fill="#0A1640"/>
<path d="M53.6029 40.461C53.5478 40.3059 53.5588 40.2465 53.5059 40.0666C53.4963 40.0242 53.4854 39.9936 53.4805 39.991L53.4731 39.9927C53.419 40.005 53.0813 40.0639 53.0332 40.0504C53.0289 40.0473 53.0288 40.0473 53.028 40.0434C53.0144 39.9281 52.9035 39.5611 52.8965 39.5306C52.9258 39.5323 53.3556 39.3951 53.3814 39.3811C53.3683 39.323 53.3547 39.2444 53.3342 39.1348C53.3215 39.0601 53.3145 38.9924 53.3071 38.9408C53.3041 38.9085 53.3054 38.8963 53.3032 38.8679C53.3748 38.8967 53.782 38.7648 53.8698 38.7573C53.8951 38.87 53.9606 39.1981 53.9855 39.237C54.1087 39.2217 54.3381 39.154 54.4591 39.1474C54.4962 39.3676 54.5464 39.5192 54.57 39.714C54.5434 39.7402 54.1577 39.8023 54.114 39.8451C54.1459 39.9316 54.176 40.2474 54.1931 40.3252L54.1948 40.333C54.2027 40.368 53.6265 40.4562 53.6099 40.472C53.6081 40.4676 53.6051 40.4724 53.6029 40.461Z" fill="#0A1640"/>
<path d="M60.8442 37.1568C60.835 37.1873 60.9669 37.9208 61.077 38.2677C61.1264 38.4157 61.2172 38.5665 61.3784 38.5752C61.4938 38.5617 61.5969 38.4935 61.6239 38.3773C61.6554 38.2436 61.5899 38.1156 61.5881 37.9815C61.7401 37.968 61.9568 37.8784 62.1141 37.888C62.4089 38.3847 62.1744 39.0492 61.61 39.1881C61.2522 39.3213 60.7529 39.2947 60.6122 38.8692C60.5091 38.5005 60.4156 38.1012 60.2391 37.2599C60.2072 37.1734 60.2099 37.0746 60.2234 36.9903C60.2396 36.844 60.2841 36.7156 60.3615 36.6042C60.4104 36.5487 60.4702 36.5063 60.5397 36.4705C61.1984 36.0782 62.0826 36.5653 61.9952 37.3398C61.8144 37.425 61.6305 37.442 61.4247 37.4512C61.3474 37.2524 61.3374 36.9161 61.0368 36.9956C60.9735 37.0222 60.8896 37.0489 60.8564 37.1013C60.8472 37.1153 60.8455 37.1445 60.8442 37.1568Z" fill="#0A1640"/>
<path d="M27.7016 51.8184C27.6828 51.6432 27.6335 51.4418 27.6024 51.2855L27.6016 51.282C28.1384 51.1492 28.7727 50.9744 29.2926 50.9106L29.2935 50.9146C29.3271 51.119 29.373 51.2514 29.4184 51.4536C29.2686 52.2417 28.9667 53.0604 28.7583 53.8777C28.6028 53.9126 28.3329 54.0179 28.1677 54.0101C28.3512 53.1735 28.5539 52.402 28.7072 51.6293C28.4036 51.6769 27.9698 51.7455 27.7086 51.8162L27.7016 51.8184Z" fill="#0A1640"/>
<path d="M37.9978 49.7431L38.0135 49.813C38.0231 49.8554 38.0288 49.8991 38.0249 49.9366C38.024 50.1328 37.9808 50.2852 37.844 50.4587L37.8449 50.4626C38.2922 50.6561 38.394 51.2371 38.1839 51.6106C37.9895 51.9806 37.1936 52.1427 36.8686 51.8566C36.5549 51.6045 36.4278 51.0737 36.6777 50.6954C36.1796 50.3665 36.1727 49.3888 36.8065 49.2145C37.1691 49.121 37.3438 49.0817 37.5374 49.1446C37.6234 49.1826 37.6649 49.1857 37.7912 49.3124C37.813 49.336 37.8606 49.4028 37.8825 49.4469C37.92 49.5242 37.9375 49.5653 37.9659 49.6365C37.976 49.6627 37.9834 49.6776 37.9895 49.7047L37.993 49.7199L37.9978 49.7431ZM37.6287 51.0252C37.626 51.0139 37.6217 50.9942 37.6151 50.9837C37.5937 50.9436 37.5636 50.9012 37.5229 50.882C37.4535 50.8444 37.3569 50.8335 37.2722 50.8728C37.1368 50.9602 37.128 51.2314 37.3146 51.2629C37.3867 51.2756 37.4753 51.2515 37.5387 51.2249C37.5645 51.2109 37.5819 51.1987 37.5907 51.1847C37.6147 51.1633 37.616 51.134 37.6256 51.1034C37.6335 51.0851 37.6282 51.0619 37.6295 51.0493C37.6291 51.0453 37.6313 51.037 37.6287 51.0252ZM36.9629 50.0035L36.9647 50.0109C36.9778 50.1223 37.0595 50.2507 37.2058 50.2302C37.4627 50.193 37.3792 49.7304 37.0673 49.8855C37.0564 49.8921 37.052 49.889 37.0389 49.9043C37.0145 49.9218 37.0123 49.9305 36.9996 49.9458C36.9904 49.9602 36.9677 49.986 36.9664 49.9982C36.962 49.9995 36.962 49.9995 36.9629 50.0035Z" fill="#0A1640"/>
<path d="M46.6954 48.5689C46.7377 48.7388 46.7945 48.9013 46.8133 49.0769C46.8286 49.2735 46.8111 49.4688 46.7364 49.6448C46.497 50.1061 45.6159 50.1773 45.2599 49.8453C45.1406 49.7335 45.0725 49.5732 45.055 49.3692L45.0506 49.35C45.2324 49.305 45.4622 49.2211 45.6587 49.2054C45.7094 49.3045 45.8265 49.3718 45.9444 49.3334C46.1336 49.2665 46.1 49.0088 46.0432 48.8096L46.0384 48.8065C45.7256 49.0315 45.2879 48.9708 45.0275 48.7192C44.8309 48.5348 44.7348 48.1237 44.7776 47.8774C44.7942 47.8249 44.8082 47.7769 44.8335 47.7262C44.9593 47.4859 45.2236 47.337 45.5045 47.2618C45.771 47.2142 46.0585 47.1133 46.2677 47.3195C46.4289 47.475 46.4953 47.7332 46.5582 47.997L46.6954 48.5689ZM45.951 48.0337C45.9278 47.8756 45.7024 47.8158 45.5565 47.9302C45.4967 47.9721 45.4521 48.0267 45.4696 48.1045C45.4849 48.1543 45.5037 48.2028 45.529 48.2426L45.5299 48.2465C45.6395 48.3889 45.8881 48.3334 45.9418 48.191C45.951 48.1604 45.9475 48.1609 45.9545 48.139C45.9602 48.1093 45.9532 48.115 45.9589 48.0853C45.9597 48.0726 45.9554 48.0534 45.951 48.0337Z" fill="#0A1640"/>
<path d="M56.011 44.5896L54.3855 44.954C54.2842 44.9767 54.209 45.0653 54.2038 45.1671L54.005 47.5606L53.2292 46.4087C53.175 46.3287 53.0794 46.2907 52.985 46.3117L52.1559 46.4978C52.0305 46.5257 51.951 46.6507 51.9794 46.776L52.0108 46.9154C52.0388 47.0408 52.1637 47.1198 52.2891 47.0914L52.8094 46.9748C52.8448 46.9669 52.8806 46.9814 52.9011 47.0115L53.9609 48.585C54.0374 48.6986 54.1732 48.7532 54.3078 48.7231L54.3239 48.7191C54.4611 48.6811 54.5585 48.5597 54.5664 48.4195L54.7935 45.5516C54.7953 45.5122 54.8233 45.4795 54.8617 45.4707L56.1443 45.1833C56.2696 45.1553 56.3492 45.0304 56.3208 44.905L56.2893 44.7657C56.2618 44.6403 56.1364 44.5617 56.011 44.5896Z" fill="#0A1640"/>
<path d="M61.0282 46.1959C60.9732 46.0408 60.9841 45.9814 60.9317 45.8014C60.9221 45.759 60.9111 45.7285 60.9063 45.7258L60.8989 45.7276C60.8447 45.7398 60.507 45.7988 60.459 45.7857C60.4546 45.7826 60.4546 45.7826 60.4538 45.7787C60.4402 45.6634 60.3293 45.2964 60.3223 45.2654C60.3515 45.2671 60.7814 45.13 60.8072 45.116C60.7941 45.0579 60.7805 44.9793 60.76 44.8696C60.7473 44.7949 60.7403 44.7272 60.7329 44.6757C60.7298 44.6433 60.7312 44.6311 60.729 44.6027C60.8006 44.6315 61.2078 44.4996 61.2956 44.4922C61.3209 44.6049 61.3864 44.933 61.4113 44.9718C61.5345 44.9566 61.7639 44.8888 61.8849 44.8823C61.922 45.102 61.9722 45.254 61.9958 45.4489C61.9692 45.4751 61.5834 45.5371 61.5397 45.5799C61.5716 45.6664 61.6013 45.9823 61.6188 46.06L61.6206 46.0679C61.6284 46.1028 61.0522 46.1911 61.0356 46.2068C61.0334 46.2029 61.0308 46.2077 61.0282 46.1959Z" fill="#0A1640"/>
<path d="M62.8413 46.2383C62.84 46.251 62.837 46.2558 62.8339 46.2606C62.7745 46.2864 62.702 46.2903 62.3512 46.3812L62.3472 46.3821C62.3005 46.3925 62.37 46.0466 62.3687 46.0059C62.3787 45.8854 62.3914 45.76 62.4163 45.6364C62.4202 45.5621 62.4324 45.4533 62.5552 44.5447C62.5797 44.38 62.5853 44.224 62.6019 44.0611C62.6094 44.0388 62.6487 43.7243 62.6574 43.4163C62.8121 43.4141 63.0392 43.2984 63.1773 43.3324C63.172 43.3621 63.1742 43.3739 63.1698 43.4076C63.1668 43.4858 63.1532 43.6435 63.1253 44.0091C63.1069 44.1642 63.0846 44.3201 63.0694 44.4704C63.0362 44.7758 63.013 45.0746 62.9711 45.3777C62.9615 45.4616 62.9514 45.5455 62.9379 45.6298L62.8413 46.2383Z" fill="#0A1640"/>
<path d="M63.6318 44.6133L65.3526 44.2275C65.405 44.4438 65.4268 44.6679 65.5094 44.8736L65.5059 44.8745C65.4242 44.8929 63.8411 45.2192 63.7594 45.2375C63.7323 45.1165 63.6388 44.6439 63.6318 44.6133Z" fill="#0A1640"/>
<path d="M30.9028 59.48C30.9666 59.4538 31.0793 59.4485 31.1418 59.4346L31.2449 60.0029C31.1693 60.0483 31.0811 60.0357 31.0103 60.068C31.0068 60.0523 31.1108 60.6979 31.109 60.7639C31.0859 60.8058 30.9125 60.8325 30.556 60.9163C30.5416 60.9076 30.4385 60.1921 30.4315 60.161C30.3699 60.1588 29.612 60.345 29.5958 60.3279C29.5761 60.2956 29.4888 60.0872 29.4307 59.7736C29.5001 59.611 29.5744 59.1781 29.9619 58.1773C29.961 58.1738 29.961 58.1738 29.9649 58.173C30.0117 58.1625 30.4892 58.0349 30.573 58.0284L30.5809 58.0266C30.5844 58.0419 30.8395 59.3804 30.8801 59.4896L30.9028 59.48ZM30.2415 58.7675C30.2126 58.6924 29.9134 59.6691 29.9029 59.7124C29.9029 59.7124 30.3454 59.6294 30.4166 59.601L30.2415 58.7675Z" fill="#0A1640"/>
<path d="M38.6527 58.1878L38.6536 58.1917C38.6544 58.1952 38.6601 58.2022 38.661 58.2061C38.723 58.3922 38.8418 58.4307 38.9563 58.3765C39.3036 58.2332 39.1441 57.6492 38.8165 57.6247C38.5435 57.6452 38.2032 57.7828 37.9773 57.813C37.9734 57.8139 37.9694 57.8147 37.9686 57.8108C37.8528 57.294 37.7689 56.9581 37.6602 56.4723L37.6641 56.4714C37.7143 56.4601 39.2092 56.0844 39.3141 56.0774C39.332 56.0853 39.4285 56.6431 39.4311 56.6549C39.3219 56.6955 38.4701 56.8987 38.377 56.9196L38.3731 56.9205L38.3748 56.9284L38.3757 56.9323C38.3766 56.9358 38.3814 56.9388 38.3823 56.9428C38.4032 56.983 38.4085 57.0433 38.4347 57.0695L38.4395 57.0725L38.4443 57.0756L38.4482 57.0747C38.5858 57.0153 38.7208 56.9808 38.8545 56.9755C39.5006 56.9284 39.7806 57.6492 39.8357 58.2774C39.8422 59.0348 38.315 59.4464 38.1346 58.5692C38.1197 58.5032 38.1101 58.4237 38.1075 58.3385L38.1057 58.3311L38.6527 58.1878Z" fill="#0A1640"/>
<path d="M48.387 56.0787C48.5875 56.6824 48.0467 57.0529 47.4618 57.1184C46.7349 57.1507 46.5435 56.1329 46.4173 55.3536C46.4046 55.2422 46.3692 55.1404 46.3771 55.0281C46.3762 55.008 46.3771 54.9914 46.3845 54.9696C46.4509 54.6284 46.8327 54.3672 47.2019 54.2846C47.689 54.1632 48.0799 54.5607 48.0607 55.0019C47.9148 55.0631 47.7339 55.0915 47.554 55.1439L47.5465 55.1456L47.5457 55.1417C47.5216 55.0534 47.4732 54.946 47.3958 54.8936C47.3037 54.8289 47.1704 54.8708 47.1132 54.9613C46.9555 55.1683 47.1521 55.5523 47.2049 55.8424L47.2058 55.8463C47.26 55.7974 47.3189 55.7515 47.3845 55.7161C47.5164 55.6497 47.6876 55.575 47.8488 55.5838C47.9694 55.5934 48.0716 55.6318 48.1542 55.6908C48.2485 55.7472 48.3167 55.8703 48.3595 55.9874L48.387 56.0787ZM47.924 56.1783C47.9187 56.1552 47.9152 56.1394 47.9091 56.1285C47.8794 56.07 47.8257 56.0289 47.7567 56.0324C47.6483 56.0403 47.5474 56.0997 47.4954 56.2133C47.4504 56.3216 47.5299 56.4221 47.6173 56.447C47.6815 56.4614 47.7833 56.4426 47.8515 56.3823C47.9039 56.3421 47.9371 56.2897 47.9353 56.229L47.9275 56.194L47.9257 56.1862L47.924 56.1783Z" fill="#0A1640"/>
<path d="M56.5602 53.76C56.7227 54.1383 57.004 54.5371 57.1827 54.8962C57.1473 54.8988 57.1277 54.9032 57.0927 54.911C57.0185 54.9276 56.9311 54.9525 56.852 54.9705C56.7974 54.9827 56.5113 55.0469 56.4637 55.0421L56.4584 55.0434C56.3038 54.8394 56.2011 54.5201 56.0465 54.3165L56.0452 54.3113C55.9853 54.5996 56.0242 54.9124 55.9639 55.1749C55.9145 55.1858 55.6585 55.2487 55.6044 55.261C55.5008 55.2841 55.334 55.3265 55.2422 55.3108C55.2584 54.9438 55.3458 54.4318 55.3532 54.0256C55.1824 53.6333 54.9032 53.2449 54.6621 52.8841C54.8076 52.8408 54.9203 52.8107 55.0042 52.7919C55.1326 52.7631 55.4139 52.7002 55.4323 52.7115C55.531 52.8968 55.7494 53.3406 55.8521 53.4987C55.8901 53.2986 55.88 52.8133 55.9001 52.6014C56.0155 52.5604 56.42 52.4695 56.6816 52.411L56.6869 52.4097C56.6882 52.4145 56.6882 52.4145 56.6829 52.4158C56.6428 52.8548 56.5384 53.3139 56.5602 53.76Z" fill="#0A1640"/>
<path d="M63.0723 51.901L65.7645 51.2973C65.8283 51.5528 65.8506 51.8316 65.9515 52.0723L65.945 52.0736C65.8428 52.0967 63.3291 52.6262 63.2265 52.6493C63.1933 52.5017 63.081 51.9399 63.0723 51.901ZM63.9447 51.3681L63.9254 51.3724C63.8503 51.1872 63.7791 50.7508 63.752 50.6289C63.9093 50.5193 64.4252 50.4105 64.5519 50.4358C64.5549 50.4489 64.655 51.0745 64.6825 51.1964L64.6838 51.2025L64.6851 51.2091L64.672 51.2121L63.9447 51.3681ZM64.4287 53.5274L64.4095 53.5318C64.3339 53.3461 64.2631 52.9101 64.236 52.7883C64.3933 52.6786 64.9092 52.5698 65.0359 52.5952C65.0389 52.6083 65.139 53.2334 65.1661 53.3553L65.1674 53.3618L65.1687 53.3684L65.1556 53.3714L64.4287 53.5274Z" fill="#0A1640"/>
<path d="M32.4738 67.8736C32.3458 67.9024 32.1942 67.9199 32.0872 67.9317L32.0863 67.9282L32.002 67.5512C31.8897 67.0501 31.8264 66.5504 31.7141 66.0493C31.708 66.0222 31.7045 66.0069 31.6945 65.9803C31.6416 65.9799 31.6608 66.2123 31.5756 66.2315C31.5293 66.242 31.0837 66.2398 31.0737 66.193C31.0501 66.0148 31.3253 65.2595 31.3494 65.2215C31.469 65.1905 31.5809 65.1612 31.701 65.1341C31.8369 65.1035 31.9701 65.0782 32.1121 65.0581C32.1776 65.2761 32.2292 65.4888 32.2777 65.7064C32.4109 66.3009 32.4974 66.885 32.6306 67.4796C32.6507 67.5687 32.6717 67.6621 32.6953 67.7508C32.7088 67.8124 32.5708 67.8517 32.4738 67.8736Z" fill="#0A1640"/>
<path d="M40.0503 66.1795L39.8756 66.2188C39.8712 66.2158 39.8704 66.2118 39.8695 66.2079C39.8223 65.8514 39.6834 65.5238 39.7891 65.2145C39.9752 64.879 40.264 64.7121 40.4833 64.4347C40.6624 64.2517 40.5405 63.8712 40.2928 63.8939C40.0403 63.9507 40.0805 64.239 40.1106 64.4282L40.1124 64.436L40.1084 64.4369C39.8813 64.5164 39.717 64.5654 39.5379 64.5855L39.534 64.5863L39.5322 64.5785C39.3898 64.2351 39.3828 63.8939 39.5253 63.6375C39.6707 63.3234 40.2945 63.1757 40.5999 63.2255C40.8598 63.2937 41.0359 63.5152 41.1258 63.7891C41.1542 63.897 41.1923 64.0311 41.2119 64.1368C41.294 64.7222 40.6174 64.8698 40.4142 65.2744C40.4059 65.329 40.3749 65.4993 40.4221 65.5094C40.7703 65.4434 41.042 65.3622 41.3797 65.2866C41.4461 65.3823 41.4657 65.5247 41.4906 65.6535C41.5037 65.7116 41.5081 65.768 41.5365 65.8226C41.5374 65.8265 41.5334 65.8274 41.5221 65.83L40.0503 66.1795Z" fill="#0A1640"/>
<path d="M48.363 63.8423C48.3167 63.7265 48.2936 63.6051 48.2385 63.45C48.2376 63.4461 48.2376 63.4461 48.2411 63.4452L48.2451 63.4443C48.4032 63.4212 48.5495 63.3273 48.7422 63.2963L48.7461 63.2954L48.7505 63.2984C48.8545 63.471 49.1965 63.5776 49.304 63.329C49.3429 63.2102 49.2935 63.0625 49.1659 63.0053C49.0349 62.949 48.8497 62.9944 48.7273 63.0508C48.6347 62.9289 48.6404 62.6624 48.5875 62.5191L48.5867 62.5152C48.7474 62.4138 49.1607 62.4558 49.0681 62.1342C48.9781 61.7874 48.5469 62.0473 48.5142 62.2828C48.4351 62.3129 48.0188 62.402 48.0031 62.4055L48.0013 62.3977C47.9777 62.2928 47.9183 62.1552 47.9358 62.0329C47.9821 61.3658 49.1153 61.1077 49.4848 61.5187C49.5534 61.5886 49.584 61.6882 49.6019 61.7861C49.712 62.2225 49.8042 62.6506 49.8824 63.0739C49.9046 63.2281 49.9518 63.3845 49.9173 63.5391C49.8819 63.7265 49.7863 63.8825 49.6098 63.9873C49.4324 64.0883 49.1869 64.1394 48.9829 64.1564C48.9064 64.1612 48.8352 64.1529 48.757 64.1499C48.6413 64.1429 48.5661 64.0987 48.5522 64.0896C48.4626 64.0323 48.398 63.945 48.363 63.8423Z" fill="#0A1640"/>
<path d="M58.0286 66.2715C57.9103 65.9391 57.9343 65.8111 57.8216 65.4253C57.8011 65.3336 57.7779 65.2685 57.7674 65.2624L57.7508 65.2659C57.6342 65.2921 56.9103 65.4192 56.8072 65.3899C56.7972 65.3834 56.7972 65.3834 56.7954 65.3751C56.7662 65.1278 56.5285 64.3411 56.5137 64.2742C56.5757 64.2777 57.4988 63.9833 57.5529 63.9536C57.525 63.8287 57.4961 63.66 57.452 63.425C57.4249 63.2647 57.4101 63.1197 57.3939 63.0091C57.3874 62.9406 57.39 62.9139 57.3856 62.8536C57.5394 62.9152 58.4122 62.6321 58.6009 62.616C58.6551 62.858 58.7953 63.5617 58.8495 63.6461C59.1133 63.6128 59.6057 63.4674 59.8652 63.453C59.9451 63.9252 60.0526 64.2511 60.1028 64.6687C60.0456 64.7251 59.2177 64.8587 59.1243 64.9492C59.1924 65.1353 59.2566 65.8119 59.2938 65.9792L59.2973 65.9958C59.3143 66.071 58.0789 66.2606 58.0426 66.2947C58.0409 66.2864 58.0343 66.2964 58.0286 66.2715Z" fill="#0A1640"/>
<path d="M64.6445 58.8648L67.3137 58.2664C67.3862 58.5612 67.4102 58.8675 67.5303 59.1466L67.5242 59.1479C67.3975 59.1763 64.9425 59.6874 64.8167 59.7158C64.78 59.5516 64.6541 58.9072 64.6445 58.8648Z" fill="#0A1640"/>
<path d="M49.3192 69.5156L49.3052 69.4169C49.2925 69.2688 49.2567 69.1098 49.3362 68.9735C49.39 68.8678 49.4712 68.7926 49.5905 68.7616C49.8521 68.6904 50.0308 68.8708 50.1199 69.0674C50.1496 69.146 50.1732 69.2146 50.1859 69.2893C50.2632 69.5781 50.2414 70.0272 49.8792 70.0879C49.8124 70.0988 49.7469 70.0971 49.6818 70.0792C49.5437 70.0285 49.483 69.9564 49.428 69.8385C49.3983 69.7594 49.3738 69.6873 49.3454 69.6161L49.3445 69.6122L49.3192 69.5156ZM49.6748 69.5746C49.6901 69.6244 49.7006 69.6707 49.7154 69.7209C49.7294 69.783 49.8023 69.7991 49.8565 69.7668C49.9282 69.7223 49.9172 69.6554 49.9151 69.5903C49.9116 69.575 49.9129 69.5624 49.9094 69.5466C49.8871 69.3924 49.8473 69.2343 49.7709 69.0923C49.7643 69.0818 49.7613 69.0866 49.7547 69.0757C49.7198 69.0469 49.6757 69.032 49.6311 69.0709C49.6097 69.0836 49.594 69.1037 49.5804 69.1351C49.5625 69.1841 49.5739 69.2343 49.5909 69.292L49.5918 69.2959L49.6748 69.5746ZM50.6179 71.2883C50.6166 71.301 50.6136 71.3058 50.6109 71.3102C50.5515 71.336 50.479 71.3399 50.1278 71.4308L50.1239 71.4316C50.0776 71.4421 50.1466 71.0961 50.1457 71.0555C50.1553 70.9349 50.168 70.8096 50.1933 70.6859C50.1973 70.6117 50.2095 70.5029 50.3322 69.5942C50.3567 69.4296 50.3624 69.2736 50.379 69.1107C50.386 69.0888 50.4257 68.7739 50.4345 68.4659C50.5891 68.4637 50.8158 68.3479 50.9539 68.382C50.9482 68.4121 50.9508 68.4235 50.9464 68.4576C50.9434 68.5358 50.9303 68.6935 50.9019 69.0591C50.8835 69.2142 50.8617 69.3702 50.8464 69.5204C50.8128 69.8258 50.7901 70.1246 50.7481 70.4278C50.7381 70.5116 50.7285 70.5955 50.7149 70.6803L50.6179 71.2883ZM50.9272 70.4483L50.9132 70.3496C50.9006 70.2015 50.8647 70.0425 50.9443 69.9062C50.9984 69.8 51.0792 69.7249 51.1985 69.6939C51.4602 69.6231 51.6393 69.8031 51.728 69.9996C51.7581 70.0787 51.7813 70.1469 51.7944 70.2211C51.8712 70.5099 51.8494 70.9594 51.4881 71.0201C51.4209 71.031 51.3553 71.0293 51.2902 71.0114C51.1526 70.9607 51.0915 70.8886 51.0364 70.7707C51.0067 70.6916 50.9823 70.6195 50.9543 70.5483L50.9534 70.5444L50.9272 70.4483ZM51.2832 70.5073C51.2985 70.5566 51.309 70.6034 51.3243 70.6532C51.3383 70.7152 51.4113 70.7318 51.465 70.699C51.5366 70.6545 51.5257 70.5876 51.5235 70.5225C51.52 70.5073 51.5213 70.4946 51.5178 70.4793C51.4956 70.3251 51.4562 70.1665 51.3794 70.025C51.3728 70.0141 51.3698 70.0189 51.3636 70.008C51.3283 69.9791 51.2846 69.9643 51.24 70.0031C51.2182 70.0158 51.2024 70.0359 51.1889 70.0674C51.171 70.1163 51.1823 70.1665 51.1994 70.2242L51.2002 70.2281L51.2832 70.5073Z" fill="#0A1640"/>
<path d="M66.1328 65.4878L68.7967 64.8906C68.8561 65.1213 68.8701 65.3825 68.9758 65.5922L68.9692 65.5935C68.8286 65.625 66.4041 66.1374 66.2634 66.1688C66.2337 66.0356 66.1415 65.5271 66.1328 65.4878ZM66.3622 66.51L69.026 65.9128C69.085 66.1431 69.0994 66.4047 69.2051 66.6144L69.1986 66.6157C69.0579 66.6472 66.6334 67.1596 66.4928 67.1911C66.4631 67.0578 66.3709 66.5493 66.3622 66.51Z" fill="#0A1640"/>
<path d="M33.9979 36.4818C34.0333 36.5923 34.0586 36.7054 34.0805 36.819C34.1211 37.065 34.1849 37.2843 34.2207 37.5241L34.2356 37.6394C34.2613 37.8019 34.2613 37.978 34.2089 38.13C34.1547 38.2571 34.035 38.3489 33.9036 38.4179C33.7856 38.4838 33.6572 38.5197 33.5213 38.5393C33.3295 38.5642 33.1391 38.5638 33.0163 38.4013C32.9259 38.303 32.8826 38.1724 32.849 38.0396C32.7555 37.6875 32.6481 37.3341 32.5913 36.9702C32.5489 36.764 32.5375 36.5364 32.6419 36.3446C32.6603 36.3149 32.6795 36.2891 32.7066 36.2651C32.9744 36.0506 33.3999 35.9624 33.7087 36.1057C33.7865 36.1489 33.8507 36.2105 33.8957 36.2826C33.9416 36.3442 33.9713 36.4128 33.9979 36.4818ZM33.6576 36.9675C33.6572 36.9645 33.6218 36.854 33.6004 36.7758C33.5619 36.6517 33.475 36.5525 33.3579 36.5255C33.257 36.5084 33.1609 36.5617 33.1019 36.6325C33.0373 36.712 32.9997 36.8029 32.994 36.9046C32.9953 37.0872 33.036 37.2834 33.0893 37.4725C33.1491 37.6281 33.1841 37.7993 33.2623 37.94C33.392 38.1016 33.6838 38.0579 33.7887 37.8688C33.8489 37.7373 33.8149 37.7451 33.7874 37.5424C33.7703 37.4494 33.7568 37.3734 33.7546 37.3629L33.7179 37.1991L33.6576 36.9675Z" fill="#0A1640"/>
<path d="M35.6111 38.0242C35.3848 37.7193 35.1559 37.4362 34.9851 37.1693L34.9278 37.0745C34.8994 37.0273 34.8711 36.9797 34.8606 36.9819C34.847 36.9849 34.9453 37.4729 35.0314 37.856C35.0554 37.9621 35.0772 38.0613 35.0982 38.1395C35.0497 38.1644 35.003 38.1788 34.9519 38.1902C34.8422 38.2146 34.7247 38.2194 34.6186 38.243L34.5648 38.0036C34.4674 37.569 34.3735 37.1985 34.2778 36.7713C34.2075 36.4568 34.1446 36.1444 34.1035 35.8482C34.1455 35.8281 34.1992 35.812 34.2542 35.7998C34.3123 35.7866 34.5412 35.7499 34.5456 35.7709C34.6483 35.9238 34.6841 35.9408 34.809 36.1134C34.851 36.1724 35.214 36.6223 35.2245 36.6201C35.2358 36.6066 35.224 36.5057 35.2061 36.4266C35.1655 36.2458 35.1214 36.0972 35.0847 35.9334C35.0633 35.8373 35.0449 35.7408 35.0231 35.6272C35.0987 35.5962 35.1795 35.5704 35.2646 35.5516C35.3503 35.5324 35.4272 35.5228 35.4949 35.5215L35.7417 36.6228C35.788 36.8132 35.8325 37.012 35.8762 37.2068C35.9064 37.3405 35.9295 37.4606 35.9579 37.5869C35.9789 37.6799 36.0021 37.7677 36.0226 37.8599L36.0379 37.9285C36.0283 37.9337 36.0077 37.953 35.9287 37.9709C35.8369 37.9914 35.7032 38.0036 35.6111 38.0242Z" fill="#0A1640"/>
<path d="M41.6985 34.7558C41.7338 34.8663 41.7592 34.9794 41.781 35.093C41.8216 35.3389 41.8854 35.5582 41.9213 35.7981L41.9361 35.9134C41.9619 36.0759 41.9614 36.252 41.9095 36.404C41.8553 36.5307 41.7356 36.6228 41.6041 36.6919C41.4862 36.7578 41.3577 36.7936 41.2219 36.8133C41.0301 36.8382 40.8396 36.8378 40.7169 36.6753C40.6264 36.577 40.5832 36.4463 40.5496 36.3135C40.4561 35.9614 40.3486 35.608 40.2918 35.2441C40.249 35.0384 40.2377 34.8108 40.3421 34.619C40.3604 34.5893 40.3796 34.5635 40.4067 34.5395C40.6745 34.325 41.1 34.2368 41.4084 34.3801C41.4866 34.4233 41.5504 34.4845 41.5954 34.557C41.6421 34.6177 41.6722 34.6863 41.6985 34.7558ZM41.3582 35.2411C41.3577 35.238 41.3223 35.1275 41.3009 35.0493C41.2625 34.9252 41.1756 34.8261 41.0585 34.799C40.9576 34.782 40.8615 34.8353 40.8021 34.906C40.7374 34.9855 40.6998 35.076 40.6942 35.1782C40.6955 35.3608 40.7361 35.5569 40.7894 35.7461C40.8492 35.9016 40.8842 36.0728 40.9624 36.2135C41.0921 36.3751 41.3839 36.3315 41.4888 36.1419C41.5491 36.0104 41.515 36.0182 41.4875 35.816C41.4704 35.7229 41.4569 35.6469 41.4547 35.6364L41.418 35.4726L41.3582 35.2411Z" fill="#0A1640"/>
<path d="M42.7474 35.5407L42.7439 35.5416C42.7841 35.8343 42.8496 36.1248 42.9042 36.3856C42.7303 36.4424 42.3516 36.5311 42.3092 36.5189L42.3049 36.5158C42.1192 35.6884 42.0314 35.2629 41.7929 34.1992L41.792 34.1957C42.0187 34.1022 42.9142 33.8362 43.3188 33.8462C43.3454 33.9659 43.4166 34.2337 43.4324 34.3525C43.1899 34.4246 42.8094 34.5207 42.5316 34.612C42.5071 34.7431 42.5504 34.8558 42.6076 34.9182C42.6115 34.9213 42.6115 34.9213 42.615 34.9204C42.7487 34.9082 42.9457 34.8567 43.0462 34.8239C43.089 34.8859 43.1283 35.2219 43.182 35.3817C43.1829 35.3852 43.1799 35.39 43.1733 35.3914C43.0388 35.4468 42.8789 35.4866 42.7474 35.5407Z" fill="#0A1640"/>
<path d="M44.4148 35.1668L44.4113 35.1677C44.4515 35.4603 44.517 35.7508 44.5716 36.0116C44.3978 36.0684 44.019 36.1571 43.9766 36.1449L43.9723 36.1418C43.7866 35.3144 43.6984 34.8889 43.4599 33.8257L43.459 33.8222C43.6861 33.7287 44.5817 33.4626 44.9862 33.4727C45.0128 33.5924 45.0841 33.8602 45.0998 33.979C44.8573 34.0511 44.4768 34.1472 44.199 34.2385C44.1745 34.3695 44.2178 34.4822 44.275 34.5447C44.2789 34.5478 44.2789 34.5478 44.2824 34.5469C44.4161 34.5347 44.6131 34.4831 44.7136 34.4504C44.756 34.5124 44.7953 34.8483 44.8495 35.0082C44.8503 35.0117 44.8473 35.0161 44.8407 35.0178C44.7062 35.0729 44.5463 35.1126 44.4148 35.1668Z" fill="#0A1640"/>
<path d="M50.1034 29.9493C50.653 29.6859 51.3956 29.8217 51.8023 30.418C52.5183 31.4677 51.3161 32.6748 50.1803 32.1754C49.2669 31.774 49.1638 30.3997 50.1034 29.9493Z" fill="#0A1640"/>
<path d="M60.4041 27.6397C59.7947 27.6362 59.1814 28.0756 59.0678 28.789C58.8682 30.0441 60.471 30.622 61.2848 29.6859C61.9397 28.9332 61.446 27.6458 60.4041 27.6397Z" fill="#0A1640"/>
<path d="M60.3406 3.3326C61.9002 3.3326 63.3055 4.40898 63.6607 5.99211L77.3147 66.9007C77.7258 68.7345 76.5717 70.5553 74.7347 70.9673L29.889 81.0208C29.6396 81.0767 29.3901 81.1043 29.1442 81.1043C28.9825 81.1043 28.8222 81.0925 28.6641 81.0689C27.3033 80.8767 26.1378 79.8649 25.8193 78.4447L12.1648 17.5362C11.7538 15.7023 12.9079 13.8815 14.7453 13.4696L59.591 3.41602C59.8422 3.35967 60.0934 3.3326 60.3406 3.3326ZM60.3406 2.56812C60.0335 2.56812 59.7251 2.60219 59.4237 2.6699L14.578 12.7235C13.4902 12.9672 12.5628 13.6194 11.9661 14.56C11.3693 15.5005 11.1754 16.6166 11.4187 17.7031L25.0732 78.6116C25.4502 80.293 26.8498 81.5844 28.5566 81.8255C28.7466 81.8535 28.9458 81.8683 29.1433 81.8683C29.4469 81.8683 29.7536 81.8342 30.0554 81.7665L74.9012 71.713C75.9889 71.4692 76.9163 70.817 77.5126 69.8765C78.1093 68.9359 78.3033 67.8198 78.06 66.7334L64.4059 5.8248C63.9831 3.93762 62.2732 2.56812 60.3406 2.56812Z" fill="#0A1640"/>
<path d="M4.84949 20.2801C4.47293 20.7209 3.69447 21.2674 3.01517 23.0724C2.95445 23.2341 2.89024 23.3974 2.80506 23.5468C2.68623 23.7548 2.4333 23.7679 2.29307 23.5682C1.97636 23.1161 1.95801 22.3975 0.901721 21.1555C0.281399 20.4269 -0.322328 20.1971 0.196645 19.7563C1.49015 18.6572 1.93486 17.009 2.17032 16.573C2.2721 16.3848 2.51367 16.3699 2.6456 16.5359C2.78714 16.7137 2.86053 16.9291 2.94572 17.137C3.57565 18.6777 4.44454 19.3819 4.79926 19.7244C4.88881 19.8105 4.97967 20.1285 4.84949 20.2801Z" fill="#E38921"/>
<path d="M11.3356 41.4099C10.9018 41.9171 10.0067 42.5444 9.22303 44.626C9.15269 44.8125 9.07931 45.0003 8.98102 45.1724C8.84429 45.4118 8.55291 45.4271 8.39127 45.1969C8.02607 44.6757 8.00554 43.8488 6.78848 42.4181C6.07424 41.5785 5.37879 41.3147 5.9764 40.8066C7.46648 39.5406 7.97845 37.6425 8.24973 37.1402C8.36681 36.9235 8.64509 36.9064 8.79711 37.0973C8.96049 37.3022 9.04436 37.5499 9.14265 37.7897C9.87 39.5677 10.8739 40.3802 11.2775 40.7699C11.3806 40.8686 11.485 41.2352 11.3356 41.4099Z" fill="#E38921"/>
<path d="M16.385 4.44524C16.2946 4.55096 16.2028 4.65668 16.1019 4.75235C14.6791 6.09871 14.3445 7.65781 14.0309 8.20736C13.8941 8.44675 13.6027 8.46204 13.4415 8.23182C13.3288 8.0715 13.2437 7.88584 13.1759 7.70018C12.1179 4.80738 10.1329 4.60119 11.0271 3.84151C12.5172 2.57553 13.0292 0.677449 13.3004 0.175076C13.4175 -0.0415998 13.6958 -0.0586466 13.8478 0.132255C14.0112 0.337136 14.0951 0.584837 14.1934 0.824665C14.9207 2.60263 15.9246 3.41516 16.3282 3.80482C16.4304 3.90399 16.5349 4.27007 16.385 4.44524Z" fill="#E38921"/>
<path d="M83.7787 43.1038C83.4022 43.5446 82.6241 44.0911 81.9448 45.8962C81.8841 46.0578 81.8199 46.2212 81.7347 46.3706C81.6159 46.5785 81.363 46.5916 81.2228 46.392C80.906 45.9398 80.8877 45.2212 79.8314 43.9793C79.2111 43.2506 78.6074 43.0208 79.1263 42.5801C80.4198 41.481 80.8645 39.8327 81.1 39.3968C81.2018 39.2085 81.4429 39.1936 81.5753 39.3596C81.7168 39.5374 81.7902 39.7528 81.8754 39.9607C82.5053 41.5015 83.3742 42.2057 83.7289 42.5482C83.8181 42.6342 83.9085 42.9523 83.7787 43.1038Z" fill="#E38921"/>
</svg>
