<svg width="48" height="48" viewBox="0 0 48 48" fill="none" xmlns="http://www.w3.org/2000/svg">
<path d="M18.1286 3.75947C19.5363 2.56143 20.2401 1.96242 20.9738 1.61049C21.8142 1.2086 22.734 1 23.6655 1C24.5971 1 25.5168 1.2086 26.3572 1.61049C27.0934 1.95992 27.7972 2.55894 29.2024 3.75947C29.7639 4.23868 30.0434 4.47579 30.3429 4.67546C31.0288 5.13515 31.7991 5.45413 32.6091 5.61392C32.961 5.68381 33.3279 5.71376 34.0616 5.77366C35.906 5.91842 36.8269 5.9933 37.5956 6.26536C38.4736 6.57522 39.2712 7.07766 39.9297 7.73584C40.5883 8.39403 41.0913 9.19127 41.4017 10.0691C41.6737 10.8403 41.7461 11.7613 41.8933 13.6033C41.9507 14.3371 41.9807 14.704 42.0506 15.0584C42.2103 15.8671 42.5298 16.6383 42.989 17.3222C43.1887 17.6217 43.4282 17.9013 43.9049 18.4628C45.1029 19.8705 45.7044 20.5744 46.0563 21.3082C46.4582 22.1486 46.6667 23.0684 46.6667 24C46.6667 24.9316 46.4582 25.8514 46.0563 26.6918C45.7069 27.4256 45.1054 28.1295 43.9049 29.5372C43.5776 29.8991 43.2717 30.28 42.989 30.6778C42.5296 31.3629 42.2107 32.1324 42.0506 32.9416C41.9807 33.296 41.9507 33.6629 41.8933 34.3967C41.7461 36.2387 41.6737 37.1622 41.4017 37.9309C41.0913 38.8087 40.5883 39.606 39.9297 40.2642C39.2712 40.9223 38.4736 41.4248 37.5956 41.7347C36.8269 42.0092 35.906 42.0816 34.0616 42.2263C33.3279 42.2862 32.9635 42.3162 32.6091 42.3861C31.7991 42.5459 31.0288 42.8649 30.3429 43.3245C29.946 43.6074 29.566 43.9132 29.2049 44.2405C27.7972 45.4386 27.0934 46.0376 26.3597 46.3895C25.5193 46.7914 24.5995 47 23.668 47C22.7364 47 21.8167 46.7914 20.9763 46.3895C20.2401 46.0401 19.5363 45.4411 18.1311 44.2405C17.7692 43.9132 17.3883 43.6073 16.9906 43.3245C16.3047 42.8649 15.5344 42.5459 14.7244 42.3861C14.2438 42.3045 13.7588 42.2512 13.2719 42.2263C11.4275 42.0816 10.5066 42.0067 9.73787 41.7347C8.85987 41.4248 8.06234 40.9223 7.40376 40.2642C6.74518 39.606 6.24224 38.8087 5.93182 37.9309C5.65978 37.1622 5.5874 36.2387 5.44015 34.3967C5.41625 33.909 5.36375 33.4231 5.28292 32.9416C5.12282 32.1324 4.80386 31.3629 4.34451 30.6778C4.14485 30.3783 3.90525 30.0987 3.42856 29.5372C2.23059 28.1295 1.62911 27.4256 1.27721 26.6918C0.875338 25.8514 0.666748 24.9316 0.666748 24C0.666748 23.0684 0.875338 22.1486 1.27721 21.3082C1.62911 20.5744 2.2281 19.8705 3.42856 18.4628C3.90525 17.9013 4.14485 17.6217 4.34451 17.3222C4.80386 16.6371 5.12282 15.8676 5.28292 15.0584C5.3528 14.704 5.38275 14.3371 5.44015 13.6033C5.5874 11.7613 5.65978 10.8403 5.93182 10.0691C6.2425 9.19101 6.74582 8.39361 7.40485 7.7354C8.06388 7.0772 8.8619 6.5749 9.74036 6.26536C10.5091 5.9933 11.43 5.91842 13.2744 5.77366C14.0081 5.71376 14.3725 5.68381 14.7269 5.61392C15.5369 5.45413 16.3072 5.13515 16.9931 4.67546C17.2926 4.47579 17.5696 4.23868 18.1286 3.75947Z" fill="#DB950F" stroke="white"/>
<path d="M30.9671 23.5406C30.8172 23.3995 30.6232 23.326 30.4175 23.3407C30.0354 23.3613 29.7268 23.6993 29.7268 24.0932C29.715 27.7702 26.717 30.7594 23.04 30.7594C19.363 30.7594 16.3649 27.7702 16.3561 24.0932C16.3532 23.6993 16.0445 23.3613 15.6624 23.3407C15.4567 23.329 15.2627 23.3995 15.1128 23.5406C14.9688 23.6787 14.8835 23.8727 14.8835 24.0755C14.8835 28.2111 17.9786 31.6941 22.0847 32.1732C22.2111 32.1879 22.3052 32.2966 22.3052 32.4259V35.8943H23.7748V32.4259C23.7748 32.2966 23.8718 32.1879 23.9952 32.1732C28.1014 31.6941 31.1964 28.2111 31.1964 24.0755C31.1964 23.8727 31.1141 23.6787 30.9671 23.5406Z" fill="#DE53A8"/>
<path d="M18.4672 24.4283H27.6171C27.8757 24.4283 28.1138 24.3224 28.2843 24.152C28.4548 23.9815 28.5576 23.7463 28.5576 23.4877C28.5576 22.9674 28.1373 22.5442 27.6171 22.5442H18.4672C18.2056 22.5442 17.9704 22.65 17.8 22.8205C17.6295 22.991 17.5266 23.2261 17.5266 23.4877C17.5266 24.0079 17.9469 24.4283 18.4672 24.4283Z" fill="#DE53A8"/>
<path d="M27.5198 15.8632V22.5435H18.5586V15.8632C18.5586 14.6269 19.0591 13.5044 19.8713 12.6952C20.2751 12.2914 20.7569 11.9625 21.29 11.735C21.8279 11.5075 22.4187 11.3826 23.0392 11.3826C25.5135 11.3826 27.5198 13.3889 27.5198 15.8632Z" fill="#27C0FF"/>
<path d="M23.0405 29.1842C24.5571 29.1842 25.8974 28.4317 26.7057 27.2795C27.223 26.5506 27.5228 25.663 27.5228 24.7048V24.4285H18.561V24.7048C18.561 27.1796 20.5656 29.1842 23.0405 29.1842Z" fill="#FF8BD2"/>
<path d="M28.0112 35.8943H18.0707C17.8091 35.8943 17.574 36.0001 17.4035 36.1706C17.233 36.3411 17.1272 36.5762 17.1272 36.8349C17.1272 37.358 17.5504 37.7783 18.0707 37.7783H28.0112C28.2728 37.7783 28.508 37.6725 28.6785 37.5021C28.8489 37.3316 28.9547 37.0964 28.9547 36.8349C28.9547 36.3146 28.5315 35.8943 28.0112 35.8943Z" fill="#FF8BD2"/>
<g opacity="0.5">
<path d="M22.9317 25.5248C22.5584 25.2015 22.2469 24.8311 21.9911 24.4285H18.561V24.7048C18.561 27.1796 20.5656 29.1842 23.0405 29.1842C24.5571 29.1842 25.8974 28.4317 26.7057 27.2795C25.3154 27.0179 24.0016 26.4477 22.9317 25.5248Z" fill="#DE53A8"/>
<path d="M18.0692 35.8943C17.8082 35.8943 17.5734 36.0001 17.4023 36.1694C17.233 36.3405 17.1272 36.5753 17.1272 36.8363C17.1272 37.3569 17.549 37.7786 18.0695 37.7786H24.4744C23.5198 37.2969 22.643 36.6705 21.9144 35.8943H18.0692Z" fill="#DE53A8"/>
</g>
<path opacity="0.25" d="M20.7333 18.6351C20.7598 19.8775 20.8377 21.2666 21.1839 22.5434H18.5586V15.863C18.5586 14.6268 19.0591 13.5043 19.8713 12.6951C20.2751 12.2913 20.7569 11.9624 21.29 11.7349C20.855 14.0063 20.6866 16.3839 20.7333 18.6351Z" fill="#3C1DA1"/>
<path opacity="0.25" d="M25.0498 24.4281H18.465C17.9445 24.4281 17.5227 24.0063 17.5227 23.4857C17.5227 23.2265 17.6285 22.9899 17.7981 22.8188C17.9692 22.6495 18.2058 22.5437 18.465 22.5437H21.9198C22.1952 22.7941 22.4862 23.029 22.7913 23.2424C23.4938 23.7329 24.2524 24.123 25.0498 24.4281Z" fill="#272727"/>
<path d="M28.0115 35.7324H23.9377V32.4258C23.9377 32.3787 23.97 32.3376 24.0141 32.3346C28.2026 31.8438 31.3593 28.2932 31.3593 24.0753C31.3593 23.8284 31.2564 23.5904 31.0771 23.4228C30.8949 23.2494 30.6598 23.1642 30.4099 23.1789C29.9455 23.2083 29.5664 23.6168 29.5664 24.093C29.5664 24.2576 29.5605 24.4192 29.5458 24.5809C29.5399 24.6955 29.5282 24.8102 29.5105 24.9218C29.0961 28.1198 26.3479 30.6005 23.0412 30.6005C19.7346 30.6005 16.9864 28.1198 16.5719 24.9218C16.5543 24.8102 16.5455 24.6985 16.5367 24.5838C16.522 24.4222 16.5161 24.2576 16.5161 24.093C16.5161 23.6168 16.1369 23.2083 15.6755 23.1789C15.4227 23.1642 15.1875 23.2494 15.0053 23.4228C14.826 23.5904 14.7231 23.8284 14.7231 24.0753C14.7231 28.2932 17.8799 31.8438 22.0683 32.3317C22.1124 32.3376 22.1448 32.3787 22.1448 32.4258V35.7324H18.071C17.777 35.7324 17.5007 35.847 17.2891 36.0557C17.0834 36.2674 16.9687 36.5437 16.9687 36.8346C16.9687 37.4431 17.4625 37.9398 18.071 37.9398H28.0115C28.3054 37.9398 28.5817 37.8252 28.7933 37.6165C29.002 37.4049 29.1137 37.1286 29.1137 36.8346C29.1137 36.2292 28.6199 35.7324 28.0115 35.7324ZM22.1036 32.0143C18.0798 31.544 15.0435 28.1286 15.0435 24.0753C15.0435 23.9166 15.1111 23.7638 15.2258 23.655C15.3345 23.5522 15.4727 23.4992 15.6196 23.4992H15.6549C15.9518 23.5169 16.1957 23.7844 16.1957 24.093C16.1957 24.3105 16.2075 24.525 16.228 24.7367C16.2398 24.8513 16.2516 24.9601 16.2692 25.0718C16.7542 28.3755 19.6082 30.9209 23.0412 30.9209C26.4743 30.9209 29.3312 28.3755 29.8133 25.0718C29.8309 24.9601 29.8427 24.8513 29.8544 24.7367C29.875 24.525 29.8867 24.3105 29.8867 24.093C29.8867 23.7844 30.1307 23.5169 30.4276 23.4992C30.4423 23.4992 30.454 23.4963 30.4687 23.4963C30.6127 23.4963 30.7509 23.5551 30.8567 23.655C30.9713 23.7638 31.0389 23.9166 31.0389 24.0753C31.0389 28.1286 28.0027 31.544 23.9789 32.0143C23.7731 32.0407 23.6173 32.2171 23.6173 32.4258V35.7324H22.4651V32.4258C22.4651 32.2171 22.3094 32.0407 22.1036 32.0143ZM28.567 37.3902C28.4171 37.5371 28.2202 37.6194 28.0115 37.6194H18.071C17.6389 37.6194 17.2891 37.2667 17.2891 36.8346C17.2891 36.6289 17.3685 36.432 17.5154 36.2821C17.6653 36.1351 17.8623 36.0528 18.071 36.0528H22.1448H22.4651H23.6173H23.9377H28.0115C28.4436 36.0528 28.7933 36.4055 28.7933 36.8346C28.7933 37.0433 28.714 37.2403 28.567 37.3902Z" fill="#272727"/>
<path d="M17.7601 24.3283C17.9335 24.4782 18.1569 24.5723 18.4008 24.5869V24.7045C18.4008 27.2646 20.4848 29.3456 23.0419 29.3456C24.5527 29.3456 25.9694 28.6078 26.8394 27.3734C27.392 26.5915 27.683 25.6686 27.683 24.7045V24.5869C27.9211 24.5752 28.1444 24.4841 28.3267 24.3283C28.3531 24.3107 28.3737 24.2901 28.3972 24.2666C28.4531 24.2107 28.503 24.1461 28.5442 24.0814C28.6588 23.905 28.7205 23.7022 28.7205 23.4877C28.7205 22.8998 28.262 22.4178 27.683 22.3854V21.7741V21.4155C27.683 21.3614 27.683 17.0266 27.683 17.133C27.683 17.1033 27.683 16.7447 27.683 16.7744C27.6336 16.4975 28.1941 13.2597 25.117 11.713C24.9936 11.6513 24.8701 11.5925 24.7379 11.5425H24.7349C24.2117 11.3368 23.6386 11.2222 23.0419 11.2222C20.8313 11.2222 19.0866 12.7429 18.5684 14.6229C18.5684 14.6229 18.5684 14.6258 18.5684 14.6288C18.3112 15.5293 18.4346 16.2753 18.4008 16.7744C18.4008 16.812 18.4008 17.337 18.4008 17.3035C18.4008 17.5227 18.4008 19.403 18.4008 19.3668C18.4008 19.4095 18.4008 21.4804 18.4008 21.4155C18.4008 21.4787 18.4008 22.4181 18.4008 22.3854C18.1334 22.4001 17.8806 22.5148 17.6866 22.7058C17.4808 22.9145 17.3662 23.1937 17.3662 23.4877C17.3662 23.7052 17.4309 23.9109 17.5426 24.0814C17.6014 24.1755 17.6748 24.2578 17.7601 24.3283ZM27.3626 24.7045C27.3626 25.601 27.0922 26.4592 26.5778 27.1882C25.7695 28.3374 24.4469 29.0252 23.0419 29.0252C20.6611 29.0252 18.7212 27.0853 18.7212 24.7045V24.5899H27.3626V24.7045ZM27.3626 22.3825H25.1464L23.4005 21.5096L25.2757 20.5719H25.2787L27.3626 21.6154V22.3825ZM18.7212 17.2947L20.4495 18.1588L18.7212 19.0229V17.2947ZM18.7888 15.0902L20.4524 15.922L18.7212 16.7891C18.7338 16.0152 18.6856 15.681 18.7888 15.0902ZM27.3626 16.7862L25.6343 15.922L27.2921 15.0932C27.3991 15.6622 27.3503 16.0314 27.3626 16.7862ZM27.3626 19.02L25.6373 18.1588L27.3626 17.2947V19.02ZM25.2787 16.1013L27.1539 17.0389L25.2757 17.9766L23.4005 17.0389L25.2787 16.1013ZM23.0419 16.8597L21.1637 15.922L23.0419 14.9844L24.9201 15.922L23.0419 16.8597ZM22.6863 17.0389L20.8081 17.9766L18.9299 17.0389L20.8081 16.1013L22.6863 17.0389ZM23.0419 17.2182L24.9172 18.1559L23.0419 19.0935L21.1667 18.1559L23.0419 17.2182ZM25.2787 18.3352L27.1539 19.2757L25.2787 20.2133L23.4034 19.2757L25.2787 18.3352ZM25.2757 15.7427L23.4005 14.8051L25.2757 13.8675L27.1539 14.8051L25.2757 15.7427ZM23.0419 14.6258L21.1637 13.6882L23.0419 12.7506L24.9201 13.6882L23.0419 14.6258ZM22.6863 14.8051L20.8081 15.7427L18.9299 14.8051L20.8081 13.8675L22.6863 14.8051ZM20.8081 18.3352L22.6833 19.2757L20.8051 20.2133L18.9299 19.2757L20.8081 18.3352ZM23.0419 19.455L24.9201 20.3926L23.0419 21.3303L21.1637 20.3926L23.0419 19.455ZM24.4322 22.3825H21.6516L23.0419 21.6888L24.4322 22.3825ZM25.6373 20.3926L27.3626 19.5285V21.2538L25.6373 20.3926ZM27.1187 14.426L25.6373 13.6882L26.4896 13.2591C26.7542 13.6088 26.9658 14.0027 27.1187 14.426ZM26.281 13.0063L25.2787 13.5089L23.4034 12.5713L24.7496 11.8953C25.3404 12.148 25.8607 12.5301 26.281 13.0063ZM23.0419 11.5425C23.4946 11.5425 23.9266 11.6131 24.3381 11.7424L23.0419 12.3891L21.7428 11.7395C22.1601 11.6101 22.5981 11.5425 23.0419 11.5425ZM21.3313 11.8953H21.3342L22.6833 12.5713L20.8051 13.5089L19.8029 13.0063C20.1902 12.5607 20.7225 12.1551 21.3313 11.8953ZM19.5942 13.2591L20.4495 13.6882L18.9622 14.4289C19.1092 14.0086 19.3208 13.6177 19.5942 13.2591ZM18.7212 19.5285L20.4495 20.3926L18.7212 21.2568V19.5285ZM20.8081 20.5719L22.6863 21.5096L20.9403 22.3825H18.7212V21.6154L20.8081 20.5719ZM17.9129 22.9321C18.0452 22.8028 18.2157 22.7205 18.4008 22.7058C18.4214 22.7029 18.4449 22.7029 18.4684 22.7029H18.5625H20.2996H21.0109H25.0729H25.7872H27.5243H27.6183C27.6418 22.7029 27.6624 22.7029 27.683 22.7058C28.0857 22.7382 28.4002 23.0762 28.4002 23.4877C28.4002 23.6523 28.3502 23.808 28.2561 23.9374C28.2326 23.9726 28.2062 24.0079 28.1738 24.0373C28.1209 24.0902 28.0651 24.1343 28.0034 24.1666C27.9034 24.2225 27.7976 24.2577 27.683 24.2666C27.6624 24.2695 27.6418 24.2695 27.6183 24.2695H27.3626H18.7212H18.4684C18.4449 24.2695 18.4243 24.2695 18.4008 24.2666C18.2862 24.2577 18.1804 24.2225 18.0834 24.1666C17.9835 24.1108 17.8953 24.0314 17.8306 23.9374C17.7395 23.811 17.6866 23.6552 17.6866 23.4877C17.6866 23.276 17.7689 23.0791 17.9129 22.9321Z" fill="#272727"/>
<path d="M25.5565 14.7754C25.6235 15.3292 25.6588 15.8829 25.6829 16.437C25.7091 16.9907 25.7167 17.5445 25.7208 18.0985C25.7188 18.6523 25.7129 19.206 25.6882 19.7601C25.6656 20.3138 25.6315 20.8676 25.5659 21.4217C25.5556 21.5078 25.4775 21.5695 25.3913 21.5592C25.3179 21.5504 25.262 21.4922 25.2538 21.4217C25.1879 20.8679 25.1541 20.3138 25.1315 19.7601C25.1068 19.2063 25.1009 18.6526 25.0989 18.0985C25.1027 17.5448 25.1103 16.991 25.1368 16.437C25.1612 15.8832 25.1965 15.3295 25.2632 14.7754C25.2729 14.6943 25.3467 14.6364 25.4278 14.6464C25.4966 14.6546 25.5486 14.7093 25.5565 14.7754Z" fill="white"/>
</svg>
