<svg width="48" height="48" viewBox="0 0 48 48" fill="none" xmlns="http://www.w3.org/2000/svg">
<path d="M18.4619 3.75947C19.8695 2.56143 20.5733 1.96242 21.3071 1.61049C22.1475 1.2086 23.0672 1 23.9988 1C24.9303 1 25.85 1.2086 26.6904 1.61049C27.4267 1.95992 28.1305 2.55894 29.5356 3.75947C30.0972 4.23868 30.3767 4.47579 30.6762 4.67546C31.362 5.13515 32.1323 5.45413 32.9423 5.61392C33.2942 5.68381 33.6611 5.71376 34.3949 5.77366C36.2393 5.91842 37.1602 5.9933 37.9289 6.26536C38.8069 6.57522 39.6044 7.07766 40.263 7.73584C40.9216 8.39403 41.4245 9.19127 41.7349 10.0691C42.007 10.8403 42.0793 11.7613 42.2266 13.6033C42.284 14.3371 42.3139 14.704 42.3838 15.0584C42.5436 15.8671 42.863 16.6383 43.3222 17.3222C43.5219 17.6217 43.7615 17.9013 44.2382 18.4628C45.4362 19.8705 46.0376 20.5744 46.3895 21.3082C46.7914 22.1486 47 23.0684 47 24C47 24.9316 46.7914 25.8514 46.3895 26.6918C46.0401 27.4256 45.4387 28.1295 44.2382 29.5372C43.9108 29.8991 43.605 30.28 43.3222 30.6778C42.8629 31.3629 42.5439 32.1324 42.3838 32.9416C42.3139 33.296 42.284 33.6629 42.2266 34.3967C42.0793 36.2387 42.007 37.1622 41.7349 37.9309C41.4245 38.8087 40.9216 39.606 40.263 40.2642C39.6044 40.9223 38.8069 41.4248 37.9289 41.7347C37.1602 42.0092 36.2393 42.0816 34.3949 42.2263C33.6611 42.2862 33.2967 42.3162 32.9423 42.3861C32.1323 42.5459 31.362 42.8649 30.6762 43.3245C30.2793 43.6074 29.8993 43.9132 29.5381 44.2405C28.1305 45.4386 27.4267 46.0376 26.6929 46.3895C25.8525 46.7914 24.9328 47 24.0012 47C23.0697 47 22.15 46.7914 21.3096 46.3895C20.5733 46.0401 19.8695 45.4411 18.4644 44.2405C18.1024 43.9132 17.7216 43.6073 17.3238 43.3245C16.638 42.8649 15.8677 42.5459 15.0577 42.3861C14.577 42.3045 14.092 42.2512 13.6051 42.2263C11.7608 42.0816 10.8398 42.0067 10.0711 41.7347C9.19312 41.4248 8.39559 40.9223 7.73701 40.2642C7.07843 39.606 6.57549 38.8087 6.26507 37.9309C5.99303 37.1622 5.92065 36.2387 5.7734 34.3967C5.7495 33.909 5.697 33.4231 5.61617 32.9416C5.45607 32.1324 5.13712 31.3629 4.67776 30.6778C4.4781 30.3783 4.23851 30.0987 3.76181 29.5372C2.56384 28.1295 1.96236 27.4256 1.61046 26.6918C1.20859 25.8514 1 24.9316 1 24C1 23.0684 1.20859 22.1486 1.61046 21.3082C1.96236 20.5744 2.56135 19.8705 3.76181 18.4628C4.23851 17.9013 4.4781 17.6217 4.67776 17.3222C5.13712 16.6371 5.45607 15.8676 5.61617 15.0584C5.68605 14.704 5.716 14.3371 5.7734 13.6033C5.92065 11.7613 5.99303 10.8403 6.26507 10.0691C6.57575 9.19101 7.07907 8.39361 7.7381 7.7354C8.39713 7.0772 9.19515 6.5749 10.0736 6.26536C10.8423 5.9933 11.7632 5.91842 13.6076 5.77366C14.3414 5.71376 14.7058 5.68381 15.0602 5.61392C15.8702 5.45413 16.6405 5.13515 17.3263 4.67546C17.6258 4.47579 17.9028 4.23868 18.4619 3.75947Z" fill="#DE53A8" stroke="white"/>
<path d="M31.3004 23.5406C31.1505 23.3995 30.9565 23.326 30.7507 23.3407C30.3686 23.3613 30.06 23.6993 30.06 24.0932C30.0483 27.7702 27.0502 30.7594 23.3732 30.7594C19.6962 30.7594 16.6982 27.7702 16.6894 24.0932C16.6864 23.6993 16.3778 23.3613 15.9957 23.3407C15.79 23.329 15.596 23.3995 15.4461 23.5406C15.302 23.6787 15.2168 23.8727 15.2168 24.0755C15.2168 28.2111 18.3118 31.6941 22.418 32.1732C22.5444 32.1879 22.6384 32.2966 22.6384 32.4259V35.8943H24.108V32.4259C24.108 32.2966 24.205 32.1879 24.3285 32.1732C28.4346 31.6941 31.5296 28.2111 31.5296 24.0755C31.5296 23.8727 31.4473 23.6787 31.3004 23.5406Z" fill="#DE53A8"/>
<path d="M18.8004 24.4283H27.9503C28.209 24.4283 28.4471 24.3224 28.6175 24.152C28.788 23.9815 28.8909 23.7463 28.8909 23.4877C28.8909 22.9674 28.4706 22.5442 27.9503 22.5442H18.8004C18.5388 22.5442 18.3037 22.65 18.1332 22.8205C17.9627 22.991 17.8599 23.2261 17.8599 23.4877C17.8599 24.0079 18.2802 24.4283 18.8004 24.4283Z" fill="#DE53A8"/>
<path d="M27.853 15.8632V22.5435H18.8918V15.8632C18.8918 14.6269 19.3924 13.5044 20.2045 12.6952C20.6084 12.2914 21.0901 11.9625 21.6233 11.735C22.1612 11.5075 22.752 11.3826 23.3724 11.3826C25.8467 11.3826 27.853 13.3889 27.853 15.8632Z" fill="#27C0FF"/>
<path d="M23.3737 29.1842C24.8904 29.1842 26.2307 28.4317 27.039 27.2795C27.5563 26.5506 27.8561 25.663 27.8561 24.7048V24.4285H18.8943V24.7048C18.8943 27.1796 20.8989 29.1842 23.3737 29.1842Z" fill="#FF8BD2"/>
<path d="M28.3445 35.8943H18.4039C18.1424 35.8943 17.9072 36.0001 17.7367 36.1706C17.5663 36.3411 17.4604 36.5762 17.4604 36.8349C17.4604 37.358 17.8837 37.7783 18.4039 37.7783H28.3445C28.6061 37.7783 28.8412 37.6725 29.0117 37.5021C29.1822 37.3316 29.288 37.0964 29.288 36.8349C29.288 36.3146 28.8647 35.8943 28.3445 35.8943Z" fill="#FF8BD2"/>
<g opacity="0.5">
<path d="M23.265 25.5248C22.8917 25.2015 22.5801 24.8311 22.3244 24.4285H18.8943V24.7048C18.8943 27.1796 20.8989 29.1842 23.3737 29.1842C24.8904 29.1842 26.2307 28.4317 27.039 27.2795C25.6487 27.0179 24.3348 26.4477 23.265 25.5248Z" fill="#DE53A8"/>
<path d="M18.4025 35.8943C18.1415 35.8943 17.9066 36.0001 17.7356 36.1694C17.5663 36.3405 17.4604 36.5753 17.4604 36.8363C17.4604 37.3569 17.8822 37.7786 18.4028 37.7786H24.8077C23.853 37.2969 22.9763 36.6705 22.2476 35.8943H18.4025Z" fill="#DE53A8"/>
</g>
<path opacity="0.25" d="M21.0666 18.6351C21.0931 19.8775 21.1709 21.2666 21.5172 22.5434H18.8918V15.863C18.8918 14.6268 19.3924 13.5043 20.2045 12.6951C20.6084 12.2913 21.0901 11.9624 21.6233 11.7349C21.1883 14.0063 21.0199 16.3839 21.0666 18.6351Z" fill="#3C1DA1"/>
<path opacity="0.25" d="M25.3831 24.4281H18.7983C18.2777 24.4281 17.856 24.0063 17.856 23.4857C17.856 23.2265 17.9618 22.9899 18.1314 22.8188C18.3024 22.6495 18.539 22.5437 18.7983 22.5437H22.2531C22.5285 22.7941 22.8195 23.029 23.1246 23.2424C23.827 23.7329 24.5857 24.123 25.3831 24.4281Z" fill="#272727"/>
<path d="M28.3448 35.7324H24.271V32.4258C24.271 32.3787 24.3033 32.3376 24.3474 32.3346C28.5358 31.8438 31.6926 28.2932 31.6926 24.0753C31.6926 23.8284 31.5897 23.5904 31.4104 23.4228C31.2282 23.2494 30.993 23.1642 30.7432 23.1789C30.2788 23.2083 29.8996 23.6168 29.8996 24.093C29.8996 24.2576 29.8937 24.4192 29.879 24.5809C29.8732 24.6955 29.8614 24.8102 29.8438 24.9218C29.4293 28.1198 26.6811 30.6005 23.3745 30.6005C20.0678 30.6005 17.3196 28.1198 16.9052 24.9218C16.8875 24.8102 16.8787 24.6985 16.8699 24.5838C16.8552 24.4222 16.8493 24.2576 16.8493 24.093C16.8493 23.6168 16.4702 23.2083 16.0087 23.1789C15.7559 23.1642 15.5208 23.2494 15.3386 23.4228C15.1593 23.5904 15.0564 23.8284 15.0564 24.0753C15.0564 28.2932 18.2132 31.8438 22.4016 32.3317C22.4457 32.3376 22.478 32.3787 22.478 32.4258V35.7324H18.4042C18.1103 35.7324 17.834 35.847 17.6224 36.0557C17.4166 36.2674 17.302 36.5437 17.302 36.8346C17.302 37.4431 17.7958 37.9398 18.4042 37.9398H28.3448C28.6387 37.9398 28.915 37.8252 29.1266 37.6165C29.3353 37.4049 29.447 37.1286 29.447 36.8346C29.447 36.2292 28.9532 35.7324 28.3448 35.7324ZM22.4369 32.0143C18.413 31.544 15.3768 28.1286 15.3768 24.0753C15.3768 23.9166 15.4444 23.7638 15.559 23.655C15.6678 23.5522 15.8059 23.4992 15.9529 23.4992H15.9881C16.285 23.5169 16.529 23.7844 16.529 24.093C16.529 24.3105 16.5407 24.525 16.5613 24.7367C16.5731 24.8513 16.5848 24.9601 16.6024 25.0718C17.0874 28.3755 19.9414 30.9209 23.3745 30.9209C26.8075 30.9209 29.6645 28.3755 30.1465 25.0718C30.1642 24.9601 30.1759 24.8513 30.1877 24.7367C30.2082 24.525 30.22 24.3105 30.22 24.093C30.22 23.7844 30.464 23.5169 30.7608 23.4992C30.7755 23.4992 30.7873 23.4963 30.802 23.4963C30.946 23.4963 31.0841 23.5551 31.19 23.655C31.3046 23.7638 31.3722 23.9166 31.3722 24.0753C31.3722 28.1286 28.3359 31.544 24.3121 32.0143C24.1064 32.0407 23.9506 32.2171 23.9506 32.4258V35.7324H22.7984V32.4258C22.7984 32.2171 22.6426 32.0407 22.4369 32.0143ZM28.9003 37.3902C28.7504 37.5371 28.5534 37.6194 28.3448 37.6194H18.4042C17.9721 37.6194 17.6224 37.2667 17.6224 36.8346C17.6224 36.6289 17.7017 36.432 17.8487 36.2821C17.9986 36.1351 18.1955 36.0528 18.4042 36.0528H22.478H22.7984H23.9506H24.271H28.3448C28.7768 36.0528 29.1266 36.4055 29.1266 36.8346C29.1266 37.0433 29.0472 37.2403 28.9003 37.3902Z" fill="#272727"/>
<path d="M18.0933 24.3283C18.2667 24.4782 18.4901 24.5723 18.7341 24.5869V24.7045C18.7341 27.2646 20.818 29.3456 23.3752 29.3456C24.8859 29.3456 26.3027 28.6078 27.1727 27.3734C27.7253 26.5915 28.0162 25.6686 28.0162 24.7045V24.5869C28.2543 24.5752 28.4777 24.4841 28.6599 24.3283C28.6864 24.3107 28.707 24.2901 28.7305 24.2666C28.7863 24.2107 28.8363 24.1461 28.8774 24.0814C28.9921 23.905 29.0538 23.7022 29.0538 23.4877C29.0538 22.8998 28.5953 22.4178 28.0162 22.3854V21.7741V21.4155C28.0162 21.3614 28.0162 17.0266 28.0162 17.133C28.0162 17.1033 28.0162 16.7447 28.0162 16.7744C27.9669 16.4975 28.5274 13.2597 25.4503 11.713C25.3268 11.6513 25.2034 11.5925 25.0711 11.5425H25.0682C24.545 11.3368 23.9718 11.2222 23.3752 11.2222C21.1645 11.2222 19.4198 12.7429 18.9016 14.6229C18.9016 14.6229 18.9016 14.6258 18.9016 14.6288C18.6444 15.5293 18.7679 16.2753 18.7341 16.7744C18.7341 16.812 18.7341 17.337 18.7341 17.3035C18.7341 17.5227 18.7341 19.403 18.7341 19.3668C18.7341 19.4095 18.7341 21.4804 18.7341 21.4155C18.7341 21.4787 18.7341 22.4181 18.7341 22.3854C18.4666 22.4001 18.2138 22.5148 18.0198 22.7058C17.8141 22.9145 17.6995 23.1937 17.6995 23.4877C17.6995 23.7052 17.7641 23.9109 17.8758 24.0814C17.9346 24.1755 18.0081 24.2578 18.0933 24.3283ZM27.6959 24.7045C27.6959 25.601 27.4254 26.4592 26.9111 27.1882C26.1028 28.3374 24.7801 29.0252 23.3752 29.0252C20.9944 29.0252 19.0545 27.0853 19.0545 24.7045V24.5899H27.6959V24.7045ZM27.6959 22.3825H25.4797L23.7337 21.5096L25.609 20.5719H25.6119L27.6959 21.6154V22.3825ZM19.0545 17.2947L20.7827 18.1588L19.0545 19.0229V17.2947ZM19.1221 15.0902L20.7857 15.922L19.0545 16.7891C19.0671 16.0152 19.0189 15.681 19.1221 15.0902ZM27.6959 16.7862L25.9676 15.922L27.6253 15.0932C27.7323 15.6622 27.6835 16.0314 27.6959 16.7862ZM27.6959 19.02L25.9705 18.1588L27.6959 17.2947V19.02ZM25.6119 16.1013L27.4872 17.0389L25.609 17.9766L23.7337 17.0389L25.6119 16.1013ZM23.3752 16.8597L21.497 15.922L23.3752 14.9844L25.2533 15.922L23.3752 16.8597ZM23.0195 17.0389L21.1413 17.9766L19.2631 17.0389L21.1413 16.1013L23.0195 17.0389ZM23.3752 17.2182L25.2504 18.1559L23.3752 19.0935L21.4999 18.1559L23.3752 17.2182ZM25.6119 18.3352L27.4872 19.2757L25.6119 20.2133L23.7367 19.2757L25.6119 18.3352ZM25.609 15.7427L23.7337 14.8051L25.609 13.8675L27.4872 14.8051L25.609 15.7427ZM23.3752 14.6258L21.497 13.6882L23.3752 12.7506L25.2533 13.6882L23.3752 14.6258ZM23.0195 14.8051L21.1413 15.7427L19.2631 14.8051L21.1413 13.8675L23.0195 14.8051ZM21.1413 18.3352L23.0166 19.2757L21.1384 20.2133L19.2631 19.2757L21.1413 18.3352ZM23.3752 19.455L25.2533 20.3926L23.3752 21.3303L21.497 20.3926L23.3752 19.455ZM24.7654 22.3825H21.9849L23.3752 21.6888L24.7654 22.3825ZM25.9705 20.3926L27.6959 19.5285V21.2538L25.9705 20.3926ZM27.4519 14.426L25.9705 13.6882L26.8229 13.2591C27.0874 13.6088 27.2991 14.0027 27.4519 14.426ZM26.6142 13.0063L25.6119 13.5089L23.7367 12.5713L25.0829 11.8953C25.6737 12.148 26.1939 12.5301 26.6142 13.0063ZM23.3752 11.5425C23.8278 11.5425 24.2599 11.6131 24.6714 11.7424L23.3752 12.3891L22.076 11.7395C22.4934 11.6101 22.9313 11.5425 23.3752 11.5425ZM21.6645 11.8953H21.6675L23.0166 12.5713L21.1384 13.5089L20.1361 13.0063C20.5235 12.5607 21.0558 12.1551 21.6645 11.8953ZM19.9274 13.2591L20.7827 13.6882L19.2955 14.4289C19.4424 14.0086 19.6541 13.6177 19.9274 13.2591ZM19.0545 19.5285L20.7827 20.3926L19.0545 21.2568V19.5285ZM21.1413 20.5719L23.0195 21.5096L21.2736 22.3825H19.0545V21.6154L21.1413 20.5719ZM18.2462 22.9321C18.3784 22.8028 18.5489 22.7205 18.7341 22.7058C18.7547 22.7029 18.7782 22.7029 18.8017 22.7029H18.8957H20.6328H21.3441H25.4062H26.1204H27.8575H27.9516C27.9751 22.7029 27.9957 22.7029 28.0162 22.7058C28.4189 22.7382 28.7334 23.0762 28.7334 23.4877C28.7334 23.6523 28.6834 23.808 28.5894 23.9374C28.5659 23.9726 28.5394 24.0079 28.5071 24.0373C28.4542 24.0902 28.3983 24.1343 28.3366 24.1666C28.2367 24.2225 28.1309 24.2577 28.0162 24.2666C27.9957 24.2695 27.9751 24.2695 27.9516 24.2695H27.6959H19.0545H18.8017C18.7782 24.2695 18.7576 24.2695 18.7341 24.2666C18.6194 24.2577 18.5136 24.2225 18.4166 24.1666C18.3167 24.1108 18.2285 24.0314 18.1639 23.9374C18.0727 23.811 18.0198 23.6552 18.0198 23.4877C18.0198 23.276 18.1021 23.0791 18.2462 22.9321Z" fill="#272727"/>
<path d="M25.8898 14.7754C25.9568 15.3292 25.9921 15.8829 26.0162 16.437C26.0423 16.9907 26.05 17.5445 26.0541 18.0985C26.052 18.6523 26.0461 19.206 26.0215 19.7601C25.9988 20.3138 25.9647 20.8676 25.8992 21.4217C25.8889 21.5078 25.8107 21.5695 25.7246 21.5592C25.6511 21.5504 25.5953 21.4922 25.587 21.4217C25.5212 20.8679 25.4874 20.3138 25.4648 19.7601C25.4401 19.2063 25.4342 18.6526 25.4321 18.0985C25.4359 17.5448 25.4436 16.991 25.47 16.437C25.4944 15.8832 25.5297 15.3295 25.5964 14.7754C25.6061 14.6943 25.6799 14.6364 25.761 14.6464C25.8298 14.6546 25.8818 14.7093 25.8898 14.7754Z" fill="white"/>
</svg>
