<svg width="48" height="48" viewBox="0 0 48 48" fill="none" xmlns="http://www.w3.org/2000/svg">
<path d="M18.7951 3.75947C20.2028 2.56143 20.9066 1.96242 21.6403 1.61049C22.4807 1.2086 23.4005 1 24.332 1C25.2636 1 26.1833 1.2086 27.0237 1.61049C27.7599 1.95992 28.4638 2.55894 29.8689 3.75947C30.4304 4.23868 30.7099 4.47579 31.0094 4.67546C31.6953 5.13515 32.4656 5.45413 33.2756 5.61392C33.6275 5.68381 33.9944 5.71376 34.7281 5.77366C36.5725 5.91842 37.4934 5.9933 38.2621 6.26536C39.1401 6.57522 39.9377 7.07766 40.5962 7.73584C41.2548 8.39403 41.7578 9.19127 42.0682 10.0691C42.3402 10.8403 42.4126 11.7613 42.5599 13.6033C42.6173 14.3371 42.6472 14.704 42.7171 15.0584C42.8768 15.8671 43.1963 16.6383 43.6555 17.3222C43.8552 17.6217 44.0947 17.9013 44.5714 18.4628C45.7694 19.8705 46.3709 20.5744 46.7228 21.3082C47.1247 22.1486 47.3333 23.0684 47.3333 24C47.3333 24.9316 47.1247 25.8514 46.7228 26.6918C46.3734 27.4256 45.7719 28.1295 44.5714 29.5372C44.2441 29.8991 43.9383 30.28 43.6555 30.6778C43.1961 31.3629 42.8772 32.1324 42.7171 32.9416C42.6472 33.296 42.6173 33.6629 42.5599 34.3967C42.4126 36.2387 42.3402 37.1622 42.0682 37.9309C41.7578 38.8087 41.2548 39.606 40.5962 40.2642C39.9377 40.9223 39.1401 41.4248 38.2621 41.7347C37.4934 42.0092 36.5725 42.0816 34.7281 42.2263C33.9944 42.2862 33.63 42.3162 33.2756 42.3861C32.4656 42.5459 31.6953 42.8649 31.0094 43.3245C30.6125 43.6074 30.2325 43.9132 29.8714 44.2405C28.4638 45.4386 27.7599 46.0376 27.0262 46.3895C26.1858 46.7914 25.2661 47 24.3345 47C23.403 47 22.4832 46.7914 21.6428 46.3895C20.9066 46.0401 20.2028 45.4411 18.7976 44.2405C18.4357 43.9132 18.0548 43.6073 17.6571 43.3245C16.9712 42.8649 16.2009 42.5459 15.3909 42.3861C14.9103 42.3045 14.4253 42.2512 13.9384 42.2263C12.094 42.0816 11.1731 42.0067 10.4044 41.7347C9.52637 41.4248 8.72884 40.9223 8.07026 40.2642C7.41168 39.606 6.90874 38.8087 6.59832 37.9309C6.32628 37.1622 6.2539 36.2387 6.10665 34.3967C6.08275 33.909 6.03025 33.4231 5.94942 32.9416C5.78932 32.1324 5.47037 31.3629 5.01101 30.6778C4.81135 30.3783 4.57176 30.0987 4.09507 29.5372C2.8971 28.1295 2.29562 27.4256 1.94371 26.6918C1.54184 25.8514 1.33325 24.9316 1.33325 24C1.33325 23.0684 1.54184 22.1486 1.94371 21.3082C2.29562 20.5744 2.8946 19.8705 4.09507 18.4628C4.57176 17.9013 4.81135 17.6217 5.01101 17.3222C5.47037 16.6371 5.78932 15.8676 5.94942 15.0584C6.0193 14.704 6.04925 14.3371 6.10665 13.6033C6.2539 11.7613 6.32628 10.8403 6.59832 10.0691C6.909 9.19101 7.41232 8.39361 8.07135 7.7354C8.73038 7.0772 9.5284 6.5749 10.4069 6.26536C11.1756 5.9933 12.0965 5.91842 13.9409 5.77366C14.6746 5.71376 15.039 5.68381 15.3934 5.61392C16.2034 5.45413 16.9737 5.13515 17.6596 4.67546C17.9591 4.47579 18.2361 4.23868 18.7951 3.75947Z" fill="#9D63E7" stroke="white"/>
<path d="M31.6336 23.5406C31.4837 23.3995 31.2897 23.326 31.084 23.3407C30.7019 23.3613 30.3933 23.6993 30.3933 24.0932C30.3815 27.7702 27.3835 30.7594 23.7065 30.7594C20.0295 30.7594 17.0314 27.7702 17.0226 24.0932C17.0197 23.6993 16.7111 23.3613 16.3289 23.3407C16.1232 23.329 15.9292 23.3995 15.7793 23.5406C15.6353 23.6787 15.55 23.8727 15.55 24.0755C15.55 28.2111 18.6451 31.6941 22.7512 32.1732C22.8776 32.1879 22.9717 32.2966 22.9717 32.4259V35.8943H24.4413V32.4259C24.4413 32.2966 24.5383 32.1879 24.6617 32.1732C28.7679 31.6941 31.8629 28.2111 31.8629 24.0755C31.8629 23.8727 31.7806 23.6787 31.6336 23.5406Z" fill="#DE53A8"/>
<path d="M19.1337 24.4283H28.2836C28.5422 24.4283 28.7803 24.3224 28.9508 24.152C29.1213 23.9815 29.2241 23.7463 29.2241 23.4877C29.2241 22.9674 28.8038 22.5442 28.2836 22.5442H19.1337C18.8721 22.5442 18.6369 22.65 18.4665 22.8205C18.296 22.991 18.1931 23.2261 18.1931 23.4877C18.1931 24.0079 18.6134 24.4283 19.1337 24.4283Z" fill="#DE53A8"/>
<path d="M28.1863 15.8632V22.5435H19.2251V15.8632C19.2251 14.6269 19.7257 13.5044 20.5378 12.6952C20.9416 12.2914 21.4234 11.9625 21.9565 11.735C22.4944 11.5075 23.0852 11.3826 23.7057 11.3826C26.18 11.3826 28.1863 13.3889 28.1863 15.8632Z" fill="#27C0FF"/>
<path d="M23.707 29.1842C25.2236 29.1842 26.5639 28.4317 27.3722 27.2795C27.8895 26.5506 28.1893 25.663 28.1893 24.7048V24.4285H19.2275V24.7048C19.2275 27.1796 21.2321 29.1842 23.707 29.1842Z" fill="#FF8BD2"/>
<path d="M28.6778 35.8943H18.7372C18.4756 35.8943 18.2405 36.0001 18.07 36.1706C17.8995 36.3411 17.7937 36.5762 17.7937 36.8349C17.7937 37.358 18.217 37.7783 18.7372 37.7783H28.6778C28.9393 37.7783 29.1745 37.6725 29.345 37.5021C29.5154 37.3316 29.6213 37.0964 29.6213 36.8349C29.6213 36.3146 29.198 35.8943 28.6778 35.8943Z" fill="#FF8BD2"/>
<g opacity="0.5">
<path d="M23.5982 25.5248C23.2249 25.2015 22.9134 24.8311 22.6576 24.4285H19.2275V24.7048C19.2275 27.1796 21.2321 29.1842 23.707 29.1842C25.2236 29.1842 26.5639 28.4317 27.3722 27.2795C25.9819 27.0179 24.6681 26.4477 23.5982 25.5248Z" fill="#DE53A8"/>
<path d="M18.7357 35.8943C18.4747 35.8943 18.2399 36.0001 18.0688 36.1694C17.8995 36.3405 17.7937 36.5753 17.7937 36.8363C17.7937 37.3569 18.2155 37.7786 18.736 37.7786H25.141C24.1863 37.2969 23.3095 36.6705 22.5809 35.8943H18.7357Z" fill="#DE53A8"/>
</g>
<path opacity="0.25" d="M21.3998 18.6351C21.4263 19.8775 21.5042 21.2666 21.8504 22.5434H19.2251V15.863C19.2251 14.6268 19.7257 13.5043 20.5378 12.6951C20.9416 12.2913 21.4234 11.9624 21.9565 11.7349C21.5215 14.0063 21.3531 16.3839 21.3998 18.6351Z" fill="#3C1DA1"/>
<path opacity="0.25" d="M25.7163 24.4281H19.1315C18.611 24.4281 18.1892 24.0063 18.1892 23.4857C18.1892 23.2265 18.295 22.9899 18.4646 22.8188C18.6357 22.6495 18.8723 22.5437 19.1315 22.5437H22.5863C22.8617 22.7941 23.1527 23.029 23.4578 23.2424C24.1603 23.7329 24.9189 24.123 25.7163 24.4281Z" fill="#272727"/>
<path d="M28.678 35.7324H24.6042V32.4258C24.6042 32.3787 24.6365 32.3376 24.6806 32.3346C28.8691 31.8438 32.0258 28.2932 32.0258 24.0753C32.0258 23.8284 31.9229 23.5904 31.7436 23.4228C31.5614 23.2494 31.3263 23.1642 31.0764 23.1789C30.612 23.2083 30.2329 23.6168 30.2329 24.093C30.2329 24.2576 30.227 24.4192 30.2123 24.5809C30.2064 24.6955 30.1947 24.8102 30.177 24.9218C29.7626 28.1198 27.0144 30.6005 23.7077 30.6005C20.4011 30.6005 17.6529 28.1198 17.2384 24.9218C17.2208 24.8102 17.212 24.6985 17.2032 24.5838C17.1885 24.4222 17.1826 24.2576 17.1826 24.093C17.1826 23.6168 16.8034 23.2083 16.342 23.1789C16.0892 23.1642 15.8541 23.2494 15.6718 23.4228C15.4925 23.5904 15.3896 23.8284 15.3896 24.0753C15.3896 28.2932 18.5464 31.8438 22.7348 32.3317C22.7789 32.3376 22.8113 32.3787 22.8113 32.4258V35.7324H18.7375C18.4435 35.7324 18.1672 35.847 17.9556 36.0557C17.7499 36.2674 17.6352 36.5437 17.6352 36.8346C17.6352 37.4431 18.129 37.9398 18.7375 37.9398H28.678C28.9719 37.9398 29.2482 37.8252 29.4598 37.6165C29.6685 37.4049 29.7802 37.1286 29.7802 36.8346C29.7802 36.2292 29.2864 35.7324 28.678 35.7324ZM22.7701 32.0143C18.7463 31.544 15.71 28.1286 15.71 24.0753C15.71 23.9166 15.7776 23.7638 15.8923 23.655C16.001 23.5522 16.1392 23.4992 16.2861 23.4992H16.3214C16.6183 23.5169 16.8622 23.7844 16.8622 24.093C16.8622 24.3105 16.874 24.525 16.8945 24.7367C16.9063 24.8513 16.9181 24.9601 16.9357 25.0718C17.4207 28.3755 20.2747 30.9209 23.7077 30.9209C27.1408 30.9209 29.9977 28.3755 30.4798 25.0718C30.4974 24.9601 30.5092 24.8513 30.5209 24.7367C30.5415 24.525 30.5533 24.3105 30.5533 24.093C30.5533 23.7844 30.7972 23.5169 31.0941 23.4992C31.1088 23.4992 31.1205 23.4963 31.1352 23.4963C31.2792 23.4963 31.4174 23.5551 31.5232 23.655C31.6378 23.7638 31.7054 23.9166 31.7054 24.0753C31.7054 28.1286 28.6692 31.544 24.6454 32.0143C24.4396 32.0407 24.2838 32.2171 24.2838 32.4258V35.7324H23.1316V32.4258C23.1316 32.2171 22.9759 32.0407 22.7701 32.0143ZM29.2335 37.3902C29.0836 37.5371 28.8867 37.6194 28.678 37.6194H18.7375C18.3054 37.6194 17.9556 37.2667 17.9556 36.8346C17.9556 36.6289 18.035 36.432 18.1819 36.2821C18.3318 36.1351 18.5288 36.0528 18.7375 36.0528H22.8113H23.1316H24.2838H24.6042H28.678C29.1101 36.0528 29.4598 36.4055 29.4598 36.8346C29.4598 37.0433 29.3805 37.2403 29.2335 37.3902Z" fill="#272727"/>
<path d="M18.4266 24.3283C18.6 24.4782 18.8234 24.5723 19.0673 24.5869V24.7045C19.0673 27.2646 21.1513 29.3456 23.7084 29.3456C25.2192 29.3456 26.6359 28.6078 27.5059 27.3734C28.0585 26.5915 28.3495 25.6686 28.3495 24.7045V24.5869C28.5876 24.5752 28.811 24.4841 28.9932 24.3283C29.0196 24.3107 29.0402 24.2901 29.0637 24.2666C29.1196 24.2107 29.1695 24.1461 29.2107 24.0814C29.3253 23.905 29.387 23.7022 29.387 23.4877C29.387 22.8998 28.9285 22.4178 28.3495 22.3854V21.7741V21.4155C28.3495 21.3614 28.3495 17.0266 28.3495 17.133C28.3495 17.1033 28.3495 16.7447 28.3495 16.7744C28.3001 16.4975 28.8606 13.2597 25.7835 11.713C25.6601 11.6513 25.5366 11.5925 25.4044 11.5425H25.4014C24.8782 11.3368 24.3051 11.2222 23.7084 11.2222C21.4978 11.2222 19.7531 12.7429 19.2349 14.6229C19.2349 14.6229 19.2349 14.6258 19.2349 14.6288C18.9777 15.5293 19.1011 16.2753 19.0673 16.7744C19.0673 16.812 19.0673 17.337 19.0673 17.3035C19.0673 17.5227 19.0673 19.403 19.0673 19.3668C19.0673 19.4095 19.0673 21.4804 19.0673 21.4155C19.0673 21.4787 19.0673 22.4181 19.0673 22.3854C18.7999 22.4001 18.5471 22.5148 18.3531 22.7058C18.1473 22.9145 18.0327 23.1937 18.0327 23.4877C18.0327 23.7052 18.0974 23.9109 18.2091 24.0814C18.2679 24.1755 18.3413 24.2578 18.4266 24.3283ZM28.0291 24.7045C28.0291 25.601 27.7587 26.4592 27.2443 27.1882C26.436 28.3374 25.1134 29.0252 23.7084 29.0252C21.3276 29.0252 19.3877 27.0853 19.3877 24.7045V24.5899H28.0291V24.7045ZM28.0291 22.3825H25.8129L24.067 21.5096L25.9422 20.5719H25.9452L28.0291 21.6154V22.3825ZM19.3877 17.2947L21.116 18.1588L19.3877 19.0229V17.2947ZM19.4553 15.0902L21.1189 15.922L19.3877 16.7891C19.4003 16.0152 19.3521 15.681 19.4553 15.0902ZM28.0291 16.7862L26.3008 15.922L27.9586 15.0932C28.0656 15.6622 28.0168 16.0314 28.0291 16.7862ZM28.0291 19.02L26.3038 18.1588L28.0291 17.2947V19.02ZM25.9452 16.1013L27.8204 17.0389L25.9422 17.9766L24.067 17.0389L25.9452 16.1013ZM23.7084 16.8597L21.8302 15.922L23.7084 14.9844L25.5866 15.922L23.7084 16.8597ZM23.3528 17.0389L21.4746 17.9766L19.5964 17.0389L21.4746 16.1013L23.3528 17.0389ZM23.7084 17.2182L25.5837 18.1559L23.7084 19.0935L21.8332 18.1559L23.7084 17.2182ZM25.9452 18.3352L27.8204 19.2757L25.9452 20.2133L24.0699 19.2757L25.9452 18.3352ZM25.9422 15.7427L24.067 14.8051L25.9422 13.8675L27.8204 14.8051L25.9422 15.7427ZM23.7084 14.6258L21.8302 13.6882L23.7084 12.7506L25.5866 13.6882L23.7084 14.6258ZM23.3528 14.8051L21.4746 15.7427L19.5964 14.8051L21.4746 13.8675L23.3528 14.8051ZM21.4746 18.3352L23.3498 19.2757L21.4716 20.2133L19.5964 19.2757L21.4746 18.3352ZM23.7084 19.455L25.5866 20.3926L23.7084 21.3303L21.8302 20.3926L23.7084 19.455ZM25.0987 22.3825H22.3181L23.7084 21.6888L25.0987 22.3825ZM26.3038 20.3926L28.0291 19.5285V21.2538L26.3038 20.3926ZM27.7852 14.426L26.3038 13.6882L27.1562 13.2591C27.4207 13.6088 27.6323 14.0027 27.7852 14.426ZM26.9475 13.0063L25.9452 13.5089L24.0699 12.5713L25.4161 11.8953C26.0069 12.148 26.5272 12.5301 26.9475 13.0063ZM23.7084 11.5425C24.1611 11.5425 24.5931 11.6131 25.0046 11.7424L23.7084 12.3891L22.4093 11.7395C22.8266 11.6101 23.2646 11.5425 23.7084 11.5425ZM21.9978 11.8953H22.0007L23.3498 12.5713L21.4716 13.5089L20.4694 13.0063C20.8567 12.5607 21.389 12.1551 21.9978 11.8953ZM20.2607 13.2591L21.116 13.6882L19.6287 14.4289C19.7757 14.0086 19.9873 13.6177 20.2607 13.2591ZM19.3877 19.5285L21.116 20.3926L19.3877 21.2568V19.5285ZM21.4746 20.5719L23.3528 21.5096L21.6068 22.3825H19.3877V21.6154L21.4746 20.5719ZM18.5794 22.9321C18.7117 22.8028 18.8822 22.7205 19.0673 22.7058C19.0879 22.7029 19.1114 22.7029 19.1349 22.7029H19.229H20.9661H21.6774H25.7394H26.4537H28.1908H28.2848C28.3083 22.7029 28.3289 22.7029 28.3495 22.7058C28.7522 22.7382 29.0667 23.0762 29.0667 23.4877C29.0667 23.6523 29.0167 23.808 28.9226 23.9374C28.8991 23.9726 28.8727 24.0079 28.8403 24.0373C28.7874 24.0902 28.7316 24.1343 28.6699 24.1666C28.5699 24.2225 28.4641 24.2577 28.3495 24.2666C28.3289 24.2695 28.3083 24.2695 28.2848 24.2695H28.0291H19.3877H19.1349C19.1114 24.2695 19.0908 24.2695 19.0673 24.2666C18.9527 24.2577 18.8469 24.2225 18.7499 24.1666C18.65 24.1108 18.5618 24.0314 18.4971 23.9374C18.406 23.811 18.3531 23.6552 18.3531 23.4877C18.3531 23.276 18.4354 23.0791 18.5794 22.9321Z" fill="#272727"/>
<path d="M26.223 14.7754C26.29 15.3292 26.3253 15.8829 26.3494 16.437C26.3756 16.9907 26.3832 17.5445 26.3873 18.0985C26.3853 18.6523 26.3794 19.206 26.3547 19.7601C26.3321 20.3138 26.298 20.8676 26.2324 21.4217C26.2221 21.5078 26.144 21.5695 26.0578 21.5592C25.9844 21.5504 25.9285 21.4922 25.9203 21.4217C25.8544 20.8679 25.8206 20.3138 25.798 19.7601C25.7733 19.2063 25.7674 18.6526 25.7654 18.0985C25.7692 17.5448 25.7768 16.991 25.8033 16.437C25.8277 15.8832 25.863 15.3295 25.9297 14.7754C25.9394 14.6943 26.0132 14.6364 26.0943 14.6464C26.1631 14.6546 26.2151 14.7093 26.223 14.7754Z" fill="white"/>
</svg>
