<svg width="70" height="70" viewBox="0 0 70 70" fill="none" xmlns="http://www.w3.org/2000/svg">
<path d="M42.2 41.3827C41.5386 42.9715 42.7607 44.746 44.1897 45.7058C45.6197 46.6646 47.3415 47.2346 48.5054 48.5019C51.1852 51.42 49.5844 56.1847 50.8665 59.9332C51.5815 62.0227 53.1962 63.7159 55.064 64.8946C56.4265 65.7546 58.0024 66.3846 59.6115 66.2857C61.2198 66.186 62.8409 65.2244 63.3684 63.702C64.1841 61.3474 62.2267 58.9577 60.1935 57.5158C58.1604 56.0748 55.7254 54.7732 54.9199 52.4158C54.0931 49.9975 55.2238 46.9972 53.6747 44.9649C52.5911 43.5433 50.6125 43.1997 49.1558 42.1642C47.5993 41.0575 45.2964 38.1459 45.4774 36.2449C48.0805 34.3678 47.7775 38.2429 50.0573 39.2027C51.0891 39.6368 52.2124 38.6392 53.1777 38.072C54.143 37.5048 55.136 36.8989 56.2501 36.7815C58.3737 36.558 60.3173 38.2346 61.1634 40.1957C62.0087 42.1568 62.0225 44.359 62.1232 46.4919C62.2239 48.6257 62.4613 50.8584 63.6603 52.6264C64.8593 54.3945 66.9811 54.4887 68.873 53.4984C69.2212 52.7585 68.8018 51.869 68.2217 51.2926C67.6416 50.7161 66.9017 50.3088 66.3733 49.6843C65.2307 48.3329 65.3489 46.3413 65.6777 44.6028C66.0325 42.7267 66.559 40.8756 66.7123 38.9727C66.8657 37.0698 66.6089 35.056 65.5253 33.4829C64.0815 31.3878 60.709 30.017 58.3008 30.8373C59.0361 29.8868 59.7788 28.9224 60.2554 27.8194C60.7321 26.7165 60.9214 25.4399 60.5177 24.3083C60.0411 22.9726 58.8439 22.0544 57.9368 20.9634C56.9844 19.8171 56.3193 18.389 56.2861 16.899C56.2528 15.409 56.917 13.8719 58.1557 13.0442C59.3945 12.2166 61.2022 12.2415 62.295 13.2539C62.6996 13.629 63.0035 14.1185 63.4756 14.403C63.9476 14.6875 64.6459 14.1167 64.9748 13.6742C66.0232 12.2628 65.5309 10.0994 64.2192 8.92806C62.9074 7.75584 61.0175 7.4353 59.2661 7.60619C57.0925 7.81865 54.9282 8.77655 53.5888 10.5021C51.9963 12.5546 51.7709 15.3628 52.0535 17.9456C52.3362 20.5284 53.0586 23.0631 53.1149 25.6606C53.1435 26.9982 52.981 28.3829 52.3159 29.5441C51.6508 30.7052 50.4 31.5994 49.0634 31.5412C46.7319 31.4405 45.4008 28.6166 45.725 26.3063C46.0492 23.9961 47.4284 21.9879 48.2542 19.806C50.4619 13.9726 48.184 6.76651 43.024 3.26185C37.864 -0.242816 30.3253 0.296644 25.7168 4.49965C24.0328 6.03491 22.7331 7.98768 21.9618 10.1326C20.3111 14.7227 22.8117 20.3528 24.6591 24.8681C25.8277 27.7234 24.3561 31.1892 21.8223 32.9508C21.0288 33.5032 20.0968 33.9309 19.1306 33.8828C17.5722 33.8053 16.3067 32.488 15.7534 31.0294C15.2 29.5708 15.1991 27.9718 15.1132 26.4135C14.9765 23.936 14.5839 21.4041 13.3452 19.2536C12.1064 17.1041 9.87654 15.3933 7.39631 15.3434C4.91607 15.2935 2.40073 17.2971 2.39518 19.7783C2.39241 20.7491 2.85151 21.8087 3.76139 22.1468C4.52902 22.4322 5.41027 22.1431 6.19267 22.386C7.20324 22.7001 7.75934 23.8261 7.83046 24.8829C7.90252 25.9387 7.61153 26.9825 7.50253 28.0356C7.11364 31.7814 9.27519 35.6592 12.6653 37.2988C16.0554 38.9385 20.4376 38.2253 23.1322 35.5955C22.759 37.927 21.1831 40.3481 19.1259 41.5074C17.0688 42.6657 14.4795 42.8302 12.2921 41.9406C10.671 41.2811 9.25672 40.0793 7.53487 39.7689C5.10174 39.3301 2.5707 40.9384 1.57029 43.1997C0.570801 45.461 0.953229 48.1777 2.18734 50.3208C2.72404 51.2528 4.11334 52.8065 5.18672 52.8777C6.26011 52.9488 7.3455 52.3124 7.80737 51.3406C8.41704 50.0584 7.94593 48.5574 7.87018 47.1394C7.83693 46.5122 7.95701 45.764 8.52234 45.4906C9.34262 45.0933 10.1389 46.0088 10.7624 46.6739C12.7226 48.7643 16.4018 48.8927 18.5043 46.9445C19.7144 45.8222 20.3582 44.2213 21.4187 42.9567C22.7664 41.3494 24.8042 40.3416 26.9001 40.2446C24.4485 41.9194 22.6103 45.4139 21.4427 48.1444C20.772 49.7129 20.3092 51.4644 19.053 52.619C18.3297 53.2832 17.4087 53.6832 16.5801 54.2097C14.3548 55.6258 12.7993 58.0497 12.439 60.6629C12.2284 62.1899 12.4519 63.8609 13.4514 65.0341C14.4509 66.2072 16.3603 66.6589 17.587 65.725C18.6502 64.9158 18.8885 63.4425 19.077 62.1197C19.3467 60.2343 19.7513 58.2215 21.1268 56.9052C22.1992 55.878 23.7419 55.4087 24.7053 54.2781C25.6725 53.1446 25.8766 51.5743 26.2563 50.1342C26.9232 47.6004 28.2534 45.2448 30.0787 43.3641C31.1964 45.3381 30.8944 48.1066 30.075 50.2229C29.2547 52.3382 27.8941 54.1912 26.7154 56.1302C25.6891 57.8188 24.7931 59.5868 24.0393 61.413C23.5858 62.5123 23.1765 63.6716 23.2403 64.8595C23.3031 66.0474 23.9432 67.276 25.0526 67.7065C26.9084 68.427 29.0746 66.7051 30.9128 67.4663C31.4615 67.6935 31.9012 68.1185 32.4047 68.4334C33.8707 69.3535 35.9167 69.2288 37.2608 68.1378C37.6949 67.785 38.0663 67.3277 38.2094 66.7873C38.5438 65.5292 37.525 64.2461 36.3167 63.7621C35.1085 63.2781 33.7617 63.3649 32.4601 63.3418C31.8292 63.3307 31.1465 63.2716 30.6708 62.8559C29.6233 61.9405 30.3503 60.2408 31.1151 59.0787C32.7086 56.6576 34.254 54.1598 35.1251 51.3951C35.9962 48.6303 36.1412 45.5386 34.9625 42.8902C38.1956 44.262 39.8888 48.0595 39.0621 51.4727C38.7064 52.9414 37.9157 54.2707 37.488 55.7209C37.0612 57.1712 37.0779 58.9152 38.1393 59.9914C38.6907 60.5503 39.4814 60.8856 39.8713 61.5673C40.1918 62.128 40.1742 62.8088 40.2463 63.4508C40.4024 64.8466 41.0721 66.2294 42.2342 67.0173C43.3962 67.8053 45.0747 67.8746 46.1675 66.9933C47.2612 66.1121 47.4884 64.2609 46.488 63.2753C45.9088 62.7035 45.047 62.4753 44.5038 61.8693C43.7177 60.9927 43.8489 59.6256 44.2618 58.5236C44.6747 57.4215 45.3241 56.3823 45.4479 55.212C45.6945 52.8823 43.8609 50.9332 42.6646 48.9195C41.4906 46.9427 40.8698 44.6407 40.892 42.3415C40.9049 41.512 41.3723 41.355 42.2 41.3827Z" fill="#AA59AA"/>
<path d="M42.2 41.3827C41.5386 42.9715 42.7607 44.746 44.1897 45.7058C45.6197 46.6646 47.3415 47.2346 48.5054 48.5019C51.1852 51.42 49.5844 56.1847 50.8665 59.9332C51.5815 62.0227 53.1962 63.7159 55.064 64.8946C56.4265 65.7546 58.0024 66.3846 59.6115 66.2857C61.2198 66.186 62.8409 65.2244 63.3684 63.7021C64.1841 61.3474 62.2267 58.9577 60.1935 57.5158C58.1604 56.0748 55.7254 54.7732 54.9199 52.4158C54.0931 49.9975 55.2238 46.9972 53.6747 44.9649C52.5911 43.5433 50.6125 43.1997 49.1558 42.1642C47.5993 41.0575 45.2964 38.1459 45.4774 36.2449C48.0805 34.3678 47.7775 38.2429 50.0573 39.2027C51.0891 39.6368 52.2124 38.6392 53.1777 38.072C54.143 37.5048 55.136 36.8989 56.2501 36.7815C58.3737 36.558 60.3173 38.2346 61.1634 40.1957C62.0087 42.1568 62.0225 44.359 62.1232 46.4919C62.2239 48.6257 62.4613 50.8584 63.6603 52.6264C64.8593 54.3945 66.9811 54.4887 68.873 53.4984C69.2212 52.7585 68.8018 51.869 68.2217 51.2926C67.6416 50.7161 66.9017 50.3088 66.3733 49.6843C65.2307 48.3329 65.3489 46.3413 65.6777 44.6028C66.0325 42.7267 66.559 40.8756 66.7123 38.9727C66.8657 37.0698 66.6089 35.056 65.5253 33.4829C64.0815 31.3878 60.709 30.017 58.3008 30.8373C59.0361 29.8868 59.7788 28.9224 60.2554 27.8194C60.7321 26.7165 60.9214 25.4399 60.5177 24.3083C60.0411 22.9726 58.8439 22.0544 57.9368 20.9634C56.9844 19.8171 56.3193 18.389 56.2861 16.899C56.2528 15.409 56.917 13.8719 58.1557 13.0442C59.3945 12.2166 61.2022 12.2415 62.295 13.2539C62.6996 13.629 63.0035 14.1185 63.4756 14.403C63.9476 14.6875 64.6459 14.1167 64.9748 13.6742C66.0232 12.2628 65.5309 10.0994 64.2192 8.92806C62.9074 7.75584 61.0175 7.4353 59.2661 7.60619C57.0925 7.81865 54.9282 8.77655 53.5888 10.5021C51.9963 12.5546 51.7709 15.3628 52.0535 17.9456C52.3362 20.5284 53.0586 23.0631 53.1149 25.6606C53.1435 26.9982 52.981 28.3829 52.3159 29.5441C51.6508 30.7052 50.4 31.5994 49.0634 31.5412C46.7319 31.4405 45.4008 28.6166 45.725 26.3063C46.0492 23.9961 47.4284 21.9879 48.2542 19.806C50.4619 13.9726 48.184 6.76651 43.024 3.26185C37.864 -0.242816 30.3253 0.296644 25.7168 4.49965C24.0328 6.03491 22.7331 7.98768 21.9618 10.1326C20.3111 14.7227 22.8117 20.3528 24.6591 24.8681C25.8277 27.7234 24.3561 31.1892 21.8223 32.9508C21.0288 33.5032 20.0968 33.9309 19.1306 33.8828C17.5722 33.8053 16.3067 32.488 15.7534 31.0294C15.2 29.5708 15.1991 27.9718 15.1132 26.4135C14.9765 23.936 14.5839 21.4041 13.3452 19.2536C12.1064 17.1041 9.87654 15.3933 7.39631 15.3434C4.91607 15.2935 2.40073 17.2971 2.39518 19.7783C2.39241 20.7491 2.85151 21.8087 3.76139 22.1468C4.52902 22.4322 5.41027 22.1431 6.19267 22.386C7.20324 22.7001 7.75934 23.8261 7.83046 24.8828C7.90252 25.9387 7.61153 26.9825 7.50253 28.0356C7.11364 31.7814 9.27519 35.6592 12.6653 37.2988C16.0554 38.9385 20.4376 38.2253 23.1322 35.5955C22.759 37.927 21.1831 40.3481 19.1259 41.5074C17.0688 42.6657 14.4795 42.8302 12.2921 41.9406C10.671 41.2811 9.25672 40.0793 7.53487 39.7689C5.10174 39.3301 2.5707 40.9384 1.57029 43.1997C0.570802 45.461 0.953229 48.1777 2.18734 50.3208C2.72404 51.2528 4.11334 52.8065 5.18672 52.8777C6.2601 52.9488 7.3455 52.3124 7.80737 51.3406C8.41704 50.0584 7.94593 48.5574 7.87018 47.1394C7.83693 46.5122 7.95701 45.764 8.52234 45.4906C9.34262 45.0933 10.1389 46.0088 10.7624 46.6739C12.7226 48.7643 16.4018 48.8927 18.5043 46.9445C19.7144 45.8222 20.3582 44.2213 21.4187 42.9567C22.7664 41.3494 24.8042 40.3416 26.9001 40.2446C24.4485 41.9194 22.6103 45.4139 21.4427 48.1444C20.772 49.7129 20.3092 51.4644 19.053 52.619C18.3297 53.2832 17.4087 53.6832 16.5801 54.2097C14.3548 55.6258 12.7993 58.0497 12.439 60.6629C12.2284 62.1899 12.4519 63.8609 13.4514 65.0341C14.4509 66.2072 16.3603 66.6589 17.587 65.725C18.6502 64.9158 18.8885 63.4425 19.077 62.1197C19.3467 60.2343 19.7513 58.2215 21.1268 56.9052C22.1992 55.878 23.7419 55.4087 24.7053 54.2781C25.6725 53.1447 25.8766 51.5743 26.2563 50.1342C26.9232 47.6004 28.2534 45.2448 30.0787 43.3641C31.1964 45.3381 30.8944 48.1066 30.075 50.2229C29.2547 52.3382 27.8941 54.1913 26.7154 56.1302C25.6891 57.8188 24.7931 59.5868 24.0393 61.413C23.5858 62.5123 23.1765 63.6716 23.2403 64.8595C23.3031 66.0474 23.9432 67.276 25.0526 67.7064C26.9084 68.427 29.0746 66.7051 30.9128 67.4663C31.4615 67.6935 31.9012 68.1185 32.4047 68.4334C33.8707 69.3535 35.9167 69.2288 37.2608 68.1378C37.6949 67.785 38.0663 67.3277 38.2095 66.7873C38.5438 65.5292 37.525 64.2461 36.3167 63.7621C35.1085 63.2781 33.7617 63.3649 32.4601 63.3418C31.8292 63.3307 31.1465 63.2716 30.6708 62.8559C29.6233 61.9405 30.3503 60.2408 31.1151 59.0787C32.7086 56.6576 34.254 54.1598 35.1251 51.3951C35.9962 48.6303 36.1412 45.5386 34.9625 42.8902C38.1956 44.262 39.8888 48.0595 39.0621 51.4727C38.7064 52.9414 37.9157 54.2707 37.488 55.7209C37.0612 57.1712 37.0779 58.9152 38.1393 59.9914C38.6907 60.5503 39.4814 60.8856 39.8713 61.5673C40.1918 62.128 40.1742 62.8088 40.2463 63.4508C40.4024 64.8466 41.0721 66.2294 42.2342 67.0173C43.3962 67.8053 45.0747 67.8746 46.1675 66.9933C47.2612 66.1121 47.4884 64.2609 46.488 63.2753C45.9088 62.7035 45.047 62.4753 44.5038 61.8693C43.7177 60.9927 43.8489 59.6256 44.2618 58.5236C44.6747 57.4215 45.3241 56.3823 45.4479 55.212C45.6945 52.8823 43.8609 50.9332 42.6646 48.9195C41.4906 46.9427 40.8698 44.6407 40.892 42.3415C40.9049 41.512 41.3723 41.355 42.2 41.3827Z" stroke="#130081" stroke-width="0.75" stroke-miterlimit="10" stroke-linecap="round" stroke-linejoin="round"/>
<path d="M22.8521 36.5423C23.4257 34.6985 24.0695 32.7458 25.5623 31.5209" stroke="#130081" stroke-width="0.75" stroke-miterlimit="10" stroke-linecap="round" stroke-linejoin="round"/>
<path d="M26.4629 40.5689C27.6591 39.6941 28.0637 39.3117 28.8544 37.6794" stroke="#130081" stroke-width="0.75" stroke-miterlimit="10" stroke-linecap="round" stroke-linejoin="round"/>
<path d="M35.1019 43.1692C34.6862 42.2575 34.2678 41.3374 34.0618 40.3574C33.8558 39.3773 33.8789 38.3177 34.3204 37.4189" stroke="#130081" stroke-width="0.75" stroke-miterlimit="10" stroke-linecap="round" stroke-linejoin="round"/>
<path d="M45.4763 36.245C42.6413 37.4292 42.2839 34.3485 42.0049 33.5116" stroke="#130081" stroke-width="0.75" stroke-miterlimit="10" stroke-linecap="round" stroke-linejoin="round"/>
<path d="M28.1298 19.5474C29.2706 19.7626 30.5158 19.2629 31.191 18.317C31.3767 18.0565 31.5236 17.7609 31.5652 17.4431C31.8414 15.3259 28.1954 14.2691 26.6546 15.0109C24.3766 16.1074 26.2943 19.2 28.1298 19.5474Z" fill="#CD9BEA"/>
<path d="M42.948 18.6881C41.8294 19.0004 40.5463 18.6087 39.7935 17.7247C39.5856 17.4808 39.4147 17.1991 39.3464 16.8859C38.8901 14.8001 42.4326 13.4348 44.0307 14.0417C46.3927 14.9396 44.7466 18.1856 42.948 18.6881Z" fill="#CD9BEA"/>
<path d="M28.7993 17.1761C29.5965 20.5375 33.1871 22.9291 36.6188 22.5254C40.0504 22.1218 42.9427 19.0993 43.3584 15.6694" stroke="#130081" stroke-width="0.75" stroke-miterlimit="10" stroke-linecap="round" stroke-linejoin="round"/>
<path d="M30.7048 15.9493C31.5713 16.1155 32.471 15.8052 33.2109 15.3239C33.9379 14.8519 34.5854 14.1554 34.7175 13.2991C35.1036 10.7884 32.2539 7.83793 29.8947 9.61983C27.8754 11.1468 27.7534 15.3839 30.7048 15.9493Z" fill="white"/>
<path d="M30.7048 15.9493C31.5713 16.1155 32.471 15.8052 33.2109 15.3239C33.9379 14.8519 34.5854 14.1554 34.7175 13.2991C35.1036 10.7884 32.2539 7.83793 29.8947 9.61983C27.8754 11.1468 27.7534 15.3839 30.7048 15.9493Z" stroke="#130081" stroke-width="0.5" stroke-miterlimit="10" stroke-linecap="round" stroke-linejoin="round"/>
<path d="M40.9542 15.3785C40.12 15.6667 39.1852 15.4866 38.3843 15.1171C37.5973 14.7531 36.8565 14.1564 36.6043 13.3269C35.8644 10.8965 38.2652 7.57105 40.8535 8.99822C43.0704 10.2213 43.7947 14.3984 40.9542 15.3785Z" fill="white"/>
<path d="M40.9542 15.3785C40.12 15.6667 39.1852 15.4866 38.3843 15.1171C37.5973 14.7531 36.8565 14.1564 36.6043 13.3269C35.8644 10.8965 38.2652 7.57105 40.8535 8.99822C43.0704 10.2213 43.7947 14.3984 40.9542 15.3785Z" stroke="#130081" stroke-width="0.5" stroke-miterlimit="10" stroke-linecap="round" stroke-linejoin="round"/>
<path d="M30.5026 12.4022C30.4869 13.6409 31.4264 14.827 32.6356 15.0958C33.539 15.2972 34.2198 14.7448 34.5366 13.9356C35.0206 12.7006 34.7158 10.5067 33.4013 9.82218C32.0093 9.09889 30.5174 11.2253 30.5026 12.4022Z" fill="#130081"/>
<path d="M40.8098 11.9329C40.9853 13.1596 40.2084 14.4566 39.0436 14.8806C38.1744 15.1965 37.4271 14.7374 37.0086 13.9762C36.3684 12.8151 36.3869 10.599 37.6016 9.75103C38.8875 8.85315 40.6426 10.7681 40.8098 11.9329Z" fill="#130081"/>
<path d="M58.3007 30.8364C54.664 31.9939 51.683 34.2949 47.3018 30.8364" stroke="#130081" stroke-width="0.75" stroke-miterlimit="10" stroke-linecap="round" stroke-linejoin="round"/>
</svg>
