<svg width="390" height="844" viewBox="0 0 390 844" fill="none" xmlns="http://www.w3.org/2000/svg">
    <g clip-path="url(#clip0_2_1207)">
    <rect width="390" height="844" fill="#F0FBFF"/>
    <path d="M467 702.569C467 755.253 442.718 800.462 429.428 814.827C425.011 819.6 419.894 823.328 414.559 826.761C411.345 828.829 408.052 830.789 404.784 832.807C404.176 835.581 403.467 838.303 402.663 840.974C382.264 908.65 300.252 943 242.362 943C222.298 943 206.865 940.13 192.072 940.13C180.124 940.13 168.323 941.308 156.358 941.308C108.647 941.308 59.0635 912.912 23.1972 874.458C18.3344 869.242 13.7225 863.845 9.40348 858.305C-14.1087 828.162 -29 793.891 -29 762.866C-29 736.255 -16.4884 712.42 -6.51165 688.427C92.8232 656.483 201.598 663.951 296.521 710.881C309.751 661.983 354.169 628 404.875 628C423.884 628 442.001 632.79 457.931 641.333C465.329 658.152 467 696.195 467 702.569Z" fill="#8DD44F"/>
    <path d="M232.486 816.351C230.164 814.815 229.524 811.69 231.056 809.367C232.591 807.045 235.717 806.405 238.039 807.938C240.361 809.47 241.001 812.595 239.469 814.921C237.937 817.243 234.808 817.883 232.486 816.351ZM259.113 816.834C258.947 816.869 259.446 814.249 256.935 811.917C253.662 808.843 246.964 808.28 242.485 809.639C246.174 807.08 249.686 802.461 249.587 798.194C249.465 795.002 247.485 793.738 247.447 793.549C247.383 793.648 246.689 793.092 245.092 793.009C238.436 792.657 234.239 803.114 234.578 804.899C233.087 799.931 228.343 794.394 223.923 796.946L223.846 796.978C220.679 800.126 222.749 804.889 225.922 808.072C219.687 808.734 212.9 812.486 214.15 818.682C217.717 824.856 227.035 822.153 232.326 817.048C230.755 821.251 231.03 827.991 234.722 830.425C236.107 831.34 237.297 831.251 237.415 831.327C237.479 831.225 239.373 831.055 240.72 829.015C242.681 826.043 242.146 821.312 240.579 817.825C245.051 821.472 254.276 823.625 258.064 818.798C258.883 817.755 259.043 816.942 259.113 816.834Z" fill="#F2E43B"/>
    <path d="M238.039 807.938C235.717 806.405 232.592 807.045 231.056 809.367C229.524 811.69 230.164 814.815 232.486 816.351C234.808 817.883 237.937 817.243 239.469 814.921C241.001 812.595 240.362 809.47 238.039 807.938Z" fill="#F681C6"/>
    <path d="M342.898 778.083C339.395 778.083 336.557 775.448 336.557 772.198C336.557 768.944 339.395 766.309 342.898 766.309C346.397 766.309 349.238 768.944 349.238 772.198C349.238 775.448 346.397 778.083 342.898 778.083ZM354.791 767.243C356.636 764.994 357.974 762.326 358.597 759.485C360.552 750.631 353.543 745.491 346.173 751.792C342.92 754.575 340.662 758.478 339.785 762.662C336.673 758.379 330.684 756.149 325.608 757.873C316.862 760.835 318.135 772.521 330.912 774.673C329.066 776.919 327.732 779.587 327.105 782.431C325.154 791.285 332.159 796.422 339.529 790.124C342.786 787.341 345.044 783.435 345.917 779.251C349.033 783.534 355.018 785.764 360.098 784.043C368.958 781.039 367.401 769.351 354.791 767.243Z" fill="#F2561B"/>
    <path d="M342.898 766.309C339.395 766.309 336.558 768.944 336.558 772.198C336.558 775.448 339.395 778.083 342.898 778.083C346.397 778.083 349.238 775.448 349.238 772.198C349.238 768.944 346.397 766.309 342.898 766.309Z" fill="#EFEF25"/>
    <path d="M195.819 736.925C185.066 726.119 169.841 745.061 162.222 758.478C165.47 743.684 166.206 724 152.5 724C138.792 724 139.529 743.684 142.777 758.478C135.16 745.061 119.931 726.119 109.182 736.925C94.8757 751.298 132.995 773.647 140.805 775.328C143.535 775.918 145.505 775.377 146.478 774.403C146.856 774.018 147.165 773.486 147.371 772.815C147.532 773.124 147.688 773.401 147.835 773.629C149.352 775.981 151.124 777 152.5 777C153.876 777 155.647 775.981 157.164 773.629C157.311 773.401 157.467 773.124 157.629 772.815C157.834 773.486 158.143 774.018 158.521 774.403C159.494 775.377 161.464 775.918 164.194 775.328C172.003 773.647 210.123 751.298 195.819 736.925Z" fill="#56B9AA"/>
    <path d="M373 715C373 722.178 338.975 728 297.001 728C255.026 728 221 722.178 221 715C221 707.819 255.026 702 297.001 702C338.975 702 373 707.819 373 715Z" fill="#80BF49"/>
    <path d="M29.4405 486C39.8881 486 48.624 493.19 50.9818 502.857C65.9749 478.479 103.855 490.875 101.368 519.342C114.491 518.056 125.762 528.287 125.762 541.303C125.762 553.492 115.825 563.373 103.571 563.373H3.18742C-9.06629 563.373 -19 553.492 -19 541.303C-19 525.788 -3.27005 515.053 11.3188 520.781C1.02612 506.289 11.3868 486 29.4405 486Z" fill="white"/>
    <path d="M63.59 714.664H52.7744V658.922H63.59V714.664Z" fill="#BF9057"/>
    <path d="M58.1824 510L99.3648 660.586H17L58.1824 510Z" fill="#45BD68"/>
    <path d="M150.947 701.353H143.459V657.258H150.947V701.353Z" fill="#BF9057"/>
    <path d="M147.205 540.783L175.074 658.922H119.332L147.205 540.783Z" fill="#45BD68"/>
    <path d="M127.603 772.435C136.136 813.865 109.469 854.367 68.0391 862.9C26.6101 871.433 -13.8926 844.765 -22.4256 803.336C-30.9586 761.907 -4.29026 721.407 37.1388 712.874C78.5681 704.341 119.07 731.006 127.603 772.435Z" fill="#F7B727"/>
    <path d="M118.29 771.516C124.433 795.522 108.226 820.437 103.876 819.442C100.518 818.67 105.813 802.827 100.076 776.753C94.6991 752.318 84.4473 740.78 87.2376 738.658C90.7447 735.993 112.737 749.817 118.29 771.516Z" fill="#F9E03C"/>
    <path d="M48.9858 793.986L51.3738 781.844L58.3795 792.051L48.9858 793.986ZM101.124 811.116C101.124 811.116 55.2211 744.24 55.2007 744.212C53.9477 742.393 52.1212 740.632 49.5851 739.617C47.1617 738.653 44.7066 738.603 42.5303 739.051C40.5646 739.456 38.5792 740.334 36.8868 741.852C35.0937 743.452 33.9666 745.39 33.3699 747.306C33.2876 747.569 33.229 747.83 33.1661 748.092C33.0749 748.36 33.0032 748.653 32.9435 748.93C32.9435 748.93 17.144 829.276 17.1253 829.398C16.8469 830.89 16.9223 832.322 17.1888 833.616C17.4981 835.118 18.0939 836.589 19.0155 837.936C19.9655 839.351 21.1754 840.463 22.4621 841.31C23.7491 842.157 25.2462 842.817 26.9237 843.145C28.5249 843.458 30.1138 843.425 31.616 843.115C33.6942 842.687 35.8253 841.734 37.6202 840.003C38.7696 838.903 39.6088 837.647 40.1946 836.37C40.6737 835.568 41.0316 834.677 41.2033 833.734L43.8601 819.984L73.3474 813.911C76.6277 818.68 81.4248 825.625 81.4414 825.635C82.6463 827.364 84.3643 828.883 86.6163 829.796C89.1354 830.798 91.6292 830.754 93.6795 830.332C96.8247 829.684 99.5921 827.913 101.443 825.103C102.29 823.817 102.923 822.338 103.237 820.737C103.548 819.049 103.491 817.422 103.178 815.905C102.805 814.093 102.06 812.534 101.124 811.116Z" fill="#EF2F90"/>
    <path d="M190.634 822.391C187.109 853.113 159.347 875.161 128.626 871.636C97.9045 868.11 75.8579 840.347 79.3832 809.625C82.9083 778.906 110.671 756.858 141.392 760.383C172.114 763.908 194.159 791.672 190.634 822.391Z" fill="#F2561B"/>
    <path d="M184.375 819.629C183.165 837.702 166.225 851.31 163.431 849.626C161.273 848.325 168.567 838.528 170.53 819.109C172.37 800.912 167.884 790.56 170.305 789.724C173.348 788.672 185.469 803.29 184.375 819.629Z" fill="#F4702A"/>
    <path d="M137.655 833.582C137.004 834.11 136.4 834.409 135.821 834.574C135.243 834.751 134.537 834.817 133.663 834.717L126.593 833.906L127.868 822.795L134.938 823.607C135.761 823.701 136.391 823.912 136.906 824.203C137.44 824.507 137.981 824.949 138.534 825.655C139.545 826.953 139.895 828.216 139.716 829.778C139.525 831.445 138.876 832.593 137.655 833.582ZM130.892 796.443L135.079 796.923C135.775 797.003 136.303 797.18 136.731 797.419C137.168 797.658 137.621 798.027 138.08 798.617C138.92 799.673 139.204 800.677 139.056 801.969C138.903 803.302 138.525 804.028 138.18 804.453C137.837 804.877 137.231 805.368 136.004 805.774C135.96 805.791 135.926 805.798 135.884 805.814L129.896 805.126L130.892 796.443ZM155.573 819.287C154.754 817.495 153.741 815.848 152.529 814.371C152.942 813.804 153.325 813.226 153.681 812.613C155.218 809.973 156.141 807.063 156.496 803.971C157.193 797.899 155.782 792.284 152.029 787.56C150.289 785.355 148.175 783.541 145.737 782.175C143.09 780.7 140.172 779.838 137.08 779.483L124.023 777.985C122.897 777.856 121.739 777.933 120.605 778.258C119.394 778.603 118.346 779.19 117.464 779.89C115.652 781.338 114.414 783.391 114.132 785.849L107.843 840.657C107.561 843.115 108.301 845.395 109.739 847.205C110.439 848.097 111.327 848.906 112.418 849.516C113.459 850.09 114.57 850.428 115.695 850.557L131.635 852.386C135.031 852.776 138.345 852.576 141.497 851.672C144.289 850.864 146.839 849.532 149.115 847.705C154.055 843.735 156.793 838.246 157.535 831.78C158.033 827.439 157.386 823.239 155.573 819.287Z" fill="#2D4094"/>
    </g>
    <defs>
    <clipPath id="clip0_2_1207">
    <rect width="390" height="844" fill="white"/>
    </clipPath>
    </defs>
    </svg>
    