<svg width="390" height="449" viewBox="0 0 390 449" fill="none" xmlns="http://www.w3.org/2000/svg">
    <path d="M467 307.569C467 360.253 442.718 405.462 429.428 419.827C425.011 424.6 419.894 428.328 414.559 431.761C411.345 433.829 408.052 435.789 404.784 437.807C404.176 440.581 403.467 443.303 402.663 445.974C382.264 513.65 300.252 548 242.362 548C222.298 548 206.865 545.13 192.072 545.13C180.124 545.13 168.323 546.308 156.358 546.308C108.647 546.308 59.0635 517.912 23.1972 479.458C18.3344 474.242 13.7225 468.845 9.40348 463.305C-14.1087 433.162 -29 398.891 -29 367.866C-29 341.255 -16.4884 317.42 -6.51165 293.427C92.8232 261.483 201.598 268.951 296.521 315.881C309.751 266.983 354.169 233 404.875 233C423.884 233 442.001 237.79 457.931 246.333C465.329 263.152 467 301.195 467 307.569Z" fill="#8DD44F"/>
    <path d="M232.486 421.351C230.164 419.815 229.524 416.69 231.056 414.367C232.591 412.045 235.717 411.405 238.039 412.938C240.361 414.47 241.001 417.595 239.469 419.921C237.937 422.243 234.808 422.883 232.486 421.351ZM259.113 421.834C258.947 421.869 259.446 419.249 256.935 416.917C253.662 413.843 246.964 413.28 242.485 414.639C246.174 412.08 249.686 407.461 249.587 403.194C249.465 400.002 247.485 398.738 247.447 398.549C247.383 398.648 246.689 398.092 245.092 398.009C238.436 397.657 234.239 408.114 234.578 409.899C233.087 404.931 228.343 399.394 223.923 401.946L223.846 401.978C220.679 405.126 222.749 409.889 225.922 413.072C219.687 413.734 212.9 417.486 214.15 423.682C217.717 429.856 227.035 427.153 232.326 422.048C230.755 426.251 231.03 432.991 234.722 435.425C236.107 436.34 237.297 436.251 237.415 436.327C237.479 436.225 239.373 436.055 240.72 434.015C242.681 431.043 242.146 426.312 240.579 422.825C245.051 426.472 254.276 428.625 258.064 423.798C258.883 422.755 259.043 421.942 259.113 421.834Z" fill="#F2E43B"/>
    <path d="M238.039 412.938C235.717 411.405 232.591 412.045 231.056 414.367C229.524 416.69 230.163 419.815 232.486 421.351C234.808 422.883 237.937 422.243 239.469 419.921C241.001 417.595 240.361 414.47 238.039 412.938Z" fill="#F681C6"/>
    <path d="M342.898 383.083C339.395 383.083 336.557 380.448 336.557 377.198C336.557 373.944 339.395 371.309 342.898 371.309C346.397 371.309 349.238 373.944 349.238 377.198C349.238 380.448 346.397 383.083 342.898 383.083ZM354.791 372.243C356.636 369.994 357.974 367.326 358.597 364.485C360.552 355.631 353.543 350.491 346.173 356.792C342.92 359.575 340.662 363.478 339.785 367.662C336.673 363.379 330.684 361.149 325.608 362.873C316.862 365.835 318.135 377.521 330.912 379.673C329.066 381.919 327.732 384.587 327.105 387.431C325.154 396.285 332.159 401.422 339.529 395.124C342.786 392.341 345.044 388.435 345.917 384.251C349.033 388.534 355.018 390.764 360.098 389.043C368.958 386.039 367.401 374.351 354.791 372.243Z" fill="#F2561B"/>
    <path d="M342.897 371.309C339.395 371.309 336.557 373.944 336.557 377.198C336.557 380.448 339.395 383.083 342.897 383.083C346.397 383.083 349.237 380.448 349.237 377.198C349.237 373.944 346.397 371.309 342.897 371.309Z" fill="#EFEF25"/>
    <path d="M195.819 341.925C185.066 331.119 169.841 350.061 162.222 363.478C165.47 348.684 166.206 329 152.5 329C138.792 329 139.529 348.684 142.777 363.478C135.16 350.061 119.931 331.119 109.182 341.925C94.8757 356.298 132.995 378.647 140.805 380.328C143.535 380.918 145.505 380.377 146.478 379.403C146.856 379.018 147.165 378.486 147.371 377.815C147.532 378.124 147.688 378.401 147.835 378.629C149.352 380.981 151.124 382 152.5 382C153.876 382 155.647 380.981 157.164 378.629C157.311 378.401 157.467 378.124 157.629 377.815C157.834 378.486 158.143 379.018 158.521 379.403C159.494 380.377 161.464 380.918 164.194 380.328C172.003 378.647 210.123 356.298 195.819 341.925Z" fill="#56B9AA"/>
    <path d="M373 320C373 327.178 338.975 333 297.001 333C255.026 333 221 327.178 221 320C221 312.819 255.026 307 297.001 307C338.975 307 373 312.819 373 320Z" fill="#80BF49"/>
    <path d="M323.376 63.9961C325.16 59.7298 320.518 54.4879 319.893 50.3174C318.943 43.9795 319.614 37.4842 321.968 31.5129C321.968 31.5129 305.214 17.271 319.827 7.50779C319.827 7.50779 332.266 -0.914529 338.035 12.3341C338.035 12.3341 347.921 7.43861 356.241 10.711C356.241 10.711 359.082 -2.88336 376 0.558356C376 0.558356 392.348 4.05082 383.264 24.358C382.838 25.3101 387.557 34.0476 387.946 35.464C389.343 40.5663 389.337 45.7403 388.595 50.9428C388.121 54.2722 386.16 58.8107 389.424 61.3726C392.893 64.095 401.493 62.7528 405.619 62.8556C417.009 63.1391 423.471 59.9537 429.46 50.4335C436.102 39.8749 453.196 32.9166 461.337 45.7339C468.57 57.1221 459.53 71.7168 452.515 80.6896C447.052 87.6777 439.521 92.2168 431.407 95.5215C427.239 97.2189 422.937 98.5097 418.687 99.9787C413.178 101.884 414.666 107.249 416.333 111.457C426.795 137.879 428.873 168.804 420.919 196.286C416.921 210.098 407.57 223.438 409.018 238.17C409.608 244.174 414.244 249.461 414.385 255.164C414.659 266.275 396.867 269.474 387.792 267.925C370.993 265.055 369.726 244.275 370.702 230.777C371.168 224.336 371.147 217.873 370.918 211.423C370.769 207.201 371.758 199.771 369.683 195.891C366.513 189.963 342.88 188.202 340.395 195.573C338.336 201.679 343.017 207.794 340.324 214.018C337.606 220.299 330.911 223.783 324.477 224.944C316.468 226.39 301.008 226.927 295.177 220.419C290.995 215.751 294.303 209.811 297.435 205.528C300.757 200.985 305.429 198.698 305.251 192.926C304.98 184.151 301.599 175.709 301.779 166.87C301.858 162.982 302.47 158.789 305.249 155.84C309.491 151.339 317.596 153.439 320.911 147.86C325.404 140.301 320.821 126.637 319.385 118.752C318.024 111.275 309.998 108.972 304.123 105.5C297.234 101.428 290.49 97.0812 284.066 92.3049C274.462 85.1646 256.694 72.19 259.248 58.0711C261.148 47.574 269.74 42.3582 280.121 41.8704C290.341 41.3902 293.412 50.2349 297.775 57.6036C300.614 62.3983 305.059 66.2783 310.621 67.4048C313.897 68.0683 319.588 68.4933 322.24 65.7056C322.759 65.1588 323.13 64.5872 323.376 63.9961Z" fill="#925833"/>
    <path d="M357.44 43.0455C357.062 46.165 353.162 48.2581 348.73 47.7209C344.297 47.1836 341.009 44.2189 341.388 41.1001C341.766 37.9806 345.666 35.8873 350.098 36.4246C354.531 36.9618 357.818 39.926 357.44 43.0455Z" fill="#42210B"/>
    <path d="M361.21 37.9919C360.873 38.1061 360.579 37.7287 360.775 37.4312C360.948 37.168 361.143 36.9193 361.351 36.6815C361.775 36.2045 362.267 35.7783 362.84 35.4275C363.412 35.0793 364.071 34.8065 364.816 34.6917C365.555 34.5731 366.397 34.6498 367.147 34.9765C367.901 35.2981 368.514 35.8404 368.948 36.4265L369.241 36.8597C369.249 36.8705 369.256 36.8819 369.262 36.8933C369.344 37.0398 369.418 37.1915 369.492 37.3412C369.652 37.6444 369.741 37.9602 369.849 38.2691C369.853 38.2793 369.856 38.2894 369.858 38.3002C369.9 38.4531 369.932 38.6085 369.966 38.7614C369.999 38.9199 370.043 39.0766 370.055 39.2371C370.089 39.5555 370.133 39.8707 370.131 40.1866C370.125 40.5038 370.128 40.8165 370.088 41.1311C370.087 41.1343 370.087 41.1374 370.086 41.1406C370.044 41.4869 369.584 41.5821 369.397 41.2871C368.906 40.5107 368.487 39.7693 368.033 39.1115C367.716 38.696 367.432 38.2767 367.103 37.9824C366.782 37.6773 366.468 37.4547 366.142 37.3139C365.816 37.1718 365.46 37.0995 365.034 37.09C364.61 37.0811 364.132 37.1483 363.627 37.2599C362.865 37.4306 362.071 37.7008 361.21 37.9919Z" fill="#42210B"/>
    <path d="M337.087 49.434C336.904 49.0077 337.445 48.6423 337.781 48.962C337.785 48.9658 337.79 48.9697 337.793 48.9735C338.199 49.3629 338.643 49.6998 339.081 50.0201C339.972 50.6487 340.93 51.1384 341.918 51.5329C342.162 51.6369 342.404 51.7422 342.664 51.8164C342.912 51.8976 343.156 51.9864 343.401 52.072C343.411 52.0759 343.421 52.079 343.432 52.0816C343.684 52.1526 343.941 52.2116 344.19 52.2864C344.446 52.3607 344.7 52.438 344.967 52.483C345.498 52.5839 346.004 52.7336 346.56 52.7958L347.375 52.9296L347.587 52.9664L347.761 52.9924L348.145 53.0387C350.247 53.2556 352.418 53.2341 354.463 52.7926C355.489 52.5706 356.489 52.2331 357.441 51.7269C357.934 51.4764 358.404 51.172 358.861 50.8225C359.23 50.5409 359.729 50.9709 359.495 51.3712C359.49 51.3794 359.485 51.3882 359.48 51.3965C359.342 51.6718 359.157 51.9122 358.985 52.1716C358.979 52.1811 358.972 52.1906 358.965 52.1995C358.774 52.438 358.584 52.6886 358.366 52.9093C357.496 53.8385 356.395 54.5572 355.227 55.0697C354.641 55.3304 354.036 55.5328 353.423 55.6913C352.81 55.8594 352.187 55.9673 351.564 56.0485C350.313 56.1957 349.064 56.2159 347.806 56.0726C347.648 56.0542 347.489 56.0333 347.327 56.0098L347.072 55.9685L346.857 55.9273L345.963 55.7459C345.371 55.6349 344.767 55.4452 344.175 55.2607C343.877 55.1763 343.586 55.0558 343.295 54.9378C343.008 54.8242 342.724 54.7031 342.443 54.5788C342.434 54.5744 342.425 54.5699 342.416 54.5655C341.86 54.2725 341.3 54.0054 340.785 53.6388C339.732 52.9455 338.768 52.093 338.026 51.0737C337.853 50.8073 337.667 50.5592 337.514 50.2852C337.365 50.0087 337.211 49.7422 337.098 49.4504C337.093 49.446 337.09 49.4397 337.087 49.434Z" fill="#42210B"/>
    <path d="M350.405 45.127L347.719 44.906L346.934 54.4557L349.62 54.6767L350.405 45.127Z" fill="#42210B"/>
    <path d="M328.932 35.0512C328.644 35.2611 328.25 34.9896 328.348 34.6471C328.434 34.3439 328.546 34.0483 328.672 33.7584C328.934 33.1761 329.275 32.6218 329.716 32.115C330.158 31.6107 330.704 31.1528 331.38 30.8198C332.049 30.4848 332.875 30.3047 333.689 30.391C334.505 30.4709 335.252 30.8045 335.843 31.2333L336.253 31.558C336.263 31.5663 336.273 31.5752 336.283 31.5841C336.406 31.6995 336.521 31.8213 336.636 31.9419C336.88 32.1829 337.06 32.4575 337.256 32.7201C337.262 32.729 337.268 32.7379 337.274 32.7467C337.359 32.8799 337.437 33.0182 337.516 33.1539C337.595 33.2954 337.683 33.4312 337.743 33.5809C337.871 33.8739 338.008 34.1613 338.1 34.4638C338.191 34.7683 338.288 35.0652 338.343 35.3779C338.343 35.381 338.344 35.3841 338.345 35.3873C338.409 35.7305 337.998 35.9595 337.731 35.7344C337.03 35.1413 336.407 34.5596 335.776 34.0693C335.349 33.768 334.953 33.4534 334.55 33.2713C334.153 33.0772 333.786 32.9586 333.433 32.9224C333.08 32.885 332.718 32.9231 332.309 33.0417C331.902 33.1609 331.466 33.3684 331.018 33.6259C330.341 34.0191 329.665 34.5152 328.932 35.0512Z" fill="#42210B"/>
    <path opacity="0.3" d="M365.015 174.035C378.39 172.842 387.524 152.714 385.417 129.076C383.309 105.439 370.758 87.2435 357.383 88.436C344.008 89.6284 334.873 109.757 336.981 133.395C339.088 157.032 351.639 175.227 365.015 174.035Z" fill="#F4BE80"/>
    <path d="M320.079 160.164C320.347 161.131 320.344 161.988 320.258 162.813C320.168 163.637 319.957 164.411 319.664 165.153C319.367 165.894 318.986 166.601 318.484 167.259C317.978 167.916 317.388 168.539 316.524 169.053C316.252 168.085 316.255 167.227 316.341 166.402C316.432 165.58 316.643 164.805 316.939 164.064C317.239 163.324 317.621 162.617 318.123 161.959C318.63 161.303 319.218 160.679 320.079 160.164Z" fill="#42210B"/>
    <path d="M311.164 161.629C311.432 162.596 311.428 163.453 311.342 164.279C311.252 165.102 311.041 165.876 310.748 166.619C310.452 167.359 310.07 168.066 309.568 168.724C309.062 169.382 308.472 170.004 307.608 170.518C307.337 169.55 307.339 168.692 307.426 167.867C307.516 167.045 307.728 166.27 308.023 165.529C308.323 164.789 308.704 164.083 309.207 163.424C309.714 162.768 310.303 162.144 311.164 161.629Z" fill="#42210B"/>
    <path d="M304.641 225.051C304.316 224.449 304.169 223.796 304.072 223.158C303.975 222.515 303.962 221.874 303.985 221.237C304.047 219.966 304.313 218.732 304.715 217.553C305.109 216.369 305.679 215.258 306.36 214.215C306.71 213.698 307.099 213.204 307.518 212.73C307.96 212.268 308.421 211.822 308.974 211.433C308.99 212.118 308.912 212.744 308.818 213.355C308.737 213.973 308.608 214.561 308.473 215.143C308.209 216.305 307.859 217.413 307.491 218.507C307.117 219.599 306.687 220.665 306.23 221.739C305.764 222.818 305.257 223.871 304.641 225.051Z" fill="#42210B"/>
    <path d="M297.715 220.593C297.219 219.778 297.05 218.974 296.988 218.19C296.931 217.406 297.028 216.64 297.232 215.902C297.441 215.165 297.774 214.454 298.248 213.811C298.73 213.174 299.341 212.582 300.217 212.213C300.427 213.147 300.443 213.894 300.407 214.626C300.374 215.355 300.244 216.034 300.054 216.706C299.862 217.377 299.603 218.031 299.236 218.677C298.864 219.325 298.421 219.96 297.715 220.593Z" fill="#42210B"/>
    <path d="M29.4405 91C39.8881 91 48.624 98.1901 50.9818 107.857C65.9749 83.4792 103.855 95.8748 101.368 124.342C114.491 123.056 125.762 133.287 125.762 146.303C125.762 158.492 115.825 168.373 103.571 168.373H3.18742C-9.06629 168.373 -19 158.492 -19 146.303C-19 130.788 -3.27005 120.053 11.3188 125.781C1.02612 111.289 11.3868 91 29.4405 91Z" fill="white"/>
    <path d="M63.5902 319.664H52.7746V263.922H63.5902V319.664Z" fill="#BF9057"/>
    <path d="M58.1824 115L99.3648 265.586H17L58.1824 115Z" fill="#45BD68"/>
    <path d="M150.947 306.352H143.459V262.258H150.947V306.352Z" fill="#BF9057"/>
    <path d="M147.205 145.783L175.074 263.922H119.332L147.205 145.783Z" fill="#45BD68"/>
    <path d="M127.603 377.435C136.136 418.865 109.468 459.367 68.039 467.9C26.61 476.433 -13.8927 449.765 -22.4257 408.336C-30.9587 366.907 -4.29039 326.407 37.1387 317.874C78.568 309.341 119.07 336.006 127.603 377.435Z" fill="#F7B727"/>
    <path d="M118.29 376.516C124.433 400.522 108.226 425.437 103.876 424.442C100.518 423.67 105.813 407.827 100.076 381.753C94.6991 357.318 84.4473 345.779 87.2376 343.658C90.7447 340.993 112.737 354.817 118.29 376.516Z" fill="#F9E03C"/>
    <path d="M48.9857 398.986L51.3736 386.844L58.3793 397.051L48.9857 398.986ZM101.124 416.116C101.124 416.116 55.221 349.24 55.2006 349.212C53.9476 347.393 52.1211 345.632 49.585 344.617C47.1615 343.653 44.7065 343.602 42.5302 344.051C40.5645 344.456 38.5791 345.334 36.8867 346.852C35.0936 348.452 33.9664 350.39 33.3698 352.306C33.2875 352.569 33.2289 352.83 33.1659 353.092C33.0748 353.36 33.0031 353.653 32.9433 353.93C32.9433 353.93 17.1438 434.276 17.1252 434.398C16.8468 435.89 16.9222 437.322 17.1886 438.616C17.498 440.117 18.0938 441.589 19.0154 442.936C19.9653 444.351 21.1753 445.463 22.462 446.31C23.749 447.157 25.2461 447.817 26.9235 448.145C28.5248 448.458 30.1137 448.424 31.6159 448.115C33.6941 447.687 35.8252 446.734 37.62 445.003C38.7695 443.903 39.6086 442.647 40.1945 441.37C40.6736 440.568 41.0315 439.677 41.2032 438.734L43.86 424.984L73.3473 418.91C76.6275 423.68 81.4246 430.625 81.4413 430.635C82.6462 432.364 84.3642 433.883 86.6161 434.796C89.1352 435.798 91.629 435.754 93.6794 435.332C96.8246 434.684 99.592 432.913 101.443 430.103C102.29 428.817 102.923 427.338 103.237 425.737C103.548 424.049 103.491 422.422 103.178 420.905C102.805 419.093 102.06 417.534 101.124 416.116Z" fill="#EF2F90"/>
    <path d="M348.002 281.797C342.849 307.496 317.838 324.153 292.14 319C266.44 313.849 249.784 288.838 254.935 263.139C260.088 237.439 285.099 220.782 310.796 225.935C336.496 231.088 353.153 256.097 348.002 281.797Z" fill="#F471AC"/>
    <path d="M342.91 279.019C340.609 294.199 325.337 304.495 323.096 302.874C321.367 301.622 328.22 293.863 331.253 277.602C334.096 262.36 331.038 253.298 333.142 252.764C335.788 252.091 344.989 265.296 342.91 279.019Z" fill="#F793CC"/>
    <path d="M321.877 286.345C320.995 285.754 320.045 285.391 319.105 285.202C317.164 284.813 315.331 285.219 313.799 286.066C313.671 286.137 313.547 286.213 313.425 286.295C311.502 287.591 309.594 288.388 307.687 288.77C305.817 289.144 303.829 289.144 301.681 288.712C298.857 288.148 296.62 287.223 294.855 286.036C293.373 285.038 292.152 283.808 291.165 282.318C289.086 279.174 288.311 275.234 289.353 270.039C290.396 264.842 292.627 261.508 295.759 259.407C297.242 258.413 298.844 257.747 300.599 257.398C302.684 256.984 305.105 256.994 307.927 257.559C310.041 257.982 311.863 258.743 313.448 259.812C315.104 260.926 316.607 262.446 317.939 264.463C318.443 265.237 319.108 265.901 319.87 266.418C320.822 267.063 321.833 267.418 322.764 267.605C323.706 267.794 324.723 267.824 325.765 267.618C326.766 267.418 327.676 267.021 328.474 266.485C330.204 265.329 331.286 263.602 331.677 261.656C331.894 260.565 331.902 259.38 331.576 258.179C331.286 257.105 330.773 256.175 330.141 255.397C325.4 248.661 318.916 244.389 310.89 242.781C306.303 241.861 301.868 241.76 297.644 242.598C293.945 243.33 290.501 244.763 287.344 246.873C280.465 251.467 276.252 258.377 274.51 267.063C272.771 275.749 273.992 283.75 278.57 290.641C280.669 293.804 283.294 296.454 286.426 298.557C290.002 300.957 294.132 302.572 298.718 303.492C306.883 305.129 314.627 303.593 321.674 299.003C323.307 297.908 324.601 296.288 325.034 294.123C325.425 292.173 325.087 290.174 323.945 288.44C323.409 287.629 322.722 286.913 321.877 286.345Z" fill="#2A864C"/>
    <path d="M190.634 427.391C187.109 458.113 159.347 480.161 128.626 476.636C97.9045 473.11 75.8579 445.347 79.3832 414.625C82.9083 383.906 110.671 361.858 141.392 365.383C172.114 368.908 194.159 396.672 190.634 427.391Z" fill="#F2561B"/>
    <path d="M184.375 424.629C183.165 442.702 166.225 456.31 163.431 454.626C161.273 453.325 168.567 443.528 170.53 424.109C172.37 405.912 167.884 395.56 170.305 394.724C173.348 393.672 185.469 408.29 184.375 424.629Z" fill="#F4702A"/>
    <path d="M137.656 438.582C137.004 439.11 136.4 439.409 135.821 439.574C135.243 439.751 134.537 439.817 133.663 439.717L126.594 438.906L127.869 427.795L134.938 428.607C135.762 428.701 136.391 428.912 136.907 429.203C137.441 429.507 137.981 429.949 138.534 430.655C139.545 431.953 139.896 433.216 139.717 434.778C139.525 436.445 138.876 437.593 137.656 438.582ZM130.893 401.443L135.079 401.923C135.775 402.003 136.304 402.18 136.731 402.419C137.168 402.658 137.621 403.027 138.08 403.618C138.92 404.673 139.205 405.677 139.056 406.969C138.903 408.302 138.526 409.028 138.18 409.453C137.837 409.877 137.232 410.368 136.005 410.774C135.96 410.791 135.926 410.798 135.884 410.814L129.896 410.126L130.893 401.443ZM155.573 424.287C154.755 422.495 153.741 420.848 152.529 419.371C152.942 418.804 153.326 418.226 153.682 417.613C155.218 414.973 156.141 412.063 156.496 408.971C157.193 402.899 155.782 397.284 152.029 392.56C150.29 390.355 148.175 388.541 145.737 387.175C143.09 385.7 140.172 384.838 137.08 384.483L124.023 382.985C122.898 382.856 121.739 382.933 120.605 383.258C119.394 383.603 118.346 384.19 117.464 384.89C115.652 386.338 114.414 388.391 114.132 390.849L107.843 445.657C107.561 448.115 108.302 450.395 109.74 452.205C110.439 453.097 111.327 453.906 112.418 454.516C113.459 455.091 114.57 455.428 115.695 455.557L131.636 457.386C135.031 457.776 138.346 457.576 141.497 456.672C144.29 455.864 146.839 454.532 149.115 452.705C154.055 448.735 156.794 443.246 157.536 436.78C158.034 432.439 157.387 428.24 155.573 424.287Z" fill="#2D4094"/>
    </svg>
    