<svg width="102" height="59" viewBox="0 0 102 59" fill="none" xmlns="http://www.w3.org/2000/svg">
<path d="M135.211 19.5091C119.024 3.19865 96.1049 31.7908 84.6355 52.0422C89.5253 29.7124 90.6331 0 69.9995 0C49.3638 0 50.4736 29.7124 55.3634 52.0422C43.8967 31.7908 20.9719 3.19865 4.7901 19.5091C-16.7463 41.2046 40.6377 74.9389 52.3944 77.4762C56.504 78.3669 59.4703 77.5504 60.9344 76.0793C61.5043 75.4989 61.9692 74.6959 62.2786 73.6837C62.521 74.1493 62.7561 74.5677 62.9771 74.9119C65.2609 78.4614 67.9286 80 69.9995 80C72.071 80 74.7379 78.4614 77.0217 74.9119C77.2428 74.5677 77.4779 74.1493 77.7203 73.6837C78.0304 74.6959 78.4945 75.4989 79.0645 76.0793C80.5285 77.5504 83.4949 78.3669 87.6045 77.4762C99.3599 74.9389 156.744 41.2046 135.211 19.5091Z" fill="#56B9AA"/>
</svg>
