<svg width="123" height="139" viewBox="0 0 123 139" fill="none" xmlns="http://www.w3.org/2000/svg">
<path d="M-36.7099 144.641C-43.4024 139.008 -50.2056 132.885 -54.4214 125.1C-58.0557 118.389 -59.4144 110.015 -56.1536 103.117C-52.8928 96.2178 -44.175 91.7845 -37.1651 94.8257C-32.9038 96.6743 -30.2778 100.589 -28.079 104.489C-26.3569 107.542 -24.1066 115.445 -20.2726 116.217C-18.0792 116.658 -21.6134 104.841 -21.8793 104.203C-24.4806 97.9655 -28.3394 91.8858 -29.0284 85.0329C-29.5861 79.4859 -27.3395 73.1848 -22.2192 70.9545C-18.059 69.1426 -13.2222 70.4283 -9.04592 72.2035C0.0636253 76.0752 8.18972 82.2264 14.3807 89.9369C5.66751 77.6611 0.941395 62.6133 1.0746 47.5709C1.11043 43.5438 1.51053 39.4204 3.24361 35.7833C4.97668 32.1462 8.25221 29.0459 12.2388 28.417C16.8239 27.6937 21.4122 30.3673 24.2582 34.0269C27.1038 37.6864 28.547 42.2099 29.9365 46.6299C31.5157 33.9664 35.7558 21.6398 42.3027 10.6777C44.1993 7.50219 46.3583 4.36609 49.3995 2.25581C52.4408 0.145076 56.5463 -0.771619 59.9137 0.768921C63.3817 2.35575 65.3601 6.20777 65.7537 9.99426C66.1469 13.7808 65.2232 17.5668 64.3068 21.2625C61.2256 33.6854 58.1448 46.1083 55.0636 58.5311C57.5224 51.3239 64.276 45.5789 71.8812 44.9761C79.4865 44.3734 87.3659 49.3988 89.3994 56.7367C91.7034 65.0499 86.7123 73.6432 80.7896 79.9254C74.8669 86.2077 67.6604 91.6076 63.8525 99.3506C68.2341 96.3305 72.793 93.4232 77.8857 91.8698C82.9783 90.3169 88.7287 90.2472 93.4232 92.7558C99.1956 95.8405 102.537 102.61 102.2 109.136C101.863 115.661 98.1667 121.771 92.9795 125.759C87.9819 129.601 81.5975 131.735 77.5692 136.579C86.015 138.699 93.5647 145.037 95.989 153.384C97.3004 157.898 97.0983 162.798 95.6735 167.279C91.9211 179.079 80.1167 186.974 67.9273 189.279C55.7379 191.583 43.1663 189.209 31.1579 186.098C4.23393 179.123 -21.4884 166.836 -38.4857 144.124" fill="#8DD44F"/>
<path opacity="0.6" d="M73.4715 154.54C65.4276 156.604 57.1816 157.404 48.8989 157.714C44.9573 157.861 41.0126 157.905 37.0687 157.934C33.0931 157.964 29.0179 158.189 25.4131 156.494C25.8577 154.784 26.2794 153.067 26.6827 151.349C28.4539 143.803 30.1272 136.232 31.7781 128.657C46.995 126.554 61.4209 120.526 73.432 110.916C76.2115 108.692 73.3029 103.915 70.4982 106.16C59.6418 114.845 46.7616 120.672 33.038 122.864C33.2782 121.758 33.5185 120.651 33.7587 119.545C35.5846 111.131 37.3526 102.702 39.0232 94.2556C39.3318 94.1107 39.6318 93.8962 39.9102 93.5933C43.6978 89.4712 49.5672 87.0791 54.2699 84.1291C59.2431 81.0095 64.0969 77.7089 68.8469 74.2602C71.7472 72.1545 68.8281 67.3866 65.9131 69.5033C60.8756 73.161 55.7195 76.651 50.4308 79.9374C47.2894 81.8895 43.8081 83.6065 40.6713 85.7187C42.5839 75.5844 44.334 65.4203 45.8273 55.2127C46.3436 51.6828 40.8876 50.4187 40.3658 53.9875C38.7283 65.1815 36.7839 76.3242 34.6517 87.4316C33.3812 86.4493 32.2489 85.2273 31.146 84.1511C29.5034 82.5482 27.9109 80.8935 26.4103 79.1568C23.2533 75.5032 20.6098 71.4064 18.9566 66.86C17.7311 63.4897 12.3707 65.0976 13.6021 68.4849C15.6021 73.9847 18.7421 78.7938 22.5569 83.2092C25.6358 86.7729 29.2076 90.9554 33.5176 93.2669C31.9315 101.278 30.2554 109.272 28.5278 117.254C28.2155 118.697 27.9008 120.139 27.5867 121.582C16.0307 112.98 5.62259 102.821 -3.25316 91.4894C-5.45154 88.6828 -10.2365 91.5879 -8.02062 94.4169C1.85878 107.03 13.3426 118.083 26.295 127.497C24.7916 134.354 23.267 141.206 21.7007 148.048C21.2023 150.226 20.6837 152.399 20.1288 154.56C3.46919 145.703 -11.8643 134.656 -25.5374 121.64C-28.1478 119.155 -31.9975 123.211 -29.3908 125.693C-15.076 139.319 1.09674 150.898 18.6089 160.069C16.7307 166.367 14.3614 172.489 10.9559 178.201C9.11306 181.292 14.0551 183.914 15.8933 180.83C19.4242 174.907 21.9148 168.516 23.8885 161.951C27.1526 163.288 30.7317 163.518 34.3076 163.534C38.9129 163.555 43.5274 163.485 48.13 163.332C57.2129 163.028 66.2787 162.148 75.0989 159.885C78.5958 158.986 76.956 153.646 73.4715 154.54Z" fill="#69C718"/>
<path d="M71.618 95.9884C75.3565 95.3426 79.3472 96.3167 82.365 98.6107C85.4734 100.974 87.4549 104.572 88.5514 108.315C89.3699 111.108 89.7388 114.003 89.9914 116.908C91.4052 112.817 92.9068 108.755 94.5682 104.756C94.8764 104.014 95.1924 103.275 95.5117 102.538C94.2774 101.454 93.7079 100.073 93.1718 98.3275C91.4387 92.6887 90.8678 86.5224 92.7157 80.9204C94.5632 75.3183 99.1354 70.4148 104.923 69.2181C106.618 68.8674 108.492 68.8633 109.96 69.781C110.719 70.2558 111.318 70.9461 111.845 71.6698C114.424 75.2171 115.445 79.852 114.595 84.1514C113.72 88.58 110.983 92.4696 107.645 95.5154C104.554 98.3357 100.949 100.518 97.332 102.633C97.3375 102.761 97.3146 102.897 97.253 103.038C96.0261 105.861 94.8879 108.72 93.808 111.6C95.9104 109.396 98.0941 107.268 100.591 105.531C103.796 103.302 107.6 101.737 111.507 101.841C115.3 101.941 119.021 103.679 121.528 106.52C122.04 107.1 122.509 107.735 122.766 108.464C123.263 109.872 122.904 111.447 122.286 112.807C120.178 117.447 115.17 120.363 110.088 120.855C105.006 121.347 99.9057 119.697 95.4717 117.171C94.2651 116.483 93.3023 115.827 92.6234 114.833C91.5802 117.746 90.5876 120.677 89.6272 123.616C88.0489 128.449 86.5464 133.306 85.0062 138.151C87.178 135.863 89.4282 133.644 92.0138 131.846C95.2195 129.616 99.0238 128.051 102.93 128.155C106.723 128.255 110.444 129.993 112.951 132.835C113.463 133.415 113.932 134.05 114.19 134.778C114.687 136.187 114.328 137.761 113.71 139.122C111.602 143.762 106.594 146.678 101.512 147.17C96.4294 147.661 91.3294 146.012 86.8959 143.486C85.6893 142.798 84.726 142.141 84.0476 141.148C83.6806 142.285 83.3117 143.422 82.9365 144.556C81.0242 150.339 78.9793 156.083 76.6109 161.696C78.4671 159.795 80.4073 157.981 82.5855 156.466C85.7912 154.236 89.5954 152.671 93.5016 152.775C97.2944 152.875 101.015 154.613 103.523 157.454C104.034 158.034 104.504 158.669 104.76 159.398C105.257 160.807 104.899 162.381 104.281 163.742C102.173 168.382 97.1644 171.298 92.0823 171.789C87.0002 172.281 81.9002 170.632 77.4662 168.106C76.3321 167.459 75.413 166.841 74.7428 165.945C72.0525 171.803 68.9602 177.486 65.3177 182.811C61.4303 188.495 56.8834 193.733 51.6194 198.191C50.9543 198.754 50.2767 199.304 49.59 199.84C48.6778 200.554 47.648 199.081 48.5575 198.369C53.9317 194.168 58.5793 189.119 62.5695 183.602C65.3095 179.814 67.7347 175.811 69.917 171.68C69.0774 171.768 68.2037 171.677 67.223 171.521C62.1814 170.716 57.1718 168.81 53.521 165.249C49.8702 161.687 47.7996 156.282 49.0724 151.347C49.4454 149.901 50.155 148.45 51.4274 147.664C52.0856 147.257 52.8504 147.055 53.6129 146.924C57.3515 146.278 61.3421 147.252 64.36 149.546C67.4688 151.909 69.4499 155.508 70.5468 159.251C71.3442 161.972 71.7144 164.789 71.9666 167.619C72.2633 167.005 72.5559 166.389 72.8435 165.771C75.6964 159.63 78.084 153.29 80.2663 146.885C79.1378 147.209 77.9949 147.117 76.6523 146.902C71.6106 146.097 66.6011 144.192 62.9503 140.63C59.2995 137.068 57.2288 131.663 58.5016 126.73C58.8746 125.283 59.5843 123.832 60.8567 123.046C61.5144 122.639 62.2796 122.438 63.0421 122.306C66.7807 121.66 70.7714 122.634 73.7892 124.928C76.898 127.292 78.8792 130.89 79.9761 134.633C80.812 137.486 81.179 140.444 81.4317 143.412C83.4201 137.38 85.2749 131.304 87.2188 125.257C87.7186 123.703 88.2257 122.151 88.7411 120.601C87.6451 120.891 86.5308 120.798 85.2285 120.589C80.1869 119.785 75.1774 117.879 71.5266 114.317C67.8758 110.755 65.8051 105.35 67.0779 100.417C67.4509 98.9705 68.1606 97.5194 69.4329 96.7328C70.0902 96.3217 70.855 96.1204 71.618 95.9884Z" fill="#FFB425"/>
</svg>
