<svg width="390" height="247" viewBox="0 0 390 247" fill="none" xmlns="http://www.w3.org/2000/svg">
<path d="M-71 105.569C-71 158.253 -46.7176 203.462 -33.4283 217.827C-29.0109 222.6 -23.8945 226.328 -18.5591 229.761C-15.345 231.829 -12.0522 233.789 -8.78409 235.807C-8.17621 238.581 -7.46747 241.303 -6.66275 243.974C13.7363 311.65 95.7483 346 153.638 346C173.702 346 189.135 343.13 203.928 343.13C215.876 343.13 227.677 344.308 239.642 344.308C287.353 344.308 336.936 315.912 372.803 277.458C377.666 272.242 382.278 266.845 386.597 261.305C410.109 231.162 425 196.891 425 165.866C425 139.255 412.488 115.42 402.512 91.4274C303.177 59.4825 194.402 66.9505 99.4792 113.881C86.249 64.9833 41.8308 31 -8.87512 31C-27.8837 31 -46.0014 35.7901 -61.9313 44.3327C-69.329 61.1522 -71 99.1954 -71 105.569Z" fill="#8DD44F"/>
<path d="M263 188C263 196.283 233.228 203 196.501 203C159.773 203 130 196.283 130 188C130 179.714 159.773 173 196.501 173C233.228 173 263 179.714 263 188Z" fill="#80BF49"/>
<path d="M189.345 30.3398C189.345 41.5827 180.231 50.6987 168.986 50.6987C157.741 50.6987 148.625 41.5827 148.625 30.3398C148.625 19.095 157.741 9.97898 168.986 9.97898C180.231 9.97898 189.345 19.095 189.345 30.3398Z" fill="#D9F2F5"/>
<path d="M229.475 81.6866C229.475 93.2309 220.115 102.59 208.571 102.59C197.026 102.59 187.669 93.2309 187.669 81.6866C187.669 70.1422 197.026 60.7847 208.571 60.7847C220.115 60.7847 229.475 70.1422 229.475 81.6866Z" fill="#D9F2F5"/>
<path d="M163.173 118.711C163.173 123.769 159.073 127.87 154.014 127.87C148.957 127.87 144.856 123.769 144.856 118.711C144.856 113.654 148.957 109.553 154.014 109.553C159.073 109.553 163.173 113.654 163.173 118.711Z" fill="#D9F2F5"/>
<path d="M152.116 109.518C165.227 113.845 179.394 110.51 189.177 101.461C193.459 97.4997 192.111 90.417 186.662 88.335L186.224 88.1684C183.777 87.2323 181.068 87.7378 178.988 89.3273C171.316 95.1931 161.445 97.5784 151.84 95.7473L152.116 109.518Z" fill="#7A322F"/>
<path d="M167.861 120.764L156.206 124.335L144.01 79.8611L153.048 77.092L167.861 120.764Z" fill="#994937"/>
<path d="M86 26.0263L170.941 3.05176e-05L191.711 67.787L106.771 93.8114L86 26.0263Z" fill="#F68C3D"/>
<path d="M146.625 59.094C146.313 59.7006 145.963 60.1238 145.586 60.4383C145.212 60.7603 144.71 61.0412 144.025 61.2565L138.491 62.9883L135.776 54.3085L141.31 52.5767C141.954 52.3764 142.492 52.3221 142.973 52.3689C143.471 52.4194 144.019 52.5692 144.663 52.9118C145.845 53.5428 146.524 54.3666 146.904 55.5873C147.313 56.8885 147.208 57.9557 146.625 59.094ZM129.333 33.7212L132.61 32.6952C133.156 32.5248 133.608 32.4818 134.005 32.5173C134.409 32.5529 134.868 32.6765 135.407 32.9629C136.379 33.4722 136.923 34.1237 137.24 35.1329C137.566 36.1738 137.523 36.8385 137.406 37.2672C137.29 37.6979 137 38.2614 136.219 38.9691C136.193 38.9953 136.171 39.0122 136.143 39.0384L131.456 40.5044L129.333 33.7212ZM155.258 42.5508C154.058 41.4892 152.759 40.5999 151.368 39.9015C151.49 39.3455 151.583 38.7875 151.647 38.2146C151.92 35.7451 151.649 33.2756 150.892 30.8604C149.41 26.118 146.504 22.409 142.151 20.1361C140.127 19.0726 137.953 18.423 135.686 18.2114C133.228 17.9905 130.767 18.3125 128.347 19.0708L118.124 22.2686C117.244 22.5438 116.407 22.9856 115.67 23.5998C114.881 24.2569 114.293 25.0395 113.867 25.8521C112.994 27.5259 112.751 29.4599 113.35 31.3808L126.748 74.1994C127.349 76.1185 128.652 77.5695 130.322 78.4401C131.136 78.8726 132.065 79.1796 133.08 79.2732C134.044 79.3556 134.984 79.2414 135.864 78.9643L148.344 75.0606C151.003 74.2294 153.405 72.9862 155.455 71.2731C157.271 69.7491 158.73 67.918 159.823 65.8061C162.193 61.2247 162.424 56.2407 160.843 51.1894C159.782 47.7987 157.913 44.8892 155.258 42.5508Z" fill="#32558F"/>
<path d="M147.79 110.162C150.85 117.636 164.407 108.016 156.244 104.272C157.35 102.618 157.404 101.179 155.145 100.014C160.481 92.7891 143.965 90.9206 144.9 98.9432C145.774 106.453 144.918 103.148 147.79 110.162Z" fill="#7A322F"/>
<path d="M183.69 183.294C185.158 168.091 193.937 154.555 207.221 147.015L199.183 132.852C190.234 137.931 182.803 145.031 177.362 153.418C171.921 161.806 168.469 171.489 167.48 181.731L183.69 183.294Z" fill="#823A35"/>
<path d="M180.581 174.796C185.393 178.812 187.286 184.784 183.06 189.008C155.197 181.293 155.54 182.736 156.929 177.724C159.29 169.198 173.792 169.13 180.581 174.796Z" fill="#823A35"/>
<path d="M238.557 109.892V125.121C238.557 133.419 234.498 140.745 228.25 145.244C224.163 148.182 219.159 149.919 213.759 149.919H196.137C195.4 149.919 194.675 149.891 193.964 149.824C189.397 149.427 185.188 147.787 181.646 145.244C175.4 140.745 171.339 133.419 171.339 125.121V109.892C171.339 108.1 171.517 106.337 171.845 104.642C174.292 92.1338 185.31 82.6995 198.543 82.6995H211.366C226.391 82.6995 238.557 94.8673 238.557 109.892Z" fill="#8E443F"/>
<path d="M197.135 127.089V139.639C197.135 143.029 196.385 146.214 195.057 149.017C194.703 149.29 194.348 149.563 193.964 149.824C189.397 149.427 185.188 147.787 181.646 145.244C175.4 140.745 171.339 133.419 171.339 125.121V109.892C171.339 108.1 171.517 106.337 171.845 104.642H176.602C187.948 104.642 197.135 114.689 197.135 127.089Z" fill="#F3664F"/>
<path d="M243.446 163.575C231.4 158.921 221.907 149.556 217.034 137.815C215.478 134.071 211.462 131.99 207.528 132.968C202.675 134.175 200.069 139.421 201.985 144.042C204.669 150.513 208.393 156.448 212.969 161.632C219.584 169.129 227.979 175.058 237.576 178.767L243.446 163.575Z" fill="#8E443F"/>
<path d="M234.424 164.283C239.585 160.73 245.848 160.512 248.778 165.719C233.851 190.478 235.333 190.538 230.879 187.851C223.302 183.283 227.14 169.297 234.424 164.283Z" fill="#8E443F"/>
<path d="M247.971 21.411C249.059 15.2588 245.962 8.77329 240.899 5.13363C236.464 1.87028 230.229 0.739403 225.335 3.25011C220.982 5.50992 218.387 11.0331 219.81 15.637H190.101C190.479 14.4238 190.562 13.2086 190.436 11.9542C190.06 8.39695 187.8 4.9239 184.578 3.25011C179.682 0.739403 173.447 1.87028 168.971 5.13363C163.949 8.77329 160.853 15.2588 161.94 21.411C162.695 25.6367 165.623 29.4037 169.388 31.2853C167.087 34.9268 165.288 38.9016 164.2 43.0431C163.028 47.3961 162.611 51.9138 162.862 56.3492C163.949 75.8488 178.302 94.5957 204.162 94.1763C205.124 94.2175 206.086 94.2175 207.049 94.2175C238.012 93.8412 251.863 65.8903 245.711 43.0431C244.582 38.9016 242.824 34.9268 240.482 31.2853C244.288 29.4037 247.218 25.6367 247.971 21.411ZM180.229 10.4059C177.843 9.19267 174.788 9.73749 172.654 11.327C170.184 13.1263 168.636 16.2642 169.181 19.2766C169.723 22.2479 172.528 24.7998 175.582 24.7155L182.612 17.2265C183.91 14.8824 182.614 11.6191 180.229 10.4059ZM237.26 11.327C235.084 9.73749 232.07 9.19267 229.686 10.4059C227.301 11.6191 226.004 14.8824 227.301 17.2265L234.329 24.7155C237.385 24.7998 240.188 22.2479 240.69 19.2766C241.234 16.2642 239.729 13.1263 237.26 11.327Z" fill="#8E443F"/>
<path d="M237.273 11.316C235.101 9.73767 232.062 9.176 229.675 10.4061C227.288 11.638 225.991 14.8864 227.314 17.223L234.33 24.7026C237.374 24.8093 240.171 22.2687 240.71 19.2712C241.251 16.2737 239.735 13.1077 237.273 11.316Z" fill="#F3664F"/>
<path d="M175.576 24.7026L182.592 17.223C183.916 14.8864 182.616 11.638 180.229 10.4061C177.842 9.176 174.805 9.73767 172.633 11.316C170.171 13.1077 168.655 16.2737 169.196 19.2712C169.735 22.2687 172.532 24.8093 175.576 24.7026Z" fill="#F3664F"/>
<path d="M229.074 68.8635C229.074 77.8559 218.275 85.1465 204.954 85.1465C191.631 85.1465 180.832 77.8559 180.832 68.8635C180.832 59.871 191.631 52.5823 204.954 52.5823C218.275 52.5823 229.074 59.871 229.074 68.8635Z" fill="#F0C42E"/>
<path d="M216.719 55.3327C216.719 59.7194 211.451 63.2748 204.954 63.2748C198.456 63.2748 193.187 59.7194 193.187 55.3327C193.187 50.946 198.456 47.3906 204.954 47.3906C211.451 47.3906 216.719 50.946 216.719 55.3327Z" fill="#1A181A"/>
<path d="M214.338 62.1684C212.462 65.7182 208.968 68.1128 204.956 68.1128C200.944 68.1128 197.45 65.7182 195.574 62.1684C194.649 63.917 194.112 65.9447 194.112 68.1128C194.112 71.1065 195.128 73.8363 196.797 75.9257C198.785 73.4337 201.698 71.8498 204.956 71.8498C208.214 71.8498 211.129 73.4337 213.117 75.9257C214.783 73.8363 215.802 71.1065 215.802 68.1128C215.802 65.9447 215.263 63.917 214.338 62.1684Z" fill="#171717"/>
<path d="M204.956 71.8498C201.698 71.8498 198.785 73.4337 196.796 75.9257C198.785 78.4195 201.698 80.0016 204.956 80.0016C208.213 80.0016 211.129 78.4195 213.117 75.9257C211.129 73.4337 208.213 71.8498 204.956 71.8498Z" fill="#EE2E32"/>
<path d="M201.803 38.1809C201.803 44.8012 196.437 50.1671 189.817 50.1671C183.198 50.1671 177.833 44.8012 177.833 38.1809C177.833 31.5606 183.198 26.1947 189.817 26.1947C196.437 26.1947 201.803 31.5606 201.803 38.1809Z" fill="white"/>
<path d="M200.2 38.1809C200.2 42.1726 196.963 45.4097 192.971 45.4097C188.978 45.4097 185.743 42.1726 185.743 38.1809C185.743 34.1893 188.978 30.9522 192.971 30.9522C196.963 30.9522 200.2 34.1893 200.2 38.1809Z" fill="#171717"/>
<path d="M209.252 38.1809C209.252 44.8012 214.618 50.1671 221.237 50.1671C227.857 50.1671 233.223 44.8012 233.223 38.1809C233.223 31.5606 227.857 26.1947 221.237 26.1947C214.618 26.1947 209.252 31.5606 209.252 38.1809Z" fill="white"/>
<path d="M210.855 38.1809C210.855 42.1726 214.093 45.4097 218.084 45.4097C222.076 45.4097 225.313 42.1726 225.313 38.1809C225.313 34.1893 222.076 30.9522 218.084 30.9522C214.093 30.9522 210.855 34.1893 210.855 38.1809Z" fill="#171717"/>
<path d="M181.83 54.1794C181.83 56.838 178.542 58.9911 174.489 58.9911C170.435 58.9911 167.147 56.838 167.147 54.1794C167.147 51.5227 170.435 49.3677 174.489 49.3677C178.542 49.3677 181.83 51.5227 181.83 54.1794Z" fill="#DA533D"/>
<path d="M242.764 54.1794C242.764 56.838 239.479 58.9911 235.423 58.9911C231.37 58.9911 228.084 56.838 228.084 54.1794C228.084 51.5227 231.37 49.3677 235.423 49.3677C239.479 49.3677 242.764 51.5227 242.764 54.1794Z" fill="#DA533D"/>
<path d="M214.418 103.143C223.564 106.239 231.048 113.103 234.886 122.096C233.22 123.636 233.203 126.611 234.944 128.987C236.786 131.502 239.876 132.37 241.843 130.927C242.774 130.245 243.272 129.165 243.36 127.956C244.539 128.235 245.721 128.085 246.649 127.403C247.58 126.724 248.076 125.642 248.166 124.432C249.345 124.711 250.527 124.563 251.455 123.882C253.423 122.438 253.524 119.231 251.682 116.718C250.229 114.736 248.007 113.798 246.164 114.189C242.442 100.892 231.776 90.9936 218.807 87.9175C213.132 86.5732 208.004 91.6414 209.315 97.3256L209.42 97.7824C210.007 100.334 211.938 102.302 214.418 103.143Z" fill="#823A35"/>
</svg>
