<svg width="50" height="88" viewBox="0 0 50 88" fill="none" xmlns="http://www.w3.org/2000/svg">
<path d="M32.7045 55.9603C37.1621 55.7608 49.995 58.0595 45.3575 65.0649C41.9995 70.1372 36.0249 66.8934 32.4951 63.8113C31.577 63.0099 30.7088 62.151 29.8721 61.2649" fill="#F5B9BB"/>
<path d="M32.7041 55.9601C34.2777 55.7819 35.8749 55.8774 37.4528 56.0671C39.0304 56.2755 40.6006 56.6177 42.1189 57.1829C42.878 57.4634 43.6261 57.8035 44.3273 58.2554C45.025 58.7046 45.7015 59.252 46.2045 59.994C46.7138 60.7255 46.9777 61.6777 46.9001 62.5835C46.8302 63.4939 46.4781 64.3157 46.0515 65.0395C45.6222 65.7654 45.0758 66.432 44.4036 66.9844C43.7314 67.5317 42.9164 67.9337 42.0639 68.1127C41.2089 68.2896 40.338 68.27 39.5145 68.1186C38.6855 67.9788 37.9038 67.6984 37.1604 67.3625C35.6728 66.6878 34.3468 65.7564 33.1379 64.7164C31.9372 63.6602 30.8614 62.4965 29.8721 61.2642C31.0477 62.3166 32.227 63.3639 33.4938 64.2671C34.7534 65.1767 36.1008 65.9653 37.5142 66.5228C38.9225 67.0569 40.4425 67.3809 41.821 67.0339C42.5029 66.866 43.1406 66.5548 43.6824 66.1004C44.222 65.6464 44.6845 65.0736 45.0489 64.4423C45.4266 63.8225 45.7088 63.1551 45.765 62.4893C45.8277 61.8235 45.6491 61.1786 45.2859 60.601C44.9253 60.0192 44.3729 59.5251 43.7651 59.1053C43.1526 58.6867 42.4787 58.3308 41.7783 58.0231C40.3717 57.4187 38.8773 56.9621 37.3548 56.628C35.8309 56.2874 34.2799 56.0394 32.7041 55.9601Z" fill="#DB8289"/>
<path d="M11.287 72.2373C11.5444 73.2859 12.3858 74.1141 13.3423 74.6132C14.6863 75.3144 16.1926 75.6123 17.722 75.7973C18.5429 78.2836 19.3835 82.0353 19.4704 82.6176C19.6209 83.6197 19.4329 84.5758 20.0109 85.5029C20.8907 86.9167 22.3945 87.1805 23.9533 87.071C25.6105 86.9551 29.7148 86.0591 30.8298 84.6214C32.271 82.7621 31.9359 81.026 29.9402 79.8858C28.7919 79.2298 28.2323 79.5133 27.4378 78.3594C27.0848 77.8454 26.9088 77.186 26.743 76.5428C28.3154 76.5321 29.8861 76.4115 31.4394 76.1656C33.3485 77.79 35.5215 79.9251 35.8655 80.3138C36.5359 81.0725 36.8987 81.9766 37.8876 82.4403C38.9813 82.9531 40.0205 82.7809 40.9847 82.2873C40.9314 82.1437 40.8926 82.0022 40.8875 81.9608C40.8504 81.682 40.925 81.3994 41.0247 81.1428C41.2647 80.526 41.7148 79.9881 42.1603 79.509C43.1325 78.4634 44.4394 77.0922 45.8242 76.7312C45.8528 76.7235 46.0544 76.6834 46.256 76.6626C46.3822 76.3612 46.4619 76.0756 46.4841 75.8143C46.6823 73.47 45.4568 72.1964 43.1615 72.3255C41.9548 72.3929 41.5865 72.8519 40.5431 72.5203C40.5307 71.3179 40.1254 69.7851 40.0363 69.0835C39.6769 66.2515 39.2426 63.4298 38.7916 60.6111C38.4574 58.5191 37.27 56.1436 38.5061 54.1564C40.3376 51.2119 44.4019 50.2913 46.5668 47.487C56.5865 34.5091 42.7958 19.6409 29.3158 19.0058C29.3158 19.0058 38.3603 0.86485 25.4694 0C25.4694 0 15.6926 0.032393 22.9486 19.4453L19.5322 19.967C19.5322 19.967 19.8408 1.46073 10.3974 3.00202C10.3974 3.00202 -0.536208 5.178 14.2532 22.05C13.6108 21.3173 7.36425 26.2012 6.88856 26.627C1.63339 31.3196 -1.44112 39.7272 0.675186 46.6537C1.74378 50.1481 4.14566 52.9753 7.27089 54.8239C8.81432 55.7374 10.492 56.4104 12.2162 56.8968C13.3585 57.219 14.52 57.4394 15.6816 57.678C16.6385 57.875 17.0127 58.3307 16.5907 59.3238C15.1879 62.6264 13.7839 65.8142 12.0103 68.9233C11.4362 69.93 11.009 71.1116 11.287 72.2373Z" fill="#F5B9BB"/>
<path d="M5.09848 69.3244C6.08651 72.1969 9.21596 73.7241 12.0884 72.7361C14.9609 71.748 16.4881 68.6186 15.5001 65.7461C14.5121 62.8736 11.3826 61.3464 8.5101 62.3344C5.63764 63.3225 4.11044 66.452 5.09848 69.3244Z" fill="#F5B9BB"/>
<path d="M38.5067 54.1558C38.4551 54.9226 38.4577 55.5926 38.4739 56.2555C38.4905 56.9149 38.5416 57.5542 38.6009 58.1987C38.6725 58.8423 38.7552 59.4902 38.8468 60.1628C38.8822 60.5017 38.9513 60.8375 38.9747 61.1969C39.0182 61.5498 39.0655 61.9087 39.0604 62.306C38.7633 62.0604 38.505 61.7821 38.2676 61.488C38.0553 61.182 37.8392 60.8691 37.6793 60.5294C37.3477 59.8546 37.1338 59.1159 37.0532 58.3551C36.9833 57.5938 37.0417 56.8117 37.2684 56.0743C37.5003 55.3454 37.8771 54.6293 38.5067 54.1558Z" fill="#DB8289"/>
<path d="M40.9842 82.2868C41.3504 82.1014 41.7042 81.8692 42.0473 81.6104C43.1832 80.7554 45.5127 78.446 46.2552 76.6617C46.054 76.6822 45.8524 76.7223 45.8234 76.7304C44.4385 77.0914 43.1317 78.4626 42.1594 79.5082C41.714 79.9873 41.2643 80.5252 41.0239 81.142C40.9241 81.399 40.8495 81.6816 40.8866 81.9599C40.8922 82.0021 40.931 82.1436 40.9842 82.2868Z" fill="#F9D9DB"/>
<path d="M31.1082 83.9535C30.7856 83.8286 30.5072 83.7101 30.2336 83.5792C29.9625 83.448 29.6982 83.3133 29.442 83.1641C29.1867 83.0136 28.9331 82.8572 28.6888 82.6756C28.5665 82.5852 28.4438 82.4923 28.327 82.3857C28.208 82.2826 28.0904 82.1735 27.9834 82.0371C28.165 82.0179 28.3359 82.026 28.5051 82.04C28.6714 82.0605 28.8346 82.0903 28.9932 82.1313C29.3073 82.2182 29.6091 82.3376 29.8844 82.5008C30.1606 82.662 30.4169 82.8576 30.6351 83.0955C30.7425 83.2161 30.8431 83.3435 30.9258 83.4859C31.0072 83.6274 31.0805 83.78 31.1082 83.9535Z" fill="#DB8289"/>
<path d="M31.5673 82.2398C31.2856 82.2257 31.0644 82.1622 30.8577 82.0825C30.6518 82.0024 30.4693 81.8997 30.2993 81.7812C30.1296 81.6614 29.9723 81.5293 29.8283 81.3669C29.6829 81.2049 29.5465 81.0293 29.4199 80.7744C29.6914 80.6951 29.9434 80.7173 30.174 80.7744C30.4041 80.8341 30.6138 80.9355 30.8001 81.0668C30.986 81.1989 31.1514 81.3575 31.2856 81.5493C31.4178 81.7415 31.529 81.9585 31.5673 82.2398Z" fill="#EA7A82"/>
<path d="M44.8445 75.2048C44.5218 75.0799 44.2435 74.9615 43.9698 74.8306C43.6987 74.6993 43.4345 74.5646 43.1783 74.4154C42.923 74.265 42.6694 74.1085 42.4251 73.927C42.3024 73.8366 42.18 73.7437 42.0632 73.6371C41.9443 73.5339 41.8267 73.4248 41.7197 73.2884C41.9009 73.2692 42.0722 73.2769 42.2414 73.2914C42.4077 73.3119 42.5709 73.3417 42.7295 73.3827C43.044 73.4696 43.3454 73.5889 43.6208 73.7526C43.897 73.9137 44.1531 74.1094 44.3714 74.3472C44.4788 74.4678 44.5794 74.5953 44.6625 74.7377C44.7439 74.8788 44.8172 75.0313 44.8445 75.2048Z" fill="#DB8289"/>
<path d="M45.6098 73.7901C45.328 73.7765 45.1068 73.7125 44.9001 73.6328C44.6942 73.5527 44.5117 73.4499 44.3417 73.3314C44.172 73.2117 44.0148 73.0796 43.8703 72.9172C43.7249 72.7552 43.5885 72.5796 43.4619 72.3247C43.7334 72.2454 43.9854 72.2676 44.216 72.3247C44.4461 72.3844 44.6558 72.4858 44.8421 72.6171C45.028 72.7492 45.1933 72.9078 45.3276 73.0996C45.4601 73.2922 45.5714 73.5092 45.6098 73.7901Z" fill="#DB8289"/>
<path d="M25.4908 45.7631C29.2244 45.3023 31.9339 42.3587 31.5426 39.1884C31.1513 36.0181 27.8074 33.8216 24.0738 34.2824C20.3402 34.7433 17.6307 37.6869 18.022 40.8572C18.4133 44.0275 21.7572 46.2239 25.4908 45.7631Z" fill="white"/>
<path d="M24.333 37.6725C26.1707 37.4899 27.5563 36.2936 27.4278 35.0005C27.2993 33.7074 25.7053 32.8072 23.8676 32.9898C22.0299 33.1725 20.6442 34.3688 20.7727 35.6619C20.9013 36.955 22.4953 37.8552 24.333 37.6725Z" fill="#42210B"/>
<path d="M28.5858 32.9824C28.7482 33.8076 29.4822 34.3579 30.2247 34.2113C30.9673 34.0651 31.4374 33.2774 31.275 32.4526C31.1126 31.6274 30.3786 31.0771 29.6361 31.2237C28.8936 31.3699 28.4234 32.1576 28.5858 32.9824Z" fill="#42210B"/>
<path d="M19.2387 33.5693C19.3772 33.6196 19.5021 33.4662 19.4237 33.3413C19.3546 33.2309 19.2762 33.1265 19.1922 33.0259C19.0209 32.8251 18.8214 32.6444 18.5873 32.4939C18.3538 32.3447 18.084 32.2262 17.7771 32.1721C17.4727 32.1167 17.1236 32.1405 16.8108 32.2693C16.4962 32.3954 16.2379 32.6141 16.0529 32.8528L15.9281 33.0293C15.9246 33.0336 15.9217 33.0382 15.9191 33.0429C15.8837 33.103 15.8522 33.1648 15.8202 33.2258C15.7516 33.3498 15.7119 33.4794 15.6642 33.6064C15.6625 33.6106 15.6612 33.6149 15.6599 33.6192C15.6416 33.6818 15.6267 33.7458 15.6113 33.8089C15.5964 33.8745 15.5768 33.9385 15.5709 34.0045C15.5538 34.1358 15.5325 34.2658 15.5312 34.3966C15.5308 34.5279 15.5265 34.6571 15.5406 34.7876C15.5406 34.7888 15.541 34.7901 15.541 34.7914C15.5555 34.935 15.7448 34.9785 15.8245 34.8579C16.0346 34.5412 16.2145 34.2381 16.408 33.9704C16.5431 33.8012 16.6638 33.6307 16.8027 33.5118C16.9383 33.3886 17.0699 33.2991 17.2059 33.2441C17.3419 33.1883 17.4898 33.1618 17.6658 33.1614C17.841 33.1614 18.0384 33.1934 18.246 33.2441C18.5597 33.3225 18.8853 33.441 19.2387 33.5693Z" fill="#42210B"/>
<path d="M29.1098 38.5156C29.1895 38.3408 28.9691 38.1852 28.8272 38.3144C28.8255 38.3161 28.8238 38.3174 28.8221 38.3191C28.6512 38.4764 28.4645 38.6119 28.2803 38.7402C27.9061 38.9921 27.5058 39.186 27.0936 39.3403C26.9918 39.3808 26.8912 39.4226 26.7829 39.4508C26.6793 39.4823 26.5779 39.5169 26.476 39.5497C26.4718 39.551 26.4675 39.5522 26.4632 39.5535C26.3584 39.5803 26.2514 39.6025 26.1478 39.6315C26.0412 39.66 25.936 39.6895 25.8247 39.7057C25.6048 39.7427 25.3938 39.7999 25.1632 39.8208L24.8252 39.8689L24.737 39.8821L24.6645 39.8911L24.5059 39.9068C23.6351 39.9776 22.7374 39.9495 21.8956 39.7487C21.4736 39.6477 21.0632 39.4994 20.674 39.2816C20.4724 39.1737 20.281 39.0433 20.0947 38.895C19.9447 38.7752 19.7341 38.9486 19.8279 39.1161C19.8301 39.1196 19.8317 39.1234 19.8339 39.1268C19.8884 39.2419 19.9626 39.3429 20.0312 39.4516C20.0338 39.4554 20.0363 39.4593 20.0393 39.4631C20.1165 39.5633 20.1928 39.6686 20.281 39.7619C20.6322 40.1541 21.0811 40.461 21.5597 40.683C21.7993 40.796 22.0478 40.8851 22.3001 40.9562C22.552 41.0313 22.8086 41.0816 23.0657 41.1204C23.5814 41.1924 24.0976 41.212 24.6193 41.1639C24.685 41.1579 24.7506 41.1506 24.8179 41.1421L24.9237 41.1276L25.0127 41.1122L25.384 41.0453C25.6295 41.0048 25.881 40.9315 26.1274 40.8608C26.2514 40.8284 26.3729 40.781 26.4939 40.735C26.6137 40.6907 26.7318 40.643 26.849 40.5939C26.8528 40.5922 26.8566 40.5906 26.8605 40.5889C27.0932 40.4725 27.3268 40.3672 27.5433 40.2202C27.9849 39.9431 28.3911 39.5991 28.707 39.1844C28.7812 39.0757 28.8605 38.9751 28.9257 38.863C28.9896 38.7496 29.0561 38.6413 29.1055 38.5215C29.1077 38.5207 29.109 38.5182 29.1098 38.5156Z" fill="#42210B"/>
<path d="M23.8591 40.5718L24.9717 40.5044L24.7319 36.5487L23.6193 36.6162L23.8591 40.5718Z" fill="#42210B"/>
<path d="M25.2761 19.1836C25.2761 19.1836 22.0627 2.84647 27.8187 3.59751C27.8187 3.59751 33.8879 3.33024 28.2879 19.0139C28.2879 19.0139 27.2177 19.9755 25.2761 19.1836Z" fill="#DB8289"/>
<path d="M17.531 20.3656C17.531 20.3656 14.4399 4.02891 9.81513 6.89626C9.81513 6.89626 4.56081 8.93965 14.9104 21.3451C14.9104 21.3451 16.1628 21.8318 17.531 20.3656Z" fill="#DB8289"/>
<path d="M14.7423 63.5428C14.2415 64.5215 13.7048 65.4409 13.2087 66.3744C12.6955 67.3083 12.2484 68.2141 11.9517 69.1642C11.8136 69.6377 11.7155 70.1151 11.6729 70.5929C11.6422 71.0703 11.6785 71.5434 11.7859 72.0106C11.999 72.9513 12.5979 73.8051 13.3425 74.6129C12.3293 74.2148 11.3848 73.4219 10.9172 72.3065C10.6858 71.7557 10.5745 71.1534 10.5664 70.558C10.5719 69.9629 10.6751 69.3811 10.8354 68.8244C11.1781 67.7217 11.7761 66.7295 12.4423 65.8753C13.1158 65.0104 13.8677 64.2103 14.7423 63.5428Z" fill="#DB8289"/>
<path d="M27.8539 58.7476C32.3115 58.5482 45.1444 60.8469 40.5069 67.8522C37.149 72.9245 31.1743 69.6808 27.6446 66.5986C26.7264 65.7973 25.8582 64.9384 25.0215 64.0522" fill="#F5B9BB"/>
<path d="M27.8535 58.7472C29.4272 58.5687 31.0243 58.6645 32.6023 58.8542C34.1798 59.0627 35.75 59.405 37.2683 59.9697C38.0274 60.2502 38.7755 60.5903 39.4767 61.0422C40.1744 61.4914 40.8509 62.0387 41.3539 62.7808C41.8633 63.5122 42.1271 64.4645 42.0495 65.3707C41.9796 66.2811 41.6275 67.1029 41.2009 67.8267C40.7721 68.5526 40.2252 69.2197 39.553 69.7716C38.8808 70.3189 38.0658 70.7209 37.2134 70.8999C36.3579 71.0768 35.4875 71.0572 34.6635 70.9059C33.8345 70.7661 33.0528 70.4856 32.3098 70.1501C30.8222 69.4749 29.4962 68.544 28.2874 67.504C27.0866 66.4478 26.0108 65.2841 25.0215 64.0518C26.1971 65.1042 27.3765 66.1515 28.6433 67.0547C29.9028 67.9644 31.2502 68.7529 32.6636 69.3104C34.0719 69.8445 35.5919 70.1684 36.9704 69.8215C37.6524 69.6535 38.29 69.3428 38.8318 68.8884C39.3714 68.4345 39.8339 67.8616 40.1983 67.2304C40.576 66.6106 40.8582 65.9431 40.9144 65.2773C40.9771 64.6115 40.7985 63.9666 40.4353 63.3891C40.0747 62.8072 39.5223 62.3132 38.9145 61.8934C38.302 61.4748 37.6281 61.1189 36.9278 60.8111C35.5211 60.2067 34.0267 59.7502 32.5042 59.416C30.9808 59.0746 29.4297 58.8265 27.8535 58.7472Z" fill="#DB8289"/>
<path d="M46.6521 39.7618C46.7122 40.0453 46.6956 40.293 46.6564 40.5295C46.6155 40.7652 46.5408 40.9852 46.4428 41.194C46.3439 41.4024 46.2212 41.5994 46.0647 41.7805C45.907 41.9608 45.7254 42.1301 45.4671 42.2626C45.4062 41.9788 45.4224 41.7311 45.462 41.4946C45.503 41.2588 45.5775 41.0389 45.6764 40.8304C45.7762 40.6224 45.8989 40.4255 46.0554 40.2443C46.2135 40.0645 46.3947 39.8948 46.6521 39.7618Z" fill="#DB8289"/>
<path d="M48.0828 42.6628C48.1429 42.9463 48.1262 43.194 48.087 43.4305C48.0461 43.6662 47.9715 43.8862 47.8735 44.095C47.7746 44.3034 47.6518 44.5004 47.4954 44.6815C47.3377 44.8618 47.1561 45.0311 46.8978 45.1641C46.8369 44.8802 46.853 44.6325 46.8927 44.396C46.9336 44.1603 47.0082 43.9403 47.1071 43.7318C47.2068 43.5238 47.3296 43.3269 47.4861 43.1462C47.6442 42.9655 47.8254 42.7958 48.0828 42.6628Z" fill="#DB8289"/>
<path d="M49.0672 37.8898C49.1273 38.1732 49.1106 38.4209 49.0714 38.6574C49.0305 38.8932 48.9559 39.1131 48.8579 39.3219C48.759 39.5304 48.6362 39.7273 48.4798 39.9084C48.3221 40.0887 48.1405 40.258 47.8822 40.391C47.8212 40.1071 47.8374 39.8595 47.8771 39.6229C47.918 39.3872 47.9926 39.1672 48.0915 38.9588C48.1912 38.7508 48.314 38.5539 48.4708 38.3731C48.6285 38.192 48.8097 38.0228 49.0672 37.8898Z" fill="#DB8289"/>
<path d="M44.907 43.7728C44.9671 44.0563 44.9505 44.3039 44.9108 44.5405C44.8699 44.7762 44.7953 44.9961 44.6977 45.205C44.5988 45.4134 44.4761 45.6103 44.3196 45.7915C44.1619 45.9718 43.9804 46.1411 43.7221 46.274C43.6611 45.9902 43.6773 45.7425 43.7169 45.506C43.7578 45.2702 43.8324 45.0503 43.9313 44.8418C44.0311 44.6338 44.1538 44.4369 44.3107 44.2562C44.4684 44.075 44.6495 43.9058 44.907 43.7728Z" fill="#DB8289"/>
</svg>
