<svg width="312" height="194" viewBox="0 0 312 194" fill="none" xmlns="http://www.w3.org/2000/svg">
<g filter="url(#filter0_d_0_1)">
<path d="M54.9115 18.9301L50.3142 28.3622L42.5859 24.5949L47.1833 15.1628C47.6834 14.137 48.9246 13.7089 49.9503 14.2091L53.9663 16.1666C54.9928 16.6674 55.4117 17.9044 54.9115 18.9301Z" fill="#E3E5DC"/>
<path d="M54.9115 18.9301L51.3815 26.1716L43.6533 22.4043L47.1833 15.1628C47.6834 14.137 48.9246 13.7089 49.9503 14.2091L53.9663 16.1666C54.9927 16.6674 55.4117 17.9044 54.9115 18.9301Z" fill="#EFEFED"/>
<path d="M48.4721 20.295C48.1818 20.8912 47.4633 21.1384 46.8671 20.8481C46.2709 20.5577 46.0237 19.8393 46.314 19.2431C46.6043 18.6469 47.3228 18.3996 47.919 18.69C48.5152 18.9803 48.7631 19.6987 48.4721 20.295Z" fill="#CACCC0"/>
<path d="M51.8988 31.6202L50.0134 35.4886L36.6084 28.9542L38.4938 25.0858C38.6083 24.8513 38.7573 24.6549 38.929 24.4804C39.5796 23.8298 40.6032 23.6285 41.4806 24.0566L50.8689 28.6328C51.7469 29.0609 52.2188 29.9905 52.1072 30.9039C52.0761 31.1469 52.0133 31.385 51.8988 31.6202Z" fill="#B9BAB1"/>
<path d="M52.1085 30.9046C51.4579 31.556 50.4343 31.7566 49.5569 31.3285L40.1686 26.7523C39.2905 26.3242 38.8186 25.3946 38.9302 24.4812C39.5808 23.8306 40.6044 23.6292 41.4818 24.0573L50.8701 28.6335C51.7482 29.0609 52.2201 29.9905 52.1085 30.9046Z" fill="#CACCC0"/>
<path d="M54.9767 49.8932L39.2646 82.127C37.4724 85.8039 33.0368 87.3326 29.3599 85.5397L11.087 76.6325C7.41005 74.8403 5.89054 70.409 7.68273 66.7321L23.3949 34.4982C26.0009 29.152 32.4448 26.9247 37.7995 29.5349L50.0134 35.4886C55.3596 38.0946 57.5827 44.547 54.9767 49.8932Z" fill="#EFEFED"/>
<path d="M48.9703 46.9651L33.2582 79.1989C31.466 82.8758 27.0304 84.4045 23.3535 82.6116L11.0879 76.6325C7.41103 74.8403 5.89152 70.409 7.6837 66.7321L23.3959 34.4982C26.0018 29.152 32.4458 26.9247 37.8004 29.5349L44.007 32.5605C49.3532 35.1665 51.5763 41.6189 48.9703 46.9651Z" fill="white"/>
<path d="M50.0138 35.4886C55.36 38.0946 57.5831 44.547 54.9771 49.8932L39.2649 82.127C37.4727 85.804 33.0371 87.3327 29.3602 85.5398L11.0873 76.6325C7.41039 74.8403 5.89089 70.409 7.68307 66.7321L23.3952 34.4982C26.0012 29.152 32.4452 26.9247 37.7998 29.5349L50.0138 35.4886ZM50.8615 33.7501L38.6475 27.7964C32.3491 24.7263 24.7268 27.3528 21.6567 33.6512L5.94457 65.8851C3.68757 70.5156 5.61469 76.1168 10.2403 78.3717L28.5132 87.279C33.1438 89.536 38.7471 87.6053 41.0041 82.9748L56.7163 50.7409C59.7864 44.4418 57.1599 36.8202 50.8615 33.7501Z" fill="#E3E5DC"/>
<path d="M21.6693 38.0644L9.62988 62.7615L41.2116 78.1571L53.251 53.46L21.6693 38.0644Z" fill="#A6C142"/>
<path d="M21.6693 38.0654L9.62988 62.7625L35.2051 75.23L47.2445 50.533L21.6693 38.0654Z" fill="#B3D84C"/>
<path d="M32.938 58.8527C32.5664 58.6711 32.1404 58.7361 31.8381 58.9784L31.3203 58.7262C31.5336 58.1074 31.5661 57.4624 31.4418 56.8514L31.9794 56.6663C32.2507 56.9439 32.6646 57.0591 33.056 56.9249C33.5964 56.7384 33.8839 56.1492 33.6974 55.6088C33.5109 55.0684 32.9218 54.7809 32.3813 54.9674C31.99 55.1023 31.735 55.4484 31.6926 55.8341L31.1635 56.0164C30.8922 55.4484 30.4698 54.9497 29.9209 54.5838L30.1568 54.0992C30.5447 54.1041 30.9198 53.8922 31.1006 53.5206C31.3514 53.0063 31.1373 52.3868 30.6238 52.136C30.1102 51.8853 29.49 52.0993 29.2392 52.6129C29.0576 52.9844 29.1226 53.4104 29.3649 53.7128L29.1346 54.1847C28.5031 53.9586 27.8419 53.9226 27.2174 54.0497L27.0528 53.5715C27.3305 53.3002 27.4456 52.8863 27.3114 52.4949C27.1249 51.9545 26.5357 51.667 25.9953 51.8535C25.4549 52.04 25.1674 52.6291 25.3539 53.1695C25.4888 53.5609 25.835 53.8159 26.2207 53.8583L26.3824 54.328C25.8018 54.6057 25.2924 55.0401 24.9244 55.6074L24.4864 55.394C24.4907 55.0062 24.2794 54.6311 23.9079 54.4503C23.3936 54.1995 22.774 54.4135 22.5233 54.9271C22.2725 55.4414 22.4865 56.0609 23.0001 56.3117C23.3717 56.4932 23.7977 56.4282 24.1 56.1859L24.538 56.3993C24.3176 57.0393 24.2886 57.7076 24.4285 58.3363L23.9594 58.498C23.6882 58.2204 23.2742 58.1053 22.8828 58.2395C22.3424 58.426 22.0549 59.0151 22.2414 59.5556C22.4279 60.096 23.0171 60.3835 23.5575 60.197C23.9488 60.0621 24.2039 59.7159 24.2462 59.3302L24.7245 59.1656C25.0092 59.7357 25.4443 60.2351 26.0123 60.5933L25.782 61.0652C25.3942 61.0609 25.019 61.2721 24.8382 61.6437C24.5874 62.158 24.8015 62.7775 25.315 63.0283C25.8293 63.2791 26.4488 63.065 26.6996 62.5515C26.8812 62.1799 26.8162 61.7546 26.5739 61.4516L26.8098 60.9677C27.4364 61.1747 28.0892 61.2001 28.7037 61.0638L28.886 61.5929C28.6084 61.8641 28.4932 62.2781 28.6274 62.6694C28.8139 63.2099 29.4031 63.4974 29.9435 63.3109C30.4839 63.1244 30.7714 62.5352 30.5849 61.9948C30.45 61.6035 30.1039 61.3484 29.7182 61.3061L29.5331 60.7685C30.0904 60.4901 30.5786 60.067 30.9346 59.5181L31.4524 59.7703C31.4475 60.1581 31.6594 60.5325 32.031 60.7141C32.5452 60.9649 33.1648 60.7508 33.4155 60.2372C33.6656 59.723 33.4523 59.1034 32.938 58.8527Z" fill="white"/>
<path d="M27.9701 49.9383C31.2288 49.9383 34.1315 52.0095 35.194 55.093C35.8587 57.023 35.733 59.0963 34.8379 60.9309C33.9436 62.7654 32.3881 64.1422 30.4581 64.8077C29.6507 65.086 28.8129 65.2273 27.968 65.2273C24.7093 65.2273 21.8059 63.1561 20.7435 60.0726C19.3709 56.0891 21.4951 51.7312 25.4786 50.3586C26.2874 50.0789 27.1253 49.9383 27.9701 49.9383ZM27.9694 48.4873C26.9868 48.4873 25.9879 48.6477 25.0067 48.986C20.2589 50.6221 17.7369 55.7966 19.3723 60.5444C20.67 64.3111 24.1957 66.6769 27.968 66.6769C28.9506 66.6769 29.9495 66.5165 30.9307 66.1781C35.6786 64.5421 38.2005 59.3676 36.5651 54.6197C35.2674 50.8531 31.7424 48.4873 27.9694 48.4873Z" fill="#F84A76"/>
<path d="M19.373 60.5444L36.5659 54.6196" stroke="#F84A76" stroke-width="2.0535" stroke-miterlimit="10"/>
<path d="M19.9771 46.2947C19.4882 46.0567 19.2855 45.4675 19.5235 44.9787L20.4659 43.0459C20.704 42.5571 21.2931 42.3543 21.782 42.5924C22.2708 42.8305 22.4735 43.4196 22.2355 43.9084L21.2931 45.8412C21.0544 46.33 20.4652 46.5328 19.9771 46.2947Z" fill="#CCEA5C"/>
<path d="M22.0083 42.1268C21.5195 41.8888 21.3167 41.2996 21.5548 40.8108L21.7363 40.4385C21.9744 39.9496 22.5636 39.7469 23.0524 39.985C23.5412 40.223 23.744 40.8122 23.5059 41.301L23.3244 41.6733C23.0863 42.1614 22.4964 42.3649 22.0083 42.1268Z" fill="#CCEA5C"/>
</g>
<g filter="url(#filter1_d_0_1)">
<path d="M240.459 87.068C239.66 86.3372 239.606 85.0977 240.337 84.2992L245.778 78.3572C246.509 77.5586 247.748 77.5042 248.547 78.2351C249.345 78.966 249.399 80.2059 248.669 81.0039L243.228 86.9459C242.497 87.7439 241.257 87.7989 240.459 87.068Z" fill="#753B6F"/>
<path d="M279.097 85.3659C279.828 84.5673 279.774 83.3279 278.975 82.597L273.033 77.1565C272.235 76.4256 270.995 76.48 270.264 77.2785C269.534 78.0771 269.588 79.3165 270.386 80.0474L276.328 85.4884C277.126 86.2188 278.366 86.1644 279.097 85.3659Z" fill="#753B6F"/>
<path d="M235.891 44.3663L233.258 47.7434L242.245 54.7507L244.878 51.3735L235.891 44.3663Z" fill="#753B6F"/>
<path d="M245.286 43.438L234.882 56.7731C233.716 58.2771 231.546 58.542 230.042 57.3697L228.583 56.233C228.205 55.9354 227.852 55.6237 227.517 55.2926C223.29 51.1154 222.771 44.3347 226.515 39.5299C228.747 36.6649 232.023 35.1061 235.386 34.9576C237.621 34.8594 239.895 35.3878 241.921 36.5749C242.367 36.8384 242.807 37.1334 243.224 37.4609L244.683 38.5976C246.187 39.7705 246.452 41.9341 245.286 43.438Z" fill="#F0A63D"/>
<path d="M241.725 41.6853L232.07 54.0688C231.994 54.1664 231.913 54.2585 231.829 54.3449C230.554 55.6485 228.388 55.352 227.281 53.903C224.308 50.0101 224.205 44.4551 227.358 40.4087C229.43 37.7482 232.473 36.3002 235.597 36.1629C237.235 36.0906 238.896 36.3816 240.45 37.0499C241.752 37.6103 242.621 38.9566 242.341 40.3471C242.245 40.8191 242.042 41.2779 241.725 41.6853Z" fill="#F0B855"/>
<path d="M228.689 37.2164C229.732 38.0296 229.709 39.8041 228.637 41.1794C227.565 42.5547 225.85 43.0099 224.806 42.1966C223.763 41.3833 223.787 39.6088 224.859 38.2336C225.931 36.8583 227.645 36.4031 228.689 37.2164Z" fill="#632F5C"/>
<path d="M227.667 37.6182C228.398 38.1878 228.381 39.4309 227.63 40.3947C226.879 41.358 225.678 41.6769 224.947 41.1072C224.216 40.5376 224.232 39.2946 224.983 38.3308C225.735 37.3675 226.936 37.0486 227.667 37.6182Z" fill="#753B6F"/>
<path d="M239.188 37.563C239.244 38.8162 237.565 39.9082 235.439 40.0018C233.313 40.0954 231.545 39.1555 231.49 37.9023C231.434 36.6491 233.113 35.5571 235.239 35.4635C237.365 35.3694 239.133 36.3093 239.188 37.563Z" fill="#FFCB78"/>
<path d="M242.448 38.3061C242.321 38.7399 241.621 38.9169 240.886 38.7013C240.15 38.4856 239.656 37.9597 239.784 37.5259C239.911 37.092 240.61 36.915 241.346 37.1307C242.081 37.3458 242.575 37.8722 242.448 38.3061Z" fill="#FFCB78"/>
<path d="M271.554 50.1918L274.475 53.3245L282.811 45.5537L279.89 42.4211L271.554 50.1918Z" fill="#753B6F"/>
<path d="M270.451 42.3293L281.987 54.698C283.281 56.0936 285.466 56.1668 286.861 54.8669L288.214 53.6065C288.564 53.277 288.889 52.9357 289.193 52.5761C293.036 48.0429 292.957 41.2434 288.806 36.786C286.331 34.1285 282.93 32.8636 279.566 33.0116C277.332 33.1098 275.114 33.8366 273.199 35.1971C272.779 35.4987 272.366 35.8313 271.979 36.194L270.627 37.4543C269.231 38.7553 269.157 40.9336 270.451 42.3293Z" fill="#F0A63D"/>
<path d="M273.845 40.2705L284.551 51.7573C284.636 51.8479 284.724 51.9328 284.816 52.0111C286.201 53.1972 288.332 52.7115 289.307 51.1709C291.927 47.0314 291.541 41.4891 288.044 37.7356C285.746 35.2679 282.588 34.093 279.464 34.2308C277.826 34.303 276.196 34.7389 274.708 35.541C273.46 36.2139 272.712 37.6314 273.114 38.9919C273.25 39.4537 273.493 39.8926 273.845 40.2705Z" fill="#F0B855"/>
<path d="M286.437 34.6723C285.47 35.5741 285.649 37.3394 286.838 38.615C288.027 39.8906 289.775 40.1932 290.743 39.2914C291.711 38.3892 291.532 36.6243 290.342 35.3487C289.153 34.0732 287.405 33.7705 286.437 34.6723Z" fill="#632F5C"/>
<path d="M287.491 34.9832C286.813 35.6154 286.939 36.8518 287.772 37.7454C288.605 38.639 289.83 38.8511 290.508 38.2194C291.186 37.5872 291.06 36.3508 290.227 35.4572C289.394 34.5631 288.169 34.351 287.491 34.9832Z" fill="#753B6F"/>
<path d="M276.008 35.9408C276.064 37.194 277.832 38.1344 279.957 38.0403C282.083 37.9467 283.762 36.8547 283.707 35.6015C283.651 34.3483 281.884 33.4084 279.758 33.502C277.631 33.5961 275.953 34.6876 276.008 35.9408Z" fill="#FFCB78"/>
<path d="M272.827 36.9681C272.992 37.3887 273.704 37.5037 274.418 37.2244C275.132 36.9452 275.577 36.3776 275.412 35.9565C275.248 35.5359 274.536 35.4209 273.822 35.7001C273.108 35.9794 272.662 36.547 272.827 36.9681Z" fill="#FFCB78"/>
<path d="M280.873 70.3108C283.652 58.1568 276.052 46.0513 263.898 43.2724C251.744 40.4935 239.639 48.0936 236.86 60.2476C234.081 72.4016 241.681 84.5071 253.835 87.286C265.989 90.0649 278.094 82.4648 280.873 70.3108Z" fill="#DD3C6A"/>
<path d="M278.471 64.8723C279.069 54.0048 270.745 44.7097 259.877 44.1111C249.01 43.5125 239.715 51.837 239.116 62.7045C238.517 73.572 246.842 82.8671 257.71 83.4657C268.577 84.0643 277.872 75.7398 278.471 64.8723Z" fill="#F84A76"/>
<path d="M274.455 52.9147C273.666 54.3855 270.987 54.4847 268.471 53.1354C265.955 51.7861 264.555 49.4999 265.344 48.029C266.133 46.5581 268.812 46.459 271.328 47.8083C273.843 49.1571 275.244 51.4438 274.455 52.9147Z" fill="#FF6994"/>
<path d="M277.473 56.5435C277.031 56.9453 276.117 56.659 275.43 55.9042C274.744 55.1494 274.544 54.2121 274.986 53.8103C275.427 53.4085 276.342 53.6948 277.028 54.4496C277.715 55.2049 277.914 56.1422 277.473 56.5435Z" fill="#FF6994"/>
<path d="M268.502 74.9283C273.831 69.5993 273.831 60.9593 268.502 55.6303C263.173 50.3013 254.533 50.3013 249.204 55.6303C243.875 60.9593 243.875 69.5993 249.204 74.9283C254.533 80.2573 263.173 80.2573 268.502 74.9283Z" fill="#EFEFED"/>
<path d="M258.804 75.7332C265.215 75.7332 270.413 70.5355 270.413 64.1238C270.413 57.7121 265.215 52.5144 258.804 52.5144C252.392 52.5144 247.194 57.7121 247.194 64.1238C247.194 70.5355 252.392 75.7332 258.804 75.7332Z" fill="white"/>
<path d="M258.896 66.2204C258.756 66.2265 258.615 66.2016 258.481 66.1441C258.149 66.0012 257.929 65.6813 257.913 65.3207L257.516 56.3087C257.493 55.7889 257.896 55.349 258.415 55.3261C258.935 55.3032 259.375 55.7061 259.398 56.2258L259.709 63.2954L262.598 60.8012C262.992 60.462 263.588 60.5052 263.928 60.8984C264.267 61.2926 264.224 61.8876 263.83 62.2279L259.47 65.9926C259.306 66.1335 259.103 66.2113 258.896 66.2204Z" fill="#753B6F"/>
</g>
<g filter="url(#filter2_d_0_1)">
<path d="M276.966 161.685L254.651 176.395C253.549 177.123 252.286 177.587 250.968 177.7C250.934 177.703 250.894 177.707 250.853 177.712C247.259 177.983 243.939 175.761 242.698 172.379L233.961 148.533C233.503 147.227 233.229 146.061 233.079 145.035C232.745 142.803 233.485 140.591 234.992 139.007C235.43 138.536 235.929 138.12 236.495 137.776L255.452 126.2C256.073 125.823 256.883 125.999 257.291 126.607C257.725 127.248 257.532 128.127 256.864 128.527L256.614 128.679C259.056 131.861 264.044 132.486 264.044 132.486L265.659 132.891C266.664 133.14 267.477 133.885 267.812 134.87L276.501 160.323L276.966 161.685Z" fill="#DD3C6A"/>
<path d="M276.501 160.322L256.286 173.648C255.183 174.371 253.915 174.842 252.603 174.953C252.562 174.958 252.521 174.957 252.487 174.96C248.888 175.238 245.568 173.016 244.331 169.627L235.589 145.782C235.138 144.48 234.864 143.315 234.708 142.29C234.54 141.169 234.647 140.048 234.993 139.007C235.431 138.536 235.931 138.12 236.496 137.776L255.453 126.2C256.074 125.823 256.884 125.999 257.292 126.607C257.726 127.248 257.533 128.127 256.865 128.527L256.616 128.679C259.057 131.861 264.046 132.486 264.046 132.486L265.661 132.891C266.665 133.14 267.479 133.885 267.813 134.87L276.501 160.322Z" fill="#F84A76"/>
<path d="M267.488 134.203L244.176 147.44C241.851 148.76 238.973 148.867 236.655 147.534C235.663 146.964 234.762 146.129 234.204 144.908C233.056 142.391 234.026 139.369 236.349 137.867C236.398 137.836 236.446 137.805 236.496 137.775L255.453 126.197C256.074 125.822 256.886 125.996 257.288 126.603C257.726 127.246 257.532 128.127 256.86 128.527L256.613 128.678C259.056 131.86 264.044 132.489 264.044 132.489L265.662 132.888C266.422 133.081 267.075 133.554 267.488 134.203Z" fill="#FF6994"/>
<path d="M264.044 132.485L242.005 145.073C241.461 145.382 240.831 145.543 240.205 145.509C240.153 145.51 240.092 145.502 240.038 145.498C238.083 145.374 236.948 143.764 236.955 142.134C236.957 141.033 237.48 139.929 238.616 139.263L256.614 128.678C257.716 130.044 259.226 130.935 260.595 131.508C262.447 132.288 264.044 132.485 264.044 132.485Z" fill="#E3E5DC"/>
<path d="M260.596 131.508L241.062 142.667C240.512 142.978 239.888 143.138 239.262 143.103C239.204 143.106 239.149 143.097 239.089 143.094C238.199 143.039 237.476 142.671 236.956 142.134C236.958 141.033 237.481 139.929 238.617 139.263L256.615 128.678C257.716 130.044 259.226 130.934 260.596 131.508Z" fill="#EFEFED"/>
<path d="M252.722 177.334C252.159 177.525 251.566 177.647 250.968 177.7C250.934 177.703 250.894 177.707 250.853 177.712C247.259 177.983 243.939 175.761 242.698 172.379L233.961 148.533C233.504 147.227 233.23 146.061 233.08 145.035C232.742 142.792 233.496 140.565 235.019 138.976C235.196 138.79 235.38 138.613 235.578 138.445L235.583 138.443C235.708 138.335 235.84 138.23 235.974 138.132C235.831 138.239 235.702 138.354 235.574 138.475C235.354 138.672 235.154 138.882 234.977 139.11C233.689 140.721 233.32 142.962 234.205 144.906C234.678 145.95 235.4 146.706 236.213 147.263C236.361 147.361 236.507 147.447 236.652 147.533C238.301 148.483 240.232 148.701 242.042 148.28L251.829 174.898L252.722 177.334Z" fill="#CC3668"/>
<path d="M251.829 174.898C248.512 174.851 245.541 172.705 244.38 169.543L236.213 147.263C236.361 147.36 236.507 147.446 236.653 147.533C238.301 148.482 240.232 148.7 242.042 148.279L251.829 174.898Z" fill="#DD3C6A"/>
<path d="M268.877 143.335C268.359 143.508 267.798 143.227 267.626 142.709L266.968 140.736C266.795 140.218 267.075 139.657 267.594 139.485C268.112 139.312 268.672 139.592 268.845 140.11L269.503 142.083C269.676 142.602 269.396 143.162 268.877 143.335Z" fill="#CCEA5C"/>
<path d="M267.418 138.956C266.9 139.128 266.34 138.848 266.167 138.33L266.059 138.005C265.886 137.487 266.166 136.927 266.685 136.754C267.203 136.581 267.763 136.862 267.936 137.38L268.044 137.704C268.217 138.222 267.936 138.783 267.418 138.956Z" fill="#CCEA5C"/>
<path d="M248.959 148.098L262.906 140.144C263.296 139.921 263.792 140.115 263.926 140.543L265.076 144.174C265.175 144.488 265.044 144.829 264.76 144.994L250.977 153.049C250.596 153.272 250.104 153.092 249.958 152.675L248.643 148.944C248.531 148.622 248.664 148.266 248.959 148.098Z" fill="#EFEFED"/>
<path d="M300 165.616L277.685 180.326C276.583 181.055 275.319 181.519 274.002 181.632C273.967 181.635 273.927 181.639 273.887 181.643C270.292 181.915 266.972 179.693 265.732 176.31L256.994 152.465C256.537 151.158 256.263 149.993 256.113 148.967C255.778 146.735 256.518 144.523 258.025 142.938C258.464 142.468 258.963 142.051 259.528 141.707L278.485 130.131C279.106 129.755 279.915 129.931 280.323 130.538C280.758 131.18 280.565 132.058 279.896 132.459L279.647 132.611C282.089 135.792 287.077 136.418 287.077 136.418L288.692 136.823C289.697 137.072 290.51 137.817 290.844 138.802L299.533 164.254L300 165.616Z" fill="#A6C142"/>
<path d="M299.535 164.253L279.32 177.58C278.217 178.303 276.949 178.774 275.637 178.885C275.596 178.889 275.555 178.888 275.521 178.891C271.922 179.17 268.602 176.948 267.366 173.558L258.623 149.714C258.172 148.412 257.899 147.247 257.743 146.222C257.574 145.101 257.681 143.98 258.027 142.938C258.466 142.468 258.965 142.051 259.53 141.707L278.487 130.131C279.108 129.755 279.918 129.931 280.326 130.538C280.76 131.18 280.567 132.058 279.899 132.459L279.649 132.611C282.091 135.792 287.079 136.418 287.079 136.418L288.694 136.823C289.699 137.072 290.512 137.817 290.847 138.802L299.535 164.253Z" fill="#B3D84C"/>
<path d="M290.522 138.135L267.209 151.372C264.885 152.692 262.006 152.799 259.688 151.466C258.696 150.895 257.795 150.061 257.238 148.84C256.089 146.323 257.059 143.301 259.382 141.799C259.431 141.767 259.48 141.736 259.529 141.707L278.486 130.128C279.107 129.754 279.919 129.927 280.322 130.535C280.759 131.178 280.565 132.058 279.893 132.458L279.646 132.61C282.089 135.792 287.077 136.421 287.077 136.421L288.695 136.819C289.455 137.012 290.108 137.486 290.522 138.135Z" fill="#CCEA5C"/>
<path d="M287.079 136.417L265.039 149.004C264.495 149.314 263.865 149.474 263.239 149.44C263.187 149.442 263.126 149.434 263.072 149.43C261.117 149.306 259.982 147.696 259.989 146.065C259.991 144.965 260.514 143.861 261.65 143.194L279.649 132.61C280.75 133.975 282.26 134.866 283.629 135.439C285.481 136.219 287.079 136.417 287.079 136.417Z" fill="#E3E5DC"/>
<path d="M283.63 135.439L264.096 146.598C263.546 146.909 262.922 147.069 262.296 147.035C262.238 147.038 262.183 147.028 262.123 147.026C261.233 146.971 260.51 146.603 259.99 146.065C259.992 144.965 260.515 143.861 261.651 143.194L279.65 132.61C280.75 133.975 282.26 134.866 283.63 135.439Z" fill="#EFEFED"/>
<path d="M275.755 181.266C275.192 181.457 274.6 181.579 274.002 181.632C273.968 181.635 273.927 181.639 273.887 181.643C270.292 181.915 266.972 179.693 265.732 176.31L256.995 152.465C256.537 151.158 256.263 149.993 256.113 148.967C255.775 146.724 256.529 144.496 258.053 142.907C258.229 142.721 258.413 142.545 258.611 142.376L258.616 142.375C258.742 142.266 258.874 142.162 259.008 142.063C258.864 142.17 258.735 142.286 258.607 142.407C258.387 142.604 258.188 142.814 258.01 143.041C256.722 144.652 256.354 146.893 257.238 148.837C257.711 149.881 258.433 150.638 259.246 151.195C259.394 151.292 259.54 151.378 259.686 151.464C261.334 152.414 263.265 152.632 265.075 152.211L274.862 178.829L275.755 181.266Z" fill="#98AF3A"/>
<path d="M274.863 178.83C271.546 178.783 268.575 176.637 267.414 173.475L259.247 151.195C259.395 151.292 259.541 151.378 259.687 151.464C261.335 152.414 263.267 152.632 265.076 152.211L274.863 178.83Z" fill="#A6C142"/>
<path d="M291.912 147.266C291.393 147.439 290.833 147.159 290.66 146.641L290.002 144.668C289.829 144.149 290.11 143.589 290.628 143.416C291.146 143.244 291.706 143.524 291.879 144.042L292.537 146.016C292.71 146.533 292.43 147.093 291.912 147.266Z" fill="#CCEA5C"/>
<path d="M290.451 142.887C289.933 143.059 289.373 142.779 289.2 142.261L289.092 141.937C288.919 141.418 289.199 140.858 289.718 140.685C290.236 140.513 290.796 140.793 290.969 141.311L291.077 141.635C291.25 142.154 290.97 142.714 290.451 142.887Z" fill="#CCEA5C"/>
<path d="M271.993 152.029L285.94 144.075C286.33 143.853 286.825 144.047 286.96 144.475L288.11 148.106C288.209 148.419 288.078 148.76 287.794 148.926L274.011 156.98C273.629 157.203 273.139 157.023 272.992 156.606L271.677 152.875C271.565 152.554 271.698 152.198 271.993 152.029Z" fill="#EFEFED"/>
</g>
<g filter="url(#filter3_d_0_1)">
<path d="M152.024 91.5135C136.073 88.1526 120.397 98.3807 117.036 114.333C116.252 118.058 116.201 121.758 116.8 125.288L135.556 129.24C132.92 126.147 131.709 121.907 132.614 117.615C134.164 110.257 141.384 105.541 148.743 107.091C156.111 108.644 160.825 115.874 159.274 123.232C158.37 127.523 155.552 130.916 151.893 132.681L170.638 136.631C172.61 133.643 174.057 130.237 174.842 126.512C178.202 110.56 167.997 94.8788 152.024 91.5135Z" fill="#468CE4"/>
<path d="M163.341 124.903C162.582 128.506 160.791 131.638 158.33 134.038L151.892 132.681C155.552 130.915 158.37 127.524 159.274 123.233C160.825 115.874 156.111 108.644 148.742 107.092C141.384 105.542 134.164 110.257 132.614 117.616C131.709 121.907 132.919 126.147 135.555 129.24L129.108 127.882C127.824 124.693 127.449 121.105 128.208 117.502C130.251 107.805 139.773 101.598 149.469 103.641C159.176 105.685 165.384 115.206 163.341 124.903Z" fill="#3A81CE"/>
<path d="M181.229 129.961L179.857 136.47C179.623 137.583 178.532 138.294 177.419 138.059L110.018 123.858C108.905 123.624 108.194 122.533 108.428 121.42L109.8 114.912C110.034 113.799 111.125 113.087 112.238 113.322L179.639 127.523C180.752 127.757 181.463 128.848 181.229 129.961Z" fill="#3A81CE"/>
<path d="M181.229 129.961L180.449 133.666C180.214 134.779 179.124 135.491 178.011 135.256L110.61 121.055C109.496 120.82 108.785 119.73 109.02 118.616L109.8 114.911C110.035 113.798 111.125 113.086 112.239 113.321L179.64 127.522C180.753 127.757 181.463 128.848 181.229 129.961Z" fill="#468CE4"/>
<path d="M145.518 94.8295C145.79 96.4877 143.72 98.2061 140.896 98.6675C138.071 99.1289 135.563 98.1591 135.291 96.5009C135.02 94.8427 137.09 93.1244 139.914 92.663C142.738 92.2015 145.247 93.1713 145.518 94.8295Z" fill="#57A4F7"/>
<path d="M134.298 96.3547C134.553 96.9387 133.953 97.7643 132.958 98.1984C131.964 98.6325 130.951 98.5108 130.696 97.9268C130.441 97.3427 131.041 96.5171 132.035 96.083C133.03 95.649 134.043 95.7706 134.298 96.3547Z" fill="#57A4F7"/>
<path d="M112.894 124.465L111.367 124.143L111.823 121.974C111.912 121.552 112.326 121.282 112.748 121.371C113.17 121.459 113.439 121.874 113.351 122.295L112.894 124.465Z" fill="#82AFED"/>
<path d="M119.211 125.796L117.684 125.474L118.141 123.305C118.229 122.883 118.644 122.613 119.065 122.702C119.487 122.791 119.757 123.205 119.668 123.626L119.211 125.796Z" fill="#82AFED"/>
<path d="M125.529 127.127L124.001 126.805L124.458 124.636C124.547 124.214 124.961 123.944 125.383 124.033C125.804 124.122 126.074 124.536 125.986 124.957L125.529 127.127Z" fill="#82AFED"/>
<path d="M131.845 128.458L130.318 128.136L130.775 125.967C130.863 125.545 131.278 125.275 131.699 125.364C132.121 125.453 132.391 125.867 132.302 126.289L131.845 128.458Z" fill="#82AFED"/>
<path d="M138.163 129.789L136.636 129.467L137.093 127.298C137.182 126.876 137.596 126.607 138.018 126.695C138.439 126.784 138.709 127.198 138.62 127.62L138.163 129.789Z" fill="#82AFED"/>
<path d="M144.482 131.12L142.954 130.798L143.411 128.629C143.5 128.207 143.914 127.938 144.336 128.026C144.758 128.115 145.027 128.529 144.939 128.951L144.482 131.12Z" fill="#82AFED"/>
<path d="M150.798 132.45L149.271 132.129L149.728 129.959C149.816 129.538 150.231 129.268 150.652 129.357C151.074 129.445 151.344 129.86 151.255 130.281L150.798 132.45Z" fill="#82AFED"/>
<path d="M157.116 133.781L155.588 133.46L156.045 131.29C156.134 130.869 156.548 130.599 156.97 130.688C157.391 130.776 157.661 131.191 157.572 131.612L157.116 133.781Z" fill="#82AFED"/>
<path d="M163.434 135.113L161.907 134.791L162.363 132.622C162.452 132.2 162.866 131.93 163.288 132.019C163.71 132.108 163.979 132.522 163.891 132.944L163.434 135.113Z" fill="#82AFED"/>
<path d="M169.751 136.444L168.224 136.122L168.681 133.953C168.77 133.531 169.184 133.261 169.605 133.35C170.027 133.439 170.297 133.853 170.208 134.275L169.751 136.444Z" fill="#82AFED"/>
<path d="M176.069 137.775L174.541 137.453L174.998 135.284C175.087 134.862 175.501 134.592 175.923 134.681C176.344 134.77 176.614 135.184 176.526 135.606L176.069 137.775Z" fill="#82AFED"/>
</g>
<g filter="url(#filter4_d_0_1)">
<path d="M174.13 26.3662L131.852 37.1769L116.813 32.4525C117.133 30.4594 116.43 28.9763 115.792 28.0968C115.352 27.4722 114.947 27.1537 114.947 27.1537L124.481 16.4283L167.1 4.00073C174.448 10.4699 175.293 17.7551 174.931 22.2028C174.726 24.7485 174.13 26.3662 174.13 26.3662Z" fill="#DD3C6A"/>
<path d="M174.931 22.202L132.001 33.1824L115.792 28.096C115.352 27.4715 114.947 27.153 114.947 27.153L122.161 19.031L124.481 16.4276L167.1 4C168.547 5.27662 169.738 6.58167 170.717 7.88754C174.732 13.2214 175.222 18.6339 174.931 22.202Z" fill="#F84A76"/>
<path d="M172.646 10.9515C172.121 9.92986 171.483 8.90824 170.717 7.88745L127.808 19.8259C128.588 20.8333 129.397 22.0531 130.106 23.4861C130.006 23.2587 129.893 23.0463 129.787 22.8407L172.646 10.9515Z" fill="#DD3C6A"/>
<path d="M131.859 37.1693L116.807 32.4592C117.126 30.4661 116.43 28.9905 115.799 28.1034L115.792 28.0959C115.735 28.0106 115.686 27.9329 115.621 27.8693C115.564 27.7983 115.515 27.7347 115.465 27.6704C115.21 27.3585 115.003 27.1813 114.954 27.1453C114.947 27.1387 114.947 27.1387 114.947 27.1387L118.643 22.9886L124.481 16.4417C124.481 16.4417 132.426 22.1877 132.27 33.1113C132.256 34.3887 132.129 35.7506 131.859 37.1693Z" fill="#F0B855"/>
<path d="M132.27 33.112L132.001 33.183L115.799 28.1042L115.792 28.0966C115.735 28.0114 115.678 27.9403 115.621 27.8701C115.564 27.799 115.515 27.7355 115.465 27.6711C115.167 27.3308 114.947 27.1536 114.947 27.1536L114.954 27.1461L118.643 22.9893L124.481 16.4424C124.481 16.4424 132.426 22.1876 132.27 33.112Z" fill="#FFCB78"/>
<path d="M174.867 18.2083L131.93 29.0114C131.759 28.0751 131.539 27.1881 131.277 26.3587C130.858 25.0604 130.341 23.8899 129.787 22.8407L172.646 10.9524C173.469 12.5133 174.015 14.0524 174.384 15.5138C174.619 16.4426 174.775 17.3505 174.867 18.2083Z" fill="#E3E5DC"/>
<path d="M174.384 15.5129L131.277 26.3587C130.858 25.0604 130.341 23.8899 129.787 22.8407L172.646 10.9524C173.47 12.5124 174.016 14.0515 174.384 15.5129Z" fill="#EFEFED"/>
<path d="M116.806 32.4592L111.102 32.1615C110.811 32.1398 110.542 32.0127 110.343 31.8138C110.223 31.6934 110.123 31.5512 110.067 31.3807C109.889 30.8774 110.074 30.3097 110.528 30.0121L110.656 29.9268L114.947 27.1387C116.246 28.1812 116.7 29.5147 116.841 30.5789C116.991 31.6507 116.806 32.4592 116.806 32.4592Z" fill="#DD3C6A"/>
<path d="M116.841 30.5797L111.443 30.2887C111.145 30.2745 110.875 30.1466 110.677 29.9485L110.656 29.9276L114.948 27.1394C116.245 28.1819 116.699 29.5154 116.841 30.5797Z" fill="#F84A76"/>
</g>
<g filter="url(#filter5_d_0_1)">
<path d="M63.8347 158.691L63.7185 159.295C63.1988 162.041 61.5391 164.438 59.1428 165.88L40.2257 177.242C38.659 178.181 36.8598 178.693 35.0369 178.639C34.432 178.623 33.7728 178.561 33.0822 178.437C31.0578 178.073 29.2121 177.018 27.8081 175.513L5.64136 151.772C5.64136 151.772 4.5478 150.555 4.13662 148.22C3.86542 146.676 4.00489 145.133 4.49356 143.714C5.29268 141.309 7.06863 139.239 9.44171 138.052L29.4833 128.031C33.2294 126.162 37.7586 126.883 40.7371 129.823L61.0886 149.926C62.7406 151.563 63.7412 153.719 63.9504 155.976C64.0439 156.875 64.0052 157.783 63.8347 158.691Z" fill="#341335"/>
<path d="M63.9515 155.976C63.3078 158.403 61.7256 160.497 59.554 161.808L40.6452 173.171C39.0785 174.109 37.2793 174.621 35.4486 174.567C34.8437 174.551 34.1918 174.489 33.5017 174.365C31.4695 174.001 29.6316 172.946 28.2198 171.442L6.05313 147.7C6.05313 147.7 4.96731 146.483 4.55613 144.148C4.53288 144.001 4.50964 143.861 4.49414 143.714C5.29326 141.309 7.0692 139.239 9.44229 138.052L29.4839 128.031C33.23 126.162 37.7592 126.883 40.7377 129.822L61.0892 149.926C62.7417 151.562 63.7418 153.718 63.9515 155.976Z" fill="#491B49"/>
<path d="M60.4048 155.889L39.0878 168.731C36.8646 170.07 34.0142 169.723 32.1778 167.888L8.42419 144.154C6.59659 142.328 7.08732 139.25 9.39171 138.083L9.44801 138.054L29.4813 128.033C33.229 126.16 37.7541 126.879 40.7403 129.823L61.0913 149.924L61.1259 149.958C62.8714 151.699 62.5165 154.616 60.4048 155.889Z" fill="#632F5C"/>
<path d="M56.3142 153.018L38.3999 163.81C36.5315 164.935 34.1362 164.643 32.5932 163.101L12.6312 143.156C11.0954 141.622 11.5076 139.035 13.4442 138.053L13.4917 138.029L30.327 129.608C33.476 128.034 37.2789 128.638 39.7884 131.113L56.8907 148.004L56.9197 148.033C58.3872 149.497 58.0886 151.948 56.3142 153.018Z" fill="#753B6F"/>
<path d="M35.7187 152.416L28.6067 156.697C28.0018 157.062 27.2182 156.953 26.7372 156.434L21.6806 150.981C21.006 150.252 21.2229 149.073 22.115 148.623L22.6657 148.344L29.5763 144.893C30.1657 144.598 30.8713 144.723 31.3212 145.196L35.7807 149.85L36.0209 150.106C36.6883 150.795 36.5406 151.927 35.7187 152.416Z" fill="#DD3C6A"/>
<path d="M34.6446 150.533L29.3033 153.751C28.6964 154.116 27.9164 154.006 27.4349 153.487L23.6268 149.382C23.1459 148.863 23.2978 148.028 23.9306 147.713L29.5756 144.893C30.165 144.598 30.8706 144.723 31.3205 145.196L34.8631 148.892C35.3332 149.382 35.2268 150.182 34.6446 150.533Z" fill="#F84A76"/>
<path d="M32.0516 149.053C32.0661 149.004 32.0599 148.951 32.0351 148.905L31.6601 148.226C31.6084 148.133 31.4901 148.098 31.3966 148.15L29.9105 148.97L28.7368 147.569C28.7038 147.53 28.6568 147.505 28.6056 147.501C28.5545 147.494 28.5039 147.512 28.4641 147.545L27.8695 148.044C27.7874 148.112 27.7765 148.234 27.8458 148.316L28.8732 149.543L27.543 150.277C27.4981 150.301 27.4645 150.343 27.4501 150.392C27.4356 150.441 27.4418 150.495 27.4666 150.54L27.8416 151.219C27.8767 151.282 27.9434 151.319 28.0111 151.319C28.0431 151.319 28.0751 151.311 28.1046 151.295L29.6336 150.451L30.7432 151.776C30.7762 151.815 30.8232 151.84 30.8744 151.844C30.88 151.845 30.8857 151.845 30.8914 151.845C30.9369 151.845 30.9808 151.829 31.0159 151.799L31.6105 151.301C31.6926 151.232 31.7034 151.11 31.6342 151.028L30.6708 149.878L31.9581 149.168C32.0036 149.144 32.0371 149.103 32.0516 149.053Z" fill="white"/>
<path d="M57.1582 154.791L50.0461 159.072C49.4412 159.437 48.6576 159.328 48.1767 158.809L43.1201 153.356C42.4454 152.628 42.6624 151.448 43.5545 150.998L44.1052 150.719L51.0157 147.268C51.6051 146.973 52.3107 147.097 52.7607 147.57L57.2202 152.224L57.4604 152.48C58.1278 153.17 57.9805 154.302 57.1582 154.791Z" fill="#DD3C6A"/>
<path d="M56.085 152.908L50.7438 156.126C50.1368 156.491 49.3568 156.381 48.8754 155.862L45.0673 151.757C44.5863 151.238 44.7382 150.403 45.371 150.088L51.016 147.268C51.6054 146.973 52.311 147.098 52.7609 147.571L56.303 151.267C56.7736 151.757 56.6672 152.557 56.085 152.908Z" fill="#F84A76"/>
<path d="M53.6833 152.259C53.6528 152.217 53.6074 152.189 53.5562 152.182L51.8443 151.917L52.1951 150.368C52.2064 150.317 52.1971 150.265 52.1703 150.221C52.1429 150.177 52.099 150.146 52.0489 150.135L51.2451 149.953C51.1408 149.931 51.0364 149.996 51.0132 150.099L50.6438 151.731L48.7424 151.438C48.6385 151.421 48.5373 151.494 48.5213 151.6L48.3958 152.414C48.388 152.464 48.4009 152.516 48.4309 152.558C48.4614 152.6 48.5068 152.627 48.558 152.635L50.3763 152.916L50.0141 154.514C50.0028 154.565 50.0121 154.617 50.0389 154.661C50.0663 154.704 50.1102 154.736 50.1603 154.747L50.9641 154.929C50.9786 154.932 50.993 154.933 51.007 154.933C51.0953 154.933 51.1759 154.872 51.196 154.783L51.5767 153.101L53.3718 153.378C53.3816 153.38 53.3919 153.38 53.4018 153.38C53.4958 153.38 53.5784 153.312 53.5929 153.216L53.7184 152.402C53.7262 152.352 53.7132 152.301 53.6833 152.259Z" fill="white"/>
<path d="M48.1836 145.602L41.0715 149.883C40.4666 150.248 39.683 150.139 39.2026 149.62L34.1455 144.167C33.4708 143.439 33.6878 142.259 34.5799 141.81L35.1305 141.531L42.0411 138.079C42.6305 137.784 43.3361 137.909 43.7861 138.382L48.2455 143.036L48.4857 143.292C49.1531 143.981 49.0054 145.113 48.1836 145.602Z" fill="#FC982C"/>
<path d="M47.1114 143.719L41.7701 146.936C41.1632 147.302 40.3832 147.191 39.9017 146.672L36.0936 142.567C35.6127 142.049 35.7646 141.214 36.3974 140.898L42.0424 138.079C42.6318 137.784 43.3374 137.908 43.7873 138.381L47.3299 142.078C47.8 142.568 47.6936 143.368 47.1114 143.719Z" fill="#F0B855"/>
<path d="M44.1169 141.727L43.7527 140.988C43.73 140.942 43.6897 140.906 43.6412 140.89C43.5926 140.873 43.5399 140.877 43.4929 140.899L39.6807 142.779C39.5846 142.827 39.5448 142.943 39.5923 143.039L39.9565 143.778C39.9792 143.825 40.0195 143.86 40.0681 143.876C40.0888 143.882 40.1099 143.886 40.1306 143.886C40.16 143.886 40.1895 143.88 40.2164 143.867L44.0286 141.987C44.1252 141.939 44.1644 141.823 44.1169 141.727Z" fill="white"/>
<path d="M40.7961 141.532C41.1188 141.532 41.3804 141.27 41.3804 140.948C41.3804 140.625 41.1188 140.364 40.7961 140.364C40.4735 140.364 40.2119 140.625 40.2119 140.948C40.2119 141.27 40.4735 141.532 40.7961 141.532Z" fill="white"/>
<path d="M43.6909 143.821C43.6909 144.144 43.4295 144.406 43.1067 144.406C42.7838 144.406 42.5225 144.144 42.5225 143.821C42.5225 143.498 42.7838 143.237 43.1067 143.237C43.4295 143.237 43.6909 143.499 43.6909 143.821Z" fill="white"/>
<path d="M44.0522 161.641L36.9402 165.922C36.3353 166.287 35.5516 166.178 35.0712 165.658L30.0146 160.206C29.34 159.477 29.5569 158.298 30.449 157.848L30.9997 157.569L37.9103 154.118C38.4997 153.823 39.2053 153.947 39.6552 154.42L44.1147 159.074L44.3549 159.33C45.0218 160.02 44.8745 161.152 44.0522 161.641Z" fill="#FC982C"/>
<path d="M42.9786 159.758L37.6373 162.976C37.0304 163.341 36.2504 163.231 35.7689 162.712L31.9608 158.607C31.4799 158.088 31.6318 157.253 32.2646 156.938L37.9096 154.118C38.4989 153.824 39.2046 153.948 39.6545 154.421L43.1971 158.117C43.6672 158.607 43.5607 159.407 42.9786 159.758Z" fill="#F0B855"/>
<path d="M39.4396 157.938L39.0501 157.212C38.9995 157.118 38.8812 157.083 38.7877 157.132L35.9987 158.627C35.9533 158.652 35.9197 158.693 35.9047 158.742C35.8898 158.792 35.8954 158.845 35.9197 158.89L36.3092 159.616C36.3443 159.681 36.411 159.718 36.4802 159.718C36.5112 159.718 36.5427 159.711 36.5716 159.696L39.3605 158.201C39.406 158.176 39.4396 158.134 39.4545 158.085C39.469 158.036 39.4638 157.983 39.4396 157.938Z" fill="white"/>
<path d="M14.9843 140.171L34.0878 130.367C34.6519 130.077 35.3358 130.164 35.8111 130.584L38.9415 133.355C39.7509 134.071 39.5892 135.377 38.6294 135.874L19.2501 145.917C18.6411 146.232 17.8967 146.107 17.4251 145.609L14.5706 142.6C13.8634 141.855 14.0705 140.64 14.9843 140.171Z" fill="white"/>
<path d="M21.6412 136.748L19.5083 145.784L19.2526 145.916C18.64 146.234 17.8956 146.109 17.4225 145.605L16.3057 144.426L17.6317 138.811L21.6412 136.748Z" fill="#EFEFED"/>
<path d="M33.5169 130.66L31.3995 139.618H31.3918L24.9854 142.946L27.1182 133.941L33.5169 130.66Z" fill="#EFEFED"/>
<path d="M37.5263 132.103L36.3553 137.051L35.1455 137.679L36.6503 131.319L37.5263 132.103Z" fill="#EFEFED"/>
</g>
<defs>
<filter id="filter0_d_0_1" x="1" y="10" width="69" height="90.2227" filterUnits="userSpaceOnUse" color-interpolation-filters="sRGB">
<feFlood flood-opacity="0" result="BackgroundImageFix"/>
<feColorMatrix in="SourceAlpha" type="matrix" values="0 0 0 0 0 0 0 0 0 0 0 0 0 0 0 0 0 0 127 0" result="hardAlpha"/>
<feOffset dx="4" dy="4"/>
<feGaussianBlur stdDeviation="4"/>
<feComposite in2="hardAlpha" operator="out"/>
<feColorMatrix type="matrix" values="0 0 0 0 0 0 0 0 0 0 0 0 0 0 0 0 0 0 0.25 0"/>
<feBlend mode="normal" in2="BackgroundImageFix" result="effect1_dropShadow_0_1"/>
<feBlend mode="normal" in="SourceGraphic" in2="effect1_dropShadow_0_1" result="shape"/>
</filter>
<filter id="filter1_d_0_1" x="220" y="29" width="84" height="70.8589" filterUnits="userSpaceOnUse" color-interpolation-filters="sRGB">
<feFlood flood-opacity="0" result="BackgroundImageFix"/>
<feColorMatrix in="SourceAlpha" type="matrix" values="0 0 0 0 0 0 0 0 0 0 0 0 0 0 0 0 0 0 127 0" result="hardAlpha"/>
<feOffset dx="4" dy="4"/>
<feGaussianBlur stdDeviation="4"/>
<feComposite in2="hardAlpha" operator="out"/>
<feColorMatrix type="matrix" values="0 0 0 0 0 0 0 0 0 0 0 0 0 0 0 0 0 0 0.25 0"/>
<feBlend mode="normal" in2="BackgroundImageFix" result="effect1_dropShadow_0_1"/>
<feBlend mode="normal" in="SourceGraphic" in2="effect1_dropShadow_0_1" result="shape"/>
</filter>
<filter id="filter2_d_0_1" x="229" y="122" width="83" height="71.6658" filterUnits="userSpaceOnUse" color-interpolation-filters="sRGB">
<feFlood flood-opacity="0" result="BackgroundImageFix"/>
<feColorMatrix in="SourceAlpha" type="matrix" values="0 0 0 0 0 0 0 0 0 0 0 0 0 0 0 0 0 0 127 0" result="hardAlpha"/>
<feOffset dx="4" dy="4"/>
<feGaussianBlur stdDeviation="4"/>
<feComposite in2="hardAlpha" operator="out"/>
<feColorMatrix type="matrix" values="0 0 0 0 0 0 0 0 0 0 0 0 0 0 0 0 0 0 0.25 0"/>
<feBlend mode="normal" in2="BackgroundImageFix" result="effect1_dropShadow_0_1"/>
<feBlend mode="normal" in="SourceGraphic" in2="effect1_dropShadow_0_1" result="shape"/>
</filter>
<filter id="filter3_d_0_1" x="104.384" y="86.8743" width="88.8906" height="63.23" filterUnits="userSpaceOnUse" color-interpolation-filters="sRGB">
<feFlood flood-opacity="0" result="BackgroundImageFix"/>
<feColorMatrix in="SourceAlpha" type="matrix" values="0 0 0 0 0 0 0 0 0 0 0 0 0 0 0 0 0 0 127 0" result="hardAlpha"/>
<feOffset dx="4" dy="4"/>
<feGaussianBlur stdDeviation="4"/>
<feComposite in2="hardAlpha" operator="out"/>
<feColorMatrix type="matrix" values="0 0 0 0 0 0 0 0 0 0 0 0 0 0 0 0 0 0 0.25 0"/>
<feBlend mode="normal" in2="BackgroundImageFix" result="effect1_dropShadow_0_1"/>
<feBlend mode="normal" in="SourceGraphic" in2="effect1_dropShadow_0_1" result="shape"/>
</filter>
<filter id="filter4_d_0_1" x="106" y="0" width="81" height="49.1768" filterUnits="userSpaceOnUse" color-interpolation-filters="sRGB">
<feFlood flood-opacity="0" result="BackgroundImageFix"/>
<feColorMatrix in="SourceAlpha" type="matrix" values="0 0 0 0 0 0 0 0 0 0 0 0 0 0 0 0 0 0 127 0" result="hardAlpha"/>
<feOffset dx="4" dy="4"/>
<feGaussianBlur stdDeviation="4"/>
<feComposite in2="hardAlpha" operator="out"/>
<feColorMatrix type="matrix" values="0 0 0 0 0 0 0 0 0 0 0 0 0 0 0 0 0 0 0.25 0"/>
<feBlend mode="normal" in2="BackgroundImageFix" result="effect1_dropShadow_0_1"/>
<feBlend mode="normal" in="SourceGraphic" in2="effect1_dropShadow_0_1" result="shape"/>
</filter>
<filter id="filter5_d_0_1" x="0" y="123" width="76" height="67.6426" filterUnits="userSpaceOnUse" color-interpolation-filters="sRGB">
<feFlood flood-opacity="0" result="BackgroundImageFix"/>
<feColorMatrix in="SourceAlpha" type="matrix" values="0 0 0 0 0 0 0 0 0 0 0 0 0 0 0 0 0 0 127 0" result="hardAlpha"/>
<feOffset dx="4" dy="4"/>
<feGaussianBlur stdDeviation="4"/>
<feComposite in2="hardAlpha" operator="out"/>
<feColorMatrix type="matrix" values="0 0 0 0 0 0 0 0 0 0 0 0 0 0 0 0 0 0 0.25 0"/>
<feBlend mode="normal" in2="BackgroundImageFix" result="effect1_dropShadow_0_1"/>
<feBlend mode="normal" in="SourceGraphic" in2="effect1_dropShadow_0_1" result="shape"/>
</filter>
</defs>
</svg>
