<svg width="52" height="32" viewBox="0 0 52 32" fill="none" xmlns="http://www.w3.org/2000/svg">
<path d="M14.6102 7.13025V24.8711H4.49595C2.24221 24.8711 0.416992 23.0467 0.416992 20.7922V11.2084C0.416992 9.15708 1.93405 7.45758 3.90798 7.17395C4.1004 7.14329 4.29664 7.13025 4.49595 7.13025H14.6102Z" fill="#D811AD"/>
<path d="M30.4803 0.796799L14.4512 7.095V24.9141L30.4803 31.2031C31.7022 31.6829 33.0161 30.786 33.0161 29.476V2.5285C33.0161 1.21842 31.7015 0.316922 30.4803 0.796799Z" fill="#FF8CDB"/>
<path d="M3.90785 7.17467C1.93621 7.45677 0.419922 9.15858 0.419922 11.2099V20.7937C0.419922 23.0474 2.24438 24.8711 4.49734 24.8711H6.38849V7.12793H4.49734C4.29957 7.12793 4.10103 7.14477 3.90785 7.17467Z" fill="#FF8CDB"/>
<path opacity="0.5" d="M17.5096 9.34951C18.477 8.77457 19.4759 8.27554 20.4847 7.80409C21.492 7.32728 22.5169 6.89647 23.5457 6.47332C24.5805 6.06474 25.6185 5.66688 26.6748 5.31349C27.7296 4.9555 28.7944 4.62433 29.8906 4.37059C30.1122 4.31923 30.3337 4.45722 30.3851 4.67876C30.4265 4.85814 30.3437 5.03751 30.1934 5.12643C29.2245 5.6983 28.2248 6.19352 27.2145 6.6619C26.2057 7.13488 25.1792 7.56186 24.1482 7.97964C23.1118 8.38286 22.0723 8.77766 21.0137 9.12722C19.9573 9.48137 18.891 9.80869 17.7933 10.0601C17.5848 10.1077 17.3762 9.97733 17.3287 9.76882C17.2912 9.60094 17.3693 9.43306 17.5096 9.34951Z" fill="white"/>
<path opacity="0.25" d="M14.4506 20.8443V24.8719H6.3877V20.6343C6.72882 20.7439 7.09985 20.8029 7.47854 20.8029H13.9071C14.0887 20.8022 14.2742 20.8152 14.4506 20.8443Z" fill="#0A1640"/>
<g opacity="0.5">
<path d="M3.90785 17.2299V7.17468C1.93621 7.45678 0.419922 9.15859 0.419922 11.2099V20.7937C0.419922 23.0474 2.24438 24.8711 4.49734 24.8711H6.38849V20.6335C4.94809 20.1705 3.90785 18.8221 3.90785 17.2299Z" fill="#D811AD"/>
<path d="M14.974 20.9662C14.8559 20.9286 14.734 20.8987 14.6114 20.8734C14.5608 20.8604 14.5064 20.8527 14.4512 20.8435V24.9125L30.4803 31.2015C31.7022 31.6814 33.0161 30.7845 33.0161 29.4744V26.6059L14.974 20.9662Z" fill="#D811AD"/>
</g>
<path d="M32.4385 0.644257C31.8175 0.221107 31.028 0.13294 30.3265 0.408141L14.2982 6.70557C14.2944 6.7071 14.2928 6.71094 14.2898 6.71247H6.39938C6.39555 6.71247 6.39248 6.71018 6.38865 6.71018H4.4975C4.32119 6.71018 4.13492 6.72934 3.94864 6.75311C3.91721 6.75694 3.88041 6.75541 3.84898 6.76078C3.59524 6.79757 3.34994 6.85965 3.1123 6.93708C2.5803 7.10956 2.09045 7.37556 1.6673 7.72052C0.646215 8.55302 0 9.82019 0 11.2085V20.7922C0 23.2713 2.01686 25.2882 4.49597 25.2882H4.49674H6.38788H14.2821C14.289 25.2912 14.2921 25.2989 14.299 25.3012L30.3273 31.591C30.5971 31.6968 30.8808 31.7496 31.1621 31.7496C31.6121 31.7496 32.0582 31.6163 32.4408 31.3556C33.0625 30.9325 33.4335 30.2288 33.4335 29.4752V2.52774C33.4335 1.77266 33.0617 1.06894 32.4385 0.644257ZM14.0337 24.4541H6.80566V7.54804H14.0337V24.4541ZM4.49674 24.4541C2.47834 24.4541 0.836326 22.8121 0.836326 20.7937V11.21C0.836326 10.1329 1.32004 9.15327 2.08201 8.47638C2.54119 8.06933 3.10156 7.78109 3.72632 7.6454C3.80835 7.62777 3.88501 7.59942 3.96857 7.58715C4.0092 7.58102 4.04522 7.58253 4.08508 7.57793C4.2177 7.56184 4.34956 7.54804 4.49521 7.54804H5.9701V24.4541H4.49674ZM32.5987 29.476C32.5987 29.9605 32.3702 30.3943 31.9709 30.6665C31.5715 30.9386 31.0839 30.9923 30.6324 30.8152L15.028 24.6925V7.3173L30.6324 1.18623C31.0832 1.00838 31.5699 1.06358 31.9685 1.33494C32.3687 1.60785 32.5987 2.0425 32.5987 2.52851V29.476Z" fill="#0A1640"/>
<path d="M45.6319 0.438741C45.4709 0.273927 45.2065 0.272384 45.0417 0.434132C44.8768 0.59588 44.8753 0.859597 45.0363 1.02441C48.988 5.04357 51.1643 10.3628 51.1643 16.001C51.1643 21.64 48.988 26.9592 45.0363 30.9784C44.8746 31.1432 44.8768 31.4069 45.0417 31.5687C45.1229 31.6492 45.2287 31.689 45.3345 31.689C45.4426 31.689 45.5507 31.6476 45.6319 31.5641C49.7385 27.3878 51.9999 21.8607 51.9999 16.0018C51.9999 10.1413 49.7385 4.61505 45.6319 0.438741Z" fill="#0A1640"/>
<path d="M41.8975 3.86311C41.7342 3.7006 41.4698 3.70135 41.3072 3.86463C41.1447 4.02792 41.1447 4.2924 41.3088 4.45491C44.3981 7.53119 46.0999 11.6316 46.0999 16.0011C46.0999 20.3713 44.3988 24.4718 41.3088 27.5473C41.1455 27.7098 41.1447 27.9742 41.3072 28.1375C41.3885 28.2196 41.4958 28.261 41.6031 28.261C41.7097 28.261 41.8163 28.2203 41.8975 28.1391C45.1455 24.9049 46.9339 20.5944 46.9339 16.0011C46.9339 11.4078 45.1455 7.09654 41.8975 3.86311Z" fill="#0A1640"/>
<path d="M37.6567 7.73285C37.4896 7.57417 37.2251 7.58107 37.0664 7.74895C36.9078 7.91683 36.9154 8.18052 37.0825 8.3392C39.1738 10.3193 40.3734 13.1111 40.3734 16.0011C40.3734 18.8904 39.1738 21.683 37.0825 23.6631C36.9154 23.8218 36.9078 24.0855 37.0664 24.2533C37.1485 24.34 37.2589 24.3837 37.3692 24.3837C37.472 24.3837 37.5754 24.3453 37.6559 24.2687C39.9127 22.1315 41.2075 19.118 41.2075 16.0004C41.2075 12.8827 39.9135 9.8693 37.6567 7.73285Z" fill="#0A1640"/>
</svg>
