<svg width="80" height="80" viewBox="0 0 80 80" fill="none" xmlns="http://www.w3.org/2000/svg">
<rect width="80" height="80" rx="20" fill="#0B9FD9"/>
<path d="M28.6099 31.1302V48.8711H18.4957C16.242 48.8711 14.4167 47.0467 14.4167 44.7922V35.2084C14.4167 33.1571 15.9338 31.4576 17.9077 31.1739C18.1002 31.1433 18.2964 31.1302 18.4957 31.1302H28.6099Z" fill="#D811AD"/>
<path d="M44.4797 24.7968L28.4506 31.095V48.9141L44.4797 55.2031C45.7016 55.6829 47.0155 54.786 47.0155 53.476V26.5285C47.0155 25.2184 45.7008 24.3169 44.4797 24.7968Z" fill="#FF8CDB"/>
<path d="M17.9072 31.1747C15.9356 31.4568 14.4193 33.1586 14.4193 35.2099V44.7937C14.4193 47.0474 16.2438 48.8711 18.4967 48.8711H20.3879V31.1279H18.4967C18.299 31.1279 18.1004 31.1448 17.9072 31.1747Z" fill="#FF8CDB"/>
<path opacity="0.5" d="M31.5091 33.3495C32.4766 32.7746 33.4754 32.2755 34.4842 31.8041C35.4915 31.3273 36.5164 30.8965 37.5452 30.4733C38.5801 30.0647 39.618 29.6669 40.6743 29.3135C41.7292 28.9555 42.7939 28.6243 43.8901 28.3706C44.1117 28.3192 44.3332 28.4572 44.3846 28.6788C44.426 28.8581 44.3432 29.0375 44.1929 29.1264C43.224 29.6983 42.2244 30.1935 41.214 30.6619C40.2052 31.1349 39.1787 31.5619 38.1477 31.9796C37.1113 32.3829 36.0718 32.7777 35.0132 33.1272C33.9568 33.4814 32.8905 33.8087 31.7928 34.0601C31.5843 34.1077 31.3758 33.9773 31.3282 33.7688C31.2907 33.6009 31.3689 33.4331 31.5091 33.3495Z" fill="white"/>
<path opacity="0.25" d="M28.4506 44.8443V48.8719H20.3877V44.6343C20.7288 44.7439 21.0998 44.8029 21.4785 44.8029H27.9071C28.0887 44.8022 28.2742 44.8152 28.4506 44.8443Z" fill="#0A1640"/>
<g opacity="0.5">
<path d="M17.9072 41.2299V31.1747C15.9356 31.4568 14.4193 33.1586 14.4193 35.2099V44.7937C14.4193 47.0474 16.2438 48.8711 18.4967 48.8711H20.3879V44.6335C18.9475 44.1705 17.9072 42.8221 17.9072 41.2299Z" fill="#D811AD"/>
<path d="M28.9732 44.9662C28.8552 44.9286 28.7333 44.8987 28.6107 44.8734C28.5601 44.8604 28.5056 44.8527 28.4504 44.8435V48.9125L44.4796 55.2015C45.7015 55.6814 47.0154 54.7845 47.0154 53.4744V50.6059L28.9732 44.9662Z" fill="#D811AD"/>
</g>
<path d="M46.4382 24.6443C45.8173 24.2211 45.0277 24.1329 44.3263 24.4081L28.2979 30.7056C28.2941 30.7071 28.2926 30.7109 28.2895 30.7125H20.3991C20.3953 30.7125 20.3922 30.7102 20.3884 30.7102H18.4973C18.3209 30.7102 18.1347 30.7293 17.9484 30.7531C17.917 30.7569 17.8802 30.7554 17.8487 30.7608C17.595 30.7976 17.3497 30.8597 17.1121 30.9371C16.5801 31.1096 16.0902 31.3756 15.6671 31.7205C14.646 32.553 13.9998 33.8202 13.9998 35.2085V44.7922C13.9998 47.2713 16.0166 49.2882 18.4957 49.2882H18.4965H20.3876H28.2818C28.2887 49.2912 28.2918 49.2989 28.2987 49.3012L44.3271 55.591C44.5969 55.6968 44.8805 55.7496 45.1619 55.7496C45.6119 55.7496 46.058 55.6163 46.4405 55.3556C47.0622 54.9325 47.4332 54.2288 47.4332 53.4752V26.5277C47.4332 25.7727 47.0614 25.0689 46.4382 24.6443ZM28.0335 48.4541H20.8054V31.548H28.0335V48.4541ZM18.4965 48.4541C16.4781 48.4541 14.8361 46.8121 14.8361 44.7937V35.21C14.8361 34.1329 15.3198 33.1533 16.0818 32.4764C16.5409 32.0693 17.1013 31.7811 17.7261 31.6454C17.8081 31.6278 17.8848 31.5994 17.9683 31.5872C18.009 31.581 18.045 31.5825 18.0848 31.5779C18.2175 31.5618 18.3493 31.548 18.495 31.548H19.9699V48.4541H18.4965ZM46.5984 53.476C46.5984 53.9605 46.37 54.3943 45.9706 54.6665C45.5712 54.9386 45.0837 54.9923 44.6322 54.8152L29.0277 48.6925V31.3173L44.6322 25.1862C45.0829 25.0084 45.5697 25.0636 45.9683 25.3349C46.3685 25.6078 46.5984 26.0425 46.5984 26.5285V53.476Z" fill="#0A1640"/>
<path d="M59.6318 24.4387C59.4708 24.2739 59.2064 24.2724 59.0415 24.4341C58.8767 24.5959 58.8752 24.8596 59.0362 25.0244C62.9879 29.0436 65.1642 34.3628 65.1642 40.001C65.1642 45.64 62.9879 50.9592 59.0362 54.9784C58.8744 55.1432 58.8767 55.4069 59.0415 55.5687C59.1228 55.6492 59.2286 55.689 59.3344 55.689C59.4425 55.689 59.5505 55.6476 59.6318 55.5641C63.7384 51.3878 65.9998 45.8607 65.9998 40.0018C65.9998 34.1413 63.7384 28.6151 59.6318 24.4387Z" fill="#0A1640"/>
<path d="M55.8973 27.8631C55.734 27.7006 55.4695 27.7014 55.307 27.8646C55.1445 28.0279 55.1445 28.2924 55.3085 28.4549C58.3978 31.5312 60.0996 35.6316 60.0996 40.0011C60.0996 44.3713 58.3986 48.4718 55.3085 51.5473C55.1452 51.7098 55.1445 51.9742 55.307 52.1375C55.3883 52.2196 55.4956 52.261 55.6029 52.261C55.7095 52.261 55.816 52.2203 55.8973 52.1391C59.1453 48.9049 60.9337 44.5944 60.9337 40.0011C60.9337 35.4078 59.1453 31.0965 55.8973 27.8631Z" fill="#0A1640"/>
<path d="M51.6565 31.7329C51.4893 31.5742 51.2249 31.5811 51.0662 31.7489C50.9075 31.9168 50.9152 32.1805 51.0823 32.3392C53.1735 34.3193 54.3732 37.1111 54.3732 40.0011C54.3732 42.8904 53.1735 45.683 51.0823 47.6631C50.9152 47.8218 50.9075 48.0855 51.0662 48.2533C51.1482 48.34 51.2586 48.3837 51.369 48.3837C51.4717 48.3837 51.5752 48.3453 51.6557 48.2687C53.9125 46.1315 55.2072 43.118 55.2072 40.0004C55.2072 36.8827 53.9133 33.8693 51.6565 31.7329Z" fill="#0A1640"/>
</svg>
