<svg width="78" height="71" viewBox="0 0 78 71" fill="none" xmlns="http://www.w3.org/2000/svg">
<path d="M69.8534 95.7316C70.0584 100.557 59.8645 104.945 47.0872 105.537C35.9675 106.052 26.5618 103.522 24.1619 99.6803C23.8071 99.105 23.6061 98.5014 23.5793 97.8733C23.5687 97.6307 23.8422 95.9163 24.2185 93.7378C24.9804 89.3484 26.1404 83.0432 26.149 82.9947C26.9644 77.234 39.5211 75.0778 45.7823 74.7883C56.3223 74.3006 65.0696 76.9923 65.9585 80.8667C65.9643 80.8875 66.2798 82.0408 66.7335 83.7003C67.3455 85.9498 68.2104 89.133 68.8718 91.6654C69.4251 93.7958 69.8417 95.4576 69.8534 95.7316Z" fill="#E38921"/>
<path d="M60.0734 75.585C56.2035 74.324 51.1171 73.7662 45.7496 74.0145C34.6767 74.5276 26.0688 78.2345 25.7191 82.5483C25.5363 83.4003 24.2145 90.7535 23.7127 93.6552C23.0481 97.4967 23.0606 97.7986 23.065 97.8983C23.2847 103.081 33.8467 106.661 47.109 106.048C51.4183 105.849 55.5335 105.219 59.1027 104.231C60.7036 103.787 62.1958 103.271 63.5445 102.691C68.054 100.749 70.4783 98.2689 70.3692 95.7083C70.3592 95.468 70.1853 94.6669 69.3707 91.5358L69.3705 91.5352C68.6958 88.9617 66.5466 81.0253 66.3927 80.5214C65.9726 78.5248 63.763 76.7874 60.0734 75.585ZM26.739 82.9172C26.7357 82.8371 26.7418 82.7569 26.7465 82.6764C27.4297 80.0099 31.1476 78.1196 35.4968 76.9157C38.9428 75.9617 42.78 75.4379 45.8043 75.2973C55.6665 74.8409 64.3613 77.3091 65.4038 80.8026C65.4235 80.91 65.4356 81.0175 65.4405 81.1259C65.6006 84.9129 56.8742 88.523 46.3864 89.0087C35.8972 89.4935 26.8997 86.7041 26.739 82.9172ZM69.3407 95.7556C69.4288 97.8316 67.1677 100.018 63.1378 101.753C58.8935 103.582 53.1866 104.743 47.0653 105.027C34.8017 105.594 24.2818 102.308 24.0922 97.8576C24.0926 97.7933 24.1253 97.2983 24.7261 93.8233C25.2366 90.8718 25.9348 87.0241 26.3381 84.8183C28.5887 88.2753 36.6545 90.4808 46.4281 90.029C50.2401 89.8523 53.7588 89.2976 56.75 88.4696C61.4343 87.1728 64.8133 85.205 65.9982 82.9747C66.6131 85.2258 67.6171 88.9139 68.3728 91.7958C68.9984 94.1967 69.3234 95.5298 69.3407 95.7556Z" fill="#0A1640"/>
<path d="M42.4836 37.5323C42.4883 37.5266 42.4882 37.5216 42.4784 37.5275L42.4524 37.5446C42.4315 37.551 42.4055 37.5682 42.369 37.5908C42.3015 37.6307 42.2341 37.6711 42.1511 37.7277C42.0008 37.8298 41.8356 37.9484 41.6755 38.0718C41.345 38.3197 41.0105 38.5943 40.682 38.879C40.0198 39.4592 39.3922 40.1009 38.792 40.7736C37.6147 42.1388 36.5653 43.6456 35.7609 45.279C35.4664 45.8683 35.1996 46.478 34.9649 47.1019C33.8805 49.9107 33.3519 53.0104 33.4724 56.239L33.4878 56.978C33.4985 57.2256 33.5302 57.4785 33.5514 57.7256C33.6047 58.2199 33.6307 58.7205 33.6949 59.2249C33.865 60.2209 33.9825 61.2358 34.2437 62.2383C34.6598 64.2591 35.3413 66.2668 36.0711 68.2787C37.6041 72.277 39.6977 76.175 42.0883 79.9378L42.1056 79.9685C43.0704 81.4985 42.6078 83.5176 41.0669 84.4819C39.6403 85.3778 37.7893 85.0564 36.7557 83.7886C35.5875 82.3685 34.4548 80.9038 33.3682 79.3902C31.6197 76.9662 29.9941 74.4204 28.558 71.7124C27.4258 69.4979 26.3336 67.2282 25.5059 64.7992C25.0454 63.6101 24.7203 62.3517 24.3583 61.1054C24.1936 60.4787 24.0698 59.8294 23.9259 59.1913C23.8586 58.8666 23.7811 58.5479 23.725 58.2226L23.5821 57.2409C22.7317 52.0118 23.1236 46.3129 24.9961 40.9943C25.9164 38.3306 27.2252 35.7968 28.8024 33.4305C29.6045 32.252 30.4666 31.113 31.427 30.0272C31.9096 29.4817 32.4091 28.9515 32.9513 28.4238C33.2221 28.1576 33.4937 27.8967 33.7962 27.6292C33.9343 27.5012 34.0992 27.3615 34.2638 27.2268L34.5258 27.0085L34.6701 26.8963L34.8972 26.7219C37.9243 24.6477 42.0627 25.3913 44.144 28.3867C46.2163 31.3672 45.4679 35.4444 42.4836 37.5323Z" fill="#E38921"/>
<path d="M35.0364 7.56885L45.6326 16.7398C45.8783 16.9528 46.2149 17.031 46.5319 16.9501L60.1906 13.452C60.989 13.2478 61.6726 14.0393 61.3478 14.7915L55.7882 27.6664C55.6591 27.9651 55.6865 28.3071 55.8604 28.5811L63.3746 40.3773C63.8136 41.0664 63.2634 41.9602 62.4435 41.8893L48.4115 40.6755C48.0856 40.6474 47.7665 40.7799 47.5573 41.0304L38.5426 51.8192C38.0156 52.4498 36.992 52.2104 36.8099 51.4141L33.6969 37.7889C33.6246 37.4731 33.4005 37.213 33.0966 37.094L20.0113 31.9655C19.2468 31.6656 19.1641 30.6242 19.8717 30.2034L31.9799 22.9959C32.2611 22.8284 32.4415 22.5354 32.4631 22.2117L33.3904 8.2532C33.4449 7.43743 34.4173 7.03304 35.0364 7.56885Z" fill="#FFCE00"/>
<path opacity="0.65" d="M36.8825 12.5749L44.7738 19.4047C44.9572 19.5633 45.2073 19.6218 45.4433 19.5615L55.6158 16.9561C56.2105 16.804 56.7193 17.3934 56.4778 17.9537L52.3375 27.5421C52.2412 27.7644 52.2615 28.0192 52.3915 28.2232L57.9879 37.0086C58.3148 37.5218 57.905 38.1874 57.2944 38.1346L46.8439 37.231C46.6012 37.2103 46.3631 37.3086 46.2075 37.4956L39.4936 45.5309C39.1012 46.0003 38.339 45.8218 38.2031 45.2289L35.8851 35.0817C35.8312 34.8461 35.6639 34.6526 35.4381 34.5637L25.6927 30.7438C25.1231 30.5208 25.0617 29.7452 25.5889 29.4311L34.6065 24.0636C34.8159 23.939 34.9503 23.7205 34.9664 23.4792L35.6573 13.0836C35.6968 12.4769 36.4213 12.1761 36.8825 12.5749Z" fill="#E38921"/>
<path d="M34.7763 35.0165C35.373 33.4569 37.5439 32.5519 39.1304 32.79C40.7017 33.0255 41.2618 34.6899 39.5246 36.0125C37.1454 37.8251 34.0026 37.0402 34.7763 35.0165Z" fill="#D811AD"/>
<path d="M53.3585 27.7941C51.8616 27.0483 49.6493 27.847 48.6421 29.0929C47.6453 30.3265 48.3612 31.9297 50.5381 31.7321C53.5193 31.4608 55.3004 28.762 53.3585 27.7941Z" fill="#D811AD"/>
<path opacity="0.5" d="M30.5058 40.6707C27.5218 47.279 28.0625 54.7977 28.0634 53.7338C28.4201 58.6441 28.6784 59.9565 28.6732 59.9037C28.7251 60.4433 27.9526 60.6204 27.7679 60.1076C24.806 51.8946 26.6413 44.2228 29.7749 40.1901C30.0914 39.7822 30.7354 40.1628 30.5234 40.6321L30.5058 40.6707Z" fill="white"/>
<g opacity="0.5">
<path d="M41.0715 84.4813C39.6449 85.3772 37.794 85.0559 36.7603 83.788C35.5922 82.368 34.4594 80.9033 33.3728 79.3896C33.7264 73.2801 31.621 64.8431 30.683 60.8121C29.4403 55.501 30.0205 49.5923 34.969 47.1015C33.8846 49.9103 33.3559 53.0101 33.4765 56.2386L33.4919 56.9777C33.5026 57.2252 33.5342 57.4781 33.5555 57.7252C33.6087 58.2196 33.6348 58.7202 33.699 59.2246C33.8691 60.2205 33.9866 61.2354 34.2477 62.238C34.6638 64.2587 35.3453 66.2665 36.0751 68.2783C37.6081 72.2766 39.7017 76.1746 42.0923 79.9374L42.1097 79.9682C43.075 81.4979 42.6124 83.517 41.0715 84.4813Z" fill="#CF521D"/>
</g>
<path d="M61.8199 14.9903C62.0442 14.4609 61.954 13.8627 61.5769 13.4313C61.2039 12.9924 60.6211 12.8173 60.0633 12.9592L46.403 16.4541C46.2512 16.4961 46.0903 16.4596 45.9675 16.3566L35.3753 7.182C34.9393 6.81045 34.3391 6.70868 33.8036 6.93167C33.2682 7.15466 32.9153 7.65113 32.8727 8.22372L31.9466 22.1819C31.9383 22.3337 31.852 22.476 31.7172 22.5569L19.607 29.7662C19.1099 30.0596 18.8314 30.5978 18.8769 31.1709C18.9224 31.744 19.2832 32.2298 19.8199 32.4427L27.061 35.2796C26.013 37.1025 25.1583 38.9654 24.5107 40.827C22.6672 46.0666 22.1727 51.7739 23.073 57.3195L23.2221 58.3125C23.2581 58.5331 23.3057 58.7505 23.3533 58.9678L23.4271 59.3026C23.4731 59.5141 23.5174 59.7199 23.5634 59.9315C23.6586 60.3663 23.7496 60.8084 23.8655 61.2499L24.062 61.9369C24.3482 62.9481 24.6446 63.9939 25.0204 64.9678C25.8649 67.4507 26.997 69.7917 28.1043 71.9526C30.2293 75.9503 32.9326 79.925 36.3546 84.112C37.3309 85.2998 38.897 85.7573 40.3275 85.3613C40.6778 85.2643 41.0195 85.1137 41.341 84.9125C42.2041 84.3745 42.8002 83.5303 43.0302 82.5445C43.2543 81.5603 43.0812 80.5489 42.5234 79.669C39.9213 75.5603 37.9687 71.7766 36.5547 68.0992C35.9052 66.2976 35.1739 64.2008 34.7452 62.1075C34.5583 61.3866 34.4381 60.6348 34.3303 59.9045C34.2906 59.6476 34.2509 59.3906 34.2101 59.1526C34.1651 58.8536 34.145 58.5538 34.1174 58.2499C34.1012 58.055 34.0865 57.8659 34.0677 57.6842L34.0375 57.3935C34.0224 57.2481 34.0073 57.1027 34.0012 56.9673L33.9884 56.217C33.8774 53.1821 34.3523 50.1969 35.375 47.465L36.3059 51.5316C36.4347 52.0878 36.8618 52.5179 37.4259 52.6484C37.6814 52.7085 37.9368 52.7001 38.1762 52.6339C38.4682 52.553 38.736 52.3854 38.9332 52.1439L47.9527 41.3538C48.0512 41.233 48.2041 41.172 48.3645 41.1837L62.3915 42.3976C62.9715 42.4489 63.5175 42.1732 63.8162 41.6855C64.1192 41.1904 64.1156 40.587 63.8063 40.1056L56.2915 28.3095C56.2106 28.1762 56.1965 28.0118 56.2563 27.8644L61.8199 14.9903ZM32.9609 56.2521L32.9738 57.0025C32.982 57.1685 32.9961 57.3328 33.0176 57.5013L33.0387 57.7821C33.0592 57.9696 33.0722 58.1529 33.0927 58.3404C33.1176 58.6575 33.1425 58.9746 33.1914 59.3101C33.2295 59.5612 33.2734 59.8107 33.3131 60.0677C33.4258 60.8154 33.5465 61.592 33.7415 62.3418C34.1754 64.4772 34.9238 66.6129 35.592 68.4592C37.0311 72.2044 39.013 76.0486 41.6715 80.2475C42.0691 80.8665 42.1918 81.6051 42.0262 82.3239C41.8606 83.0427 41.4208 83.6567 40.7938 84.0483C39.5991 84.7965 38.0407 84.5488 37.1565 83.4664C33.7738 79.3308 31.11 75.4074 29.0175 71.4817C27.933 69.3581 26.8196 67.0618 25.9922 64.6178C25.6222 63.6672 25.3328 62.6444 25.053 61.6564L24.8581 60.9751C24.7502 60.5626 24.664 60.1378 24.572 59.7146C24.526 59.503 24.48 59.2915 24.4356 59.0857L24.3602 58.7451C24.3174 58.5451 24.2731 58.3394 24.2393 58.1493L24.0901 57.1563C23.2156 51.7718 23.6966 46.2427 25.4819 41.1563C26.121 39.3095 26.9747 37.4656 28.0201 35.6559L32.9057 37.5684C33.0481 37.6287 33.1583 37.754 33.1941 37.9061L34.9809 45.7235C33.5214 48.9439 32.8213 52.5709 32.9609 56.2521ZM55.4236 28.8551L62.9384 40.6511C63.039 40.8102 63.0403 40.9968 62.9397 41.1555C62.8449 41.3126 62.6735 41.3974 62.4865 41.3806L48.4536 40.1683C47.9634 40.1233 47.4789 40.326 47.1572 40.7079L38.1436 51.4964C38.0249 51.6352 37.8471 51.6969 37.6654 51.6537C37.4837 51.6105 37.3529 51.4785 37.3091 51.2975L36.0643 45.8473L35.705 44.2769L34.1973 37.672C34.085 37.1984 33.7483 36.7994 33.2844 36.6224L28.5528 34.7669L27.5879 34.3922L20.197 31.4909C20.0264 31.4197 19.9157 31.2696 19.8968 31.0879C19.8844 30.9044 19.9702 30.7374 20.1319 30.6428L32.2421 23.4335C32.6682 23.1785 32.9415 22.7352 32.9741 22.2401L33.9018 8.28776C33.9121 8.09797 34.0218 7.94922 34.1964 7.87597C34.2123 7.86533 34.2357 7.85886 34.2532 7.85401C34.4108 7.81037 34.5718 7.84682 34.6962 7.95569L45.2926 17.1228C45.6659 17.4494 46.1769 17.5697 46.6573 17.4429L60.3175 13.9481C60.4927 13.8996 60.6776 13.9544 60.7983 14.0954C60.9191 14.2364 60.9454 14.4223 60.8729 14.5919L55.3094 27.4661C55.1147 27.9188 55.1591 28.4423 55.4236 28.8551Z" fill="#0A1640"/>
<path d="M45.6359 27.5597C45.3716 27.6652 45.2421 27.9628 45.3472 28.2241C45.8289 29.4285 45.6474 31.0595 44.3619 31.7113C43.6987 32.0451 43.0957 31.931 42.7028 31.7762C41.9447 31.4789 41.2652 30.7566 40.9719 29.9356C40.877 29.6702 40.5835 29.5228 40.3152 29.6276C40.0468 29.7231 39.9071 30.0154 40.0019 30.2807C40.3961 31.3823 41.2846 32.3189 42.3202 32.7264C42.9655 32.9796 43.622 33.019 44.2496 32.8453C44.4452 32.7912 44.6381 32.7159 44.8268 32.6207C46.6569 31.6929 46.954 29.4666 46.3035 27.8434C46.1995 27.5812 45.8977 27.4561 45.6359 27.5597Z" fill="#0A1640"/>
<path d="M49.7852 23.5052C49.5207 23.6102 49.3911 23.9071 49.4955 24.1686C49.7725 24.8627 49.7139 25.7612 49.1362 26.0632C48.9344 26.1701 48.7198 26.176 48.4836 26.0856C48.0637 25.9245 47.6579 25.4736 47.4742 24.9643C47.3788 24.6991 47.0823 24.5637 46.8162 24.6585C46.5488 24.755 46.4098 25.0477 46.5052 25.3129C46.7919 26.1077 47.4067 26.7688 48.1087 27.0386C48.4963 27.1874 48.8868 27.2108 49.2564 27.1085C49.3779 27.0749 49.4968 27.0276 49.6128 26.9674C50.7457 26.3753 50.8914 24.8875 50.4529 23.7895C50.3491 23.5279 50.0524 23.3963 49.7852 23.5052Z" fill="#0A1640"/>
<path d="M37.4678 28.2933C37.2051 28.4028 37.0811 28.7019 37.1908 28.9619C37.4009 29.462 37.4075 30.0671 37.2076 30.4689C37.0967 30.6927 36.9374 30.8303 36.7202 30.8904C36.7178 30.8911 36.7149 30.8919 36.712 30.8927C36.0814 31.0604 35.4284 30.4386 35.1622 29.7403C35.0609 29.4767 34.7709 29.3532 34.4981 29.4462C34.2326 29.5477 34.0981 29.8429 34.1987 30.1067C34.6215 31.2115 35.7373 32.2086 36.9737 31.8789C36.9801 31.8771 36.9861 31.8761 36.9931 31.8741C37.4945 31.7347 37.8878 31.4046 38.1295 30.9177C38.4634 30.2459 38.4672 29.3444 38.1396 28.5653C38.0318 28.3054 37.7313 28.1848 37.4678 28.2933Z" fill="#0A1640"/>
<path d="M54.5141 44.9871L54.6564 45.0836L54.7477 45.1499L54.9217 45.2787L55.2316 45.5194C55.4266 45.6767 55.6197 45.8338 55.7996 45.9909C56.1676 46.3052 56.5142 46.6218 56.8496 46.9476C57.5211 47.5979 58.1556 48.2685 58.7465 48.9772C59.9387 50.3819 60.9829 51.9147 61.8503 53.5564C63.5943 56.8271 64.5593 60.5833 64.5052 64.2596C64.4766 66.0956 64.2216 67.8928 63.8095 69.6194C63.5576 70.4649 63.3535 71.3283 63.0289 72.1335C62.8763 72.5408 62.7306 72.95 62.5714 73.3512L62.0433 74.5248C60.607 77.6341 58.7169 80.3843 56.6401 82.887C55.8053 83.8932 54.31 84.0411 53.3005 83.2171C52.3701 82.4584 52.1763 81.1406 52.8031 80.1508L52.8133 80.1355C54.386 77.6464 55.6913 75.0407 56.5079 72.3952L56.8068 71.4065L57.0343 70.4139C57.2102 69.7571 57.2604 69.0939 57.3731 68.4427C57.5012 67.1343 57.5042 65.8486 57.3577 64.6062C57.0485 62.1222 56.0987 59.8354 54.6635 57.8369C53.9474 56.8376 53.1115 55.9069 52.182 55.0744C51.7242 54.6535 51.2353 54.2635 50.7434 53.9012C50.4982 53.7193 50.247 53.5476 50.0026 53.3916C49.8788 53.31 49.7607 53.2399 49.6432 53.1696L49.4794 53.0772C49.45 53.0598 49.4339 53.0537 49.4135 53.0437L49.3844 53.0294C49.3765 53.0259 49.3988 53.0428 49.4051 53.0473C47.1689 51.6569 46.5007 48.7251 47.9118 46.4995C49.3209 44.2732 52.2778 43.5961 54.5141 44.9871Z" fill="#E38921"/>
<path d="M55.7326 41.2252L56.1836 46.0359C56.214 46.359 56.4027 46.6457 56.6877 46.803L60.938 49.1431C61.6566 49.5386 61.6025 50.583 60.8461 50.9095L56.3737 52.8423C56.0733 52.9722 55.8558 53.2399 55.7925 53.5584L54.8448 58.3032C54.6847 59.1052 53.6679 59.3811 53.1241 58.7702L49.9093 55.1545C49.693 54.9116 49.3703 54.7903 49.0457 54.8303L44.2097 55.4226C43.3919 55.5225 42.8177 54.6496 43.2379 53.9444L45.7233 49.7771C45.8904 49.4972 45.9081 49.1546 45.7707 48.8605L43.7299 44.4812C43.3847 43.7405 44.0465 42.9249 44.8503 43.1012L49.6013 44.1413C49.9205 44.2112 50.2544 44.1206 50.4941 43.8991L54.0686 40.6004C54.6735 40.0423 55.6563 40.4114 55.7326 41.2252Z" fill="#FFCE00"/>
<path opacity="0.65" d="M53.9502 44.7118L54.1939 47.3087C54.2101 47.4831 54.3121 47.638 54.4662 47.7225L56.7603 48.986C57.1481 49.1995 57.1188 49.7634 56.7105 49.9394L54.2963 50.9828C54.134 51.0526 54.0169 51.1972 53.9822 51.3695L53.4706 53.9312C53.3843 54.3644 52.8353 54.5133 52.5415 54.1834L50.8062 52.2312C50.6894 52.1003 50.5153 52.0344 50.3403 52.0561L47.7301 52.3755C47.2888 52.4298 46.9784 51.958 47.2057 51.5779L48.5474 49.3285C48.6375 49.1771 48.6474 48.9924 48.5732 48.8335L47.4713 46.4698C47.2852 46.0702 47.6424 45.6299 48.076 45.7248L50.6408 46.286C50.8128 46.3237 50.9935 46.2749 51.1225 46.1551L53.0521 44.3741C53.3787 44.0731 53.9091 44.2727 53.9502 44.7118Z" fill="#E38921"/>
<path opacity="0.5" d="M59.9704 55.4493C63.1991 60.4026 63.6679 68.2658 59.7764 72.5539C59.602 72.7461 59.3042 72.7625 59.1113 72.5903C58.8358 72.3444 59.0157 71.9769 59.0084 72.03C61.5852 66.9301 60.8733 61.2589 59.1762 55.8255L59.1751 55.8214C59.0231 55.3358 59.6926 55.0227 59.9704 55.4493Z" fill="white"/>
<path d="M61.1386 51.331C61.6251 51.0904 61.9345 50.6184 61.9602 50.0754C61.9896 49.5003 61.6925 48.9719 61.1881 48.6941L57.0134 46.3978C56.9262 46.3098 56.8331 46.2234 56.74 46.137C56.715 46.0941 56.7005 46.042 56.6984 45.9865L56.2469 41.1766C56.1898 40.6067 55.8231 40.1225 55.2822 39.9171C54.743 39.7174 54.1404 39.8344 53.7205 40.2248L50.1461 43.5259C50.031 43.6325 49.8675 43.6778 49.7124 43.6397L44.9614 42.5996C44.3988 42.475 43.8203 42.6787 43.4605 43.1273C43.0948 43.5774 43.0219 44.1771 43.2601 44.6969L45.3028 49.0787C45.3721 49.2153 45.3612 49.3804 45.2807 49.521L42.7941 53.6862C42.5028 54.1781 42.5138 54.7857 42.8289 55.2655C43.144 55.7452 43.6978 55.997 44.2706 55.9319L49.1088 55.334C49.2612 55.3168 49.4211 55.3722 49.5238 55.4933L52.7373 59.1087C53.1203 59.5385 53.7031 59.7137 54.2636 59.5585L54.2695 59.5569C54.5264 59.4858 54.7481 59.3559 54.9247 59.1761C55.9586 60.8901 56.6003 62.7312 56.8459 64.6633C56.98 65.8288 56.9883 67.0851 56.8634 68.3597C56.8245 68.5823 56.793 68.8091 56.7614 69.0359C56.6995 69.4706 56.6427 69.8788 56.5277 70.3032L56.3088 71.2611L56.0156 72.2457C55.269 74.6581 54.0427 77.222 52.3646 79.8799C51.5949 81.0961 51.8565 82.6998 52.9704 83.6127C53.5627 84.0967 54.3161 84.3181 55.0812 84.2434C55.2526 84.2271 55.4209 84.1992 55.5786 84.1556C56.1449 83.9988 56.6515 83.6716 57.0331 83.2108C59.4045 80.3549 61.196 77.5847 62.5111 74.7282L63.0477 73.5329C63.1604 73.2587 63.264 72.9746 63.3677 72.6904L63.5046 72.3222C63.7506 71.7121 63.927 71.0775 64.0965 70.4636C64.1646 70.2329 64.2311 69.9964 64.3088 69.7319C64.7509 67.8773 64.9891 66.0356 65.0203 64.2636C65.0709 60.5858 64.109 56.7023 62.3051 53.3197C61.9472 52.6399 61.5575 51.9814 61.1386 51.331ZM54.3406 58.2038C54.3395 58.2228 54.3311 58.2376 54.3242 58.2582C54.2793 58.4139 54.1574 58.5411 53.9965 58.5732C53.8155 58.6233 53.6306 58.5686 53.5115 58.4333L50.298 54.8179C49.9692 54.4478 49.4772 54.26 48.9851 54.3215L44.1511 54.9119C43.9637 54.9389 43.7915 54.8619 43.6909 54.7028C43.5919 54.5496 43.5847 54.3646 43.6779 54.2017L46.1645 50.0365C46.4177 49.6113 46.4498 49.0915 46.2377 48.6455L44.195 44.2636C44.1177 44.0981 44.1413 43.9108 44.2584 43.7663C44.3241 43.6857 44.4096 43.6309 44.503 43.6051C44.5789 43.5841 44.6537 43.582 44.7334 43.5974L49.1509 44.5678L49.4844 44.6375C49.9732 44.7452 50.4753 44.6062 50.8422 44.2741L51.3629 43.7935L54.4166 40.9729C54.5577 40.8467 54.7419 40.8081 54.9109 40.8735C55.0873 40.9431 55.2038 41.0915 55.2227 41.2732L55.5834 45.1424L55.6683 46.0847C55.6963 46.3449 55.7827 46.5889 55.9285 46.7978C56.0424 46.9594 56.1881 47.0998 56.3683 47.2057C56.3922 47.224 56.4151 47.2363 56.4369 47.249L59.2696 48.8077L60.686 49.587C60.8497 49.6788 60.9386 49.8411 60.9341 50.0293C60.9222 50.2133 60.8141 50.3678 60.6395 50.441L60.5551 50.4769L59.5894 50.8938L56.1714 52.3758C55.7161 52.5704 55.3832 52.9803 55.29 53.4609L54.6024 56.9038L54.3406 58.2038ZM63.9875 64.2566C63.9604 65.9527 63.7321 67.7169 63.3143 69.4775C63.242 69.7157 63.1754 69.9522 63.1105 70.1944C62.9351 70.81 62.7752 71.3902 62.5429 71.9591L62.3991 72.3479C62.2981 72.6189 62.1987 72.8956 62.0971 73.1418L61.5733 74.3149C60.2957 77.08 58.5523 79.7745 56.2441 82.5632C55.5879 83.3492 54.4125 83.4627 53.625 82.8209C52.9094 82.2339 52.7373 81.2035 53.2448 80.4026C54.9626 77.6839 56.2239 75.0418 56.9963 72.5412L57.3032 71.5154L57.5306 70.5428C57.6536 70.0788 57.715 69.6194 57.7812 69.1773C57.8085 68.9579 57.8432 68.7427 57.88 68.4895C58.0185 67.1053 58.0101 65.7804 57.8685 64.5423C57.5728 62.2252 56.7559 60.0462 55.4258 58.0342L56.3004 53.6548C56.3278 53.5039 56.4364 53.3741 56.576 53.3106L60.1802 51.7521C60.6215 52.415 61.025 53.1009 61.3936 53.7964C63.1186 57.0325 64.0404 60.7464 63.9875 64.2566Z" fill="#0A1640"/>
<path d="M38.518 58.4692C38.8339 58.5319 38.9491 58.5686 39.1422 58.6192L39.637 58.767C39.9599 58.8683 40.268 58.9755 40.5718 59.092C41.1806 59.3223 41.7691 59.5793 42.3435 59.8696C43.4932 60.4442 44.594 61.1346 45.6116 61.9632C47.6509 63.6007 49.337 65.8382 50.234 68.3109C50.6843 69.5427 50.9519 70.8046 51.0898 72.0475C51.191 73.2874 51.198 74.5117 51.0619 75.6866C50.8251 78.0489 50.1941 80.2386 49.4087 82.3016C48.944 83.5207 47.5741 84.1398 46.3473 83.6843C45.2186 83.2652 44.6057 82.0822 44.8776 80.9458L44.8851 80.9138C45.3258 79.0609 45.5832 77.2045 45.517 75.4644C45.5034 74.5909 45.3706 73.7615 45.2029 72.9717C45.0004 72.1947 44.7321 71.4683 44.3819 70.812C43.6746 69.5036 42.6369 68.4824 41.352 67.7078C40.7122 67.3197 40.0043 67.0016 39.2669 66.754C38.9 66.6275 38.5226 66.5221 38.1499 66.4383C37.9642 66.3944 37.777 66.3583 37.6006 66.3299L37.3445 66.2924C37.2857 66.2868 37.1488 66.2693 37.2107 66.2883C35.0369 65.9404 33.5671 63.9079 33.9274 61.7488C34.2895 59.5893 36.344 58.1208 38.518 58.4692Z" fill="#E38921"/>
<path d="M36.2809 56.1668L38.3905 58.3356C38.6173 58.5688 38.9454 58.6755 39.2681 58.6217L42.2724 58.1184C43.0853 57.9825 43.6981 58.8291 43.3097 59.5516L41.8741 62.2226C41.7197 62.5096 41.7173 62.853 41.8679 63.1403L43.2655 65.8184C43.6433 66.5425 43.0188 67.3865 42.2081 67.2464L39.2114 66.7282C38.8893 66.6728 38.5601 66.7776 38.3301 67.0095L36.1899 69.1678C35.6111 69.7517 34.6121 69.4264 34.4993 68.6171L34.0829 65.6256C34.0381 65.3046 33.8372 65.0263 33.5445 64.8818L30.8239 63.5375C30.0884 63.1741 30.0958 62.129 30.8365 61.7688L33.5761 60.4385C33.8703 60.2953 34.0753 60.0186 34.1247 59.6977L34.5841 56.7087C34.7067 55.9003 35.7105 55.58 36.2809 56.1668Z" fill="#FFCE00"/>
<path opacity="0.65" d="M36.659 58.4903L37.9446 59.8124C38.0826 59.9543 38.283 60.0197 38.4794 59.9865L40.3104 59.6797C40.8055 59.5968 41.179 60.1128 40.9426 60.5533L40.0676 62.1813C39.9733 62.3563 39.9721 62.5654 40.0634 62.7407L40.915 64.373C41.1454 64.8146 40.7647 65.3287 40.2708 65.243L38.4447 64.9273C38.2485 64.8931 38.0476 64.9574 37.9076 65.099L36.6033 66.414C36.2504 66.7697 35.6417 66.5712 35.5732 66.0786L35.3194 64.2559C35.2923 64.0602 35.1693 63.8906 34.9916 63.8027L33.3335 62.9837C32.885 62.762 32.8897 62.1252 33.3414 61.9061L35.011 61.0956C35.1905 61.0085 35.3153 60.8393 35.3455 60.6441L35.6252 58.8226C35.7002 58.3283 36.3118 58.1328 36.659 58.4903Z" fill="#E38921"/>
<path opacity="0.5" d="M48.6013 77.484C48.5009 77.7231 48.2239 77.8371 47.9833 77.738C47.6663 77.6077 47.6755 77.2256 47.6919 77.2778C47.6211 75.787 48.2157 72.0147 45.6426 66.6687L45.6204 66.6225C45.5154 66.4042 45.6086 66.1416 45.829 66.0364C46.9172 65.5164 51.1155 71.5155 48.6013 77.484Z" fill="white"/>
<path d="M50.7184 68.1354C49.8166 65.6497 48.1148 63.3169 45.9396 61.5699C45.3633 61.1002 44.7466 60.6665 44.0939 60.2615L44.2178 60.0278C44.5826 59.3473 44.5288 58.5397 44.0796 57.9163C43.623 57.2888 42.8712 56.9798 42.103 57.1114L39.1179 57.6138L37.025 55.4577C36.5074 54.9281 35.7462 54.7213 35.028 54.9201C34.2456 55.1367 33.6843 55.7657 33.5645 56.559L33.1114 59.5319L30.3845 60.8538C29.6857 61.1906 29.2476 61.8788 29.2478 62.6514C29.2405 63.4199 29.6648 64.1124 30.3631 64.455L33.0643 65.7884L33.4778 68.7582C33.5557 69.3348 33.8788 69.8435 34.362 70.1584C34.8527 70.4774 35.4555 70.566 36.016 70.4108C36.3546 70.3171 36.6693 70.1366 36.919 69.8805L39.0482 67.7396L40.9566 68.0712C40.9997 68.0904 41.0443 68.1154 41.0831 68.1421C42.3359 68.8982 43.2927 69.8795 43.9249 71.0503C44.2412 71.6482 44.5068 72.3349 44.7001 73.0789C44.8965 74.0152 44.9884 74.7562 45.0023 75.4876C45.0616 77.0414 44.8514 78.8255 44.3761 80.8326C44.0395 82.228 44.8128 83.659 46.1655 84.163C46.7404 84.3778 47.3639 84.4046 47.9477 84.2429C48.0937 84.2025 48.2365 84.1505 48.376 84.087C49.0738 83.7692 49.613 83.1963 49.8858 82.4789C50.824 80.0322 51.3549 77.8851 51.573 75.7436C51.7024 74.5987 51.7153 73.3738 51.6027 71.9906C51.4498 70.6185 51.1477 69.3251 50.7184 68.1354ZM39.2091 66.7292C39.0631 66.7011 38.9149 66.711 38.7748 66.7498C38.6055 66.7967 38.4532 66.8824 38.3313 67.0096L36.1878 69.167C36.0541 69.2974 35.9019 69.3832 35.7442 69.4268C35.2012 69.5771 34.5869 69.2425 34.4962 68.6196L34.0821 65.625C34.038 65.307 33.8347 65.0268 33.5435 64.8831L30.82 63.5372C30.0845 63.1738 30.0972 62.1297 30.8337 61.77L33.5764 60.4375C33.8698 60.294 34.0765 60.0187 34.1264 59.6996L34.5806 56.7076C34.6474 56.2904 34.9506 56.0008 35.301 55.9038C35.6338 55.8117 36.0056 55.8832 36.2795 56.1688L37.9677 57.9072L38.3889 58.3389C38.616 58.5689 38.9475 58.6765 39.265 58.6198L40.2981 58.446L42.2751 58.1168C43.0857 57.9796 43.6988 58.8318 43.3069 59.5509L43.2026 59.7418L42.7182 60.6485L41.8715 62.2225C41.718 62.5081 41.7185 62.8506 41.8676 63.1396L43.2631 65.8189C43.5704 66.4067 43.2183 67.065 42.6461 67.2234C42.5118 67.2606 42.3637 67.2704 42.2059 67.2455L41.3019 67.0908L39.2091 66.7292ZM50.5743 72.0883C50.6852 73.3973 50.6722 74.5536 50.5517 75.64C50.342 77.6982 49.8254 79.7603 48.9263 82.1215C48.7518 82.581 48.4019 82.952 47.9498 83.1582C47.4961 83.3585 46.9927 83.3795 46.5305 83.2084C45.6607 82.8821 45.1607 81.9613 45.3859 81.0266C45.8776 78.9652 46.0929 77.0861 46.0304 75.4522C46.0196 74.6639 45.9191 73.8693 45.7029 72.8387C45.4823 71.9963 45.1901 71.236 44.8354 70.5678C44.355 69.6726 43.7155 68.8839 42.9185 68.2072C43.5082 68.044 43.9908 67.63 44.2379 67.0694C44.4807 66.5161 44.4633 65.8854 44.1821 65.3464L42.7914 62.6844L43.61 61.168C44.209 61.5381 44.7646 61.9326 45.2856 62.3616C47.3225 63.9973 48.9121 66.1743 49.7467 68.4854C50.1557 69.5997 50.4358 70.8182 50.5743 72.0883Z" fill="#0A1640"/>
</svg>
