<svg width="167" height="64" viewBox="0 0 167 64" fill="none" xmlns="http://www.w3.org/2000/svg">
<path d="M17.1674 20.1793C20.2081 14.7264 21.7273 12 24 12C26.2727 12 27.7919 14.7264 30.8326 20.1793L31.6198 21.5905C32.4838 23.1409 32.9158 23.9161 33.5878 24.4273C34.2598 24.9385 35.0997 25.1281 36.7797 25.5073L38.3061 25.8529C44.2099 27.1897 47.1595 27.8569 47.8626 30.1153C48.5634 32.3713 46.5523 34.7257 42.5276 39.4322L41.486 40.649C40.3436 41.9858 39.77 42.6554 39.5132 43.481C39.2564 44.309 39.3428 45.2018 39.5156 46.985L39.674 48.6098C40.2812 54.8907 40.586 58.0299 38.7477 59.4243C36.9093 60.8187 34.1446 59.5467 28.6199 57.0027L27.1871 56.3451C25.6176 55.6203 24.8328 55.2603 24 55.2603C23.1672 55.2603 22.3824 55.6203 20.8129 56.3451L19.3825 57.0027C13.8554 59.5467 11.0907 60.8187 9.25475 59.4267C7.41399 58.0299 7.71878 54.8907 8.32597 48.6098L8.48436 46.9874C8.65716 45.2018 8.74356 44.309 8.48436 43.4834C8.22997 42.6554 7.65638 41.9858 6.51401 40.6514L5.47244 39.4322C1.44773 34.7281 -0.563423 32.3737 0.137361 30.1153C0.838144 27.8569 3.79247 27.1873 9.69633 25.8529L11.2227 25.5073C12.9003 25.1281 13.7378 24.9385 14.4122 24.4273C15.0866 23.9161 15.5162 23.1409 16.3802 21.5905L17.1674 20.1793Z" fill="#FFB425"/>
<path d="M76.8097 8.00885C79.7871 2.66962 81.2746 0 83.5 0C85.7254 0 87.2129 2.66962 90.1903 8.00885L90.9611 9.39066C91.8071 10.9088 92.23 11.6678 92.888 12.1684C93.546 12.6689 94.3685 12.8546 96.0135 13.2259L97.508 13.5643C103.289 14.8732 106.177 15.5265 106.865 17.7379C107.552 19.9469 105.582 22.2523 101.642 26.8607L100.622 28.0521C99.5031 29.3611 98.9415 30.0167 98.69 30.8251C98.4386 31.6359 98.5232 32.5101 98.6924 34.2562L98.8475 35.8471C99.442 41.9971 99.7405 45.0709 97.9404 46.4363C96.1404 47.8017 93.4332 46.5561 88.0236 44.0651L86.6207 43.4212C85.0839 42.7115 84.3154 42.359 83.5 42.359C82.6846 42.359 81.9161 42.7115 80.3793 43.4212L78.9787 44.0651C73.5668 46.5561 70.8596 47.8017 69.0619 46.4386C67.2595 45.0709 67.558 41.9971 68.1525 35.8471L68.3076 34.2585C68.4768 32.5101 68.5614 31.6359 68.3076 30.8275C68.0585 30.0167 67.4969 29.3611 66.3783 28.0545L65.3584 26.8607C61.4176 22.2546 59.4483 19.9493 60.1345 17.7379C60.8207 15.5265 63.7135 14.8709 69.4943 13.5643L70.9889 13.2259C72.6315 12.8546 73.4516 12.6689 74.112 12.1684C74.7723 11.6678 75.1929 10.9088 76.0389 9.39066L76.8097 8.00885Z" fill="#FFB425"/>
<path d="M136.167 25.0089C139.208 19.6696 140.727 17 143 17C145.273 17 146.792 19.6696 149.833 25.0089L150.62 26.3907C151.484 27.9088 151.916 28.6678 152.588 29.1684C153.26 29.6689 154.1 29.8546 155.78 30.2259L157.306 30.5643C163.21 31.8732 166.159 32.5265 166.863 34.7379C167.563 36.9469 165.552 39.2523 161.528 43.8607L160.486 45.0521C159.344 46.3611 158.77 47.0167 158.513 47.8251C158.256 48.6359 158.343 49.5101 158.516 51.2562L158.674 52.8471C159.281 58.9971 159.586 62.0709 157.748 63.4363C155.909 64.8017 153.145 63.5561 147.62 61.0651L146.187 60.4212C144.618 59.7115 143.833 59.359 143 59.359C142.167 59.359 141.382 59.7115 139.813 60.4212L138.383 61.0651C132.855 63.5561 130.091 64.8017 128.255 63.4386C126.414 62.0709 126.719 58.9971 127.326 52.8471L127.484 51.2585C127.657 49.5101 127.744 48.6359 127.484 47.8275C127.23 47.0167 126.656 46.3611 125.514 45.0545L124.472 43.8607C120.448 39.2546 118.437 36.9493 119.137 34.7379C119.838 32.5265 122.792 31.8709 128.696 30.5643L130.223 30.2259C131.9 29.8546 132.738 29.6689 133.412 29.1684C134.087 28.6678 134.516 27.9088 135.38 26.3907L136.167 25.0089Z" fill="#FFB425"/>
</svg>
