<svg width="92" height="70" viewBox="0 0 92 70" fill="none" xmlns="http://www.w3.org/2000/svg">
<path d="M96.7346 6.61652L91.4648 20.4823C91.1718 21.2611 90.1435 21.4273 89.616 20.7817L82.3465 11.8666L80.2447 9.2858C79.7172 8.63974 80.0853 7.66722 80.9096 7.53362L95.5508 5.16374C95.5894 5.15773 95.6285 5.15515 95.6676 5.15257C95.671 5.14828 95.671 5.14828 95.6753 5.15129C96.4357 5.11134 97.0138 5.87553 96.7346 6.61652Z" fill="#FF8CDB"/>
<g opacity="0.5">
<path d="M96.7358 6.61658L91.4659 20.4823C91.173 21.2611 90.1446 21.4274 89.6171 20.7817L82.3477 11.8667C82.4327 11.8804 82.5182 11.8946 82.6041 11.9122C84.0633 12.2094 85.4066 12.9371 86.8671 13.2421C88.3246 13.5518 90.0686 13.313 90.9217 12.0879C91.5592 11.1665 91.5252 9.95469 91.816 8.87177C92.301 7.05773 93.8719 5.64963 95.6687 5.15306C95.6722 5.14876 95.6722 5.14877 95.6765 5.15178C96.4368 5.1114 97.015 5.87559 96.7358 6.61658Z" fill="#D811AD"/>
</g>
<path opacity="0.5" d="M82.8183 9.31751C84.4434 8.5297 87.5418 7.979 89.4503 8.22041C89.8502 8.27067 89.9439 8.81363 89.5753 8.99319C87.9112 9.79002 84.8025 10.2892 82.936 10.0443C82.7256 10.0168 82.5774 9.82353 82.6048 9.61304C82.6225 9.48117 82.7071 9.37249 82.8183 9.31751Z" fill="white"/>
<path d="M90.4504 21.5597C90.0152 21.5597 89.6067 21.3677 89.3241 21.0215L79.9524 9.52515C79.6182 9.11621 79.5305 8.57669 79.7182 8.08269C79.9051 7.58956 80.3291 7.24418 80.8514 7.15956L95.4926 4.78925C95.5402 4.78194 95.5875 4.77765 95.6347 4.77507C95.6425 4.77422 95.6502 4.77335 95.6575 4.77293C96.1476 4.73985 96.612 4.96924 96.9041 5.36873C97.1971 5.76866 97.2666 6.28456 97.0914 6.74977C97.0914 6.7502 97.0914 6.75062 97.0909 6.75062L91.8207 20.6164C91.636 21.1087 91.2146 21.454 90.6944 21.5395C90.6119 21.5528 90.5307 21.5597 90.4504 21.5597ZM95.7116 5.52939C95.7043 5.53025 95.697 5.53068 95.6888 5.5311C95.6635 5.53282 95.6373 5.53368 95.612 5.53754L80.9717 7.90786C80.72 7.94866 80.5159 8.11405 80.4262 8.3516C80.336 8.58915 80.3785 8.84859 80.5396 9.04619L89.9109 20.5425C90.0724 20.7397 90.3215 20.8359 90.5707 20.7921C90.8207 20.7508 91.0226 20.5859 91.1115 20.3492L96.3826 6.48215C96.4677 6.25448 96.435 6.01179 96.292 5.81677C96.1549 5.62905 95.9586 5.52037 95.7116 5.52939Z" fill="#0A1640"/>
<path d="M55.5284 55.8213C55.3781 56.0296 55.3373 56.2977 55.4262 56.5361L57.126 61.3351C57.342 61.9434 56.7699 62.5293 56.1582 62.3338L51.314 60.7664C51.0705 60.6856 50.805 60.7316 50.6027 60.8892L46.5644 63.9898C46.0536 64.379 45.3182 64.019 45.3178 63.3734L45.3131 59.561L45.3101 58.2826C45.3101 58.0292 45.1855 57.7895 44.9741 57.6439L40.7786 54.7645C40.2485 54.4007 40.365 53.5846 40.9767 53.3882L45.8161 51.8083C46.0601 51.7306 46.2482 51.5355 46.3204 51.2894L47.7624 46.4075C47.945 45.7898 48.7564 45.6497 49.1314 46.1712L52.1306 50.2864C52.2814 50.4939 52.5237 50.6146 52.7797 50.606L57.8687 50.472C57.9353 50.4685 58.0001 50.4771 58.0624 50.4939C58.5847 50.6056 58.8558 51.2361 58.5164 51.7022L55.5284 55.8213Z" fill="#6B7FFF"/>
<g opacity="0.25">
<path d="M55.5279 55.8212C55.3775 56.0296 55.3367 56.2976 55.4256 56.536L57.1254 61.3351C57.3415 61.9433 56.7693 62.5292 56.1576 62.3338L51.3135 60.7663C51.0699 60.6856 50.8044 60.7315 50.6021 60.8892L46.5638 63.9898C46.0531 64.3789 45.3177 64.019 45.3172 63.3733L45.3125 59.561C46.2988 58.302 47.6515 57.4428 49.2267 57.4162C52.2516 57.3689 51.9806 53.6661 54.0158 52.0355C55.1709 51.1115 56.5932 50.6798 58.0618 50.4934C58.5842 50.6051 58.8552 51.2357 58.5159 51.7018L55.5279 55.8212Z" fill="#0A1640"/>
</g>
<path opacity="0.5" d="M45.3331 55.3493C44.5122 55.4571 43.8528 55.6182 43.8361 55.0701C43.8112 54.2569 47.2945 54.0056 48.4221 50.9592C48.7773 50.1035 48.4319 49.1709 49.0544 49.2164C49.9805 49.2852 50.6897 54.2006 45.3331 55.3493Z" fill="white"/>
<path d="M46.093 64.5293C45.9186 64.5293 45.7434 64.4894 45.5801 64.4086C45.1849 64.2127 44.9392 63.8167 44.9388 63.3742L44.9311 58.2835C44.9311 58.1525 44.8666 58.0301 44.7588 57.9558L40.5646 55.0769C40.1982 54.8256 40.0109 54.3964 40.0749 53.957C40.1385 53.5188 40.4396 53.1623 40.8601 53.027L45.6983 51.4479C45.8241 51.4076 45.9195 51.3087 45.9569 51.1825L47.3989 46.3005C47.5252 45.874 47.8753 45.563 48.3138 45.4886C48.749 45.4143 49.1807 45.5913 49.4393 45.9504L52.4372 50.0634C52.5149 50.1708 52.6339 50.2245 52.768 50.228L57.8595 50.094C57.9523 50.0875 58.0567 50.1 58.1619 50.1287C58.5206 50.2048 58.8295 50.4715 58.9699 50.8375C59.1091 51.2014 59.0546 51.6082 58.8235 51.9256L55.8372 56.0438C55.759 56.1516 55.7388 56.2865 55.7826 56.4038L57.4845 61.2084C57.6327 61.6251 57.5339 62.0812 57.2268 62.3983C56.9188 62.7153 56.4643 62.8291 56.0438 62.6947L51.1983 61.1272C51.0729 61.086 50.938 61.1092 50.8362 61.1886L46.7962 64.2909C46.587 64.4486 46.3409 64.5293 46.093 64.5293ZM48.5089 46.2292C48.4857 46.2292 48.4629 46.2313 48.4393 46.2348C48.2864 46.261 48.1687 46.3654 48.1248 46.5144L46.6828 51.3964C46.5745 51.7645 46.2932 52.0532 45.9298 52.1687L41.0929 53.7474C40.9456 53.7946 40.8459 53.9136 40.8236 54.0661C40.8008 54.2199 40.864 54.3642 40.9916 54.4518L45.1866 57.3312C45.4998 57.5472 45.6871 57.9021 45.6879 58.2822L45.6957 63.3734C45.6957 63.5284 45.7777 63.6616 45.9152 63.7295C46.0535 63.7982 46.2103 63.7832 46.3336 63.6887L50.3706 60.589C50.6704 60.3549 51.0682 60.2865 51.4316 60.4068L56.2736 61.9734C56.4218 62.0215 56.5734 61.982 56.6804 61.8712C56.7873 61.7608 56.8196 61.6083 56.768 61.4623L55.0683 56.6636C54.9381 56.314 54.9939 55.9141 55.2207 55.6005L55.2212 55.6L58.2083 51.481C58.3187 51.3289 58.2882 51.1825 58.2603 51.109C58.2122 50.9836 58.1078 50.8925 57.9815 50.865C57.9338 50.8525 57.9085 50.8517 57.8883 50.8508L52.7881 50.9853C52.4213 50.9926 52.0467 50.8191 51.8221 50.5089L48.8237 46.395C48.7481 46.2876 48.6334 46.2292 48.5089 46.2292Z" fill="#0A1640"/>
<path d="M21.6793 31.2314C21.6793 35.6172 18.1247 39.1718 13.7389 39.1718C9.87454 39.1718 6.65154 36.4042 5.94878 32.7435C5.8517 32.2529 5.80273 31.7486 5.80273 31.2314C5.80273 26.8456 9.35735 23.291 13.7389 23.291C15.3128 23.291 16.7849 23.7506 18.0186 24.5466C20.2205 25.9526 21.6793 28.4195 21.6793 31.2314Z" fill="#D811AD"/>
<g opacity="0.25">
<path d="M21.6797 31.2314C21.6797 35.6172 18.1251 39.1718 13.7393 39.1718C9.87497 39.1718 6.65198 36.4041 5.94922 32.7434C6.05962 32.5665 6.19235 32.4032 6.3384 32.2572C8.97332 29.6089 11.8209 34.3925 14.4691 34.1846C16.0164 34.0652 17.4713 32.8319 17.6393 31.2533C17.8296 29.4272 16.4013 27.7739 17.0203 25.9963C17.2415 25.3597 17.5864 24.8821 18.0194 24.5461C20.2209 25.9525 21.6797 28.4195 21.6797 31.2314Z" fill="#0A1640"/>
</g>
<path opacity="0.5" d="M8.9681 29.5462L8.95606 29.5643C8.69747 29.9509 8.09394 29.7451 8.121 29.2829C8.31731 26.0359 12.4196 24.0784 15.4132 25.48C15.8084 25.6652 15.7066 26.2558 15.2727 26.2983C13.4866 26.6347 11.0244 26.4736 8.9681 29.5462Z" fill="white"/>
<path d="M13.7398 39.5513C9.75992 39.5513 6.3273 36.7184 5.57772 32.8154C5.47635 32.3055 5.4248 31.772 5.4248 31.2316C5.4248 26.6443 9.1551 22.9119 13.7398 22.9119C15.339 22.9119 16.8902 23.3672 18.2253 24.2285C20.6252 25.7611 22.0595 28.3797 22.0595 31.2316C22.0595 35.8193 18.3271 39.5513 13.7398 39.5513ZM13.7398 23.67C9.57263 23.67 6.18297 27.0618 6.18297 31.2316C6.18297 31.7226 6.22936 32.2062 6.32172 32.6702C7.00343 36.2192 10.1229 38.7931 13.7402 38.7931C17.91 38.7931 21.3018 35.4013 21.3018 31.2316C21.3018 28.6396 19.9989 26.2598 17.8163 24.8659C16.6019 24.0833 15.193 23.67 13.7398 23.67Z" fill="#0A1640"/>
<path d="M40.7168 17.5922C41.3307 18.1463 41.6167 19.2275 41.1352 20.8839C39.6133 26.1224 32.6987 50.3706 31.9276 53.079C31.8915 53.2178 31.8868 53.2242 32.1342 54.3561C32.2949 55.0979 32.5655 56.3368 32.9688 58.3519C33.0651 58.8055 32.9736 59.2814 32.7111 59.6702C32.6866 59.7063 32.6621 59.7428 32.6342 59.7767C32.3142 60.1792 31.8361 60.4176 31.3202 60.4283L30.1466 60.4601L26.5426 60.5521C25.7913 60.577 25.1122 60.1126 24.8643 59.3931L22.281 51.887C22.1341 51.466 22.1598 50.9944 22.3493 50.594C24.0752 46.871 36.1832 20.7405 36.9642 19.0179C37.7361 17.2035 39.6854 16.6549 40.7168 17.5922Z" fill="#6B7FFF"/>
<path opacity="0.25" d="M40.7168 17.5922C40.3057 18.0866 39.8891 19.0574 38.8255 21.5248C37.6094 24.3595 35.5703 29.0992 31.7274 37.3081C27.095 47.2099 27.2402 49.4295 27.4052 52.003C27.4262 52.3049 27.4451 52.6108 27.4584 52.9317C27.5366 54.8032 29.2214 58.6208 30.1041 60.3742L30.1466 60.4606L26.5426 60.5525C25.7913 60.5774 25.1122 60.113 24.8643 59.3935L22.281 51.8874C22.1341 51.4664 22.1598 50.9948 22.3493 50.5944C24.0752 46.8714 36.1832 20.7409 36.9642 19.0183C37.7361 17.2034 39.6854 16.6549 40.7168 17.5922Z" fill="#0A1640"/>
<path d="M34.4833 29.6899C34.6822 29.3982 34.9537 29.3312 35.2282 29.4278C36.7016 29.9467 36.3652 32.3072 35.0366 32.8033C34.561 32.9811 33.5752 32.9902 33.5464 32.2818C33.5314 31.9085 33.8355 30.6413 34.4833 29.6899Z" fill="white"/>
<path d="M33.6758 36.305C33.2784 35.531 33.6848 34.3819 34.3304 33.8566C34.9696 33.3364 35.8107 33.7032 35.7183 34.8321C35.592 36.3785 34.1908 37.3094 33.6758 36.305Z" fill="#FF8CDB"/>
<path d="M37.3548 26.6524C36.5433 26.9656 36.0815 28.0936 36.2139 28.9154C36.3449 29.729 37.2169 30.0151 37.899 29.1108C38.8337 27.8728 38.4076 26.2461 37.3548 26.6524Z" fill="#FF8CDB"/>
<path d="M24.0807 78.9828C21.1653 78.5206 18.6747 76.1984 18.3521 73.2632C18.0187 70.2211 20.5617 68.0668 21.9758 65.5084C22.6485 64.2893 22.5291 62.6269 22.9832 61.3098C23.8801 58.7119 26.6486 55.6946 29.9601 56.8364C34.0233 58.2376 34.6917 63.0324 34.3149 66.9384C34.0319 69.877 33.1912 72.8032 31.6916 75.2607C30.2801 77.5726 27.3398 79.4991 24.0807 78.9828ZM29.5258 71.7791C30.3896 70.313 30.8974 68.6119 31.0997 66.9302C31.3686 64.6922 31.0735 62.001 28.8561 61.3962C27.0489 60.9035 25.4767 62.7463 24.9428 64.2648C24.6718 65.0346 24.7134 65.9719 24.3225 66.6965C23.5038 68.2155 22.0699 69.5591 22.2061 71.2718C22.3375 72.9234 23.6739 74.1249 25.2744 74.2512C27.0618 74.3917 28.7118 73.1588 29.5258 71.7791Z" fill="#FF8CDB"/>
<path opacity="0.5" d="M22.9484 77.1675C26.2075 77.6843 29.1478 75.7573 30.5598 73.4454C32.0594 70.9879 32.8996 68.0617 33.1831 65.1231C33.3949 62.9306 33.2763 60.4572 32.4129 58.4619C34.2922 60.5852 34.5976 64.0097 34.315 66.9376C34.0319 69.8762 33.1913 72.8023 31.6917 75.2598C30.2801 77.5722 27.3398 79.4988 24.0807 78.982C21.7203 78.6078 19.6382 77.0146 18.7598 74.8629C19.8195 76.0687 21.3182 76.9089 22.9484 77.1675Z" fill="#D811AD"/>
<path opacity="0.5" d="M25.5996 59.3613C25.0923 59.9373 24.8015 60.2853 24.4153 61.0692C24.2516 61.4017 24.6468 61.7308 24.9441 61.5104L24.9733 61.4885C26.1821 60.5894 27.4823 59.0692 29.4892 59.2011C30.7633 59.2522 31.3673 60.0727 31.6169 59.5207C31.915 58.86 28.8647 56.302 25.5996 59.3613Z" fill="white"/>
<path d="M40.9724 17.3122C40.444 16.8354 39.7052 16.6593 38.9406 16.8268C37.9354 17.0459 37.0677 17.8105 36.621 18.8629C35.8349 20.5897 23.6225 46.9475 22.0073 50.4355C21.7754 50.9252 21.7453 51.5009 21.9214 52.012L24.0134 58.0903C23.2487 58.958 22.6302 60.0104 22.2694 61.0629C22.0503 61.6857 21.9558 62.3515 21.8613 62.9959C21.7453 63.7992 21.6336 64.5595 21.3114 65.1437C20.9291 65.8396 20.4351 66.5312 19.9583 67.2013C18.6653 69.014 17.3294 70.8912 17.5957 73.3483C17.948 76.5184 20.6241 79.2032 23.9618 79.7315C24.357 79.7917 24.7565 79.826 25.156 79.826C27.9739 79.826 30.7918 78.1894 32.3382 75.655C33.8116 73.2409 34.7567 70.2512 35.0702 67.008C35.3022 64.6196 35.2292 61.2433 33.5754 58.7432C33.5066 58.6402 33.4379 58.5413 33.3649 58.4426C33.3606 58.3867 33.352 58.3309 33.3391 58.2793C32.9611 56.3764 32.6905 55.1435 32.5315 54.409L32.5058 54.2758C32.3855 53.7389 32.2867 53.2749 32.291 53.1847C33.2661 49.7697 40.0231 26.0752 41.5007 20.9892C42.1408 18.7851 41.4449 17.737 40.9724 17.3122ZM34.3142 66.9345C34.0307 69.877 33.1888 72.8023 31.6896 75.2594C30.4353 77.317 27.9739 79.0653 25.156 79.0653C24.8038 79.0653 24.4429 79.0395 24.0821 78.9837C21.1654 78.5198 18.6739 76.2001 18.3518 73.2619C18.0167 70.2206 20.5597 68.0686 21.9773 65.5084C22.6474 64.2884 22.5271 62.626 22.9824 61.3073C23.2616 60.4911 23.7342 59.632 24.3398 58.876C24.4172 58.7772 24.4988 58.6784 24.5847 58.5839C25.607 57.4412 26.973 56.5864 28.5152 56.5864C28.9834 56.5864 29.4645 56.6637 29.9585 56.8356C31.2901 57.2952 32.2566 58.12 32.9396 59.1595C33.0083 59.2626 33.0728 59.37 33.1415 59.4774C34.3701 61.5822 34.5548 64.4388 34.3142 66.9345ZM40.7705 20.7783C39.2928 25.8643 32.5358 49.5631 31.5607 52.9824C31.5006 53.223 31.5135 53.2917 31.7626 54.4386L31.7927 54.5675C31.9173 55.156 32.1149 56.0581 32.3855 57.3725C31.7583 56.8227 31.0281 56.4017 30.2076 56.1182C29.6492 55.9249 29.0822 55.8304 28.5152 55.8304C27.1492 55.8304 25.7832 56.4103 24.6105 57.4885L22.6388 51.7625C22.5228 51.436 22.5443 51.0709 22.6946 50.753C24.3098 47.265 36.5264 20.9029 37.3125 19.1675C37.6691 18.3298 38.3392 17.7327 39.1038 17.5652C39.237 17.5351 39.3701 17.5222 39.499 17.5222C39.8684 17.5222 40.2078 17.6425 40.4612 17.8745C41.0454 18.3985 41.1571 19.4553 40.7705 20.7783Z" fill="#0A1640"/>
<path d="M32.7581 33.2049C32.255 33.2118 31.8908 33.5911 31.8324 34.0116C31.7327 34.7307 32.5708 35.1994 33.1554 34.8231C33.8822 34.3553 33.6434 33.1929 32.7581 33.2049Z" fill="#0A1640"/>
<path d="M34.4523 27.1396C34.216 27.4923 34.2353 28.0176 34.606 28.3578C35.2585 28.9562 36.2104 28.2474 35.9798 27.4145C35.7942 26.7444 34.8565 26.5365 34.4523 27.1396Z" fill="#0A1640"/>
<path d="M28.8546 61.3973C28.6527 61.3414 28.4508 61.3157 28.2532 61.3157C26.7068 61.3157 25.4181 62.9179 24.9456 64.2667C24.6706 65.0357 24.7136 65.9721 24.3227 66.6938C23.5022 68.2144 22.0718 69.5589 22.205 71.2729C22.3381 72.9224 23.6741 74.1252 25.2763 74.2497C25.3708 74.2583 25.461 74.2626 25.5555 74.2626C27.2308 74.2626 28.7558 73.0856 29.5247 71.7798C30.3881 70.315 30.895 68.6139 31.0969 66.93C31.3675 64.692 31.0754 61.9987 28.8546 61.3973ZM30.3451 66.8398C30.1432 68.528 29.6321 70.1045 28.8717 71.3931C28.2532 72.4456 26.986 73.5023 25.5555 73.5023C25.4825 73.5023 25.4095 73.5023 25.3365 73.4937C24.0564 73.3949 23.0598 72.4327 22.961 71.2127C22.8837 70.2548 23.4979 69.3527 24.1466 68.3948C24.4344 67.9653 24.7351 67.5228 24.9885 67.0546C25.272 66.5262 25.3708 65.9463 25.4567 65.4309C25.5126 65.1001 25.5641 64.7822 25.6586 64.5202C26.0796 63.3174 27.1664 62.0717 28.2532 62.0717C28.3863 62.0717 28.5238 62.0932 28.657 62.1275C30.6286 62.6645 30.4955 65.6027 30.3451 66.8398Z" fill="#0A1640"/>
<path d="M54.0886 26.7095C54.4112 27.5158 54.2724 28.6099 53.7286 29.4145C53.446 29.8329 55.1127 28.042 28.8485 54.5674C28.0014 55.4295 27.4975 54.9256 19.732 55.2748C18.9678 55.2907 18.2951 54.8165 18.0558 54.0983L16.8573 50.6051L16.5047 49.5793C16.3367 49.0965 16.3943 48.5643 16.664 48.1227C17.2122 47.2408 17.6894 47.3091 21.9154 46.7017C23.0632 46.5372 23.0688 46.5363 23.1895 46.45C31.3408 40.4636 37.0338 36.2604 41.1902 33.1873C43.9866 31.1198 46.7629 29.0163 49.613 27.0227C50.3106 26.5347 51.1435 25.8019 52.0185 25.6597C53.1191 25.481 53.7952 25.9758 54.0886 26.7095Z" fill="#6B7FFF"/>
<path opacity="0.25" d="M54.1492 26.6846C54.4701 27.4729 54.2742 28.6074 53.7287 29.4141C53.446 29.8325 55.1127 28.0416 28.8486 54.5669C28.0015 55.4291 27.4976 54.9252 19.732 55.2744C18.9679 55.2903 18.2952 54.8161 18.0559 54.0979L16.8574 50.6047L17.2342 50.6438C30.3533 52.0867 31.1618 47.407 50.1561 29.2684C53.4229 26.1554 53.248 26.0515 53.3082 25.7993C53.6875 25.9694 53.9809 26.2736 54.1492 26.6846Z" fill="#0A1640"/>
<path d="M30.733 49.5488C29.9645 50.8074 28.3214 51.2048 27.0624 50.4363C25.8038 49.6678 25.4064 48.0243 26.1745 46.7657C26.943 45.5071 28.5865 45.1093 29.8451 45.8778C31.1041 46.6472 31.5015 48.2902 30.733 49.5488Z" fill="#D811AD"/>
<path d="M2.49055 54.4133C4.2715 52.1512 6.72127 50.3436 9.37681 49.0541C12.9065 47.3397 17.6338 46.295 20.3632 49.6151C22.5875 52.3209 20.7241 55.9679 18.602 57.7136C17.526 58.5985 15.9259 59.0654 15.0178 60.1213C13.1123 62.3387 11.9795 65.4727 9.0117 66.2206C6.14825 66.9414 3.10352 65.416 1.65418 62.8447C0.0338843 59.9696 0.815263 56.5422 2.49055 54.4133ZM5.67358 60.0766C6.3497 61.5328 7.94166 62.3666 9.53533 61.9143C11.1878 61.4448 11.9477 59.6329 13.0861 58.336C13.629 57.7175 14.5221 57.4297 15.1492 56.9073C16.3864 55.8777 17.5659 53.7616 16.474 52.2397C15.1342 50.372 12.5087 51.0339 10.5048 52.0657C8.99923 52.8415 7.58126 53.9098 6.50822 55.2307C5.49875 56.4743 4.91841 58.4503 5.67358 60.0766Z" fill="#FF8CDB"/>
<path opacity="0.5" d="M3.75037 63.2734C2.13007 60.3983 2.91145 56.9713 4.58673 54.842C6.36769 52.5799 8.81746 50.7723 11.473 49.4828C13.4541 48.5201 15.8137 47.7697 17.9847 47.8831C15.3395 46.8616 12.0233 47.7688 9.37761 49.0541C6.72207 50.3436 4.27228 52.1516 2.49133 54.4133C0.816043 56.5422 0.0351071 59.9696 1.65498 62.8447C2.82854 64.9267 5.04721 66.3232 7.37027 66.3967C5.87111 65.8237 4.56138 64.7115 3.75037 63.2734Z" fill="#D811AD"/>
<g opacity="0.5">
<path d="M31.2095 43.1026C33.4557 41.0175 35.8166 39.078 38.2058 37.1742C40.6066 35.285 43.0357 33.4319 45.5813 31.7257C45.7188 31.6333 45.9052 31.6703 45.9976 31.8077C46.0809 31.9323 46.059 32.0964 45.952 32.1952C43.7033 34.2764 41.3386 36.2112 38.9446 38.1094C36.5395 39.993 34.106 41.8414 31.5583 43.5437C31.4286 43.6305 31.2533 43.5953 31.167 43.466C31.0884 43.3491 31.1094 43.1954 31.2095 43.1026Z" fill="white"/>
<path d="M17.1813 49.4489C19.8553 50.229 20.7105 53.8837 18.0971 56.7965C17.9665 56.9421 17.7423 56.9542 17.5966 56.8236C17.1684 56.4391 18.2393 55.2656 18.2964 52.9455C18.2831 51.107 16.8355 49.9691 16.8617 50.0013C16.6159 49.7655 16.8509 49.3535 17.1813 49.4489Z" fill="white"/>
</g>
<path d="M30.1143 47.4768C30.0267 47.4231 29.9232 47.4068 29.8235 47.4309L28.7372 47.6938L28.4743 46.6074C28.4502 46.5073 28.3888 46.4231 28.3012 46.3695C28.2135 46.3158 28.11 46.2999 28.0108 46.3239C27.9107 46.348 27.8261 46.4085 27.7728 46.497C27.7191 46.5847 27.7032 46.6882 27.7273 46.7874L27.9902 47.8742L26.9038 48.1371C26.8046 48.1611 26.7247 48.2148 26.6658 48.3102C26.6121 48.3978 26.5962 48.5009 26.6203 48.6006C26.6444 48.7002 26.7058 48.7849 26.7938 48.8381C26.881 48.8918 26.9846 48.9081 27.0838 48.8837L28.1706 48.6208L28.433 49.7071C28.4567 49.8072 28.5185 49.8914 28.6062 49.9447C28.6938 49.9984 28.7965 50.0143 28.897 49.9906C28.9932 49.9674 29.0727 49.909 29.1246 49.8321C29.1835 49.7454 29.2067 49.6354 29.1805 49.5267L28.9176 48.4404L30.0039 48.1779C30.1006 48.1543 30.1801 48.0958 30.2316 48.0198C30.29 47.9335 30.3137 47.8231 30.287 47.7144C30.263 47.6147 30.202 47.5305 30.1143 47.4768Z" fill="#0A1640"/>
<path d="M54.1085 26.1005C53.7692 25.5722 53.2666 25.2672 52.648 25.2199C51.3808 25.1211 50.4744 25.7912 45.4829 29.5241C44.2501 30.4434 42.7681 31.5516 40.964 32.8833C36.9562 35.8429 31.2903 40.0312 22.9525 46.1524C22.8881 46.1782 22.523 46.234 21.8614 46.3285C21.2515 46.4144 20.7188 46.4874 20.2549 46.5519C18.9705 46.7323 18.1844 46.8397 17.6475 46.9814C17.5272 46.9428 17.4026 46.9127 17.2737 46.8826C16.6981 46.7538 16.0839 46.685 15.4395 46.685C13.0211 46.685 10.6284 47.6043 9.04767 48.3732C6.11807 49.795 3.6438 51.7195 1.8955 53.9446C0.117117 56.2041 -0.849396 59.9455 0.993416 63.2188C2.34223 65.6114 4.91959 67.1536 7.55709 67.1536C8.11123 67.1536 8.66106 67.0848 9.19372 66.9517C11.5907 66.3503 12.8836 64.443 14.1337 62.6045C14.5933 61.9215 15.0744 61.2171 15.5899 60.6114C16.0237 60.1088 16.6981 59.7437 17.4112 59.3528C17.9825 59.0435 18.571 58.7213 19.0822 58.3003C19.9499 57.583 20.7317 56.6208 21.2772 55.5941V55.5898C23.3091 55.5211 24.718 55.5125 25.7704 55.5039C27.9569 55.491 28.4767 55.4867 29.1167 54.8338C29.5506 54.3913 29.9844 53.9575 30.4183 53.5193L32.6004 51.32C35.2207 48.6696 37.8454 46.0235 40.47 43.3774C42.5791 41.2468 44.6926 39.1205 46.806 36.9942C48.1462 35.6453 49.233 34.5543 50.1179 33.6694C53.8035 29.9752 54.0226 29.7561 54.319 28.9528C54.6068 28.1925 54.6626 26.9725 54.1085 26.1005ZM18.6011 57.7161C17.5272 58.601 15.9249 59.0649 15.0142 60.1174C13.1113 62.3382 11.9773 65.4697 9.00901 66.2171C8.5279 66.3374 8.04249 66.3975 7.55709 66.3975C5.16874 66.3975 2.85771 64.9843 1.65494 62.8451C0.0312058 59.9713 0.813006 56.5434 2.48829 54.4128C4.27096 52.1533 6.71945 50.3449 9.37842 49.0562C11.2212 48.1584 13.3948 47.4454 15.4395 47.4454C15.8777 47.4454 16.3158 47.4797 16.7368 47.5527C16.8614 47.5699 16.9859 47.5957 17.1062 47.6215C18.3348 47.8964 19.4602 48.515 20.3623 49.6146C21.7927 51.3501 21.535 53.4764 20.6071 55.2376C20.547 55.3493 20.4869 55.4609 20.4224 55.5683C19.9198 56.4146 19.2712 57.162 18.6011 57.7161ZM53.6102 28.6865C53.6102 28.6908 53.6102 28.6908 53.6102 28.6908C53.3697 29.3351 53.1549 29.5499 49.5809 33.1324C48.696 34.0216 47.6093 35.1084 46.269 36.4615C44.1556 38.5878 42.0422 40.7142 39.933 42.8448C37.3084 45.4866 34.6838 48.1369 32.0635 50.7873L29.8813 52.9867C29.4475 53.4248 29.0093 53.863 28.5798 54.3011C28.1717 54.7178 27.9182 54.7307 25.7661 54.7479C24.7738 54.7522 23.4766 54.7608 21.6381 54.8209C22.4714 52.7332 22.2351 50.6971 20.9465 49.1335C20.3837 48.4462 19.7222 47.9007 18.9705 47.5012C19.3528 47.4411 19.8081 47.3809 20.358 47.3036C20.8262 47.2392 21.3588 47.1661 21.9688 47.0759C23.2145 46.8998 23.2146 46.8998 23.4122 46.7538C31.7413 40.6411 37.4072 36.4529 41.415 33.4933C43.2192 32.1573 44.7054 31.049 45.934 30.1298C50.6248 26.6289 51.5956 25.89 52.5879 25.976C52.9659 26.006 53.2623 26.1821 53.4685 26.5043C53.8594 27.1229 53.8336 28.0937 53.6102 28.6865Z" fill="#0A1640"/>
<path d="M13.9961 51.0579C12.8534 51.0579 11.5862 51.5046 10.5037 52.063C9.00028 52.8405 7.58274 53.9101 6.50884 55.2289C5.49508 56.4746 4.91946 58.4506 5.67119 60.0786C6.22103 61.2642 7.38085 62.0374 8.65664 62.0374C8.94445 62.0374 9.24084 61.9988 9.53723 61.9129C11.1867 61.4446 11.9471 59.6319 13.0854 58.3346C13.6266 57.716 14.5201 57.4282 15.1473 56.9085C16.3887 55.8775 17.5657 53.7598 16.4703 52.2392C15.8561 51.38 14.9712 51.0579 13.9961 51.0579ZM14.6619 56.3243C14.4514 56.5004 14.1722 56.6593 13.8844 56.8269C13.4291 57.0889 12.9136 57.381 12.5141 57.832C12.1619 58.2358 11.8526 58.674 11.5519 59.0949C10.8818 60.0357 10.2503 60.9249 9.33105 61.1826C9.10768 61.247 8.88431 61.2771 8.65664 61.2771C7.69013 61.2771 6.78805 60.68 6.35849 59.7565C5.72274 58.3819 6.29406 56.6937 7.09734 55.7057C8.04237 54.5459 9.33964 53.5192 10.8517 52.7374C12.0072 52.1404 13.1241 51.8139 13.9961 51.8139C14.8294 51.8139 15.4394 52.0974 15.8561 52.6816C16.6679 53.8156 15.6241 55.5253 14.6619 56.3243Z" fill="#0A1640"/>
<path d="M75.3256 18.8667C75.2913 18.8667 75.2569 18.8796 75.2225 18.8882L69.8101 20.5807C69.7757 20.5893 69.7457 20.6021 69.7156 20.6193C68.3925 16.5084 68.298 14.1287 68.4741 12.8314C68.4956 12.6853 68.5257 12.5479 68.5687 12.419C69.0498 11.0272 70.8582 10.6106 71.9106 11.7575C72.6709 12.5951 73.7277 14.2017 74.8145 17.2945C74.9863 17.7799 75.1538 18.304 75.3256 18.8667Z" fill="#FF8CDB"/>
<path d="M103.501 69.1424C102.972 70.474 101.868 71.5651 100.399 72.0247L79.3807 78.597C76.7948 79.4046 74.037 77.9612 73.2251 75.371L62.6365 41.4916C61.9363 39.2622 62.9114 36.8567 64.9561 35.7226C66.6142 34.8077 68.4828 33.8755 70.5662 32.9949C72.2672 32.269 74.1143 31.5774 76.1032 30.9588C78.0362 30.3574 79.9005 29.8849 81.6703 29.5198C83.8997 29.0558 85.9874 28.7552 87.8817 28.5661C90.1927 28.3342 92.3363 29.7775 93.0321 31.994L103.621 65.8734C103.969 66.986 103.9 68.1372 103.501 69.1424Z" fill="#FF8CDB"/>
<path d="M81.507 25.8942C81.391 26.2465 81.1333 26.5472 80.7896 26.7104V26.7147C80.7295 26.7448 80.6651 26.7705 80.5963 26.792L69.896 30.134C69.823 30.1555 69.7542 30.1726 69.6855 30.1812C69.0154 30.2843 68.3539 29.8891 68.1434 29.219L67.2757 26.4355C67.0695 25.774 67.121 25.091 67.3788 24.5025C67.688 23.7894 68.2937 23.2138 69.0927 22.9646L69.402 22.8658L76.8634 20.5376L77.1727 20.4388C78.6332 19.9835 80.1839 20.7953 80.6436 22.2559L81.5113 25.0394C81.6015 25.3315 81.5929 25.6279 81.507 25.8942Z" fill="#FF8CDB"/>
<path d="M67.783 43.6953L76.393 71.2408C76.7483 72.3766 77.9566 73.0127 79.0963 72.6566L97.2413 66.9847C98.0644 66.7274 98.6245 66.0208 98.7379 65.221C98.7822 64.9168 98.7594 64.5968 98.6606 64.2802L90.0505 36.7347C89.6944 35.5951 88.4817 34.9602 87.3421 35.3163L69.1971 40.9882C68.0579 41.3447 67.4269 42.5561 67.783 43.6953Z" fill="white"/>
<path d="M81.6703 29.5199C79.9005 29.885 78.0362 30.3575 76.1032 30.9589C74.1143 31.5775 72.2672 32.2691 70.5661 32.995L69.6855 30.1814C69.7543 30.1728 69.823 30.1556 69.896 30.1341L80.5964 26.7922C80.6651 26.7707 80.7295 26.7449 80.7897 26.7148L81.6703 29.5199Z" fill="#6B7FFF"/>
<path d="M76.9234 20.1383C76.9234 20.2757 76.9019 20.4089 76.8633 20.5378L69.4018 22.866C69.1956 22.7113 69.0367 22.488 68.9508 22.2216C68.9121 22.0928 68.8906 21.9596 68.8906 21.8307C68.8906 21.3067 69.2085 20.817 69.7154 20.6194C69.7455 20.6022 69.7755 20.5893 69.8099 20.5807L75.2223 18.8883C75.2567 18.8797 75.2911 18.8668 75.3254 18.8668C75.987 18.7121 76.6614 19.0901 76.8633 19.7474C76.9019 19.8762 76.9234 20.0094 76.9234 20.1383Z" fill="#6B7FFF"/>
<path d="M67.7849 43.6936L67.806 43.7606C69.6406 45.17 72.3833 45.8091 74.6978 44.9994C76.1648 44.4878 77.4466 43.2778 79.0432 43.1545C80.5325 43.0406 81.9389 43.8521 83.1528 44.609C84.7839 45.6283 86.6314 46.0321 88.4274 45.1476C89.7702 44.4865 90.9622 43.1085 91.5701 41.5857L90.0533 36.733C89.6972 35.5934 88.4845 34.9585 87.3449 35.3146L69.1999 40.9865C68.0598 41.3426 67.4288 42.554 67.7849 43.6936Z" fill="#6B7FFF"/>
<path d="M73.8193 62.9968L76.3954 71.2388C76.7507 72.3745 77.959 73.0107 79.0986 72.6546L97.2437 66.9827C98.3833 66.6266 99.0182 65.4139 98.6634 64.2782L97.6457 61.023C96.6861 60.6729 95.6298 60.6557 94.726 61.1506C93.0658 62.0599 92.0619 63.782 90.4309 64.7223C88.686 65.7284 86.1108 65.5643 84.4729 64.4066C81.7361 62.4779 78.5647 59.6325 75.0101 61.8761C74.498 62.2 74.1136 62.578 73.8193 62.9968Z" fill="#6B7FFF"/>
<path d="M78.1042 21.6301C78.2589 22.3088 78.4457 22.9776 78.6343 23.6456C78.8293 24.3118 79.0261 24.9772 79.2649 25.6297C79.3388 25.8312 79.5617 25.9347 79.7632 25.8612C79.9522 25.7921 80.0549 25.5893 80.0055 25.3982C79.8302 24.7259 79.6129 24.0665 79.3938 23.408C79.1683 22.7512 78.941 22.0953 78.6816 21.4492C78.6193 21.2937 78.4427 21.2181 78.2872 21.2809C78.1468 21.3376 78.0716 21.487 78.1042 21.6301Z" fill="#D811AD"/>
<path d="M76.492 22.1343C76.6466 22.813 76.8335 23.4818 77.022 24.1502C77.2171 24.8165 77.4138 25.4819 77.6526 26.1344C77.7265 26.3358 77.9495 26.4393 78.1509 26.3659C78.3399 26.2967 78.4426 26.094 78.3932 25.9028C78.2179 25.2306 78.0006 24.5712 77.7815 23.9127C77.556 23.2559 77.3283 22.5999 77.0693 21.9539C77.007 21.7984 76.8305 21.7228 76.675 21.7855C76.5341 21.8418 76.4593 21.9913 76.492 22.1343Z" fill="#D811AD"/>
<path d="M74.8787 22.6387C75.0333 23.3174 75.2202 23.9862 75.4088 24.6546C75.6038 25.3208 75.8005 25.9862 76.0394 26.6387C76.1132 26.8402 76.3362 26.9437 76.5376 26.8703C76.7267 26.8011 76.8293 26.5984 76.7799 26.4072C76.6047 25.735 76.3873 25.0756 76.1682 24.4171C75.9427 23.7607 75.715 23.1043 75.456 22.4583C75.3937 22.3028 75.2172 22.2272 75.0617 22.2899C74.9208 22.3462 74.846 22.4956 74.8787 22.6387Z" fill="#D811AD"/>
<path d="M73.2654 23.1426C73.42 23.8213 73.6069 24.4901 73.7954 25.1585C73.9905 25.8248 74.1872 26.4902 74.4261 27.1427C74.4999 27.3441 74.7229 27.4477 74.9243 27.3742C75.1133 27.305 75.216 27.1023 75.1666 26.9111C74.9914 26.2389 74.774 25.5795 74.5549 24.921C74.3294 24.2642 74.1017 23.6082 73.8427 22.9622C73.7804 22.8067 73.6039 22.7311 73.4484 22.7938C73.3079 22.8501 73.2327 23 73.2654 23.1426Z" fill="#D811AD"/>
<path d="M71.6521 23.6469C71.8068 24.3256 71.9936 24.9945 72.1822 25.6629C72.3772 26.3291 72.574 26.9945 72.8128 27.647C72.8867 27.8485 73.1096 27.952 73.3111 27.8781C73.5001 27.8089 73.6028 27.6062 73.5534 27.415C73.3781 26.7428 73.1607 26.0834 72.9417 25.4249C72.7161 24.7685 72.4889 24.1121 72.2295 23.4661C72.1672 23.3106 71.9906 23.235 71.8351 23.2977C71.6942 23.3544 71.6195 23.5043 71.6521 23.6469Z" fill="#D811AD"/>
<path d="M70.0388 24.1511C70.1935 24.8298 70.3803 25.4987 70.5689 26.1671C70.7639 26.8333 70.9607 27.4987 71.1995 28.1512C71.2734 28.3527 71.4963 28.4562 71.6978 28.3827C71.8868 28.3136 71.9895 28.1108 71.9401 27.9197C71.7648 27.2474 71.5475 26.588 71.3284 25.9295C71.1029 25.2727 70.8756 24.6168 70.6162 23.9707C70.5539 23.8152 70.3773 23.7396 70.2218 23.8023C70.0809 23.8586 70.0062 24.0085 70.0388 24.1511Z" fill="#D811AD"/>
<path d="M68.4255 24.6555C68.5802 25.3342 68.767 26.0031 68.9556 26.6715C69.1506 27.3377 69.3474 28.0031 69.5862 28.6556C69.6601 28.8571 69.883 28.9606 70.0845 28.8871C70.2735 28.818 70.3762 28.6152 70.3268 28.4241C70.1515 27.7518 69.9342 27.0924 69.7151 26.4339C69.4896 25.7775 69.2619 25.1212 69.0029 24.4751C68.9406 24.3196 68.7636 24.244 68.6085 24.3067C68.4681 24.363 68.3929 24.5129 68.4255 24.6555Z" fill="#D811AD"/>
<g opacity="0.5">
<path d="M71.5153 14.1116C71.9342 14.6039 72.9909 16.3354 72.966 16.3002C73.1155 16.5111 73.4488 16.3784 73.4118 16.1219C72.8951 12.5819 69.4861 11.5265 69.4844 12.2894C69.4844 12.3779 69.5351 12.4548 69.609 12.4922C69.6523 12.5222 70.5548 12.8874 71.5153 14.1116Z" fill="white"/>
<path d="M83.904 31.452C87.0823 30.0766 90.8577 30.5169 92.0845 33.7648L92.0755 33.7687L92.0854 33.7665L92.0759 33.7699C92.5433 34.6106 93.6107 38.7597 93.8032 40.2099C93.8805 40.7924 93.0635 41.0093 92.8401 40.4676C90.7731 35.4512 90.8706 33.3967 88.8422 32.4946C87.6532 31.9658 86.0934 31.9224 84.206 32.3662C83.6359 32.4993 83.3649 31.6849 83.904 31.452Z" fill="white"/>
</g>
<path d="M91.2831 52.7204C90.1139 52.0271 88.2835 52.5503 87.4025 53.5073C86.5305 54.4549 87.0223 55.8012 88.7912 55.7651C91.2148 55.7157 92.7999 53.6199 91.2831 52.7204Z" fill="#FF8CDB"/>
<path d="M75.8792 57.5352C76.4454 56.2994 78.2482 55.6872 79.5176 55.972C80.7741 56.2543 81.1366 57.6409 79.6619 58.619C77.6413 59.9584 75.1451 59.1388 75.8792 57.5352Z" fill="#FF8CDB"/>
<path d="M87.2663 41.7338C87.4377 42.2824 87.1323 42.8661 86.5838 43.0375C86.0352 43.2089 85.4514 42.9031 85.28 42.355C85.1087 41.8064 85.4145 41.2226 85.9626 41.0512C86.5112 40.8794 87.0949 41.1853 87.2663 41.7338Z" fill="#332FBA"/>
<path d="M75.1384 42.0168C75.3098 42.5654 75.004 43.1492 74.4559 43.3206C73.9073 43.492 73.3235 43.1861 73.1522 42.638C72.9808 42.0895 73.2862 41.5057 73.8347 41.3343C74.3833 41.1629 74.9671 41.4683 75.1384 42.0168Z" fill="#332FBA"/>
<path d="M78.7595 63.8984C78.9309 64.4469 78.6255 65.0307 78.0769 65.2021C77.5284 65.3735 76.9446 65.0681 76.7732 64.5195C76.6018 63.971 76.9077 63.3872 77.4558 63.2158C78.0043 63.044 78.5881 63.3498 78.7595 63.8984Z" fill="#332FBA"/>
<path d="M85.3601 67.0426C85.5315 67.5912 85.2257 68.175 84.6775 68.3464C84.129 68.5178 83.5452 68.2119 83.3738 67.6638C83.2024 67.1152 83.5079 66.5315 84.0564 66.3601C84.605 66.1883 85.1887 66.4941 85.3601 67.0426Z" fill="#332FBA"/>
<path d="M81.4618 39.7101C81.6083 40.1784 81.3471 40.6767 80.8789 40.8227C80.4106 40.9692 79.9124 40.708 79.7663 40.2398C79.6198 39.7716 79.881 39.2733 80.3492 39.1272C80.8174 38.9812 81.3153 39.2419 81.4618 39.7101Z" fill="#332FBA"/>
<path d="M80.6454 67.9531C80.7919 68.4213 80.5307 68.9196 80.0625 69.0656C79.5942 69.2117 79.096 68.9509 78.9499 68.4827C78.8034 68.0145 79.0646 67.5162 79.5328 67.3702C80.001 67.2241 80.4993 67.4849 80.6454 67.9531Z" fill="#332FBA"/>
<path d="M90.8768 67.1406C91.0233 67.6088 90.7621 68.1071 90.2939 68.2531C89.8257 68.3996 89.3274 68.1384 89.1813 67.6702C89.0349 67.202 89.2961 66.7037 89.7643 66.5577C90.2325 66.4116 90.7304 66.6723 90.8768 67.1406Z" fill="#332FBA"/>
<path d="M87.7645 37.3679C87.911 37.8361 87.6498 38.3344 87.1816 38.4804C86.7134 38.6269 86.2151 38.3657 86.069 37.8975C85.9226 37.4293 86.1837 36.931 86.652 36.7849C87.1197 36.6389 87.618 36.8996 87.7645 37.3679Z" fill="#332FBA"/>
<g opacity="0.5">
<path d="M75.3256 18.8666C75.2913 18.8666 75.2569 18.8795 75.2225 18.8881L69.8101 20.5806C69.7757 20.5892 69.7457 20.6021 69.7156 20.6192C68.3925 16.5084 68.298 14.1286 68.4741 12.8313C68.4956 12.6853 68.5257 12.5478 68.5687 12.4189C68.7276 12.4791 68.8779 12.5607 69.0154 12.6638C69.6941 13.1621 69.969 14.0427 70.1408 14.8674C70.3213 15.6965 70.4544 16.5728 70.9785 17.2386C71.2706 17.6166 71.6915 17.9087 72.1641 17.9689C72.9158 18.0677 73.6117 17.5994 74.3419 17.3889C74.4966 17.3417 74.6555 17.3159 74.8145 17.2944C74.9863 17.7798 75.1538 18.3039 75.3256 18.8666Z" fill="#D811AD"/>
<path d="M63.1982 43.293L73.225 75.3708C74.0352 77.9628 76.7912 79.4031 79.3798 78.5943L100.396 72.025C101.871 71.5641 102.974 70.4752 103.502 69.1409C103.324 68.0357 102.894 67.0129 101.919 66.2998C101.023 65.6439 99.9192 65.3183 98.74 65.2208C98.6262 66.021 98.0665 66.7272 97.2435 66.9845L79.0984 72.6565C77.9588 73.0126 76.75 72.3764 76.3952 71.2406L67.8676 43.9597C66.4496 43.0087 64.8757 43.2187 63.1982 43.293Z" fill="#D811AD"/>
<path d="M67.2746 26.4346L68.1449 29.2186C68.3756 29.9561 69.1578 30.3659 69.8954 30.1353L80.5953 26.7907C81.0407 26.6515 81.3689 26.3092 81.5064 25.8955C81.0914 25.1077 80.4926 24.4011 79.6455 24.2271C79.0695 24.1103 78.4737 24.2662 77.9243 24.4715C76.9603 24.8302 76.0617 25.344 75.1338 25.7959C74.209 26.2469 73.2352 26.6391 72.2081 26.7306C71.181 26.8221 70.09 26.5798 69.3279 25.8904C69.0354 25.624 68.7983 25.307 68.5161 25.0308C68.2321 24.7585 67.8829 24.5269 67.4872 24.5025C67.4494 24.5007 67.4159 24.5012 67.3794 24.5025C67.1204 25.0897 67.068 25.7739 67.2746 26.4346Z" fill="#D811AD"/>
</g>
<g opacity="0.18">
<path d="M67.8682 43.96L76.3958 71.2409C76.751 72.3766 77.9594 73.0128 79.099 72.6567L97.244 66.9848C98.0671 66.7275 98.6272 66.0209 98.7406 65.221C96.3665 65.0148 93.6791 65.7034 91.6761 66.3581C87.8612 67.612 82.3576 72.0957 79.0771 67.3688C74.2141 60.3649 75.5753 49.3385 67.9399 44.0064C67.918 43.9892 67.8935 43.9767 67.8682 43.96Z" fill="#0A1640"/>
</g>
<path d="M84.7849 51.814C84.5873 51.8827 84.4842 52.0975 84.5529 52.2951C84.7677 52.9223 84.7076 53.674 84.4026 54.2067C84.2479 54.4859 83.9429 54.8381 83.3974 54.9498C82.3321 55.1732 81.4558 54.2883 81.168 53.3476C81.1079 53.1457 80.8974 53.034 80.6955 53.0941C80.4936 53.1543 80.3819 53.3647 80.442 53.5666C80.7857 54.6921 81.7866 55.7445 83.0624 55.7445C83.2213 55.7445 83.3845 55.7273 83.5521 55.6929C84.2007 55.5598 84.7248 55.1732 85.0641 54.5804C85.4765 53.8544 85.5538 52.8836 85.266 52.0503C85.2016 51.8527 84.9868 51.7453 84.7849 51.814Z" fill="#0A1640"/>
<path d="M77.2804 52.6905C77.1773 52.7506 77.0871 52.8236 77.0141 52.9052L76.2624 52.4843C76.082 52.3812 75.85 52.4456 75.7469 52.626C75.6438 52.8107 75.7082 53.0427 75.8929 53.1415L76.5244 53.498L75.7684 53.5324C75.5622 53.541 75.399 53.7171 75.4076 53.9276C75.4161 54.1295 75.5837 54.2884 75.7856 54.2884H75.8027L76.8208 54.2412C76.9497 54.5461 77.1945 54.8039 77.5425 54.9242C78.728 55.3322 79.8363 54.0178 79.0287 53.0212C78.5691 52.4542 77.8131 52.3812 77.2804 52.6905Z" fill="#0A1640"/>
<path d="M89.0926 49.3656L88.4568 49.7651L88.7704 49.1165C88.8649 48.9275 88.7833 48.6998 88.5986 48.6096C88.4096 48.5194 88.1819 48.5967 88.0917 48.7857L87.7137 49.5632C87.6063 49.5375 87.4903 49.5289 87.3701 49.5375C86.7558 49.5847 86.1759 50.0744 86.1243 50.8047C86.0255 52.0805 87.6879 52.5315 88.4268 51.522C88.6459 51.2256 88.7017 50.8734 88.6373 50.5469L89.4964 50.01C89.6725 49.8983 89.7283 49.6663 89.6167 49.4859C89.505 49.3098 89.273 49.2582 89.0926 49.3656Z" fill="#0A1640"/>
<path d="M103.981 65.7575L93.3925 31.8781C92.6451 29.4941 90.3083 27.9477 87.8426 28.1882C85.8538 28.3858 83.8821 28.6865 81.9276 29.0774L81.3606 27.2561C81.7601 26.994 82.0693 26.5988 82.224 26.1349C82.3657 25.7053 82.37 25.25 82.2326 24.8162L81.3649 22.0283C80.9009 20.5506 79.5478 19.554 78.0014 19.554C77.8682 19.554 77.7351 19.5626 77.6019 19.5798C77.5976 19.5583 77.589 19.5412 77.5847 19.5197C77.3399 18.7379 76.6741 18.188 75.8794 18.0892C75.7634 17.7327 75.6474 17.3848 75.5271 17.0454C74.6036 14.4036 73.5726 12.4534 72.4687 11.2464C71.9317 10.6622 71.2058 10.3357 70.4326 10.3357C69.2684 10.3357 68.2332 11.0745 67.8552 12.1699C67.7951 12.3417 67.7521 12.5265 67.722 12.7283C67.5502 14.0213 67.6146 16.3581 68.8174 20.2972C68.2375 20.817 67.9798 21.6546 68.2289 22.4493C68.2332 22.4665 68.2418 22.4837 68.2461 22.5008C67.5588 22.8746 67.0047 23.4673 66.6825 24.1976C66.3431 24.9708 66.2959 25.8471 66.5493 26.659L67.4213 29.4425C67.7048 30.3489 68.5296 30.9589 69.4746 30.9589H69.5305L70.1018 32.7759C68.2848 33.5577 66.5064 34.434 64.771 35.3919C62.5802 36.6076 61.5278 39.2236 62.2752 41.6077L72.8639 75.4871C73.5683 77.7465 75.6646 79.1985 77.9155 79.1985C78.4396 79.1985 78.9679 79.1211 79.492 78.9579L100.51 72.3899C102.04 71.9088 103.26 70.7791 103.852 69.2799C104.299 68.1631 104.342 66.9087 103.981 65.7575ZM68.4738 12.8314C68.4952 12.6854 68.5253 12.5479 68.5683 12.4191C68.8604 11.5771 69.6336 11.096 70.4326 11.096C70.9566 11.096 71.4936 11.3022 71.9102 11.7575C72.6706 12.5952 73.7273 14.2017 74.8141 17.2946C74.9086 17.5609 75.0031 17.8444 75.0976 18.1365C75.0632 18.1451 75.0331 18.158 74.9988 18.1666L69.582 19.859C69.552 19.8676 69.5176 19.8805 69.4875 19.8934C68.3835 16.225 68.3062 14.0514 68.4738 12.8314ZM69.7152 20.6194C69.7453 20.6022 69.7753 20.5893 69.8097 20.5807L75.2221 18.8882C75.2565 18.8796 75.2909 18.8667 75.3252 18.8667C75.4198 18.841 75.5185 18.8281 75.613 18.8281C75.7978 18.8281 75.9739 18.8668 76.1371 18.9398C76.4722 19.0858 76.7428 19.3693 76.8631 19.7431L75.8536 20.0566L69.9514 21.9037L68.9506 22.2173C68.8346 21.8436 68.8947 21.457 69.088 21.1477C69.2255 20.9115 69.4403 20.7225 69.7152 20.6194ZM69.4746 30.199C69.4145 30.199 69.3501 30.1947 69.2899 30.1861C68.7702 30.1174 68.3105 29.7522 68.143 29.2196L67.2753 26.436C67.0691 25.7745 67.1207 25.0915 67.3784 24.503C67.6232 23.9403 68.0528 23.4592 68.6198 23.1628C68.7659 23.0812 68.9248 23.0167 69.0923 22.9652L69.4016 22.8664L76.8631 20.5382L77.1724 20.4394C77.3356 20.3878 77.4988 20.3535 77.6663 20.3363C77.778 20.3191 77.8897 20.3148 78.0014 20.3148C79.1784 20.3148 80.2695 21.0708 80.6432 22.2564L81.5109 25.04C81.6011 25.3321 81.5925 25.6285 81.5066 25.8948C81.4293 26.1225 81.2961 26.3286 81.12 26.4876C80.974 26.625 80.7978 26.7281 80.5959 26.7926L80.4327 26.8441L70.0545 30.083L69.8956 30.1345C69.7538 30.1771 69.6164 30.199 69.4746 30.199ZM70.2822 30.8085L80.6604 27.5653L81.1844 29.232C79.4318 29.61 77.6964 30.0654 75.9911 30.598C74.2385 31.1436 72.5073 31.7707 70.802 32.4795L70.2822 30.8085ZM103.148 69.0007C102.641 70.2851 101.593 71.2559 100.283 71.664L79.2686 78.2362C76.8803 78.9794 74.333 77.6477 73.5855 75.2594L62.9969 41.38C62.3568 39.3353 63.2589 37.0973 65.1404 36.0534C66.8242 35.1213 68.5597 34.2708 70.3295 33.5062C71.3905 33.0422 72.4687 32.617 73.5555 32.2218C74.436 31.8996 75.3209 31.5989 76.2144 31.324C77.0349 31.0705 77.8596 30.8343 78.6887 30.6152C79.8313 30.3102 80.9911 30.0439 82.1553 29.8076C84.0582 29.4253 85.9826 29.1375 87.9199 28.9442C90.0334 28.7338 92.0308 30.0611 92.6666 32.1058L103.26 65.9852C103.569 66.9732 103.53 68.0428 103.148 69.0007Z" fill="#0A1640"/>
<path d="M68.4478 8.67291C68.4869 9.1059 68.1707 9.48865 67.7416 9.52731C67.0547 9.59389 66.8713 8.87566 66.8988 8.91475C66.7076 8.16173 66.3563 7.48259 65.8842 6.91299C63.9799 4.58736 60.1715 4.04483 57.7913 7.56078C56.851 8.95384 55.9223 10.9126 54.771 12.2395C52.1451 15.6305 47.5055 15.4355 45.3241 12.8637C43.8881 11.2172 43.697 9.09044 43.139 7.33053C43.014 6.85845 42.5303 6.0934 42.5105 6.05474C41.5702 4.70463 40.1733 3.85411 38.5736 3.63159C36.3223 3.30384 33.6805 4.21321 31.3901 6.67116C29.2281 8.93451 27.57 12.4462 27.57 12.45C27.1602 13.2615 25.9235 12.7426 26.2122 11.8843C30.6607 -1.43721 41.1883 -1.219 45.0282 4.34165C46.3547 6.54658 45.8633 6.10929 46.1949 6.81162C46.511 7.78715 46.819 9.83959 47.6893 10.8387C48.4423 11.7477 49.8861 11.9118 50.9123 11.4552C53.2104 10.7528 54.463 6.30045 57.3544 4.0298C57.3935 4.00231 58.0529 3.55771 58.0529 3.55771C58.1113 3.52635 58.802 3.187 58.802 3.187C62.9615 1.3764 68.0187 4.12344 68.4478 8.67291Z" fill="white"/>
<g opacity="0.18">
<path d="M65.8838 6.91344C63.9796 4.5878 60.1711 4.04526 57.7909 7.56121C56.8506 8.95428 55.9219 10.9131 54.7707 12.24C52.1448 15.6309 47.5051 15.4359 45.3238 12.8641C43.8878 11.2176 43.6966 9.09088 43.1386 7.33098C43.0136 6.85889 42.5299 6.09384 42.5102 6.05518C41.5699 4.70508 40.1729 3.85454 38.5732 3.63203C39.1742 3.35496 39.9349 3.3395 40.688 3.52292C45.3315 4.64278 44.3367 10.133 47.7001 12.4586C50.6344 14.4917 53.7169 12.3298 54.8329 9.50498C57.3966 3.02765 62.7347 3.37859 64.7755 5.23987C65.2476 5.66858 65.6183 6.23817 65.8838 6.91344Z" fill="#0A1640"/>
</g>
<path d="M38.0565 0.757747C40.9028 0.757747 43.4947 2.12504 45.0253 4.34028C46.353 6.5465 45.8625 6.11006 46.1928 6.81368C46.5098 7.78835 46.8174 9.84165 47.6864 10.8369C48.1739 11.425 48.948 11.7012 49.7113 11.7012C50.131 11.7012 50.5473 11.6179 50.9111 11.4568C53.2088 10.7515 54.4618 6.30208 57.3541 4.02971C57.3923 4.00393 58.0517 3.55632 58.0521 3.55632C58.0521 3.55632 58.0513 3.55676 58.05 3.55762C58.0882 3.53872 58.7557 3.2071 58.7983 3.18562C59.681 2.8016 60.6041 2.62247 61.5148 2.62247C64.8967 2.62247 68.1081 5.08857 68.4466 8.67325C68.4874 9.10453 68.1708 9.48726 67.7395 9.52764C67.7099 9.53064 67.6811 9.53194 67.6536 9.53194C67.0561 9.53194 66.883 8.91252 66.8972 8.91252C66.8976 8.91252 66.898 8.91295 66.8989 8.91424C66.3241 6.64229 64.2575 5.04475 62.0547 5.04475C60.5539 5.04475 58.9903 5.78618 57.7909 7.56069C56.8485 8.95504 55.9206 10.913 54.7715 12.2399C53.4098 13.9963 51.5073 14.791 49.6869 14.791C47.9944 14.791 46.3728 14.1046 45.3217 12.8653C43.8856 11.2193 43.6949 9.09121 43.1369 7.33044C43.0124 6.86093 42.5304 6.09632 42.5093 6.0568C41.4024 4.45798 39.6493 3.56535 37.6884 3.56492C35.6493 3.56492 33.3859 4.53056 31.3902 6.67235C29.2256 8.9327 27.5671 12.4517 27.5688 12.4517C27.5688 12.4517 27.5688 12.4517 27.5688 12.4512C27.4245 12.7365 27.1788 12.8576 26.9326 12.8576C26.4777 12.8576 26.0228 12.4426 26.2101 11.8838C28.8871 3.87163 33.7609 0.757747 38.0565 0.757747ZM58.0517 3.55632H58.0538H58.0517ZM38.0565 0C32.6247 0 27.9275 4.35274 25.4919 11.6432C25.3364 12.1072 25.4047 12.5934 25.6805 12.977C25.9635 13.3705 26.4434 13.6149 26.9331 13.6149C27.4941 13.6149 27.9846 13.3078 28.2449 12.7932C28.2497 12.7833 28.2544 12.7738 28.2591 12.7635C28.3094 12.6574 29.8953 9.32876 31.9374 7.19556C33.6668 5.33986 35.7064 4.32181 37.6884 4.32181C39.3946 4.32181 40.9178 5.10318 41.8719 6.46617C41.8753 6.47218 41.8796 6.47905 41.8835 6.48593C42.2787 7.14058 42.3796 7.42968 42.4045 7.52375C42.4075 7.53535 42.411 7.54651 42.4144 7.55811C42.548 7.97908 42.6601 8.42625 42.7791 8.8992C43.1434 10.3494 43.5562 11.9933 44.7504 13.3619C45.9261 14.7481 47.7276 15.5475 49.6869 15.5475C51.8905 15.5475 53.9563 14.517 55.3575 12.7193C56.1234 11.8309 56.7712 10.7235 57.3975 9.65265C57.751 9.04826 58.0852 8.47694 58.4185 7.9838C59.3696 6.57656 60.6608 5.80121 62.0543 5.80164C63.9336 5.80164 65.6467 7.16163 66.1493 9.04353C66.1905 9.28967 66.3366 9.54655 66.4642 9.70849C66.7597 10.0826 67.182 10.2888 67.6532 10.2888C67.7039 10.2888 67.7563 10.2867 67.8104 10.2815C68.6566 10.2016 69.2804 9.44774 69.2005 8.6015C68.8435 4.82352 65.4672 1.86429 61.5144 1.86429C60.4718 1.86429 59.4615 2.07263 58.5122 2.48329C58.4976 2.4893 58.4834 2.49574 58.4692 2.50261C58.4675 2.50347 58.4649 2.50477 58.4628 2.50563C58.4619 2.50606 58.4615 2.50648 58.4606 2.50691L58.0212 2.72556L57.7394 2.86559C57.6917 2.8875 57.6462 2.91371 57.6041 2.94464C57.5568 2.97643 57.4821 3.02668 57.3584 3.11088L56.9288 3.40254C56.9142 3.41242 56.8996 3.42273 56.8858 3.4339C55.4326 4.57567 54.3841 6.19941 53.4592 7.63199C52.5275 9.07488 51.6469 10.4383 50.689 10.7326C50.6602 10.7412 50.6323 10.7519 50.6044 10.7639C50.3389 10.8816 50.0301 10.9435 49.7113 10.9435C49.1151 10.9435 48.576 10.7227 48.2697 10.3533C47.7285 9.73297 47.4098 8.46792 47.1769 7.54394C47.0872 7.1874 47.0021 6.85063 46.9136 6.57914C46.9037 6.54908 46.8926 6.51986 46.8788 6.49151C46.8127 6.35062 46.8032 6.30551 46.7847 6.2153C46.7036 5.82612 46.5828 5.45799 45.6748 3.94937C45.6666 3.93563 45.658 3.92232 45.649 3.90943C43.9574 1.46137 41.1193 0 38.0565 0Z" fill="#0A1640"/>
<path d="M52.9284 68.7214C52.721 70.5595 52.7412 74.4388 53.4151 76.3882C53.739 77.3251 54.7609 77.8221 55.6978 77.4986C56.5556 77.2022 57.0445 76.3199 56.8722 75.4539C56.4702 73.4199 54.5131 70.0393 53.4302 68.5857C53.279 68.3825 52.9577 68.4705 52.9284 68.7214Z" fill="#E38921"/>
<path d="M56.8819 67.8162C57.4812 69.1616 59.0602 71.8158 60.309 72.882C60.9091 73.3945 61.8111 73.3232 62.3236 72.7231C62.7931 72.1732 62.7725 71.3708 62.3051 70.8459C61.2085 69.6122 58.5014 68.0812 57.1719 67.5202C56.9859 67.4421 56.8007 67.6323 56.8819 67.8162Z" fill="#E38921"/>
<path d="M49.4174 69.2746C49.5643 70.7398 49.5093 73.8279 48.9534 75.373C48.6863 76.1158 47.8679 76.5011 47.1252 76.2343C46.4452 75.9899 46.0646 75.2824 46.2107 74.5947C46.5513 72.9795 48.1424 70.3077 49.0192 69.1616C49.142 69.001 49.3967 69.0744 49.4174 69.2746Z" fill="#E38921"/>
<path d="M12.0319 15.3352C12.1368 13.488 11.9005 9.61599 11.1196 7.70703C10.7441 6.78949 9.696 6.35005 8.77846 6.72548C7.93825 7.06913 7.49922 7.97722 7.71959 8.83247C8.23463 10.8411 10.3764 14.1075 11.5384 15.4984C11.7008 15.6934 12.0169 15.5873 12.0319 15.3352Z" fill="#E38921"/>
<path d="M8.13527 16.4589C7.46215 15.1492 5.73789 12.5869 4.4316 11.5916C3.80358 11.1135 2.9071 11.2346 2.429 11.8622C1.99085 12.437 2.05613 13.2377 2.55228 13.7355C3.71595 14.9065 6.5038 16.2841 7.8625 16.7699C8.05236 16.8382 8.22677 16.6381 8.13527 16.4589Z" fill="#E38921"/>
<path d="M15.507 14.5877C15.279 13.1328 15.1621 10.0464 15.6308 8.47248C15.8563 7.71602 16.6518 7.2856 17.4083 7.51112C18.1007 7.71731 18.52 8.40246 18.4126 9.09706C18.1626 10.729 16.7223 13.485 15.9108 14.6783C15.7979 14.845 15.5393 14.7861 15.507 14.5877Z" fill="#E38921"/>
</svg>
