<svg width="69" height="69" viewBox="0 0 69 69" fill="none" xmlns="http://www.w3.org/2000/svg">
<path d="M22.623 1.25075L22.9568 22.8008L45.676 22.449L45.342 0.898954L22.623 1.25075Z" fill="#FCD5B5"/>
<path d="M46.376 67.75L46.0443 46.332L23.3253 46.6838L23.657 68.1018L46.376 67.75Z" fill="#F9AD8D"/>
<path d="M67.75 22.6896L46.2666 23.0219L46.6184 45.741L68.1018 45.4081L67.75 22.6896Z" fill="#FCD5B5"/>
<path d="M1.253 46.4434L22.7369 46.1111L22.3849 23.3914L0.901257 23.7243L1.253 46.4434Z" fill="#FCD5B5"/>
<path d="M46.0378 45.75L45.6854 23.0309L22.9666 23.3827L23.3187 46.1018L46.0378 45.75Z" fill="#FCD5B5"/>
<path d="M65.7811 0.582304L45.924 0.889908L46.2581 22.4399L67.7415 22.1071L67.4333 2.18464C67.4196 1.28705 66.6781 0.568531 65.7811 0.582304Z" fill="#FCD5B5"/>
<path d="M3.22039 68.4188L23.0772 68.1111L22.7456 46.6931L1.26172 47.0254L1.56818 66.8164C1.58207 67.714 2.32321 68.4325 3.22039 68.4188Z" fill="#F9AD8D"/>
<path d="M0.583206 3.21988L0.891909 23.1423L22.3755 22.8095L22.042 1.25942L2.18497 1.56706C1.28779 1.58083 0.569317 2.3223 0.583206 3.21988Z" fill="#FCD5B5"/>
<path d="M68.4186 65.7809L68.1121 45.9898L46.6281 46.3227L46.9598 67.7407L66.8168 67.4337C67.7138 67.4193 68.4323 66.6784 68.4186 65.7809Z" fill="#F9AD8D"/>
<path d="M22.041 1.25932L22.3746 22.8094L0.890965 23.1422L0.582262 3.21978C0.568373 2.3222 1.28684 1.58073 2.18403 1.56695L22.041 1.25932ZM67.7412 22.1069L46.2577 22.4398L45.9237 0.889732L65.7807 0.582123C66.6777 0.568352 67.4192 1.28687 67.433 2.18446L67.7412 22.1069ZM46.959 67.7407L46.6273 46.3227L68.1113 45.9899L68.4178 65.7809C68.4316 66.6785 67.7131 67.4194 66.816 67.4337L46.959 67.7407ZM1.26061 47.0252L22.7445 46.6929L23.0761 68.1109L3.21929 68.4185C2.32211 68.4323 1.58097 67.7138 1.56708 66.8162L1.26061 47.0252ZM22.7355 46.1109L1.25166 46.4432L0.899918 23.7242L22.3836 23.3913L22.7355 46.1109ZM46.0454 46.3319L46.3771 67.7499L23.658 68.1017L23.3263 46.6837L46.0454 46.3319ZM46.2669 23.0217L67.7504 22.6894L68.1022 45.4079L46.6187 45.7408L46.2669 23.0217ZM22.9566 22.8008L22.6228 1.25072L45.3418 0.898918L45.6758 22.449L22.9566 22.8008ZM45.6844 23.0309L46.0368 45.75L23.3177 46.1018L22.9655 23.3827L45.6844 23.0309ZM0.674144 46.7434C0.777963 53.4374 0.881551 60.1314 0.985083 66.8254C1.00391 68.0432 2.0103 69.0194 3.22824 69.0005C10.4829 68.888 17.7433 68.8375 24.9946 68.6791C37.1596 68.4122 49.3292 68.2865 61.4971 68.0977C63.2728 68.0702 65.049 68.0432 66.8252 68.0157C68.043 67.9967 69.0187 66.9901 68.9997 65.7723C68.7621 50.4296 68.5246 35.0869 68.2869 19.7442C68.221 15.4697 68.1544 11.1953 68.0884 6.92086C68.0637 5.33918 68.0396 3.75694 68.0149 2.17526C67.996 0.957443 66.9899 -0.0187607 65.7721 0.000183105L2.17507 0.985008C0.957079 1.00394 -0.0185561 2.01056 0.000267879 3.22838C0.117975 10.8268 0.221336 18.4259 0.350865 26.0244C0.452216 31.9631 0.537211 37.9018 0.629322 43.8406C0.644358 44.8082 0.659165 45.7758 0.674144 46.7434Z" fill="#040606"/>
<path d="M46.5979 44.39L46.6191 45.741L68.1026 45.4081L68.0435 41.5733C61.7724 42.9489 54.1785 44.1891 46.5979 44.39Z" fill="#F9AD8D"/>
<path d="M46.0177 44.4022C37.7913 44.5617 29.6247 43.4673 23.2246 39.963L23.3198 46.1021L46.0389 45.7503L46.0177 44.4022Z" fill="#F9AD8D"/>
<path d="M22.482 39.5462C15.6523 35.5163 11.2149 29.6435 8.33013 23.6095L0.901257 23.7243L1.253 46.4434L22.7369 46.1111L22.6364 39.6329C22.5856 39.603 22.5329 39.576 22.482 39.5462Z" fill="#F9AD8D"/>
<path d="M3.04852 1.55385L2.18497 1.56705C1.28779 1.58083 0.569317 2.3223 0.583206 3.21988L0.891909 23.1423L8.05645 23.0316C4.13061 14.5171 3.23906 5.79212 3.04852 1.55385Z" fill="#F9AD8D"/>
<path d="M8.51701 54.4039C9.59618 52.4463 12.1057 51.7037 14.1805 52.4245C15.2462 52.7946 16.175 53.5597 16.739 54.5347C17.4636 55.7875 17.0556 57.057 16.5119 58.3035C16.0048 59.4657 15.2612 60.5739 14.0634 61.103C11.5459 62.2153 8.77056 60.7248 8.03901 58.1446C7.68393 56.8923 7.89244 55.5367 8.51701 54.4039ZM8.67076 62.1923C10.7758 63.778 13.8471 63.8721 15.9878 62.2847C17.1165 61.4479 17.9043 60.2537 18.4511 58.9739C19.0487 57.5753 19.5612 56.09 19.0467 54.5801C17.5822 50.2838 11.1045 48.6149 7.91418 52.0095C7.01608 52.9651 6.3689 54.1921 6.11288 55.4799C5.60532 58.0332 6.59082 60.625 8.67076 62.1923Z" fill="#040606"/>
<path d="M29.7591 9.35046C30.8386 7.3923 33.3483 6.65025 35.4229 7.37049C36.4887 7.74066 37.4172 8.50569 37.9814 9.48132C38.7062 10.7342 38.2976 12.0036 37.7541 13.2495C37.2474 14.4123 36.5036 15.5199 35.3059 16.0496C32.7881 17.1618 30.0128 15.6714 29.2816 13.0912C28.9264 11.8389 29.1347 10.4833 29.7591 9.35046ZM29.9135 17.1383C32.018 18.7246 35.0895 18.8187 37.2302 17.2313C38.359 16.3946 39.1464 15.2003 39.6933 13.9199C40.2914 12.5213 40.8038 11.036 40.2891 9.52666C38.8245 5.23043 32.3468 3.56152 29.1565 6.95615C28.2583 7.9117 27.6116 9.13869 27.355 10.4265C26.8477 12.9798 27.8331 15.571 29.9135 17.1383Z" fill="#040606"/>
<path d="M53.2436 54.555C54.3226 52.5974 56.8322 51.8553 58.9069 52.5756C59.9726 52.9458 60.9018 53.7108 61.4654 54.6864C62.1902 55.9392 61.7821 57.2087 61.2387 58.4546C60.7313 59.6174 59.9881 60.725 58.7898 61.2547C56.2727 62.3669 53.4973 60.8765 52.7656 58.2957C52.4103 57.0434 52.6192 55.6884 53.2436 54.555ZM53.3974 62.3434C55.5025 63.9297 58.5735 64.0238 60.7147 62.4364C61.8436 61.5991 62.631 60.4053 63.1779 59.125C63.7753 57.7264 64.2878 56.2411 63.7736 54.7317C62.309 50.4355 55.8314 48.7666 52.6405 52.1612C51.7429 53.1168 51.0955 54.3432 50.8396 55.631C50.3317 58.1849 51.3176 60.7761 53.3974 62.3434Z" fill="#040606"/>
<path d="M52.1177 9.00371C53.1966 7.04612 55.7063 6.30408 57.7809 7.02433C58.8467 7.3945 59.7752 8.1595 60.3394 9.13513C61.0642 10.388 60.6562 11.6574 60.1121 12.9034C59.6054 14.0661 58.8616 15.1737 57.6638 15.7035C55.1467 16.8157 52.3713 15.3253 51.6396 12.7444C51.2843 11.4922 51.4933 10.1372 52.1177 9.00371ZM52.2715 16.7921C54.3765 18.3784 57.4475 18.4725 59.5881 16.8851C60.717 16.0478 61.505 14.8535 62.0519 13.5737C62.6493 12.1751 63.1618 10.6898 62.647 9.17991C61.1824 4.88425 54.7048 3.21533 51.5145 6.60996C50.6163 7.56551 49.9695 8.79194 49.7136 10.0798C49.2057 12.6336 50.1916 15.2248 52.2715 16.7921Z" fill="#040606"/>
<path d="M28.5811 53.4592C29.0723 53.9338 29.567 54.4044 30.0652 54.8716C30.9427 55.6934 31.8402 56.494 32.7453 57.2854C32.1008 58.0131 31.4563 58.7408 30.8021 59.4594C30.3418 59.9644 29.8781 60.466 29.4103 60.9636C28.8944 61.5128 28.3808 62.0195 28.1512 62.7559C27.9452 63.417 28.6534 64.0953 29.3042 63.8744C29.9997 63.6385 30.4715 63.1524 30.9714 62.6353C31.446 62.1441 31.9166 61.65 32.3837 61.1512C33.1086 60.3776 33.815 59.5868 34.5158 58.7908C36.1359 60.1595 37.779 61.5007 39.4611 62.792C39.9575 63.1731 40.6296 63.2529 41.1007 62.7668C41.4979 62.357 41.5754 61.5105 41.0755 61.1271C39.3555 59.8066 37.6763 58.4355 36.0217 57.0346C37.4897 55.3083 38.9239 53.5533 40.3042 51.7553C40.6847 51.2589 40.7644 50.5868 40.2783 50.1157C39.8691 49.7185 39.0221 49.6416 38.6387 50.1409C37.2298 51.9768 35.7652 53.7691 34.2638 55.5304C33.4219 54.7907 32.5857 54.0446 31.757 53.2899C31.252 52.8302 30.751 52.3659 30.2528 51.8982C29.7036 51.3823 29.1974 50.8686 28.4605 50.6391C27.8 50.433 27.121 51.1412 27.3426 51.7926C27.5784 52.4876 28.064 52.9599 28.5811 53.4592Z" fill="#040606"/>
<path d="M28.22 30.2588C28.7112 30.7334 29.2059 31.204 29.7041 31.6706C30.5816 32.493 31.4791 33.2936 32.3842 34.085C31.7397 34.8127 31.0952 35.5404 30.441 36.2589C29.9807 36.764 29.517 37.2656 29.0492 37.7631C28.5333 38.3123 28.0197 38.8185 27.7901 39.5554C27.5841 40.2166 28.2923 40.8949 28.9431 40.674C29.6386 40.4375 30.1104 39.952 30.6103 39.4349C31.0849 38.9436 31.5555 38.4489 32.0226 37.9508C32.7475 37.1766 33.4539 36.3863 34.1547 35.5903C35.7748 36.9585 37.4179 38.2997 39.1 39.5916C39.5964 39.9721 40.2685 40.0519 40.7396 39.5658C41.1368 39.1566 41.2137 38.3095 40.7144 37.9261C38.9944 36.6061 37.3152 35.2351 35.6606 33.8342C37.1286 32.1079 38.5628 30.3523 39.9431 28.5549C40.3236 28.0584 40.4033 27.3864 39.9172 26.9152C39.508 26.5181 38.661 26.4412 38.2776 26.9405C36.8687 28.7764 35.4041 30.5687 33.9027 32.33C33.0608 31.5902 32.2246 30.8442 31.3959 30.0895C30.8909 29.6292 30.3899 29.1655 29.8917 28.6978C29.3425 28.1818 28.8363 27.6682 28.0994 27.4386C27.4389 27.2326 26.7599 27.9408 26.9815 28.5916C27.2173 29.2872 27.7029 29.7589 28.22 30.2588Z" fill="#040606"/>
<path d="M5.665 8.66747C6.15621 9.14209 6.65097 9.61268 7.14935 10.0798C8.02679 10.9017 8.92414 11.7023 9.82918 12.4937C9.18509 13.2214 8.5406 13.9491 7.88578 14.6676C7.42597 15.1727 6.96214 15.6743 6.49429 16.1718C5.97841 16.7211 5.46483 17.2272 5.23504 17.9647C5.02901 18.6252 5.7372 19.3036 6.38847 19.0826C7.08363 18.8462 7.55555 18.3607 8.05525 17.8436C8.52981 17.3529 9.00058 16.8582 9.46733 16.3595C10.1923 15.5859 10.8992 14.795 11.5998 13.999C13.2199 15.3678 14.8629 16.709 16.5454 18.0003C17.0415 18.3813 17.7139 18.4611 18.1851 17.975C18.5821 17.5653 18.659 16.7187 18.1595 16.3354C16.4396 15.0148 14.7605 13.6438 13.1058 12.2429C14.574 10.5166 16.008 8.76159 17.3879 6.96356C17.7688 6.46713 17.8485 5.7951 17.3626 5.32393C16.953 4.92679 16.1062 4.84988 15.7229 5.34918C14.3137 7.18509 12.8491 8.97738 11.348 10.7393C10.506 9.99893 9.66981 9.25287 8.84121 8.49818C8.33612 8.03849 7.83464 7.5742 7.33672 7.10647C6.78773 6.59053 6.28132 6.07687 5.54443 5.8473C4.88375 5.64127 4.2054 6.34947 4.42641 7.00085C4.66228 7.69585 5.14809 8.16817 5.665 8.66747Z" fill="#040606"/>
<path d="M67.5464 9.49268L67.4333 2.18461C67.4196 1.28703 66.6781 0.568508 65.7811 0.582282L45.924 0.889886C45.924 0.889886 64.4542 1.10971 66.2511 2.11346C66.9639 2.51118 67.3449 5.74165 67.5464 9.49268Z" fill="white"/>
</svg>
