<svg width="390" height="332" viewBox="0 0 390 332" fill="none" xmlns="http://www.w3.org/2000/svg">
<path d="M-49.151 463.684C-67.3023 448.942 -70.4279 423.332 -66.5009 401.087C-62.5742 378.842 -52.9954 357.623 -50.5421 335.192C-47.8148 310.255 -54.027 285.306 -55.8361 260.296C-57.6449 235.285 -54.045 207.91 -35.5813 189.822C-11.6871 166.414 27.4639 166.612 59.741 155.13C84.4093 146.356 105.356 130.47 128.297 118.236C153.936 104.563 182.623 95.3568 212.071 94.1341C241.52 92.9114 271.734 100.03 295.553 116.354C310.537 126.623 322.636 140.161 336.992 151.195C360.871 169.548 392.435 182.689 403.645 209.702C407.572 219.164 408.503 229.466 411.323 239.271C415.593 254.117 424.086 267.517 431.058 281.43C454.105 327.428 460.544 379.525 457.965 430.311C457.451 440.421 456.442 450.97 450.718 459.542C440.518 474.817 419.175 478.965 400.147 481.268C287.677 494.877 173.799 492.609 60.428 490.317C48.1015 490.068 35.646 489.803 23.7044 486.919C-1.49808 480.833 -23.7005 463.31 -49.72 463.571" fill="#7BB747"/>
<path d="M288 183.5C288 192.611 246.364 200 195.001 200C143.638 200 102 192.611 102 183.5C102 174.385 143.638 167 195.001 167C246.364 167 288 174.385 288 183.5Z" fill="#64A131"/>
<path d="M281.74 20.5178C281.74 20.5178 247.573 14.88 235.324 36.2494L228.923 34.1297L216.195 29.9254C216.195 29.9254 227.805 10.864 247.847 9.06525C250.774 8.80327 253.724 9.03009 256.628 9.52798C260.94 10.2572 268.224 11.8223 274.217 14.8425C277.24 16.343 279.918 18.2109 281.74 20.5178Z" fill="#F0A63D"/>
<path d="M274.215 14.8425C264.843 13.8093 242.096 13.7504 228.923 34.1297L216.195 29.9254C216.195 29.9254 227.805 10.864 247.847 9.06525C250.774 8.80327 253.724 9.03009 256.628 9.52798C260.94 10.2584 268.223 11.8235 274.215 14.8425Z" fill="#F0B855"/>
<path d="M270.418 151.368L272.996 147.233L277.424 140.127C277.424 140.127 304.785 132.84 299.62 87.2674L305.56 84.33L308.592 82.842C308.592 82.842 322.419 135.962 270.418 151.368Z" fill="#632F5C"/>
<path d="M272.996 147.233L277.424 140.127C277.424 140.127 304.785 132.841 299.62 87.2675L305.561 84.3301C307.463 95.7316 310.38 132.404 272.996 147.233Z" fill="#753B6F"/>
<path d="M281.737 20.512C281.737 20.512 303.583 43.2548 311.077 79.5744C312.327 85.6307 308.4 91.6893 302.307 92.735C302.207 92.752 302.107 92.769 302.005 92.7849C296.333 93.6718 290.973 89.8406 289.7 84.2437C285.793 67.0876 274.466 27.2919 252.676 22.7236C252.676 22.7236 265.093 17.1152 281.737 20.512Z" fill="#FC982C"/>
<path d="M158.363 173.691C156.173 173.618 154.071 173.464 152.028 173.251C152.013 173.262 152.002 173.247 151.989 173.246C143.245 172.352 135.912 170.321 130.298 168.227C119.019 164.021 111.011 153.707 109.847 141.733C108.333 126.005 112.248 108.674 112.248 108.674L119.817 105.216L130.57 100.314L158.363 173.691Z" fill="#AD2355"/>
<path d="M158.363 173.691C156.173 173.618 154.07 173.464 152.027 173.251C152.013 173.262 152.001 173.247 151.989 173.246C147.58 172.215 143.68 170.995 140.324 169.745C127.758 165.059 118.823 153.556 117.531 140.197C116.149 125.932 118.79 110.481 119.816 105.215L130.568 100.313L158.363 173.691Z" fill="#C12F5F"/>
<path d="M130.947 92.262C130.947 92.262 124.813 92.7394 118.856 96.2496C113.529 99.3877 110.062 104.933 109.341 111.074L108.028 122.275C107.743 124.704 109.667 126.887 112.111 126.786C112.152 126.785 112.193 126.783 112.233 126.781C114.267 126.664 116.042 125.319 116.867 123.456C118.688 119.351 123.908 109.801 133.589 108.287L130.947 92.262Z" fill="#F0B855"/>
<path d="M116.439 107.744L115.127 118.94C114.932 120.603 115.764 122.149 117.095 122.937C117.008 123.112 116.935 123.287 116.863 123.45C116.039 125.315 114.274 126.661 112.233 126.778C112.192 126.786 112.153 126.782 112.112 126.791C109.665 126.886 107.749 124.699 108.034 122.27L109.347 111.074C110.067 104.93 113.536 99.3843 118.854 96.2552C120.946 95.0258 123.064 94.1548 124.925 93.5571C120.174 96.7792 117.113 102.003 116.439 107.744Z" fill="#F0A63D"/>
<path d="M261.027 157.101C251.321 163.626 237.61 170.406 219.349 174.085L218.079 172.567L132.921 70.4889C132.921 70.4889 138.816 37.8393 180.079 30.3518C180.079 30.3518 180.43 30.2871 181.099 30.1953C184.407 29.7144 195.42 28.3319 208.88 29.094C233.694 30.5026 255.535 45.5855 265.773 68.2217C271.61 81.0999 276.998 98.1516 278.958 119.396C280.349 134.268 273.409 148.756 261.027 157.101Z" fill="#216FAA"/>
<path d="M249.004 158.232C241.313 163.414 231.088 168.747 218.079 172.568L132.921 70.4899C132.921 70.4899 138.816 37.8404 180.079 30.3528C180.079 30.3528 180.43 30.2882 181.099 30.1963C185.602 29.974 190.997 29.8946 196.87 30.2281C221.672 31.6344 243.514 46.7048 253.763 69.3558C259.588 82.2317 264.976 99.2834 266.949 120.53C268.324 135.4 261.398 149.889 249.004 158.232Z" fill="#3179BA"/>
<path d="M163.79 40.2811C176.402 37.152 193.184 35.4338 211.924 39.9069C226.233 43.3218 237.86 53.7864 242.632 67.7012C247.592 82.158 253.047 103.999 253.594 131.114C254.01 151.796 239.611 169.895 219.354 174.088C203.996 177.268 183.486 178.58 158.36 173.694C137.346 169.608 122.532 150.587 123.684 129.21C124.589 112.417 127.03 91.3763 132.917 70.4889C137.105 55.6328 148.81 43.9988 163.79 40.2811Z" fill="#468CE4"/>
<path d="M163.074 47.6711C173.838 45.0002 188.162 43.5338 204.159 47.3513C216.371 50.266 226.296 59.1985 230.37 71.0752C234.604 83.4146 239.26 102.058 239.725 125.202C240.08 142.856 227.791 158.303 210.5 161.883C197.39 164.597 179.884 165.718 158.438 161.548C140.501 158.059 127.856 141.825 128.841 123.578C129.613 109.243 131.697 91.2855 136.722 73.4557C140.297 60.7749 150.286 50.8444 163.074 47.6711Z" fill="#57A4F7"/>
<path d="M243.217 161.887C240.945 165.427 236.878 169.795 230.17 171.418C230.17 171.418 229.799 169.861 229.293 167.221C226.786 154.575 220.706 117.151 234.16 108.643C234.9 108.163 235.696 107.783 236.545 107.5C236.545 107.5 247.849 114.303 245.928 153.371C245.77 156.392 244.858 159.34 243.217 161.887Z" fill="#AD2355"/>
<path d="M237.715 159.398C236.01 162.042 233.33 165.139 229.293 167.22C226.786 154.574 220.706 117.15 234.16 108.642C237.349 113.783 241.67 125.561 240.412 150.892C240.267 153.916 239.355 156.865 237.715 159.398Z" fill="#C12F5F"/>
<path d="M230.17 171.418C207.519 179.639 174.58 177.226 174.58 177.226C159.515 175.552 149.856 172.128 143.704 168.669C138.961 165.992 135.509 161.637 133.874 156.601C133.193 154.546 132.829 152.37 132.787 150.139C132.538 136.205 135.331 125.406 138.145 118.139C140.653 111.677 146.844 107.399 153.781 107.41L226.285 107.496L236.542 107.5C223.493 130.539 230.17 171.418 230.17 171.418Z" fill="#DD3C6A"/>
<path d="M220.471 154.743C220.959 161.134 216.561 166.86 210.277 168.124C190.802 172.057 169.365 170.478 169.365 170.478C155.195 168.922 146.119 165.699 140.351 162.441C139.936 162.208 139.532 161.96 139.139 161.701C135.29 159.157 132.887 154.819 132.788 150.205C132.788 150.182 132.787 150.161 132.787 150.138C132.538 136.204 135.331 125.405 138.145 118.137C140.653 111.676 146.844 107.398 153.781 107.408L226.285 107.495C219.34 122.047 219.555 142.561 220.471 154.743Z" fill="#F84A76"/>
<path d="M228.327 123.903C228.171 127.598 225.563 130.742 221.925 131.449C208.629 134.012 176.703 138.788 143.316 133.452C140.02 132.921 137.455 130.434 136.731 127.281C136.605 126.78 136.534 126.27 136.503 125.74C136.36 122.694 136.522 118.947 137.495 115.256C138.939 109.789 143.866 105.956 149.518 105.696C165.814 104.96 206.322 103.467 227.16 105.765C231.086 106.199 234.312 106.762 236.543 107.497C236.543 107.497 228.961 108.611 228.327 123.903Z" fill="#F0A63D"/>
<path d="M222.237 120.838C222.009 124.415 219.406 127.394 215.886 127.988C203.809 130.022 175.973 133.534 146.149 129.155C142.189 128.574 139.355 124.999 139.641 121.008C139.763 119.303 139.965 117.626 140.285 116.411C141.681 111.125 146.446 107.419 151.911 107.168C167.669 106.456 206.839 105.013 226.989 107.235C224.971 109.24 222.739 113.18 222.237 120.838Z" fill="#F0B855"/>
<path d="M185.405 146.998L182.75 147.068L177.373 147.215C176.158 147.243 175.136 146.294 175.055 145.086C174.415 135.832 175.494 129.77 176.166 127.071C176.382 126.241 177.021 125.617 177.832 125.437C177.97 125.387 178.116 125.378 178.262 125.369L186.257 125.016C187.699 124.948 188.814 126.224 188.582 127.646C187.517 134.039 187.523 141.164 187.609 144.702C187.635 145.942 186.647 146.959 185.405 146.998Z" fill="#EFEFED"/>
<path d="M184.295 144.892C184.321 145.909 183.665 146.78 182.749 147.068L177.372 147.215C176.157 147.243 175.135 146.294 175.054 145.086C174.414 135.832 175.493 129.77 176.165 127.071C176.381 126.241 177.02 125.617 177.831 125.437L182.954 125.208C184.384 125.139 185.512 126.417 185.267 127.836C184.215 134.23 184.222 141.354 184.295 144.892Z" fill="white"/>
<path d="M232.573 170.685C237.874 168.713 241.221 164.984 243.217 161.887C243.541 161.372 243.853 160.842 244.115 160.293C244.579 159.374 244.952 158.43 245.252 157.451C245.253 157.438 245.253 157.438 245.253 157.438C250.704 150.032 253.793 140.86 253.593 131.106C253.351 119.253 252.162 108.383 250.516 98.7222C250.516 98.7222 258.106 93.0673 269.793 91.1983C269.821 91.1881 269.835 91.1767 269.861 91.1801C275.161 90.3397 280.277 93.5335 281.78 98.687C286.761 115.848 291.243 155.679 232.573 170.685Z" fill="#AD2355"/>
<path d="M244.114 160.293C244.578 159.373 244.951 158.43 245.251 157.451C245.252 157.438 245.252 157.438 245.252 157.438C250.702 150.032 253.792 140.86 253.592 131.106C253.35 119.253 252.161 108.383 250.515 98.7221C250.515 98.7221 258.105 93.0673 269.792 91.1982C271.045 92.4118 272.008 93.9735 272.523 95.7586C276.833 110.562 280.758 142.23 244.114 160.293Z" fill="#C12F5F"/>
<path d="M278.843 118.581C277.506 118.977 275.932 119.267 274.101 119.381C273.384 119.429 272.668 119.371 271.986 119.226C269.594 118.735 267.504 117.134 266.304 114.899C264.184 110.964 259.82 105.738 251.619 105.935L250.516 98.722C250.516 98.722 257.168 92.6283 268.038 90.5585C269.305 90.3124 270.631 90.1253 272.013 90.0107C276.335 89.6478 280.453 91.9217 282.438 95.7755C283.822 98.4657 285.168 102.258 285.895 107.505C286.581 112.443 283.617 117.178 278.843 118.581Z" fill="#F0A63D"/>
<path d="M272.584 119.071C272.393 119.127 272.189 119.183 271.986 119.225C269.594 118.734 267.504 117.132 266.304 114.898C264.184 110.963 259.82 105.737 251.619 105.934L250.516 98.7209C250.516 98.7209 257.168 92.6272 268.038 90.5574C271.474 91.0133 274.534 93.0967 276.178 96.2655C277.561 98.9557 278.908 102.748 279.635 107.995C280.323 112.92 277.357 117.669 272.584 119.071Z" fill="#F0B855"/>
<path d="M153.527 77.1361C153.527 77.1361 186.773 73.8924 221.452 76.5883" stroke="#E3E5DC" stroke-width="1.7297" stroke-miterlimit="10" stroke-linecap="round" stroke-linejoin="round" stroke-dasharray="1.15 3.46"/>
<path d="M191.822 37.0431C191.917 37.0193 192.014 36.9955 192.112 36.9717C194.274 36.4624 196.52 37.4628 197.638 39.3806L203.009 48.5966C204.481 51.1234 203.546 54.3852 200.934 55.6997C199.813 56.2645 198.331 56.7408 196.372 57.0278C193.751 57.4111 191.259 55.7416 190.647 53.1649L188.262 43.1187C187.632 40.4671 189.182 37.7168 191.822 37.0431Z" fill="#E3E5DC"/>
<path d="M191.772 38.0832C191.847 38.0639 191.922 38.0458 191.998 38.0276C193.682 37.6307 195.433 38.4098 196.304 39.9046L200.491 47.0871C201.638 49.056 200.908 51.5987 198.872 52.6228C197.999 53.0629 196.843 53.4349 195.317 53.6572C193.274 53.9554 191.331 52.6557 190.855 50.646L188.996 42.8159C188.507 40.7518 189.714 38.6094 191.772 38.0832Z" fill="#EFEFED"/>
<path d="M194.939 40.7995C195.266 41.7136 194.788 42.7184 193.875 43.0439C192.961 43.3694 191.956 42.8931 191.631 41.9801C191.305 41.066 191.782 40.0611 192.695 39.7356C193.608 39.409 194.613 39.8865 194.939 40.7995Z" fill="#A7A89E"/>
<path d="M185.395 37.8962C185.308 37.8508 185.219 37.8043 185.129 37.7601C183.145 36.7643 180.728 37.218 179.197 38.8262L171.84 46.5496C169.823 48.6671 169.98 52.057 172.216 53.9408C173.176 54.7495 174.507 55.5558 176.348 56.2874C178.81 57.2661 181.619 56.2193 182.811 53.8535L187.456 44.6307C188.68 42.1957 187.808 39.1619 185.395 37.8962Z" fill="#E3E5DC"/>
<path d="M185.202 38.9192C185.134 38.8829 185.065 38.8477 184.994 38.8126C183.447 38.0368 181.564 38.3895 180.371 39.6428L174.636 45.6628C173.064 47.3129 173.187 49.9555 174.93 51.423C175.679 52.0536 176.716 52.6819 178.15 53.2524C180.069 54.0157 182.259 53.1991 183.188 51.355L186.807 44.1668C187.762 42.2706 187.082 39.9059 185.202 38.9192Z" fill="#EFEFED"/>
<path d="M181.494 40.829C180.965 41.6422 181.196 42.731 182.01 43.2595C182.823 43.788 183.912 43.5566 184.44 42.7434C184.969 41.9303 184.737 40.8415 183.924 40.313C183.11 39.7845 182.022 40.0158 181.494 40.829Z" fill="#A7A89E"/>
<path d="M204.972 1.99846C204.972 1.99846 181.201 3.71441 175.041 31.435L169.701 33.6397L156.167 39.2299C156.167 39.2299 159.313 23.2839 169.122 11.2791C174.872 4.23724 183.339 -0.0248421 192.422 0.00010895C193.79 0.0159869 195.241 0.093107 196.79 0.262093C199.323 0.545628 202.078 1.0798 204.972 1.99846Z" fill="#F0A63D"/>
<path d="M196.788 0.262093C189.73 1.84421 173.642 8.21466 169.701 33.6397L156.167 39.2299C156.167 39.2299 159.313 23.2839 169.122 11.2791C174.872 4.23724 183.339 -0.0248421 192.422 0.00010895C193.789 0.0148527 195.241 0.093107 196.788 0.262093Z" fill="#F0B855"/>
<path d="M204.975 2.00293C204.975 2.00293 223.698 5.59814 216.2 29.9231L207.832 29.0464C207.832 29.0464 216.158 7.35719 195.08 4.88591C195.08 4.88591 200.454 2.61423 204.975 2.00293Z" fill="#FC982C"/>
</svg>
