<svg width="370" height="64" viewBox="0 0 370 64" fill="none" xmlns="http://www.w3.org/2000/svg">
<path d="M133.572 11.5845C104.686 9.71746 74.5945 8.04801 47.9159 19.6737C30.1092 27.4333 14.6737 40.8176 -3.92955 46.21C-11.4009 48.3756 -19.5794 49.3634 -25.5935 54.4415C-39.5728 66.2456 -32.6513 90.0295 -39.8146 107.177C-41.7968 111.922 -44.8624 116.096 -47.0765 120.73C-53.0484 133.228 -52.1414 148.969 -44.7764 160.643C-37.6597 171.923 -25.3985 178.863 -12.7521 182.014C-0.105755 185.165 13.068 184.94 26.0713 184.614C61.4453 183.725 96.8536 182.216 132.196 183.996C181.119 186.461 230.093 195.22 278.818 190.039C286.957 189.174 295.505 187.725 301.835 182.353C308.18 176.968 311.229 168.558 316.098 161.719C324.393 150.07 337.559 143.46 348.422 134.356C363.001 122.136 373.616 104.925 378.193 86.0837C380.737 75.6142 381.233 63.7486 375.423 54.7864C370.482 47.1645 361.946 43.0609 353.757 39.5528C299.811 16.4441 241.902 3.30788 183.571 0.947773C165.865 0.231391 146.758 0.947771 132.58 11.9605" fill="#FFB425"/>
<path d="M106.958 47.0555C105.728 47.0555 104.73 46.0582 104.73 44.8281C104.73 43.5966 105.728 42.5993 106.958 42.5993C108.188 42.5993 109.185 43.5966 109.185 44.8281C109.185 46.0582 108.188 47.0555 106.958 47.0555ZM116.899 40.7508C116.807 40.8429 116.513 39.7365 114.898 39.4667C112.913 39.1247 110.31 40.6035 109.029 42.102C109.752 40.264 109.913 37.7327 108.845 36.1934C108.039 35.0672 106.988 35.0632 106.925 35.0001C106.925 35.0685 106.612 34.9724 105.925 35.375C103.393 36.8617 104.359 41.7231 104.941 42.3217C103.182 40.8521 100.083 39.9654 99.0741 41.9836L99.0538 42.0139C98.6513 43.9479 100.576 45.1991 102.523 45.5978C100.385 47.3607 98.792 50.3999 100.762 52.3813C103.58 53.7904 106.36 50.5223 107.069 47.3502L107.077 47.3792C107.519 49.3079 109.268 51.7038 111.21 51.7038C111.929 51.7038 112.36 51.3801 112.423 51.3801C112.423 51.3183 113.079 50.8038 113.079 49.7237C113.079 48.1554 111.742 46.5477 110.322 45.6412C112.879 45.8925 116.771 44.3939 116.99 41.731C117.038 41.1469 116.899 40.839 116.899 40.7508Z" fill="#F576A7"/>
<path d="M106.958 42.5993C105.728 42.5993 104.73 43.5965 104.73 44.828C104.73 46.0581 105.728 47.0554 106.958 47.0554C108.189 47.0554 109.186 46.0581 109.186 44.828C109.186 43.5965 108.189 42.5993 106.958 42.5993Z" fill="#F7E027"/>
<path d="M193.195 37.3661C192.166 36.6845 191.882 35.2971 192.561 34.2661C193.242 33.2351 194.628 32.9511 195.657 33.6313C196.687 34.3115 196.97 35.6989 196.291 36.7313C195.612 37.7623 194.225 38.0463 193.195 37.3661ZM205 37.5805C204.926 37.5962 205.147 36.4331 204.034 35.3979C202.583 34.0332 199.614 33.7833 197.629 34.3868C199.264 33.2507 200.821 31.2001 200.777 29.3058C200.723 27.8885 199.845 27.3276 199.828 27.2438C199.8 27.2878 199.492 27.0407 198.784 27.0038C195.833 26.8476 193.973 31.4898 194.123 32.2822C193.462 30.0769 191.359 27.6187 189.399 28.7519L189.365 28.7661C187.961 30.1635 188.879 32.278 190.285 33.691C187.521 33.9849 184.512 35.6507 185.067 38.4013C186.648 41.1421 190.779 39.9421 193.124 37.6757C192.428 39.5417 192.55 42.5338 194.187 43.6144C194.801 44.0206 195.328 43.9808 195.381 44.0149C195.409 43.9695 196.249 43.8942 196.846 42.9882C197.715 41.6689 197.478 39.5686 196.783 38.0208C198.766 39.6396 202.856 40.5954 204.535 38.4525C204.898 37.9895 204.969 37.6288 205 37.5805Z" fill="#F2E43B"/>
<path d="M195.636 33.639C194.605 32.9584 193.216 33.2426 192.534 34.2742C191.854 35.3058 192.138 36.694 193.169 37.3761C194.201 38.0567 195.591 37.7725 196.271 36.7409C196.952 35.7079 196.668 34.3196 195.636 33.639Z" fill="#F681C6"/>
<path d="M246.248 6.17022C243.704 3.51978 240.102 8.16601 238.3 11.4569C239.068 7.82826 239.242 3 236 3C232.757 3 232.932 7.82826 233.7 11.4569C231.898 8.16601 228.296 3.51978 225.753 6.17022C222.368 9.69574 231.386 15.1776 233.233 15.5899C233.879 15.7346 234.345 15.6019 234.575 15.3629C234.665 15.2686 234.738 15.1381 234.787 14.9736C234.825 15.0493 234.862 15.1173 234.896 15.1732C235.255 15.75 235.674 16 236 16C236.325 16 236.745 15.75 237.103 15.1732C237.138 15.1173 237.175 15.0493 237.213 14.9736C237.262 15.1381 237.335 15.2686 237.424 15.3629C237.654 15.6019 238.121 15.7346 238.766 15.5899C240.614 15.1776 249.631 9.69574 246.248 6.17022Z" fill="#56B9AA"/>
<path d="M62.2475 42.1702C59.7037 39.5198 56.1022 44.166 54.2999 47.4569C55.0683 43.8283 55.2423 39 51.9999 39C48.7572 39 48.9316 43.8283 49.7 47.4569C47.898 44.166 44.2956 39.5198 41.7527 42.1702C38.3684 45.6957 47.3859 51.1776 49.2334 51.5899C49.8792 51.7346 50.3453 51.6019 50.5754 51.3629C50.665 51.2686 50.738 51.1381 50.7866 50.9736C50.8247 51.0493 50.8617 51.1173 50.8964 51.1732C51.2553 51.75 51.6745 52 51.9999 52C52.3254 52 52.7445 51.75 53.1034 51.1732C53.1381 51.1173 53.1751 51.0493 53.2132 50.9736C53.2619 51.1381 53.3349 51.2686 53.4244 51.3629C53.6545 51.6019 54.1206 51.7346 54.7664 51.5899C56.6137 51.1776 65.6312 45.6957 62.2475 42.1702Z" fill="#56B9AA"/>
<path d="M139.419 13.4386C137.453 11.3998 134.67 14.9739 133.277 17.5053C133.871 14.714 134.005 11 131.5 11C128.994 11 129.129 14.714 129.723 17.5053C128.33 14.9739 125.547 11.3998 123.582 13.4386C120.967 16.1506 127.935 20.3674 129.362 20.6845C129.861 20.7959 130.221 20.6938 130.399 20.5099C130.468 20.4374 130.525 20.337 130.562 20.2105C130.592 20.2687 130.62 20.321 130.647 20.364C130.925 20.8077 131.248 21 131.5 21C131.751 21 132.075 20.8077 132.353 20.364C132.379 20.321 132.408 20.2687 132.437 20.2105C132.475 20.337 132.531 20.4374 132.601 20.5099C132.778 20.6938 133.139 20.7959 133.638 20.6845C135.065 20.3674 142.033 16.1506 139.419 13.4386Z" fill="#56B9AA"/>
</svg>
