<svg width="23" height="23" viewBox="0 0 23 23" fill="none" xmlns="http://www.w3.org/2000/svg">
<path d="M11.5 23C17.8513 23 23 17.8513 23 11.5C23 5.14873 17.8513 0 11.5 0C5.14872 0 0 5.14873 0 11.5C0 17.8513 5.14872 23 11.5 23Z" fill="#FFB425"/>
<path d="M17.7593 7.21907C17.7373 7.35958 17.6667 7.49459 17.5443 7.59655C14.6274 10.0227 12.4903 13.2942 10.3837 17.342C10.2464 17.6055 9.9748 17.7729 9.67922 17.803C9.37718 17.8341 9.07672 17.8875 8.78275 17.9636C8.38163 18.0669 7.96109 17.8901 7.75422 17.5314C6.91021 16.071 5.80298 14.7627 4.50152 13.6895C4.30501 13.5276 4.26325 13.2446 4.40342 13.0323C4.40862 13.0238 4.4141 13.0158 4.41961 13.0073C5.16619 11.8904 6.78816 11.8438 7.60109 12.9134C8.00157 13.4399 8.41467 13.9753 8.78763 14.5782C10.656 11.6333 13.727 8.1304 16.8762 6.5722C17.0545 6.48383 17.265 6.48609 17.4411 6.57997C17.6865 6.7111 17.7972 6.97333 17.7593 7.21907Z" fill="white"/>
</svg>
