<svg width="32" height="32" viewBox="0 0 32 32" fill="none" xmlns="http://www.w3.org/2000/svg">
<path d="M16 32C24.8366 32 32 24.8366 32 16C32 7.16344 24.8366 0 16 0C7.16344 0 0 7.16344 0 16C0 24.8366 7.16344 32 16 32Z" fill="#FFB425"/>
<path d="M23.8253 11.1074C21.7643 12.6685 19.7731 14.3218 17.8601 16.0606C19.6458 17.9091 21.5129 19.6785 23.4555 21.3613C23.8057 21.6649 23.8987 22.1702 23.6786 22.5781C23.4528 22.9968 23.2039 23.403 22.9335 23.7942C22.6116 24.2602 21.9629 24.3573 21.516 24.0095C19.3255 22.3043 17.224 20.4847 15.222 18.5615C13.6319 20.1329 12.1023 21.7657 10.6382 23.456C10.3346 23.8061 9.82926 23.8992 9.42137 23.6791C9.00264 23.4532 8.59645 23.2043 8.20522 22.934C7.73927 22.612 7.64216 21.9634 7.98992 21.5164C9.47198 19.6132 11.04 17.777 12.6874 16.0147C11.2006 14.4532 9.77695 12.8319 8.42089 11.1556C8.17569 10.8523 8.13289 10.4335 8.30915 10.0858C8.65488 9.40381 9.06955 8.75618 9.54432 8.15644C9.94572 7.64941 10.7167 7.65856 11.1069 8.17409C12.4466 9.94313 13.8547 11.6605 15.3266 13.3216C17.0891 11.6049 18.9308 9.96897 20.8439 8.42136C21.1471 8.17616 21.5659 8.13336 21.9136 8.30962C22.5956 8.65535 23.2432 9.06998 23.843 9.54479C24.3501 9.94626 24.3409 10.7172 23.8253 11.1074Z" fill="white"/>
</svg>
