<svg width="48" height="48" viewBox="0 0 48 48" fill="none" xmlns="http://www.w3.org/2000/svg">
<path d="M17.1674 8.17925C20.2081 2.72642 21.7273 0 24 0C26.2727 0 27.7919 2.72642 30.8326 8.17925L31.6198 9.59046C32.4838 11.1409 32.9158 11.9161 33.5878 12.4273C34.2598 12.9385 35.0997 13.1281 36.7797 13.5073L38.3061 13.8529C44.2099 15.1897 47.1595 15.8569 47.8626 18.1153C48.5634 20.3713 46.5523 22.7257 42.5276 27.4322L41.486 28.649C40.3436 29.9858 39.77 30.6554 39.5132 31.481C39.2564 32.309 39.3428 33.2018 39.5156 34.985L39.674 36.6098C40.2812 42.8907 40.586 46.0299 38.7477 47.4243C36.9093 48.8187 34.1446 47.5467 28.6199 45.0027L27.1871 44.3451C25.6176 43.6203 24.8328 43.2603 24 43.2603C23.1672 43.2603 22.3824 43.6203 20.8129 44.3451L19.3825 45.0027C13.8554 47.5467 11.0907 48.8187 9.25475 47.4267C7.41399 46.0299 7.71878 42.8907 8.32597 36.6098L8.48436 34.9874C8.65716 33.2018 8.74356 32.309 8.48436 31.4834C8.22997 30.6554 7.65638 29.9858 6.51401 28.6514L5.47244 27.4322C1.44773 22.7281 -0.563423 20.3737 0.137361 18.1153C0.838144 15.8569 3.79247 15.1873 9.69633 13.8529L11.2227 13.5073C12.9003 13.1281 13.7378 12.9385 14.4122 12.4273C15.0866 11.9161 15.5162 11.1409 16.3802 9.59046L17.1674 8.17925Z" fill="#FFB425"/>
</svg>
