<svg width="109" height="164" viewBox="0 0 109 164" fill="none" xmlns="http://www.w3.org/2000/svg">
<path d="M109 149.513C109 157.512 84.6003 164 54.5005 164C24.4006 164 0 157.512 0 149.513C0 141.51 24.4006 135.025 54.5005 135.025C84.6003 135.025 109 141.51 109 149.513Z" fill="#80BF49" fill-opacity="0.6"/>
<path d="M52.0453 147.402H37.5972V118.425H52.0453V147.402Z" fill="#8E443F"/>
<path d="M52.3972 152.72C52.9883 151.676 53.3219 150.539 53.3219 149.343C53.3219 144.356 47.6503 140.314 40.6559 140.314C33.6611 140.314 27.9902 144.356 27.9902 149.343C27.9902 150.539 28.3237 151.676 28.9148 152.72H52.3972Z" fill="#8E443F"/>
<path d="M79.1093 145.476L89.7795 135.735L70.24 114.336L59.5698 124.077L79.1093 145.476Z" fill="#8E443F"/>
<path d="M82.4354 149.64C81.296 149.269 80.2815 148.652 79.4757 147.771C76.1141 144.087 77.5754 137.28 82.7417 132.562C87.908 127.845 94.8205 127.008 98.1821 130.689C98.9879 131.571 99.5108 132.636 99.7781 133.807L82.4354 149.64Z" fill="#8E443F"/>
<path d="M54.1551 85.6206C68.2493 85.6206 79.6726 99.5743 79.6726 116.788C79.6726 117.278 79.6609 117.766 79.6433 118.251C84.7296 112.793 87.8123 105.687 87.8123 97.9101C87.8123 80.6962 72.7425 66.7425 54.1551 66.7425C35.5668 66.7425 20.498 80.6962 20.498 97.9101C20.498 105.687 23.5807 112.793 28.667 118.251C28.6486 117.766 28.6367 117.278 28.6367 116.788C28.6367 99.5743 40.0609 85.6206 54.1551 85.6206Z" fill="#8E443F"/>
<path d="M54.1551 129.078C64.3453 129.078 73.4703 124.877 79.6433 118.252C79.6609 117.766 79.6726 117.278 79.6726 116.788C79.6726 99.5745 68.2493 85.6208 54.1551 85.6208C40.0609 85.6208 28.6367 99.5745 28.6367 116.788C28.6367 117.278 28.6486 117.766 28.667 118.252C34.839 124.877 43.9649 129.078 54.1551 129.078Z" fill="#F3664F"/>
<path d="M38.4438 69.6359C29.4395 70.0222 20.8091 65.9719 15.3521 58.8058C16.35 57.2742 15.7749 54.9447 13.9444 53.4327C12.0078 51.8328 9.42253 51.7646 8.16998 53.2805C7.57804 53.9965 7.40244 54.9388 7.57257 55.9026C6.59472 55.9163 5.70193 56.2675 5.11018 56.9835C4.51844 57.6995 4.34305 58.6419 4.51299 59.6057C3.53514 59.6194 2.64234 59.9706 2.05059 60.6866C0.797842 62.2025 1.35213 64.7271 3.28891 66.3289C4.81617 67.5893 6.73832 67.8839 8.10072 67.2147C15.2553 79.6954 30.3574 85.447 44.1059 80.667L38.4438 69.6359Z" fill="#8E443F"/>
<path d="M69.8664 69.6359C78.8704 70.0222 87.5018 65.9719 92.9588 58.8058C91.9598 57.2742 92.5354 54.9447 94.3654 53.4327C96.3028 51.8328 98.8879 51.7646 100.14 53.2805C100.732 53.9965 100.907 54.9388 100.737 55.9026C101.715 55.9163 102.609 56.2675 103.2 56.9835C103.793 57.6995 103.966 58.6419 103.797 59.6057C104.776 59.6194 105.668 59.9706 106.259 60.6866C107.513 62.2025 106.959 64.7271 105.022 66.3289C103.494 67.5893 101.573 67.8839 100.211 67.2147C93.0544 79.6954 77.9535 85.447 64.2046 80.667L69.8664 69.6359Z" fill="#8E443F"/>
<path d="M88.1965 16.2831C89.0764 11.3119 86.5732 6.06951 82.482 3.12737C78.896 0.489578 73.8565 -0.4235 69.9018 1.60557C66.3841 3.43172 64.2867 7.8957 65.4359 11.6163H41.4246C41.729 10.6349 41.7953 9.65354 41.6938 8.63901C41.3895 5.76515 39.5633 2.95763 36.9603 1.60557C33.0026 -0.4235 27.9635 0.489578 24.345 3.12737C20.2864 6.06951 17.7837 11.3119 18.663 16.2831C19.2721 19.6994 21.6397 22.743 24.6831 24.2648C22.823 27.2069 21.3689 30.4202 20.4895 33.7682C19.5425 37.2859 19.2048 40.9382 19.4073 44.5223C20.2864 60.2826 31.8872 75.4343 52.7874 75.0967C53.5658 75.1299 54.3443 75.1299 55.1208 75.1299C80.1485 74.8255 91.3415 52.2327 86.3703 33.7682C85.4573 30.4202 84.0369 27.2069 82.1425 24.2648C85.2212 22.743 87.5878 19.6994 88.1965 16.2831ZM33.4443 7.3884C31.5163 6.40704 29.0461 6.84797 27.3212 8.13174C25.3259 9.5872 24.0746 12.1235 24.5139 14.5584C24.9541 16.9601 27.2196 19.0224 29.6884 18.9541L35.3704 12.9C36.4185 11.0076 35.3719 8.36977 33.4443 7.3884ZM79.5398 8.13174C77.78 6.84797 75.3451 6.40704 73.4175 7.3884C71.4899 8.36977 70.4422 11.0076 71.4899 12.9L77.1713 18.9541C79.6413 19.0224 81.9064 16.9601 82.3122 14.5584C82.7512 12.1235 81.5338 9.5872 79.5398 8.13174Z" fill="#8E443F"/>
<path d="M79.5498 8.12406C77.7939 6.84809 75.3375 6.39348 73.4099 7.3885C71.4804 8.38352 70.4307 11.0096 71.4999 12.8982L77.1715 18.9444C79.6317 19.0303 81.893 16.9758 82.33 14.5527C82.7651 12.1315 81.5418 9.57172 79.5498 8.12406Z" fill="#F3664F"/>
<path d="M29.6834 18.9444L35.3543 12.8982C36.424 11.0096 35.3728 8.38352 33.444 7.3885C31.5148 6.39348 29.0605 6.84809 27.3051 8.12406C25.3141 9.57172 24.0891 12.1315 24.5257 14.5527C24.9623 16.9758 27.2232 19.0303 29.6834 18.9444Z" fill="#F3664F"/>
<path d="M72.9237 54.6365C72.9237 61.906 64.1948 67.7961 53.4271 67.7961C42.6594 67.7961 33.9312 61.906 33.9312 54.6365C33.9312 47.3689 42.6594 41.4768 53.4271 41.4768C64.1948 41.4768 72.9237 47.3689 72.9237 54.6365Z" fill="#F0C42E"/>
<path d="M62.939 43.701C62.939 47.246 58.6799 50.1199 53.4277 50.1199C48.1756 50.1199 43.9185 47.246 43.9185 43.701C43.9185 40.156 48.1756 37.2802 53.4277 37.2802C58.6799 37.2802 62.939 40.156 62.939 43.701Z" fill="#1A181A"/>
<path d="M61.0127 49.2244C59.4967 52.0943 56.6716 54.0297 53.429 54.0297C50.1864 54.0297 47.3633 52.0943 45.8474 49.2244C45.1001 50.6389 44.665 52.2777 44.665 54.0297C44.665 56.4509 45.4864 58.6556 46.8346 60.3452C48.4403 58.3298 50.7971 57.0519 53.429 57.0519C56.0629 57.0519 58.4178 58.3298 60.0254 60.3452C61.3716 58.6556 62.195 56.4509 62.195 54.0297C62.195 52.2777 61.7599 50.6389 61.0127 49.2244Z" fill="#171717"/>
<path d="M53.4284 57.0518C50.7965 57.0518 48.4397 58.3297 46.834 60.3451C48.4397 62.3605 50.7965 63.6384 53.4284 63.6384C56.0623 63.6384 58.4172 62.3605 60.0249 60.3451C58.4172 58.3297 56.0623 57.0518 53.4284 57.0518Z" fill="#EE2E32"/>
<path d="M50.8815 29.8371C50.8815 35.1868 46.5443 39.5239 41.1946 39.5239C35.844 39.5239 31.5068 35.1868 31.5068 29.8371C31.5068 24.4874 35.844 20.1503 41.1946 20.1503C46.5443 20.1503 50.8815 24.4874 50.8815 29.8371Z" fill="white"/>
<path d="M49.5855 29.8371C49.5855 33.0641 46.9692 35.6804 43.7422 35.6804C40.5152 35.6804 37.8999 33.0641 37.8999 29.8371C37.8999 26.6101 40.5152 23.9938 43.7422 23.9938C46.9692 23.9938 49.5855 26.6101 49.5855 29.8371Z" fill="#171717"/>
<path d="M56.9023 29.8371C56.9023 35.1868 61.2395 39.5239 66.5892 39.5239C71.9408 39.5239 76.278 35.1868 76.278 29.8371C76.278 24.4874 71.9408 20.1503 66.5892 20.1503C61.2395 20.1503 56.9023 24.4874 56.9023 29.8371Z" fill="white"/>
<path d="M58.1973 29.8371C58.1973 33.0641 60.8136 35.6804 64.0406 35.6804C67.2676 35.6804 69.8839 33.0641 69.8839 29.8371C69.8839 26.6101 67.2676 23.9938 64.0406 23.9938C60.8136 23.9938 58.1973 26.6101 58.1973 29.8371Z" fill="#171717"/>
<path d="M34.7374 42.7683C34.7374 44.9164 32.0811 46.6567 28.8042 46.6567C25.5274 46.6567 22.8711 44.9164 22.8711 42.7683C22.8711 40.6203 25.5274 38.8799 28.8042 38.8799C32.0811 38.8799 34.7374 40.6203 34.7374 42.7683Z" fill="#DA533D"/>
<path d="M83.9882 42.7683C83.9882 44.9164 81.3328 46.6567 78.0551 46.6567C74.7794 46.6567 72.1221 44.9164 72.1221 42.7683C72.1221 40.6203 74.7794 38.8799 78.0551 38.8799C81.3328 38.8799 83.9882 40.6203 83.9882 42.7683Z" fill="#DA533D"/>
</svg>
