<svg width="195" height="282" viewBox="0 0 195 282" fill="none" xmlns="http://www.w3.org/2000/svg">
<path d="M93.6036 271.395H66.9114V217.862H93.6036V271.395Z" fill="#8E443F"/>
<path d="M94.2526 281.22C95.3447 279.292 95.9611 277.191 95.9611 274.981C95.9611 265.768 85.483 258.3 72.5611 258.3C59.6385 258.3 49.1619 265.768 49.1619 274.981C49.1619 277.191 49.7779 279.292 50.87 281.22H94.2526Z" fill="#8E443F"/>
<path d="M143.601 267.837L163.313 249.84L127.215 210.307L107.502 228.304L143.601 267.837Z" fill="#8E443F"/>
<path d="M149.747 275.529C147.642 274.844 145.767 273.705 144.279 272.076C138.068 265.271 140.768 252.695 150.313 243.979C159.857 235.264 172.628 233.718 178.838 240.519C180.327 242.148 181.293 244.116 181.786 246.279L149.747 275.529Z" fill="#8E443F"/>
<path d="M97.4996 157.257C123.538 157.257 144.642 183.036 144.642 214.838C144.642 215.742 144.62 216.643 144.588 217.541C153.985 207.456 159.68 194.328 159.68 179.961C159.68 148.159 131.839 122.38 97.4996 122.38C63.1584 122.38 35.3196 148.159 35.3196 179.961C35.3196 194.328 41.0146 207.456 50.4113 217.541C50.3775 216.643 50.3554 215.742 50.3554 214.838C50.3554 183.036 71.4612 157.257 97.4996 157.257Z" fill="#8E443F"/>
<path d="M97.5001 237.542C116.326 237.542 133.184 229.782 144.588 217.541C144.621 216.643 144.643 215.742 144.643 214.838C144.643 183.036 123.539 157.257 97.5001 157.257C71.4617 157.257 50.356 183.036 50.356 214.838C50.356 215.742 50.378 216.643 50.4119 217.541C61.8145 229.782 78.6742 237.542 97.5001 237.542Z" fill="#F3664F"/>
<path d="M68.4731 127.726C51.838 128.439 35.8937 120.956 25.8121 107.717C27.6558 104.888 26.5932 100.584 23.2115 97.7908C19.6338 94.8351 14.8576 94.709 12.5435 97.5097C11.4499 98.8325 11.1255 100.573 11.4398 102.354C9.63328 102.379 7.9839 103.028 6.89067 104.351C5.79745 105.674 5.47343 107.415 5.78738 109.195C3.98084 109.22 2.33143 109.869 1.23821 111.192C-1.0762 113.993 -0.0521715 118.657 3.52595 121.616C6.3475 123.945 9.89858 124.489 12.4156 123.253C25.6334 146.31 53.5338 156.936 78.9336 148.105L68.4731 127.726Z" fill="#8E443F"/>
<path d="M126.526 127.726C143.16 128.439 159.106 120.956 169.188 107.717C167.343 104.888 168.406 100.584 171.787 97.7908C175.366 94.8351 180.142 94.709 182.456 97.5097C183.548 98.8325 183.872 100.573 183.559 102.354C185.365 102.379 187.016 103.028 188.108 104.351C189.203 105.674 189.524 107.415 189.211 109.195C191.02 109.22 192.667 109.869 193.759 111.192C196.077 113.993 195.053 118.657 191.474 121.616C188.652 123.945 185.102 124.489 182.586 123.253C169.365 146.31 141.466 156.936 116.066 148.105L126.526 127.726Z" fill="#8E443F"/>
<path d="M160.391 29.1589C162.016 19.9748 157.392 10.2896 149.833 4.85414C143.208 -0.019043 133.898 -1.70592 126.592 2.04269C120.093 5.41644 116.218 13.6634 118.341 20.5371H73.9817C74.5439 18.7241 74.6665 16.911 74.4791 15.0367C73.9168 9.72734 70.543 4.54056 65.734 2.04269C58.4224 -1.70592 49.1129 -0.019043 42.4277 4.85414C34.9298 10.2896 30.306 19.9748 31.9306 29.1589C33.0559 35.4702 37.4298 41.0931 43.0524 43.9046C39.6159 49.3401 36.9295 55.2766 35.305 61.4618C33.5554 67.9606 32.9315 74.7081 33.3056 81.3294C34.9298 110.446 56.3618 138.438 94.9739 137.814C96.412 137.876 97.8502 137.876 99.2848 137.876C145.522 137.313 166.201 95.5741 157.017 61.4618C155.33 55.2766 152.706 49.3401 149.206 43.9046C154.894 41.0931 159.266 35.4702 160.391 29.1589ZM59.2384 12.7262C55.6765 10.9132 51.113 11.7278 47.9263 14.0995C44.24 16.7884 41.9282 21.4742 42.7399 25.9725C43.553 30.4096 47.7385 34.2195 52.2995 34.0933L62.7968 22.9088C64.7331 19.4125 62.7996 14.5393 59.2384 12.7262ZM144.398 14.0995C141.147 11.7278 136.648 10.9132 133.087 12.7262C129.526 14.5393 127.59 19.4125 129.526 22.9088L140.022 34.0933C144.585 34.2195 148.77 30.4096 149.52 25.9725C150.331 21.4742 148.082 16.7884 144.398 14.0995Z" fill="#8E443F"/>
<path d="M144.415 14.0851C141.171 11.7278 136.633 10.8879 133.072 12.7262C129.507 14.5645 127.568 19.416 129.543 22.9051L140.022 34.0753C144.567 34.2339 148.744 30.4384 149.552 25.9617C150.355 21.4886 148.096 16.7596 144.415 14.0851Z" fill="#F3664F"/>
<path d="M52.2902 34.0753L62.7669 22.9051C64.7432 19.416 62.8011 14.5645 59.2378 12.7262C55.6737 10.8879 51.1394 11.7278 47.8964 14.0851C44.2181 16.7596 41.9549 21.4886 42.7616 25.9617C43.5682 30.4384 47.745 34.2339 52.2902 34.0753Z" fill="#F3664F"/>
<path d="M132.174 100.015C132.174 113.445 116.048 124.327 96.1552 124.327C76.2623 124.327 60.1372 113.445 60.1372 100.015C60.1372 86.5884 76.2623 75.703 96.1552 75.703C116.048 75.703 132.174 86.5884 132.174 100.015Z" fill="#F0C42E"/>
<path d="M113.727 79.812C113.727 86.3612 105.859 91.6705 96.1554 91.6705C86.4523 91.6705 78.5874 86.3612 78.5874 79.812C78.5874 73.2627 86.4523 67.9497 96.1554 67.9497C105.859 67.9497 113.727 73.2627 113.727 79.812Z" fill="#1A181A"/>
<path d="M110.17 90.0161C107.369 95.3183 102.15 98.8938 96.1591 98.8938C90.1685 98.8938 84.9529 95.3183 82.1523 90.0161C80.7718 92.6293 79.968 95.657 79.968 98.8938C79.968 103.367 81.4855 107.44 83.9761 110.561C86.9426 106.838 91.2967 104.477 96.1591 104.477C101.025 104.477 105.376 106.838 108.346 110.561C110.833 107.44 112.354 103.367 112.354 98.8938C112.354 95.657 111.55 92.6293 110.17 90.0161Z" fill="#171717"/>
<path d="M96.1588 104.477C91.2964 104.477 86.9423 106.838 83.9758 110.561C86.9423 114.285 91.2964 116.646 96.1588 116.646C101.025 116.646 105.375 114.285 108.345 110.561C105.375 106.838 101.025 104.477 96.1588 104.477Z" fill="#EE2E32"/>
<path d="M91.4515 54.1988C91.4515 64.0822 83.4389 72.0948 73.5555 72.0948C63.6704 72.0948 55.6577 64.0822 55.6577 54.1988C55.6577 44.3155 63.6704 36.3028 73.5555 36.3028C83.4389 36.3028 91.4515 44.3155 91.4515 54.1988Z" fill="white"/>
<path d="M89.0587 54.1987C89.0587 60.1605 84.2251 64.994 78.2634 64.994C72.3017 64.994 67.47 60.1605 67.47 54.1987C67.47 48.237 72.3017 43.4035 78.2634 43.4035C84.2251 43.4035 89.0587 48.237 89.0587 54.1987Z" fill="#171717"/>
<path d="M102.575 54.1988C102.575 64.0822 110.588 72.0948 120.471 72.0948C130.358 72.0948 138.371 64.0822 138.371 54.1988C138.371 44.3155 130.358 36.3028 120.471 36.3028C110.588 36.3028 102.575 44.3155 102.575 54.1988Z" fill="white"/>
<path d="M104.969 54.1987C104.969 60.1605 109.803 64.994 115.764 64.994C121.726 64.994 126.56 60.1605 126.56 54.1987C126.56 48.237 121.726 43.4035 115.764 43.4035C109.803 43.4035 104.969 48.237 104.969 54.1987Z" fill="#171717"/>
<path d="M61.6276 78.089C61.6276 82.0575 56.7202 85.2727 50.6662 85.2727C44.6125 85.2727 39.7051 82.0575 39.7051 78.089C39.7051 74.1206 44.6125 70.9054 50.6662 70.9054C56.7202 70.9054 61.6276 74.1206 61.6276 78.089Z" fill="#DA533D"/>
<path d="M152.616 78.089C152.616 82.0575 147.71 85.2727 141.655 85.2727C135.603 85.2727 130.694 82.0575 130.694 78.089C130.694 74.1206 135.603 70.9054 141.655 70.9054C147.71 70.9054 152.616 74.1206 152.616 78.089Z" fill="#DA533D"/>
</svg>
