<svg width="138" height="131" viewBox="0 0 138 131" fill="none" xmlns="http://www.w3.org/2000/svg">
<path d="M102.193 112.785C102.193 112.785 102.182 129.621 102.157 130.092H35.005C34.9817 129.621 34.9702 129.154 34.9702 128.685C34.9702 128.685 34.9817 111.916 35.005 111.482C35.04 110.532 35.1338 109.594 35.2747 108.669C36.1655 102.431 39.0969 96.8492 43.3654 92.6161C43.9281 92.0659 44.5144 91.5261 45.1243 91.0217C48.537 88.1601 52.6283 86.0842 57.1322 85.0776C59.1372 84.619 61.236 84.3856 63.3807 84.3856H73.7934C75.9381 84.3856 78.0389 84.619 80.0439 85.0776C84.5458 86.0842 88.6267 88.1601 92.0386 91.0217C92.6471 91.5261 93.2349 92.0659 93.7976 92.6161C98.0661 96.8492 100.996 102.431 101.889 108.669C102.028 109.594 102.122 110.532 102.157 111.482C102.182 111.916 102.193 112.349 102.193 112.785Z" fill="#8E443F"/>
<path d="M91.3677 130.092H45.8027C45.9903 122.377 49.5793 115.586 55.0066 111.482C58.4664 108.844 62.6765 107.297 67.2263 107.297H69.9337C74.4835 107.297 78.6936 108.844 82.1638 111.482C87.5807 115.599 91.1801 122.377 91.3677 130.092Z" fill="#F3664F"/>
<path d="M44.0163 92.6558C33.9402 92.2848 24.4024 87.6496 17.8795 79.7963C19.0875 77.7579 18.2157 74.7733 15.764 72.9163C13.1698 70.9509 9.81966 71.003 8.2811 73.0351C7.55413 73.9938 7.37842 75.2235 7.65124 76.4615C6.38633 76.5324 5.24982 77.0347 4.52285 77.9934C3.79629 78.9542 3.62059 80.1839 3.89341 81.422C2.6283 81.4928 1.49199 81.9951 0.765016 82.9538C-0.773755 84.9859 0.0818162 88.2248 2.67624 90.1902C4.72231 91.7409 7.22606 92.016 8.95283 91.0739C16.6446 103.269 30.2732 109.992 44.1678 109.2C50.2489 108.852 53.8671 102.249 50.8596 96.9535L50.6178 96.5262C49.2673 94.1481 46.7495 92.7559 44.0163 92.6558Z" fill="#8E443F"/>
<path d="M93.1452 92.6558C103.222 92.2848 112.76 87.6496 119.283 79.7963C118.074 77.7579 118.946 74.7733 121.399 72.9163C123.991 70.9509 127.343 71.003 128.881 73.0351C129.608 73.9938 129.784 75.2235 129.51 76.4615C130.776 76.5324 131.911 77.0347 132.639 77.9934C133.366 78.9542 133.541 80.1839 133.268 81.422C134.533 81.4928 135.669 81.9951 136.397 82.9538C137.935 84.9859 137.08 88.2248 134.485 90.1902C132.439 91.7409 129.936 92.016 128.21 91.0739C120.517 103.269 106.888 109.992 92.9951 109.2C86.9134 108.852 83.2952 102.249 86.3027 96.9535L86.5445 96.5262C87.893 94.1481 90.4128 92.7559 93.1452 92.6558Z" fill="#8E443F"/>
<path d="M113.496 20.3859C114.632 13.9728 111.396 7.19497 106.156 3.39546C101.487 -0.0163879 94.9699 -1.1898 89.8573 1.42588C86.4913 3.17245 84.1341 6.80731 83.7464 10.513C83.6068 11.8261 83.7006 13.0933 84.0882 14.3584H53.0731C54.5508 9.55221 51.8413 3.78312 47.304 1.42588C42.1917 -1.1898 35.6841 -0.0163879 31.0407 3.39546C25.7644 7.19497 22.5276 13.9728 23.6654 20.3859C24.4509 24.8065 27.5109 28.7353 31.4861 30.7049C29.0351 34.5044 27.2064 38.654 26.0217 42.9808C21.2377 60.7341 28.0268 81.4303 45.1231 91.0218C51.0097 94.3274 58.1148 96.322 66.3933 96.4158C67.4021 96.4158 68.4087 96.3908 69.407 96.3803C78.2608 96.2949 85.8348 94.515 92.0374 91.0218C104.749 83.8918 111.773 70.5612 112.533 56.8762C112.804 52.2451 112.358 47.5307 111.139 42.9808C110.001 38.654 108.125 34.5044 105.722 30.7049C109.649 28.7353 112.711 24.8065 113.496 20.3859ZM106.027 16.3634C106.014 16.1883 106.002 16.0237 105.968 15.8486C105.943 15.684 105.92 15.5193 105.885 15.3442C105.849 15.1796 105.816 15.0149 105.768 14.8524C105.662 14.4418 105.516 14.0458 105.345 13.6435C105.247 13.4101 105.141 13.1725 105.018 12.9411C104.862 12.6431 104.678 12.343 104.478 12.0616C104.326 11.849 104.174 11.6385 104.009 11.4509C103.834 11.2508 103.669 11.0528 103.482 10.8653C103.119 10.5005 102.731 10.1608 102.308 9.85651C101.618 9.33962 100.82 8.92903 99.9866 8.63725C99.7761 8.56638 99.5655 8.50803 99.3425 8.44966C98.9194 8.34337 98.4859 8.27252 98.0524 8.22667C97.8294 8.21416 97.6189 8.20374 97.3959 8.20374C96.3517 8.20374 95.3325 8.42675 94.4051 8.89569C92.4126 9.92738 91.1453 12.2846 91.4163 14.4418C91.4746 14.992 91.6393 15.5193 91.9081 16.0237L99.2487 23.8457C99.5072 23.8561 99.7656 23.8457 100.022 23.7978C100.235 23.7874 100.445 23.7519 100.656 23.704C100.808 23.6686 100.96 23.6311 101.102 23.5873C101.427 23.4872 101.758 23.3643 102.075 23.1996C102.333 23.0704 102.592 22.9182 102.825 22.7661C103.271 22.4847 103.682 22.145 104.057 21.7469C104.326 21.4655 104.584 21.1592 104.807 20.832C104.912 20.6798 105.018 20.5151 105.112 20.3401C105.218 20.1754 105.299 19.9983 105.38 19.8232C105.464 19.6481 105.541 19.471 105.616 19.2834C105.762 18.9187 105.874 18.5456 105.943 18.1579C106.05 17.5598 106.072 16.9616 106.027 16.3634ZM45.1465 11.3217C45.1465 11.3217 45.135 11.3217 45.135 11.3113C44.9118 10.8528 44.6185 10.4422 44.2786 10.067C44.2671 10.067 44.2671 10.067 44.2671 10.0566C44.1852 9.96281 44.0914 9.87944 43.9974 9.78565C43.6337 9.43343 43.2233 9.12913 42.7665 8.89569H42.7544C41.828 8.42675 40.8077 8.20374 39.7761 8.20374C39.5533 8.20374 39.3421 8.21416 39.1193 8.22667C38.686 8.27252 38.2634 8.34337 37.8415 8.44966C37.6302 8.49551 37.4209 8.55804 37.2081 8.63725C36.369 8.94571 35.5668 9.33962 34.8517 9.85651C32.2717 11.7448 30.7008 15.0149 31.2635 18.1579C31.3802 18.8624 31.627 19.5418 31.9551 20.1629C31.9665 20.1983 31.9786 20.2213 32.002 20.2463C32.1195 20.4443 32.2369 20.6444 32.3657 20.832C32.5883 21.1592 32.8461 21.4655 33.1162 21.7469C33.2564 21.8991 33.3973 22.0283 33.5382 22.145C33.8313 22.4035 34.1314 22.6452 34.4526 22.8495C34.7769 23.0558 35.1214 23.2246 35.4728 23.3768C35.8484 23.5289 36.2235 23.6456 36.6106 23.729C37.0324 23.8103 37.4663 23.8561 37.912 23.8457V23.8332L45.2517 16.0237C45.4387 15.6965 45.5679 15.3442 45.6512 14.9795C45.6387 14.9691 45.6387 14.9691 45.6512 14.9566C45.9555 13.7602 45.7325 12.4472 45.1465 11.3217Z" fill="#8E443F"/>
<path d="M34.8355 9.85016C37.1036 8.20155 40.2768 7.61381 42.7688 8.89977C45.2611 10.1857 46.6173 13.5767 45.2351 16.0173L37.9085 23.8289C34.7299 23.9394 31.809 21.2862 31.2448 18.1557C30.6806 15.0273 32.2632 11.7197 34.8355 9.85016Z" fill="#F3664F"/>
<path d="M99.2596 23.8289L91.9316 16.0173C90.5497 13.5767 91.9086 10.1857 94.3993 8.89977C96.892 7.61381 100.064 8.20155 102.332 9.85016C104.904 11.7197 106.486 15.0273 105.923 18.1557C105.358 21.2862 102.438 23.9394 99.2596 23.8289Z" fill="#F3664F"/>
<path d="M43.3945 69.9443C43.3945 79.3336 54.6711 86.9473 68.5832 86.9473C82.4953 86.9473 93.773 79.3336 93.773 69.9443C93.773 60.5549 82.4953 52.9413 68.5832 52.9413C54.6711 52.9413 43.3945 60.5549 43.3945 69.9443Z" fill="#F0C42E"/>
<path d="M56.2964 55.8135C56.2964 60.3946 61.7966 64.1086 68.5828 64.1086C75.369 64.1086 80.8692 60.3946 80.8692 55.8135C80.8692 51.2345 75.369 47.5204 68.5828 47.5204C61.7966 47.5204 56.2964 51.2345 56.2964 55.8135Z" fill="#1A181A"/>
<path d="M58.7821 62.9516C60.7413 66.6595 64.3886 69.1584 68.5779 69.1584C72.7672 69.1584 76.4166 66.6595 78.3758 62.9516C79.3408 64.7795 79.9035 66.895 79.9035 69.1584C79.9035 72.2868 78.8405 75.1359 77.1002 77.3181C75.0244 74.7149 71.9814 73.0622 68.5779 73.0622C65.1765 73.0622 62.1335 74.7149 60.0577 77.3181C58.3173 75.1359 57.2544 72.2868 57.2544 69.1584C57.2544 66.895 57.815 64.7795 58.7821 62.9516Z" fill="#171717"/>
<path d="M68.5788 73.0623C71.9823 73.0623 75.0253 74.7151 77.1012 77.3183C75.0253 79.9214 71.9823 81.5742 68.5788 81.5742C65.1774 81.5742 62.1345 79.9214 60.0586 77.3183C62.1345 74.7151 65.1774 73.0623 68.5788 73.0623Z" fill="#EE2E32"/>
<path d="M75.5377 29.0542C80.4251 24.1647 88.3514 24.1647 93.2389 29.0542C98.1263 33.9417 98.1263 41.8659 93.2389 46.7533C88.3514 51.6408 80.4251 51.6408 75.5377 46.7533C70.6502 41.8659 70.6502 33.9417 75.5377 29.0542Z" fill="white"/>
<path d="M73.5479 37.9036C73.5479 42.072 76.9263 45.4526 81.0948 45.4526C85.2653 45.4526 88.6438 42.072 88.6438 37.9036C88.6438 33.7352 85.2653 30.3546 81.0948 30.3546C76.9263 30.3546 73.5479 33.7352 73.5479 37.9036Z" fill="#171717"/>
<path d="M64.0933 37.9038C64.0933 44.815 58.4888 50.4194 51.5776 50.4194C44.6651 50.4194 39.0615 44.815 39.0615 37.9038C39.0615 30.9904 44.6651 25.3881 51.5776 25.3881C58.4888 25.3881 64.0933 30.9904 64.0933 37.9038Z" fill="white"/>
<path d="M62.4193 37.9036C62.4193 42.072 59.0387 45.4526 54.8703 45.4526C50.7019 45.4526 47.3213 42.072 47.3213 37.9036C47.3213 33.7352 50.7019 30.3546 54.8703 30.3546C59.0387 30.3546 62.4193 33.7352 62.4193 37.9036Z" fill="#171717"/>
<path d="M92.7305 54.6108C92.7305 57.3849 96.1611 59.6338 100.396 59.6338C104.629 59.6338 108.06 57.3849 108.06 54.6108C108.06 51.8347 104.629 49.5858 100.396 49.5858C96.1611 49.5858 92.7305 51.8347 92.7305 54.6108Z" fill="#DA533D"/>
<path d="M29.0986 54.6108C29.0986 57.3849 32.5305 59.6338 36.7641 59.6338C40.9976 59.6338 44.4297 57.3849 44.4297 54.6108C44.4297 51.8347 40.9976 49.5858 36.7641 49.5858C32.5305 49.5858 29.0986 51.8347 29.0986 54.6108Z" fill="#DA533D"/>
</svg>
