<svg width="52" height="32" viewBox="0 0 52 32" fill="none" xmlns="http://www.w3.org/2000/svg">
<path d="M14.6099 7.13025V24.8711H4.4957C2.24197 24.8711 0.416748 23.0467 0.416748 20.7922V11.2084C0.416748 9.15708 1.9338 7.45758 3.90774 7.17395C4.10015 7.14329 4.29639 7.13025 4.4957 7.13025H14.6099Z" fill="#D811AD"/>
<path d="M30.4797 0.796799L14.4506 7.095V24.9141L30.4797 31.2031C31.7016 31.6829 33.0155 30.786 33.0155 29.476V2.5285C33.0155 1.21842 31.7008 0.316922 30.4797 0.796799Z" fill="#FF8CDB"/>
<path d="M3.90724 7.17467C1.9356 7.45677 0.419312 9.15858 0.419312 11.2099V20.7937C0.419312 23.0474 2.24377 24.8711 4.49673 24.8711H6.38788V7.12793H4.49673C4.29896 7.12793 4.10042 7.14477 3.90724 7.17467Z" fill="#FF8CDB"/>
<path opacity="0.5" d="M17.5091 9.34951C18.4766 8.77457 19.4754 8.27554 20.4842 7.80409C21.4915 7.32728 22.5164 6.89647 23.5452 6.47332C24.5801 6.06474 25.618 5.66688 26.6743 5.31349C27.7292 4.9555 28.7939 4.62433 29.8901 4.37059C30.1117 4.31923 30.3332 4.45722 30.3846 4.67876C30.426 4.85814 30.3432 5.03751 30.1929 5.12643C29.224 5.6983 28.2244 6.19352 27.214 6.6619C26.2052 7.13488 25.1787 7.56186 24.1477 7.97964C23.1113 8.38286 22.0718 8.77766 21.0132 9.12722C19.9568 9.48137 18.8905 9.80869 17.7928 10.0601C17.5843 10.1077 17.3758 9.97733 17.3282 9.76882C17.2907 9.60094 17.3689 9.43306 17.5091 9.34951Z" fill="white"/>
<path opacity="0.25" d="M14.4506 20.8443V24.8719H6.3877V20.6343C6.72882 20.7439 7.09985 20.8029 7.47854 20.8029H13.9071C14.0887 20.8022 14.2742 20.8152 14.4506 20.8443Z" fill="#0A1640"/>
<g opacity="0.5">
<path d="M3.90724 17.2299V7.17468C1.9356 7.45678 0.419312 9.15859 0.419312 11.2099V20.7937C0.419312 23.0474 2.24377 24.8711 4.49673 24.8711H6.38788V20.6335C4.94748 20.1705 3.90724 18.8221 3.90724 17.2299Z" fill="#D811AD"/>
<path d="M14.9732 20.9662C14.8552 20.9286 14.7333 20.8987 14.6107 20.8734C14.5601 20.8604 14.5056 20.8527 14.4504 20.8435V24.9125L30.4796 31.2015C31.7015 31.6814 33.0154 30.7845 33.0154 29.4744V26.6059L14.9732 20.9662Z" fill="#D811AD"/>
</g>
<path d="M32.4382 0.644257C31.8173 0.221107 31.0277 0.13294 30.3263 0.408141L14.2979 6.70557C14.2941 6.7071 14.2926 6.71094 14.2895 6.71247H6.39913C6.3953 6.71247 6.39224 6.71018 6.38841 6.71018H4.49725C4.32094 6.71018 4.13467 6.72934 3.94839 6.75311C3.91696 6.75694 3.88017 6.75541 3.84874 6.76078C3.595 6.79757 3.3497 6.85965 3.11206 6.93708C2.58005 7.10956 2.0902 7.37556 1.66705 7.72052C0.645971 8.55302 -0.000244141 9.82019 -0.000244141 11.2085V20.7922C-0.000244141 23.2713 2.01661 25.2882 4.49572 25.2882H4.49649H6.38764H14.2818C14.2887 25.2912 14.2918 25.2989 14.2987 25.3012L30.3271 31.591C30.5969 31.6968 30.8805 31.7496 31.1619 31.7496C31.6119 31.7496 32.058 31.6163 32.4405 31.3556C33.0622 30.9325 33.4332 30.2288 33.4332 29.4752V2.52774C33.4332 1.77266 33.0614 1.06894 32.4382 0.644257ZM14.0335 24.4541H6.80542V7.54804H14.0335V24.4541ZM4.49649 24.4541C2.4781 24.4541 0.836082 22.8121 0.836082 20.7937V11.21C0.836082 10.1329 1.31979 9.15327 2.08177 8.47638C2.54095 8.06933 3.10132 7.78109 3.72608 7.6454C3.8081 7.62777 3.88477 7.59942 3.96833 7.58715C4.00896 7.58102 4.04498 7.58253 4.08484 7.57793C4.21746 7.56184 4.34931 7.54804 4.49496 7.54804H5.96985V24.4541H4.49649ZM32.5984 29.476C32.5984 29.9605 32.37 30.3943 31.9706 30.6665C31.5712 30.9386 31.0837 30.9923 30.6322 30.8152L15.0277 24.6925V7.3173L30.6322 1.18623C31.0829 1.00838 31.5697 1.06358 31.9683 1.33494C32.3685 1.60785 32.5984 2.0425 32.5984 2.52851V29.476Z" fill="#0A1640"/>
<path d="M45.6318 0.438741C45.4708 0.273927 45.2064 0.272384 45.0415 0.434132C44.8767 0.59588 44.8752 0.859597 45.0362 1.02441C48.9879 5.04357 51.1642 10.3628 51.1642 16.001C51.1642 21.64 48.9879 26.9592 45.0362 30.9784C44.8744 31.1432 44.8767 31.4069 45.0415 31.5687C45.1228 31.6492 45.2286 31.689 45.3344 31.689C45.4425 31.689 45.5505 31.6476 45.6318 31.5641C49.7384 27.3878 51.9998 21.8607 51.9998 16.0018C51.9998 10.1413 49.7384 4.61505 45.6318 0.438741Z" fill="#0A1640"/>
<path d="M41.8973 3.86311C41.734 3.7006 41.4695 3.70135 41.307 3.86463C41.1445 4.02792 41.1445 4.2924 41.3085 4.45491C44.3978 7.53119 46.0996 11.6316 46.0996 16.0011C46.0996 20.3713 44.3986 24.4718 41.3085 27.5473C41.1452 27.7098 41.1445 27.9742 41.307 28.1375C41.3883 28.2196 41.4956 28.261 41.6029 28.261C41.7095 28.261 41.816 28.2203 41.8973 28.1391C45.1453 24.9049 46.9337 20.5944 46.9337 16.0011C46.9337 11.4078 45.1453 7.09654 41.8973 3.86311Z" fill="#0A1640"/>
<path d="M37.6565 7.73285C37.4893 7.57417 37.2249 7.58107 37.0662 7.74895C36.9075 7.91683 36.9152 8.18052 37.0823 8.3392C39.1735 10.3193 40.3732 13.1111 40.3732 16.0011C40.3732 18.8904 39.1735 21.683 37.0823 23.6631C36.9152 23.8218 36.9075 24.0855 37.0662 24.2533C37.1482 24.34 37.2586 24.3837 37.369 24.3837C37.4717 24.3837 37.5752 24.3453 37.6557 24.2687C39.9125 22.1315 41.2072 19.118 41.2072 16.0004C41.2072 12.8827 39.9133 9.8693 37.6565 7.73285Z" fill="#0A1640"/>
</svg>




