<svg width="17" height="14" viewBox="0 0 17 14" fill="none" xmlns="http://www.w3.org/2000/svg">
<path d="M16.3246 0.867145C16.2984 1.03843 16.2144 1.203 16.0688 1.32729C12.5977 4.2847 10.0547 8.27254 7.54787 13.2067C7.38454 13.5279 7.06131 13.732 6.70958 13.7686C6.35015 13.8065 5.99262 13.8717 5.64281 13.9644C5.16549 14.0903 4.66506 13.8748 4.41889 13.4375C3.41456 11.6573 2.09699 10.0626 0.5483 8.75435C0.314464 8.55703 0.264771 8.2121 0.431572 7.95325C0.437752 7.94298 0.444278 7.93313 0.450837 7.92286C1.33923 6.56135 3.26933 6.50454 4.23667 7.80842C4.71324 8.45009 5.20481 9.10284 5.64861 9.83766C7.87189 6.24801 11.5263 1.97803 15.2737 0.0786409C15.4859 -0.0290792 15.7364 -0.0263347 15.9459 0.0881037C16.2379 0.247956 16.3697 0.567596 16.3246 0.867145Z" fill="white"/>
</svg>
