<svg width="20" height="20" viewBox="0 0 20 20" fill="none" xmlns="http://www.w3.org/2000/svg">
<path d="M1.6665 10C1.6665 6.85754 1.6665 5.28587 2.64317 4.31004C3.61984 3.33421 5.19067 3.33337 8.33317 3.33337H11.6665C14.809 3.33337 16.3807 3.33337 17.3565 4.31004C18.3323 5.28671 18.3332 6.85754 18.3332 10C18.3332 13.1425 18.3332 14.7142 17.3565 15.69C16.3798 16.6659 14.809 16.6667 11.6665 16.6667H8.33317C5.19067 16.6667 3.619 16.6667 2.64317 15.69C1.66734 14.7134 1.6665 13.1425 1.6665 10Z" stroke="#C4C4C4" stroke-width="1.5"/>
<path d="M5 6.66675L6.79917 8.16675C8.33 9.44175 9.095 10.0792 10 10.0792C10.905 10.0792 11.6708 9.44175 13.2008 8.16591L15 6.66675" stroke="#C4C4C4" stroke-width="1.5" stroke-linecap="round"/>
</svg>
