<svg width="20" height="16" viewBox="0 0 20 16" fill="none" xmlns="http://www.w3.org/2000/svg">
<path d="M2.729 10.7467C2.02067 9.82671 1.6665 9.36587 1.6665 8.00004C1.6665 6.63337 2.02067 6.17421 2.729 5.25337C4.14317 3.41671 6.51484 1.33337 9.99984 1.33337C13.4848 1.33337 15.8565 3.41671 17.2707 5.25337C17.979 6.17504 18.3332 6.63421 18.3332 8.00004C18.3332 9.36671 17.979 9.82587 17.2707 10.7467C15.8565 12.5834 13.4848 14.6667 9.99984 14.6667C6.51484 14.6667 4.14317 12.5834 2.729 10.7467Z" stroke="#FF8BD2" stroke-width="1.5"/>
<path d="M12.5 8C12.5 8.66304 12.2366 9.29893 11.7678 9.76777C11.2989 10.2366 10.663 10.5 10 10.5C9.33696 10.5 8.70107 10.2366 8.23223 9.76777C7.76339 9.29893 7.5 8.66304 7.5 8C7.5 7.33696 7.76339 6.70107 8.23223 6.23223C8.70107 5.76339 9.33696 5.5 10 5.5C10.663 5.5 11.2989 5.76339 11.7678 6.23223C12.2366 6.70107 12.5 7.33696 12.5 8Z" stroke="#FF8BD2" stroke-width="1.5"/>
</svg>
