<svg width="14" height="14" viewBox="0 0 14 14" fill="none" xmlns="http://www.w3.org/2000/svg">
<g clip-path="url(#clip0_234_74)">
<path d="M1.16699 9.3335C1.16699 7.68383 1.16699 6.85841 1.67974 6.34625C2.19191 5.8335 3.01733 5.8335 4.66699 5.8335H9.33366C10.9833 5.8335 11.8087 5.8335 12.3209 6.34625C12.8337 6.85841 12.8337 7.68383 12.8337 9.3335C12.8337 10.9832 12.8337 11.8086 12.3209 12.3207C11.8087 12.8335 10.9833 12.8335 9.33366 12.8335H4.66699C3.01733 12.8335 2.19191 12.8335 1.67974 12.3207C1.16699 11.8086 1.16699 10.9832 1.16699 9.3335Z" stroke="white"/>
<path d="M7.00041 10.5001C7.64474 10.5001 8.16707 9.97775 8.16707 9.33341C8.16707 8.68908 7.64474 8.16675 7.00041 8.16675C6.35607 8.16675 5.83374 8.68908 5.83374 9.33341C5.83374 9.97775 6.35607 10.5001 7.00041 10.5001Z" stroke="white"/>
<path d="M3.50024 5.83341V4.66675C3.50024 3.73849 3.86899 2.84825 4.52537 2.19187C5.18175 1.5355 6.07199 1.16675 7.00024 1.16675C7.9285 1.16675 8.81874 1.5355 9.47512 2.19187C10.1315 2.84825 10.5002 3.73849 10.5002 4.66675V5.83341" stroke="white" stroke-linecap="round"/>
</g>
<defs>
<clipPath id="clip0_234_74">
<rect width="14" height="14" fill="white" transform="translate(0.000244141)"/>
</clipPath>
</defs>
</svg>
