<svg width="214" height="64" viewBox="0 0 214 64" fill="none" xmlns="http://www.w3.org/2000/svg">
<rect x="35.5" y="9" width="178" height="46" rx="23" fill="#27C0FF"/>
<path d="M69.048 38V25.652H71.694L74.502 33.662C74.574 33.878 74.646 34.118 74.718 34.382C74.802 34.634 74.874 34.874 74.934 35.102C75.006 35.33 75.06 35.528 75.096 35.696H75.222C75.258 35.516 75.306 35.312 75.366 35.084C75.426 34.844 75.492 34.598 75.564 34.346C75.636 34.094 75.702 33.866 75.762 33.662L78.57 25.652H81.198V38H79.488V30.764C79.488 30.392 79.494 29.99 79.506 29.558C79.518 29.114 79.53 28.712 79.542 28.352C79.554 27.98 79.56 27.716 79.56 27.56H79.416C79.38 27.716 79.32 27.938 79.236 28.226C79.152 28.502 79.062 28.796 78.966 29.108C78.882 29.408 78.804 29.678 78.732 29.918L75.834 38H74.358L71.46 29.918C71.388 29.714 71.31 29.48 71.226 29.216C71.154 28.94 71.076 28.658 70.992 28.37C70.92 28.082 70.848 27.812 70.776 27.56H70.65C70.662 27.824 70.668 28.154 70.668 28.55C70.68 28.934 70.686 29.324 70.686 29.72C70.698 30.104 70.704 30.452 70.704 30.764V38H69.048ZM85.9982 38.216C85.6502 38.216 85.3022 38.174 84.9542 38.09C84.6062 38.006 84.2822 37.868 83.9822 37.676C83.6822 37.484 83.4422 37.22 83.2622 36.884C83.0822 36.536 82.9922 36.104 82.9922 35.588C82.9922 34.94 83.1482 34.406 83.4602 33.986C83.7722 33.566 84.2042 33.242 84.7562 33.014C85.3202 32.774 85.9862 32.612 86.7542 32.528C87.5222 32.432 88.3562 32.384 89.2562 32.384V31.304C89.2562 30.956 89.1962 30.656 89.0762 30.404C88.9562 30.152 88.7402 29.96 88.4282 29.828C88.1282 29.684 87.6962 29.612 87.1322 29.612C86.5922 29.612 86.1602 29.684 85.8362 29.828C85.5242 29.96 85.3022 30.134 85.1702 30.35C85.0502 30.566 84.9902 30.806 84.9902 31.07V31.34H83.4602C83.4482 31.28 83.4422 31.22 83.4422 31.16C83.4422 31.1 83.4422 31.028 83.4422 30.944C83.4422 30.368 83.5982 29.888 83.9102 29.504C84.2342 29.108 84.6842 28.814 85.2602 28.622C85.8362 28.418 86.4962 28.316 87.2402 28.316C88.0322 28.316 88.6922 28.43 89.2202 28.658C89.7602 28.886 90.1622 29.21 90.4262 29.63C90.7022 30.05 90.8402 30.554 90.8402 31.142V36.272C90.8402 36.5 90.8942 36.662 91.0022 36.758C91.1102 36.842 91.2422 36.884 91.3982 36.884H92.1002V37.928C91.9322 38 91.7462 38.06 91.5422 38.108C91.3382 38.168 91.1042 38.198 90.8402 38.198C90.5282 38.198 90.2702 38.132 90.0662 38C89.8622 37.88 89.7062 37.712 89.5982 37.496C89.4902 37.268 89.4182 37.016 89.3822 36.74H89.2562C89.0402 37.04 88.7642 37.304 88.4282 37.532C88.1042 37.748 87.7382 37.916 87.3302 38.036C86.9222 38.156 86.4782 38.216 85.9982 38.216ZM86.3942 36.884C86.7782 36.884 87.1382 36.824 87.4742 36.704C87.8222 36.584 88.1282 36.416 88.3922 36.2C88.6562 35.972 88.8662 35.702 89.0222 35.39C89.1782 35.078 89.2562 34.736 89.2562 34.364V33.572C88.2842 33.572 87.4562 33.626 86.7722 33.734C86.0882 33.842 85.5602 34.034 85.1882 34.31C84.8282 34.586 84.6482 34.976 84.6482 35.48C84.6482 35.804 84.7202 36.068 84.8642 36.272C85.0082 36.476 85.2122 36.632 85.4762 36.74C85.7402 36.836 86.0462 36.884 86.3942 36.884ZM96.3828 38.216C95.7348 38.216 95.1648 38.15 94.6728 38.018C94.1808 37.886 93.7728 37.694 93.4488 37.442C93.1248 37.19 92.8788 36.89 92.7108 36.542C92.5428 36.194 92.4588 35.798 92.4588 35.354C92.4588 35.294 92.4588 35.24 92.4588 35.192C92.4588 35.132 92.4648 35.084 92.4768 35.048H94.0428C94.0308 35.096 94.0248 35.138 94.0248 35.174C94.0248 35.21 94.0248 35.246 94.0248 35.282C94.0368 35.702 94.1448 36.032 94.3488 36.272C94.5648 36.512 94.8588 36.68 95.2308 36.776C95.6028 36.872 96.0168 36.92 96.4728 36.92C96.8688 36.92 97.2348 36.872 97.5708 36.776C97.9068 36.668 98.1708 36.512 98.3628 36.308C98.5668 36.092 98.6688 35.822 98.6688 35.498C98.6688 35.102 98.5368 34.802 98.2728 34.598C98.0208 34.382 97.6848 34.214 97.2648 34.094C96.8448 33.974 96.4068 33.848 95.9508 33.716C95.5668 33.608 95.1828 33.488 94.7988 33.356C94.4148 33.224 94.0668 33.062 93.7548 32.87C93.4548 32.678 93.2088 32.432 93.0168 32.132C92.8368 31.82 92.7468 31.43 92.7468 30.962C92.7468 30.542 92.8308 30.17 92.9988 29.846C93.1788 29.522 93.4308 29.246 93.7548 29.018C94.0788 28.79 94.4688 28.622 94.9248 28.514C95.3928 28.394 95.9088 28.334 96.4728 28.334C97.0728 28.334 97.5948 28.4 98.0388 28.532C98.4948 28.664 98.8728 28.85 99.1728 29.09C99.4728 29.33 99.6948 29.606 99.8388 29.918C99.9828 30.218 100.055 30.542 100.055 30.89C100.055 30.962 100.055 31.034 100.055 31.106C100.055 31.166 100.049 31.214 100.037 31.25H98.4888V31.052C98.4888 30.812 98.4228 30.584 98.2908 30.368C98.1708 30.14 97.9548 29.96 97.6428 29.828C97.3428 29.684 96.9228 29.612 96.3828 29.612C96.0348 29.612 95.7348 29.642 95.4828 29.702C95.2308 29.75 95.0208 29.834 94.8528 29.954C94.6848 30.062 94.5588 30.194 94.4748 30.35C94.3908 30.494 94.3488 30.662 94.3488 30.854C94.3488 31.166 94.4508 31.406 94.6548 31.574C94.8588 31.742 95.1288 31.88 95.4648 31.988C95.8128 32.096 96.1848 32.216 96.5808 32.348C97.0008 32.468 97.4268 32.594 97.8588 32.726C98.3028 32.846 98.7048 33.002 99.0648 33.194C99.4368 33.386 99.7308 33.65 99.9468 33.986C100.175 34.31 100.289 34.742 100.289 35.282C100.289 35.786 100.193 36.224 100.001 36.596C99.8088 36.968 99.5328 37.274 99.1728 37.514C98.8248 37.754 98.4108 37.928 97.9308 38.036C97.4628 38.156 96.9468 38.216 96.3828 38.216ZM104.101 38.216C103.609 38.216 103.225 38.126 102.949 37.946C102.673 37.754 102.475 37.508 102.355 37.208C102.235 36.896 102.175 36.566 102.175 36.218V29.864H100.951V28.532H102.211L102.499 25.886H103.759V28.532H105.541V29.864H103.759V35.984C103.759 36.284 103.813 36.512 103.921 36.668C104.029 36.812 104.233 36.884 104.533 36.884H105.541V37.928C105.421 37.988 105.277 38.036 105.109 38.072C104.941 38.108 104.767 38.138 104.587 38.162C104.419 38.198 104.257 38.216 104.101 38.216ZM110.65 38.216C109.714 38.216 108.922 38.042 108.274 37.694C107.638 37.334 107.152 36.788 106.816 36.056C106.492 35.324 106.33 34.394 106.33 33.266C106.33 32.126 106.492 31.196 106.816 30.476C107.152 29.744 107.644 29.204 108.292 28.856C108.94 28.496 109.75 28.316 110.722 28.316C111.61 28.316 112.354 28.49 112.954 28.838C113.554 29.174 114.004 29.684 114.304 30.368C114.616 31.04 114.772 31.886 114.772 32.906V33.662H107.968C107.992 34.418 108.1 35.042 108.292 35.534C108.496 36.014 108.796 36.368 109.192 36.596C109.588 36.812 110.086 36.92 110.686 36.92C111.094 36.92 111.448 36.872 111.748 36.776C112.06 36.668 112.318 36.518 112.522 36.326C112.738 36.134 112.9 35.906 113.008 35.642C113.116 35.378 113.176 35.09 113.188 34.778H114.736C114.724 35.282 114.628 35.75 114.448 36.182C114.268 36.602 114.004 36.962 113.656 37.262C113.308 37.562 112.882 37.796 112.378 37.964C111.874 38.132 111.298 38.216 110.65 38.216ZM108.004 32.474H113.134C113.134 31.946 113.074 31.502 112.954 31.142C112.834 30.782 112.66 30.488 112.432 30.26C112.216 30.032 111.958 29.87 111.658 29.774C111.37 29.666 111.04 29.612 110.668 29.612C110.116 29.612 109.648 29.714 109.264 29.918C108.88 30.122 108.586 30.434 108.382 30.854C108.178 31.274 108.052 31.814 108.004 32.474ZM116.372 38V28.532H117.65L117.794 30.098H117.92C118.016 29.798 118.148 29.516 118.316 29.252C118.484 28.976 118.712 28.754 119 28.586C119.288 28.406 119.642 28.316 120.062 28.316C120.242 28.316 120.404 28.334 120.548 28.37C120.704 28.394 120.818 28.424 120.89 28.46V29.918H120.296C119.888 29.918 119.534 29.99 119.234 30.134C118.946 30.266 118.706 30.458 118.514 30.71C118.322 30.962 118.178 31.262 118.082 31.61C117.998 31.958 117.956 32.33 117.956 32.726V38H116.372ZM128.926 38.216C127.966 38.216 127.156 38.042 126.496 37.694C125.848 37.334 125.35 36.788 125.002 36.056C124.666 35.324 124.498 34.394 124.498 33.266C124.498 32.126 124.666 31.196 125.002 30.476C125.35 29.744 125.848 29.204 126.496 28.856C127.156 28.496 127.966 28.316 128.926 28.316C129.886 28.316 130.69 28.496 131.338 28.856C131.998 29.204 132.496 29.744 132.832 30.476C133.168 31.196 133.336 32.126 133.336 33.266C133.336 34.394 133.168 35.324 132.832 36.056C132.496 36.788 131.998 37.334 131.338 37.694C130.69 38.042 129.886 38.216 128.926 38.216ZM128.926 36.884C129.538 36.884 130.048 36.764 130.456 36.524C130.864 36.284 131.17 35.912 131.374 35.408C131.59 34.892 131.698 34.244 131.698 33.464V33.068C131.698 32.276 131.59 31.628 131.374 31.124C131.17 30.62 130.864 30.248 130.456 30.008C130.048 29.768 129.538 29.648 128.926 29.648C128.314 29.648 127.798 29.768 127.378 30.008C126.97 30.248 126.664 30.62 126.46 31.124C126.256 31.628 126.154 32.276 126.154 33.068V33.464C126.154 34.244 126.256 34.892 126.46 35.408C126.664 35.912 126.97 36.284 127.378 36.524C127.798 36.764 128.314 36.884 128.926 36.884ZM135.322 38V29.864H133.918V28.532H135.322V27.02C135.322 26.648 135.376 26.3 135.484 25.976C135.592 25.64 135.796 25.37 136.096 25.166C136.396 24.95 136.816 24.842 137.356 24.842C137.524 24.842 137.686 24.854 137.842 24.878C138.01 24.89 138.166 24.914 138.31 24.95C138.466 24.974 138.604 25.004 138.724 25.04V26.174H137.77C137.47 26.174 137.248 26.252 137.104 26.408C136.972 26.552 136.906 26.762 136.906 27.038V28.532H138.724V29.864H136.906V38H135.322ZM146.343 38.216C145.695 38.216 145.125 38.15 144.633 38.018C144.141 37.886 143.733 37.694 143.409 37.442C143.085 37.19 142.839 36.89 142.671 36.542C142.503 36.194 142.419 35.798 142.419 35.354C142.419 35.294 142.419 35.24 142.419 35.192C142.419 35.132 142.425 35.084 142.437 35.048H144.003C143.991 35.096 143.985 35.138 143.985 35.174C143.985 35.21 143.985 35.246 143.985 35.282C143.997 35.702 144.105 36.032 144.309 36.272C144.525 36.512 144.819 36.68 145.191 36.776C145.563 36.872 145.977 36.92 146.433 36.92C146.829 36.92 147.195 36.872 147.531 36.776C147.867 36.668 148.131 36.512 148.323 36.308C148.527 36.092 148.629 35.822 148.629 35.498C148.629 35.102 148.497 34.802 148.233 34.598C147.981 34.382 147.645 34.214 147.225 34.094C146.805 33.974 146.367 33.848 145.911 33.716C145.527 33.608 145.143 33.488 144.759 33.356C144.375 33.224 144.027 33.062 143.715 32.87C143.415 32.678 143.169 32.432 142.977 32.132C142.797 31.82 142.707 31.43 142.707 30.962C142.707 30.542 142.791 30.17 142.959 29.846C143.139 29.522 143.391 29.246 143.715 29.018C144.039 28.79 144.429 28.622 144.885 28.514C145.353 28.394 145.869 28.334 146.433 28.334C147.033 28.334 147.555 28.4 147.999 28.532C148.455 28.664 148.833 28.85 149.133 29.09C149.433 29.33 149.655 29.606 149.799 29.918C149.943 30.218 150.015 30.542 150.015 30.89C150.015 30.962 150.015 31.034 150.015 31.106C150.015 31.166 150.009 31.214 149.997 31.25H148.449V31.052C148.449 30.812 148.383 30.584 148.251 30.368C148.131 30.14 147.915 29.96 147.603 29.828C147.303 29.684 146.883 29.612 146.343 29.612C145.995 29.612 145.695 29.642 145.443 29.702C145.191 29.75 144.981 29.834 144.813 29.954C144.645 30.062 144.519 30.194 144.435 30.35C144.351 30.494 144.309 30.662 144.309 30.854C144.309 31.166 144.411 31.406 144.615 31.574C144.819 31.742 145.089 31.88 145.425 31.988C145.773 32.096 146.145 32.216 146.541 32.348C146.961 32.468 147.387 32.594 147.819 32.726C148.263 32.846 148.665 33.002 149.025 33.194C149.397 33.386 149.691 33.65 149.907 33.986C150.135 34.31 150.249 34.742 150.249 35.282C150.249 35.786 150.153 36.224 149.961 36.596C149.769 36.968 149.493 37.274 149.133 37.514C148.785 37.754 148.371 37.928 147.891 38.036C147.423 38.156 146.907 38.216 146.343 38.216ZM155.734 38.216C154.774 38.216 153.964 38.042 153.304 37.694C152.656 37.334 152.158 36.788 151.81 36.056C151.474 35.324 151.306 34.394 151.306 33.266C151.306 32.126 151.474 31.196 151.81 30.476C152.158 29.744 152.656 29.204 153.304 28.856C153.964 28.496 154.774 28.316 155.734 28.316C156.694 28.316 157.498 28.496 158.146 28.856C158.806 29.204 159.304 29.744 159.64 30.476C159.976 31.196 160.144 32.126 160.144 33.266C160.144 34.394 159.976 35.324 159.64 36.056C159.304 36.788 158.806 37.334 158.146 37.694C157.498 38.042 156.694 38.216 155.734 38.216ZM155.734 36.884C156.346 36.884 156.856 36.764 157.264 36.524C157.672 36.284 157.978 35.912 158.182 35.408C158.398 34.892 158.506 34.244 158.506 33.464V33.068C158.506 32.276 158.398 31.628 158.182 31.124C157.978 30.62 157.672 30.248 157.264 30.008C156.856 29.768 156.346 29.648 155.734 29.648C155.122 29.648 154.606 29.768 154.186 30.008C153.778 30.248 153.472 30.62 153.268 31.124C153.064 31.628 152.962 32.276 152.962 33.068V33.464C152.962 34.244 153.064 34.892 153.268 35.408C153.472 35.912 153.778 36.284 154.186 36.524C154.606 36.764 155.122 36.884 155.734 36.884ZM164.686 38.216C163.774 38.216 163.042 37.982 162.49 37.514C161.938 37.046 161.662 36.23 161.662 35.066V28.532H163.246V34.85C163.246 35.246 163.294 35.57 163.39 35.822C163.486 36.074 163.624 36.272 163.804 36.416C163.984 36.56 164.194 36.662 164.434 36.722C164.686 36.782 164.956 36.812 165.244 36.812C165.7 36.812 166.12 36.704 166.504 36.488C166.888 36.272 167.2 35.96 167.44 35.552C167.692 35.132 167.818 34.646 167.818 34.094V28.532H169.402V38H168.124L167.98 36.578H167.854C167.602 36.962 167.314 37.274 166.99 37.514C166.678 37.754 166.324 37.928 165.928 38.036C165.544 38.156 165.13 38.216 164.686 38.216ZM171.499 38V28.532H172.777L172.921 29.954H173.047C173.299 29.57 173.581 29.258 173.893 29.018C174.217 28.778 174.571 28.604 174.955 28.496C175.351 28.376 175.771 28.316 176.216 28.316C176.816 28.316 177.337 28.418 177.781 28.622C178.238 28.826 178.592 29.156 178.844 29.612C179.108 30.068 179.239 30.686 179.239 31.466V38H177.655V31.682C177.655 31.286 177.601 30.962 177.493 30.71C177.398 30.458 177.26 30.26 177.079 30.116C176.911 29.972 176.701 29.87 176.449 29.81C176.209 29.75 175.939 29.72 175.64 29.72C175.196 29.72 174.776 29.828 174.38 30.044C173.983 30.26 173.665 30.572 173.425 30.98C173.197 31.388 173.083 31.874 173.083 32.438V38H171.499ZM184.504 38.216C183.724 38.216 183.052 38.042 182.488 37.694C181.936 37.346 181.504 36.806 181.192 36.074C180.892 35.33 180.742 34.37 180.742 33.194C180.742 32.078 180.898 31.16 181.21 30.44C181.522 29.72 181.954 29.186 182.506 28.838C183.058 28.49 183.7 28.316 184.432 28.316C184.852 28.316 185.242 28.364 185.602 28.46C185.962 28.556 186.28 28.706 186.556 28.91C186.844 29.114 187.096 29.384 187.312 29.72H187.42V24.986H189.004V38H187.726L187.582 36.65H187.456C187.132 37.178 186.712 37.574 186.196 37.838C185.68 38.09 185.116 38.216 184.504 38.216ZM184.882 36.83C185.482 36.83 185.968 36.698 186.34 36.434C186.712 36.17 186.982 35.786 187.15 35.282C187.33 34.778 187.42 34.154 187.42 33.41V33.122C187.42 32.474 187.354 31.928 187.222 31.484C187.09 31.04 186.91 30.686 186.682 30.422C186.454 30.158 186.19 29.972 185.89 29.864C185.59 29.756 185.272 29.702 184.936 29.702C184.348 29.702 183.868 29.822 183.496 30.062C183.124 30.29 182.848 30.656 182.668 31.16C182.488 31.652 182.398 32.294 182.398 33.086V33.464C182.398 34.28 182.494 34.94 182.686 35.444C182.878 35.936 183.154 36.29 183.514 36.506C183.886 36.722 184.342 36.83 184.882 36.83ZM194.447 38.216C193.799 38.216 193.229 38.15 192.737 38.018C192.245 37.886 191.837 37.694 191.513 37.442C191.189 37.19 190.943 36.89 190.775 36.542C190.607 36.194 190.523 35.798 190.523 35.354C190.523 35.294 190.523 35.24 190.523 35.192C190.523 35.132 190.529 35.084 190.541 35.048H192.107C192.095 35.096 192.089 35.138 192.089 35.174C192.089 35.21 192.089 35.246 192.089 35.282C192.101 35.702 192.209 36.032 192.413 36.272C192.629 36.512 192.923 36.68 193.295 36.776C193.667 36.872 194.081 36.92 194.537 36.92C194.933 36.92 195.299 36.872 195.635 36.776C195.971 36.668 196.235 36.512 196.427 36.308C196.631 36.092 196.733 35.822 196.733 35.498C196.733 35.102 196.601 34.802 196.337 34.598C196.085 34.382 195.749 34.214 195.329 34.094C194.909 33.974 194.471 33.848 194.015 33.716C193.631 33.608 193.247 33.488 192.863 33.356C192.479 33.224 192.131 33.062 191.819 32.87C191.519 32.678 191.273 32.432 191.081 32.132C190.901 31.82 190.811 31.43 190.811 30.962C190.811 30.542 190.895 30.17 191.063 29.846C191.243 29.522 191.495 29.246 191.819 29.018C192.143 28.79 192.533 28.622 192.989 28.514C193.457 28.394 193.973 28.334 194.537 28.334C195.137 28.334 195.659 28.4 196.103 28.532C196.559 28.664 196.937 28.85 197.237 29.09C197.537 29.33 197.759 29.606 197.903 29.918C198.047 30.218 198.119 30.542 198.119 30.89C198.119 30.962 198.119 31.034 198.119 31.106C198.119 31.166 198.113 31.214 198.101 31.25H196.553V31.052C196.553 30.812 196.487 30.584 196.355 30.368C196.235 30.14 196.019 29.96 195.707 29.828C195.407 29.684 194.987 29.612 194.447 29.612C194.099 29.612 193.799 29.642 193.547 29.702C193.295 29.75 193.085 29.834 192.917 29.954C192.749 30.062 192.623 30.194 192.539 30.35C192.455 30.494 192.413 30.662 192.413 30.854C192.413 31.166 192.515 31.406 192.719 31.574C192.923 31.742 193.193 31.88 193.529 31.988C193.877 32.096 194.249 32.216 194.645 32.348C195.065 32.468 195.491 32.594 195.923 32.726C196.367 32.846 196.769 33.002 197.129 33.194C197.501 33.386 197.795 33.65 198.011 33.986C198.239 34.31 198.353 34.742 198.353 35.282C198.353 35.786 198.257 36.224 198.065 36.596C197.873 36.968 197.597 37.274 197.237 37.514C196.889 37.754 196.475 37.928 195.995 38.036C195.527 38.156 195.011 38.216 194.447 38.216Z" fill="white"/>
<path d="M25.0356 4.71928C26.9328 3.10454 27.8814 2.29717 28.8704 1.82284C30.0031 1.28116 31.2428 1 32.4983 1C33.7539 1 34.9935 1.28116 36.1262 1.82284C37.1186 2.29381 38.0672 3.10118 39.9611 4.71928C40.7179 5.36518 41.0947 5.68476 41.4983 5.95389C42.4228 6.57346 43.4609 7.00339 44.5527 7.21877C45.027 7.31296 45.5215 7.35333 46.5105 7.43407C48.9964 7.62918 50.2376 7.7301 51.2737 8.09678C52.4571 8.51442 53.532 9.19163 54.4197 10.0787C55.3073 10.9659 55.9852 12.0404 56.4036 13.2236C56.7703 14.2631 56.8678 15.5044 57.0663 17.9871C57.1437 18.9761 57.184 19.4706 57.2782 19.9483C57.4935 21.0383 57.9241 22.0778 58.543 22.9995C58.8121 23.4032 59.1351 23.78 59.7776 24.5369C61.3922 26.4342 62.2029 27.3829 62.6772 28.3719C63.2189 29.5047 63.5 30.7444 63.5 32C63.5 33.2556 63.2189 34.4953 62.6772 35.6281C62.2063 36.6172 61.3956 37.5658 59.7776 39.4631C59.3363 39.951 58.9241 40.4643 58.543 41.0005C57.9239 41.924 57.494 42.961 57.2782 44.0517C57.184 44.5294 57.1437 45.0239 57.0663 46.0129C56.8678 48.4956 56.7703 49.7403 56.4036 50.7764C55.9852 51.9596 55.3073 53.0341 54.4197 53.9213C53.532 54.8084 52.4571 55.4856 51.2737 55.9032C50.2376 56.2733 48.9964 56.3708 46.5105 56.5659C45.5215 56.6467 45.0304 56.687 44.5527 56.7812C43.4609 56.9966 42.4228 57.4265 41.4983 58.0461C40.9634 58.4273 40.4512 58.8396 39.9644 59.2807C38.0672 60.8955 37.1186 61.7028 36.1296 62.1772C34.9969 62.7188 33.7573 63 32.5017 63C31.2461 63 30.0065 62.7188 28.8738 62.1772C27.8814 61.7062 26.9328 60.8988 25.039 59.2807C24.5511 58.8395 24.0378 58.4272 23.5017 58.0461C22.5773 57.4265 21.5391 56.9966 20.4473 56.7812C19.7995 56.6713 19.1458 56.5994 18.4895 56.5659C16.0036 56.3708 14.7624 56.2699 13.7263 55.9032C12.5429 55.4856 11.468 54.8084 10.5803 53.9213C9.69266 53.0341 9.01479 51.9596 8.5964 50.7764C8.22974 49.7403 8.13218 48.4956 7.93372 46.0129C7.9015 45.3556 7.83074 44.7007 7.72179 44.0517C7.50601 42.961 7.07611 41.924 6.45698 41.0005C6.18787 40.5968 5.86494 40.22 5.22244 39.4631C3.60779 37.5658 2.7971 36.6172 2.32279 35.6281C1.78114 34.4953 1.5 33.2556 1.5 32C1.5 30.7444 1.78114 29.5047 2.32279 28.3719C2.7971 27.3829 3.60443 26.4342 5.22244 24.5369C5.86494 23.78 6.18787 23.4032 6.45698 22.9995C7.07611 22.076 7.50601 21.039 7.72179 19.9483C7.81598 19.4706 7.85635 18.9761 7.93372 17.9871C8.13218 15.5044 8.22974 14.2631 8.5964 13.2236C9.01514 12.0401 9.69353 10.9653 10.5818 10.0782C11.47 9.19101 12.5456 8.514 13.7297 8.09678C14.7657 7.7301 16.007 7.62918 18.4929 7.43407C19.4819 7.35333 19.973 7.31296 20.4506 7.21877C21.5424 7.00339 22.5806 6.57346 23.505 5.95389C23.9087 5.68476 24.2821 5.36518 25.0356 4.71928Z" fill="#27C0FF" stroke="#0B9FD9" stroke-width="1.72222"/>
<path d="M47.0628 30.1623C46.7989 30.1203 46.5208 30.1301 46.2422 30.1993L45.3573 30.4213C43.8785 25.9138 40.5932 22.4782 36.6278 20.8414C33.9684 19.7447 31.006 19.4515 28.0758 20.1858C20.4529 22.0933 15.9034 30.2042 17.8505 38.3521L16.1991 38.7688C13.9217 29.3172 18.9472 19.9667 27.4841 17.8322C30.2791 17.1322 33.1083 17.2951 35.7306 18.1552C40.884 19.8481 45.2538 24.2497 47.0628 30.1623Z" fill="#FFCE00"/>
<path d="M49.7377 35.6767L48.744 31.7019C48.6951 31.5064 48.6218 31.3313 48.5281 31.1684C48.2146 30.6267 47.6729 30.2602 47.062 30.1625C46.7973 30.1217 46.5204 30.1299 46.2434 30.1991L45.3556 30.419L45.2742 30.4394C45.2864 30.4638 45.2905 30.4923 45.2986 30.5168L46.4715 35.2042L47.2575 38.3442C47.2657 38.3727 47.2697 38.3971 47.2738 38.4216L48.239 38.1813C49.3426 37.9044 50.0146 36.7803 49.7377 35.6767Z" fill="#00D4FC"/>
<path d="M18.917 42.0986L17.74 37.4111C17.7319 37.3867 17.7278 37.3582 17.7237 37.3337L16.7586 37.574C15.8463 37.8021 15.2273 38.6085 15.1988 39.5044C15.1906 39.6917 15.211 39.8832 15.2599 40.0746L16.2536 44.0534C16.5305 45.1612 17.6504 45.8331 18.7541 45.5562L19.7234 45.3159V45.3119C19.7152 45.2874 19.7071 45.263 19.703 45.2385L18.917 42.0986Z" fill="#00D4FC"/>
<path d="M45.1198 41.9072H45.1158C44.9773 41.9439 44.8388 41.9683 44.6922 41.9805C43.2709 42.1271 41.9148 41.2067 41.5564 39.7691L39.5975 31.9417C39.2391 30.5082 40.0007 29.0543 41.3242 28.5126C41.4586 28.4556 41.593 28.4149 41.7315 28.3782L41.7356 28.3742C43.2831 27.9913 44.8511 28.9117 45.2746 30.4389C45.2868 30.4634 45.2909 30.4919 45.299 30.5163L46.4719 35.2038L47.2579 38.3438C47.2661 38.3723 47.2702 38.3967 47.2742 38.4211C47.62 39.9728 46.667 41.5203 45.1198 41.9072Z" fill="#845EF9"/>
<path d="M23.6735 47.2385C23.5432 47.2955 23.4047 47.3403 23.2663 47.3729L23.2622 47.377C21.7187 47.7639 20.1508 46.8475 19.7231 45.3163V45.3122C19.715 45.2878 19.7069 45.2633 19.7028 45.2389L18.9168 42.099L17.7398 37.4115C17.7317 37.387 17.7276 37.3585 17.7235 37.3341C17.6747 37.1182 17.6543 36.9105 17.6543 36.6988C17.6543 35.3793 18.5421 34.1779 19.8779 33.848C20.0204 33.8073 20.163 33.7828 20.3055 33.7706C21.7268 33.6281 23.083 34.5485 23.4414 35.9861L25.4003 43.8135C25.7587 45.247 24.9971 46.6969 23.6735 47.2385Z" fill="#845EF9"/>
<path d="M41.3247 28.5129C40.0007 29.0574 39.2391 30.5077 39.5983 31.9428L41.5568 39.7715C41.916 41.2067 43.2697 42.1246 44.6939 41.9813L41.3247 28.5129Z" fill="#D811AD"/>
<path d="M23.4423 35.9846C23.0831 34.5494 21.7286 33.6286 20.3044 33.7715L23.6737 47.2398C24.9976 46.6953 25.7596 45.248 25.4008 43.8132L23.4423 35.9846Z" fill="#D811AD"/>
<g opacity="0.25">
<path d="M49.7382 35.6748L48.7433 31.7004C48.6968 31.5078 48.6235 31.3302 48.5282 31.1702C48.2265 32.5259 47.6245 33.8132 46.7432 34.8917C46.6544 35 46.5661 35.103 46.4724 35.2061L47.2576 38.3456C47.2645 38.3725 47.269 38.3965 47.2735 38.423L48.2395 38.1806C49.3423 37.9033 50.0155 36.7829 49.7382 35.6748Z" fill="#3C1DA1"/>
<path d="M18.9159 42.0988C18.7847 42.0544 18.654 42.0047 18.5257 41.9498C17.2417 41.4142 16.1038 40.563 15.2013 39.5074C15.1924 39.6927 15.2123 39.8846 15.2583 40.0772L16.2533 44.0516C16.5306 45.1597 17.6505 45.8325 18.7562 45.5556L19.7222 45.3133C19.7149 45.2892 19.708 45.2652 19.7011 45.2383L18.9159 42.0988Z" fill="#3C1DA1"/>
</g>
<path opacity="0.5" d="M47.0627 30.162C46.7988 30.12 46.5207 30.1298 46.2421 30.199L45.3571 30.421C43.8784 25.9135 40.5931 22.4779 36.6277 20.8411C36.4008 19.9244 36.0954 19.0248 35.7305 18.1549C40.8839 19.8479 45.2537 24.2495 47.0627 30.162Z" fill="#E38921"/>
<g opacity="0.25">
<path d="M47.257 38.3451L45.7807 32.444C45.2777 33.8942 44.4868 35.2259 43.3848 36.2966C42.7198 36.9441 41.9301 37.4683 41.0745 37.8438L41.5566 39.7713C41.9158 41.2065 43.2696 42.1244 44.6937 41.981C44.8359 41.968 44.978 41.9424 45.1181 41.9073L45.1209 41.9065C46.6925 41.5135 47.6508 39.9199 47.257 38.3451Z" fill="#0A1640"/>
<path d="M24.9185 41.8853C23.9867 41.9569 23.0435 41.8665 22.1516 41.6083C20.6753 41.1828 19.3505 40.3805 18.2236 39.3379L19.6999 45.239C20.0937 46.8139 21.6894 47.7685 23.2614 47.3751L23.2646 47.3742C23.4043 47.3392 23.542 47.2952 23.6735 47.2394C24.9975 46.6949 25.7595 45.2476 25.4007 43.8128L24.9185 41.8853Z" fill="#0A1640"/>
</g>
<path d="M49.9535 35.6195L48.9598 31.6487C48.9069 31.437 48.8254 31.2374 48.7195 31.0623C48.4019 30.5003 47.8602 30.1093 47.2331 29.9708C45.4289 24.196 41.1568 19.704 35.8014 17.9446C33.0606 17.0446 30.165 16.9306 27.4283 17.6148C19.1121 19.6958 14.0378 28.6432 15.7767 37.8431C15.3002 38.2503 14.9989 38.8449 14.9785 39.4965V39.5861C14.9785 39.7694 14.9989 39.9486 15.0437 40.1318L16.0374 44.1066C16.298 45.1451 17.2306 45.8415 18.2569 45.8415C18.4402 45.8415 18.6234 45.8171 18.8108 45.7723L19.5723 45.5809C20.0203 46.8515 21.2462 47.6823 22.5616 47.6823C22.81 47.6823 23.0625 47.6538 23.315 47.5927C23.3232 47.5887 23.3354 47.5846 23.3435 47.5805C23.4861 47.5439 23.6082 47.5031 23.7182 47.4583C23.7304 47.4543 23.7426 47.4502 23.7589 47.4461C23.8526 47.4054 23.9422 47.3647 24.0318 47.3158C24.2069 47.2221 24.3739 47.1122 24.5246 46.99C24.6019 46.9289 24.6712 46.8678 24.7404 46.7986C25.5345 46.0289 25.897 44.8723 25.616 43.7605L23.6571 35.929C23.2784 34.418 21.8245 33.3958 20.281 33.5506C20.1262 33.5669 19.9755 33.5913 19.8371 33.628C19.833 33.628 19.8289 33.6321 19.8208 33.6321C18.7986 33.8886 18.0166 34.6217 17.6582 35.538C17.2306 28.5251 21.5272 22.0538 28.1288 20.4004C30.9144 19.704 33.8262 19.9239 36.5426 21.0479C40.0613 22.4977 42.8876 25.2874 44.5044 28.8346C43.751 28.1871 42.7125 27.9061 41.6822 28.1626C41.674 28.1626 41.6659 28.1667 41.6577 28.1708C41.503 28.2074 41.3645 28.2563 41.2383 28.3092C40.9369 28.4314 40.6681 28.5984 40.4278 28.7979C40.3667 28.8509 40.3097 28.8998 40.2568 28.9568C39.597 29.5962 39.2346 30.5084 39.2916 31.4451C39.3038 31.5551 39.316 31.665 39.3364 31.7791C39.3486 31.8524 39.3649 31.9216 39.3812 31.9949L41.3401 39.8264C41.3849 40.0015 41.4419 40.1726 41.5152 40.3355C41.5844 40.4943 41.67 40.649 41.7677 40.7957C42.346 41.6631 43.3397 42.217 44.4067 42.217C44.5085 42.217 44.6103 42.2129 44.7162 42.2007C44.7325 42.2007 44.7488 42.1966 44.7651 42.1925C44.9036 42.1803 45.0379 42.1559 45.1723 42.1233C45.1805 42.1192 45.1886 42.1192 45.2008 42.1152C46.7688 41.7079 47.7747 40.1522 47.5303 38.5843L48.296 38.3929C49.5137 38.0874 50.259 36.8453 49.9535 35.6195ZM20.5905 33.9782C20.6923 33.9782 20.7941 33.9823 20.8918 33.9986C20.9407 34.0027 20.9937 34.0067 21.0425 34.019C21.1891 34.0434 21.3317 34.08 21.4701 34.1289C21.7512 34.2226 22.0159 34.3692 22.2521 34.5525H22.2561C22.3417 34.6217 22.4231 34.695 22.5046 34.7724C22.586 34.8497 22.6593 34.9353 22.7245 35.0208C22.9566 35.314 23.1317 35.6561 23.2254 36.0389L25.1843 43.8664C25.1965 43.9193 25.2087 43.9763 25.221 44.0293C25.2861 44.3795 25.278 44.7338 25.2087 45.0677C25.1965 45.1207 25.1843 45.1736 25.168 45.2266C25.1599 45.2592 25.1517 45.2917 25.1395 45.3243C25.1232 45.3813 25.1069 45.4343 25.0825 45.4913C25.001 45.7071 24.8911 45.9148 24.7567 46.1022C24.7282 46.1429 24.6997 46.1796 24.6712 46.2162C24.5083 46.4239 24.3169 46.6031 24.101 46.7538C24.0521 46.7864 24.0033 46.819 23.9544 46.8475C23.9137 46.876 23.8689 46.9004 23.8241 46.9208L20.5823 33.9782C20.5864 33.9782 20.5905 33.9782 20.5905 33.9782ZM19.9185 34.0637C19.9226 34.0637 19.9307 34.0637 19.9389 34.0597C20 34.0434 20.0692 34.0271 20.1384 34.019L23.4087 47.1C23.3476 47.1203 23.2824 47.1407 23.2091 47.157C23.201 47.161 23.1928 47.1651 23.1847 47.1651C21.857 47.4868 20.4846 46.7456 20.0081 45.4709C19.9796 45.3976 19.9511 45.3203 19.9307 45.2388L19.8819 45.0433L17.9922 37.4969L17.9555 37.3544C17.9311 37.2566 17.9107 37.1589 17.8985 37.0611C17.7153 35.7131 18.5705 34.4099 19.9185 34.0637ZM17.8093 38.5924L19.4506 45.1533L18.7012 45.3406C17.7157 45.589 16.7138 44.9863 16.4695 44.0007L15.4758 40.0219C15.431 39.8549 15.4147 39.6839 15.4228 39.5128C15.435 39.0811 15.602 38.6739 15.883 38.3643C15.9889 38.234 16.1192 38.1241 16.2618 38.0304C16.2658 38.0304 16.2659 38.0304 16.2659 38.0304C16.4288 37.9204 16.612 37.839 16.8116 37.7901L17.4713 37.6272L17.5609 37.6028L17.8093 38.5924ZM36.7137 20.6366C33.9077 19.48 30.9022 19.2478 28.0229 19.9687C20.7045 21.8013 16.131 29.3681 17.3895 37.1874L16.7053 37.3584C16.5179 37.4073 16.3387 37.4765 16.1758 37.5661C14.5876 28.6636 19.5113 20.0542 27.5382 18.0464C28.6785 17.7614 29.8514 17.6188 31.0243 17.6188C32.58 17.6188 34.1439 17.8672 35.663 18.3641C40.8269 20.0623 44.9524 24.367 46.7525 29.9138C46.7484 29.9138 46.7484 29.9138 46.7443 29.9138C46.61 29.9138 46.4715 29.926 46.329 29.9545C46.2801 29.9627 46.2312 29.9708 46.1864 29.9831L45.5022 30.1541C44.0117 25.7924 40.8192 22.3307 36.7137 20.6366ZM44.4071 41.7731C43.7188 41.7731 43.0673 41.5084 42.5704 41.0563C42.4075 40.9015 42.265 40.7346 42.1387 40.5472C42.0573 40.4251 41.984 40.2907 41.9229 40.1522C41.8618 40.0137 41.8088 39.8671 41.7722 39.7164L39.8133 31.889C39.7115 31.4858 39.7074 31.0745 39.7888 30.6876C39.8011 30.6265 39.8174 30.5654 39.8337 30.5084C39.8418 30.4718 39.854 30.4351 39.8662 30.3985C39.8784 30.3577 39.8907 30.3211 39.907 30.2803C39.9232 30.2355 39.9395 30.1908 39.9599 30.15C39.9803 30.1012 40.0047 30.0482 40.0332 29.9993C40.0536 29.9545 40.0739 29.9179 40.0984 29.8772C40.1269 29.8283 40.1554 29.7794 40.188 29.7306C40.2776 29.5921 40.3834 29.4618 40.4975 29.3437C40.5219 29.3152 40.5463 29.2907 40.5748 29.2663C40.6685 29.1726 40.7703 29.0871 40.8762 29.0138C40.9414 28.969 41.0065 28.9242 41.0758 28.8835C41.1084 28.8631 41.1409 28.8468 41.1735 28.8305L44.4153 41.7731C44.4108 41.7731 44.4071 41.7731 44.4071 41.7731ZM45.0665 41.6916C45.0583 41.6916 45.0502 41.6957 45.042 41.6998C44.9809 41.712 44.9198 41.7283 44.8588 41.7364L41.5885 28.6513C41.6496 28.631 41.7188 28.6147 41.7881 28.5943C41.7921 28.5902 41.8003 28.5902 41.8084 28.5862C43.1605 28.2644 44.5248 29.0097 44.9932 30.2844C45.0298 30.3781 45.0583 30.4718 45.0827 30.5695L45.1194 30.708L47.005 38.2585L47.0416 38.401C47.0498 38.4214 47.0498 38.4417 47.0579 38.4702C47.0742 38.5435 47.0905 38.6209 47.0987 38.6942C47.2819 40.0382 46.4104 41.3577 45.0665 41.6916ZM48.186 37.9652L47.4367 38.1526L45.547 30.6021L46.2964 30.4147C46.5407 30.3537 46.7851 30.3414 47.0294 30.3822C47.5833 30.4677 48.0598 30.7976 48.3367 31.2822C48.4222 31.4288 48.4874 31.5876 48.5281 31.7546L49.5259 35.7294C49.7702 36.715 49.1716 37.7168 48.186 37.9652Z" fill="#0A1640"/>
</svg>
