<svg width="20" height="20" viewBox="0 0 20 20" fill="none" xmlns="http://www.w3.org/2000/svg">
<path d="M1.6665 13.3333C1.6665 10.9766 1.6665 9.79742 2.399 9.06575C3.13067 8.33325 4.30984 8.33325 6.6665 8.33325H13.3332C15.6898 8.33325 16.869 8.33325 17.6007 9.06575C18.3332 9.79742 18.3332 10.9766 18.3332 13.3333C18.3332 15.6899 18.3332 16.8691 17.6007 17.6008C16.869 18.3333 15.6898 18.3333 13.3332 18.3333H6.6665C4.30984 18.3333 3.13067 18.3333 2.399 17.6008C1.6665 16.8691 1.6665 15.6899 1.6665 13.3333Z" stroke="#C4C4C4" stroke-width="1.5"/>
<path d="M5 8.33329V6.66663C5 5.34054 5.52678 4.06877 6.46447 3.13109C7.40215 2.19341 8.67392 1.66663 10 1.66663C11.3261 1.66663 12.5979 2.19341 13.5355 3.13109C14.4732 4.06877 15 5.34054 15 6.66663V8.33329" stroke="#C4C4C4" stroke-width="1.5" stroke-linecap="round"/>
<path d="M6.6665 13.3333H6.674M9.99234 13.3333H9.99984M13.3257 13.3333H13.3332" stroke="#C4C4C4" stroke-width="2" stroke-linecap="round" stroke-linejoin="round"/>
</svg>
