<svg width="10" height="12" viewBox="0 0 10 12" fill="none" xmlns="http://www.w3.org/2000/svg">
<path d="M1 11H9" stroke="white" stroke-linecap="round"/>
<path d="M8.16884 4.05539L8.53984 3.68539C8.68593 3.53933 8.80183 3.36592 8.88091 3.17507C8.95999 2.98422 9.0007 2.77966 9.00072 2.57307C9.00075 2.36648 8.96008 2.16191 8.88104 1.97104C8.80201 1.78017 8.68615 1.60674 8.54009 1.46064C8.39402 1.31455 8.22062 1.19865 8.02976 1.11957C7.83891 1.04049 7.63435 0.999779 7.42776 0.999756C7.22117 0.999733 7.01661 1.0404 6.82574 1.11944C6.63487 1.19847 6.46143 1.31433 6.31534 1.46039L5.94434 1.83139C5.94434 1.83139 5.99084 2.61939 6.68584 3.31439C7.38084 4.00939 8.16884 4.05589 8.16884 4.05589L4.76034 7.46439C4.52934 7.69539 4.41434 7.81039 4.28684 7.90989C4.1365 8.02722 3.975 8.12706 3.80234 8.20939C3.65684 8.27889 3.50184 8.33039 3.19234 8.43339L1.87934 8.87139M5.94434 1.83089L2.53584 5.23989C2.30484 5.47089 2.18934 5.58589 2.09034 5.71339C1.97306 5.86344 1.87262 6.02591 1.79084 6.19789C1.72134 6.34339 1.66984 6.49839 1.56634 6.80789L1.12884 8.12089M1.12884 8.12089L1.02234 8.44139C0.997371 8.51612 0.993722 8.59633 1.0118 8.67302C1.02988 8.7497 1.06896 8.81984 1.12467 8.87555C1.18039 8.93127 1.25052 8.97035 1.32721 8.98843C1.4039 9.00651 1.48411 9.00286 1.55884 8.97789L1.87934 8.87139M1.12884 8.12089L1.87934 8.87139" stroke="white"/>
</svg>
