<svg width="155" height="206" viewBox="0 0 155 206" fill="none" xmlns="http://www.w3.org/2000/svg">
<path d="M155 189.5C155 198.611 120.303 206 77.5007 206C34.6981 206 0 198.611 0 189.5C0 180.385 34.6981 173 77.5007 173C120.303 173 155 180.385 155 189.5Z" fill="#B27CF6"/>
<path d="M70.3621 183.713H52.2935V147.476H70.3621V183.713Z" fill="#8E443F"/>
<path d="M70.8015 190.365C71.5408 189.059 71.958 187.637 71.958 186.141C71.958 179.905 64.8651 174.849 56.118 174.849C47.3704 174.849 40.2785 179.905 40.2785 186.141C40.2785 187.637 40.6955 189.059 41.4348 190.365H70.8015Z" fill="#8E443F"/>
<path d="M104.206 181.305L117.55 169.123L93.1146 142.362L79.7706 154.544L104.206 181.305Z" fill="#8E443F"/>
<path d="M108.367 186.512C106.942 186.048 105.673 185.277 104.666 184.175C100.462 179.568 102.289 171.055 108.75 165.155C115.211 159.256 123.856 158.209 128.06 162.813C129.067 163.916 129.721 165.248 130.055 166.712L108.367 186.512Z" fill="#8E443F"/>
<path d="M72.9995 106.451C90.6255 106.451 104.911 123.901 104.911 145.429C104.911 146.041 104.897 146.651 104.875 147.259C111.236 140.432 115.091 131.545 115.091 121.82C115.091 100.292 96.2446 82.8421 72.9995 82.8421C49.7531 82.8421 30.9084 100.292 30.9084 121.82C30.9084 131.545 34.7635 140.432 41.1244 147.259C41.1014 146.651 41.0865 146.041 41.0865 145.429C41.0865 123.901 55.3735 106.451 72.9995 106.451Z" fill="#8E443F"/>
<path d="M73 160.798C85.7437 160.798 97.1553 155.544 104.875 147.258C104.897 146.651 104.912 146.041 104.912 145.429C104.912 123.901 90.626 106.451 73 106.451C55.374 106.451 41.087 123.901 41.087 145.429C41.087 146.041 41.1019 146.651 41.1249 147.258C48.8436 155.544 60.2563 160.798 73 160.798Z" fill="#F3664F"/>
<path d="M53.3511 86.4606C42.0903 86.9437 31.2973 81.8784 24.4728 72.9166C25.7209 71.0012 25.0016 68.088 22.7124 66.197C20.2906 64.1963 17.0574 64.1109 15.491 66.0067C14.7507 66.9022 14.5311 68.0806 14.7439 69.286C13.521 69.303 12.4045 69.7422 11.6645 70.6377C10.9244 71.5331 10.7051 72.7116 10.9176 73.917C9.69472 73.934 8.5782 74.3732 7.83817 75.2687C6.2715 77.1645 6.96468 80.3217 9.3868 82.3249C11.2968 83.9011 13.7006 84.2695 15.4044 83.4327C24.3518 99.0408 43.2383 106.234 60.4319 100.256L53.3511 86.4606Z" fill="#8E443F"/>
<path d="M92.6483 86.4606C103.909 86.9437 114.703 81.8784 121.527 72.9166C120.278 71.0012 120.998 68.088 123.286 66.197C125.709 64.1963 128.942 64.1109 130.509 66.0067C131.248 66.9022 131.467 68.0806 131.255 69.286C132.478 69.303 133.595 69.7422 134.334 70.6377C135.076 71.5331 135.293 72.7116 135.081 73.917C136.306 73.934 137.421 74.3732 138.16 75.2687C139.729 77.1645 139.036 80.3217 136.613 82.3249C134.703 83.9011 132.299 84.2695 130.596 83.4327C121.647 99.0408 102.762 106.234 85.5676 100.256L92.6483 86.4606Z" fill="#8E443F"/>
<path d="M115.572 19.7383C116.672 13.5214 113.542 6.96533 108.425 3.28593C103.941 -0.0128479 97.6385 -1.15473 92.6928 1.38278C88.2936 3.66656 85.6707 9.24914 87.1078 13.9021H57.0797C57.4603 12.6748 57.5433 11.4475 57.4164 10.1787C57.0358 6.5847 54.752 3.07365 51.4967 1.38278C46.5473 -1.15473 40.2454 -0.0128479 35.7201 3.28593C30.6446 6.96533 27.5147 13.5214 28.6143 19.7383C29.3761 24.0107 32.3369 27.8169 36.1429 29.7201C33.8167 33.3995 31.9982 37.418 30.8986 41.6049C29.7142 46.0041 29.2919 50.5717 29.5451 55.0538C30.6446 74.7635 45.1524 93.7119 71.2898 93.2898C72.2633 93.3313 73.2369 93.3313 74.2079 93.3313C105.507 92.9507 119.505 64.6964 113.288 41.6049C112.146 37.418 110.37 33.3995 108.001 29.7201C111.851 27.8169 114.811 24.0107 115.572 19.7383ZM47.0997 8.61473C44.6885 7.38744 41.5993 7.93886 39.4422 9.54433C36.9469 11.3645 35.3819 14.5364 35.9314 17.5814C36.4819 20.585 39.3151 23.164 42.4026 23.0786L49.5084 15.5075C50.8191 13.1408 49.5103 9.84201 47.0997 8.61473ZM104.746 9.54433C102.545 7.93886 99.5002 7.38744 97.0895 8.61473C94.6789 9.84201 93.3687 13.1408 94.6789 15.5075L101.784 23.0786C104.873 23.164 107.706 20.585 108.213 17.5814C108.762 14.5364 107.24 11.3645 104.746 9.54433Z" fill="#8E443F"/>
<path d="M104.758 9.53453C102.562 7.93882 99.4905 7.37029 97.0798 8.61465C94.6667 9.85901 93.3541 13.1432 94.6911 15.505L101.784 23.0663C104.861 23.1737 107.689 20.6045 108.235 17.5741C108.779 14.5461 107.249 11.3449 104.758 9.53453Z" fill="#F3664F"/>
<path d="M42.3962 23.0663L49.4881 15.505C50.8259 13.1432 49.5113 9.85901 47.0992 8.61465C44.6866 7.37029 41.6172 7.93882 39.422 9.53453C36.932 11.3449 35.4 14.5461 35.9461 17.5741C36.4921 20.6045 39.3195 23.1737 42.3962 23.0663Z" fill="#F3664F"/>
<path d="M96.4719 67.7024C96.4719 76.7935 85.5557 84.1597 72.0897 84.1597C58.6238 84.1597 47.7083 76.7935 47.7083 67.7024C47.7083 58.6137 58.6238 51.2451 72.0897 51.2451C85.5557 51.2451 96.4719 58.6137 96.4719 67.7024Z" fill="#F0C42E"/>
<path d="M83.9847 54.0266C83.9847 58.4599 78.6583 62.054 72.0901 62.054C65.5218 62.054 60.1979 58.4599 60.1979 54.0266C60.1979 49.5933 65.5218 45.9968 72.0901 45.9968C78.6583 45.9968 83.9847 49.5933 83.9847 54.0266Z" fill="#1A181A"/>
<path d="M81.5765 60.934C79.6807 64.5231 76.1477 66.9435 72.0925 66.9435C68.0373 66.9435 64.5068 64.5231 62.611 60.934C61.6765 62.7029 61.1324 64.7524 61.1324 66.9435C61.1324 69.9714 62.1596 72.7286 63.8456 74.8416C65.8536 72.3211 68.801 70.7229 72.0925 70.7229C75.3864 70.7229 78.3314 72.3211 80.3419 74.8416C82.0254 72.7286 83.0551 69.9714 83.0551 66.9435C83.0551 64.7524 82.511 62.7029 81.5765 60.934Z" fill="#171717"/>
<path d="M72.0923 70.723C68.8008 70.723 65.8534 72.3212 63.8453 74.8416C65.8534 77.3621 68.8008 78.9602 72.0923 78.9602C75.3862 78.9602 78.3312 77.3621 80.3417 74.8416C78.3312 72.3212 75.3862 70.723 72.0923 70.723Z" fill="#EE2E32"/>
<path d="M68.9056 36.6885C68.9056 43.3788 63.4816 48.8027 56.7913 48.8027C50.0998 48.8027 44.6759 43.3788 44.6759 36.6885C44.6759 29.9982 50.0998 24.5743 56.7913 24.5743C63.4816 24.5743 68.9056 29.9982 68.9056 36.6885Z" fill="white"/>
<path d="M67.2861 36.6885C67.2861 40.7242 64.0142 43.9961 59.9786 43.9961C55.9429 43.9961 52.6722 40.7242 52.6722 36.6885C52.6722 32.6529 55.9429 29.381 59.9786 29.381C64.0142 29.381 67.2861 32.6529 67.2861 36.6885Z" fill="#171717"/>
<path d="M76.4357 36.6885C76.4357 43.3788 81.8596 48.8027 88.5499 48.8027C95.2426 48.8027 100.667 43.3788 100.667 36.6885C100.667 29.9982 95.2426 24.5743 88.5499 24.5743C81.8596 24.5743 76.4357 29.9982 76.4357 36.6885Z" fill="white"/>
<path d="M78.0559 36.6885C78.0559 40.7242 81.3278 43.9961 85.3635 43.9961C89.3991 43.9961 92.671 40.7242 92.671 36.6885C92.671 32.6529 89.3991 29.381 85.3635 29.381C81.3278 29.381 78.0559 32.6529 78.0559 36.6885Z" fill="#171717"/>
<path d="M48.717 52.8604C48.717 55.5467 45.3951 57.7231 41.297 57.7231C37.1991 57.7231 33.8771 55.5467 33.8771 52.8604C33.8771 50.174 37.1991 47.9976 41.297 47.9976C45.3951 47.9976 48.717 50.174 48.717 52.8604Z" fill="#DA533D"/>
<path d="M110.309 52.8604C110.309 55.5467 106.988 57.7231 102.889 57.7231C98.7928 57.7231 95.4696 55.5467 95.4696 52.8604C95.4696 50.174 98.7928 47.9976 102.889 47.9976C106.988 47.9976 110.309 50.174 110.309 52.8604Z" fill="#DA533D"/>
</svg>
