<svg width="64" height="71" viewBox="0 0 64 71" fill="none" xmlns="http://www.w3.org/2000/svg">
<path d="M30.776 71C24.5586 71 19.1184 69.6443 14.4554 66.9329C9.87007 64.144 6.29508 60.1931 3.73042 55.0802C1.24347 49.9673 0 43.886 0 36.8363C0 29.4768 1.28233 23.0469 3.84699 17.5466C6.41166 12.0464 10.0255 7.74687 14.6885 4.64812C19.4293 1.54937 24.9083 0 31.1257 0C37.8093 0 43.5993 1.51064 48.4954 4.53192C53.3916 7.47573 57.1998 11.6203 59.9199 16.9656C62.6399 22.311 64 28.5472 64 35.6743C64 42.9564 62.6399 49.2313 59.9199 54.4992C57.1998 59.7671 53.3528 63.8342 48.3789 66.7005C43.405 69.5668 37.5373 71 30.776 71ZM32.408 55.3126C37.2265 55.3126 41.0346 53.4146 43.8324 49.6187C46.708 45.7452 48.1457 40.6323 48.1457 34.2799C48.1457 27.85 46.708 22.737 43.8324 18.9411C41.0346 15.1451 37.2265 13.2471 32.408 13.2471C27.4341 13.2471 23.5094 15.1451 20.6339 18.9411C17.7583 22.737 16.3206 27.85 16.3206 34.2799C16.3206 40.6323 17.7583 45.7452 20.6339 49.6187C23.5094 53.4146 27.4341 55.3126 32.408 55.3126Z" fill="#8DD44F"/>
</svg>
