<svg width="61" height="68" viewBox="0 0 61 68" fill="none" xmlns="http://www.w3.org/2000/svg">
<path d="M5.62935 68C3.90671 68 2.52244 67.4523 1.47655 66.357C0.492184 65.2009 0 63.8013 0 62.1584C0 59.9069 0.922844 57.2904 2.76853 54.3087C4.67574 51.2662 7.44428 48.0412 11.0741 44.6336C14.7655 41.1651 19.2567 37.6662 24.5477 34.1369V33.7718C17.4725 29.0864 12.2123 24.7051 8.76702 20.6282C5.38326 16.4904 3.69138 12.8394 3.69138 9.67517C3.69138 8.39731 3.96823 7.30201 4.52194 6.38926C5.07564 5.41566 5.78316 4.68546 6.64448 4.19866C7.56732 3.65101 8.49017 3.37718 9.41301 3.37718C12.8583 3.37718 16.4574 5.53736 20.2103 9.85772C24.0247 14.1781 27.5315 20.4456 30.7307 28.6604H31.0998C34.176 21.8452 37.0983 16.3383 39.8669 12.1396C42.6969 7.94094 45.4039 4.86801 47.9879 2.92081C50.5719 0.973602 53.0635 0 55.4629 0C56.5088 0 57.4317 0.30425 58.2315 0.912751C59.0928 1.52125 59.7695 2.34273 60.2617 3.37718C60.7539 4.41163 61 5.59821 61 6.93691C61 10.4662 58.8467 14.4823 54.5401 18.9852C50.295 23.4881 44.2965 28.1432 36.5446 32.9503V33.3154C44.6041 38.6702 50.5411 43.5991 54.3555 48.102C58.1699 52.6049 60.0772 56.5602 60.0772 59.9678C60.0772 61.4282 59.7388 62.6756 59.062 63.7101C58.3853 64.7445 57.524 65.566 56.4781 66.1745C55.4937 66.7222 54.4786 66.996 53.4327 66.996C49.4337 66.996 45.4655 64.562 41.528 59.694C37.652 54.826 33.8991 47.7978 30.2693 38.6094H29.9002C26.7625 45.5463 23.7479 51.1749 20.8563 55.4953C18.0262 59.8157 15.35 62.9799 12.8275 64.9879C10.3051 66.996 7.9057 68 5.62935 68Z" fill="#FFB425"/>
</svg>
